<?xml version="1.0" encoding="utf-8"?>
<!-- Generator: Adobe Illustrator 25.2.1, SVG Export Plug-In . SVG Version: 6.00 Build 0)  -->
<svg version="1.1"
	 id="atom" xmlns:cc="http://creativecommons.org/ns#" xmlns:dc="http://purl.org/dc/elements/1.1/" xmlns:rdf="http://www.w3.org/1999/02/22-rdf-syntax-ns#" xmlns:svg="http://www.w3.org/2000/svg"
	 xmlns="http://www.w3.org/2000/svg" xmlns:xlink="http://www.w3.org/1999/xlink" x="0px" y="0px" viewBox="0 0 131 120"
	 style="enable-background:new 0 0 131 120;" xml:space="preserve">
<style type="text/css">
	.st0{fill:none;stroke:#66595C;stroke-width:5;stroke-linecap:round;}
	.st1{fill:#66595C;}
</style>
<g>
	<path class="st0" d="M104,29.4c2.1-10.8,0.9-18.9-4.1-22.2c-1.7-1.1-3.7-1.6-5.9-1.5C81.9,6.3,62.3,23,46.3,47.6
		c-19,29.2-25.7,58.4-15,65.3c5.1,3.3,13.1,1,22.2-5.5"/>
	<path class="st0" d="M113.7,77.2c9-3.5,14.5-8.3,14.8-13.8c0.7-12.7-26.9-24.4-61.7-26.2c-3.3-0.2-6.5-0.3-9.6-0.2
		C26.9,37,3.3,45.3,2.7,56.8C2.4,62.3,7.4,67.6,15.9,72"/>
	<path class="st0" d="M57,10.5C50.8,5.4,45.1,2.7,40.4,3C39.2,3.1,38.1,3.4,37,4c-11.3,5.8-7.7,35.6,8.1,66.6s37.8,51.5,49.1,45.7
		c10.9-5.5,7.9-33.3-6.3-63"/>
	<path class="st1" d="M73.5,61c0,4.1-3.4,7.5-7.5,7.5s-7.5-3.4-7.5-7.5l0,0c0-4.1,3.4-7.5,7.5-7.5S73.5,56.9,73.5,61z"/>
</g>
</svg>
