<?xml version="1.0" encoding="utf-8"?>
<!-- Generator: Adobe Illustrator 25.2.1, SVG Export Plug-In . SVG Version: 6.00 Build 0)  -->
<svg version="1.1"
	 id="c" inkscape:version="0.48.4 r9939" xmlns:cc="http://creativecommons.org/ns#" xmlns:dc="http://purl.org/dc/elements/1.1/" xmlns:inkscape="http://www.inkscape.org/namespaces/inkscape" xmlns:rdf="http://www.w3.org/1999/02/22-rdf-syntax-ns#" xmlns:sodipodi="http://sodipodi.sourceforge.net/DTD/sodipodi-0.dtd" xmlns:svg="http://www.w3.org/2000/svg"
	 xmlns="http://www.w3.org/2000/svg" xmlns:xlink="http://www.w3.org/1999/xlink" x="0px" y="0px" viewBox="0 0 731.2 776.9"
	 style="enable-background:new 0 0 731.2 776.9;" xml:space="preserve">
<style type="text/css">
	.st0{fill:#A8B9CC;}
	.st1{fill:#1B75B3;}
</style>
<g>
	<path id="path3" inkscape:connector-curvature="0" class="st0" d="M432.6,299.6c0,0-5.4-50.8-55.8-52.2s-76.3,38.1-76.3,94.5
		s28.6,101.6,77.6,101.6c49,0,54.5-56.4,54.5-56.4l94,5.6c0,0,5.5,51-33.8,89.8c-39.3,38.9-87.6,45.2-121.3,45
		c-33.7-0.3-80.4,0.5-125.6-45.8S193,390.5,193,346.3c0-44.2,8.6-102.7,62.3-147c36.5-30.1,73.5-41.3,110.6-41.3
		c154.6,0,164.9,142.5,164.9,142.5L432.6,299.6z"/>
	<g id="g5" transform="translate(-132.125,-197.58301)">
		<g id="g7">
			<path id="path9" inkscape:connector-curvature="0" class="st1" d="M401,256.6h51.6l0.1,17.9h-2.5c-0.8-6.4-3.1-10.7-7-13
				c-2.1-1.2-5.4-1.9-9.6-2v46.8c0,3.3,0.5,5.4,1.7,6.5c1.1,1.1,3.4,1.6,6.9,1.6v2.3h-30.6v-2.3c3.4,0,5.6-0.5,6.7-1.6
				c1.1-1.1,1.7-3.2,1.7-6.5v-46.8c-4.2,0.1-7.4,0.8-9.6,2c-4.1,2.3-6.4,6.7-7,13h-2.5L401,256.6L401,256.6z"/>
			<path id="path11" inkscape:connector-curvature="0" class="st1" d="M463.5,314.4c2.3-0.1,3.9-0.4,4.9-1c1.6-0.9,2.4-2.7,2.4-5.3
				v-43c0-2.5-0.7-4.2-2.1-5.1c-0.9-0.5-2.6-0.9-5.1-1.2v-2.3h29v2.3c-2.5,0.1-4.3,0.5-5.2,1c-1.6,0.9-2.4,2.7-2.4,5.2v18.4h20.4
				v-18.4c0-2.6-0.8-4.3-2.3-5.2c-0.9-0.5-2.7-0.9-5.3-1.1v-2.3h29.2v2.3c-2.5,0.2-4.2,0.6-5.2,1.1c-1.5,0.9-2.3,2.6-2.3,5.1v43
				c0,2.6,0.9,4.4,2.6,5.3c1,0.5,2.6,0.9,4.9,1v2.3h-29.2v-2.3c2.5-0.1,4.2-0.4,5.2-1c1.6-0.9,2.4-2.7,2.4-5.2v-20.5h-20.4v20.5
				c0,2.6,0.9,4.4,2.6,5.3c1,0.5,2.7,0.8,5.1,0.9v2.3h-29V314.4L463.5,314.4z"/>
			<path id="path13" inkscape:connector-curvature="0" class="st1" d="M536,316.6v-2.3c2.5-0.1,4.2-0.4,5.2-1
				c1.6-0.9,2.4-2.7,2.4-5.2v-43c0-2.6-0.8-4.3-2.5-5.2c-1-0.5-2.7-0.9-5.2-1v-2.3h49.4v17.9h-2.1c-1.1-5.7-2.9-9.6-5.5-11.8
				c-2.6-2.1-7.4-3.2-14.3-3.2c-2.6,0-4.3,0.3-5,0.8c-0.7,0.6-1.1,1.7-1.1,3.4v20.6c4.9,0.1,8.2-0.9,9.9-2.8c1.7-1.9,3.1-5.4,4-10.4
				h2.2v30h-2.2c-0.6-5.1-1.9-8.6-3.7-10.7c-1.9-2.1-5.3-3.1-10.2-3.1V309c0,1.9,0.5,3.2,1.4,3.8c0.9,0.7,2.9,1,5.8,1
				c5.5,0,9.9-1.1,13.4-3.3c3.5-2.2,6.5-6.3,9.2-12.4h2.4l-3.5,18.5L536,316.6L536,316.6L536,316.6z"/>
		</g>
	</g>
	<g id="g15" transform="translate(-132.125,-197.58301)">
		<g id="g17">
			<path id="path19" inkscape:connector-curvature="0" class="st1" d="M142.1,820.6c2.8-0.2,4.7-0.8,5.7-1.8c1-1,1.4-3.1,1.4-6.3
				v-39.3c0-3.3-0.5-5.4-1.5-6.3c-1-0.9-2.9-1.5-5.7-1.8v-2.3h27.6c7.3,0,12.9,1.2,16.7,3.7c3.8,2.5,5.7,6.7,5.7,12.7
				c0,2.9-0.7,5.7-2.2,8.2c-1.5,2.6-4,4.6-7.4,6.2c-2.6,1.1-5.2,1.8-7.8,2c-2.6,0.2-6.5,0.3-11.6,0.3v16.6c0,3.3,0.5,5.4,1.6,6.4
				c1.1,1,3,1.6,5.9,1.7v2.3h-28.6L142.1,820.6L142.1,820.6L142.1,820.6z M173.4,791c2.7-1.8,4.1-5.7,4.1-11.6c0-4-0.7-7.3-2-9.8
				c-1.3-2.5-3.8-3.7-7.5-3.7c-1.7,0-2.9,0.2-3.7,0.6c-0.7,0.4-1.1,1.2-1.1,2.4v23.9C168.3,792.7,171.7,792.1,173.4,791L173.4,791z"
				/>
			<path id="path21" inkscape:connector-curvature="0" class="st1" d="M196.4,820.6c2.9-0.1,4.9-0.7,5.9-1.7c1.1-1,1.6-3.1,1.6-6.4
				v-39.3c0-3.4-0.6-5.7-1.9-6.7c-0.8-0.7-2.7-1.2-5.7-1.4v-2.3H224c5.7,0,10.4,0.6,13.9,1.9c6.9,2.5,10.3,7,10.3,13.6
				c0,4.8-1.8,8.6-5.4,11.4c-2.7,2.1-5.7,3.4-8.7,4l18.2,25.3c0.5,0.7,1,1.1,1.5,1.4c0.5,0.2,1.2,0.4,2,0.4v2.1h-17.9l-20-27.8h0
				v17.4c0,3.1,0.5,5.2,1.5,6.3c1,1.1,3,1.7,6,1.8v2.3h-29L196.4,820.6L196.4,820.6L196.4,820.6z M229.9,789.7
				c2.4-1.5,3.6-5.1,3.6-10.7c0-3.4-0.5-6.2-1.4-8.2c-1.6-3.4-4.5-5.1-8.7-5.1c-2.3,0-3.8,0.3-4.5,0.9c-0.7,0.6-1.1,1.6-1.1,2.9
				v22.6C223.5,792.1,227.5,791.3,229.9,789.7L229.9,789.7z"/>
			<path id="path23" inkscape:connector-curvature="0" class="st1" d="M313.7,770.1c5.9,5.9,8.8,13.6,8.8,22.9
				c0,9.3-2.9,17-8.8,22.9c-5.8,5.8-12.9,8.7-21.6,8.7c-9.2,0-16.6-3.2-22.4-9.5c-5.4-6-8.1-13.2-8.1-21.6c0-9.3,2.8-17,8.5-23
				c5.7-6.1,13-9.1,22-9.1C300.8,761.4,308,764.3,313.7,770.1L313.7,770.1z M305.4,809.8c1.3-4.3,1.9-9.9,1.9-16.8
				c0-9.5-1.4-16.6-4.1-21.4c-2.7-4.8-6.4-7.2-11.1-7.2c-6.5,0-10.9,4-13.3,12c-1.3,4.2-1.9,9.8-1.9,16.6c0,6.9,0.6,12.5,1.9,16.8
				c2.4,7.9,6.8,11.8,13.3,11.8C298.5,821.6,303,817.6,305.4,809.8z"/>
			<path id="path25" inkscape:connector-curvature="0" class="st1" d="M338.9,771c5.7-6.2,13-9.3,21.8-9.3c3.5,0,7.1,0.7,10.6,2.1
				c3.5,1.4,5.7,2.1,6.6,2.1c0.9,0,1.7-0.3,2.2-1c0.6-0.7,1-1.7,1.4-3h2.4v20.8h-2.2c-2.1-4.5-4.2-8.1-6.3-10.7
				c-4-4.8-8.6-7.2-13.7-7.2c-5.5,0-9.6,2.5-12.1,7.5c-2.5,5-3.8,12-3.8,21c0,7.4,1.2,14,3.5,19.8c2.4,5.8,6.9,8.7,13.7,8.7
				c3.7,0,6.1-0.8,7.4-2.4c0.7-0.9,1.1-2.3,1.1-4.1v-9.4c0-2.7-0.8-4.5-2.4-5.3c-1-0.5-3.1-0.8-6.3-0.9v-2.3h29.4v2.3
				c-3,0.1-4.9,0.7-5.9,1.9c-1,1.1-1.4,3.2-1.4,6.3V819c-1.9,1.2-5,2.4-9.2,3.6c-4.2,1.2-9,1.8-14.2,1.8c-9.5,0-17.1-3.1-22.8-9.3
				c-5.3-5.8-8-13.1-8-21.9C330.6,784.5,333.4,777,338.9,771L338.9,771z"/>
			<path id="path27" inkscape:connector-curvature="0" class="st1" d="M397.5,820.6c2.9-0.1,4.9-0.7,5.9-1.7c1.1-1,1.6-3.1,1.6-6.4
				v-39.3c0-3.4-0.6-5.7-1.9-6.7c-0.8-0.7-2.7-1.2-5.7-1.4v-2.3h27.6c5.7,0,10.4,0.6,13.9,1.9c6.9,2.5,10.3,7,10.3,13.6
				c0,4.8-1.8,8.6-5.4,11.4c-2.7,2.1-5.7,3.4-8.7,4l18.2,25.3c0.5,0.7,1,1.1,1.5,1.4c0.5,0.2,1.2,0.4,2,0.4v2.1H439L419,795h0v17.4
				c0,3.1,0.5,5.2,1.5,6.3c1,1.1,3,1.7,6,1.8v2.3h-29L397.5,820.6L397.5,820.6L397.5,820.6z M431,789.7c2.4-1.5,3.6-5.1,3.6-10.7
				c0-3.4-0.5-6.2-1.4-8.2c-1.6-3.4-4.5-5.1-8.7-5.1c-2.3,0-3.8,0.3-4.5,0.9c-0.7,0.6-1.1,1.6-1.1,2.9v22.6
				C424.5,792.1,428.6,791.3,431,789.7L431,789.7z"/>
			<path id="path29" inkscape:connector-curvature="0" class="st1" d="M461.5,820.6c2.1-0.1,3.7-1.1,5-2.9c0.8-1.1,2-3.6,3.5-7.5
				l19.1-48.6h2.4l19.1,46.7c2.2,5.2,3.8,8.6,4.8,10.1c1.1,1.5,2.6,2.2,4.5,2.2v2.3h-27.8v-2.3c2.8-0.1,4.6-0.4,5.5-0.7
				c0.9-0.4,1.3-1.3,1.3-2.9c0-0.7-0.2-1.7-0.7-3.2c-0.3-0.8-0.7-1.9-1.1-3l-2.2-5.4h-19.3c-1.3,3.5-2.1,5.8-2.4,6.9
				c-0.8,2.3-1.1,4-1.1,5c0,1.3,0.8,2.2,2.5,2.8c1,0.3,2.4,0.5,4.4,0.5v2.3h-17.5L461.5,820.6L461.5,820.6L461.5,820.6z
				 M493.7,801.9l-8.3-20.6h-0.7l-7.7,20.6H493.7z"/>
			<path id="path31" inkscape:connector-curvature="0" class="st1" d="M524.9,820.6c3.3,0,5.4-0.6,6.4-1.8c1-1.2,1.5-2.9,1.5-5.3
				v-42.2c0-2.4-0.6-4-1.7-4.8c-1.1-0.8-3.1-1.3-5.9-1.5v-2.3h21.6l16.9,41.1h0.7l16.8-41.1h21.6v2.3c-2.9,0.2-4.9,0.8-5.9,1.7
				c-1.1,0.9-1.6,3-1.6,6.5v39.3c0,3.3,0.5,5.4,1.6,6.4c1.1,1,3,1.6,5.9,1.7v2.3h-28.5v-2.3c2.5-0.1,4.5-0.5,5.7-1.3
				c1.3-0.8,1.9-2.5,1.9-5.2v-43.4h-0.6l-21,52.2H558l-21.2-51.2h-0.4v40.2c0,3,0.5,5.1,1.6,6.5c1.1,1.4,3.4,2.1,7,2.3v2.3H525
				L524.9,820.6L524.9,820.6L524.9,820.6z"/>
			<path id="path33" inkscape:connector-curvature="0" class="st1" d="M607.8,820.6c3.3,0,5.4-0.6,6.4-1.8c1-1.2,1.5-2.9,1.5-5.3
				v-42.2c0-2.4-0.6-4-1.7-4.8c-1.1-0.8-3.1-1.3-6-1.5v-2.3h21.6l16.9,41.1h0.7l16.8-41.1h21.6v2.3c-2.9,0.2-4.9,0.8-5.9,1.7
				c-1.1,0.9-1.6,3-1.6,6.5v39.3c0,3.3,0.5,5.4,1.6,6.4c1.1,1,3,1.6,5.9,1.7v2.3h-28.5v-2.3c2.5-0.1,4.5-0.5,5.7-1.3
				c1.3-0.8,1.9-2.5,1.9-5.2v-43.4h-0.6l-21,52.2h-2.3l-21.2-51.2h-0.4v40.2c0,3,0.5,5.1,1.6,6.5c1.1,1.4,3.4,2.1,7,2.3v2.3h-20.1
				L607.8,820.6L607.8,820.6L607.8,820.6z"/>
			<path id="path35" inkscape:connector-curvature="0" class="st1" d="M690.9,820.6c2.4-0.1,4.2-0.4,5.2-0.9
				c1.7-0.9,2.6-2.7,2.6-5.3v-43c0-2.6-0.8-4.4-2.5-5.3c-1-0.5-2.8-0.9-5.4-1v-2.3h30v2.3c-2.7,0.1-4.5,0.4-5.5,1
				c-1.7,0.9-2.5,2.7-2.5,5.3v43c0,2.5,0.7,4.1,2,5c1.3,0.8,3.3,1.3,6,1.3v2.3h-30L690.9,820.6L690.9,820.6L690.9,820.6z"/>
			<path id="path37" inkscape:connector-curvature="0" class="st1" d="M726.1,820.6c3.2-0.1,5.2-0.7,6.2-1.9
				c0.9-1.2,1.4-2.9,1.4-5.2v-42.1c-2.6-3-4.2-4.8-4.9-5.4c-0.6-0.5-1.4-0.9-2.5-1v-2.3h18.2l29.5,37.1h0.4v-26.1
				c0-3-0.5-5.2-1.6-6.4c-1.1-1.3-3.2-2.1-6.3-2.3v-2.3h18.4v2.3c-2.7,0.5-4.5,1.1-5.4,1.9c-0.9,0.8-1.4,2.5-1.4,5.2v52.4h-2.4
				L738,777h-0.6v34.8c0,2.7,0.4,4.7,1.1,5.8c1.1,1.8,3.5,2.8,7,3v2.3h-19.4L726.1,820.6L726.1,820.6L726.1,820.6z"/>
			<path id="path39" inkscape:connector-curvature="0" class="st1" d="M800,771c5.7-6.2,13-9.3,21.8-9.3c3.5,0,7.1,0.7,10.6,2.1
				c3.5,1.4,5.7,2.1,6.6,2.1c0.9,0,1.7-0.3,2.2-1s1-1.7,1.4-3h2.4v20.8h-2.2c-2.1-4.5-4.2-8.1-6.3-10.7c-4-4.8-8.6-7.2-13.7-7.2
				c-5.5,0-9.6,2.5-12.1,7.5c-2.5,5-3.8,12-3.8,21c0,7.4,1.2,14,3.5,19.8s6.9,8.7,13.7,8.7c3.7,0,6.1-0.8,7.4-2.4
				c0.7-0.9,1.1-2.3,1.1-4.1v-9.4c0-2.7-0.8-4.5-2.4-5.3c-1-0.5-3.1-0.8-6.3-0.9v-2.3h29.4v2.3c-3,0.1-4.9,0.7-5.9,1.9
				c-1,1.1-1.4,3.2-1.4,6.3V819c-1.9,1.2-5,2.4-9.2,3.6c-4.2,1.2-9,1.8-14.2,1.8c-9.5,0-17.1-3.1-22.8-9.3c-5.3-5.8-8-13.1-8-21.9
				C791.7,784.5,794.5,777,800,771L800,771z"/>
			<path id="path41" inkscape:connector-curvature="0" class="st1" d="M243.3,909.4c2.3-0.1,4-0.4,5-1c1.7-0.9,2.6-2.7,2.6-5.3v-43
				c0-2.6-0.8-4.3-2.4-5.2c-0.9-0.5-2.7-0.9-5.1-1v-2.3h30v2.3c-3.5,0.1-5.8,0.6-7,1.5c-1.2,0.9-1.7,3.1-1.7,6.6v42
				c0,2,0.5,3.3,1.5,3.9c1,0.6,2.9,1,5.8,1c5.2,0,9.5-1.2,13-3.5c3.5-2.4,6.5-7,9.1-13.8h2.5l-3.5,20.1h-49.7L243.3,909.4
				L243.3,909.4L243.3,909.4z"/>
			<path id="path43" inkscape:connector-curvature="0" class="st1" d="M302.9,909.4c2.1-0.1,3.7-1.1,5-2.9c0.8-1.1,2-3.6,3.5-7.5
				l19.1-48.6h2.4l19.1,46.7c2.1,5.2,3.8,8.6,4.8,10.1c1.1,1.5,2.6,2.2,4.5,2.2v2.3h-27.8v-2.3c2.8-0.1,4.6-0.4,5.5-0.7
				c0.9-0.4,1.3-1.3,1.3-2.9c0-0.7-0.2-1.7-0.7-3.2c-0.3-0.8-0.7-1.9-1.1-3l-2.2-5.4h-19.3c-1.3,3.5-2.1,5.8-2.4,6.9
				c-0.8,2.3-1.1,4-1.1,5c0,1.3,0.8,2.2,2.5,2.8c1,0.3,2.4,0.5,4.4,0.5v2.3H303L302.9,909.4L302.9,909.4L302.9,909.4z M335.1,890.7
				l-8.2-20.6h-0.7l-7.7,20.6H335.1L335.1,890.7z"/>
			<path id="path45" inkscape:connector-curvature="0" class="st1" d="M367.1,909.4c3.2-0.1,5.2-0.7,6.2-1.9
				c0.9-1.2,1.4-2.9,1.4-5.2v-42.1c-2.6-3-4.2-4.8-4.9-5.4c-0.6-0.5-1.5-0.9-2.5-1v-2.3h18.2l29.5,37.1h0.4v-26.1
				c0-3-0.5-5.2-1.6-6.4c-1.1-1.3-3.2-2.1-6.3-2.3v-2.3h18.4v2.3c-2.7,0.5-4.5,1.1-5.4,1.9c-0.9,0.8-1.4,2.5-1.4,5.2v52.4h-2.4
				L379,865.8h-0.6v34.8c0,2.7,0.4,4.7,1.1,5.8c1.1,1.8,3.5,2.8,7,3v2.3h-19.4L367.1,909.4L367.1,909.4L367.1,909.4z"/>
			<path id="path47" inkscape:connector-curvature="0" class="st1" d="M441.5,859.8c5.7-6.2,13-9.3,21.8-9.3c3.5,0,7.1,0.7,10.6,2.1
				c3.5,1.4,5.7,2.1,6.6,2.1c0.9,0,1.7-0.3,2.2-1c0.6-0.7,1-1.7,1.4-3h2.4v20.8h-2.2c-2.1-4.5-4.2-8.1-6.3-10.7
				c-4-4.8-8.6-7.2-13.7-7.2c-5.5,0-9.6,2.5-12.1,7.5c-2.5,5-3.8,12-3.8,21c0,7.4,1.2,14,3.5,19.8c2.4,5.8,6.9,8.7,13.7,8.7
				c3.7,0,6.1-0.8,7.4-2.4c0.7-0.9,1.1-2.3,1.1-4.1v-9.4c0-2.7-0.8-4.5-2.4-5.3c-1-0.5-3.1-0.8-6.3-0.9v-2.3h29.4v2.3
				c-3,0.1-4.9,0.7-5.9,1.9c-1,1.1-1.4,3.2-1.4,6.3v11.3c-1.9,1.2-5,2.4-9.2,3.6c-4.2,1.2-9,1.8-14.2,1.8c-9.5,0-17.1-3.1-22.8-9.3
				c-5.3-5.8-8-13.1-8-21.9C433.2,873.3,436,865.9,441.5,859.8L441.5,859.8z"/>
			<path id="path49" inkscape:connector-curvature="0" class="st1" d="M529.6,851.6v2.3c-3.3,0.1-5.5,0.6-6.7,1.6
				c-1.1,1-1.7,3.1-1.7,6.5v29.8c0,4.5,0.5,8,1.6,10.5c1.9,4.6,5.5,6.9,10.8,6.9c6.6,0,11-2.5,13.4-7.6c1.3-2.8,1.9-6.7,1.9-11.7
				v-27.2c0-3.2-0.6-5.4-1.7-6.6c-1.1-1.2-3.3-1.9-6.6-2.2v-2.3h18.8v2.3c-2.7,0.5-4.5,1.2-5.4,2c-0.9,0.8-1.3,2.6-1.3,5.5v28.4
				c0,7.5-1.8,13.4-5.3,17.5c-3.5,4.1-9,6.2-16.6,6.2c-9.9,0-16.6-3-20.2-9.2c-1.9-3.2-2.9-7.4-2.9-12.5V862c0-3.3-0.4-5.4-1.3-6.3
				c-0.9-0.9-2.8-1.5-5.8-1.8v-2.3L529.6,851.6L529.6,851.6z"/>
			<path id="path51" inkscape:connector-curvature="0" class="st1" d="M565.1,909.4c2.1-0.1,3.7-1.1,5-2.9c0.8-1.1,2-3.6,3.5-7.5
				l19.1-48.6h2.4l19.1,46.7c2.2,5.2,3.8,8.6,4.8,10.1c1.1,1.5,2.6,2.2,4.5,2.2v2.3h-27.8v-2.3c2.8-0.1,4.6-0.4,5.5-0.7
				c0.9-0.4,1.3-1.3,1.3-2.9c0-0.7-0.2-1.7-0.7-3.2c-0.3-0.8-0.7-1.9-1.1-3l-2.2-5.4h-19.3c-1.3,3.5-2.1,5.8-2.4,6.9
				c-0.8,2.3-1.1,4-1.1,5c0,1.3,0.8,2.2,2.5,2.8c1,0.3,2.4,0.5,4.4,0.5v2.3h-17.5L565.1,909.4L565.1,909.4L565.1,909.4z
				 M597.3,890.7l-8.2-20.6h-0.7l-7.7,20.6H597.3z"/>
			<path id="path53" inkscape:connector-curvature="0" class="st1" d="M639.3,859.8c5.7-6.2,13-9.3,21.8-9.3c3.5,0,7.1,0.7,10.6,2.1
				c3.5,1.4,5.7,2.1,6.6,2.1c0.9,0,1.7-0.3,2.2-1c0.6-0.7,1-1.7,1.4-3h2.4v20.8h-2.2c-2.1-4.5-4.2-8.1-6.3-10.7
				c-4-4.8-8.6-7.2-13.7-7.2c-5.5,0-9.6,2.5-12.1,7.5c-2.5,5-3.8,12-3.8,21c0,7.4,1.2,14,3.5,19.8c2.4,5.8,6.9,8.7,13.7,8.7
				c3.7,0,6.1-0.8,7.4-2.4c0.7-0.9,1.1-2.3,1.1-4.1v-9.4c0-2.7-0.8-4.5-2.4-5.3c-1-0.5-3.1-0.8-6.3-0.9v-2.3h29.4v2.3
				c-3,0.1-4.9,0.7-5.9,1.9c-1,1.1-1.4,3.2-1.4,6.3v11.3c-1.9,1.2-5,2.4-9.2,3.6c-4.2,1.2-9,1.8-14.2,1.8c-9.5,0-17.1-3.1-22.8-9.3
				c-5.3-5.8-8-13.1-8-21.9C631.1,873.3,633.8,865.9,639.3,859.8L639.3,859.8z"/>
			<path id="path55" inkscape:connector-curvature="0" class="st1" d="M698.4,911.7v-2.3c2.5-0.1,4.2-0.4,5.2-1
				c1.6-0.9,2.4-2.7,2.4-5.2v-43c0-2.6-0.8-4.3-2.5-5.2c-1-0.5-2.7-0.9-5.2-1v-2.3h49.4v17.9h-2.1c-1.1-5.7-2.9-9.6-5.6-11.8
				c-2.6-2.1-7.4-3.2-14.3-3.2c-2.6,0-4.3,0.3-5,0.8c-0.7,0.6-1.1,1.7-1.1,3.4v20.6c4.9,0.1,8.2-0.9,9.9-2.8c1.7-1.9,3.1-5.4,4-10.4
				h2.2v30h-2.2c-0.6-5.1-1.9-8.6-3.7-10.7c-1.9-2.1-5.3-3.1-10.2-3.1V904c0,1.9,0.5,3.2,1.4,3.8c0.9,0.7,2.9,1,5.8,1
				c5.5,0,9.9-1.1,13.4-3.3c3.5-2.2,6.5-6.3,9.2-12.4h2.4l-3.5,18.5L698.4,911.7L698.4,911.7L698.4,911.7z"/>
		</g>
	</g>
</g>
</svg>
