<?xml version="1.0" encoding="utf-8"?>
<!-- Generator: Adobe Illustrator 25.2.1, SVG Export Plug-In . SVG Version: 6.00 Build 0)  -->
<svg version="1.1" id="cpp" xmlns="http://www.w3.org/2000/svg" xmlns:xlink="http://www.w3.org/1999/xlink" x="0px" y="0px"
	 viewBox="0 0 306 344.4" style="enable-background:new 0 0 306 344.4;" xml:space="preserve">
<style type="text/css">
	.st0{fill:#00599C;}
	.st1{fill:#004482;}
	.st2{fill:#659AD2;}
	.st3{fill:#FFFFFF;}
</style>
<g>
	<g>
		<path class="st0" d="M302.1,258.3c2.4-4.2,3.9-8.8,3.9-13.1V99.1c0-4.2-1.5-8.9-3.9-13.1L153,172.2L302.1,258.3z"/>
		<path class="st1" d="M166.2,341.2l126.5-73c3.6-2.1,7-5.7,9.4-9.9L153,172.2L3.9,258.3c2.4,4.2,5.7,7.8,9.4,9.9l126.5,73
			C147,345.4,159,345.4,166.2,341.2z"/>
		<path class="st2" d="M302.1,86.1c-2.4-4.2-5.7-7.8-9.4-9.9l-126.5-73c-7.3-4.2-19.2-4.2-26.5,0l-126.5,73C6,80.4,0,90.7,0,99.1
			v146.1c0,4.2,1.5,8.9,3.9,13.1L153,172.2L302.1,86.1z"/>
	</g>
	<g>
		<g>
			<path class="st3" d="M153,274.2c-56.2,0-102-45.8-102-102s45.8-102,102-102c36.3,0,70.1,19.5,88.3,51l-44.1,25.5
				c-9.1-15.7-26-25.5-44.2-25.5c-28.1,0-51,22.9-51,51c0,28.1,22.9,51,51,51c18.2,0,35.1-9.8,44.2-25.5l44.1,25.5
				C223.1,254.6,189.3,274.2,153,274.2z"/>
		</g>
		<g>
			<polygon class="st3" points="255,166.5 243.7,166.5 243.7,155.2 232.3,155.2 232.3,166.5 221,166.5 221,177.8 232.3,177.8 
				232.3,189.2 243.7,189.2 243.7,177.8 255,177.8 			"/>
		</g>
		<g>
			<polygon class="st3" points="297.5,166.5 286.2,166.5 286.2,155.2 274.8,155.2 274.8,166.5 263.5,166.5 263.5,177.8 274.8,177.8 
				274.8,189.2 286.2,189.2 286.2,177.8 297.5,177.8 			"/>
		</g>
	</g>
</g>
</svg>
