<?xml version="1.0" encoding="utf-8"?>
<!-- Generator: Adobe Illustrator 25.2.1, SVG Export Plug-In . SVG Version: 6.00 Build 0)  -->
<svg version="1.1" id="dart" xmlns="http://www.w3.org/2000/svg" xmlns:xlink="http://www.w3.org/1999/xlink" x="0px" y="0px"
	 viewBox="0 0 415.8 110.5" style="enable-background:new 0 0 415.8 110.5;" xml:space="preserve">
<style type="text/css">
	.st0{fill:#231F20;}
	.st1{fill:#00C4B3;}
	.st2{fill:#22D3C5;}
	.st3{fill:#0075C9;}
	.st4{fill:#00A8E1;}
</style>
<g>
	<path class="st0" d="M211.8,27.2c9.1,8.3,13.6,19.7,13.6,34.4c0,14.8-4.4,26.5-13.3,35.1c-8.8,8.6-22.3,12.9-40.4,12.9h-31.9V15h33
		C189.7,15.1,202.7,18.9,211.8,27.2z M196.2,83.4c5.2-4.9,7.8-12,7.8-21.4c0-9.3-2.6-16.7-7.8-21.7c-5.2-5-13.2-7.7-24-7.7H160v58.1
		h13.8C183.5,90.7,191,88.3,196.2,83.4z"/>
	<path class="st0" d="M300.6,109.7h-18.9v-9c-5.4,6.6-11.7,9.9-19.4,9.9c-7.7,0-14.2-2.2-19.5-6.7s-7.9-10.5-7.9-17.9
		c0-7.5,2.7-13,8.2-16.7c5.4-3.7,12.9-5.5,22.3-5.5h15v-0.6c0-7.8-4-11.7-12.2-11.7c-3.5,0-7.2,0.7-11.2,2.1
		c-3.9,1.4-7.2,3.1-10,5.2l-9.1-13.2c9.6-7,20.6-10.5,32.9-10.5c8.9,0,15.9,2.2,21.6,6.7c5.6,4.4,8.2,11.5,8.2,21.1V109.7
		L300.6,109.7z M280.3,81.6v-3h-12.7c-8.2,0-12.2,2.3-12.2,7.3c0,2.6,1,4.5,2.9,5.9s4.7,2,8.4,2c3.6,0,6.8-1.1,9.5-3.4
		C279,88.3,280.3,85.3,280.3,81.6z"/>
	<path class="st0" d="M354.3,54.3c-6.1,0-10.9,2.1-13.9,6.5c-3,4.3-4.8,10-4.8,17.1v31.9h-20.3V36.9h20.3v9.3
		c2.7-3,6.4-5.5,10.3-7.6c3.9-2.1,8.6-3.2,12.6-3.3v19.2L354.3,54.3L354.3,54.3z"/>
	<path class="st0" d="M391.1,51.6v32.2c0,2.8,0.8,5,2.3,6.6c1.4,1.6,3.2,2.4,5.2,2.4c3.8,0,7-1.7,9.7-5.2l7.6,14.3
		c-6.3,5.8-13,8.7-20,8.7s-12.9-2.3-17.8-6.9c-4.9-4.6-7.2-10.9-7.2-18.9V15.2h20.3v20.3h21.6l-11.1,16.2L391.1,51.6L391.1,51.6z"/>
</g>
<g>
	<path class="st1" d="M29.7,29.9l-7.1-7.1V74l0.1,2.4c0,1.1,0.2,2.4,0.6,3.7l56.2,19.8l14-6.2l0,0L29.7,29.9z"/>
	<path class="st2" d="M23.3,80.1L23.3,80.1L23.3,80.1L23.3,80.1z M93.5,93.7l-14,6.2L23.4,80.1c1.1,4.1,3.4,8.7,6,11.3l18.3,18.2
		l40.8,0.1L93.5,93.7L93.5,93.7z"/>
	<path class="st3" d="M22.8,22.8L1,55.8c-1.8,1.9-0.9,5.9,2,8.9l12.6,12.7l7.9,2.8c-0.3-1.3-0.6-2.6-0.6-3.7l-0.1-2.4L22.8,22.8
		L22.8,22.8z"/>
	<path class="st3" d="M79.9,23.4c-1.3-0.3-2.6-0.5-3.7-0.6l-2.5-0.1H22.6l70.9,70.9l0,0l6.2-14L79.9,23.4z"/>
	<path class="st4" d="M79.8,23.4C79.9,23.4,79.9,23.4,79.8,23.4L79.8,23.4C79.9,23.4,79.9,23.4,79.8,23.4z M91.2,29.4
		c-2.6-2.6-7.1-5-11.3-6l19.8,56.2l-6.2,14l0,0l15.2-4.9V47L91.2,29.4z"/>
	<path class="st1" d="M77.1,15.6L64.4,3c-2.9-2.9-6.9-3.8-8.9-2l-33,21.8h51.1l2.5,0.1c1.1,0,2.4,0.2,3.7,0.6L77.1,15.6z"/>
</g>
</svg>
