<?xml version="1.0" encoding="utf-8"?>
<!-- Generator: Adobe Illustrator 25.2.1, SVG Export Plug-In . SVG Version: 6.00 Build 0)  -->
<svg version="1.1"
	 id="git-white" inkscape:version="0.91 r13725" xmlns:cc="http://creativecommons.org/ns#" xmlns:dc="http://purl.org/dc/elements/1.1/" xmlns:inkscape="http://www.inkscape.org/namespaces/inkscape" xmlns:rdf="http://www.w3.org/1999/02/22-rdf-syntax-ns#" xmlns:sodipodi="http://sodipodi.sourceforge.net/DTD/sodipodi-0.dtd" xmlns:svg="http://www.w3.org/2000/svg"
	 xmlns="http://www.w3.org/2000/svg" xmlns:xlink="http://www.w3.org/1999/xlink" x="0px" y="0px" viewBox="0 0 273 114"
	 style="enable-background:new 0 0 273 114;" xml:space="preserve">
<style type="text/css">
	.st0{fill:#FFFFFF;}
</style>
<g>
	<g>
		<path id="g" inkscape:connector-curvature="0" class="st0" d="M163.6,38.8c-6,0-10.4,2.9-10.4,10c0,5.3,2.9,9,10.1,9
			c6.1,0,10.2-3.6,10.2-9.2C173.5,42.2,169.8,38.8,163.6,38.8z M151.6,88.7c-1.4,1.7-2.8,3.6-2.8,5.8c0,4.3,5.5,5.7,13.2,5.7
			c6.3,0,14.9-0.4,14.9-6.3c0-3.5-4.1-3.7-9.4-4L151.6,88.7z M183.8,39.1c2,2.5,4,6,4,11c0,12.1-9.5,19.1-23.2,19.1
			c-3.5,0-6.6-0.4-8.6-1l-3.6,5.8l10.7,0.7c18.8,1.2,29.9,1.7,29.9,16.2c0,12.5-11,19.6-29.9,19.6c-19.7,0-27.2-5-27.2-13.6
			c0-4.9,2.2-7.5,6-11.1c-3.6-1.5-4.8-4.2-4.8-7.2c0-2.4,1.2-4.6,3.2-6.6c2-2.1,4.1-4.1,6.7-6.5c-5.3-2.6-9.4-8.3-9.4-16.3
			c0-12.5,8.3-21.1,24.9-21.1c4.7,0,7.5,0.4,10,1.1h21.2v9.2L183.8,39.1"/>
		<path id="i" inkscape:connector-curvature="0" class="st0" d="M213,19.4c-6.2,0-9.8-3.6-9.8-9.8S206.8,0,213,0
			c6.3,0,9.9,3.4,9.9,9.6S219.3,19.4,213,19.4z M198.9,84.7v-8.6l5.6-0.8c1.5-0.2,1.7-0.5,1.7-2.2v-32c0-1.2-0.3-2-1.4-2.3l-5.9-2.1
			l1.2-8.8h22.5V73c0,1.7,0.1,2,1.7,2.2l5.5,0.8v8.6L198.9,84.7"/>
		<path id="t" inkscape:connector-curvature="0" class="st0" d="M273,80.5c-4.7,2.3-11.5,4.3-17.7,4.3c-12.9,0-17.8-5.2-17.8-17.5
			V38.9c0-0.7,0-1.1-0.9-1.1H229v-9.7c9.6-1.1,13.4-5.9,14.6-17.7h10.3v15.5c0,0.8,0,1.1,0.9,1.1H270v10.9h-16.2v26
			c0,6.4,1.5,8.9,7.4,8.9c3,0,6.2-0.8,8.8-1.7L273,80.5"/>
	</g>
	<path id="logo" inkscape:connector-curvature="0" class="st0" d="M111.8,52L62,2.2c-2.9-2.9-7.5-2.9-10.4,0L41.3,12.6l13.1,13.1
		c3-1,6.5-0.3,9,2.1c2.4,2.4,3.1,6,2.1,9l12.6,12.6c3.1-1.1,6.6-0.4,9,2.1c3.4,3.4,3.4,8.9,0,12.3s-8.9,3.4-12.3,0
		c-2.6-2.6-3.2-6.3-1.9-9.5L61.1,42.6v31c0.8,0.4,1.6,1,2.3,1.7c3.4,3.4,3.4,8.9,0,12.3c-3.4,3.4-8.9,3.4-12.3,0s-3.4-8.9,0-12.3
		c0.8-0.8,1.8-1.5,2.9-1.9V42c-1-0.4-2-1.1-2.9-1.9c-2.6-2.6-3.2-6.4-1.9-9.5l-12.9-13L2.1,51.7c-2.9,2.9-2.9,7.5,0,10.4l49.7,49.7
		c2.9,2.9,7.5,2.9,10.4,0l49.5-49.5C114.6,59.5,114.6,54.8,111.8,52"/>
</g>
</svg>
