<?xml version="1.0" encoding="utf-8"?>
<!-- Generator: Adobe Illustrator 25.2.1, SVG Export Plug-In . SVG Version: 6.00 Build 0)  -->
<svg version="1.1"
	 id="go-gopher" inkscape:version="0.91 r13725" xmlns:cc="http://creativecommons.org/ns#" xmlns:dc="http://purl.org/dc/elements/1.1/" xmlns:inkscape="http://www.inkscape.org/namespaces/inkscape" xmlns:rdf="http://www.w3.org/1999/02/22-rdf-syntax-ns#" xmlns:sodipodi="http://sodipodi.sourceforge.net/DTD/sodipodi-0.dtd" xmlns:svg="http://www.w3.org/2000/svg"
	 xmlns="http://www.w3.org/2000/svg" xmlns:xlink="http://www.w3.org/1999/xlink" x="0px" y="0px" viewBox="0 0 32 32"
	 style="enable-background:new 0 0 32 32;" xml:space="preserve">
<style type="text/css">
	.st0{fill:#384E54;}
	.st1{fill:#76E1FE;}
	.st2{fill:#FFFFFF;}
	.st3{fill-opacity:0.3294;}
	.st4{fill:#FFFCFB;}
	.st5{fill:#C38C74;}
	.st6{fill:#23201F;}
	.st7{fill:#171311;}
</style>
<g>
	<path class="st0" d="M31.6,3.8c-1-1.7-3.2-2.3-5.1-1.2c-0.4,0.2-0.7,0.5-0.9,0.7c-1.7-1.3-3.8-2.1-6.2-2.2C18.3,1,17.2,1,16.1,1v0
		c-1.1,0-2.2,0-3.3,0.1C10.4,1.2,8.3,2,6.5,3.3C6.2,3,5.9,2.8,5.6,2.6c-1.8-1-4.1-0.5-5.1,1.2c-1,1.7-0.3,4,1.6,5
		C2.2,8.9,2.3,8.9,2.4,9c-0.3,1-0.4,2-0.4,3c0,3,0,13,0,20h28c0-8,0-16,0-20c0-1-0.2-2-0.4-3c0.1-0.1,0.3-0.1,0.4-0.2
		C31.9,7.8,32.6,5.5,31.6,3.8z"/>
	<path class="st1" d="M29.8,5.3c-0.5-0.9-1.7-1.2-2.7-0.7c-0.3,0.2-1,0.6-1.5,1.1C23.8,4,20.7,3,16,3c-4.8,0-7.9,1.1-9.8,2.9
		c-0.5-0.5-1.3-1-1.6-1.2c-1-0.6-2.2-0.3-2.7,0.7C1.4,6.3,1.8,7.4,2.7,8C3,8.1,4,8.6,4.5,8.8C4.2,9.7,4,10.8,4,12v20h24
		c0-7.4,0-18,0-20c0-1.2-0.2-2.3-0.5-3.3C28,8.5,28.7,8.1,28.9,8C29.9,7.4,30.3,6.3,29.8,5.3z"/>
	
		<circle id="circle4477" inkscape:export-filename=".\rect4485.png" inkscape:export-xdpi="90" inkscape:export-ydpi="90" class="st2" cx="21.2" cy="10" r="4.7">
	</circle>
	
		<circle id="circle4483" inkscape:export-filename=".\rect4485.png" inkscape:export-xdpi="90" inkscape:export-ydpi="90" class="st2" cx="10.3" cy="10" r="4.8">
	</circle>
	
		<path id="rect4246" inkscape:export-filename=".\rect4485.png" inkscape:export-xdpi="90" inkscape:export-ydpi="90" class="st3" d="
		M14.8,15.6h2.2c0.4,0,0.7,0.3,0.7,0.7v2.7c0,0.4-0.3,0.7-0.7,0.7h-2.2c-0.4,0-0.7-0.3-0.7-0.7v-2.7C14.1,15.9,14.4,15.6,14.8,15.6z
		"/>
	
		<path id="rect4485" inkscape:export-filename=".\rect4485.png" inkscape:export-xdpi="90" inkscape:export-ydpi="90" class="st4" d="
		M14.8,14.9h2.2c0.4,0,0.7,0.3,0.7,0.7v2.7c0,0.4-0.3,0.7-0.7,0.7h-2.2c-0.4,0-0.7-0.3-0.7-0.7v-2.7C14.1,15.2,14.4,14.9,14.8,14.9z
		"/>
	
		<path id="path4487" inkscape:connector-curvature="0" inkscape:export-filename=".\rect4485.png" inkscape:export-xdpi="90" inkscape:export-ydpi="90" sodipodi:nodetypes="sssssssss" class="st3" d="
		M20,16.2c0,0.8-0.9,1.3-2.1,1.2c0,0,0-0.6-0.3-0.6c-0.5,0-1.1,0-1.7,0c-0.6,0-1.2,0.2-1.7,0c-0.1,0-0.2,0.6-0.3,0.6
		c-1.2,0-2.1-0.3-2.1-1.2c0-1.2,1.8-2.2,4.1-2.2C18.2,14,20,15,20,16.2L20,16.2z"/>
	
		<path id="path4489" inkscape:connector-curvature="0" inkscape:export-filename=".\rect4485.png" inkscape:export-xdpi="90" inkscape:export-ydpi="90" sodipodi:nodetypes="sssssssss" class="st5" d="
		M20,15.3c0,0.6-0.4,0.9-1.1,1c-0.3,0.1-0.6,0.1-1,0.1c-0.6,0-1.2,0-1.9,0c-0.7,0-1.3,0-1.9,0c-0.3,0-0.6,0-0.8-0.1
		c-0.8-0.1-1.3-0.4-1.3-1c0-1.2,1.8-2.1,4-2.1C18.2,13.2,20,14.2,20,15.3L20,15.3z"/>
	
		<ellipse id="ellipse4491" inkscape:export-filename=".\rect4485.png" inkscape:export-xdpi="90" inkscape:export-ydpi="90" class="st6" cx="15.9" cy="13.5" rx="2.1" ry="1.3">
	</ellipse>
	
		<circle id="circle4493" inkscape:export-filename=".\rect4485.png" inkscape:export-xdpi="90" inkscape:export-ydpi="90" class="st7" cx="12.4" cy="10" r="2">
	</circle>
	
		<circle id="circle4495" inkscape:export-filename=".\rect4485.png" inkscape:export-xdpi="90" inkscape:export-ydpi="90" class="st7" cx="23.1" cy="10" r="2">
	</circle>
	<path class="st0" d="M5.1,6.8c-0.9-0.8-1.6-0.9-2-0.9C2.9,5.9,2.8,6,2.8,6.1c-0.1,0.1,0,0.2,0.1,0.3c0.1,0,0.1,0,0.2,0
		c0,0,0.4-0.1,0.8,0.1C3.3,6.5,3.1,6.8,2.9,6.9C2.9,7.1,2.8,7.2,2.9,7.3C2.9,7.4,3,7.4,3,7.4c0,0,0,0,0.1,0c0.1,0,0.1-0.1,0.1-0.2
		c0-0.1,0.2-0.5,1.1-0.5c0,0,0,0,0.1,0c0.1,0.1,0.3,0.2,0.4,0.3c0,0,0.1,0.1,0.1,0.1c0.1,0,0.1,0,0.1-0.1C5.2,7,5.2,6.8,5.1,6.8z"/>
	<path class="st0" d="M28,6.2c0.3-0.1,0.5,0,0.5,0c0.1,0,0.1,0,0.2,0C28.9,6.2,28.9,6,28.8,6c0,0-0.1-0.1-0.4-0.1
		c-0.4,0-1.1,0-2,0.9c-0.1,0.1-0.1,0.2,0,0.3c0,0,0.1,0.1,0.1,0.1c0,0,0.1,0,0.1-0.1c0.2-0.2,0.4-0.3,0.6-0.4c0.9,0,1.1,0.4,1.1,0.5
		c0,0.1,0.1,0.1,0.1,0.2c0,0,0,0,0.1,0c0.1,0,0.2,0,0.2-0.1c0,0,0-0.1-0.1-0.3C28.7,6.6,28.5,6.4,28,6.2z"/>
</g>
</svg>
