<?xml version="1.0" encoding="utf-8"?>
<!-- Generator: Adobe Illustrator 25.2.1, SVG Export Plug-In . SVG Version: 6.00 Build 0)  -->
<svg version="1.1" id="haskell" xmlns="http://www.w3.org/2000/svg" xmlns:xlink="http://www.w3.org/1999/xlink" x="0px" y="0px"
	 viewBox="0 0 512 80" style="enable-background:new 0 0 512 80;" xml:space="preserve">
<style type="text/css">
	.st0{fill:#333333;fill-opacity:0.937;}
	.st1{fill:#453A62;}
	.st2{fill:#5E5086;}
	.st3{fill:#8F4E8B;}
</style>
<g>
	<g>
		<path class="st0" d="M188.8,3.4v74.2h-20.4V48.6h-24.9v29h-20.4V3.4h20.4v27.4h24.9V3.4H188.8z M215.6,78.7
			c-2.7,0-5.3-0.5-7.6-1.4c-2.4-0.9-4.4-2.1-6.2-3.7c-1.7-1.6-3-3.5-4-5.6c-1-2.2-1.5-4.5-1.5-7c0-2.8,0.6-5.3,1.8-7.6
			c1.2-2.3,2.8-4.3,4.9-6c2.1-1.7,4.6-3,7.4-3.9c2.9-0.9,6.1-1.4,9.6-1.4c4.5,0,8.2,0.7,11.1,2.1v-1.7c0-2.6-0.8-4.5-2.3-5.7
			c-1.5-1.3-3.9-1.9-7.2-1.9c-3.1,0-6,0.5-8.7,1.6c-2.6,1-5.4,2.4-8.4,4.4l-5.8-12.3c7.3-4.7,15.5-7,24.8-7c8.8,0,15.5,2,20.3,5.9
			c4.7,3.9,7.1,9.8,7.1,17.6v10.7c0,1.9,0.3,3.2,1.1,4c0.7,0.7,2,1.1,3.8,1.3v16.7c-1.8,0.3-3.5,0.6-5.1,0.7c-1.6,0.2-3,0.3-4.3,0.3
			c-3.6,0-6.3-0.6-8.2-1.9c-1.8-1.3-3-3.2-3.6-5.8l-0.4-2c-2.4,3.1-5.3,5.5-8.5,7.2C222.6,77.9,219.2,78.7,215.6,78.7L215.6,78.7z
			 M221.5,64.5c1.2,0,2.4-0.2,3.7-0.5c1.3-0.4,2.4-0.9,3.3-1.6c0.8-0.6,1.4-1.1,1.9-1.8c0.5-0.7,0.7-1.4,0.7-2.1v-4.1
			c-1.2-0.4-2.5-0.8-3.9-1c-1.4-0.3-2.7-0.4-3.8-0.4c-2.4,0-4.5,0.6-6.1,1.8c-1.6,1.2-2.4,2.7-2.4,4.5c0,1.5,0.6,2.8,1.8,3.8
			C218.1,64,219.6,64.4,221.5,64.5L221.5,64.5z M286.9,78.7c-2.3,0-4.8-0.2-7.4-0.5c-2.6-0.3-5.3-0.8-7.8-1.4
			c-2.5-0.6-4.9-1.2-7.3-2c-2.4-0.8-4.4-1.7-6.2-2.7l7.6-13.5c3.8,2,7.5,3.6,11,4.6c3.5,1,6.7,1.6,9.7,1.6c3.5,0,5.2-0.9,5.2-2.6
			c0-0.9-0.7-1.7-2.1-2.4c-1.4-0.7-4-1.5-7.9-2.5c-3.9-1-7.2-2.1-9.8-3.1c-2.6-1-4.8-2.2-6.4-3.5c-1.6-1.3-2.8-2.7-3.5-4.3
			c-0.7-1.6-1-3.4-1-5.5c0-2.8,0.6-5.4,1.7-7.7c1.2-2.4,2.8-4.4,4.9-6.2c2.1-1.7,4.6-3.1,7.4-4c2.9-1,6.1-1.5,9.5-1.5
			c3.7,0,7.6,0.5,11.8,1.6c4.3,1,8.6,2.6,13,4.6l-7.6,12.6c-3.9-1.8-7.1-3.1-9.7-3.9c-2.6-0.8-5.1-1.2-7.4-1.2
			c-1.5,0-2.8,0.2-3.8,0.7c-0.9,0.4-1.4,1.1-1.4,2.1c0,0.6,0.1,1,0.4,1.5c0.3,0.3,0.8,0.7,1.5,1c0.7,0.3,1.6,0.7,2.8,1.2
			c1.3,0.3,2.8,0.7,4.6,1.2c4.2,1,7.7,2.2,10.6,3.3c2.9,1.1,5.1,2.4,6.8,3.8c1.7,1.3,3,2.9,3.7,4.6c0.8,1.7,1.1,3.6,1.1,5.8
			c0,5.6-2.2,10.1-6.5,13.4C300.2,77.1,294.4,78.7,286.9,78.7L286.9,78.7z M353.9,77.6l-12.4-20.1l-4,4.4v15.7h-19.9V1.3h19.9V43
			l14.6-20.4H373l-18.9,24l20.8,30.9H353.9L353.9,77.6z"/>
		<path class="st0" d="M402.9,78.7c-4.8,0-9.1-0.7-12.9-2.2c-3.8-1.5-6.9-3.6-9.5-6.2c-2.5-2.6-4.4-5.5-5.8-8.9
			c-1.3-3.3-2-6.9-2-10.6c0-4,0.6-7.7,1.9-11.3c1.3-3.6,3.2-6.7,5.8-9.3c2.6-2.6,5.7-4.7,9.4-6.3c3.8-1.6,8.1-2.4,13.1-2.4
			c4.9,0,9.2,0.8,13,2.4c3.8,1.5,6.9,3.6,9.4,6.3c2.6,2.6,4.5,5.6,5.8,9.1c1.3,3.4,2,7,2,10.8c0,1-0.1,2.1-0.2,3.2
			c-0.1,1-0.2,2-0.3,2.8h-38.6c0.2,2.9,1.3,5.1,3.2,6.4c2,1.3,4.1,1.9,6.4,1.9c2.2,0,4.2-0.5,6.1-1.5c2-1,3.2-2.3,3.9-4.1l16.8,4.8
			c-2.2,4.4-5.7,8-10.4,10.8C415.3,77.3,409.7,78.7,402.9,78.7L402.9,78.7z M411.7,44.3c-0.4-2.6-1.3-4.7-2.9-6.3
			c-1.6-1.5-3.7-2.3-6.2-2.3c-2.5,0-4.6,0.8-6.2,2.3c-1.6,1.5-2.6,3.6-2.9,6.3H411.7L411.7,44.3z M439.2,1.3h19.9v53.1
			c0,4.2,1.7,6.3,5.1,6.3c0.8,0,1.7-0.1,2.7-0.4c1-0.3,1.9-0.7,2.7-1.2l2.5,16c-2.4,1.1-5.1,2-8.1,2.6c-2.9,0.6-5.7,0.9-8.4,0.9
			c-5.3,0-9.4-1.4-12.2-4.1c-2.9-2.7-4.3-6.6-4.3-11.8L439.2,1.3L439.2,1.3z M477.2,1.3h19.9v53.1c0,4.2,1.7,6.3,5.1,6.3
			c0.8,0,1.7-0.1,2.7-0.4c1-0.3,1.9-0.7,2.7-1.2l2.5,16c-2.4,1.1-5.1,2-8.1,2.6c-2.9,0.6-5.7,0.9-8.4,0.9c-5.3,0-9.4-1.4-12.2-4.1
			c-2.9-2.7-4.3-6.6-4.3-11.8L477.2,1.3L477.2,1.3z"/>
	</g>
	<path class="st1" d="M1.8,77.7l24.7-37.1L1.8,3.5h18.6l24.7,37.1L20.4,77.7H1.8z"/>
	<path class="st2" d="M26.6,77.7l24.7-37.1L26.6,3.5h18.6l49.5,74.2H76.1L60.6,54.5L45.1,77.7H26.6z"/>
	<path class="st3" d="M86.4,56.1l-8.2-12.4H107v12.4L86.4,56.1L86.4,56.1z M74,37.5l-8.2-12.4H107v12.4H74z"/>
</g>
</svg>
