<?xml version="1.0" encoding="utf-8"?>
<!-- Generator: Adobe Illustrator 25.2.1, SVG Export Plug-In . SVG Version: 6.00 Build 0)  -->
<svg version="1.1" id="java" xmlns="http://www.w3.org/2000/svg" xmlns:xlink="http://www.w3.org/1999/xlink" x="0px" y="0px"
	 viewBox="0 0 233.5 428.2" style="enable-background:new 0 0 233.5 428.2;" xml:space="preserve">
<style type="text/css">
	.st0{fill:#5382A1;}
	.st1{fill:#F8981D;}
</style>
<g>
	<g>
		<path class="st0" d="M82,385.4c-4.9,4.3-10.1,6.6-14.7,6.6c-6.6,0-10.2-4-10.2-10.4c0-6.9,3.8-12,19.3-12H82L82,385.4 M95.6,400.7
			v-47.3c0-12.1-6.9-20.1-23.5-20.1c-9.7,0-18.2,2.4-25.1,5.4l2,8.4c5.4-2,12.5-3.9,19.4-3.9c9.6,0,13.7,3.9,13.7,11.8v6h-4.8
			c-23.2,0-33.7,9-33.7,22.6c0,11.7,6.9,18.3,19.9,18.3c8.4,0,14.6-3.5,20.4-8.5l1.1,7.2L95.6,400.7L95.6,400.7z"/>
		<path class="st0" d="M140.8,400.7h-16.9l-20.3-66.1h14.7l12.6,40.6l2.8,12.2c6.4-17.7,10.9-35.6,13.1-52.9h14.3
			C157.4,356.3,150.5,380.2,140.8,400.7"/>
		<path class="st0" d="M205.6,385.4c-4.9,4.3-10.1,6.6-14.8,6.6c-6.6,0-10.2-4-10.2-10.4c0-6.9,3.9-12,19.3-12h5.7V385.4
			 M219.1,400.7v-47.3c0-12.1-6.9-20.1-23.5-20.1c-9.7,0-18.2,2.4-25.1,5.4l2,8.4c5.4-2,12.5-3.9,19.4-3.9c9.6,0,13.7,3.9,13.7,11.8
			v6h-4.8c-23.3,0-33.7,9-33.7,22.6c0,11.7,6.9,18.3,19.9,18.3c8.4,0,14.6-3.5,20.5-8.5l1.1,7.2L219.1,400.7L219.1,400.7z"/>
		<path class="st0" d="M28.7,411.9c-3.9,5.6-10.1,10.1-16.9,12.6l-6.7-7.9c5.2-2.7,9.7-7,11.7-11c1.8-3.6,2.5-8.2,2.5-19.2V311h14.4
			v74.5C33.7,400.2,32.5,406.1,28.7,411.9"/>
		<path class="st0" d="M222,335.5h-1.6v-0.9h4.3v0.9h-1.6v4.4H222V335.5z M230.5,335.7L230.5,335.7l-1.6,4.2h-0.7l-1.6-4.2h0v4.2h-1
			v-5.3h1.5l1.4,3.8l1.4-3.8h1.5v5.3h-1L230.5,335.7L230.5,335.7z"/>
	</g>
	<g>
		<g>
			<path class="st1" d="M131.3,141.5c13.9,16-3.7,30.5-3.7,30.5s35.4-18.3,19.1-41.1c-15.2-21.3-26.8-31.9,36.2-68.5
				C182.9,62.4,84,87.1,131.3,141.5"/>
			<path class="st1" d="M146.7,3.4c0,0,30,30-28.5,76.2c-46.9,37-10.7,58.1,0,82.3c-27.4-24.7-47.5-46.4-34-66.7
				C104.1,65.5,158.9,51.1,146.7,3.4"/>
		</g>
		<g>
			<path class="st0" d="M79.9,226.8c0,0-11,6.4,7.9,8.6c22.9,2.6,34.6,2.2,59.8-2.5c0,0,6.6,4.2,15.9,7.8
				C107,264.8,35.5,239.2,79.9,226.8"/>
			<path class="st0" d="M73,195.2c0,0-12.4,9.2,6.5,11.1c24.4,2.5,43.8,2.7,77.2-3.7c0,0,4.6,4.7,11.9,7.2
				C100.2,229.8,24.1,211.4,73,195.2"/>
			<path class="st0" d="M206.1,250.2c0,0,8.2,6.7-9,11.9C164.4,272,61.2,275,32.6,262.5c-10.3-4.5,9-10.7,15.1-12
				c6.3-1.4,10-1.1,10-1.1c-11.5-8.1-74.1,15.9-31.8,22.7C141.1,290.8,236,263.7,206.1,250.2"/>
			<path class="st0" d="M85.2,162.4c0,0-52.5,12.5-18.6,17c14.3,1.9,42.9,1.5,69.4-0.7c21.7-1.8,43.5-5.7,43.5-5.7
				s-7.7,3.3-13.2,7.1c-53.3,14-156.3,7.5-126.6-6.8C64.9,161,85.2,162.4,85.2,162.4"/>
			<path class="st0" d="M179.4,215c54.2-28.2,29.1-55.2,11.6-51.6c-4.3,0.9-6.2,1.7-6.2,1.7s1.6-2.5,4.6-3.6
				c34.6-12.2,61.2,35.9-11.2,54.9C178.3,216.5,179.2,215.7,179.4,215"/>
			<path class="st0" d="M90.6,291.4c52,3.3,131.9-1.8,133.8-26.5c0,0-3.6,9.3-43,16.7c-44.4,8.4-99.2,7.4-131.6,2
				C49.7,283.7,56.4,289.2,90.6,291.4"/>
		</g>
	</g>
</g>
</svg>
