<?xml version="1.0" encoding="utf-8"?>
<!-- Generator: Adobe Illustrator 25.2.1, SVG Export Plug-In . SVG Version: 6.00 Build 0)  -->
<svg version="1.1" id="Layer_1" xmlns="http://www.w3.org/2000/svg" xmlns:xlink="http://www.w3.org/1999/xlink" x="0px" y="0px"
	 viewBox="0 0 1052 1052" style="enable-background:new 0 0 1052 1052;" xml:space="preserve">
<style type="text/css">
	.st0{fill:#EFDA4F;}
	.st1{fill:#323330;}
</style>
<g>
	<rect class="st0" width="1052" height="1052"/>
	<g>
		<path class="st1" d="M625,867.8c26.9-15.6,53.4-30.9,80.2-46.4c2.7,4,5.2,7.7,7.7,11.3c15.1,21.4,33.8,38.1,59.9,44.7
			c21.9,5.6,43.9,5.8,65.3-2.6c25.8-10.2,37.3-33.7,29-58.3c-3.1-9.2-8.7-16.8-16.7-21.9c-11.3-7.2-23.1-13.9-35.2-19.7
			c-23.6-11.2-47.9-21-71.3-32.4c-22.8-11.1-43.4-25.5-59.7-45.2c-21.9-26.5-29.9-57.4-29.4-91.1c0.9-60.7,38.6-108.4,98.4-123.1
			c41.7-10.2,83-8.6,122.5,9.9c28.5,13.3,48.1,36.1,63.6,63.3c-25.6,16.4-50.9,32.7-76.6,49.2c-2.5-3.9-4.7-7.5-7.1-11
			c-9.4-13.7-20.9-24.7-37.6-28.8c-12-3-24-3.4-36,0.2c-36.8,11.1-36.7,54.3-18.2,71.2c7.1,6.6,15.4,12.4,24.1,16.7
			c19.9,9.7,40.3,18.2,60.5,27.3c24.9,11.2,49.2,23.7,70.6,41c31.5,25.4,47.1,58.6,49,98.8c1.3,27.1-2.6,53.2-16.2,77.1
			c-16.4,28.9-41.2,48.1-72.3,58.2c-64.3,20.9-127.1,17.4-186.8-15.9C662.9,923.6,640.9,898.8,625,867.8z"/>
		<path class="st1" d="M276.4,878.2c26.5-16.1,53-32.1,80-48.4c1.6,2.8,3.2,5.5,4.7,8.2c6.4,10.8,13,21.4,22.6,29.6
			c16.8,14.4,47.6,17.4,66.8,6.4c12.9-7.4,18.2-19.6,20.3-33.3c1.3-8.5,1.9-17.2,1.9-25.9c0.1-108.3,0.1-216.6,0.1-324.9
			c0-2.1,0-4.3,0-6.6c32.9,0,65.3,0,98.1,0c0.1,1.1,0.4,2.2,0.4,3.3c0,113.6,0.1,227.3-0.2,340.9c-0.1,28.5-6.1,55.9-21,80.7
			c-18.2,30.2-45.6,47.6-79.3,55.2c-41,9.1-81.5,7.7-120.4-9.6c-33.5-14.9-57-40.3-73.1-72.9C276.9,880.2,276.8,879.3,276.4,878.2z"
			/>
	</g>
</g>
</svg>
