<?xml version="1.0" encoding="utf-8"?>
<!-- Generator: Adobe Illustrator 25.2.1, SVG Export Plug-In . SVG Version: 6.00 Build 0)  -->
<svg version="1.1"
	 id="julia" xmlns:cc="http://creativecommons.org/ns#" xmlns:dc="http://purl.org/dc/elements/1.1/" xmlns:rdf="http://www.w3.org/1999/02/22-rdf-syntax-ns#"
	 xmlns="http://www.w3.org/2000/svg" xmlns:xlink="http://www.w3.org/1999/xlink" x="0px" y="0px" viewBox="0 0 383.4 258.8"
	 style="enable-background:new 0 0 383.4 258.8;" xml:space="preserve">
<style type="text/css">
	.st0{fill:#252525;}
	.st1{fill:#6682DF;stroke:#4063D8;stroke-width:3.8379;stroke-miterlimit:5;}
	.st2{fill:#D5635C;stroke:#CB3C33;stroke-width:3.8379;stroke-miterlimit:5;}
	.st3{fill:#60AD51;stroke:#389826;stroke-width:3.8379;stroke-miterlimit:5;}
	.st4{fill:#AA79C1;stroke:#9558B2;stroke-width:3.8379;stroke-miterlimit:5;}
</style>
<g transform="matrix(1.25,0,0,-1.25,0,258.84)">
	<g>
		<path class="st0" d="M62.1,39.6v87.6L36.2,120V26.9c0-4.9-0.4-8.2-1.1-9.9c-0.8-1.7-1.9-2.5-3.3-2.5c-0.7,0-1.4,0.3-2.3,0.8
			c-0.8,0.5-1.9,1.6-3.1,3.2c-1.1,1.4-2.4,2.9-4,4.4c-1.6,1.5-3.8,2.2-6.5,2.2c-3.6,0-6.5-0.9-8.7-2.7c-2.2-1.8-3.2-4-3.2-6.7
			c0-3.2,1.9-5.9,5.8-8.2C13.6,5.1,19.2,4,26.4,4C31.8,4,36.7,4.4,41,5.3c4.4,0.9,8.1,2.6,11.3,5.2c3.1,2.6,5.6,6.2,7.2,10.8
			C61.3,25.9,62.1,32,62.1,39.6L62.1,39.6z"/>
		<path class="st0" d="M98.1,124.6H72.3V64.7c0-3.7,0.8-7.2,2.3-10.4c1.5-3.2,3.7-6.1,6.4-8.5c2.7-2.4,5.9-4.3,9.5-5.7
			c3.6-1.4,7.6-2.1,11.8-2.1c3.6,0,7.4,0.9,11.2,2.6c3.9,1.7,7.5,4,10.9,6.9v-7.9h25.8v85.1h-25.8V63.2c-2-3-4.3-5.5-6.9-7.5
			c-2.6-2-4.9-3-6.9-3c-1.7,0-3.4,0.3-4.9,1c-1.5,0.6-2.8,1.5-4,2.5c-1.1,1.1-2,2.3-2.7,3.8c-0.6,1.5-1,3-1,4.7V124.6z"/>
		<path class="st0" d="M186.1,39.6V166l-25.7-7.1V39.6L186.1,39.6z"/>
		<path class="st0" d="M196.4,120V39.6h25.8v87.6L196.4,120z"/>
		<path class="st0" d="M276.8,83.5V58.9c-2.6-2-5-3.6-7.2-4.9c-2.2-1.3-4.3-1.9-6.4-1.9c-1.1,0-2,0.3-2.9,1
			c-0.9,0.6-1.7,1.5-2.5,2.5c-0.8,1.1-1.3,2.3-1.8,3.8c-0.4,1.5-0.6,3-0.6,4.6c0,2,0.6,4,1.9,5.9c1.3,1.9,3,3.7,5,5.3
			c2.1,1.7,4.4,3.2,6.9,4.6C271.8,81.2,274.3,82.5,276.8,83.5L276.8,83.5z M302.7,39.6v63.8c0,3.5-0.7,6.8-2,9.6
			c-1.4,2.9-3.5,5.3-6.3,7.4c-2.9,2-6.5,3.6-10.9,4.7c-4.4,1.1-9.7,1.6-15.8,1.6c-5,0-9.7-0.5-14.2-1.6c-4.5-1.1-8.4-2.5-11.8-4.3
			c-3.4-1.8-6.1-4-8.1-6.5c-2-2.5-3-5.3-3-8.2c0-3.2,1.1-5.8,3.4-7.9c2.3-2.1,5.2-3.1,8.8-3.1c2.3,0,4.3,0.3,5.8,1
			c1.5,0.7,2.7,1.6,3.6,2.7c0.8,1.1,1.4,2.5,1.8,4c0.3,1.5,0.5,3.1,0.5,4.6c0,2.8,0.8,5.2,2.4,7.1c1.6,2,4.4,2.9,8.5,2.9
			c3.5,0,6.2-1.1,8.3-3.4c2.1-2.3,3.1-6.1,3.1-11.6v-8.4l-2.8-0.7c-3.5-1.1-7-2.2-10.5-3.3c-3.5-1.2-7-2.5-10.3-3.9
			c-3.3-1.4-6.4-2.9-9.2-4.6c-2.9-1.7-5.4-3.5-7.5-5.7c-2.2-2.1-3.9-4.5-5.1-7.1c-1.2-2.6-1.9-5.6-1.9-8.8c0-3.2,0.6-6.1,1.8-8.8
			c1.2-2.7,2.9-5,5-7c2.2-2,4.9-3.5,8-4.6c3.1-1.1,6.7-1.7,10.6-1.7c2.9,0,5.4,0.2,7.5,0.6c2.1,0.4,4,1,5.7,1.8
			c1.7,0.8,3.2,1.6,4.6,2.7c1.4,1,2.8,2.1,4.2,3.3v-6.8L302.7,39.6z"/>
	</g>
	<g>
		<circle class="st1" cx="48.8" cy="149.6" r="16"/>
		<circle class="st2" cx="211.1" cy="149.6" r="16"/>
		<circle class="st3" cx="232.1" cy="185.6" r="16"/>
		<ellipse transform="matrix(0.9871 -0.1602 0.1602 0.9871 -20.6899 42.4784)" class="st4" cx="253.1" cy="149.6" rx="20" ry="20"/>
	</g>
</g>
</svg>
