<?xml version="1.0" encoding="utf-8"?>
<!-- Generator: Adobe Illustrator 25.2.1, SVG Export Plug-In . SVG Version: 6.00 Build 0)  -->
<svg version="1.1"
	 id="musl5" inkscape:version="0.92.4 5da689c313, 2019-01-14" xmlns:cc="http://creativecommons.org/ns#" xmlns:dc="http://purl.org/dc/elements/1.1/" xmlns:inkscape="http://www.inkscape.org/namespaces/inkscape" xmlns:rdf="http://www.w3.org/1999/02/22-rdf-syntax-ns#" xmlns:sodipodi="http://sodipodi.sourceforge.net/DTD/sodipodi-0.dtd" xmlns:svg="http://www.w3.org/2000/svg"
	 xmlns="http://www.w3.org/2000/svg" xmlns:xlink="http://www.w3.org/1999/xlink" x="0px" y="0px" viewBox="0 0 84 84"
	 style="enable-background:new 0 0 84 84;" xml:space="preserve">
<style type="text/css">
	.st0{fill:none;stroke:#000000;}
</style>
<g id="Group" transform="translate(0,-6)" inkscape:groupmode="layer" inkscape:label="Layer 1">
	<path id="path2383" inkscape:connector-curvature="0" sodipodi:nodetypes="csccc" class="st0" d="M36.5,87.1c0,0-2,4-3.5,0.4
		c-1.5-3.5-1.2-11.9-1.2-11.9c0.4-31.3,17.3-9.3,14.3-4.9L36.5,87.1z"/>
	<path id="path3157" inkscape:connector-curvature="0" sodipodi:nodetypes="csccc" class="st0" d="M36.6,86.9c0,0-2.2,4.4-4,0.3
		c-1.8-4.1-1.8-13.6-1.8-13.6c-0.6-35.6,20-10,16.5-5.1L36.6,86.9z"/>
	<path id="path3159" inkscape:connector-curvature="0" sodipodi:nodetypes="csccc" class="st0" d="M36.9,86.6c0,0-2.5,5.1-4.8,0.3
		c-2.3-4.8-2.4-15.8-2.4-15.8C28.2,30,53.1,60,49.1,65.7L36.9,86.6z"/>
	<path id="path3161" inkscape:connector-curvature="0" sodipodi:nodetypes="csccc" class="st0" d="M37.2,86.2c0,0-2.9,5.9-5.7,0.3
		c-2.8-5.7-3.2-18.6-3.2-18.6c-2.6-48.5,27.9-12.7,23.2-6.1L37.2,86.2z"/>
	<path id="path3163" inkscape:connector-curvature="0" sodipodi:nodetypes="csccc" class="st0" d="M37.5,85.9c0,0-3.3,6.8-6.8,0.2
		s-4.3-21.7-4.3-21.7C21.9,8,59.1,50.4,53.8,58L37.5,85.9z"/>
	<path id="path3165" inkscape:connector-curvature="0" sodipodi:nodetypes="csccc" class="st0" d="M37.9,85.4c0,0-3.8,8-8,0.2
		S24.8,60,24.8,60c-5.3-66.3,38.6-16.4,32.2-7.5L37.9,85.4z"/>
	<path id="path3167" inkscape:connector-curvature="0" sodipodi:nodetypes="csccc" class="st0" d="M38.3,84.9c0,0-4.4,9.2-9.3,0.1
		s-6.2-29.4-6.2-29.4c-6.9-76.4,44.7-18.5,37.4-8.3L38.3,84.9z"/>
	<path id="path3169" inkscape:connector-curvature="0" sodipodi:nodetypes="csccc" class="st0" d="M38.7,84.4c0,0-4.9,10.2-10.5,0.1
		c-5.6-10.2-7.3-33.1-7.3-33.1c-8.4-85.7,50.4-20.3,42.2-9L38.7,84.4z"/>
</g>
</svg>
