<?xml version="1.0" encoding="utf-8"?>
<!-- Generator: Adobe Illustrator 25.2.1, SVG Export Plug-In . SVG Version: 6.00 Build 0)  -->
<svg version="1.1" id="neovim" xmlns:sketch="http://www.bohemiancoding.com/sketch/ns"
	 xmlns="http://www.w3.org/2000/svg" xmlns:xlink="http://www.w3.org/1999/xlink" x="0px" y="0px" viewBox="0 0 742 214"
	 style="enable-background:new 0 0 742 214;" xml:space="preserve">
<style type="text/css">
	.st0{fill-rule:evenodd;clip-rule:evenodd;fill:url(#Left---green_1_);}
	.st1{fill-rule:evenodd;clip-rule:evenodd;fill:url(#Right---blue_1_);}
	.st2{fill-rule:evenodd;clip-rule:evenodd;fill:url(#Cross---blue_1_);}
	.st3{fill-rule:evenodd;clip-rule:evenodd;fill-opacity:0.13;}
	.st4{fill-rule:evenodd;clip-rule:evenodd;fill:#444444;}
</style>
<g>
	<g id="mark" transform="translate(1.000000, 1.000000)" sketch:type="MSLayerGroup">
		
			<linearGradient id="Left---green_1_" gradientUnits="userSpaceOnUse" x1="-575.4902" y1="644.9639" x2="-575.4902" y2="643.9639" gradientTransform="matrix(45.1965 0 0 -212.1713 26032.7695 136842.6719)">
			<stop  offset="0" style="stop-color:#16B0ED;stop-opacity:0.8002"/>
			<stop  offset="1" style="stop-color:#0F59B2;stop-opacity:0.837"/>
		</linearGradient>
		<path id="Left---green" sketch:type="MSShapeGroup" class="st0" d="M0,45.5L45.2-0.2V212L0,166.9V45.5z"/>
		
			<linearGradient id="Right---blue_1_" gradientUnits="userSpaceOnUse" x1="-601.2479" y1="644.9637" x2="-601.2479" y2="643.9637" gradientTransform="matrix(-46.1252 0 0 -212.1467 -27580.7695 136826.75)">
			<stop  offset="0" style="stop-color:#7DB643"/>
			<stop  offset="1" style="stop-color:#367533"/>
		</linearGradient>
		<path id="Right---blue" sketch:type="MSShapeGroup" class="st1" d="M174.7,45.9l-45.8-46l0.9,212.1l45.2-45.1L174.7,45.9z"/>
		
			<linearGradient id="Cross---blue_1_" gradientUnits="userSpaceOnUse" x1="-584.5917" y1="644.9641" x2="-584.5917" y2="643.9641" gradientTransform="matrix(150.4494 0 0 -212.191 88038.9766 136855.4531)">
			<stop  offset="0" style="stop-color:#88C649;stop-opacity:0.8"/>
			<stop  offset="1" style="stop-color:#439240;stop-opacity:0.84"/>
		</linearGradient>
		<path id="Cross---blue" sketch:type="MSShapeGroup" class="st2" d="M45.2-0.1l117.5,179.3l-32.9,32.9L12.3,33.1L45.2-0.1z"/>
		<path id="Shadow" sketch:type="MSShapeGroup" class="st3" d="M45.2,83l-0.1,7.1L8.9,36.5l3.4-3.4L45.2,83z"/>
	</g>
	<g id="wordmark" transform="translate(227.000000, 30.000000)" sketch:type="MSLayerGroup">
		<g id="Group" sketch:type="MSShapeGroup">
			<g transform="translate(0.000000, 29.000000)">
				<path id="Shape" class="st4" d="M0,95V5.4h4.7c1.6,0,2.4,0.8,2.7,2.3l0.8,13.5c4.1-5.2,8.8-9.3,14.2-12.5
					C27.7,5.6,33.7,4,40.4,4c4.9,0,9.2,0.8,12.9,2.3c3.7,1.6,6.8,3.8,9.3,6.8c2.4,2.9,4.3,6.5,5.5,10.6s1.9,8.8,1.9,14V95h-8.5V37.8
					c0-8.4-1.9-15-5.7-19.8c-3.8-4.8-9.7-7.2-17.5-7.2c-5.9,0-11.3,1.5-16.3,4.5c-5,3-9.5,7.2-13.4,12.5V95H0L0,95z"/>
				<path id="Shape_1_" class="st4" d="M123.6,4c5.1,0,9.8,0.9,14.1,2.6c4.3,1.7,8.1,4.3,11.2,7.6c3.2,3.3,5.6,7.4,7.4,12.3
					c1.8,4.9,2.7,10.4,2.7,16.7c0,1.3-0.2,2.2-0.6,2.7c-0.4,0.5-1,0.7-1.9,0.7h-65v1.7c0,6.7,0.8,12.6,2.4,17.7
					c1.6,5.1,3.8,9.4,6.7,12.8c2.9,3.4,6.4,6,10.5,7.8c4.1,1.7,8.7,2.6,13.8,2.6c4.5,0,8.4-0.5,11.8-1.5c3.3-1,6.1-2.1,8.4-3.3
					c2.3-1.2,4.1-2.3,5.4-3.3c1.3-1,2.3-1.5,2.9-1.5c0.8,0,1.4,0.3,1.8,0.9l2.4,2.9c-1.4,1.8-3.4,3.5-5.7,5c-2.4,1.6-5,2.9-8,4
					c-2.9,1.1-6.1,2-9.4,2.7c-3.3,0.7-6.7,1-10.1,1c-6.2,0-11.8-1.1-16.8-3.2s-9.4-5.2-13-9.3c-3.6-4.1-6.4-9.1-8.4-15
					c-2-5.9-3-12.7-3-20.3c0-6.4,0.9-12.3,2.8-17.7s4.5-10.1,8-14c3.5-3.9,7.7-7,12.8-9.2C111.5,5.1,117.2,4,123.6,4L123.6,4z
					 M124.2,10c-4.7,0-8.9,0.7-12.6,2.1c-3.7,1.4-6.9,3.4-9.6,6.1c-2.7,2.6-4.9,5.8-6.6,9.5c-1.7,3.7-2.8,7.8-3.3,12.4h60
					c0-4.7-0.7-8.9-2-12.6c-1.3-3.7-3.2-6.9-5.7-9.4c-2.4-2.6-5.4-4.5-8.8-5.9C132.1,10.7,128.3,10,124.2,10L124.2,10z"/>
				<path id="Shape_2_" class="st4" d="M208.5,4c6.5,0,12.4,1.1,17.5,3.3c5.2,2.2,9.5,5.3,13,9.3c3.5,4,6.2,8.8,8.1,14.5
					c1.9,5.7,2.8,12,2.8,19s-0.9,13.3-2.8,19c-1.9,5.6-4.6,10.5-8.1,14.5c-3.5,4-7.9,7.1-13,9.3c-5.2,2.2-11,3.2-17.5,3.2
					c-6.5,0-12.4-1.1-17.5-3.2s-9.5-5.2-13.1-9.3s-6.3-8.8-8.1-14.5c-1.9-5.6-2.8-11.9-2.8-19s0.9-13.3,2.8-19
					c1.9-5.7,4.6-10.5,8.1-14.5c3.6-4,7.9-7.1,13.1-9.3C196.2,5.1,202,4,208.5,4L208.5,4z M208,90c5.3,0,10-0.9,14-2.8
					c4-1.8,7.3-4.5,10-7.9c2.7-3.4,4.7-7.6,6-12.4c1.3-4.9,2-10.3,2-16.3c0-6-0.7-11.4-2-16.3c-1.3-4.9-3.3-9.1-6-12.5
					c-2.7-3.5-6-6.1-10-8c-4-1.9-8.7-2.8-14-2.8c-5.3,0-10,0.9-14,2.8c-4,1.9-7.3,4.5-10,8c-2.7,3.5-4.7,7.6-6,12.5
					c-1.4,4.9-2,10.3-2,16.3c0,6,0.7,11.5,2,16.3c1.4,4.9,3.4,9,6,12.4c2.7,3.4,6,6.1,10,7.9C198,89.1,202.7,90,208,90L208,90z"/>
				<path id="Shape_3_" class="st4" d="M303.6,93h-20.1L247,1h18.3c1.6,0,3,0.4,4.1,1.2c1.1,0.8,1.9,1.8,2.3,3l17.7,49.1
					c1,2.9,1.9,5.7,2.6,8.4c0.7,2.8,1.3,5.5,1.8,8.2c0.5-2.7,1.1-5.5,1.8-8.2c0.7-2.7,1.6-5.6,2.6-8.4l18.2-49.1
					c0.4-1.2,1.2-2.2,2.2-3c1.1-0.8,2.4-1.2,3.8-1.2H340L303.6,93L303.6,93z"/>
				<rect id="Rectangle" x="345" y="2" class="st4" width="23" height="92"/>
				<path id="Shape_4_" class="st4" d="M383,94V1.4h13.6c2.9,0,4.8,1.4,5.7,4.1l1.4,6.9c1.6-1.8,3.3-3.5,5.1-5s3.7-2.8,5.7-3.9
					c2-1.1,4.2-1.9,6.5-2.6c2.3-0.6,4.9-0.9,7.6-0.9c5.8,0,10.6,1.6,14.4,4.7c3.8,3.2,6.6,7.4,8.4,12.6c1.4-3.1,3.2-5.7,5.4-7.9
					c2.2-2.2,4.5-4,7.1-5.4c2.6-1.4,5.3-2.4,8.3-3.1c2.9-0.7,5.8-1,8.8-1c5.1,0,9.7,0.8,13.6,2.3c4,1.6,7.3,3.8,10,6.9
					c2.7,3,4.8,6.7,6.2,11s2.1,9.3,2.1,14.9V94h-22.3V35.1c0-5.9-1.3-10.3-3.9-13.3c-2.6-3-6.4-4.5-11.4-4.5c-2.3,0-4.4,0.4-6.4,1.2
					c-2,0.8-3.7,1.9-5.1,3.4c-1.5,1.5-2.6,3.3-3.5,5.5s-1.3,4.8-1.3,7.7V94h-22.4V35.1c0-6.2-1.2-10.7-3.7-13.5
					c-2.5-2.8-6.2-4.2-11.1-4.2c-3.2,0-6.2,0.8-9,2.4c-2.8,1.6-5.4,3.8-7.8,6.5V94H383L383,94z"/>
			</g>
			<rect id="Rectangle_1_" x="345" class="st4" width="23" height="19"/>
		</g>
	</g>
</g>
</svg>
