<?xml version="1.0" encoding="utf-8"?>
<!-- Generator: Adobe Illustrator 25.2.1, SVG Export Plug-In . SVG Version: 6.00 Build 0)  -->
<svg version="1.1"
	 id="php" xmlns:cc="http://creativecommons.org/ns#" xmlns:dc="http://purl.org/dc/elements/1.1/" xmlns:rdf="http://www.w3.org/1999/02/22-rdf-syntax-ns#" xmlns:svg="http://www.w3.org/2000/svg"
	 xmlns="http://www.w3.org/2000/svg" xmlns:xlink="http://www.w3.org/1999/xlink" x="0px" y="0px" viewBox="0 0 711.2 383.6"
	 style="enable-background:new 0 0 711.2 383.6;" xml:space="preserve">
<style type="text/css">
	.st0{fill:url(#path3462_1_);}
	.st1{fill:#777BB3;}
	.st2{fill:#FFFFFF;}
</style>
<g id="Group" transform="matrix(1.25,0,0,-1.25,-4.4,394.29875)">
	
		<radialGradient id="path3462_1_" cx="-477.817" cy="-270.3493" r="1" gradientTransform="matrix(453.8224 0 0 -453.8224 217021.5781 -122434.2578)" gradientUnits="userSpaceOnUse">
		<stop  offset="0" style="stop-color:#AEB2D5"/>
		<stop  offset="0.3" style="stop-color:#AEB2D5"/>
		<stop  offset="0.75" style="stop-color:#484C89"/>
		<stop  offset="1" style="stop-color:#484C89"/>
	</radialGradient>
	<path id="path3462" class="st0" d="M11.5,162C11.5,81.7,135.3,16.6,288,16.6l0,0c152.7,0,276.5,65.1,276.5,145.4l0,0
		c0,80.3-123.8,145.4-276.5,145.4l0,0C135.3,307.4,11.5,242.3,11.5,162"/>
	<path id="path3474" class="st1" d="M288,27.4c146.7,0,265.7,60.3,265.7,134.6c0,74.4-119,134.6-265.7,134.6S22.3,236.4,22.3,162
		C22.3,87.6,141.3,27.4,288,27.4"/>
	<g>
		<g>
			<path class="st2" d="M232.8,215.8c-9.6,11-24.6,16.5-44.7,16.5H127c-2.9,0-5.3-2-5.9-4.9L92.8,81.7c-0.3-1.8,0.1-3.6,1.3-5
				c1.1-1.4,2.8-2.2,4.6-2.2h31.8c2.9,0,5.3,2,5.9,4.9l6.6,33.9h22.2c12.6,0,23.2,1.4,31.5,4.1c8.5,2.8,16.4,7.5,23.4,14
				c5.8,5.3,10.5,11.2,14.1,17.7c3.6,6.4,6.2,13.6,7.7,21.3C245.4,189.4,242.4,204.7,232.8,215.8z M197.1,174.8
				c-1.9-9.8-5.4-16.7-10.5-20.5c-5.2-4-13.6-6-24.9-6h-12l9.5,49H176c13.4,0,18.1-2.9,19.7-4.7
				C198.3,189.7,198.8,183.5,197.1,174.8z"/>
			<path class="st2" d="M293.7,271.1h-31.5c-2.9,0-5.3-2-5.9-4.9l-28.3-145.8c-0.3-1.8,0.1-3.6,1.3-5s2.8-2.2,4.6-2.2h31.5
				c2.9,0,5.3,2,5.9,4.9l15.3,78.6h20.2c9.4,0,11.3-2,11.4-2.1c0.6-0.6,1.3-3.4,0.1-9.8l-12.5-64.5c-0.3-1.8,0.1-3.6,1.3-5
				c1.1-1.4,2.8-2.2,4.6-2.2h32c2.9,0,5.3,2,5.9,4.9l13.2,67.8c3.1,15.9,0.4,27.9-7.9,35.5c-7.9,7.3-21.2,10.8-40.6,10.8h-20.8
				l6.1,31.6c0.3,1.8-0.1,3.6-1.3,5C297.2,270.3,295.5,271.1,293.7,271.1"/>
			<path class="st2" d="M480.6,215.8c-9.6,11-24.6,16.5-44.7,16.5h-61.1c-2.9,0-5.3-2-5.9-4.9L340.6,81.7c-0.3-1.8,0.1-3.6,1.3-5
				c1.1-1.4,2.8-2.2,4.6-2.2h31.8c2.9,0,5.3,2,5.9,4.9l6.6,33.9H413c12.6,0,23.2,1.4,31.5,4.1c8.5,2.8,16.4,7.5,23.4,14
				c5.8,5.3,10.5,11.2,14.1,17.7c3.6,6.4,6.2,13.6,7.7,21.3C493.3,189.4,490.2,204.7,480.6,215.8z M444.9,174.8
				c-1.9-9.8-5.4-16.7-10.5-20.5c-5.2-4-13.6-6-24.9-6h-12l9.5,49h16.8c13.4,0,18.1-2.9,19.7-4.7
				C446.1,189.7,446.6,183.5,444.9,174.8z"/>
		</g>
		<g>
			<path d="M188.1,226.3H127L98.7,80.6h31.8l7.5,38.8h27.2c12,0,21.9,1.3,29.6,3.8c7.8,2.5,14.8,6.7,21.1,12.7
				c5.3,4.9,9.6,10.3,12.9,16.2c3.3,5.9,5.6,12.4,7,19.5c3.4,17.3,0.8,30.7-7.6,40.4C219.8,221.5,206.4,226.3,188.1,226.3z
				 M203,173.7c-2.2-11.3-6.4-19.3-12.7-24.2c-6.3-4.8-15.8-7.2-28.6-7.2h-19.3l11.9,61H176c12.1,0,20.1-2.2,24.1-6.7
				C204.2,192.2,205.1,184.5,203,173.7z"/>
			<path d="M356.8,187.1c2.7,13.8,0.7,23.8-6,29.9c-6.7,6.2-18.9,9.2-36.5,9.2h-28.1l7.5,38.7h-31.5l-28.3-145.7h31.5l16.2,83.5
				h25.2c8.1,0,13.3-1.3,15.8-4c2.5-2.7,3-7.7,1.6-15l-12.5-64.5h32L356.8,187.1z"/>
			<path d="M435.9,226.3h-61.1L346.5,80.6h31.8l7.5,38.8H413c12,0,21.9,1.3,29.6,3.8c7.8,2.5,14.8,6.7,21.1,12.7
				c5.3,4.9,9.6,10.3,12.9,16.2c3.3,5.9,5.6,12.4,7,19.5c3.4,17.3,0.8,30.7-7.6,40.4C467.6,221.5,454.2,226.3,435.9,226.3z
				 M450.8,173.7c-2.2-11.3-6.4-19.3-12.7-24.2c-6.3-4.8-15.8-7.2-28.6-7.2h-19.3l11.9,61h21.8c12.1,0,20.1-2.2,24.1-6.7
				C452,192.2,452.9,184.5,450.8,173.7z"/>
		</g>
	</g>
</g>
</svg>
