<?xml version="1.0" encoding="utf-8"?>
<!-- Generator: Adobe Illustrator 25.2.1, SVG Export Plug-In . SVG Version: 6.00 Build 0)  -->
<svg version="1.1"
	 id="python" inkscape:version="0.45.1" sodipodi:docbase="/home/bene/Desktop" xmlns:cc="http://web.resource.org/cc/" xmlns:dc="http://purl.org/dc/elements/1.1/" xmlns:inkscape="http://www.inkscape.org/namespaces/inkscape" xmlns:rdf="http://www.w3.org/1999/02/22-rdf-syntax-ns#" xmlns:sodipodi="http://sodipodi.sourceforge.net/DTD/sodipodi-0.dtd" xmlns:svg="http://www.w3.org/2000/svg"
	 xmlns="http://www.w3.org/2000/svg" xmlns:xlink="http://www.w3.org/1999/xlink" x="0px" y="0px" viewBox="0 0 110.4 109.8"
	 style="enable-background:new 0 0 110.4 109.8;" xml:space="preserve">
<style type="text/css">
	.st0{fill:url(#path8620_1_);}
	.st1{fill:url(#path8615_1_);}
</style>
<g>
	
		<linearGradient id="path8620_1_" gradientUnits="userSpaceOnUse" x1="88.866" y1="-0.2031" x2="147.5066" y2="-56.3838" gradientTransform="matrix(1 0 0 -1 -44.9375 44.5312)">
		<stop  offset="0" style="stop-color:#FFE052"/>
		<stop  offset="1" style="stop-color:#FFC331"/>
	</linearGradient>
	<path id="path8620" class="st0" d="M55.6,109.8c28,0,26.3-12.2,26.3-12.2l0-12.6H55.1v-3.8h37.4c0,0,17.9,2,17.9-26.3
		c0-28.3-15.7-27.3-15.7-27.3h-9.3v13.1c0,0,0.5,15.7-15.4,15.7s-26.5,0-26.5,0S28.6,56.3,28.6,71c0,14.6,0,24.2,0,24.2
		S26.3,109.8,55.6,109.8z M70.4,101.4c-2.7,0-4.8-2.2-4.8-4.8s2.2-4.8,4.8-4.8s4.8,2.2,4.8,4.8C75.2,99.2,73,101.4,70.4,101.4z"/>
	
		<linearGradient id="path8615_1_" gradientUnits="userSpaceOnUse" x1="55.29" y1="34.6714" x2="109.89" y2="-20.1113" gradientTransform="matrix(1 0 0 -1 -44.9375 44.5312)">
		<stop  offset="0" style="stop-color:#387EB8"/>
		<stop  offset="1" style="stop-color:#366994"/>
	</linearGradient>
	<path id="path8615" class="st1" d="M54.8,0c-28,0-26.3,12.2-26.3,12.2l0,12.6h26.8v3.8H17.9c0,0-17.9-2-17.9,26.2
		c0,28.3,15.7,27.3,15.7,27.3H25V68.9c0,0-0.5-15.7,15.4-15.7s26.5,0,26.5,0s14.9,0.2,14.9-14.4s0-24.2,0-24.2S84.1,0,54.8,0z
		 M40.1,8.5c2.7,0,4.8,2.2,4.8,4.8s-2.2,4.8-4.8,4.8s-4.8-2.2-4.8-4.8S37.4,8.5,40.1,8.5z"/>
</g>
</svg>
