<?xml version="1.0" encoding="utf-8"?>
<!-- Generator: Adobe Illustrator 25.2.1, SVG Export Plug-In . SVG Version: 6.00 Build 0)  -->
<svg version="1.1" id="ruby" xmlns="http://www.w3.org/2000/svg" xmlns:xlink="http://www.w3.org/1999/xlink" x="0px" y="0px"
	 viewBox="0 0 128 128" style="enable-background:new 0 0 128 128;" xml:space="preserve">
<style type="text/css">
	.st0{fill:#D91404;}
</style>
<path class="st0" d="M82.5,54.7c-12.9,8.3-25.7,16.6-38.9,25c19.7,2.7,39,5.3,58.7,8C95.7,76.5,89.1,65.6,82.5,54.7z M107.9,17.8
	c-1.7,2.6-3.5,5.2-5.2,7.8c-5.9,9-11.9,17.9-17.8,26.9c-0.3,0.5-0.8,0.9-0.3,1.7c5.7,9.5,11.4,19,17.2,28.5c0.9,1.5,1.8,3,3,4.4
	l3.5-69.2C108.2,17.9,107.9,17.8,107.9,17.8z M29.5,47.4c0.3,0.3,0.9,0.4,1.3,0.2c5.5-2.7,11.1-5.4,16.4-8.3c1.8-1,3.1-2.7,4.6-4.1
	c5-4.6,10-9.2,15-13.8c0.3-0.3,0.7-0.6,0.9-0.9c1.8-3.5,3.6-7,5.4-10.7c-2.2-0.8-4.2-1.6-6.3-2.3c-0.3-0.1-0.7,0.1-1,0.3
	c-4.8,2.7-9.8,5.3-14.5,8.2c-2.3,1.5-4.3,3.7-6.3,5.5c-3.3,3.1-6.7,6.1-10,9.2c-0.9,0.8-1.7,1.8-2.4,2.8c-2.3,3.3-4.4,6.6-6.7,10
	C27.1,44.9,28.3,46.2,29.5,47.4z M49.7,42.9c-2.7,11.6-5.5,23.1-8.3,35c13.2-8.5,26.1-16.8,38.9-25.1C70.1,49.5,59.9,46.2,49.7,42.9
	z M71.5,23.4l11.2,27.3c7.3-11,14.5-21.8,21.8-32.8C93.4,19.8,82.5,21.6,71.5,23.4z M50.1,40.5c10,3.3,19.9,6.5,30,9.7
	c-3.8-9.2-7.4-18-11.1-27C69,23.2,50.1,40.5,50.1,40.5z M29.9,54.1L19.4,79.2c6.7-0.2,13.3-0.4,20-0.6
	C36.3,70.5,33.2,62.5,29.9,54.1z M39.7,72.8l0.2-0.1c2.4-10,4.8-19.9,7.3-30.3c-5.5,2.8-10.7,5.6-16,8.3
	C33.9,57.9,36.8,65.4,39.7,72.8z M100.5,16.3c-3.2-0.8-6.4-1.7-9.6-2.5c-4.6-1.2-9.2-2.4-13.8-3.6c-0.6-0.2-1-0.3-1.3,0.4
	c-1.6,3.3-3.3,6.6-4.9,9.9c-0.1,0.1,0,0.2-0.1,0.5c9.9-1.5,19.8-3,29.7-4.5L100.5,16.3z M82,8.7c8.6,2.4,17.2,4.7,26,7.2l-4.3-12.3
	C96.4,5.3,89.2,6.9,82,8.5L82,8.7z M89.9,88.1l-21.4-2.9c-8.9-1.2-17.7-2.5-26.6-3.6c-3.2-0.4-6.5,0-9.8,0c-2.7,0-5.4,0.1-8.1,0.2
	c-0.3,0-0.6,0.1-0.8,0.4c22.2,2.1,44.4,4.1,66.6,6.2C89.8,88.4,89.9,88.1,89.9,88.1z M19.9,71.6c2.9-6.6,5.7-13.3,8.6-19.9
	c0.3-0.7,0.3-1.1-0.3-1.7c-1.2-1.1-2.3-2.4-3.6-3.7l-5.2,25.9l0.2,0.1C19.6,72,19.8,71.8,19.9,71.6z M76.3,7
	c4.8-1.2,9.7-2.2,14.6-3.3c0.3-0.1,0.6-0.2,0.9-0.3l0-0.2L70.9,6C72.8,6.9,74.3,7.5,76.3,7z M31,109.4v8.5h-4.7V95.7h6.5
	c3,0,5.3,0.6,6.7,1.7s2.2,2.8,2.2,5c0,1.3-0.4,2.5-1.1,3.5c-0.7,1-1.7,1.8-3.1,2.4L44,118h-5.2l-5.3-8.5L31,109.4L31,109.4z
	 M31,105.6h1.5c1.5,0,2.6-0.2,3.3-0.7c0.7-0.5,1.1-1.3,1.1-2.3c0-1.1-0.4-1.8-1.1-2.3c-0.7-0.4-1.9-0.7-3.4-0.7H31L31,105.6
	L31,105.6z M58.6,118l-0.6-2.2h-0.2c-0.5,0.8-1.2,1.4-2.1,1.8c-0.9,0.4-2,0.6-3.1,0.6c-2,0-3.5-0.5-4.5-1.6s-1.5-2.6-1.5-4.6v-11.1
	H51v9.9c0,1.2,0.2,2.2,0.7,2.8c0.4,0.6,1.1,0.9,2.1,0.9c1.3,0,2.2-0.4,2.8-1.3c0.6-0.9,0.9-2.3,0.9-4.3v-8h4.6v17L58.6,118L58.6,118
	z M76.5,100.6c2,0,3.6,0.8,4.7,2.4c1.1,1.6,1.7,3.7,1.7,6.5c0,2.8-0.6,5-1.8,6.5c-1.2,1.5-2.8,2.3-4.8,2.3c-2,0-3.6-0.7-4.7-2.2
	h-0.3l-0.8,1.9H67V94.3h4.6v5.5c0,0.7-0.1,1.8-0.2,3.4h0.2C72.7,101.5,74.3,100.6,76.5,100.6L76.5,100.6z M75,104.3
	c-1.1,0-2,0.4-2.5,1.1c-0.5,0.7-0.8,1.9-0.8,3.5v0.5c0,1.8,0.3,3.1,0.8,3.9c0.5,0.8,1.4,1.2,2.6,1.2c1,0,1.7-0.4,2.3-1.3
	s0.8-2.2,0.8-3.8s-0.3-2.9-0.9-3.8C76.7,104.8,76,104.3,75,104.3z M84,100.9h5.1l3.2,9.6c0.3,0.8,0.5,1.8,0.6,3H93
	c0.1-1,0.3-2,0.7-3l3.2-9.6h5l-7.2,19.2c-0.7,1.8-1.6,3.1-2.8,4c-1.2,0.9-2.7,1.3-4.3,1.3c-0.8,0-1.6-0.1-2.4-0.3v-3.7
	c0.6,0.1,1.2,0.2,1.8,0.2c0.8,0,1.5-0.3,2.2-0.8c0.6-0.5,1.1-1.3,1.4-2.3l0.3-0.8C90.8,117.8,84,100.9,84,100.9z"/>
</svg>
