<?xml version="1.0" encoding="utf-8"?>
<!-- Generator: Adobe Illustrator 25.2.1, SVG Export Plug-In . SVG Version: 6.00 Build 0)  -->
<svg version="1.1"
	 id="rust" xmlns:cc="http://creativecommons.org/ns#" xmlns:dc="http://purl.org/dc/elements/1.1/" xmlns:rdf="http://www.w3.org/1999/02/22-rdf-syntax-ns#"
	 xmlns="http://www.w3.org/2000/svg" xmlns:xlink="http://www.w3.org/1999/xlink" x="0px" y="0px" viewBox="0 0 144 144"
	 style="enable-background:new 0 0 144 144;" xml:space="preserve">
<path d="M142.6,70.2l-6-3.7c-0.1-0.6-0.1-1.2-0.2-1.7l5.1-4.8c0.5-0.5,0.8-1.2,0.6-1.9c-0.1-0.7-0.6-1.3-1.3-1.5l-6.6-2.4
	c-0.2-0.6-0.3-1.1-0.5-1.7l4.1-5.7c0.4-0.6,0.5-1.3,0.2-2c-0.3-0.7-0.9-1.1-1.6-1.2l-6.9-1.1c-0.3-0.5-0.5-1-0.8-1.5l2.9-6.4
	c0.3-0.6,0.2-1.4-0.2-2c-0.4-0.6-1.1-0.9-1.8-0.9l-7,0.2c-0.4-0.5-0.7-0.9-1.1-1.3l1.6-6.8c0.2-0.7,0-1.4-0.5-1.9
	c-0.5-0.5-1.2-0.7-1.9-0.5l-6.8,1.6c-0.4-0.4-0.9-0.7-1.3-1.1l0.2-7c0-0.7-0.3-1.4-0.9-1.8c-0.6-0.4-1.3-0.5-2-0.2l-6.4,2.9
	c-0.5-0.3-1-0.6-1.5-0.8L101,7.9c-0.1-0.7-0.6-1.3-1.2-1.6c-0.7-0.3-1.4-0.2-2,0.2l-5.7,4.1c-0.6-0.2-1.1-0.3-1.7-0.5L88,3.6
	c-0.2-0.7-0.8-1.2-1.5-1.3c-0.7-0.1-1.4,0.1-1.9,0.6L79.7,8c-0.6-0.1-1.2-0.1-1.7-0.2l-3.7-6c-0.4-0.6-1-1-1.8-1
	c-0.7,0-1.4,0.4-1.7,1l-3.7,6c-0.6,0-1.2,0.1-1.7,0.2l-4.8-5.1c-0.5-0.5-1.2-0.8-1.9-0.6c-0.7,0.1-1.3,0.6-1.5,1.3l-2.4,6.6
	c-0.6,0.2-1.1,0.3-1.7,0.5l-5.7-4.1c-0.6-0.4-1.3-0.5-2-0.2c-0.7,0.3-1.1,0.9-1.2,1.6L43,14.8c-0.5,0.3-1,0.5-1.5,0.8l-6.4-2.9
	c-0.6-0.3-1.4-0.2-2,0.2c-0.6,0.4-0.9,1.1-0.9,1.8l0.2,7c-0.5,0.4-0.9,0.7-1.3,1.1l-6.8-1.6c-0.7-0.2-1.4,0-1.9,0.5
	c-0.5,0.5-0.7,1.2-0.5,1.9l1.6,6.8c-0.4,0.4-0.7,0.9-1.1,1.3l-7-0.2c-0.7,0-1.4,0.3-1.8,0.9c-0.4,0.6-0.5,1.3-0.2,2l2.9,6.4
	c-0.3,0.5-0.6,1-0.8,1.5l-6.9,1.1c-0.7,0.1-1.3,0.6-1.6,1.2c-0.3,0.7-0.2,1.4,0.2,2l4.1,5.7c-0.2,0.6-0.4,1.1-0.5,1.7l-6.6,2.4
	c-0.7,0.2-1.2,0.8-1.3,1.5C2.7,58.8,3,59.5,3.5,60l5.1,4.8c-0.1,0.6-0.1,1.2-0.2,1.7l-6,3.7c-0.6,0.4-1,1-1,1.8s0.4,1.4,1,1.7l6,3.7
	c0,0.6,0.1,1.2,0.2,1.7l-5.1,4.8c-0.5,0.5-0.8,1.2-0.6,1.9c0.1,0.7,0.6,1.3,1.3,1.5l6.6,2.4c0.2,0.6,0.3,1.1,0.5,1.7l-4.1,5.7
	c-0.4,0.6-0.5,1.3-0.2,2c0.3,0.7,0.9,1.1,1.6,1.2l6.9,1.1c0.3,0.5,0.5,1,0.8,1.5l-2.9,6.4c-0.3,0.6-0.2,1.4,0.2,2
	c0.4,0.6,1.1,0.9,1.8,0.9l7-0.2c0.4,0.5,0.7,0.9,1.1,1.3l-1.6,6.8c-0.2,0.7,0,1.4,0.5,1.9c0.5,0.5,1.2,0.7,1.9,0.5l6.8-1.6
	c0.4,0.4,0.9,0.7,1.3,1.1l-0.2,7c0,0.7,0.3,1.4,0.9,1.8c0.6,0.4,1.3,0.5,2,0.2l6.4-2.9c0.5,0.3,1,0.6,1.5,0.8l1.1,6.9
	c0.1,0.7,0.6,1.3,1.2,1.6c0.7,0.3,1.4,0.2,2-0.2l5.7-4.1c0.6,0.2,1.1,0.4,1.7,0.5l2.4,6.6c0.2,0.7,0.8,1.2,1.5,1.3
	c0.7,0.1,1.4-0.1,1.9-0.6l4.8-5.1c0.6,0.1,1.2,0.1,1.7,0.2l3.7,6c0.4,0.6,1,1,1.7,1c0.7,0,1.4-0.4,1.8-1l3.7-6
	c0.6-0.1,1.2-0.1,1.7-0.2l4.8,5.1c0.5,0.5,1.2,0.8,1.9,0.6c0.7-0.1,1.3-0.6,1.5-1.3l2.4-6.6c0.6-0.2,1.1-0.3,1.7-0.5l5.7,4.1
	c0.6,0.4,1.3,0.5,2,0.2c0.7-0.3,1.1-0.9,1.2-1.6l1.1-6.9c0.5-0.3,1-0.6,1.5-0.8l6.4,2.9c0.6,0.3,1.4,0.2,2-0.2
	c0.6-0.4,0.9-1.1,0.9-1.8l-0.2-7c0.5-0.4,0.9-0.7,1.3-1.1l6.8,1.6c0.7,0.2,1.4,0,1.9-0.5c0.5-0.5,0.7-1.2,0.5-1.9l-1.6-6.8
	c0.4-0.4,0.7-0.9,1.1-1.3l7,0.2c0.7,0,1.4-0.3,1.8-0.9c0.4-0.6,0.5-1.3,0.2-2l-2.9-6.4c0.3-0.5,0.6-1,0.8-1.5l6.9-1.1
	c0.7-0.1,1.3-0.6,1.6-1.2c0.3-0.7,0.2-1.4-0.2-2l-4.1-5.7c0.2-0.6,0.3-1.1,0.5-1.7l6.6-2.4c0.7-0.2,1.2-0.8,1.3-1.5
	c0.1-0.7-0.1-1.4-0.6-1.9l-5.1-4.8c0.1-0.6,0.1-1.2,0.2-1.7l6-3.7c0.6-0.4,1-1,1-1.7C143.7,71.3,143.3,70.6,142.6,70.2L142.6,70.2z
	 M102.7,119.8c-2.3-0.5-3.7-2.7-3.2-5c0.5-2.3,2.7-3.7,5-3.2c2.3,0.5,3.7,2.7,3.2,5C107.2,118.9,105,120.3,102.7,119.8L102.7,119.8z
	 M100.7,106.1c-2.1-0.4-4.1,0.9-4.6,3l-2.1,9.9c-6.5,3-13.9,4.6-21.5,4.6c-7.8,0-15.2-1.7-21.9-4.8l-2.1-9.9c-0.4-2.1-2.5-3.4-4.6-3
	l-8.7,1.9c-1.6-1.7-3.1-3.5-4.5-5.3h42.5c0.5,0,0.8-0.1,0.8-0.5V86.8c0-0.4-0.3-0.5-0.8-0.5H60.8v-9.5h13.4c1.2,0,6.6,0.4,8.3,7.2
	c0.5,2.1,1.7,8.9,2.5,11.1c0.8,2.4,4,7.3,7.5,7.3h21.2c0.2,0,0.5,0,0.8-0.1c-1.5,2-3.1,3.9-4.8,5.7L100.7,106.1L100.7,106.1z
	 M41.9,119.6c-2.3,0.5-4.5-1-5-3.2c-0.5-2.3,1-4.5,3.2-5c2.3-0.5,4.5,1,5,3.2C45.6,116.9,44.1,119.1,41.9,119.6z M25.7,54.3
	c0.9,2.1,0,4.6-2.1,5.6c-2.1,0.9-4.6,0-5.6-2.1c-1-2.1,0-4.6,2.1-5.6C22.3,51.2,24.7,52.1,25.7,54.3z M20.7,66l9.1-4
	c1.9-0.9,2.8-3.1,2-5.1l-1.9-4.2h7.4v33.1H22.5c-1.3-4.5-2-9.3-2-14.3C20.5,69.6,20.6,67.8,20.7,66L20.7,66z M60.7,62.8V53h17.5
	c0.9,0,6.4,1,6.4,5.1c0,3.4-4.2,4.6-7.7,4.6H60.7L60.7,62.8z M124.4,71.6c0,1.3,0,2.6-0.1,3.9h-5.3c-0.5,0-0.7,0.4-0.7,0.9v2.4
	c0,5.8-3.2,7-6.1,7.3c-2.7,0.3-5.7-1.1-6.1-2.8c-1.6-9-4.3-10.9-8.5-14.3c5.2-3.3,10.7-8.2,10.7-14.8c0-7.1-4.8-11.5-8.2-13.7
	c-4.6-3.1-9.8-3.7-11.2-3.7H33.7c7.5-8.3,17.7-14.3,29.1-16.4l6.5,6.8c1.5,1.5,3.9,1.6,5.4,0.1l7.3-7c15.2,2.8,28.1,12.3,35.6,25.4
	l-5,11.2c-0.9,1.9,0,4.2,2,5.1l9.6,4.3C124.3,68.1,124.4,69.8,124.4,71.6L124.4,71.6z M69.2,14.7c1.7-1.6,4.4-1.5,6,0.1
	c1.6,1.7,1.5,4.4-0.1,6c-1.7,1.6-4.4,1.5-6-0.1C67.5,19,67.5,16.3,69.2,14.7L69.2,14.7z M118.7,54.5c0.9-2.1,3.4-3.1,5.6-2.1
	c2.1,0.9,3.1,3.5,2.1,5.6c-0.9,2.1-3.4,3.1-5.6,2.1C118.7,59.1,117.7,56.6,118.7,54.5z"/>
</svg>
