<?xml version="1.0" encoding="utf-8"?>
<!-- Generator: Adobe Illustrator 25.2.1, SVG Export Plug-In . SVG Version: 6.00 Build 0)  -->
<svg version="1.1" id="sublime" xmlns="http://www.w3.org/2000/svg" xmlns:xlink="http://www.w3.org/1999/xlink" x="0px" y="0px"
	 viewBox="0 0 256 256" style="enable-background:new 0 0 256 256;" xml:space="preserve">
<style type="text/css">
	.st0{fill:#464646;}
	.st1{fill-rule:evenodd;clip-rule:evenodd;fill:url(#SVGID_1_);}
	.st2{fill-rule:evenodd;clip-rule:evenodd;fill:#FF9800;}
</style>
<g>
	<path class="st0" d="M240.3,256H15.7C7.1,256,0,248.9,0,240.3V15.7C0,7.1,7.1,0,15.7,0h224.6c8.6,0,15.7,7.1,15.7,15.7v224.6
		C256,248.9,248.9,256,240.3,256z"/>
	<g>
		
			<linearGradient id="SVGID_1_" gradientUnits="userSpaceOnUse" x1="-861.0396" y1="629.4538" x2="-859.9783" y2="629.4538" gradientTransform="matrix(11.7888 -39.4189 -33.3659 -13.638 31276.6445 -25168.1035)">
			<stop  offset="0" style="stop-color:#FF9700"/>
			<stop  offset="0.53" style="stop-color:#F48E00"/>
			<stop  offset="1" style="stop-color:#D06F00"/>
		</linearGradient>
		<path class="st1" d="M201,128.8c0-2.2-1.6-3.5-3.7-2.9l-138.8,44c-2,0.6-3.7,3-3.7,5.2v45c0,2.2,1.6,3.5,3.7,2.9l138.8-44
			c2-0.6,3.7-3,3.7-5.2V128.8z"/>
		<path class="st2" d="M54.9,127.3c0,2.2,1.6,4.6,3.7,5.2l138.8,44c2,0.6,3.7-0.6,3.7-2.9v-45c0-2.2-1.6-4.5-3.7-5.2l-138.8-44
			c-2-0.6-3.7,0.6-3.7,2.9C54.9,82.3,54.9,127.3,54.9,127.3z"/>
		<path class="st2" d="M201,36.3c0-2.2-1.6-3.5-3.7-2.9l-138.8,44c-2,0.6-3.7,3-3.7,5.2v45c0,2.2,1.6,3.5,3.7,2.9l138.8-44
			c2-0.6,3.7-3,3.7-5.2C201,81.3,201,36.3,201,36.3z"/>
	</g>
</g>
</svg>
