<?xml version="1.0" encoding="utf-8"?>
<!-- Generator: Adobe Illustrator 25.2.1, SVG Export Plug-In . SVG Version: 6.00 Build 0)  -->
<svg version="1.1"
	 id="vim" inkscape:version="0.47 r22583" xmlns:cc="http://creativecommons.org/ns#" xmlns:dc="http://purl.org/dc/elements/1.1/" xmlns:inkscape="http://www.inkscape.org/namespaces/inkscape" xmlns:rdf="http://www.w3.org/1999/02/22-rdf-syntax-ns#" xmlns:sodipodi="http://sodipodi.sourceforge.net/DTD/sodipodi-0.dtd" xmlns:svg="http://www.w3.org/2000/svg"
	 xmlns="http://www.w3.org/2000/svg" xmlns:xlink="http://www.w3.org/1999/xlink" x="0px" y="0px" viewBox="0 0 256 256"
	 style="enable-background:new 0 0 256 256;" xml:space="preserve">
<style type="text/css">
	.st0{fill:#19953F;}
	.st1{fill:#D0D0CF;}
</style>
<g>
	<g>
		<polygon points="127.3,253.2 4.5,130.4 128,5.4 250.8,128.9 		"/>
		<polygon class="st0" points="11.6,130.4 127.3,246.1 243.8,128.9 128,12.5 		"/>
	</g>
	<g>
		<polygon points="64.4,228.1 40.2,228.1 31.6,219.5 31.4,52.7 25.7,52.6 18.7,45.9 18.7,24.5 25.2,18 108.1,19.5 115.9,28.2 
			115.9,45.9 108.6,53.3 102.9,53.3 102.4,104.6 155.8,53.1 154.3,53.1 148,45 148,27.6 154.2,18.8 236.6,19.5 243,26 243,46.6 		
			"/>
		<polygon class="st1" points="42.3,223.1 62.3,223.1 238,44.5 238,28 234.5,24.5 156.8,23.8 153,29.2 153,43.3 156.8,48.1 
			168.1,48.1 97.3,116.5 98,48.3 106.5,48.3 110.9,43.8 110.9,30.1 105.8,24.5 27.3,23.1 23.7,26.6 23.7,43.8 27.7,47.6 36.4,47.9 
			36.6,217.4 		"/>
	</g>
	<g>
		<polygon points="150.4,155.5 135.6,155.3 130.6,149.2 134.7,135.4 140.3,130.8 154.4,131.2 160.1,136.9 155.1,151.2 		"/>
		<polygon class="st1" points="137.9,150.3 148.5,150.4 150.8,148.3 154.4,138.3 152.3,136.1 142.1,135.8 139.1,138.3 136.1,148.1 
					"/>
	</g>
	<g>
		<polygon points="139.4,216.6 107.4,216.1 121.9,173.1 114.8,173.5 120.1,157.2 153.9,157.6 138.9,202.6 144.4,202.6 		"/>
		<polygon class="st1" points="114.3,211.2 135.9,211.5 137.3,207.6 132,207.6 147,162.6 123.7,162.3 121.8,168.1 129,167.8 		"/>
	</g>
	<g>
		<polygon points="170.4,216.5 141.6,216.5 156.9,172.3 149.9,172.3 155.5,157.6 177.2,157.6 183.3,163.3 187.3,163.3 192.7,158 
			207.2,158 213.3,164 216.9,164 222.7,158.3 239.7,158.3 245.7,168 234.7,203.1 240.6,203.3 235.8,216.4 206.4,216.1 217.4,181.2 
			209.8,181.2 202.3,202.9 207.9,203 203.2,216.2 174.9,215.8 186,180.9 176.2,181.1 169.3,202.6 175.7,203 		"/>
		<polygon class="st1" points="148.6,211.5 167,211.5 168.5,207.6 162.6,207.2 172.6,176.2 192.8,175.7 181.7,210.9 199.7,211.1 
			200.9,207.8 195.4,207.7 206.2,176.2 224.2,176.2 213.2,211.2 232.3,211.4 233.6,208 227.9,207.8 240.3,168.7 236.9,163.3 
			224.7,163.3 219,169 211.2,169 205.2,163 194.7,163 189.4,168.3 181.3,168.3 175.2,162.6 159,162.6 157.2,167.3 163.9,167.3 		"/>
	</g>
</g>
</svg>
