<?xml version="1.0" encoding="utf-8"?>
<!-- Generator: Adobe Illustrator 25.2.1, SVG Export Plug-In . SVG Version: 6.00 Build 0)  -->
<svg version="1.1" id="vscode" xmlns="http://www.w3.org/2000/svg" xmlns:xlink="http://www.w3.org/1999/xlink" x="0px" y="0px"
	 viewBox="0 0 100 100" style="enable-background:new 0 0 100 100;" xml:space="preserve">
<style type="text/css">
	.st0{fill:#0065A9;}
	.st1{fill:#007ACC;}
	.st2{fill:#1F9CF0;}
	.st3{opacity:0.25;}
	.st4{fill-rule:evenodd;clip-rule:evenodd;fill:url(#SVGID_1_);}
</style>
<g>
	<g>
		<path class="st0" d="M96.5,10.8L75.9,0.9c-2.4-1.1-5.2-0.7-7.1,1.2L1.4,63.6c-1.8,1.7-1.8,4.5,0,6.2l5.5,5
			c1.5,1.4,3.7,1.4,5.3,0.2l81.2-61.6c2.7-2.1,6.6-0.1,6.6,3.3v-0.2C100.1,14,98.7,11.8,96.5,10.8z"/>
		<g>
			<path class="st1" d="M96.5,89.2l-20.6,9.9c-2.4,1.1-5.2,0.7-7.1-1.2L1.4,36.4c-1.8-1.7-1.8-4.5,0-6.2l5.5-5
				c1.5-1.4,3.7-1.4,5.3-0.2l81.2,61.6c2.7,2.1,6.6,0.1,6.6-3.3v0.2C100.1,86,98.7,88.2,96.5,89.2z"/>
		</g>
		<g>
			<path class="st2" d="M75.9,99.1c-2.4,1.1-5.2,0.7-7.1-1.2c2.3,2.3,6.2,0.7,6.2-2.6V4.7c0-3.3-3.9-4.9-6.2-2.6
				c1.9-1.9,4.7-2.4,7.1-1.2l20.6,9.9c2.2,1,3.5,3.2,3.5,5.6v67.2c0,2.4-1.4,4.6-3.5,5.6L75.9,99.1z"/>
		</g>
	</g>
	<g>
		<path class="st0" d="M96.5,10.8L75.9,0.9c-2.4-1.1-5.2-0.7-7.1,1.2L1.4,63.6c-1.8,1.7-1.8,4.5,0,6.2l5.5,5
			c1.5,1.4,3.7,1.4,5.3,0.2l81.2-61.6c2.7-2.1,6.6-0.1,6.6,3.3v-0.2C100.1,14,98.7,11.8,96.5,10.8z"/>
		<g>
			<path class="st1" d="M96.5,89.2l-20.6,9.9c-2.4,1.1-5.2,0.7-7.1-1.2L1.4,36.4c-1.8-1.7-1.8-4.5,0-6.2l5.5-5
				c1.5-1.4,3.7-1.4,5.3-0.2l81.2,61.6c2.7,2.1,6.6,0.1,6.6-3.3v0.2C100.1,86,98.7,88.2,96.5,89.2z"/>
		</g>
		<g>
			<path class="st2" d="M75.9,99.1c-2.4,1.1-5.2,0.7-7.1-1.2c2.3,2.3,6.2,0.7,6.2-2.6V4.7c0-3.3-3.9-4.9-6.2-2.6
				c1.9-1.9,4.7-2.4,7.1-1.2l20.6,9.9c2.2,1,3.5,3.2,3.5,5.6v67.2c0,2.4-1.4,4.6-3.5,5.6L75.9,99.1z"/>
		</g>
	</g>
	<g class="st3">
		
			<linearGradient id="SVGID_1_" gradientUnits="userSpaceOnUse" x1="50" y1="101.7422" x2="50" y2="2.2577" gradientTransform="matrix(1 0 0 -1 0 102)">
			<stop  offset="0" style="stop-color:#FFFFFF"/>
			<stop  offset="1" style="stop-color:#FFFFFF;stop-opacity:0"/>
		</linearGradient>
		<path class="st4" d="M70.9,99.3c1.6,0.6,3.4,0.6,5-0.2l20.6-9.9c2.2-1,3.5-3.2,3.5-5.6V16.4c0-2.4-1.4-4.6-3.5-5.6L75.9,0.9
			c-2.1-1-4.5-0.8-6.4,0.6c-0.3,0.2-0.5,0.4-0.7,0.6L29.4,38L12.2,25c-1.6-1.2-3.8-1.1-5.3,0.2l-5.5,5c-1.8,1.7-1.8,4.5,0,6.2
			L16.2,50L1.4,63.6c-1.8,1.7-1.8,4.5,0,6.2l5.5,5c1.5,1.4,3.7,1.4,5.3,0.2l17.2-13l39.4,36C69.4,98.5,70.1,99,70.9,99.3z M75,27.3
			L45.1,50L75,72.7V27.3z"/>
	</g>
</g>
</svg>
