<?xml version="1.0" encoding="utf-8"?>
<!-- Generator: Adobe Illustrator 25.2.1, SVG Export Plug-In . SVG Version: 6.00 Build 0)  -->
<svg version="1.1" id="zig" xmlns="http://www.w3.org/2000/svg" xmlns:xlink="http://www.w3.org/1999/xlink" x="0px" y="0px"
	 viewBox="0 0 400 140" style="enable-background:new 0 0 400 140;" xml:space="preserve">
<style type="text/css">
	.st0{fill:#F7A41D;}
	.st1{fill:#121212;}
</style>
<g>
	<g>
		<g>
			<polygon class="st0" points="46,22 28,44 19,30 			"/>
			<polygon shape-rendering="crispEdges" class="st0" points="46,22 33,33 28,44 22,44 22,95 31,95 20,100 12,117 0,117 0,22 			"/>
			<polygon class="st0" points="31,95 12,117 4,106 			"/>
		</g>
		<g>
			<polygon class="st0" points="56,22 62,36 37,44 			"/>
			<polygon shape-rendering="crispEdges" class="st0" points="56,22 111,22 111,44 37,44 56,32 			"/>
			<polygon class="st0" points="116,95 97,117 90,104 			"/>
			<polygon shape-rendering="crispEdges" class="st0" points="116,95 100,104 97,117 42,117 42,95 			"/>
			<polygon class="st0" points="150,0 52,117 3,140 101,22 			"/>
		</g>
		<g>
			<polygon class="st0" points="141,22 140,40 122,45 			"/>
			<polygon shape-rendering="crispEdges" class="st0" points="153,22 153,117 106,117 120,105 125,95 131,95 131,45 122,45 132,36 
				141,22 			"/>
			<polygon class="st0" points="125,95 130,110 106,117 			"/>
		</g>
	</g>
	<g>
		<g>
			<polygon shape-rendering="crispEdges" class="st1" points="260,22 260,37 229,40 177,40 177,22 			"/>
			<polygon class="st1" points="260,37 207,99 207,103 176,103 229,40 229,37 			"/>
			<polygon shape-rendering="crispEdges" class="st1" points="261,99 261,117 176,117 176,103 206,99 			"/>
		</g>
		<rect x="272" y="22" shape-rendering="crispEdges" class="st1" width="22" height="95"/>
		<g>
			<polygon shape-rendering="crispEdges" class="st1" points="394,67 394,106 376,106 376,81 360,70 346,67 			"/>
			<polygon class="st1" points="360,68 376,81 346,67 			"/>
			<path class="st1" d="M394,106c-10.2,7.3-24,12-37.7,12c-29,0-51.1-20.8-51.1-48.3c0-27.3,22.5-48.1,52-48.1
				c14.3,0,29.2,5.5,38.9,14l-13,15c-7.1-6.3-16.8-10-25.9-10c-17,0-30.2,12.9-30.2,29.5c0,16.8,13.3,29.6,30.3,29.6
				c5.7,0,12.8-2.3,19-5.5L394,106z"/>
		</g>
	</g>
</g>
</svg>
