<?xml version="1.0" encoding="UTF-8" standalone="no"?>
<!-- Generator: Adobe Illustrator 25.2.1, SVG Export Plug-In . SVG Version: 6.00 Build 0)  -->

<svg
   version="1.1"
   id="Layer_1"
   x="0px"
   y="0px"
   viewBox="0 0 3840 2160"
   style="enable-background:new 0 0 3840 2160;"
   xml:space="preserve"
   sodipodi:docname="9.svg"
   inkscape:version="1.1.1 (3bf5ae0d25, 2021-09-20)"
   xmlns:inkscape="http://www.inkscape.org/namespaces/inkscape"
   xmlns:sodipodi="http://sodipodi.sourceforge.net/DTD/sodipodi-0.dtd"
   xmlns="http://www.w3.org/2000/svg"
   xmlns:svg="http://www.w3.org/2000/svg"><defs
   id="defs210" /><sodipodi:namedview
   id="namedview208"
   pagecolor="#505050"
   bordercolor="#eeeeee"
   borderopacity="1"
   inkscape:pageshadow="0"
   inkscape:pageopacity="0"
   inkscape:pagecheckerboard="0"
   showgrid="false"
   inkscape:snap-bbox="true"
   inkscape:bbox-paths="true"
   inkscape:bbox-nodes="true"
   inkscape:snap-bbox-edge-midpoints="true"
   inkscape:snap-bbox-midpoints="true"
   inkscape:zoom="0.3359375"
   inkscape:cx="1244.2791"
   inkscape:cy="1079.0698"
   inkscape:window-width="1916"
   inkscape:window-height="1056"
   inkscape:window-x="1920"
   inkscape:window-y="20"
   inkscape:window-maximized="1"
   inkscape:current-layer="layer1" />

<g
   inkscape:groupmode="layer"
   id="layer2"
   inkscape:label="Layer 2"><rect
     style="fill:#24283b;fill-opacity:1;fill-rule:evenodd;stroke-width:3.6599"
     id="rect316"
     width="3840"
     height="2160"
     x="0"
     y="0" /></g><g
   inkscape:groupmode="layer"
   id="layer1"
   inkscape:label="Layer 1"><g
     id="g205"
     style="fill:#b4f9f8;fill-opacity:1"
     inkscape:export-filename="/home/aludes/Projects/Personal/tokyonight-backgrounds/operating-systems/src/9.png"
     inkscape:export-xdpi="90"
     inkscape:export-ydpi="90">
	<g
   id="g197"
   style="fill:#b4f9f8;fill-opacity:1">
		<path
   d="m 1453.4,1034.9 c 2.8,-2.5 5.6,-4.7 8.1,-7.3 10,-9.9 22.1,-14.6 36.1,-14.9 8.2,-0.2 16.4,0.2 24.3,2.8 17.1,5.7 26.9,17.5 30.1,34.9 0.8,4.7 1.2,9.5 1.2,14.3 0.1,35.8 0.1,71.5 0.1,107.3 v 5.3 h -42.5 v -6.3 c 0,-33 0,-66 0,-99 0.1,-1.9 0,-3.8 -0.3,-5.6 -2.3,-12.6 -12.7,-19.4 -26.3,-17.5 -16.4,2.3 -23.3,13.4 -24.4,27.7 -0.4,5.5 -0.4,10.9 -0.4,16.4 -0.1,26.2 -0.1,52.3 0,78.5 v 5.9 h -42.2 v -6.1 c 0,-33 0,-66 -0.1,-99 0,-6 -0.7,-11.9 -5.2,-16.6 -6,-6.3 -13.6,-7.7 -21.7,-6.5 -14.2,2.1 -22.5,11.1 -24.1,25.8 -0.3,2.7 -0.4,5.5 -0.4,8.2 -0.1,29.4 -0.1,58.9 0,88.2 v 6.3 c -14.2,0.1 -27.9,0.1 -41.9,0 v -161.5 h 41.8 v 16.9 l 0.9,0.5 c 11.7,-13.9 26,-21.6 44.7,-20.9 18.2,0.6 32.8,6.9 42.2,22.2 z"
   id="path169"
   style="fill:#b4f9f8;fill-opacity:1" />
		<path
   d="M 2295,1034.8 V 960 c 3.9,-1.3 35.2,-1.7 42.6,-0.6 v 217.8 h -42.5 v -13.5 c -5.2,4.5 -9.7,9.2 -14.9,12.9 -7.3,5.2 -15.7,7.2 -24.6,7.7 -10.8,0.6 -21.1,-1 -31,-5.4 -16.2,-7.3 -26.9,-19.6 -33.4,-35.8 -5.1,-12.5 -8,-25.8 -8.6,-39.3 -0.7,-17.5 1.8,-34.3 9.3,-50.2 8.7,-18.3 21.6,-32.6 41.7,-38.4 15.8,-4.6 31.5,-3.8 46.1,4.8 4.9,2.9 9,6.8 12.5,11.3 0.5,0.8 1.2,1.6 2.8,3.5 z m 0.1,64.3 c 0,-1 0.1,-2.1 0,-3.1 -0.5,-13 -3.2,-25.4 -11.4,-36 -5.7,-7.4 -13.3,-11.6 -22.8,-11.8 -12.5,-0.4 -21.1,6 -27.4,16 -7.5,12 -9.3,25.5 -8.5,39.4 0.5,10.5 3,20.5 8.7,29.6 7.5,12 19.8,17.8 32.7,14.9 10,-2.2 16.9,-8.6 21.7,-17.4 5.2,-9.8 7,-20.5 7,-31.6 z"
   id="path171"
   style="fill:#b4f9f8;fill-opacity:1" />
		<path
   d="m 2784.2,1106.9 c -5.5,5.9 -10.5,11.2 -15.3,16.7 -0.9,1.1 -0.9,3.2 -0.9,4.8 -0.1,14.2 -0.1,28.4 -0.1,42.6 v 5.5 c -3.8,1.2 -35.2,1.6 -42.1,0.6 -1,-3.7 -1.3,-209.1 -0.4,-217.2 3.6,-1.1 35.5,-1.4 42.3,-0.3 v 116.6 l 1,0.4 c 3.8,-4.5 7.7,-8.9 11.5,-13.4 12.3,-14.6 24.6,-29.2 36.9,-43.9 2,-2.4 4.1,-3.5 7.4,-3.4 14.2,0.2 28.5,0.1 43.6,0.1 -5.6,7.8 -12.1,13.9 -17.9,20.6 -5.9,6.9 -12.1,13.4 -18.3,20.1 -6.1,6.7 -12.1,13.4 -18.5,20.4 l 58.9,100.3 c -2.5,0.2 -4.2,0.3 -5.8,0.3 -12.9,0 -25.7,-0.2 -38.6,0.1 -4,0.1 -6.2,-1.1 -8,-4.6 -8.9,-16.8 -18,-33.4 -27.1,-50 -2.6,-5.2 -5.4,-10.3 -8.6,-16.3 z"
   id="path173"
   style="fill:#b4f9f8;fill-opacity:1" />
		<path
   d="m 2593,1068.9 h -40.4 c 0.9,-25.3 13,-45.7 39.8,-52.7 21.7,-5.7 43.7,-5.5 65.3,1.6 11.8,3.9 21.3,11 26.6,22.6 3.2,7.1 4.4,14.7 4.4,22.4 0.1,29.6 0.2,59.2 -0.1,88.8 -0.1,7.4 2.2,13.3 7.3,18.5 2.5,2.6 2.5,2.7 2,7.4 h -40.3 c -6.2,0 -8.8,-2.2 -9.7,-8.5 -0.3,-2 -0.5,-4 -0.8,-6.7 -3,2.6 -5.4,4.7 -7.8,6.7 -9.2,7.5 -19.4,12.9 -31.3,14.5 -18.2,2.4 -34.8,-1.3 -48.1,-14.9 -6.2,-6.4 -9.2,-14.4 -10.4,-23 -1.2,-8.3 -1.1,-16.7 0.9,-25 3.9,-16.3 14.5,-26.3 29.7,-32 10.8,-4 22.3,-5.2 33.5,-7.4 5.7,-1 11.5,-1.9 17.2,-3.1 3,-0.7 5.9,-1.7 8.6,-3.1 5.4,-2.8 7.9,-7.5 7.5,-13.5 -0.4,-6 -3.4,-10.3 -9.2,-12.4 -2.6,-0.9 -5.2,-1.8 -7.9,-2 -5.5,-0.3 -11,-0.4 -16.4,0.2 -11.7,1.2 -16.6,5.8 -19.2,17.2 -0.5,1.6 -0.9,2.9 -1.2,4.4 z m 53.6,33.2 c -3.8,1 -7.4,2.2 -11,3 -7.2,1.5 -14.5,2.6 -21.6,4.3 -4.6,1.1 -9.2,2.7 -13.4,4.7 -8.1,3.9 -10,11.2 -9.2,19.3 0.8,7.5 5.2,12.4 12.2,15 4.6,1.7 9.4,1.7 14.2,1.4 12.9,-0.9 22.9,-8.8 26.7,-21.2 2.7,-8.6 2.7,-17.4 2.1,-26.5 z"
   id="path175"
   style="fill:#b4f9f8;fill-opacity:1" />
		<path
   d="m 1875.6,1069 h -40.4 c -0.6,-4.7 0.6,-9.1 1.6,-13.5 5.4,-23.1 20.6,-35.9 43.2,-40.5 17.6,-3.7 35.9,-3.4 53.5,0.9 10.6,2.6 20.3,7 27.6,15.7 7.6,9 10,19.7 10,31 0.1,29.4 0.2,58.8 -0.1,88.2 -0.1,7.9 2.2,14.4 7.8,19.8 2,1.9 2.8,3.8 1.5,7.1 h -4.7 c -12.1,0 -24.3,0 -36.5,0 -5.1,0 -6.9,-1.2 -8.3,-6.3 -0.7,-2.6 -1,-5.3 -1.5,-8.5 -1.3,1 -2.4,1.8 -3.3,2.7 -10.1,9.5 -21.7,16.3 -35.5,18.2 -18.2,2.5 -34.7,-1.2 -48.1,-14.8 -5.6,-5.7 -8.4,-12.9 -10,-20.4 -1.7,-8.5 -1.7,-17.4 0.1,-25.9 3.5,-17.2 14.3,-27.9 30.4,-33.8 12.8,-4.6 26.3,-5.9 39.6,-8.3 6.5,-1.2 13.2,-1.6 19.2,-5 7.6,-4.3 10,-12.6 5.8,-20.2 -1.5,-2.8 -4,-4.8 -6.9,-5.8 -10.7,-3.6 -21.6,-3.3 -32.3,-0.2 -5.8,1.6 -8.9,6.2 -10.8,11.6 -0.9,2.3 -1.2,4.9 -1.9,8 z m 53.7,33.5 c -12.2,2.5 -24.1,4.9 -35.9,7.5 -3.2,0.7 -6.2,1.9 -9.2,3.3 -8.4,4.1 -11.3,10.2 -10.3,20.8 0.7,6.9 6.4,13.1 14.2,15 7.4,1.8 15.1,1.2 22.1,-1.6 6.3,-2.4 11.4,-7.2 14.3,-13.3 5.2,-10.2 5.3,-20.9 4.8,-31.7 z"
   id="path177"
   style="fill:#b4f9f8;fill-opacity:1" />
		<path
   d="m 1132.3,1099.4 c -0.2,-13.6 1.5,-26.1 5.9,-38.1 8.5,-23.5 24.6,-39.1 48.9,-45.5 20,-5.3 40,-4.7 59.5,2.7 17.6,6.7 30.4,18.9 37.8,36.3 10.7,25.3 11.9,51.5 3.8,77.5 -8.5,27.5 -27.4,44.4 -55.7,50.1 -18.8,3.8 -37.6,2.9 -55.5,-4.7 -22.5,-9.5 -35.4,-27.2 -41.4,-50.3 -2.5,-9.4 -3.6,-19 -3.3,-28 z m 42.4,-1.2 c -0.2,8.5 1.2,17.1 4.1,25.1 3.8,10.5 9.8,19.2 20.4,23.8 16.5,7.2 34.5,0.6 43.4,-15.5 4.3,-7.7 6.5,-16 7.5,-24.8 1.4,-13.6 -0.2,-26.7 -6,-38.9 -5.4,-11.4 -14.1,-19.3 -27.3,-20.6 -14.1,-1.5 -25.1,4 -32.8,15.8 -7,10.7 -9.1,22.6 -9.3,35.1 z"
   id="path179"
   style="fill:#b4f9f8;fill-opacity:1" />
		<path
   d="m 1729.6,1109.8 h -108.3 c 0.2,2.8 0.3,5 0.6,7.3 0.5,4.1 0.7,8.2 1.7,12.1 4.4,16.6 20.3,24 34.8,22.5 13.1,-1.3 22.7,-7.7 28.2,-20.1 h 41.3 c -0.2,1.3 -0.2,2.3 -0.5,3.2 -7.2,20.8 -21.2,35.3 -41.6,43.3 -21.4,8.4 -43.1,8.8 -64.5,0.1 -16.2,-6.6 -27.3,-18.5 -34.3,-34.3 -7,-15.8 -8.9,-32.4 -8.2,-49.5 0.6,-14.3 3,-28.1 9.1,-41.2 10.3,-22.2 27.5,-35.7 51.9,-39.6 15.6,-2.5 31.1,-1.3 45.8,5 22,9.5 35.1,26.6 40.9,49.4 3.3,13 4.1,26.2 3.6,39.6 0,0.9 -0.2,1.6 -0.5,2.2 z m -107.4,-28.5 h 63.8 c -0.7,-11.1 -3.2,-20.9 -11.9,-28.6 -11.3,-9.9 -34,-11.7 -44.6,4.9 -4.6,7 -6.6,15 -7.3,23.7 z"
   id="path181"
   style="fill:#b4f9f8;fill-opacity:1" />
		<path
   d="m 3032.5,1109.8 h -108.7 c 0.6,9 0.6,17.3 4.3,25 5.6,11.6 19.6,18.5 33,16.9 12.9,-1.6 22.4,-7.8 27.9,-20.1 h 41.6 c -0.7,2.3 -1,4.4 -1.8,6.3 -7.5,18.5 -20.4,31.8 -38.8,39.5 -21.4,9 -43.3,9.6 -65,1.3 -16.3,-6.2 -27.6,-18 -34.9,-33.7 -7.4,-15.8 -9.4,-32.7 -8.7,-49.9 0.4,-11.6 2.1,-23.1 6,-34.1 10.1,-28.6 30.2,-45.2 60.4,-48.2 23.6,-2.3 45.3,3.4 62.6,20.8 8.3,8.4 14,18.4 17.3,29.8 4.3,15 5.4,30.3 4.8,46.4 z m -44.2,-28.5 c -0.9,-11.1 -3.2,-20.8 -11.7,-28.4 -11.9,-10.7 -32,-10.3 -42.1,1.3 -6.7,7.7 -8.9,17 -10,27.1 z"
   id="path183"
   style="fill:#b4f9f8;fill-opacity:1" />
		<path
   d="m 2154.1,1177.2 h -42.2 v -5.9 c 0,-30.1 0,-60.2 -0.1,-90.3 0,-3.8 -0.3,-7.5 -0.9,-11.2 -1.7,-12 -8.4,-19.5 -21.6,-20.8 -11.4,-1.2 -21.8,1.3 -30,9.9 -5.9,6.2 -8.1,13.7 -8.1,22 -0.1,30.1 -0.1,60.2 -0.1,90.3 v 6.1 c -14.1,0.5 -27.9,0.1 -41.6,0.3 -1.1,-4.1 -1.4,-154.2 -0.5,-161.5 h 41.8 v 19.8 l 0.9,0.4 c 1.4,-1.5 2.9,-3 4.3,-4.6 10.4,-12.8 24,-18.7 40.3,-18.9 7.4,-0.1 14.7,0.1 21.9,2.1 19.2,5.4 30.3,18.4 34.3,37.6 0.9,4.5 1.4,9.1 1.3,13.7 0.1,35 0.1,70.1 0.1,105.2 z"
   id="path185"
   style="fill:#b4f9f8;fill-opacity:1" />
		<path
   d="m 1111.2,1076.2 h -40 c -0.8,-2.5 -1.5,-4.9 -2.3,-7.4 -5.4,-17 -14.5,-23.2 -32.3,-21.6 -11.5,1 -19.4,7.2 -23.5,17.9 -3.3,8.5 -4.8,17.3 -5.7,26.4 -1,10.5 -0.1,21.1 2.6,31.4 2.4,9.1 6.7,17.3 15,22.4 9.4,5.9 19.3,6.2 29.4,1.8 6.7,-3 10.1,-9 12.8,-15.3 1.4,-3.3 2.4,-6.7 3.7,-10.3 h 40.5 c -0.3,2.5 -0.5,4.6 -0.9,6.7 -3.6,19 -12.5,34.6 -29,45.2 -11.2,7.2 -23.6,10.7 -36.9,10.9 -9.1,0.2 -18.1,-0.1 -27,-2.4 -24.1,-6.4 -39.9,-21.7 -47.7,-45.1 -4.6,-13.7 -6,-27.9 -5.4,-42.4 0.5,-11.6 2.1,-23.1 5.9,-34.1 9.6,-27 28.5,-42.8 56.9,-46.7 12.5,-1.7 25,-1.5 37.1,2 26.5,7.6 41.2,25.6 45.9,52.2 0.4,2.3 0.6,4.7 0.9,7.1 0.4,0.2 0.2,0.6 0,1.3 z"
   id="path187"
   style="fill:#b4f9f8;fill-opacity:1" />
		<path
   d="m 3212.9,1047.2 v -28.1 h 20.3 c 0.1,-7.5 0.1,-14.7 0.1,-21.8 0,-7.1 0,-14.3 0,-21.7 h 42.6 v 43 h 22.2 c 1.2,4 1.5,20.9 0.5,28.6 h -22.1 c -0.1,1.9 -0.3,3.3 -0.3,4.8 0,28.8 0,57.5 0,86.2 0,11.2 3.2,14.3 14.5,14.1 2.6,-0.1 5.1,-0.4 7.7,-0.6 1,3.6 1.2,23.3 0.3,29.8 -9.1,2.7 -18.6,3.7 -28.1,3 -4.9,-0.4 -9.8,-1.2 -14.6,-2.6 -12.5,-3.6 -19.3,-12.4 -21.5,-24.9 -0.7,-4.2 -1,-8.4 -1,-12.7 -0.1,-30.3 -0.1,-60.6 -0.1,-90.9 v -6.3 z"
   id="path189"
   style="fill:#b4f9f8;fill-opacity:1" />
		<path
   d="m 2531.1,1151.9 v 29.6 c -3.1,0.7 -6.3,1.6 -9.6,2.2 -8.6,1.5 -17.4,1.6 -26,0.2 -19.7,-3.1 -29.3,-14.7 -29.9,-34.8 -0.3,-10.6 -0.1,-21.2 -0.1,-31.8 v -69.9 h -20.3 v -28.2 h 20.3 c 0.1,-7.5 0.1,-14.6 0.1,-21.8 0.1,-7.2 0,-14.3 0,-21.7 h 42.4 v 43.2 h 23.1 v 28.2 h -22.6 c -0.2,2 -0.4,3.3 -0.4,4.6 0,28.8 0,57.5 0,86.2 0.1,1.5 0.2,3 0.5,4.5 1.4,7.5 4,9.8 11.7,9.8 3.5,0.2 7,-0.1 10.8,-0.3 z"
   id="path191"
   style="fill:#b4f9f8;fill-opacity:1" />
		<path
   d="m 3146,1016 h 40.8 c 1,3.7 1.4,153.9 0.4,161.3 h -40.8 c -1.2,-3.7 -1.5,-153.1 -0.4,-161.3 z"
   id="path193"
   style="fill:#b4f9f8;fill-opacity:1" />
		<path
   d="m 3145.8,959.2 h 41 c 1.1,3.8 1.4,25.9 0.6,36.2 -3.6,1.1 -31.6,1.5 -41.5,0.5 v -36.7 z"
   id="path195"
   style="fill:#b4f9f8;fill-opacity:1" />
	</g>
	<g
   id="g203"
   style="fill:#b4f9f8;fill-opacity:1">
		<path
   d="m 908,1080.4 c -0.9,10.5 -1.2,21.1 -2.9,31.5 -3.2,19.4 -9.9,37.8 -19.4,55.1 -5.8,10.6 -12.9,20.4 -20.6,29.7 -12.9,15.5 -28.1,28.1 -45.3,38.5 -12.5,7.5 -25.7,13.4 -39.6,17.8 -25.5,8.2 -51.6,9.6 -78.1,7.1 -17,-1.6 -33.2,-6.1 -48.9,-12.6 -18,-7.4 -34.7,-17.6 -49.5,-30.3 -12.1,-10.3 -22.8,-22 -31.4,-35.3 -5.6,-8.7 -11.1,-17.6 -15.5,-27 -5.1,-10.9 -8.7,-22.5 -11.6,-34.3 -4.3,-17.6 -4.8,-35.5 -4,-53.4 1,-20.4 5.9,-40 14.1,-58.7 7.3,-16.5 16.8,-31.9 28.5,-45.7 13.7,-16.2 30.1,-29.7 48.5,-40.2 12.3,-7 25.4,-12.7 38.9,-16.7 16.7,-5 34.1,-7.5 51.6,-7.3 10.4,0.1 20.9,0.2 31.2,2 16.9,3 33.2,7.8 48.8,15.1 15,7 29,16 41.6,26.7 15.6,13.2 28.8,29 39.1,46.7 8.1,13.9 14.4,28.6 18.5,44 3.9,15.5 6.3,31.2 6,47.3 z m -181.2,149.1 c 7.3,0.8 16.9,-1.2 26.4,-2.9 19.1,-3.5 36.9,-10.9 53.2,-21.5 11.9,-7.6 22.5,-17.1 31.4,-28 5,-6.2 9.7,-12.7 14.1,-19.3 7.5,-11.1 12.5,-23.4 16.1,-36.3 2.9,-10.3 4.6,-20.8 5.6,-31.5 0.8,-9 0.5,-18.1 -0.8,-27 -1.6,-10.9 -3.9,-21.7 -7.9,-32.1 -3.2,-8.6 -7.2,-16.9 -11.8,-24.9 -5,-8.4 -10.9,-16.2 -17.4,-23.7 -6.3,-7.1 -13.3,-13.5 -20.9,-19.2 -9.1,-6.8 -19,-12.7 -29.3,-17.3 -11.6,-5.2 -23.9,-9 -36.5,-11.1 -11.5,-2 -23.1,-2.3 -34.7,-1.6 -13.6,0.8 -26.7,3.8 -39.4,8.1 -11,3.7 -21.3,9 -31.1,15.3 -31.3,20 -54,51.1 -63.4,87 -3.3,12.6 -5.2,25.3 -5.2,38.2 0.1,12.4 2.1,24.6 5.2,36.7 2.6,10.2 6.4,20.1 11.2,29.5 9,17.8 21.3,33 36.5,45.9 12.7,10.8 27.2,19.4 42.7,25.5 17.1,6.7 35,10.1 56,10.2 z"
   id="path199"
   style="fill:#b4f9f8;fill-opacity:1" />
		<path
   d="M 652.5,1188.2 V 1145 c 2.2,0.6 4,0.9 5.7,1.6 12.3,5.7 25.2,9.1 38.7,10.7 14.3,1.6 27.5,-0.5 40,-7.3 6.3,-3.3 11.2,-8.4 15,-14.4 6.1,-9.5 9.4,-19.9 10.4,-32 -4.1,2.1 -7.5,3.8 -10.9,5.5 -9.3,4.7 -19.7,7.2 -30.1,7.2 -7.7,0 -15.4,-0.1 -23.1,-1.1 -13.8,-1.9 -26,-7.4 -36.8,-16.4 -10.1,-8.4 -17.3,-18.7 -20.8,-31.2 -2.9,-10.4 -4.9,-21.1 -3.2,-32.3 1.1,-7.2 1.7,-14.5 4.2,-21.5 5.4,-15 14.4,-27.2 27.6,-36.3 12.6,-8.6 26.4,-13.4 41.5,-14.7 12.8,-1.1 25.7,-1.3 38.3,1.2 15.7,3.1 29.5,10.1 41,21.5 11.5,11.4 18.9,25.2 23.5,40.6 4.5,14.7 6.6,29.9 6.4,45.3 -0.2,9.9 -0.2,19.9 -1.2,29.6 -0.8,7.7 -3,15.3 -4.9,22.8 -3.3,13.2 -9.5,25.1 -17.9,35.8 -8.7,11.2 -19.2,20.1 -32,26.4 -14.9,7.4 -31.4,11.1 -48,10.7 -11.1,-0.2 -22.3,-0.4 -33.2,-1.9 -10.2,-1 -20,-4.1 -30.2,-6.6 z m 103.2,-149.4 c 0.3,-7.7 -1,-15.3 -3.7,-22.5 -2.2,-5.7 -6,-9.8 -11.1,-12.8 -6.7,-4 -14,-4.1 -21.4,-3 -9.5,1.4 -16.3,6.4 -20.1,15.3 -3.3,8 -4.1,16.4 -4.3,25 -0.1,2.2 0.9,4.3 0.9,6.5 0.1,5 1.4,9.8 3.3,14.4 2.9,6.9 7.7,11.7 15,14.3 4.5,1.6 9.1,1.6 13.6,1.5 11.2,-0.1 21.1,-7.3 24.6,-18 2.4,-6.7 3.4,-13.7 3.2,-20.7 z"
   id="path201"
   style="fill:#b4f9f8;fill-opacity:1" />
	</g>
</g></g></svg>
