<?xml version="1.0" encoding="UTF-8" standalone="no"?>
<!-- Generator: Adobe Illustrator 25.2.1, SVG Export Plug-In . SVG Version: 6.00 Build 0)  -->

<svg
   version="1.1"
   id="Layer_1"
   x="0px"
   y="0px"
   viewBox="0 0 3840 2160"
   style="enable-background:new 0 0 3840 2160;"
   xml:space="preserve"
   sodipodi:docname="alpine-linux.svg"
   inkscape:version="1.1.1 (3bf5ae0d25, 2021-09-20)"
   xmlns:inkscape="http://www.inkscape.org/namespaces/inkscape"
   xmlns:sodipodi="http://sodipodi.sourceforge.net/DTD/sodipodi-0.dtd"
   xmlns="http://www.w3.org/2000/svg"
   xmlns:svg="http://www.w3.org/2000/svg"><defs
   id="defs1717" /><sodipodi:namedview
   id="namedview1715"
   pagecolor="#505050"
   bordercolor="#eeeeee"
   borderopacity="1"
   inkscape:pageshadow="0"
   inkscape:pageopacity="0"
   inkscape:pagecheckerboard="0"
   showgrid="false"
   inkscape:zoom="0.25190679"
   inkscape:cx="1953.1034"
   inkscape:cy="1224.6593"
   inkscape:window-width="1920"
   inkscape:window-height="1060"
   inkscape:window-x="0"
   inkscape:window-y="20"
   inkscape:window-maximized="1"
   inkscape:current-layer="Layer_1" />
<style
   type="text/css"
   id="style1677">
	.st0{fill:#0D597F;}
</style>
<rect
   style="fill:#24283b;fill-opacity:1"
   id="rect1741"
   width="3840"
   x="0"
   y="0"
   height="2160" /><g
   id="Group"
   transform="matrix(1.25,0,0,-1.25,-267.55675,592.22537)">
	<g
   id="g1697"
   style="fill:#2ac3de;fill-opacity:1">
		<g
   id="g24"
   transform="translate(441.9298,442.9648)"
   style="fill:#2ac3de;fill-opacity:1">
			<path
   id="path26"
   class="st0"
   d="m 1209.9,-745.9 c -27,14.9 -71.8,14.9 -97.8,-0.3 -37,-21.6 -51.2,-63.8 -37.6,-112.9 6.9,-25.2 25.7,-43.7 54,-53.8 20.1,-6.9 38.6,-7.2 39.4,-7.2 v 30.9 c -0.5,0 -53.5,0.8 -63.8,38.1 -13.4,48.4 9,69.5 23.4,78 16.5,9.5 49.9,9.5 67.4,0 18.5,-10.3 19.8,-31.6 19.8,-65.6 v -62.8 c 0,-22.1 30.9,-23.7 30.9,-23.7 v 23.7 63 c 0.1,32.4 0.1,72.8 -35.7,92.6"
   style="fill:#2ac3de;fill-opacity:1" />
		</g>
		<g
   id="g48"
   transform="translate(473.349,473.7803)"
   style="fill:#2ac3de;fill-opacity:1">
			<path
   id="path50"
   class="st0"
   d="m 1259.3,-697.5 v -83.4 -23.7 c 0,0 -30.6,1.8 -30.6,23.9 v 83.1 h 30.6 z"
   style="fill:#2ac3de;fill-opacity:1" />
		</g>
		<g
   id="g52"
   transform="translate(474.9603,402.1447)"
   style="fill:#2ac3de;fill-opacity:1">
			<path
   id="path54"
   class="st0"
   d="m 1261.9,-810.1 c -2.6,9.8 -3.9,18.3 -4.1,26 v 26.5 c 0,22.1 -30.6,23.7 -30.6,23.7 v -23.7 -26.2 c 0,-10.8 1.8,-22.4 5.1,-34.2 6.9,-25.2 25.7,-43.7 54,-53.8 20.1,-6.9 38.6,-6.9 39.4,-6.9 v 30.6 c -0.8,-0.1 -53.5,0.7 -63.8,38"
   style="fill:#2ac3de;fill-opacity:1" />
		</g>
		<g
   id="g40"
   transform="translate(519.3928,442.6805)"
   style="fill:#2ac3de;fill-opacity:1">
			<path
   id="path42"
   class="st0"
   d="m 1331.8,-746.4 c 27,14.9 71.8,14.9 97.8,-0.3 37,-21.6 51.2,-63.8 37.6,-112.9 -6.9,-25.2 -25.7,-43.7 -54,-53.8 -20.1,-6.9 -38.6,-6.2 -39.4,-6.2 v 30.6 c 0.5,0 53.5,0.3 63.8,37.6 13.4,48.4 -9,69.5 -23.4,78 -16.5,9.5 -49.9,9.5 -67.4,0 -18.5,-10.3 -19.8,-31.6 -19.8,-65.6 v -32.4 c 0,-22.1 -30.9,-23.7 -30.9,-23.7 v 23.7 32.4 c -0.1,32.4 -0.1,72.8 35.7,92.6"
   style="fill:#2ac3de;fill-opacity:1" />
		</g>
		<g
   id="g44"
   transform="translate(517.3693,344.6278)"
   style="fill:#2ac3de;fill-opacity:1">
			<path
   id="path46"
   class="st0"
   d="m 1328.6,-900.6 v 78.5 23.7 c 0,0 -30.6,-1.8 -30.6,-23.9 v -78.2 h 30.6 z"
   style="fill:#2ac3de;fill-opacity:1" />
		</g>
		<g
   id="g32"
   transform="translate(579.8309,375.3661)"
   style="fill:#2ac3de;fill-opacity:1">
			<path
   id="path34"
   class="st0"
   d="m 1426.8,-852.2 v 122.5 23.7 c 0,0 30.6,-1.8 30.6,-23.9 v -122.2 h -30.6 z"
   style="fill:#2ac3de;fill-opacity:1" />
		</g>
		<g
   id="g36"
   transform="translate(591.7351,443.8518)"
   style="fill:#2ac3de;fill-opacity:1">
			<path
   id="path38"
   class="st0"
   d="m 1445.5,-744.5 v -5.1 -23.7 c 0,0 -30.6,1.8 -30.6,23.9 v 4.9 z"
   style="fill:#2ac3de;fill-opacity:1" />
		</g>
		<g
   id="g28"
   transform="translate(597.6101,375.3665)"
   style="fill:#2ac3de;fill-opacity:1">
			<path
   id="path30"
   class="st0"
   d="m 1454.8,-852.2 v 96.2 c 0,33.4 14.9,61.2 42.5,77.4 26,15.2 70.8,15.2 97.8,0.3 35.8,-19.8 35.8,-60.2 35.8,-92.6 v -62.5 -23.7 c 0,0 -30.9,1.5 -30.9,23.7 v 62.5 c 0,34 -1.3,55.3 -19.8,65.6 -17.5,9.8 -50.7,9.8 -67.4,0 -11.3,-6.7 -27.5,-21.1 -27.5,-50.7 v -96.2 z"
   style="fill:#2ac3de;fill-opacity:1" />
		</g>
		<g
   id="g20"
   transform="translate(686.7844,397.9583)"
   style="fill:#2ac3de;fill-opacity:1">
			<path
   id="path22"
   class="st0"
   d="m 1595,-816.7 c -9.5,16.5 -9.5,49.9 0,67.4 4.1,7.7 17,24.7 73.1,24.7 11.6,0 19.8,-0.5 26,-1.5 13.6,-1.8 23.9,-6.4 23.9,-19 0,-16.7 -24.7,-16.7 -24.7,-16.7 h -52 c -22.1,0 -23.9,-30.6 -23.9,-30.6 h 23.7 52.5 c 26.8,0 54.3,11.8 54.3,47.1 0,23.2 -13.4,38.8 -35.2,45 -21.9,5.9 -30.4,5.7 -60.2,5.1 -23.9,-0.5 -37.6,-5.7 -46.3,-8.5 -15.2,-5.1 -28.8,-14.2 -38.1,-30.6 -14.9,-27.3 -14.7,-72 0.3,-97.8 16.2,-27.8 44,-42.5 77.4,-42.5 h 102.1 v 30.6 h -102.1 c -29.7,-0.2 -44.1,16 -50.8,27.3"
   style="fill:#2ac3de;fill-opacity:1" />
		</g>
	</g>
	<g
   id="g1709"
   style="fill:#b4f9f8;fill-opacity:1">
		<g
   id="g64"
   transform="translate(528.4338,353.235)"
   style="fill:#b4f9f8;fill-opacity:1">
			<path
   id="path66"
   class="st0"
   d="m 1346,-887 v 57.1 h -5.1 V -887 c 0,-11.1 8.5,-22.9 32.9,-22.9 h 39.1 v 5.1 h -39.1 c -25.8,0 -27.8,13.6 -27.8,17.8"
   style="fill:#b4f9f8;fill-opacity:1" />
		</g>
		<path
   id="path68"
   class="st0"
   d="m 1958.5,-556.5 h 5.1 v 58.7 h -5.1 z"
   style="fill:#b4f9f8;fill-opacity:1" />
		<path
   id="path70"
   class="st0"
   d="m 1958.5,-494.8 h 5.1 v 7.7 h -5.1 z"
   style="fill:#b4f9f8;fill-opacity:1" />
		<g
   id="g72"
   transform="translate(664.6232,367.1373)"
   style="fill:#b4f9f8;fill-opacity:1">
			<path
   id="path74"
   class="st0"
   d="m 1560.2,-865.2 h -6.7 l -21.9,-25.5 -21.9,25.5 h -6.7 l 25.2,-29.3 -25,-29.3 h 6.7 l 21.6,25.2 21.6,-25.2 h 6.9 l -25.2,29.3 z"
   style="fill:#b4f9f8;fill-opacity:1" />
		</g>
		<g
   id="g76"
   transform="translate(634.3527,353.11)"
   style="fill:#b4f9f8;fill-opacity:1">
			<path
   id="path78"
   class="st0"
   d="m 1512.6,-887.2 c 0,-1.8 -1,-17.5 -33.7,-17.5 -32.2,0 -33.2,15.7 -33.2,17.5 v 36 h -5.1 v -36 c 0,-2.3 1,-22.6 38.3,-22.6 37.8,0 38.8,20.3 38.8,22.6 v 36 h -5.1 z"
   style="fill:#b4f9f8;fill-opacity:1" />
		</g>
		<g
   id="g80"
   transform="translate(584.7756,367.1373)"
   style="fill:#b4f9f8;fill-opacity:1">
			<path
   id="path82"
   class="st0"
   d="m 1434.6,-865.2 c -37.6,0 -38.8,-20.3 -38.8,-22.6 v -36 h 5.1 v 36 c 0,1.8 1,17.5 33.7,17.5 32.4,0 33.2,-15.7 33.2,-17.5 v -36 h 5.1 v 36 c 0,2.3 -1,22.6 -38.3,22.6"
   style="fill:#b4f9f8;fill-opacity:1" />
		</g>
	</g>
	<path
   class="st0"
   d="m 1352.8,-224.1 h -191.7 l -95.7,-165.9 95.7,-165.9 h 191.7 l 95.7,165.9 z m -148.2,-206.6 c -1.8,0 -3.6,0.3 -5.7,0.5 -2.1,0.3 -4.4,1 -6.7,1.8 -2.3,0.8 -5.1,2.1 -7.7,3.3 -2.8,1.5 -5.7,3.3 -8.7,5.4 l 29.1,29.1 v -40.1 z m 118.1,5.6 c -2.8,-1.5 -5.4,-2.6 -8,-3.3 -2.6,-0.8 -4.6,-1.5 -6.7,-1.8 -2.1,-0.3 -4.1,-0.5 -5.7,-0.5 -2.1,0 -3.9,0.3 -5.4,0.5 -1.5,0.3 -2.8,0.8 -3.9,1 -1,0.5 -1.8,0.8 -2.3,1.3 -0.5,0.3 -0.8,0.5 -0.8,0.5 l -17,17.5 -48.6,48.6 -17.3,-16.7 -49.1,-49.1 c 0,0 -0.3,-0.3 -0.8,-0.5 -0.5,-0.3 -1.3,-0.8 -2.3,-1.3 -1,-0.5 -2.3,-0.8 -3.9,-1 -1.6,-0.2 -3.3,-0.5 -5.4,-0.5 -1.8,0 -3.6,0.3 -5.7,0.5 -2.1,0.2 -4.4,1 -6.7,1.8 -2.6,0.8 -5.1,2.1 -8,3.3 -2.8,1.5 -5.9,3.3 -9,5.4 l 108.6,107.3 43,-44.3 v 0 l 0.3,-0.3 v 0 0 l 25.2,-25.2 v 0 l 38.6,-37.8 c -3.4,-2.3 -6.2,-4.1 -9.1,-5.4 z m 55.6,-3.6 c -2.6,-0.8 -4.6,-1.5 -6.7,-1.8 -2.1,-0.3 -4.1,-0.5 -5.7,-0.5 -2.1,0 -3.9,0.3 -5.4,0.5 -1.5,0.2 -2.8,0.8 -3.9,1 -1,0.5 -1.8,0.8 -2.3,1.3 -0.5,0.3 -0.8,0.5 -0.8,0.5 l -19.6,19.6 -33.7,33.7 -5.4,-5.4 -25,24.7 30.4,30.4 73.1,-73.3 22.1,-21.6 c -3.1,-2.3 -6.2,-4.1 -9,-5.4 -3.2,-1.6 -5.8,-2.6 -8.1,-3.7 z"
   id="path1711"
   style="fill:#7aa2f7;fill-opacity:1" />
</g>
</svg>
