<?xml version="1.0" encoding="UTF-8" standalone="no"?>
<!-- Generator: Adobe Illustrator 25.2.1, SVG Export Plug-In . SVG Version: 6.00 Build 0)  -->

<svg
   version="1.1"
   id="Layer_1"
   x="0px"
   y="0px"
   viewBox="0 0 3840 2160"
   style="enable-background:new 0 0 3840 2160;"
   xml:space="preserve"
   sodipodi:docname="centos.svg"
   inkscape:version="1.1.1 (3bf5ae0d25, 2021-09-20)"
   xmlns:inkscape="http://www.inkscape.org/namespaces/inkscape"
   xmlns:sodipodi="http://sodipodi.sourceforge.net/DTD/sodipodi-0.dtd"
   xmlns="http://www.w3.org/2000/svg"
   xmlns:svg="http://www.w3.org/2000/svg"><defs
   id="defs19" /><sodipodi:namedview
   id="namedview17"
   pagecolor="#505050"
   bordercolor="#eeeeee"
   borderopacity="1"
   inkscape:pageshadow="0"
   inkscape:pageopacity="0"
   inkscape:pagecheckerboard="0"
   showgrid="false"
   inkscape:zoom="0.50381358"
   inkscape:cx="1752.6324"
   inkscape:cy="1106.5601"
   inkscape:window-width="1920"
   inkscape:window-height="1060"
   inkscape:window-x="0"
   inkscape:window-y="20"
   inkscape:window-maximized="1"
   inkscape:current-layer="Layer_1" />
<style
   type="text/css"
   id="style2">
	.st0{fill:#1793D1;}
	.st1{fill:#FFFFFF;fill-opacity:0.1657;}
	.st2{fill:url(#SVGID_1_);}
</style>
<rect
   style="fill:#24283b;stroke-width:5.46313"
   id="rect5602"
   width="3840"
   height="2160"
   x="-3840"
   y="0"
   transform="scale(-1,1)" />
<g
   id="g2298"
   transform="matrix(16.51136,0,0,16.51136,-1342.2542,-10984.186)"><rect
     transform="matrix(-0.7071233,-0.7070903,0.7071233,-0.7070903,0,0)"
     y="-375.16251"
     x="-654.55585"
     height="18.998014"
     width="19.000521"
     id="rect2070"
     style="fill:#ff9e64;fill-opacity:1;stroke:none;stroke-width:1.00005;stroke-miterlimit:4;stroke-opacity:1" /><rect
     transform="matrix(-0.7071253,-0.7070883,0.7071253,-0.7070883,0,0)"
     y="-397.79163"
     x="-654.55774"
     height="18.998116"
     width="19.000624"
     id="rect2068"
     style="fill:#bb9af7;fill-opacity:1;stroke:none;stroke-width:1.00005;stroke-miterlimit:4;stroke-opacity:1" /><rect
     y="709.15631"
     x="176.12981"
     height="18.947376"
     width="18.949768"
     id="rect1274"
     style="fill:#9ece6a;fill-opacity:1;stroke:none;stroke-width:1;stroke-miterlimit:4;stroke-opacity:1" /><rect
     transform="matrix(-0.7071298,-0.7070838,0.7071298,-0.7070838,0,0)"
     y="-397.82132"
     x="-677.16235"
     height="18.94832"
     width="18.950821"
     id="rect2064"
     style="fill:#9ece6a;fill-opacity:1;stroke:none;stroke-width:1.00006;stroke-miterlimit:4;stroke-opacity:1" /><rect
     y="733.10638"
     x="176.12979"
     height="18.997324"
     width="18.999775"
     id="rect2039"
     style="fill:#7aa2f7;fill-opacity:1;stroke:none;stroke-width:1;stroke-miterlimit:4;stroke-opacity:1" /><rect
     transform="matrix(-0.7071253,-0.7070883,0.7071253,-0.7070883,0,0)"
     y="-375.16501"
     x="-677.18439"
     height="18.998064"
     width="19.000608"
     id="rect2066"
     style="fill:#262577;fill-opacity:1;stroke:none;stroke-width:1.00005;stroke-miterlimit:4;stroke-opacity:1" /><rect
     y="709.10638"
     x="200.12953"
     height="18.99736"
     width="18.999783"
     id="rect2041"
     style="fill:#bb9af7;fill-opacity:1;stroke:none;stroke-width:1;stroke-miterlimit:4;stroke-opacity:1" /><rect
     transform="matrix(-0.7071253,-0.7070883,0.7071253,-0.7070883,0,0)"
     y="-375.16501"
     x="-677.18439"
     height="18.998072"
     width="19.000616"
     id="rect2082"
     style="fill:#7aa2f7;fill-opacity:1;stroke:none;stroke-width:1.00005;stroke-miterlimit:4;stroke-opacity:1" /><rect
     y="733.10632"
     x="200.12953"
     height="18.997362"
     width="18.999775"
     id="rect2086"
     style="fill:#ff9e64;fill-opacity:1;stroke:none;stroke-width:1;stroke-miterlimit:4;stroke-opacity:1" /><path
     id="rect2140"
     d="m 197.57593,728.80659 0.35356,-0.35354 13.43543,-13.43463 0.35356,-0.35354 -0.35356,-0.35355 -13.43543,-13.43463 -0.35356,-0.35354 -0.35357,0.35354 -13.43543,13.43463 -0.35356,0.35355 0.35356,0.35354 13.43543,13.43463 z m 0,-1.41417 -12.7283,-12.72754 12.7283,-12.72755 12.7283,12.72755 z"
     style="fill:#c0caf5;fill-opacity:1;stroke:none;stroke-width:1.00005;stroke-miterlimit:4;stroke-opacity:1" /><path
     id="rect2142"
     d="m 181.57755,744.80283 0.35356,-0.35354 13.41336,-13.41251 0.35356,-0.35354 -0.35356,-0.35354 -13.43546,-13.43461 -0.35356,-0.35354 -0.35357,0.35354 -13.41336,13.41251 -0.35356,0.35354 0.35356,0.35354 13.43546,13.43461 z m 0,-1.41417 -12.72833,-12.72752 12.70623,-12.70542 12.72833,12.72752 z"
     style="fill:#c0caf5;fill-opacity:1;stroke:none;stroke-width:1.00005;stroke-miterlimit:4;stroke-opacity:1" /><path
     id="rect2144"
     d="m 175.625,708.65625 v 0.5 18.9375 0.5 h 0.5 18.96875 0.5 v -0.5 -18.9375 -0.5 h -0.5 -18.96875 z m 1,1 h 17.96875 v 17.9375 H 176.625 Z"
     style="fill:#c0caf5;fill-opacity:1;stroke:none;stroke-width:1;stroke-miterlimit:4;stroke-opacity:1" /><path
     id="rect2146"
     d="m 197.53327,760.79631 0.35356,-0.35354 13.39134,-13.39034 0.35357,-0.35354 -0.35357,-0.35354 -13.39134,-13.39033 -0.35356,-0.35354 -0.35357,0.35354 -13.39134,13.39033 -0.35356,0.35354 0.35356,0.35354 13.39134,13.39034 z m 0,-1.41416 -12.68421,-12.68326 12.68421,-12.68325 12.6842,12.68325 z"
     style="fill:#c0caf5;fill-opacity:1;stroke:none;stroke-width:1.00006;stroke-miterlimit:4;stroke-opacity:1" /><path
     id="rect2148"
     d="m 175.625,732.59375 v 0.5 19 0.5 h 0.5 19 0.5 v -0.5 -19 -0.5 h -0.5 -19 z m 1,1 h 18 v 18 h -18 z"
     style="fill:#c0caf5;fill-opacity:1;stroke:none;stroke-width:1;stroke-miterlimit:4;stroke-opacity:1" /><path
     id="rect2150"
     d="m 213.57515,744.80283 0.35356,-0.35354 13.43546,-13.43461 0.35356,-0.35354 -0.35356,-0.35354 -13.43546,-13.4346 -0.35356,-0.35354 -0.35357,0.35354 -13.43545,13.4346 -0.35357,0.35354 0.35357,0.35354 13.43545,13.43461 z m 0,-1.41417 -12.72833,-12.72752 12.72833,-12.72752 12.72832,12.72752 z"
     style="fill:#c0caf5;fill-opacity:1;stroke:none;stroke-width:1.00005;stroke-miterlimit:4;stroke-opacity:1" /><path
     id="rect2152"
     d="m 199.625,708.59375 v 0.5 19 0.5 h 0.5 19 0.5 v -0.5 -19 -0.5 h -0.5 -19 z m 1,1 h 18 v 18 h -18 z"
     style="fill:#c0caf5;fill-opacity:1;stroke:none;stroke-width:1;stroke-miterlimit:4;stroke-opacity:1" /><path
     id="rect2154"
     d="m 199.625,732.59375 v 0.5 19 0.5 h 0.5 19 0.5 v -0.5 -19 -0.5 h -0.5 -19 z m 1,1 h 18 v 18 h -18 z"
     style="fill:#c0caf5;fill-opacity:1;stroke:none;stroke-width:1;stroke-miterlimit:4;stroke-opacity:1" /></g></svg>
