<?xml version="1.0" encoding="UTF-8" standalone="no"?>
<!-- Generator: Adobe Illustrator 25.2.1, SVG Export Plug-In . SVG Version: 6.00 Build 0)  -->

<svg
   version="1.1"
   id="Layer_1"
   x="0px"
   y="0px"
   viewBox="0 0 3840 2160"
   style="enable-background:new 0 0 3840 2160;"
   xml:space="preserve"
   sodipodi:docname="deepin.svg"
   inkscape:version="1.1.1 (3bf5ae0d25, 2021-09-20)"
   xmlns:inkscape="http://www.inkscape.org/namespaces/inkscape"
   xmlns:sodipodi="http://sodipodi.sourceforge.net/DTD/sodipodi-0.dtd"
   xmlns="http://www.w3.org/2000/svg"
   xmlns:svg="http://www.w3.org/2000/svg"><defs
   id="defs852" /><sodipodi:namedview
   id="namedview850"
   pagecolor="#505050"
   bordercolor="#eeeeee"
   borderopacity="1"
   inkscape:pageshadow="0"
   inkscape:pageopacity="0"
   inkscape:pagecheckerboard="0"
   showgrid="false"
   inkscape:zoom="0.7125"
   inkscape:cx="1727.7193"
   inkscape:cy="1015.4386"
   inkscape:window-width="1920"
   inkscape:window-height="1060"
   inkscape:window-x="0"
   inkscape:window-y="20"
   inkscape:window-maximized="1"
   inkscape:current-layer="Layer_1" />
<style
   type="text/css"
   id="style836">
	.st0{fill-rule:evenodd;clip-rule:evenodd;fill:#EFF4F8;}
	.st1{fill-rule:evenodd;clip-rule:evenodd;fill:#FFFFFF;}
	.st2{opacity:0.8;fill-rule:evenodd;clip-rule:evenodd;fill:#00B7FF;enable-background:new    ;}
</style>
<rect
   style="fill:#24283b;stroke-width:5.46313"
   id="rect5602"
   width="3840"
   height="2160"
   x="0"
   y="0" /><g
   id="deepin">
	<path
   class="st0"
   d="M 2070.2,580.4 C 1786.7,500.1 1489.9,658 1406.9,934 c -83,276 79.9,564.8 362.9,645.5 283.5,80.7 580.3,-77.6 663.3,-353.2 82.9,-276.4 -79.4,-565.2 -362.9,-645.9 z"
   id="path838"
   style="fill:#565f89;fill-opacity:1" />
	<path
   class="st1"
   d="m 2066.6,591.9 c -276.8,-79 -567,75.9 -648.2,345.2 -81.2,269.3 77.6,551.9 354.9,630.9 276.8,79 567,-75.9 648.2,-345.2 80.8,-269.8 -78,-551.9 -354.9,-630.9 z"
   id="path840" />
	<g
   id="g846">
		<path
   class="st2"
   d="m 2077.7,656.7 c -66.5,-23.5 -134.4,-29.7 -200.5,-24 -76.3,5.8 -113.6,28.8 -111.4,24.4 -125.1,43.5 -230.7,137.1 -280,268 -87.4,233.4 36.4,491.6 276,576.8 239.6,85.2 504.4,-35.5 591.8,-268.9 87.5,-233.4 -35.9,-491.6 -275.9,-576.3 z"
   id="path842"
   style="fill:#2ac3de;fill-opacity:1" />
		<path
   class="st1"
   d="m 1777.8,1459.7 c -25.7,-8.9 -49.2,-20.9 -71.9,-33.7 111.8,8.4 257.3,-16.9 355.4,-106 0,0 187.2,-145.5 51.9,-384.7 0,0 21.7,96.3 -6.2,175.7 0,0 -26.6,107.8 -144.6,138.9 -173.5,46.1 -371.8,-72.3 -454.3,-129.5 -6.2,-59 -0.9,-119.8 21.3,-179.2 32.8,-88.3 94.9,-156.6 170.4,-202.8 -19.1,128.7 -4,247.1 17.3,296.8 28.8,66.5 79,144.2 176.6,154 97.6,9.8 151.7,-79 151.7,-79 50.1,-74.1 58.1,-180.6 57.2,-183.2 -0.9,-2.7 -13.3,-9.8 -13.3,-9.8 -33.7,133.1 -89.6,177.5 -89.6,177.5 -87.8,82.5 -150,25.3 -150,25.3 -67,-69.7 -20,-183.2 -20,-183.2 26.2,-77.2 102.5,-190.3 189,-248 14.2,3.5 28.8,5.8 43,10.6 52.4,18.6 98,46.6 136.6,80.7 -63,22.6 -165,70.1 -165,70.1 -161.5,66.1 -172.6,166.4 -172.6,166.4 -16.9,103.4 67.4,59.5 67.4,59.5 86.5,-41.3 129.1,-169 129.1,-169 -27.1,-4.9 -48.4,3.1 -48.4,3.1 -34.6,83 -105.1,117.1 -105.1,117.1 -28,14.2 -34.2,-11.1 -34.2,-11.1 -4.9,-19.1 20,-22.2 20,-22.2 38.6,-14.6 63,-53.7 68.8,-70.1 5.3,-16 16,-17.3 16,-17.3 52.8,-16.4 100.7,-20 100.7,-20 65.7,-8 165.5,22.6 165.5,22.6 22.6,8.9 43.9,15.5 63,20.9 36.8,89.2 42.6,190.8 6.2,288.4 -77.6,209.2 -316.3,317.9 -531.9,241.2 z"
   id="path844" />
	</g>
</g>
</svg>
