<?xml version="1.0" encoding="UTF-8" standalone="no"?>
<!-- Generator: Adobe Illustrator 25.2.1, SVG Export Plug-In . SVG Version: 6.00 Build 0)  -->

<svg
   version="1.1"
   id="Layer_1"
   x="0px"
   y="0px"
   viewBox="0 0 3840 2160"
   style="enable-background:new 0 0 3840 2160;"
   xml:space="preserve"
   sodipodi:docname="elementary-os.svg"
   inkscape:version="1.1.1 (3bf5ae0d25, 2021-09-20)"
   xmlns:inkscape="http://www.inkscape.org/namespaces/inkscape"
   xmlns:sodipodi="http://sodipodi.sourceforge.net/DTD/sodipodi-0.dtd"
   xmlns="http://www.w3.org/2000/svg"
   xmlns:svg="http://www.w3.org/2000/svg"><defs
   id="defs19"><inkscape:path-effect
     is_visible="true"
     id="path-effect2991"
     effect="spiro" /><inkscape:path-effect
     effect="spiro"
     id="path-effect3177"
     is_visible="true" /></defs><sodipodi:namedview
   id="namedview17"
   pagecolor="#505050"
   bordercolor="#eeeeee"
   borderopacity="1"
   inkscape:pageshadow="0"
   inkscape:pageopacity="0"
   inkscape:pagecheckerboard="0"
   showgrid="false"
   inkscape:zoom="0.50381358"
   inkscape:cx="1752.6324"
   inkscape:cy="1106.5601"
   inkscape:window-width="1920"
   inkscape:window-height="1060"
   inkscape:window-x="0"
   inkscape:window-y="20"
   inkscape:window-maximized="1"
   inkscape:current-layer="Layer_1" />
<style
   type="text/css"
   id="style2">
	.st0{fill:#1793D1;}
	.st1{fill:#FFFFFF;fill-opacity:0.1657;}
	.st2{fill:url(#SVGID_1_);}
</style>
<rect
   style="fill:#24283b;stroke-width:5.46313"
   id="rect5602"
   width="3840"
   height="2160"
   x="-3875.3428"
   y="-7.5773382"
   transform="scale(-1,1)" />
<path
   style="fill:#ff9e64;fill-opacity:1;stroke:none;stroke-width:1.4829"
   d="m 1920,635.13106 c -245.6944,0 -444.8689,199.17465 -444.8689,444.86894 0,245.6943 199.1746,444.8689 444.8689,444.8689 245.6943,0 444.869,-199.1746 444.869,-444.8689 0,-245.69429 -199.1747,-444.86894 -444.869,-444.86894 z m 0,37.07241 c 186.7966,0 344.2602,125.59911 392.5504,296.95007 -41.5925,85.78886 -100.7756,163.02926 -172.8502,225.44646 -34.6237,29.9846 -72.4258,56.7144 -114.183,75.535 -41.757,18.8208 -87.6867,29.4999 -133.4142,26.8775 -34.3558,-1.9702 -68.2941,-11.5403 -98.381,-28.2213 79.7356,-43.206 151.6794,-100.8123 210.5714,-169.7916 38.6555,-45.2766 72.476,-96.7322 85.4983,-154.82376 6.511,-29.0456 7.6144,-59.465 1.529,-88.60288 -6.0852,-29.13802 -19.5572,-56.90526 -39.9454,-78.59351 -19.9179,-21.18822 -46.0655,-36.19691 -74.0985,-43.93081 -28.033,-7.73404 -57.865,-8.33269 -86.4714,-3.10488 -57.2129,10.45575 -108.2937,43.70689 -149.2629,84.9885 -72.2139,72.76484 -116.8575,175.43728 -108.6684,277.62594 4.0946,51.0944 21.2171,101.3011 50.5574,143.3313 6.5494,9.3816 13.7493,18.3174 21.4558,26.7848 -42.7429,14.959 -86.9996,25.6071 -131.8851,31.6042 -38.5373,-62.2708 -60.7988,-135.6663 -60.7988,-214.2785 0,-225.21979 182.5767,-407.79653 407.7966,-407.79653 z m 2.5951,82.39344 c 28.6665,0.0385 57.5275,8.71721 80.4006,25.9971 20.6075,15.56819 35.8772,37.71658 44.5333,62.04988 8.6561,24.33329 10.8778,50.75791 7.9242,76.41558 -5.9066,51.31517 -31.7938,98.37533 -63.0694,139.48473 -55.3774,72.7895 -128.985,131.0486 -210.8493,171.8307 -8.3794,4.1743 -16.8917,8.1421 -25.441,11.9558 -17.813,-15.588 -33.0808,-34.0764 -44.7186,-54.6818 -24.3175,-43.0555 -32.3369,-94.2011 -27.6189,-143.4238 4.718,-49.22266 21.6099,-96.66286 44.3015,-140.5971 26.3099,-50.93986 62.1725,-99.19079 112.3757,-126.88032 25.1017,-13.84477 53.4953,-22.18962 82.1619,-22.15077 z m 401.5405,270.81389 c 2.3892,17.8578 3.661,36.0776 3.661,54.5892 0,225.2198 -182.5768,407.7965 -407.7966,407.7965 -126.4857,0 -239.5289,-57.5809 -314.3278,-147.9653 46.168,-10.4856 91.2915,-25.5471 134.5728,-44.7186 18.9274,14.4145 39.8303,26.2369 62.05,34.7554 63.9885,24.5316 136.6368,20.982 201.3959,-1.4366 64.759,-22.4186 122.1859,-62.6574 172.2476,-109.4563 59.6369,-55.7495 109.9184,-121.4598 148.1971,-193.5643 z"
   id="path2993"
   inkscape:connector-curvature="0" /></svg>
