<?xml version="1.0" encoding="UTF-8" standalone="no"?>
<!-- Generator: Adobe Illustrator 25.2.1, SVG Export Plug-In . SVG Version: 6.00 Build 0)  -->

<svg
   version="1.1"
   id="Layer_1"
   x="0px"
   y="0px"
   viewBox="0 0 3840 2160"
   style="enable-background:new 0 0 3840 2160;"
   xml:space="preserve"
   sodipodi:docname="fedora.svg"
   inkscape:version="1.1.1 (3bf5ae0d25, 2021-09-20)"
   xmlns:inkscape="http://www.inkscape.org/namespaces/inkscape"
   xmlns:sodipodi="http://sodipodi.sourceforge.net/DTD/sodipodi-0.dtd"
   xmlns="http://www.w3.org/2000/svg"
   xmlns:svg="http://www.w3.org/2000/svg"><defs
   id="defs924" /><sodipodi:namedview
   id="namedview922"
   pagecolor="#505050"
   bordercolor="#eeeeee"
   borderopacity="1"
   inkscape:pageshadow="0"
   inkscape:pageopacity="0"
   inkscape:pagecheckerboard="0"
   showgrid="false"
   inkscape:zoom="0.64"
   inkscape:cx="1885.9375"
   inkscape:cy="1046.0938"
   inkscape:window-width="1920"
   inkscape:window-height="1060"
   inkscape:window-x="1920"
   inkscape:window-y="20"
   inkscape:window-maximized="1"
   inkscape:current-layer="Layer_1" />
<style
   type="text/css"
   id="style911">
	.st0{fill:#294172;}
	.st1{fill:#3C6EB4;}
	.st2{fill:#FFFFFF;}
</style>
<rect
   style="fill:#24283b;stroke-width:5.46313"
   id="rect5602"
   width="3840"
   height="2160"
   x="0"
   y="0" /><g
   id="g919">
	<g
   id="logo">
		<path
   id="voice"
   class="st0"
   d="m 2440.6,1080 c 0,-287.5 -233.1,-520.6 -520.6,-520.6 -287.5,0 -520.6,232.7 -520.6,520.2 v 402.8 c 0,65.3 53.2,118.1 118.5,118.1 h 402.4 c 287.6,0.1 520.3,-233 520.3,-520.5"
   style="fill:#565f89;fill-opacity:1" />
		<path
   class="st1"
   d="m 2072.9,682.6 c -134.5,0 -244,109.5 -244,244 v 129.5 h -129.1 c -134.5,0 -244,109.5 -244,244 0,134.5 109.5,244.4 244,244.4 134.5,0 244,-109.5 244,-244.4 v -129.5 h 129.1 c 134.5,0 244.4,-109.5 244.4,-244.4 0,-134.9 -109.8,-243.6 -244.4,-243.6 z m -243.2,618 c 0,71.6 -58.3,129.8 -129.8,129.8 -71.5,0 -129.8,-58.3 -129.8,-129.8 0,-71.6 58.3,-129.8 129.8,-129.8 H 1829 v 0.4 h 0.8 c -0.1,-0.1 -0.1,129.4 -0.1,129.4 z m 243.2,-243.7 h -129.1 v -0.4 H 1943 V 926.7 c 0,-71.6 58.3,-129.8 129.8,-129.8 71.5,0 129.8,58.3 129.8,129.8 0,71.5 -58.1,130.2 -129.7,130.2 z"
   id="path914"
   style="fill:#7aa2f7;fill-opacity:1" />
		<path
   id="F"
   class="st2"
   d="m 2126.9,690.1 c -18.8,-5.1 -33.6,-7.4 -54,-7.4 -134.9,0 -244.4,109.5 -244.4,244.4 v 129.5 H 1726 c -32.1,0 -57.9,25 -57.5,57.1 0,31.7 25.4,56.7 57.1,56.7 h 84.9 c 10.2,0 18.4,8.2 18.4,18 v 112.2 c 0,71.2 -57.9,128.7 -129.1,128.7 -24.2,0 -30.1,-3.1 -46.5,-3.1 -34.4,0 -57.9,23.1 -57.9,55.1 0,26.2 22.7,48.9 50.1,56.3 18.8,5.1 33.6,7.4 54,7.4 134.9,0 244.4,-109.5 244.4,-244.4 v -129.5 h 102.5 c 32.1,0 57.9,-25 57.5,-57.1 0,-31.7 -25.4,-56.7 -57.1,-56.7 h -84.9 c -10.2,0 -18.4,-8.2 -18.4,-18 V 927.1 c 0,-71.2 57.9,-128.7 129.1,-128.7 24.2,0 30.1,3.1 46.5,3.1 34.4,0 57.9,-23.1 57.9,-55.1 0,-26.6 -22.3,-49.3 -50.1,-56.3 z" />
	</g>
	<path
   id="TM"
   class="st1"
   d="m 2351,1510.6 v -21.5 l -9.8,22.7 -9.8,-22.7 v 21.5 h -5.5 v -34 h 5.9 l 9.4,21.9 9.4,-21.9 h 5.9 v 34 z m -40.7,-28.5 v 28.6 h -5.9 v -28.6 h -9.8 v -5.9 h 25 v 5.9"
   style="fill:#7aa2f7;fill-opacity:1" />
</g>
</svg>
