<?xml version="1.0" encoding="UTF-8" standalone="no"?>
<!-- Generator: Adobe Illustrator 25.2.1, SVG Export Plug-In . SVG Version: 6.00 Build 0)  -->

<svg
   version="1.1"
   id="Layer_1"
   x="0px"
   y="0px"
   viewBox="0 0 3840 2160"
   style="enable-background:new 0 0 3840 2160;"
   xml:space="preserve"
   sodipodi:docname="freedo.svg"
   inkscape:version="1.1.1 (3bf5ae0d25, 2021-09-20)"
   xmlns:inkscape="http://www.inkscape.org/namespaces/inkscape"
   xmlns:sodipodi="http://sodipodi.sourceforge.net/DTD/sodipodi-0.dtd"
   xmlns="http://www.w3.org/2000/svg"
   xmlns:svg="http://www.w3.org/2000/svg"><defs
   id="defs1100" /><sodipodi:namedview
   id="namedview1098"
   pagecolor="#505050"
   bordercolor="#eeeeee"
   borderopacity="1"
   inkscape:pageshadow="0"
   inkscape:pageopacity="0"
   inkscape:pagecheckerboard="0"
   showgrid="false"
   inkscape:zoom="0.7125"
   inkscape:cx="2018.2456"
   inkscape:cy="1152.9825"
   inkscape:window-width="1920"
   inkscape:window-height="1060"
   inkscape:window-x="1920"
   inkscape:window-y="20"
   inkscape:window-maximized="1"
   inkscape:current-layer="group" />
<style
   type="text/css"
   id="style1052">
	.st0{fill:#FFFFFF;}
	.st1{fill:#A7D4FF;}
	.st2{fill:#B17020;}
	.st3{fill:#F8B44D;}
</style>
<rect
   style="fill:#24283b;stroke-width:5.46313"
   id="rect5602"
   width="3840"
   height="2160"
   x="0"
   y="0" /><g
   id="group">
	<path
   d="m 2143.3,1605.9 c -16.7,-6.2 -32.2,-14.4 -44.9,-27 -11,-10.8 -22.2,-21.8 -32,-33.9 -8.8,-11 -15.3,-23.7 -23.4,-35.6 -1.2,-2.1 -4.8,-3.8 -7.2,-3.6 -14.6,1.4 -29.2,4.1 -43.9,5.3 -20.8,1.5 -41.6,3.1 -62.4,2.8 -19.6,-0.3 -39.2,-3.4 -58.8,-5.3 -5.8,-0.5 -9.8,0.9 -14.3,6 -16,17.9 -33.7,34.4 -53.5,48.5 -21,15 -42.5,28.5 -67.2,35.9 -3.6,1 -7.2,2.1 -10.7,2.6 -12.9,1.5 -18.4,-3.8 -19.9,-19.9 -0.5,-6 -1.2,-12.2 -0.9,-18.2 0.3,-5.7 1.9,-11.4 2.8,-15.8 -16.2,0.3 -32.8,1 -49.4,0.9 -11.7,0 -16.9,-6.2 -16.7,-20.1 0.3,-12.4 2.1,-25.1 3.1,-38.7 -3.3,-1 -8.9,-2.1 -14.1,-4.1 -13.1,-5.5 -26.1,-11 -38.9,-17 -7.7,-3.8 -9.1,-15.1 -2.4,-20.1 15.1,-10.8 30.4,-21.8 46.3,-31.3 13.8,-8.1 28.5,-14.3 43.2,-21.7 -12.7,-19.1 -18.4,-40.9 -22.7,-62.9 -4.8,-24.1 -8.6,-48.3 -11.5,-72.4 -2.2,-18.9 -2.9,-38.2 -4.1,-56.6 -7.6,0 -15.8,0.3 -24.1,-0.2 -8.9,-0.5 -11.2,-8.1 -13.2,-15 -8.6,-28.9 -17,-57.8 -25.5,-86.9 -2.1,-7.2 -4.1,-14.6 -6.4,-22 -22,3.1 -43.3,3.4 -62.9,-7.9 -19.6,-11.2 -32.5,-37.5 -27.9,-60.7 4.8,-24.1 17.9,-42.5 37.3,-56.8 4.1,-3.1 9.3,-4.8 14.4,-7.6 -5.3,-17.9 -10.7,-36.1 -16,-54.7 -13.9,5.5 -27.2,10.8 -40.6,16.3 -3.4,1.4 -6.9,2.9 -10.3,4.3 -17.4,7.1 -31.8,0.7 -44.2,-10.7 -19.9,-18.4 -30.4,-42.7 -38.9,-67.9 -8.4,-25.6 -14.1,-51.8 -14.8,-78.9 -0.3,-16.2 -0.3,-32.2 4.6,-47.6 4.6,-14.4 12.4,-26.7 28,-30.8 11.9,-2.9 24.4,-4.1 36.5,-6.2 3.8,-0.5 8.1,-0.3 11.7,-1.9 3.1,-1.2 6,-3.8 8.4,-6.4 8.4,-8.3 15.8,-18.1 25.5,-24.8 6.4,-4.6 15.7,-5.8 23.6,-7.1 16,-2.1 32.2,-3.6 48.5,-4.1 5.3,-0.3 11,2.1 15.8,4.5 18.9,9.3 32.3,24.6 43.7,42 19.4,29.6 32.3,61.7 37.1,96.8 1.7,12.4 3.3,24.9 2.8,37.3 -1.4,28.2 -8.3,54.5 -30.6,74.3 -3.4,2.9 -5.3,5.7 -3.6,10.7 3.4,9.6 6.2,19.3 9.5,30.1 18.4,-6.5 36.6,-12.6 54.5,-19.4 9.8,-3.8 19.3,-9.3 29.1,-13.2 14.4,-5.7 20.1,-18.1 24.4,-31.3 8.4,-26.5 17.5,-52.8 24.8,-79.6 5.5,-19.6 7.7,-40.2 12.7,-60 8.1,-31.6 19.3,-62.3 39,-88.7 15,-20.1 34.6,-35.3 55.4,-48.5 23,-14.1 48,-23.6 74.6,-26.1 31,-2.9 61.2,0.7 90.5,13.2 32.2,13.8 59.2,34.4 82.4,60 17.5,19.4 32.3,41.1 43.9,65.2 10,-18.9 26.7,-25.5 46.8,-25.3 10.8,0 20.3,5 28.4,12 15.3,13.2 25.3,30.4 33.2,49 2.6,6 4.6,12 7.2,18.1 0.5,1.2 2.2,2.1 3.8,2.9 20.3,12.2 38.2,27.3 53.1,45.9 15.8,19.3 32.5,37.7 47.3,57.8 16,21.8 30.6,45.1 45.2,67.9 7.2,11.5 13.1,23.9 19.6,35.8 0,4.3 0,8.6 0,12.9 -1.4,5.7 -1.5,11.7 -2.6,17.5 -4.6,25.8 -18.4,46.3 -36.1,64.7 -5,5.2 -8.9,11 -14.3,15.8 -4,3.8 -3.1,8.1 -1.7,12.6 4.6,15.3 8.4,30.8 10.8,46.8 2.1,13.6 2.6,27 -0.9,40.6 -3.8,15.3 -3.6,30.6 -0.3,45.9 2.6,12.9 -4.6,20.6 -17.9,18.2 -11.5,-2.1 -22.9,-4.3 -34.2,-7.7 -2.2,-0.7 -4.5,-1.9 -7.1,-1.2 -2.4,3.3 -2.2,7.2 -2.8,10.8 -2.9,26.5 -10.5,51.4 -24.9,74 -1.5,2.4 -2.9,4.8 -5,6.9 -7.1,7.2 -17.2,6.2 -22.5,-2.4 -2.8,-4.5 -5,-9.1 -6.7,-13.6 -3.4,19.9 -8.9,39.7 -17.5,58.3 -8.9,18.6 -21,35.1 -34.7,51.3 9.5,5.2 18.9,9.1 27.9,13.9 15.3,8.1 29.6,17.4 42.8,28.5 6.4,5.5 11.4,12.2 15,19.8 4.6,9.8 2.6,16.9 -7.4,21.8 -12,5.7 -24.8,9.8 -38.2,12.2 -3.3,0.5 -6.5,0.5 -9.5,2.4 -1.4,2.1 -0.5,3.8 0,5.5 4,14.4 2.8,28.7 -1.7,43 -2.9,9.5 -6.7,12.4 -16.7,12 -17,-0.5 -33.9,-2.9 -49.9,-8.6 -2.1,-0.7 -3.8,-2.1 -6.2,-1.7 -2.1,1 -2.1,3.1 -2.6,4.8 -3.3,12.9 -9.6,24.4 -15.7,36.1 -2.1,3.8 -4.5,6.7 -8.8,7.7 -3.8,-0.4 -7.6,-0.4 -11.4,-0.4 z"
   id="path1054"
   style="fill:#565f89;fill-opacity:1" />
	<path
   class="st0"
   d="m 1943.8,1493.1 c -51.1,-2.2 -101,-8.4 -149.3,-26 -22.5,-8.1 -37,-21 -43.5,-45.6 -11,-40.8 -21.5,-81.7 -26.1,-123.8 -3.6,-32.2 -5.2,-64.1 -2.6,-96.5 3.8,-47.3 13.1,-93 37,-134.8 28.9,-50.4 71.9,-79.8 129.8,-87 47.6,-5.8 92.5,0.5 132.4,29.1 33.9,24.1 55.9,57.4 71.4,95.3 12.6,31 19.9,63.1 23.4,96.5 7.4,72.9 -1.9,143.3 -31.8,210.3 -9.1,20.8 -21.8,39.4 -35.3,57.6 -8.6,11.5 -20.1,15.1 -33,16.7 -24.2,3.3 -48.1,5.6 -72.4,8.2 z"
   id="path1056"
   style="fill:#d5d6db;fill-opacity:1" />
	<path
   class="st1"
   d="m 2378.4,1044.7 c -11.7,-17.4 -23.4,-34.1 -34.7,-51.1 -35.8,-53.5 -70.2,-108.2 -98.2,-166.3 -8.8,-18.2 -10,-38.5 -7.6,-58.6 0.7,-5.5 3.8,-8.4 10,-6.9 15.7,3.8 29.6,11.5 40.9,22.2 52.6,49.7 94.6,107.7 129,171.5 2.9,5.3 3.6,10.1 2.2,16.2 -6.7,32.1 -17.8,52.4 -41.6,73 z"
   id="path1058"
   style="fill:#2ac3de;fill-opacity:1" />
	<path
   class="st2"
   d="m 1593.3,1074.8 c 5.7,-3.1 11.5,-5.3 16.5,-8.9 18.4,-13.6 16.2,-38 7.6,-53 -9.5,-16.7 -24.4,-23.6 -42.7,-24.1 -5.7,-0.2 -7.7,-2.1 -9.1,-7.2 -8.9,-30.8 -18.2,-61.6 -27.5,-92.4 -1.5,-5 -0.3,-7.7 4.6,-8.9 1.4,-0.3 2.6,-1.2 4,-1.4 14.1,-3.1 20.8,-11.5 23.4,-26.3 7.4,-43 6,-85 -11.2,-125.5 -8.1,-19.3 -19.4,-36.5 -35.8,-50.2 -10,-8.4 -21.2,-14.4 -35.3,-15 6.4,-6.2 13.4,-4.5 20.1,-3.3 18.4,3.3 31.8,14.6 42.3,29.6 19.3,27.2 28.7,58.3 33,91.1 2.2,17.7 2.9,35.6 -1.2,53.3 -1.7,7.2 1.7,12 8.1,13.8 5.7,1.4 12.2,-1.9 13.2,-8.8 2.1,-13.6 4.5,-27.3 4,-40.9 -1,-27.5 -6.7,-54.3 -16.7,-80 -9.1,-23.6 -21.8,-45.1 -41.1,-61.9 -0.9,-0.7 -2.1,-1.2 -4,-2.1 7.4,-3.6 12.4,-2.1 17.5,0.9 15.7,8.9 26.1,22.7 35.3,37.8 20.8,34.9 33.7,72.6 32.5,113.9 -0.7,27 -8.3,51.1 -32.7,67.1 -6,4 -5.3,10 -3.4,16 10.5,35.1 21,70.3 31.3,105.4 8.4,28.5 16.7,57.1 25.8,85.5 3.1,9.8 -0.3,18.4 -1.4,27.3 -2.6,22.5 -5.7,44.9 -8.1,67.2 -0.5,5.2 -1.9,7.2 -7.2,7.1 -13.2,-0.3 -10.3,1.9 -13.9,-10 -9.1,-30.4 -17.9,-60.7 -26.8,-91.1 -0.7,-2.1 -0.9,-3.6 -1.1,-5 z"
   id="path1060"
   style="fill:#f7768e;fill-opacity:1" />
	<path
   class="st3"
   d="m 2064.1,1499.4 c 27,-6.9 52.1,-15.8 76,-28.2 20.8,-10.7 40.4,-23.4 57.6,-39.2 4.8,-4.6 9.1,-5.3 15,-2.1 20.1,11.5 40.6,22.7 60.7,34.2 3.8,2.1 6.7,5.8 10.8,9.6 -16.2,6 -31.8,9.5 -48.2,7.9 -6.4,-0.5 -12.2,-1 -15.8,5.2 -3.3,5.8 -0.5,10.7 3.1,15.7 7.9,10.1 11.7,21.5 10,34.7 -0.5,4.8 -2.4,5.8 -6.9,5.3 -16.9,-1.9 -33,-6.7 -48,-14.8 -13.6,-7.2 -20.5,-2.9 -21,12.6 -0.5,15 -6.2,28 -13.6,41.8 -36.2,-18.2 -60,-47.9 -79.7,-82.7 z"
   id="path1062"
   style="fill:#e0af68;fill-opacity:1" />
	<path
   class="st3"
   d="m 1727.8,1578.4 c -2.6,-11.5 -0.3,-20.8 2.9,-30.1 1.2,-3.8 3.8,-7.2 4.3,-11.4 0.7,-4.5 1.5,-10.3 -0.5,-13.2 -2.1,-2.9 -8.4,-4 -12.6,-3.6 -13.4,1.4 -26.7,4.3 -40.1,6 -5.5,0.7 -11.4,0.2 -17.5,0.2 -2.2,-12.6 0.5,-24.1 6.4,-34.9 1.2,-2.2 2.8,-4.5 4,-6.7 4.6,-8.8 -0.3,-17.5 -10.3,-17.2 -16.9,0.3 -31.1,-3.1 -47,-11.9 1.5,-1.2 2.8,-2.6 4.1,-3.6 20.1,-14.1 41.8,-25.3 64.7,-34.4 4.6,-1.9 6.9,-0.5 10,2.9 12.6,13.6 24.9,27.5 38.4,40.2 22.7,21.5 52.6,27.5 81.2,36.3 6.4,2.1 13.2,3.4 21.3,5.5 -31.7,32.5 -65.8,59.7 -109.3,75.9 z"
   id="path1064"
   style="fill:#e0af68;fill-opacity:1" />
	<path
   class="st1"
   d="m 1538.1,969.4 c 2.6,7.9 4.6,15 7.2,21.8 1.4,3.8 0.3,5.5 -2.9,7.4 -2.9,2.1 -6.5,4.6 -7.4,7.9 -0.9,3.1 0.2,8.4 2.2,10.3 2.9,2.2 8.1,3.1 11.7,2.4 5.3,-1 10.1,-4 15.1,-6 17,-6.9 33.4,1.7 37.3,19.6 1.5,7.4 -1.2,15 -7.7,17.4 -20.3,7.2 -41.4,11.7 -62.9,6.7 -22.7,-5.2 -34.4,-24.8 -27.9,-47.3 4.8,-16.7 14.4,-30.4 30.4,-38.7 1.7,-0.7 3,-0.8 4.9,-1.5 z"
   id="path1066"
   style="fill:#2ac3de;fill-opacity:1" />
	<path
   class="st1"
   d="m 1714.4,916.2 c -5.5,12.4 -10.8,23.7 -15.8,35.6 -5.8,14.1 -12.4,27.9 -16.7,42.5 -3.3,11 -9.6,15.8 -20.1,17.7 -5.5,1.2 -8.1,0.3 -9.6,-5.5 -5.3,-19.3 -11.4,-38.2 -16.7,-57.3 -0.5,-1.9 1,-5.8 2.4,-6.4 24.4,-9.1 49,-18.1 73.4,-27 0.5,-0.3 1.1,-0.1 3.1,0.4 z"
   id="path1068"
   style="fill:#2ac3de;fill-opacity:1" />
	<g
   id="g1088"
   style="fill:#d5d6db;fill-opacity:1">
		<path
   class="st0"
   d="m 1471.1,839.7 c -2.8,14.6 -4.8,29.4 -8.1,43.9 -1.9,8.1 -10.5,11.9 -17.4,7.4 -7.4,-4.6 -14.8,-10.7 -19.8,-17.7 -16.9,-23.4 -25.3,-50.4 -31.3,-78.1 -4.6,-21.8 -8.1,-44.2 -4.5,-66.4 1,-6.4 2.8,-12.4 4.6,-18.4 4.1,-13.2 22.7,-17 32.5,-6.4 11.7,13.1 19.4,28 25.3,44.2 10.7,29.6 16.7,59.8 16.7,91.3 0.6,-0.1 1.1,0 2,0.2 z"
   id="path1070"
   style="fill:#d5d6db;fill-opacity:1" />
		<path
   class="st0"
   d="m 1468.5,783.3 c -2.1,-7.9 -3.8,-14.8 -5.7,-22.4 10,-2.1 19.8,-3.8 29.6,-5.7 15,-2.8 29.9,-5 44.9,-8.1 4.6,-1 6.4,0.3 7.4,4.6 1.2,5 2.8,10 4.3,16 -26.9,5.3 -53.2,10.3 -80.5,15.6 z"
   id="path1072"
   style="fill:#d5d6db;fill-opacity:1" />
		<path
   class="st0"
   d="m 1541.1,740.6 c -27,4.8 -53.5,9.8 -80,14.6 -2.6,-7.1 -5,-13.4 -7.7,-20.8 15,-2.8 29.6,-5.5 43.9,-8.1 9.8,-1.7 19.6,-3.6 29.4,-5 2.1,-0.3 5.2,0.9 6,2.4 3,5.2 5.3,10.9 8.4,16.9 z"
   id="path1074"
   style="fill:#d5d6db;fill-opacity:1" />
		<path
   class="st0"
   d="m 1549.8,773.3 c 0.9,7.1 1.4,12.9 2.1,19.4 -26.3,5.8 -52.1,11.5 -78.9,17.5 -1.2,-7.4 -2.2,-14.3 -3.4,-21.7 27.1,-5 53.2,-10 80.2,-15.2 z"
   id="path1076"
   style="fill:#d5d6db;fill-opacity:1" />
		<path
   class="st0"
   d="m 1551.9,798.6 c 0,6 0.3,10.7 -0.2,15.3 -0.2,1.2 -2.1,3.1 -3.6,3.6 -24.4,6.4 -48.7,12.4 -73.4,18.7 -0.3,-6.9 -0.5,-13.2 -0.9,-20.3 25.8,-5.6 51.4,-11.3 78.1,-17.3 z"
   id="path1078"
   style="fill:#d5d6db;fill-opacity:1" />
		<path
   class="st0"
   d="m 1441,710.9 c 23.6,-4 45.9,-8.1 68.3,-11.5 2.9,-0.3 6.9,1.2 9.1,3.3 3.6,3.3 6.2,7.7 9.8,12.6 -26.3,4.6 -51.6,9.1 -77.2,13.8 -3.2,-5.7 -6.4,-11.5 -10,-18.2 z"
   id="path1080"
   style="fill:#d5d6db;fill-opacity:1" />
		<path
   class="st0"
   d="m 1474.9,860.7 c -0.3,-0.5 -0.3,-0.7 -0.3,-1 -0.3,-17.2 -0.3,-17.2 16.5,-21.5 19.9,-5 39.9,-10.1 59.7,-15.3 2.1,11.4 -0.2,15 -10.3,18.1 -19.9,6.2 -39.9,12.2 -59.7,18.4 -2,0.4 -4.1,0.6 -5.9,1.3 z"
   id="path1082"
   style="fill:#d5d6db;fill-opacity:1" />
		<path
   class="st0"
   d="m 1468.7,885.6 c 1.2,-5.8 2.1,-10.5 3.6,-15 0.5,-1.7 2.2,-3.8 3.8,-4.1 23.9,-7.6 47.8,-15 72.1,-22.4 0.7,7.9 -2.6,11.5 -9.8,14.3 -22,8.1 -43.7,17.2 -65.5,25.8 -1,0.4 -2,0.7 -4.2,1.4 z"
   id="path1084"
   style="fill:#d5d6db;fill-opacity:1" />
		<path
   class="st0"
   d="m 1426.4,695.2 c 20.8,-3.6 40.8,-6.7 60.7,-10.3 8.6,-1.5 14.3,2.9 21.5,8.6 -8.6,1.5 -15.8,2.9 -23.2,4.1 -13.1,2.2 -26.1,4.5 -39.2,6.9 -5.5,1 -10.7,1.9 -14.1,-4 -1.3,-1.8 -3.5,-3.2 -5.7,-5.3 z"
   id="path1086"
   style="fill:#d5d6db;fill-opacity:1" />
	</g>
	<path
   class="st1"
   d="m 1727.3,1425.3 c -8.9,-11.9 -17.9,-23.7 -26.5,-35.8 -14.8,-20.5 -19.6,-44.4 -24.9,-68.3 -9.1,-41.3 -14.1,-82.9 -13.2,-125.2 1.7,-75.2 19.3,-146.9 47.8,-216.4 15.3,-37.3 31.8,-74.1 46.1,-112 10.5,-27.5 19.1,-55.5 27,-83.9 6.5,-24.2 9.8,-49.2 16.5,-73.3 6.4,-23.6 15,-46.8 30.8,-66.2 27.3,-33.7 61.7,-56.9 104.9,-65.4 50.2,-9.8 93.9,6.4 133.1,36.5 34.2,26.3 58.6,60.7 76.7,99.7 1.2,2.9 1.5,6.9 0.5,9.8 -7.6,24.8 -12,50.6 -9.3,76 4.6,42.8 11.5,85.5 28.7,125.7 1.2,2.9 1.4,7.1 0.3,9.8 -9.6,28.9 -7.1,56.1 10.5,81.5 22.7,33.2 29.8,70.5 27,110.1 -0.7,10.8 -2.4,21.8 -2.8,32.7 -0.5,28.4 11,51.9 29.6,72.7 8.3,9.1 16.3,18.6 24.8,27.7 5.7,6.2 1.9,13.1 1.2,19.1 -2.9,22.7 -7.9,44.9 -17.9,65.5 -10.8,22.4 -26.1,41.4 -43.3,58.8 -33.9,33.9 -75,55.2 -122.1,69.5 6.9,-10.7 13.2,-20.1 18.7,-29.8 21.2,-37.1 34.2,-77 41.6,-118.8 5.8,-32.2 8.4,-64.7 6.9,-97.3 -2.9,-65.5 -16.9,-128.1 -54.2,-183.3 -29.4,-43.5 -68.8,-74 -120.9,-84.3 -61.2,-12.2 -119.5,-4.1 -170.9,33.4 -34.7,25.3 -56.9,60.4 -71.7,99.9 -11.2,29.9 -18.2,60.9 -20.1,92.9 -1.4,22 -3.3,44.2 -2.4,66.4 2.1,57.1 11.7,113.2 29.1,167.7 0.3,0.9 0.3,1.7 0.5,2.8 -0.7,0.9 -1.4,1.3 -2.1,1.8 z m 95.3,-529.5 c 1.4,14.1 10.5,20.5 22.7,23.7 19.3,5.3 38.5,3.8 57.8,-0.7 34.9,-8.3 65.9,-24.4 92.2,-48.7 21.2,-19.4 37.1,-42.5 34.7,-73.3 -1.9,-23.6 -12.2,-42.1 -33.5,-53.5 -30.6,-16.5 -62.9,-16.7 -96.3,-10.3 -22.9,4.5 -40.9,15.7 -55,33.9 -19.6,25.3 -27,54.3 -27.3,93 1.1,7.3 3.5,21.6 4.7,35.9 z M 1883.8,703 c 2.4,10.7 8.4,15.7 18.4,15 9.6,-0.7 17.9,-8.9 19.3,-18.1 1.9,-11.5 4.8,-23 7.1,-34.7 0.7,-3.6 1.2,-7.6 0.3,-11 -1.9,-8.1 -7.9,-12.6 -15.8,-13.4 -8.1,-0.9 -15,2.2 -19.3,9.5 -7.6,12.4 -11,26.1 -11.5,40.8 0.3,4 0.7,7.9 1.5,11.9 z m 81.7,-0.7 c 0.7,10.3 7.2,16.9 16.7,16.9 10.1,0 19.6,-8.8 21,-17.7 1.5,-10.8 3.8,-21.8 6.7,-32.5 3.3,-11.5 0.5,-21.2 -8.9,-25.5 -9.5,-4.3 -20.8,-0.3 -26.1,9.5 -6.9,12 -9.8,25.1 -10.1,39.7 0,2.5 0.5,6.2 0.7,9.6 z"
   id="path1090"
   style="fill:#2ac3de;fill-opacity:1" />
	<path
   class="st0"
   d="m 2248.8,738.9 c -22.7,1.4 -33.5,12.9 -33.7,35.8 -0.2,24.8 3.1,48.8 15,71.5 34.1,66 74.6,128 115.6,189.9 8.6,12.9 13.2,28.7 17.7,43.9 5.7,19.8 9.5,40.1 13.6,60.4 1,4.6 0.3,9.8 -0.3,15 -1.9,16.2 -3.8,32.3 -6,49.5 -4.8,-1.2 -11,-2.4 -16.9,-4.1 -39.9,-11.5 -61.2,-47.5 -64.3,-81.5 -0.5,-6.2 -0.2,-12.4 0,-18.4 0.2,-7.7 -3.6,-12.7 -9.8,-13.2 -7.2,-0.5 -10.8,2.4 -11.9,10.8 -4.3,36.8 7.2,68.3 31.5,95.6 1.2,1.2 2.1,2.6 3.6,3.6 9.8,6.7 12.6,15.5 11.2,27.5 -2.1,17.9 -8.8,45.7 -15.3,56.2 -19.1,-22.5 -38.9,-45.1 -57.6,-68.6 -15,-18.4 -21.2,-39.9 -17.9,-64 7.2,-51.3 0.5,-99.9 -29.6,-143.8 -13.4,-19.6 -14.4,-40.8 -6.4,-62.4 2.9,-8.1 2.6,-15.1 -1,-23 -13.2,-29.9 -19.6,-61.7 -24.4,-93.9 -2.6,-17.2 -4.5,-34.2 -2.9,-51.8 2.2,-25.5 7.9,-49.7 22,-71.4 7.6,-11.5 23.7,-15.5 34.9,-7.6 5.2,3.6 10,8.1 13.6,13.4 6.9,9.3 12.6,19.4 19.3,30.6 z m 16.8,238.2 c -15,-21.8 -29.2,-43.9 -32.2,-71 -0.9,-8.1 -6.5,-12.6 -12.6,-11.5 -7.1,1.4 -9.3,6.9 -8.1,15.5 3.3,25.3 15,47.1 28.5,68.1 2.9,4.6 6,9.1 9.3,13.4 3.3,4.3 8.3,5.5 12.7,3.4 3.1,-1.4 5.2,-5.3 7.9,-8.4 -2.2,-4.2 -3.8,-6.9 -5.5,-9.5 z m 10.5,65.4 c -1.7,-7.9 -2.9,-15.8 -5.3,-23.4 -2.1,-6.5 -7.6,-9.1 -13.2,-7.4 -5.3,1.7 -7.9,7.1 -6.7,13.2 1.4,7.9 2.9,15.8 4,23.7 0.7,5.5 5.3,10.1 10.3,9.8 5.5,-0.5 9.3,-3.6 10,-9.3 0.3,-2.1 0,-4.3 0,-6.4 0.4,-0.1 0.6,-0.1 0.9,-0.2 z"
   id="path1092"
   style="fill:#d5d6db;fill-opacity:1" />
	<path
   class="st3"
   d="m 1936.6,747.5 c 14.1,3.4 28.7,6.4 42.5,10.7 27.7,8.8 38,42.3 25.3,66.4 -11.7,22.4 -29.8,38.2 -50.7,50.9 -23.6,14.4 -49.2,24.1 -76.7,26.7 -7.2,0.7 -14.8,-0.5 -22,-1.4 -7.7,-0.9 -11.4,-5.3 -12.6,-13.2 -4.6,-27.3 -5.3,-54.3 4.5,-81 5.5,-14.4 13.8,-27 25.1,-37.8 13.2,-12.6 30.4,-15 47.3,-17.7 5.5,-0.9 11.4,-1.2 17,-1.7 0,-0.8 0.1,-1.4 0.3,-1.9 z"
   id="path1094"
   style="fill:#e0af68;fill-opacity:1" />
</g>
</svg>
