<?xml version="1.0" encoding="UTF-8" standalone="no"?>
<!-- Generator: Adobe Illustrator 25.2.1, SVG Export Plug-In . SVG Version: 6.00 Build 0)  -->

<svg
   version="1.1"
   id="Layer_1"
   x="0px"
   y="0px"
   viewBox="0 0 3840 2160"
   style="enable-background:new 0 0 3840 2160;"
   xml:space="preserve"
   sodipodi:docname="gentoo.svg"
   inkscape:version="1.1.1 (3bf5ae0d25, 2021-09-20)"
   xmlns:inkscape="http://www.inkscape.org/namespaces/inkscape"
   xmlns:sodipodi="http://sodipodi.sourceforge.net/DTD/sodipodi-0.dtd"
   xmlns:xlink="http://www.w3.org/1999/xlink"
   xmlns="http://www.w3.org/2000/svg"
   xmlns:svg="http://www.w3.org/2000/svg"><defs
   id="defs19"><linearGradient
     id="vlpa"><stop
       style="stop-opacity:.4592"
       offset="0"
       id="stop936" /><stop
       style="stop-color:#9999e6"
       offset="1"
       id="stop938" /></linearGradient><radialGradient
     id="vlpd"
     cx="240.2"
     cy="350.8"
     r="303.3"
     gradientTransform="matrix(0.691,1.012,-0.8154,0.557,374.4,-116.5)"
     gradientUnits="userSpaceOnUse"><stop
       style="stop-color:#fff"
       offset="0"
       id="stop941" /><stop
       style="stop-color:#fff"
       offset=".4866"
       id="stop943" /><stop
       style="stop-color:#d9d9f6"
       offset=".5931"
       id="stop945" /><stop
       style="stop-color:#adadeb"
       offset="1"
       id="stop947" /></radialGradient><radialGradient
     id="vlpc"
     cx="402.9"
     cy="273.5"
     r="77.79"
     gradientTransform="scale(1.095,0.9133)"
     gradientUnits="userSpaceOnUse"><stop
       style="stop-color:#fff"
       offset="0"
       id="stop950" /><stop
       style="stop-color:#fff"
       offset=".3036"
       id="stop952" /><stop
       style="stop-color:#e6e6f9"
       offset=".6071"
       id="stop954" /><stop
       style="stop-color:#9999e6"
       offset="1"
       id="stop956" /></radialGradient><linearGradient
     id="vlph"
     x1="192.6"
     x2="234.9"
     y1="404.7"
     y2="331.9"
     gradientTransform="scale(1.083,0.9232)"
     gradientUnits="userSpaceOnUse"
     xlink:href="#vlpa" /><linearGradient
     id="vlpg"
     x1="188.6"
     x2="450.4"
     y1="785.1"
     y2="519.5"
     gradientTransform="scale(1.348,0.7417)"
     gradientUnits="userSpaceOnUse"
     xlink:href="#vlpa" /><linearGradient
     id="vlpf"
     x1="508.2"
     x2="271"
     y1="428.6"
     y2="659.8"
     gradientTransform="scale(1.201,0.8329)"
     gradientUnits="userSpaceOnUse"><stop
       style="stop-color:#fff"
       offset="0"
       id="stop961" /><stop
       style="stop-color:#fff;stop-opacity:0"
       offset="1"
       id="stop963" /></linearGradient><filter
     id="vlpi"
     x="-0.010179231"
     y="-0.014611368"
     width="1.0203585"
     height="1.0292227"><feGaussianBlur
       stdDeviation="1.3094535"
       id="feGaussianBlur966" /></filter><linearGradient
     id="vlpe"
     x1="354.2"
     x2="314.4"
     y1="83.33"
     y2="322.3"
     gradientUnits="userSpaceOnUse"><stop
       style="stop-color:#7b7bdf"
       offset="0"
       id="stop969" /><stop
       style="stop-color:#a6a6e9"
       offset="1"
       id="stop971" /></linearGradient><radialGradient
     id="vlpb"
     cx="364.3"
     cy="341"
     r="35.68"
     gradientTransform="matrix(1.504,-0.05645,0.04112,1.095,-156.9,-46.75)"
     gradientUnits="userSpaceOnUse"><stop
       offset="0"
       id="stop974" /><stop
       style="stop-color:#9999e6"
       offset="1"
       id="stop976" /></radialGradient></defs><sodipodi:namedview
   id="namedview17"
   pagecolor="#505050"
   bordercolor="#eeeeee"
   borderopacity="1"
   inkscape:pageshadow="0"
   inkscape:pageopacity="0"
   inkscape:pagecheckerboard="0"
   showgrid="false"
   inkscape:zoom="0.35625"
   inkscape:cx="2461.7544"
   inkscape:cy="1082.1053"
   inkscape:window-width="1920"
   inkscape:window-height="1060"
   inkscape:window-x="0"
   inkscape:window-y="20"
   inkscape:window-maximized="1"
   inkscape:current-layer="Layer_1" />
<style
   type="text/css"
   id="style2">
	.st0{fill:#1793D1;}
	.st1{fill:#FFFFFF;fill-opacity:0.1657;}
	.st2{fill:url(#SVGID_1_);}
</style>
<rect
   style="fill:#24283b;stroke-width:5.46313"
   id="rect5602"
   width="3840"
   height="2160"
   x="-3840"
   y="0"
   transform="scale(-1,1)" />
<g
   transform="matrix(2.011658,0,0,2.011658,1076.2883,296.00067)"
   id="g1001"><path
     d="m 196.3,489.8 c 0,0 -18.67,23.07 -12.08,61.51 6.59,38.44 26.36,57.66 26.36,57.66 0,0 27.46,28.01 65.35,30.2 37.89,2.197 76.89,-15.38 76.89,-15.38 0,0 67,-30.75 101,-51.07 34.05,-20.32 81.28,-52.17 120.8,-87.32 39.54,-35.15 62.06,-67 62.06,-67 0,0 18.12,-26.91 19.22,-44.48 1.098,-17.57 -6.041,-36.8 -17.57,-57.66 -11.53,-20.87 -48.33,-68.65 -96.66,-105.4 -48.33,-36.8 -107.6,-66.45 -159.3,-70.3 -51.62,-3.844 -88.97,17.02 -110.4,31.85 -21.42,14.83 -61.51,49.98 -74.14,87.87 -12.69,38.06 -7.139,65.9 23.61,91.16 30.75,25.26 72.49,45.03 72.49,45.03 l -97.75,93.36 z"
     style="display:inline;fill:#1a1b26;fill-opacity:1;fill-rule:evenodd"
     id="path983" /><path
     d="m 294.7,165 c -40.55,22.33 -70.77,56.56 -80.79,77.7 -20.59,43.39 -18.71,64.44 3.844,91.71 17.12,20.7 79.63,53.27 79.63,53.27 0,0 -53.82,47.23 -74.69,67 -20.87,19.77 -37.34,48.33 -26.36,92.26 10.98,43.93 45.03,59.31 45.03,59.31 0,0 44.48,26.36 110.4,-2.197 65.9,-28.56 114.8,-59.31 114.8,-59.31 0,0 97.2,-66.45 123.6,-97.2 26.36,-30.75 62.06,-60.96 45.58,-110.4 -16.48,-49.43 -90.07,-115.3 -90.07,-115.3 0,0 -73.33,-56.1 -126.2,-69.85 -57.24,-14.89 -105.6,2.44 -124.8,13.01 z"
     style="display:inline;fill:#bb9af7;fill-opacity:1;fill-rule:evenodd;stroke:#000000;stroke-width:2.485;stroke-linecap:round;stroke-linejoin:round"
     id="path985" /><path
     d="m 339.1,358.5 c 0,0 -20.87,24.71 -42.84,43.93 -21.97,19.22 -30.45,27.98 -53.16,51.18 -13.18,13.46 -24.44,27.47 -27.58,53.73 -2.285,19.14 2.289,37.47 15.01,48.23 12.721,10.76 30.22,20.97 65.18,14.27 40.72,-7.807 71.54,-24.71 71.54,-24.71 0,0 92.89,-47 142.9,-84.89 49.98,-37.89 100.6,-94.62 100.6,-94.62 0,0 17.53,-11.52 -1.565,-46.21 -19.54,-35.5 -76.95,-85.97 -96.72,-100.3 -19.77,-14.28 -82.76,-65.52 -138.2,-63.87 -55.44,1.65 -91.71,28.56 -91.71,28.56 -11.53,9.885 -51.62,39.27 -60.96,64.25 -9.405,25.17 -4.943,45.58 13.18,58.76 18.12,13.18 75.79,37.34 75.79,37.34 z"
     style="fill:#24283b;fill-opacity:1;fill-rule:evenodd"
     id="path987" /><path
     d="m 370.4,305.8 c 0,0 31.3,26.91 59.86,24.71 28.56,-2.197 30.75,-19.77 30.75,-19.77 0,0 6.59,-23.07 -10.43,-41.74 -17.02,-18.67 -41.74,-32.95 -62.06,-32.4 -20.32,0.5492 -39.54,20.32 -38.99,36.25 0.5492,15.93 20.87,32.95 20.87,32.95 z"
     style="fill:#bb9af7;fill-opacity:1;fill-rule:evenodd"
     id="path989" /><path
     transform="translate(172.8,130)"
     d="m 227.8,167.6 c -4.822,0 -9.519,0.6888 -12.28,1.188 10.74,7.478 24.44,12.75 32.62,11.34 3.176,-0.5457 5.845,-1.242 8.094,-2.125 -5.276,-3.068 -14.9,-8.321 -21.19,-9.719 -2.25,-0.5 -4.766,-0.6875 -7.25,-0.6875 z"
     style="color:#000000;fill:#24283b;fill-opacity:1"
     id="path999" /></g></svg>
