<?xml version="1.0" encoding="UTF-8" standalone="no"?>
<!-- Generator: Adobe Illustrator 25.2.1, SVG Export Plug-In . SVG Version: 6.00 Build 0)  -->

<svg
   version="1.1"
   id="Layer_1"
   x="0px"
   y="0px"
   viewBox="0 0 3840 2160"
   style="enable-background:new 0 0 3840 2160;"
   xml:space="preserve"
   sodipodi:docname="gnu-and-freedo.svg"
   inkscape:version="1.1.1 (3bf5ae0d25, 2021-09-20)"
   xmlns:inkscape="http://www.inkscape.org/namespaces/inkscape"
   xmlns:sodipodi="http://sodipodi.sourceforge.net/DTD/sodipodi-0.dtd"
   xmlns="http://www.w3.org/2000/svg"
   xmlns:svg="http://www.w3.org/2000/svg"><defs
   id="defs1210" /><sodipodi:namedview
   id="namedview1208"
   pagecolor="#505050"
   bordercolor="#eeeeee"
   borderopacity="1"
   inkscape:pageshadow="0"
   inkscape:pageopacity="0"
   inkscape:pagecheckerboard="0"
   showgrid="false"
   inkscape:zoom="0.45254834"
   inkscape:cx="1898.1398"
   inkscape:cy="1041.8776"
   inkscape:window-width="1920"
   inkscape:window-height="1060"
   inkscape:window-x="1920"
   inkscape:window-y="20"
   inkscape:window-maximized="1"
   inkscape:current-layer="freedo" />
<style
   type="text/css"
   id="style1159">
	.st0{fill:#444D5E;}
	.st1{fill:#D7DDE8;}
	.st2{fill:#87BFCF;}
	.st3{fill:#CD866F;}
	.st4{fill:#E9C98A;}
	.st5{fill:#4C566A;}
</style>
<rect
   style="fill:#24283b;stroke-width:5.46313"
   id="rect5602"
   width="3840"
   height="2160"
   x="0"
   y="0" /><g
   id="g1205">
	<g
   id="freedo">
		<path
   class="st0"
   d="m 2761.1,1604.7 c -15.9,-5.9 -30.5,-13.8 -42.7,-25.6 -10.5,-10.4 -21.1,-20.7 -30.4,-32.3 -8.3,-10.5 -14.6,-22.6 -22.2,-33.8 -1.2,-1.9 -4.6,-3.7 -6.8,-3.4 -13.9,1.4 -27.8,4 -41.7,5 -19.8,1.5 -39.7,3 -59.4,2.6 -18.7,-0.4 -37.3,-3.3 -56,-5 -5.6,-0.5 -9.3,0.8 -13.6,5.7 -15.3,17 -32,32.7 -50.8,46.1 -19.9,14.2 -40.3,27.1 -64,34.2 -3.4,1 -6.8,2 -10.2,2.5 -12.3,1.5 -17.4,-3.7 -18.9,-18.9 -0.5,-5.7 -1.2,-11.6 -0.8,-17.3 0.3,-5.5 1.8,-10.8 2.6,-15.1 -15.4,0.3 -31.2,1 -47,0.8 -11.2,0 -16.1,-5.9 -15.8,-19.2 0.3,-11.9 1.9,-23.8 3,-36.8 -3.1,-1 -8.4,-1.9 -13.4,-4 -12.4,-5.2 -24.8,-10.5 -36.9,-16.2 -7.4,-3.5 -8.7,-14.4 -2.3,-19.1 14.4,-10.4 28.9,-20.7 44,-29.7 13.1,-7.8 27.1,-13.6 41,-20.6 -12.1,-18.1 -17.4,-39 -21.5,-60 -4.6,-22.9 -8.2,-45.9 -11,-68.9 -2.2,-18 -2.7,-36.2 -4,-53.8 -7.2,0 -15.1,0.4 -22.9,-0.1 -8.6,-0.5 -10.6,-7.6 -12.5,-14.3 -8.2,-27.5 -16.2,-55.1 -24.3,-82.6 -2,-6.9 -4,-13.9 -6,-21 -21,3 -41.2,3.3 -60,-7.5 -18.7,-10.6 -30.9,-35.7 -26.4,-57.8 4.6,-22.9 17,-40.3 35.4,-54 4,-3 8.9,-4.6 13.8,-7.2 -5,-17 -10.1,-34.3 -15.3,-52.1 -13.2,5.3 -25.9,10.4 -38.6,15.5 -3.3,1.4 -6.5,2.7 -9.8,4.1 -16.5,6.7 -30.3,0.7 -42.1,-10.1 -18.9,-17.6 -29,-40.6 -36.9,-64.6 -8,-24.4 -13.5,-49.2 -14,-75.1 -0.4,-15.4 -0.3,-30.7 4.4,-45.4 4.4,-13.6 11.7,-25.3 26.6,-29.2 11.3,-2.9 23.2,-4 34.7,-5.9 3.7,-0.5 7.8,-0.4 11.2,-1.8 3,-1.2 5.7,-3.7 8,-6 8,-7.9 15.1,-17.2 24.3,-23.6 6.1,-4.4 14.9,-5.6 22.5,-6.7 15.3,-2 30.7,-3.4 46.1,-4 5,-0.3 10.5,1.9 15.1,4.2 18,8.9 30.8,23.4 41.6,39.9 18.5,28.1 30.8,58.7 35.3,92.1 1.6,11.7 3.1,23.7 2.6,35.4 -1.4,26.8 -7.9,51.9 -29.2,70.7 -3.3,2.9 -5,5.5 -3.4,10.2 3.3,9.1 5.9,18.4 9,28.6 17.6,-6.3 34.9,-12 51.9,-18.5 9.4,-3.7 18.3,-8.9 27.7,-12.7 13.8,-5.5 19.1,-17.2 23.2,-29.8 8,-25.2 16.6,-50.3 23.6,-75.8 5.2,-18.7 7.4,-38.3 12.1,-57.1 7.6,-30.1 18.3,-59.3 37.2,-84.3 14.3,-19.1 32.8,-33.5 52.7,-46.1 21.7,-13.6 45.4,-22.6 70.7,-24.9 29.4,-2.7 58.3,0.7 86,12.7 30.5,13.1 56.3,32.7 78.4,57.1 16.8,18.4 30.8,39 41.8,61.9 9.5,-18 25.3,-24.3 44.4,-24.1 10.4,0 19.3,4.8 27,11.4 14.6,12.7 24,29 31.6,46.6 2.5,5.7 4.5,11.4 6.9,17.2 0.5,1.2 2.2,2 3.5,2.9 19.3,11.6 36.2,26 50.6,43.6 15,18.4 30.9,35.8 45,54.9 15.3,20.8 29.2,42.8 43.1,64.6 6.9,10.9 12.4,22.8 18.7,34.1 0,4.1 0,8.2 0,12.3 -1.4,5.5 -1.5,11.2 -2.5,16.6 -4.4,24.5 -17.6,44 -34.3,61.5 -4.8,4.9 -8.6,10.5 -13.6,15.1 -3.8,3.5 -3,7.8 -1.6,12 4.5,14.6 8,29.3 10.4,44.4 2,12.9 2.5,25.8 -0.8,38.6 -3.5,14.6 -3.4,29.2 -0.4,43.7 2.5,12.3 -4.5,19.6 -17,17.3 -10.9,-2 -21.8,-4.1 -32.6,-7.4 -2.2,-0.7 -4.2,-1.8 -6.7,-1.2 -2.3,3.1 -2.2,6.8 -2.6,10.4 -2.9,25.2 -9.9,48.9 -23.7,70.3 -1.5,2.3 -2.9,4.6 -4.8,6.5 -6.7,6.8 -16.4,5.9 -21.4,-2.3 -2.6,-4.2 -4.8,-8.7 -6.4,-12.9 -3.3,18.9 -8.4,37.7 -16.8,55.5 -8.4,17.7 -20,33.4 -33,48.8 9,4.9 18,8.7 26.6,13.2 14.6,7.6 28.2,16.5 40.7,27.1 6.1,5.2 10.8,11.6 14.3,18.8 4.5,9.4 2.5,16.1 -7.1,20.7 -11.4,5.5 -23.6,9.3 -36.2,11.6 -3.1,0.5 -6.3,0.5 -9,2.3 -1.4,1.9 -0.5,3.7 0,5.3 3.8,13.8 2.6,27.4 -1.6,40.9 -2.9,9 -6.4,11.9 -15.9,11.4 -16.2,-0.5 -32.2,-2.7 -47.4,-8.2 -1.9,-0.7 -3.7,-1.9 -5.9,-1.6 -2,1 -2,3 -2.5,4.6 -3.1,12.3 -9.1,23.2 -14.9,34.3 -1.9,3.5 -4.2,6.4 -8.3,7.4 -4.3,0.4 -7.8,0.4 -11.5,0.4 z"
   id="path1161"
   style="fill:#565f89;fill-opacity:1" />
		<path
   class="st1"
   d="m 2571.3,1497.3 c -48.6,-2.2 -96.1,-8 -142,-24.7 -21.4,-7.8 -35.2,-20 -41.4,-43.3 -10.5,-38.8 -20.4,-77.7 -24.9,-117.7 -3.4,-30.5 -4.9,-61 -2.5,-91.7 3.5,-45 12.4,-88.6 35.2,-128.2 27.5,-48 68.4,-75.9 123.6,-82.7 45.4,-5.6 88,0.5 126,27.7 32.2,22.9 53.1,54.6 67.9,90.6 12,29.4 18.9,60.1 22.2,91.7 7.1,69.4 -1.8,136.3 -30.3,200.2 -8.7,19.8 -20.7,37.5 -33.5,54.8 -8.2,10.9 -19.2,14.4 -31.5,15.9 -22.9,2.9 -45.8,5.1 -68.8,7.4 z"
   id="path1163"
   style="fill:#d5d6db;fill-opacity:1" />
		<path
   class="st2"
   d="m 2984.7,1070.8 c -11.2,-16.5 -22.2,-32.4 -33,-48.6 -34.1,-51 -66.8,-102.9 -93.5,-158.2 -8.3,-17.3 -9.5,-36.7 -7.2,-55.7 0.7,-5.2 3.7,-8 9.5,-6.5 14.9,3.5 28.1,10.9 39,21.1 50.1,47.3 89.9,102.5 122.6,163.1 2.7,5 3.4,9.7 2.2,15.4 -6.3,30.6 -17,49.8 -39.6,69.4 z"
   id="path1165"
   style="fill:#2ac3de;fill-opacity:1" />
		<path
   class="st3"
   d="m 2237.8,1099.6 c 5.5,-3 11,-5 15.7,-8.4 17.4,-12.9 15.4,-36.1 7.2,-50.4 -9,-15.8 -23.2,-22.5 -40.6,-22.9 -5.5,-0.1 -7.4,-2 -8.7,-6.8 -8.6,-29.3 -17.3,-58.6 -26.2,-87.9 -1.5,-4.8 -0.3,-7.4 4.4,-8.6 1.4,-0.4 2.5,-1.1 3.8,-1.4 13.5,-3 19.8,-10.9 22.2,-25.1 7.1,-40.9 5.7,-80.8 -10.6,-119.4 -7.8,-18.4 -18.5,-34.7 -34.1,-47.8 -9.5,-8 -20.2,-13.8 -33.5,-14.3 6.1,-5.9 12.8,-4.2 19.1,-3.1 17.6,3.1 30.3,13.9 40.2,28.1 18.4,25.9 27.4,55.5 31.3,86.7 2.2,16.9 2.7,33.8 -1.2,50.7 -1.6,6.8 1.6,11.4 7.6,13.1 5.5,1.4 11.6,-1.8 12.5,-8.3 1.9,-12.9 4.2,-26 3.8,-39 -1,-26.2 -6.4,-51.6 -15.9,-76 -8.7,-22.5 -20.7,-42.9 -39.1,-58.9 -0.8,-0.7 -2,-1.1 -3.8,-1.9 7.1,-3.4 11.9,-2 16.8,0.8 14.9,8.6 24.9,21.7 33.5,36 19.8,33.2 32,69.1 30.9,108.3 -0.7,25.8 -7.9,48.6 -31.1,63.8 -5.7,3.8 -5,9.5 -3.3,15.3 9.9,33.4 19.9,66.9 29.8,100.3 8,27.1 15.8,54.4 24.5,81.3 3,9.3 -0.3,17.4 -1.4,26 -2.5,21.4 -5.5,42.7 -7.6,64 -0.5,4.9 -1.8,6.8 -6.8,6.7 -12.7,-0.3 -9.8,1.8 -13.2,-9.5 -8.7,-28.9 -17,-57.8 -25.5,-86.7 -0.3,-2 -0.4,-3.5 -0.7,-4.7 z"
   id="path1167"
   style="fill:#f7768e;fill-opacity:1" />
		<path
   class="st4"
   d="m 2685.7,1503.4 c 25.6,-6.5 49.6,-15.1 72.4,-26.8 19.8,-10.2 38.4,-22.2 54.8,-37.3 4.6,-4.4 8.7,-5 14.2,-1.9 19.2,10.9 38.6,21.5 57.8,32.6 3.7,2 6.4,5.6 10.4,9.1 -15.4,5.7 -30.3,9 -45.8,7.5 -6,-0.5 -11.6,-1 -15,4.9 -3.1,5.6 -0.5,10.2 3,14.9 7.5,9.7 11.2,20.4 9.5,33 -0.5,4.6 -2.3,5.6 -6.5,5 -16.1,-1.8 -31.3,-6.4 -45.6,-14 -12.9,-6.9 -19.5,-2.7 -20,12 -0.5,14.2 -5.9,26.7 -12.9,39.8 -35,-17.4 -57.5,-45.6 -76.3,-78.8 z"
   id="path1169"
   style="fill:#e0af68;fill-opacity:1" />
		<path
   class="st4"
   d="m 2365.8,1578.5 c -2.5,-10.9 -0.3,-19.8 2.7,-28.6 1.2,-3.7 3.5,-6.9 4.1,-10.8 0.7,-4.2 1.5,-9.8 -0.5,-12.5 -2,-2.7 -8,-3.8 -12,-3.4 -12.8,1.4 -25.3,4.1 -38.2,5.7 -5.3,0.7 -10.8,0.1 -16.6,0.1 -2.2,-12 0.5,-22.9 6.1,-33.2 1.2,-2.2 2.6,-4.2 3.8,-6.4 4.5,-8.3 -0.4,-16.6 -9.8,-16.4 -16.1,0.4 -29.6,-3 -44.7,-11.3 1.5,-1.2 2.6,-2.5 4,-3.4 19.2,-13.4 39.8,-24 61.6,-32.7 4.5,-1.8 6.5,-0.5 9.5,2.7 12,12.9 23.7,26.2 36.5,38.3 21.5,20.4 50,26.2 77.3,34.5 6.1,1.9 12.5,3.3 20.3,5.2 -30.3,31.1 -62.7,56.8 -104.1,72.2 z"
   id="path1171"
   style="fill:#e0af68;fill-opacity:1" />
		<path
   class="st2"
   d="m 2185.4,999.3 c 2.5,7.5 4.5,14.2 6.9,20.7 1.4,3.5 0.3,5.2 -2.7,7.1 -2.9,1.9 -6.3,4.5 -7.1,7.5 -0.8,3 0.1,8 2.2,9.8 2.7,2.2 7.6,3 11.2,2.3 5,-1 9.7,-3.8 14.4,-5.7 16.2,-6.5 31.7,1.6 35.4,18.7 1.5,7.1 -1.1,14.3 -7.4,16.5 -19.3,6.8 -39.4,11.2 -60,6.4 -21.7,-4.9 -32.7,-23.6 -26.6,-45 4.6,-15.9 13.8,-29 29,-36.8 1.5,-0.7 2.8,-1 4.7,-1.5 z"
   id="path1173"
   style="fill:#2ac3de;fill-opacity:1" />
		<path
   class="st2"
   d="m 2353,948.6 c -5.2,11.7 -10.4,22.6 -15,33.8 -5.6,13.4 -11.9,26.4 -15.9,40.3 -3.1,10.5 -9.1,15 -19.1,16.9 -5.2,1.1 -7.6,0.4 -9.1,-5.2 -5,-18.3 -10.8,-36.4 -15.9,-54.5 -0.5,-1.8 1,-5.6 2.3,-6.1 23.2,-8.7 46.6,-17.2 69.9,-25.6 0.3,-0.3 0.9,0 2.8,0.4 z"
   id="path1175"
   style="fill:#2ac3de;fill-opacity:1" />
		<g
   id="g1195"
   style="fill:#d5d6db;fill-opacity:1">
			<path
   class="st1"
   d="m 2121.5,875.8 c -2.6,13.9 -4.6,27.9 -7.8,41.7 -1.8,7.6 -9.9,11.3 -16.5,7.1 -7.1,-4.5 -14,-10.2 -18.8,-16.9 -16.1,-22.2 -24,-48 -29.7,-74.3 -4.5,-20.8 -7.6,-42 -4.2,-63.2 1,-6 2.6,-11.9 4.5,-17.6 4,-12.5 21.7,-16.2 30.9,-6 11.2,12.4 18.5,26.7 24,42.1 10.1,28.1 15.8,57 15.8,86.9 0.5,-0.1 1.1,0.1 1.8,0.2 z"
   id="path1177"
   style="fill:#d5d6db;fill-opacity:1" />
			<path
   class="st1"
   d="m 2119.2,822.1 c -1.9,-7.5 -3.5,-14 -5.5,-21.3 9.5,-1.9 18.8,-3.7 28.1,-5.5 14.2,-2.6 28.5,-4.8 42.7,-7.8 4.5,-1 6.1,0.3 7.1,4.4 1.1,4.8 2.6,9.5 4.1,15.3 -25.6,5.1 -50.7,9.9 -76.5,14.9 z"
   id="path1179"
   style="fill:#d5d6db;fill-opacity:1" />
			<path
   class="st1"
   d="m 2188.1,781.6 c -25.8,4.6 -50.8,9.3 -76,13.9 -2.5,-6.7 -4.8,-12.8 -7.4,-19.8 14.3,-2.6 28.1,-5.2 41.7,-7.6 9.3,-1.6 18.7,-3.4 27.9,-4.8 1.9,-0.3 4.9,0.8 5.7,2.3 3.1,4.9 5.2,10.2 8.1,16 z"
   id="path1181"
   style="fill:#d5d6db;fill-opacity:1" />
			<path
   class="st1"
   d="m 2196.5,812.7 c 0.8,6.7 1.4,12.3 2,18.5 -25.1,5.6 -49.6,11 -75.1,16.8 -1.1,-7.1 -2.2,-13.6 -3.3,-20.6 25.8,-5 50.7,-9.8 76.4,-14.7 z"
   id="path1183"
   style="fill:#d5d6db;fill-opacity:1" />
			<path
   class="st1"
   d="m 2198.5,836.7 c 0,5.7 0.3,10.2 -0.1,14.6 -0.1,1.2 -2,3 -3.4,3.4 -23.2,6 -46.3,11.9 -69.9,17.9 -0.3,-6.5 -0.5,-12.5 -0.8,-19.3 24.4,-5.4 48.8,-10.9 74.2,-16.6 z"
   id="path1185"
   style="fill:#d5d6db;fill-opacity:1" />
			<path
   class="st1"
   d="m 2092.9,753.3 c 22.3,-3.8 43.6,-7.6 65,-10.9 2.7,-0.4 6.5,1.2 8.7,3.1 3.4,3.1 5.9,7.4 9.4,12 -25.1,4.5 -49.1,8.7 -73.4,13.1 -3.2,-5.4 -6.2,-10.9 -9.7,-17.3 z"
   id="path1187"
   style="fill:#d5d6db;fill-opacity:1" />
			<path
   class="st1"
   d="m 2125.1,895.7 c -0.3,-0.5 -0.4,-0.7 -0.4,-1 -0.4,-16.4 -0.4,-16.4 15.7,-20.4 18.9,-4.8 37.9,-9.7 56.8,-14.6 1.9,10.8 -0.1,14.2 -9.8,17.2 -18.9,5.9 -37.9,11.6 -56.8,17.4 -1.8,0.6 -3.7,0.9 -5.5,1.4 z"
   id="path1189"
   style="fill:#d5d6db;fill-opacity:1" />
			<path
   class="st1"
   d="m 2119.3,919.5 c 1.2,-5.6 2,-9.9 3.4,-14.2 0.5,-1.6 2.2,-3.5 3.7,-4 22.8,-7.2 45.5,-14.2 68.5,-21.3 0.7,7.5 -2.5,11 -9.3,13.6 -21,7.8 -41.6,16.4 -62.4,24.5 -0.9,0.5 -1.9,0.8 -3.9,1.4 z"
   id="path1191"
   style="fill:#d5d6db;fill-opacity:1" />
			<path
   class="st1"
   d="m 2079,738.3 c 19.8,-3.4 38.8,-6.4 57.8,-9.8 8.2,-1.5 13.6,2.7 20.4,8.2 -8.2,1.5 -15.1,2.7 -22.1,4 -12.4,2.2 -24.8,4.2 -37.3,6.5 -5.2,1 -10.1,1.8 -13.5,-3.8 -1.1,-1.8 -3.2,-3 -5.3,-5.1 z"
   id="path1193"
   style="fill:#d5d6db;fill-opacity:1" />
		</g>
		<path
   class="st2"
   d="m 2365.4,1433 c -8.4,-11.3 -17,-22.6 -25.2,-34.1 -14,-19.5 -18.7,-42.2 -23.7,-65 -8.7,-39.2 -13.5,-78.9 -12.7,-119.1 1.6,-71.5 18.4,-139.8 45.5,-205.8 14.6,-35.6 30.3,-70.6 43.9,-106.6 9.9,-26.2 18.1,-52.9 25.6,-79.9 6.3,-23 9.4,-46.9 15.7,-69.8 6.1,-22.5 14.3,-44.6 29.3,-63 26,-32 58.7,-54.2 99.9,-62.1 47.8,-9.3 89.3,6 126.6,34.7 32.6,25.1 55.7,57.8 72.9,95 1.2,2.7 1.5,6.5 0.5,9.4 -7.2,23.6 -11.4,48.1 -8.9,72.4 4.4,40.7 10.9,81.3 27.3,119.6 1.2,2.7 1.4,6.7 0.4,9.4 -9.1,27.5 -6.7,53.3 9.9,77.5 21.7,31.6 28.3,67 25.8,104.7 -0.7,10.4 -2.3,20.7 -2.6,31.1 -0.5,27 10.5,49.5 28.1,69.2 7.9,8.7 15.5,17.7 23.6,26.3 5.5,5.9 1.8,12.4 1.1,18.1 -2.9,21.5 -7.5,42.7 -17,62.4 -10.4,21.3 -24.8,39.4 -41.3,56 -32.3,32.3 -71.3,52.6 -116.1,66.1 6.5,-10.2 12.5,-19.1 17.9,-28.3 20.2,-35.3 32.6,-73.3 39.7,-113.1 5.6,-30.7 8,-61.6 6.5,-92.5 -2.9,-62.3 -16.1,-121.8 -51.5,-174.4 -27.9,-41.4 -65.4,-70.3 -115,-80.1 -58.2,-11.6 -113.6,-4 -162.7,31.7 -33.1,24.1 -54.1,57.4 -68.3,95.1 -10.6,28.5 -17.3,57.9 -19.2,88.3 -1.4,21 -3.1,42.1 -2.3,63.1 1.9,54.4 11.2,107.6 27.7,159.6 0.3,0.8 0.4,1.6 0.5,2.6 -0.7,0.5 -1.4,0.9 -1.9,1.5 z M 2456,929.2 c 1.4,13.5 9.9,19.5 21.5,22.6 18.4,5 36.7,3.7 54.9,-0.7 33.2,-7.9 62.7,-23.3 87.8,-46.3 20.2,-18.5 35.3,-40.5 33.1,-69.8 -1.8,-22.3 -11.6,-40.1 -31.9,-51 -29.2,-15.7 -60,-15.9 -91.6,-9.8 -21.8,4.2 -39,14.9 -52.3,32.2 -18.7,24.1 -25.6,51.8 -26,88.4 1,7.2 3.3,20.8 4.5,34.4 z m 58.2,-183.5 c 2.3,10.2 8,14.9 17.4,14.2 9.1,-0.7 17,-8.4 18.4,-17.2 1.8,-11 4.6,-21.9 6.7,-33 0.7,-3.4 1.2,-7.2 0.4,-10.5 -1.8,-7.6 -7.5,-12 -15,-12.8 -7.6,-0.8 -14.3,2.2 -18.4,9 -7.2,11.9 -10.5,24.8 -11,38.7 0.4,4.1 0.7,7.9 1.5,11.6 z m 77.8,-0.6 c 0.7,9.8 6.9,16.1 15.8,16.1 9.7,0 18.7,-8.3 19.9,-16.9 1.5,-10.4 3.5,-20.8 6.4,-30.9 3.1,-11 0.5,-20.2 -8.4,-24.3 -9,-4.1 -19.8,-0.3 -24.9,9 -6.5,11.4 -9.3,23.8 -9.7,37.7 0.2,2.7 0.6,6.1 0.9,9.3 z"
   id="path1197"
   style="fill:#2ac3de;fill-opacity:1" />
		<path
   class="st1"
   d="m 2861.4,780 c -21.5,1.4 -31.9,12.3 -32,34.1 -0.1,23.6 3,46.5 14.3,68.1 32.4,62.8 71,121.7 110,180.6 8.2,12.3 12.7,27.3 16.9,41.7 5.5,18.8 9,38.2 12.9,57.4 1,4.5 0.3,9.4 -0.3,14.2 -1.8,15.4 -3.7,30.8 -5.7,47.1 -4.6,-1.1 -10.5,-2.3 -16.1,-4 -37.9,-10.9 -58.2,-45.1 -61.2,-77.5 -0.5,-5.9 -0.1,-11.7 0,-17.6 0.1,-7.4 -3.4,-12.1 -9.4,-12.5 -6.8,-0.5 -10.4,2.3 -11.3,10.4 -4.1,35 6.8,65 30,91 1.1,1.2 2,2.5 3.4,3.4 9.3,6.4 12,14.7 10.6,26.2 -1.9,17 -8.3,43.5 -14.6,53.6 -18.1,-21.4 -36.9,-42.9 -54.8,-65.3 -14.2,-17.6 -20.2,-37.9 -17,-60.9 6.8,-48.8 0.5,-95.1 -28.1,-136.8 -12.8,-18.7 -13.8,-38.8 -6,-59.4 2.9,-7.8 2.5,-14.4 -1,-21.9 -12.7,-28.5 -18.7,-58.7 -23.3,-89.4 -2.5,-16.4 -4.2,-32.6 -2.7,-49.3 2.2,-24.3 7.5,-47.3 21,-67.9 7.2,-10.9 22.6,-14.7 33.2,-7.2 4.9,3.4 9.5,7.8 12.9,12.8 6.6,8.7 11.9,18.5 18.3,29.1 z m 16.1,226.5 c -14.2,-20.7 -27.8,-41.7 -30.7,-67.6 -0.8,-7.6 -6.3,-12 -12,-10.9 -6.7,1.4 -8.9,6.5 -7.8,14.7 3.1,24.1 14.3,44.8 27.1,64.9 2.7,4.4 5.7,8.7 8.9,12.8 3.1,4.1 7.9,5.3 12.1,3.3 3,-1.4 4.9,-5 7.5,-8 -2.1,-4 -3.5,-6.8 -5.1,-9.2 z m 9.9,62.3 c -1.6,-7.5 -2.9,-15 -5,-22.2 -1.9,-6.3 -7.2,-8.7 -12.7,-7.1 -5,1.6 -7.5,6.7 -6.4,12.7 1.4,7.5 2.7,15 3.8,22.6 0.7,5.2 5,9.7 9.8,9.3 5.2,-0.5 8.9,-3.4 9.5,-8.9 0.3,-2 0,-4.1 0,-6.1 0.5,-0.2 0.7,-0.2 1,-0.3 z"
   id="path1199"
   style="fill:#d5d6db;fill-opacity:1" />
		<path
   class="st4"
   d="m 2564.5,788.1 c 13.5,3.3 27.3,6 40.5,10.1 26.3,8.3 36.1,40.2 24.1,63.1 -11.2,21.3 -28.3,36.2 -48.2,48.5 -22.5,13.8 -46.7,22.9 -73,25.3 -6.9,0.7 -14,-0.5 -21,-1.4 -7.4,-0.8 -10.8,-5 -12,-12.7 -4.4,-26 -5,-51.8 4.2,-77 5.2,-13.8 13.1,-25.8 23.8,-36 12.7,-12 28.9,-14.3 45,-16.9 5.3,-0.8 10.8,-1.1 16.2,-1.6 0.1,-0.4 0.2,-0.9 0.4,-1.4 z"
   id="path1201"
   style="fill:#e0af68;fill-opacity:1" />
	</g>
	
<path
   d="m 1013.8372,1151.6612 c -7.0568,0.3922 -16.46596,3.7246 -22.54265,14.8978 -5.09665,9.0171 -17.05404,10.5853 -22.54262,8.821 -9.21311,-3.1363 -21.17051,-5.0966 -32.5398,2.9403 -11.36941,8.233 -23.91491,1.9603 -21.56261,-12.9375 2.15631,-14.8976 7.4489,-28.2273 21.7586,-36.2642 31.16759,-17.838 9.4091,-30.3836 26.6591,-48.4177 17.05399,-18.0342 13.3296,-23.5228 12.7415,-48.0257 -57.8268,-8.625 -90.7587,-25.483 -127.41497,-71.1563 -36.85232,-46.0654 -50.96599,-83.70189 -54.69043,-141.13659 -3.72444,-57.43476 -0.58806,-94.48311 24.30686,-142.31273 24.89492,-47.82963 50.96593,-70.5683 96.24735,-94.48311 45.08529,-23.52277 89.38647,-29.40346 130.35527,-28.61937 40.9688,0.78409 68.216,3.72444 91.5428,16.85797 23.1307,13.13356 44.3012,29.79551 57.8268,29.99154 13.5256,0.19602 22.7386,-3.33239 29.2074,-8.42899 1.7642,44.49723 -38.2246,48.41768 -74.0968,49.3978 -35.8721,0.98011 -57.8267,-13.91764 -90.9546,-8.42899 -33.1279,5.48864 -86.83818,20.58243 -113.30128,66.2558 -26.46309,45.67336 -27.0512,62.13929 -24.895,100.55982 2.1563,38.42051 35.2842,67.03992 53.9064,67.43195 18.62221,0.39203 22.73857,-5.09666 39.20458,-15.68188 16.2699,-10.58524 99.7757,-113.88938 128.1991,-137.21613 28.4233,-23.13071 56.6506,-30.38357 86.8382,-30.77562 30.1875,-0.39203 38.0283,0.58808 62.5313,10.58526 24.5029,9.99717 39.4007,28.42333 59.199,39.79268 9.9972,-5.88071 16.2698,-14.70174 25.679,-21.56254 33.1279,-24.11083 50.1819,-30.77563 89.5824,-26.85517 22.5428,2.15627 51.1622,15.09379 68.02,29.79551 30.1877,26.26708 55.2786,62.92339 75.469,90.75867 15.6819,21.75855 34.3039,47.6336 60.7672,55.67053 28.8153,8.82107 50.5739,-28.61935 53.7103,-49.20177 1.7642,-11.76139 4.1164,-21.95458 4.1164,-34.89211 0,-12.93752 -1.3721,-28.61936 -5.0965,-42.14495 -3.7245,-13.52558 -10.1933,-26.85515 -17.0542,-38.02847 -11.1732,-18.03411 -29.5993,-37.04835 -48.8096,-46.8495 -10.7813,-5.48865 -36.0682,-15.48582 -51.9462,-15.68185 -19.6023,-0.39204 -34.5,6.07672 -52.5341,7.44887 -21.9547,1.5682 -60.9631,6.46876 -78.0172,-10.38922 -10.9772,-10.78126 -12.3494,-17.83809 -14.1137,-31.95175 4.9006,3.92046 11.5655,6.66478 17.6422,7.05682 13.7216,1.17615 26.4631,-9.99716 37.6364,-16.46592 9.0171,-5.29262 21.9545,-14.89775 33.9119,-19.60231 30.7757,-12.34945 68.4121,-11.9574 100.9519,-8.62501 26.0711,2.74432 59.7871,14.30968 82.5258,27.05118 22.9346,12.93752 45.0853,34.8921 61.1591,55.47452 20.3864,25.87504 31.5597,48.22167 38.8126,80.56546 9.4091,41.36087 11.9573,103.30415 0.5881,144.07696 -9.0171,32.14784 -38.8126,81.34954 -64.0996,105.46044 -25.0909,23.9147 -53.9063,35.2842 -86.8382,41.5568 1.3722,6.6648 1.5682,12.7415 3.1364,18.2301 2.3523,7.6449 7.0568,16.2701 16.4659,13.5256 3.7245,-1.1761 5.8807,-1.9602 10.7813,2.3524 4.9006,4.3125 2.3522,21.1705 -11.5654,28.8154 -7.0568,3.9204 -14.7017,4.7044 -26.071,4.9006 -11.3694,0.1959 -29.2075,0.1959 -41.557,-1.9604 -12.3494,-2.1562 -19.7982,-11.9574 -33.5199,-13.5256 -21.1704,-2.3522 -37.4404,-17.642 -54.2983,-28.6192 -7.0569,-4.5086 -9.4091,-4.7047 -13.5256,-6.8609 2.1562,6.6648 5.0965,13.7216 6.6647,20.1904 1.5682,6.4687 0.7841,12.5454 1.5682,17.642 0.784,5.0966 2.1563,9.2131 3.1364,13.5256 3.3324,2.9404 4.5085,7.6449 10.1932,9.0171 5.6847,1.3721 14.7017,-0.784 20.3864,-1.5682 5.6847,-0.784 9.8012,-3.9205 14.3096,-3.1364 4.5086,0.7841 8.8211,4.1165 12.7416,7.253 3.9204,3.1362 7.0568,3.5283 10.1932,11.1732 3.1363,7.6449 5.8806,23.3267 6.4686,33.9121 0.5882,10.5851 -0.7839,19.9942 -3.9204,28.2272 -3.1364,8.2331 -5.8807,11.9574 -14.3096,20.1905 -8.4291,8.2329 -22.1506,20.3863 -35.8722,28.8154 2.5483,3.7242 3.7244,7.0566 7.6449,11.1731 3.9204,4.1166 12.1533,8.625 15.6818,12.9375 3.7245,4.3125 5.4887,7.2529 5.4887,12.1535 0,4.7045 -0.1961,10.9773 -4.1166,16.2699 -9.605,12.9375 -21.1704,15.2898 -35.088,21.3664 2.3522,14.7018 4.3125,25.091 0.784,39.5967 -1.3721,5.8807 -4.5085,19.4063 -11.7613,22.9347 -7.253,3.5284 -21.5626,1.7642 -30.3836,3.1364 -9.0171,1.3721 -13.9177,2.7443 -20.9745,4.1165 -4.3126,6.0767 -10.5852,12.9375 -12.7415,18.4261 -2.1562,5.4888 -1.5681,7.4489 0.3921,13.1336 1.9602,5.6846 8.0368,13.7216 9.8011,20.3864 1.7642,6.6647 2.1563,13.7218 0.392,20.1903 -1.5682,6.6648 -4.5085,11.3694 -9.9971,17.2501 -5.6848,5.8808 -16.662,10.3892 -22.1506,15.2898 -5.4886,4.7046 -10.9773,5.2926 -9.4091,13.1338 2.1562,10.7811 17.8381,28.2272 29.2074,32.5397 6.8608,2.5482 16.0739,1.7641 24.3068,-1.7643 -0.588,9.2131 -8.6249,15.4858 -13.7215,21.5626 14.1136,-4.1165 27.8352,-11.7614 37.2444,-21.9546 -2.9404,8.8212 -13.1337,23.1306 -28.2274,35.6762 -15.0937,12.5455 -15.0937,9.9972 -22.5426,14.8978 13.7215,2.7443 26.4631,1.9602 37.0482,0.196 -5.8807,3.1365 -15.2897,7.6449 -28.0312,9.0171 -12.5454,1.3721 -20.3864,0.392 -31.7558,-2.3523 -11.3692,-2.7443 -21.7586,-13.1336 -35.6761,-20.1904 1.3721,5.0966 2.3523,11.3693 8.037,16.4659 5.6846,5.0966 14.5057,8.037 23.9148,12.5455 -11.9574,-1.3721 -24.3069,-1.7642 -36.0683,-4.3125 -8.6251,-1.9601 -14.5057,-3.9204 -20.7784,-7.0568 -6.2729,-3.1363 -11.1733,-7.6449 -16.858,-11.5654 2.7443,5.0966 3.5283,11.1733 8.0369,15.2898 4.5086,4.1165 11.9575,5.8807 18.0342,8.625 -6.2729,-0.1959 -12.3495,1.1762 -18.8183,-0.3921 -6.4688,-1.5681 -12.5455,-4.1165 -19.4062,-9.213 -6.8608,-5.0966 -13.7216,-11.1733 -19.4063,-17.446 -5.6848,-6.2728 -12.9375,-14.3098 -15.0938,-20.1904 -2.1563,-5.6846 1.3722,-9.8012 1.9602,-14.7017 -3.9204,2.5483 -8.821,4.1165 -11.9574,7.841 -3.1363,3.7243 -5.6847,7.2527 -4.5085,13.9175 1.3722,6.6648 7.4489,14.7017 11.7614,21.9547 -12.9376,-10.5854 -19.9945,-14.5058 -23.1307,-27.2473 -2.9404,-11.9574 4.5085,-22.7386 10.1931,-31.7557 2.7443,-4.5087 7.0568,-8.6251 9.6052,-12.9376 -5.8807,-5.6846 -12.5455,-10.5852 -17.446,-17.054 -4.9006,-6.4688 -7.0569,-15.2897 -12.1535,-21.5626 -5.0966,-6.2726 -11.9574,-10.1932 -17.8381,-15.2898 5.2925,11.1735 13.9177,25.091 15.6819,33.7161 1.9602,8.625 -2.1563,14.1136 -5.0967,18.8182 -3.1363,4.7045 -8.037,5.6846 -12.7414,8.6251 -4.7046,2.9402 -12.1536,0.5881 -14.8979,4.9006 -2.7443,4.3125 -3.5283,10.7811 -0.784,14.8976 l 10.9773,17.4461 c -4.1165,-1.9603 -11.1733,-8.037 -14.3097,-12.3495 -3.1363,-4.3125 -8.0369,-8.233 -8.625,-13.9176 -0.588,-5.6847 -0.9801,-10.7813 2.7443,-15.8778 3.7245,-5.0967 13.9177,-6.8609 18.4262,-10.7813 4.5085,-3.9204 7.0568,-6.4688 6.8608,-11.5654 -0.196,-5.0967 -5.2926,-8.6251 -9.4091,-11.9575 -12.9375,-9.8011 -29.7955,-18.8182 -40.7728,-30.5796 -6.2727,-6.6648 -9.2132,-11.9574 -10.5852,-16.6618 -1.1762,-4.5087 0,-8.2331 3.1363,-13.7217 3.1363,-5.6847 13.7217,-13.1336 15.0937,-19.2103 1.3723,-6.0767 -4.1164,-7.4489 -9.0169,-9.6051 -4.9006,-2.1563 -14.1137,1.1761 -18.6222,-2.7444 -4.5086,-3.7244 1.3721,-11.5653 -3.7245,-16.0738 -5.0966,-4.3125 -16.6619,-1.9603 -22.7386,-6.6648 -6.0768,-4.7046 -8.429,-10.3893 -10.5854,-17.25 -2.1561,-6.8609 -2.3522,-14.1137 -0.98,-19.0143 1.3722,-4.9005 5.6847,-5.6847 8.0368,-8.2331 2.3524,-2.5482 4.7047,-4.7044 1.3723,-8.4289 -3.3324,-3.7244 -14.5057,0.196 -20.7784,-4.7045 -6.2728,-4.9006 -2.5483,-16.466 -7.0569,-21.3666 -4.5086,-4.9005 -12.5454,-2.9402 -16.858,-4.5085 -4.3125,-1.5682 -5.8806,3.9205 -8.625,-4.7045 -2.5483,-8.8211 -2.7443,-34.8921 -6.2728,-44.4972 -3.5283,-9.6051 -10.3891,-0.5881 -13.5255,-10.3892 -3.1364,-9.6051 -0.196,-25.091 -1.5682,-39.7927 l -6.4687,-39.7927 c -22.7387,15.2898 -37.8325,20.1904 -62.3354,24.5029 -1.9602,59.983 -7.6449,95.2671 12.7414,161.719 20.3865,66.4519 61.5514,105.6565 117.0259,161.9151 -73.3126,-54.8865 -108.2047,-99.5798 -130.1594,-156.8185 -20.9744,-55.8666 -16.6619,-103.6962 -14.5056,-158.7787 z m 389.4978,-24.1107 c 5.6846,0.1959 12.5455,1.7642 16.4659,4.3124 3.9204,2.5483 8.2329,4.7045 11.7614,8.429 9.017,9.2131 15.6818,20.1904 18.6222,32.7358 1.9602,8.037 2.1562,18.4262 2.9402,27.8353 -2.7443,-8.821 -4.5084,-17.8381 -8.4289,-25.679 -6.0767,-12.3495 -16.4659,-24.5029 -29.4034,-29.9915 -4.3125,-1.7642 -7.0568,-1.5682 -9.4091,-1.1761 0.98,1.7641 2.7443,3.1364 2.9403,5.8807 0.196,2.7443 -0.588,7.6449 -4.9006,9.8012 -7.0568,3.3323 -14.8977,0.98 -20.1903,-3.7245 -5.4887,-4.9006 -7.253,-12.9376 -4.5087,-19.9944 3.3325,-8.821 16.4661,-8.821 24.111,-8.4289 z m -70.7643,-11.9574 c 0.784,-14.3098 5.8805,-26.4632 18.8181,-33.5201 6.6649,-3.7244 16.8581,-8.429 26.4632,-9.4091 9.017,-0.98 31.1676,-0.196 44.4972,5.6847 10.1932,4.7046 17.054,11.9574 26.0711,17.2501 9.0169,5.2925 15.2898,8.821 23.9148,14.7017 13.1335,9.2131 20.7784,19.2102 29.7955,25.0909 4.3124,2.9403 10.5852,2.5484 16.2698,4.3125 -4.5084,1.3722 -10.3892,2.7443 -15.2898,1.1761 -6.0766,-1.9602 -14.5056,-7.4488 -19.2102,-11.3693 -8.2329,-7.0568 -12.5454,-10.3892 -21.7585,-15.6818 -5.4887,-3.1364 -14.3097,-6.8607 -20.1904,-10.7813 -5.8807,-3.9205 -16.2699,-12.3494 -21.9547,-15.2898 -7.2527,-3.7243 -20.3863,-5.6847 -28.4232,-5.4886 -11.1733,0.392 -27.2472,2.1562 -35.8723,9.9972 -8.6249,7.8409 -11.7613,14.7018 -9.8011,24.6988 3.1364,-3.7244 5.2926,-8.429 8.625,-11.1733 6.6647,-5.6846 14.3096,-6.0767 22.7387,-4.9006 9.4091,1.1763 14.1137,6.6649 17.25,15.4859 -2.1562,-1.5682 -5.8807,-4.9006 -9.017,-5.8807 -7.0569,-2.3523 -12.5455,-1.7642 -19.0143,1.9603 -7.8409,4.1164 -5.6846,10.3891 -6.8609,17.446 -0.5879,3.1363 -1.7641,5.6846 -2.5482,8.6251 -2.9404,-0.7842 -5.6847,-1.9604 -7.841,-4.3126 0,3.1363 -0.3919,6.0767 0.1961,9.6051 0.5881,3.7244 2.3523,8.0369 3.7245,11.9574 -5.4888,-5.4886 -10.9774,-10.5852 -14.5057,-17.6421 -3.9205,-7.0568 -6.4688,-14.7017 -6.0767,-22.5425 z m 9.4091,-104.8724 c 4.1164,-5.8807 5.2926,-15.0938 7.6449,-22.5427 -0.9802,9.4091 0.9801,19.7984 -3.7245,26.6591 -4.7045,6.8608 -12.7415,5.6848 -19.4063,7.6449 5.2926,-3.9204 11.5654,-5.6846 15.4859,-11.7613 z m -96.2474,139.9604 c 5.0965,-4.1165 19.2102,-0.784 29.5994,0 -7.4487,1.9603 -14.8976,3.9205 -22.5425,5.6848 -0.7841,2.5482 -0.3921,5.4886 -2.1563,7.6449 -1.7642,2.1561 -4.9006,2.9402 -7.449,4.5084 0.3922,-6.6647 -2.5482,-13.7215 2.5484,-17.8381 z m 73.5087,-290.50611 c 6.2727,3.33235 14.1136,7.84092 19.6022,7.84092 5.4886,0 6.8609,-3.52845 10.1933,-5.68466 5.0965,16.66194 10.9773,34.89209 19.6023,49.78985 3.7244,6.2727 5.8807,3.3324 8.625,9.8011 2.7443,6.2727 3.9205,19.2104 6.6648,27.2472 2.5483,8.037 6.0766,14.1138 9.0171,21.1705 -7.6449,-10.7812 -17.6422,-24.6989 -21.7586,-33.716 -4.3125,-9.017 -1.5682,-9.8011 -4.9006,-18.4261 -3.3324,-8.625 -10.3892,-21.95458 -15.6818,-32.93187 -3.7245,0.58809 -8.4291,1.17609 -11.1734,0.39203 -2.7443,-0.78406 -2.3522,-3.92047 -4.9006,-5.88071 -2.5482,-1.96024 -6.8607,-1.17609 -10.5852,-4.31251 -3.5285,-3.33239 -4.3125,-9.60513 -4.7045,-15.28975 z m -33.52,81.93771 c 5.8806,-0.5882 13.1336,0.98 18.6222,0.784 5.4887,-0.1961 9.4091,-1.7641 14.1137,-2.5483 -0.7842,-8.233 0,-23.5228 -7.6449,-29.0114 -4.9006,-3.5284 -25.091,-0.7841 -30.5796,0.196 -12.1534,2.5483 -26.2671,9.8012 -38.0285,14.5057 11.3694,-7.8409 20.9745,-15.0938 34.5001,-19.2102 8.0369,-2.3523 27.0512,-5.6847 35.4801,-3.3324 3.9204,0.9801 4.5086,2.5483 6.8609,5.8807 8.0369,11.1732 8.0369,20.7784 9.9971,33.7159 1.9603,3.1364 4.1165,5.2926 5.8807,8.625 1.5682,3.3324 2.5483,8.4291 3.1364,12.5455 -2.1563,-2.9403 -0.7842,-6.8607 -6.6648,-9.017 -5.8807,-2.3524 -14.7017,-0.1961 -22.5426,0.5881 5.6846,4.1164 8.429,8.0368 8.8209,16.6618 0.1961,10.1932 -8.4289,17.4461 -17.446,18.2302 -12.5454,0.9802 -19.0142,-1.7641 -23.9148,-12.5455 -2.1563,-4.7045 -0.588,-10.3891 -0.7841,-14.8976 -15.0937,0.98 -14.7017,0.5879 -25.679,9.801 5.8806,8.8212 9.8012,13.7217 19.6023,19.0144 5.4887,2.9402 11.7614,5.8805 18.6222,6.8607 6.8608,1.1761 18.0341,2.3522 25.2869,1.1761 7.253,-1.1761 11.3693,-3.1364 16.6621,-8.0368 5.2926,-4.9007 5.8806,-11.9576 7.8409,-17.6422 -0.3921,5.2927 -1.1762,12.1534 -3.1364,16.074 -6.0767,11.9574 -16.6619,15.2898 -29.2074,15.4857 -11.9574,0 -26.8552,-2.7443 -38.2245,-7.4489 -9.0171,-3.7243 -23.7188,-14.3097 -27.2472,-23.3267 -2.3523,-6.2728 -0.5881,-13.9176 -0.7841,-20.7785 12.3494,-8.2329 15.4858,-6.2726 30.1875,-8.625 6.0767,-0.98 10.3893,-3.3324 16.2699,-3.7243 z m -72.3325,-55.86665 c 0.392,-4.90059 0.9802,-4.90059 1.3722,-7.25286 -11.3693,-2.94036 -15.8779,4.31251 -22.5426,17.83812 -2.5483,5.09659 0,8.03689 -2.7444,11.56539 -2.7443,3.3324 -6.8608,2.9403 -11.1733,6.0767 -4.3125,3.1363 -8.625,9.409 -12.5455,12.7414 -8.2329,6.8609 -19.4063,10.9773 -29.0114,15.6819 6.4688,-4.9006 19.2103,-12.1534 23.3268,-19.2102 2.1562,-3.7245 1.7642,-10.7813 5.2926,-14.1137 3.3323,-3.3324 4.5085,-5.6847 9.0171,-6.4687 4.3125,-0.7842 2.5483,-5.88076 4.1163,-9.99721 1.5683,-4.11654 4.3125,-6.86084 7.253,-10.97728 2.9403,-4.11654 6.8607,-10.19323 12.7415,-12.34953 5.8807,-2.1562 15.0938,0.19606 19.6023,-1.17608 4.5085,-1.17618 1.9602,-4.50857 5.0966,-6.46881 3.3324,-1.9602 9.6051,-1.17612 13.9176,-3.13635 7.6449,-3.72444 11.3694,-9.99718 16.0739,-16.46594 0.5881,14.30968 0.5881,24.50289 -4.7045,38.0285 -5.6847,15.09373 -11.5654,24.1108 -28.0313,33.3239 -5.6847,3.1364 -11.3694,4.3125 -15.878,6.0767 2.7443,-3.7245 6.6649,-5.2926 8.2331,-11.1733 1.3721,-6.0767 0.196,-17.64205 0.588,-22.54265 z m 264.8272,69.58825 c -7.8409,0.588 -9.6051,-0.5881 -15.878,3.9203 3.3325,5.2928 6.6649,10.5853 10.1933,15.8779 -0.3921,-10.5851 0.5881,-12.7414 5.6847,-19.7982 z m -20.5824,-7.6449 c 10.7811,-4.5086 20.1903,-8.2331 31.9516,-9.0172 4.7047,-0.392 11.9574,0.3921 16.858,0.5881 4.1166,-5.8807 9.2131,-10.5852 11.1734,-17.446 1.1762,-4.5085 0.5881,-25.48299 -1.5682,-30.97168 -6.4688,-15.87788 -12.7415,-16.46588 -21.5625,-25.48301 -6.4688,-6.66475 -6.6648,-16.66191 -8.625,-27.83524 -0.7841,-4.11647 -2.7443,-9.4091 -3.7245,-13.52559 -11.5653,-1.96023 -24.1109,-2.54829 -37.4404,-1.96023 6.4688,-6.27274 12.7414,-11.95739 14.7018,-21.17049 1.7642,-9.4091 0.392,-20.77844 -4.9006,-29.20743 -5.2926,-8.42899 -13.7216,-15.68184 -21.5626,-22.54264 -7.8409,-6.86082 -19.0143,-12.54548 -26.267,-18.03413 9.6051,-3.52842 19.4062,-8.42899 28.8154,-10.38922 24.5028,-4.70456 45.4773,2.54831 69.1961,16.85798 13.7215,8.23297 25.0908,16.26991 39.4006,31.16766 14.3097,15.09379 32.1478,42.537 46.0653,59.00294 13.9178,16.46595 25.0911,29.20743 37.2445,39.00863 12.1534,9.8011 23.1306,12.5454 34.6961,18.81814 l 18.0341,19.01431 14.5056,-18.03419 23.3268,2.74439 4.9005,-26.26716 21.5627,-5.88065 -3.5284,-35.48018 15.4858,-10.9773 -11.5654,-21.95457 11.7613,-24.11084 -15.4857,-27.63925 5.8807,-26.4631 -17.8381,-15.09378 -2.3523,-28.22732 -24.8949,-9.4091 -9.9973,-24.50288 -28.0312,-0.39206 -13.7216,-18.23013 -18.8182,1.37215 -20.9746,-2.35227 -11.7613,-8.82104 -17.25,11.36934 -20.9745,-10.78127 -41.3608,15.68185 27.0511,-23.52278 28.0314,-4.50852 21.3665,-5.48864 29.0114,9.4091 25.4829,-6.46876 24.5029,14.50571 26.071,-1.37217 12.7416,22.9347 25.875,2.94035 13.9177,25.48298 16.2699,8.82105 4.3125,32.53982 14.5056,13.72161 -6.2726,28.61938 17.0539,21.56252 -16.0738,23.13072 17.054,14.50571 -21.9546,19.40628 21.9546,23.32674 -26.6591,8.62501 17.446,24.69887 -21.7585,3.72451 14.3095,27.24717 -24.6988,-0.392 12.3495,20.3863 -27.0512,-3.3323 6.4688,29.4034 -20.3865,-18.0341 -7.0569,35.4801 -14.1136,-25.483 -7.6449,31.7558 -17.4461,-23.5228 0.3922,33.3239 -19.2103,-29.9915 c 4.1164,17.0541 3.3324,35.6762 14.5056,51.7501 34.6962,-4.7045 57.2389,-13.3296 83.898,-39.0085 24.1108,-23.3268 53.1221,-71.74454 60.9632,-102.52009 9.0169,-35.08816 9.213,-99.57974 0.3919,-135.45195 -8.4289,-34.50007 -19.4062,-50.76997 -39.2046,-78.99729 -18.8181,-19.99436 -37.2443,-40.96882 -61.1591,-55.2785 -35.0882,-20.97446 -79.9774,-26.46311 -119.7701,-26.07106 -22.1506,0.39203 -36.8523,4.50853 -50.182,9.4091 -23.1306,8.42899 -41.5568,26.65914 -65.0795,35.67619 -7.6449,2.94034 -13.7216,3.13638 -19.7985,-0.19602 5.8808,11.76139 12.3496,17.054 27.0513,21.36652 10.5853,3.13636 36.0683,1.17613 53.5142,-0.39206 18.8183,-1.7642 28.6195,-7.25284 54.1025,-7.05682 24.8949,0.39205 44.6932,9.80115 55.4745,16.07389 22.3466,12.74149 38.2244,26.85516 52.1421,49.3978 7.6449,12.34945 12.9376,26.26709 16.662,40.38076 3.7243,14.11365 5.4886,29.99151 5.6847,43.90915 0.1959,13.91764 -0.7841,26.26709 -4.1166,38.81256 -8.0369,29.20744 -25.4829,59.00298 -61.3551,54.49441 -21.9546,-2.74429 -55.2785,-44.10519 -66.2558,-59.39497 -22.3467,-30.57961 -45.4774,-64.49159 -73.7047,-89.97459 -16.858,-14.89774 -40.3807,-25.67902 -63.5116,-27.83526 -43.321,-3.92048 -56.2585,4.3125 -88.7983,31.16766 6.6647,2.15624 13.1335,3.33239 19.9943,6.27273 15.0938,6.8608 28.8154,15.68184 40.9689,26.85516 12.5454,11.76138 18.2301,19.21025 18.8182,36.26427 0.392,11.1733 -9.0171,20.19037 -17.4461,28.42333 -5.0967,4.90058 -11.9574,9.60513 -16.2699,13.32957 -5.4886,5.0966 -12.5455,10.78128 -5.4886,18.81821 2.5483,3.13637 7.2528,5.29263 10.9773,8.23294 6.0767,4.50857 3.3323,21.36656 -4.7046,25.87504 -10.3892,5.68475 -22.5426,5.09666 -31.1677,-2.54824 10.7813,-1.56821 17.4461,-2.94036 17.2501,-11.76143 -0.1961,-5.09657 -6.6648,-9.40907 -12.9376,-12.15337 -15.2898,-7.05687 -26.8551,-5.88073 -42.145,-16.85802 -15.4857,-11.17332 -15.6819,-17.05401 -19.7982,-34.50005 -7.449,0.78408 -14.3097,0.98012 -24.1109,4.3125 -9.9972,3.33239 -20.9744,11.17331 -29.7955,12.93753 -22.7386,4.90057 -27.2472,3.52841 -39.5966,0.19601 -21.7586,-5.68466 -50.3781,4.11649 -78.6053,13.13355 -4.7045,1.56819 -23.7188,0 -36.4604,4.50853 -19.7982,6.8608 -47.4374,23.71878 -63.5113,37.24439 -24.3069,20.38632 -56.2586,81.54552 -74.09668,151.91782 -1.96032,21.3665 4.11636,35.6762 -9.2131,46.0654 -13.5256,10.3893 -13.13361,37.0485 -17.6421,44.6934 -4.5085,7.4487 -9.8012,4.1163 -19.6023,14.7017 -9.80121,10.5851 -14.8978,8.8209 -14.5057,28.6193 8.429,-5.4887 20.77839,-11.9574 31.5597,-12.3494 9.6051,-0.3921 9.6051,12.3494 34.30401,-11.9574 13.13357,-12.9376 38.42057,-13.3297 56.06257,-19.2104 17.6421,-5.6846 49.2018,-17.642 80.7615,-52.9262 31.5597,-35.2841 46.8495,-72.7245 52.9261,-126.6309 0.9803,9.6052 2.7445,20.3865 -1.372,46.6535 -4.1165,26.2671 -12.9375,55.8667 5.6846,91.3468 l 11.5654,22.1507 c -6.8608,-9.4092 -20.3864,-24.699 -24.3068,-35.6763 l -9.4091,-25.2869 c -20.9745,32.7358 -25.6792,38.6164 -54.6905,62.1392 -1.1761,14.5057 -1.3721,29.7956 3.3324,43.7131 4.7046,13.9177 -2.7443,29.9916 0.7841,39.2046 3.5284,9.2131 11.9574,3.9205 14.7017,13.3296 2.7444,9.4091 -1.3721,27.6392 2.7444,36.8523 4.1164,9.2131 14.7017,3.5284 19.7983,6.4688 5.0966,2.9403 6.6647,6.8608 9.409,10.7812 2.7443,3.9205 -0.98,12.9375 4.5086,15.8779 5.4887,2.9403 14.1137,0.392 19.7983,3.3324 5.6847,2.9403 6.6648,9.6051 5.2927,15.8778 -1.3722,6.0767 -7.4489,9.0172 -10.1932,15.0938 -2.7444,6.2727 -2.3523,10.5852 0.7841,16.2699 3.1363,5.6847 10.3892,8.821 17.446,11.7614 7.0567,2.9404 17.054,1.1761 24.5029,5.2927 7.4488,4.1164 13.9176,11.9574 17.838,17.642 3.9206,5.6846 4.9007,9.8011 4.7046,15.8778 -0.196,6.0768 -2.7443,13.1336 -5.8807,19.0143 -3.1363,5.8807 -10.3892,12.9375 0.7841,24.1108 11.1734,11.1733 10.7813,6.2727 17.0541,13.7217 -0.7841,-12.5456 -5.8807,-22.7387 -2.1563,-32.3439 3.7244,-9.409 15.2898,-11.1732 21.1705,-15.2897 6.0767,-4.3125 9.409,-10.1933 14.1136,-15.0939 0,6.4689 0.5881,13.5256 -0.196,18.4262 -1.5682,9.9973 -4.5086,18.8183 10.3892,20.3864 6.6648,0.7841 12.9376,-3.5284 19.9944,-6.2726 -3.7244,6.6648 -9.9972,11.9574 -10.9774,19.7983 -0.98,7.8409 0.1961,16.4659 5.6848,24.307 5.4886,7.8408 14.8977,13.7215 21.7585,18.23 6.8607,4.5086 10.5853,4.9006 15.8779,7.4489 0.1959,7.841 -1.1761,15.8779 -0.3921,23.3268 0.7841,7.4488 3.1364,13.7216 7.4489,19.7983 4.3125,6.0767 10.9773,9.4091 17.4461,13.9177 -3.5284,-8.2329 -10.5854,-15.8778 -10.5854,-24.5029 0,-8.6251 2.7445,-14.7017 10.9774,-22.1507 8.429,-7.6448 27.8353,-14.1136 37.0484,-21.5625 9.2131,-7.4488 12.1534,-11.9574 15.4857,-19.0143 3.3325,-7.0568 2.3524,-18.8181 2.9404,-25.2869 2.9404,9.017 3.5285,11.7613 4.5086,21.3665 0.9801,9.4091 -5.4887,22.7386 -8.233,29.7955 11.3693,-5.4887 18.6222,-14.3096 22.3466,-22.9346 2.3522,1.3719 1.1762,5.4884 2.1563,13.1334 4.1165,-4.1165 8.625,-7.2527 12.7414,-10.9772 4.1166,-3.7245 8.6251,-7.2529 10.5853,-12.5456 1.9603,-5.2927 1.1762,-10.9772 -0.392,-17.25 -1.5682,-6.2727 -8.429,-13.3295 -12.1534,-20.1903 -3.7245,-6.8609 0.588,-13.3296 0.392,-21.5626 -7.4489,-1.372 -13.7216,-5.0965 -22.3467,-3.9204 -8.6249,1.1761 -18.4261,10.7813 -27.0511,10.9772 -8.625,0.1961 -13.7216,-8.0369 -20.7784,-10.3892 -7.057,-2.3523 -14.5058,-1.9602 -21.5626,-2.9402 9.2131,-8.8212 44.6933,-12.9376 68.804,-16.858 21.3666,-3.5285 42.5371,-5.4888 64.0996,-5.8808 9.6052,-0.196 22.1506,3.1363 28.8154,1.1761 6.6647,-1.9602 5.2927,-6.4688 7.2529,-11.5652 5.4886,-13.9178 2.7443,-26.2672 -0.196,-40.3809 -19.4063,-2.3522 -39.5968,-5.0966 -59.1991,-3.5284 -19.2102,1.5682 -41.7528,10.5853 -61.5511,11.1733 -17.2502,0.5881 -42.537,-3.3324 -57.2388,-12.3494 -18.0341,-10.9774 -31.9517,-34.5001 -36.8523,-42.145 -8.037,-12.3495 -18.2301,-36.4603 -24.307,-47.6335 -6.2726,-10.9774 -7.4487,-14.1136 -12.7414,-18.8183 -5.0966,-4.7045 -12.1534,-4.9006 -18.2302,-7.4489 7.0568,0.7842 14.7017,-1.568 20.9746,2.1563 9.6051,5.4886 20.3864,28.2273 26.267,38.2246 6.2728,-21.1705 4.9005,-29.5996 23.1308,-41.361 -14.7018,16.466 -15.0938,29.0114 -18.6222,48.4178 12.1534,20.1902 29.2073,52.142 51.5539,60.963 8.0371,3.1364 21.9547,5.2927 30.5797,6.2728 27.0511,3.3324 53.1222,-5.2926 79.7813,-11.7614 19.4064,-4.9006 39.2046,-2.9404 62.9235,-1.5681 8.037,0.392 27.0512,-4.3125 30.9717,-12.5456 2.1562,-4.3124 1.9602,-9.6051 -1.1762,-14.3097 -3.1363,-4.7044 -11.1734,-6.8608 -15.4859,-11.1732 -4.3125,-4.3126 -6.8607,-9.2131 -10.1931,-13.7217 -18.0341,3.5284 -32.9319,4.7046 -46.2614,5.0966 9.6051,-3.9203 18.8182,-6.2727 28.8154,-10.1931 9.9971,-3.9205 21.3665,-10.3892 29.4034,-15.6819 8.0369,-5.2925 13.3296,-8.429 19.0141,-14.7017 5.8807,-6.2727 13.3297,-12.5455 17.6422,-20.1904 4.3125,-7.6449 4.9006,-16.0738 5.2926,-25.483 0.1961,-9.4091 -0.1961,-22.5426 -3.7244,-30.1875 -3.5285,-7.6449 -10.5852,-9.8011 -16.2699,-11.5654 -5.6848,-1.7642 -9.4091,2.7443 -15.2898,3.3325 -5.8807,0.588 -11.3693,4.3125 -19.7983,0.392 -8.429,-3.9205 -18.4262,-11.9573 -27.0512,-24.1109 -8.625,-11.9574 -14.7017,-31.5597 -23.3268,-46.6535 -14.8978,-26.071 -33.7159,-50.1819 -51.554,-74.2926 -1.5682,-5.8808 -3.7245,-14.1137 -4.5085,-22.1507 -1.3722,-14.1137 -1.5682,-28.6193 2.7443,-42.34097 3.3324,-10.3892 8.2329,-21.56254 19.2102,-25.87505 4.3125,-1.76417 9.9971,-2.35226 13.9177,-0.98011 3.9204,1.37214 7.8409,5.88071 6.2727,10.97728 -1.7642,5.68474 -5.6847,5.68474 -8.233,8.62501 -4.5085,4.9006 -6.2727,8.42905 -8.037,14.30974 4.9006,0 11.3694,-0.3921 15.4859,0.588 5.2925,1.3722 9.9972,4.9006 12.7415,12.1535 -6.2727,-5.4887 -9.2131,-8.0369 -17.054,-8.233 -3.5285,0 -7.841,1.1762 -11.7614,1.7643 -1.5683,4.7045 -2.3522,10.5851 -4.3126,14.3096 -1.9601,3.7245 -6.0766,2.7443 -7.6448,7.0568 -1.9602,5.0966 -1.9602,12.1534 -1.3721,17.8382 z m 54.4944,-6.4688 c 2.3522,0.98 3.3324,1.1761 6.2726,3.5283 2.9405,2.3524 7.253,4.5087 9.6052,9.9973 2.3522,5.4887 2.3522,13.9176 1.7641,17.4461 -2.1562,-0.5881 -4.9005,-0.1962 -7.0568,-2.1563 -2.1561,-1.7643 -3.5283,-6.0767 -6.2726,-7.841 -2.7443,-1.7642 -5.0966,-1.3721 -8.233,-1.7642 1.5682,4.5085 2.3523,9.0171 1.5682,13.1335 -1.5682,8.8212 -6.8608,13.3297 -15.2898,14.5057 -3.7244,0.3922 -9.6051,-0.7841 -12.7415,-1.3721 1.5682,3.3325 4.1165,6.2727 5.4886,9.6051 7.2529,-0.9801 12.5455,-0.9801 16.27,-2.7443 3.7244,-1.7642 8.0369,-5.8807 12.9375,-7.6449 4.9006,-1.7641 9.4091,-1.7641 14.7017,-2.5483 -4.3125,3.7244 -7.0568,7.4489 -11.3693,10.9774 3.1363,9.0169 6.2727,18.23 9.409,27.2472 6.6649,4.1164 12.7416,6.2726 21.1706,11.3692 8.429,5.0966 18.4261,14.3097 29.2074,19.2103 10.7813,4.9006 17.446,7.6449 28.6194,9.8011 11.3692,2.1563 20.3864,11.3695 31.5597,12.7415 11.1733,1.3722 32.1478,1.7642 40.7728,0.9801 9.8011,-0.9801 22.5426,-6.0767 23.7188,-16.6619 -8.233,1.9602 -20.7785,0.1961 -27.0513,-15.2898 -2.7443,-6.8607 -1.3721,-19.4062 -5.6846,-27.6393 -4.3125,-8.0368 -10.1932,-10.7811 -17.446,-20.7784 -7.2529,-9.9972 -18.8183,-25.679 -25.483,-39.2046 -6.6648,-13.3295 -8.037,-28.6193 -13.7217,-40.5767 -5.4886,-11.9574 -13.9176,-21.75862 -20.3864,-30.97173 -14.1137,-20.19038 -25.679,-33.91194 -49.0057,-44.10515 -11.1733,-4.90058 -24.1108,-6.27274 -36.0683,-9.21308 -4.9005,2.15626 -11.5653,4.70455 -12.7416,10.38922 -1.1761,5.68466 1.1763,14.11366 5.2928,18.42617 6.8608,7.25282 17.25,14.89771 21.3665,26.26711 2.5483,7.25278 3.3324,31.95176 1.1761,38.42056 -2.5483,7.6449 -7.8409,11.9573 -12.3494,16.4659 z m 2.1562,58.0229 c -2.1562,1.9601 -3.9204,3.7243 -7.2528,5.2925 -3.5284,1.5682 -8.2331,1.9602 -12.9376,3.1363 6.4688,10.1933 13.3296,20.3864 19.6024,30.9717 6.2726,10.5852 11.5653,22.3466 17.642,33.3239 -0.196,-6.4688 0,-13.1335 -0.7841,-19.2103 -0.9801,-5.8806 -3.7244,-11.1733 -6.2728,-20.1903 -2.9402,-8.625 -6.2726,-20.7785 -9.9971,-33.3238 z M 1339.6275,777.64927 c -0.9801,9.99719 0.7841,25.48301 2.7443,35.28416 2.5482,11.56535 4.9006,17.64207 14.3097,24.6989 17.25,12.93752 28.4232,10.58525 41.7529,18.23014 6.2726,3.52841 14.3097,9.40914 16.662,15.68188 2.3522,6.27266 -1.5682,13.13349 -6.2728,15.87779 8.4289,1.17618 17.8381,-8.23289 13.9177,-18.03409 -1.9603,-4.70453 -11.1734,-6.86083 -13.9177,-11.76136 -2.7443,-4.90059 -2.7443,-9.80117 -1.5682,-14.70174 2.3522,-8.82104 19.7984,-16.85798 26.0711,-23.9148 9.6051,-10.78128 13.1335,-19.79833 7.8408,-33.51995 -7.6449,-19.40629 -36.8522,-35.08813 -54.2983,-42.73303 -8.0369,-3.5284 -12.5454,-3.72443 -18.8182,-5.68466 12.7414,7.44888 26.2671,13.52559 32.7359,30.18754 5.4886,13.91764 0.7841,19.21026 0.9801,31.3637 0,5.68466 7.4489,8.42899 10.7813,11.95741 2.9403,3.13635 2.5483,5.48863 0.392,9.60511 -0.196,-3.92046 -1.9602,-6.66477 -4.9007,-8.82103 -4.9004,-3.52842 -10.1931,-2.74433 -12.7414,-9.80114 -3.9204,-10.78127 3.9204,-20.97448 -4.9005,-33.1279 -6.6648,-9.01706 -15.4859,-19.21027 -27.2472,-19.60231 -5.6847,-0.19602 -9.8012,0.7841 -15.8779,2.5483 l -8.037,-9.60512 -0.196,-0.19603 c -16.2699,-14.89775 -27.4432,-27.05119 -50.182,-37.24438 -22.7387,-10.19319 -34.1079,-11.76138 -60.179,-11.17331 -26.071,0.58806 -52.1421,2.74432 -82.3297,28.81538 -30.1875,26.07107 -108.2047,126.04282 -127.2189,138.5883 -18.8182,12.7415 -23.13071,16.85795 -46.65348,16.85795 -23.5227,0 -60.5711,-33.51992 -61.9433,-75.27283 -1.3721,-41.75289 -1.9602,-56.65065 27.0512,-107.02857 29.0114,-50.37793 81.74158,-65.86374 120.75018,-70.96034 39.0086,-5.29264 62.5314,8.625 91.3468,8.625 28.8152,0 57.4347,-4.90057 65.8637,-27.83526 -4.1165,2.5483 -9.6051,5.29262 -25.0911,4.31251 -15.4857,-0.78411 -37.0483,-18.81822 -61.159,-30.77562 -24.1109,-11.95741 -51.1621,-13.5256 -85.6621,-14.11366 -34.5001,-0.58807 -77.62507,1.96023 -120.35818,25.09095 -42.733,23.13072 -71.94043,48.02564 -96.83535,93.11095 -24.69891,45.0853 -28.42334,81.93763 -24.50288,136.62805 3.92046,54.69046 20.77844,95.26724 53.31827,135.25584 32.53986,39.9888 64.88366,59.5911 123.29844,66.8439 l 12.34952,-54.2984 -21.9546,31.5597 0.5881,-35.0881 -19.99441,24.6989 -8.62499,-33.5198 -16.0739,26.855 -8.03689,-37.4404 -23.32682,18.8183 7.44891,-30.7757 -30.9716,3.3324 14.11359,-21.3665 -28.22729,0.3921 16.4659,-28.61938 -24.89489,-3.92047 19.99435,-26.07108 -30.57959,-9.01706 25.28697,-24.30686 -25.09095,-20.3864 19.60232,-15.28978 -18.23016,-24.11085 19.60231,-22.73867 -7.25285,-29.99152 16.46593,-14.5057 4.90056,-34.30404 18.6222,-9.4091 16.0739,-26.65914 29.5995,-3.13637 14.3097,-23.91482 29.79551,1.56819 28.03127,-15.28979 29.0114,6.8608 33.1279,-9.99717 24.5028,5.68467 31.9518,4.70455 30.7756,24.69891 -47.2415,-16.46594 -23.7188,11.36934 -19.6023,-11.95741 -13.5256,9.21307 -23.9148,2.35229 -21.5626,-1.37216 -15.6818,19.21026 -31.95179,0.39204 -11.56529,25.483 -28.42341,9.99716 -2.5483,29.5995 -20.3864,15.87786 6.8608,27.83526 -17.64198,29.01143 13.5256,25.28697 -13.32961,23.13071 17.6421,11.56537 -3.9205,37.24436 24.5029,6.27274 5.4886,27.63923 26.85521,-2.7443 16.662,19.0142 20.58243,-19.99432 c 37.44034,-18.62218 52.92604,-29.20743 82.13354,-60.76714 33.3239,-35.87221 52.3381,-69.19613 96.6394,-93.89503 31.7557,-17.64208 57.6308,-23.91482 93.307,-17.8381 33.5199,5.8807 44.6932,25.87505 69.3921,47.04554 2.5483,-4.70457 3.1364,-6.07673 7.4489,-9.40911 -1.5682,5.88068 -3.7244,12.34945 -4.3125,18.23013 z"
   id="path989"
   style="fill:#bb9af7;fill-opacity:1;stroke-width:1.96023" /></g>
</svg>
