<?xml version="1.0" encoding="UTF-8" standalone="no"?>
<!-- Generator: Adobe Illustrator 25.2.1, SVG Export Plug-In . SVG Version: 6.00 Build 0)  -->

<svg
   version="1.1"
   id="Layer_1"
   x="0px"
   y="0px"
   viewBox="0 0 3840 2160"
   style="enable-background:new 0 0 3840 2160;"
   xml:space="preserve"
   sodipodi:docname="gnu-heckert.svg"
   inkscape:version="1.1.1 (3bf5ae0d25, 2021-09-20)"
   xmlns:inkscape="http://www.inkscape.org/namespaces/inkscape"
   xmlns:sodipodi="http://sodipodi.sourceforge.net/DTD/sodipodi-0.dtd"
   xmlns="http://www.w3.org/2000/svg"
   xmlns:svg="http://www.w3.org/2000/svg"><defs
   id="defs1274" /><sodipodi:namedview
   id="namedview1272"
   pagecolor="#505050"
   bordercolor="#eeeeee"
   borderopacity="1"
   inkscape:pageshadow="0"
   inkscape:pageopacity="0"
   inkscape:pagecheckerboard="0"
   showgrid="false"
   inkscape:zoom="0.25190679"
   inkscape:cx="1564.0706"
   inkscape:cy="605.38265"
   inkscape:window-width="1920"
   inkscape:window-height="1060"
   inkscape:window-x="1920"
   inkscape:window-y="20"
   inkscape:window-maximized="1"
   inkscape:current-layer="Layer_1" />
<rect
   style="fill:#24283b;stroke-width:5.46313"
   id="rect5602"
   width="3840"
   height="2160"
   x="0"
   y="0" /><path
   d="M1607.8,1166.6c-7.2,0.4-16.9,3.8-23.1,15.3c-5.2,9.3-17.5,10.9-23.1,9.1c-9.5-3.2-21.7-5.2-33.4,3  c-11.7,8.5-24.6,2-22.1-13.3c2.2-15.3,7.6-29,22.3-37.2c32-18.3,9.7-31.2,27.4-49.7c17.5-18.5,13.7-24.2,13.1-49.3  c-59.4-8.9-93.2-26.2-130.8-73.1c-37.8-47.3-52.3-85.9-56.2-144.9s-0.6-97,25-146.1c25.6-49.1,52.3-72.5,98.8-97  c46.3-24.2,91.8-30.2,133.8-29.4c42.1,0.8,70,3.8,94,17.3c23.7,13.5,45.5,30.6,59.4,30.8c13.9,0.2,23.3-3.4,30-8.7  c1.8,45.7-39.2,49.7-76.1,50.7c-36.8,1-59.4-14.3-93.4-8.7c-34,5.6-89.2,21.1-116.3,68c-27.2,46.9-27.8,63.8-25.6,103.2  s36.2,68.8,55.3,69.2c19.1,0.4,23.3-5.2,40.3-16.1c16.7-10.9,102.4-116.9,131.6-140.9c29.2-23.7,58.2-31.2,89.2-31.6  c31-0.4,39,0.6,64.2,10.9c25.2,10.3,40.5,29.2,60.8,40.9c10.3-6,16.7-15.1,26.4-22.1c34-24.8,51.5-31.6,92-27.6  c23.1,2.2,52.5,15.5,69.8,30.6c31,27,56.8,64.6,77.5,93.2c16.1,22.3,35.2,48.9,62.4,57.2c29.6,9.1,51.9-29.4,55.1-50.5  c1.8-12.1,4.2-22.5,4.2-35.8c0-13.3-1.4-29.4-5.2-43.3c-3.8-13.9-10.5-27.6-17.5-39c-11.5-18.5-30.4-38-50.1-48.1  c-11.1-5.6-37-15.9-53.3-16.1c-20.1-0.4-35.4,6.2-53.9,7.6c-22.5,1.6-62.6,6.6-80.1-10.7c-11.3-11.1-12.7-18.3-14.5-32.8  c5,4,11.9,6.8,18.1,7.2c14.1,1.2,27.2-10.3,38.6-16.9c9.3-5.4,22.5-15.3,34.8-20.1c31.6-12.7,70.2-12.3,103.6-8.9  c26.8,2.8,61.4,14.7,84.7,27.8c23.5,13.3,46.3,35.8,62.8,57c20.9,26.6,32.4,49.5,39.8,82.7c9.7,42.5,12.3,106.1,0.6,147.9  c-9.3,33-39.8,83.5-65.8,108.3c-25.8,24.6-55.3,36.2-89.2,42.7c1.4,6.8,1.6,13.1,3.2,18.7c2.4,7.8,7.2,16.7,16.9,13.9  c3.8-1.2,6-2,11.1,2.4c5,4.4,2.4,21.7-11.9,29.6c-7.2,4-15.1,4.8-26.8,5c-11.7,0.2-30,0.2-42.7-2c-12.7-2.2-20.3-12.3-34.4-13.9  c-21.7-2.4-38.4-18.1-55.7-29.4c-7.2-4.6-9.7-4.8-13.9-7c2.2,6.8,5.2,14.1,6.8,20.7c1.6,6.6,0.8,12.9,1.6,18.1  c0.8,5.2,2.2,9.5,3.2,13.9c3.4,3,4.6,7.8,10.5,9.3c5.8,1.4,15.1-0.8,20.9-1.6c5.8-0.8,10.1-4,14.7-3.2c4.6,0.8,9.1,4.2,13.1,7.4  s7.2,3.6,10.5,11.5c3.2,7.8,6,23.9,6.6,34.8s-0.8,20.5-4,29c-3.2,8.5-6,12.3-14.7,20.7c-8.7,8.5-22.7,20.9-36.8,29.6  c2.6,3.8,3.8,7.2,7.8,11.5c4,4.2,12.5,8.9,16.1,13.3c3.8,4.4,5.6,7.4,5.6,12.5c0,4.8-0.2,11.3-4.2,16.7c-9.9,13.3-21.7,15.7-36,21.9  c2.4,15.1,4.4,25.8,0.8,40.7c-1.4,6-4.6,19.9-12.1,23.5c-7.4,3.6-22.1,1.8-31.2,3.2c-9.3,1.4-14.3,2.8-21.5,4.2  c-4.4,6.2-10.9,13.3-13.1,18.9s-1.6,7.6,0.4,13.5c2,5.8,8.3,14.1,10.1,20.9c1.8,6.8,2.2,14.1,0.4,20.7c-1.6,6.8-4.6,11.7-10.3,17.7  c-5.8,6-17.1,10.7-22.7,15.7c-5.6,4.8-11.3,5.4-9.7,13.5c2.2,11.1,18.3,29,30,33.4c7,2.6,16.5,1.8,25-1.8  c-0.6,9.5-8.9,15.9-14.1,22.1c14.5-4.2,28.6-12.1,38.2-22.5c-3,9.1-13.5,23.7-29,36.6c-15.5,12.9-15.5,10.3-23.1,15.3  c14.1,2.8,27.2,2,38,0.2c-6,3.2-15.7,7.8-28.8,9.3c-12.9,1.4-20.9,0.4-32.6-2.4c-11.7-2.8-22.3-13.5-36.6-20.7  c1.4,5.2,2.4,11.7,8.3,16.9c5.8,5.2,14.9,8.3,24.6,12.9c-12.3-1.4-25-1.8-37-4.4c-8.9-2-14.9-4-21.3-7.2  c-6.4-3.2-11.5-7.8-17.3-11.9c2.8,5.2,3.6,11.5,8.3,15.7c4.6,4.2,12.3,6,18.5,8.9c-6.4-0.2-12.7,1.2-19.3-0.4  c-6.6-1.6-12.9-4.2-19.9-9.5c-7-5.2-14.1-11.5-19.9-17.9s-13.3-14.7-15.5-20.7c-2.2-5.8,1.4-10.1,2-15.1c-4,2.6-9.1,4.2-12.3,8.1  c-3.2,3.8-5.8,7.4-4.6,14.3c1.4,6.8,7.6,15.1,12.1,22.5c-13.3-10.9-20.5-14.9-23.7-28c-3-12.3,4.6-23.3,10.5-32.6  c2.8-4.6,7.2-8.9,9.9-13.3c-6-5.8-12.9-10.9-17.9-17.5s-7.2-15.7-12.5-22.1c-5.2-6.4-12.3-10.5-18.3-15.7  c5.4,11.5,14.3,25.8,16.1,34.6c2,8.9-2.2,14.5-5.2,19.3c-3.2,4.8-8.3,5.8-13.1,8.9c-4.8,3-12.5,0.6-15.3,5s-3.6,11.1-0.8,15.3  l11.3,17.9c-4.2-2-11.5-8.3-14.7-12.7c-3.2-4.4-8.3-8.5-8.9-14.3s-1-11.1,2.8-16.3c3.8-5.2,14.3-7,18.9-11.1c4.6-4,7.2-6.6,7-11.9  s-5.4-8.9-9.7-12.3c-13.3-10.1-30.6-19.3-41.9-31.4c-6.4-6.8-9.5-12.3-10.9-17.1c-1.2-4.6,0-8.5,3.2-14.1  c3.2-5.8,14.1-13.5,15.5-19.7s-4.2-7.6-9.3-9.9s-14.5,1.2-19.1-2.8c-4.6-3.8,1.4-11.9-3.8-16.5c-5.2-4.4-17.1-2-23.3-6.8  s-8.7-10.7-10.9-17.7c-2.2-7-2.4-14.5-1-19.5c1.4-5,5.8-5.8,8.3-8.5s4.8-4.8,1.4-8.7c-3.4-3.8-14.9,0.2-21.3-4.8s-2.6-16.9-7.2-21.9  c-4.6-5-12.9-3-17.3-4.6c-4.4-1.6-6,4-8.9-4.8c-2.6-9.1-2.8-35.8-6.4-45.7c-3.6-9.9-10.7-0.6-13.9-10.7c-3.2-9.9-0.2-25.8-1.6-40.9  l-6.6-40.9c-23.3,15.7-38.8,20.7-64,25.2c-2,61.6-7.8,97.8,13.1,166c20.9,68.2,63.2,108.5,120.2,166.2  c-75.3-56.4-111.1-102.2-133.6-161C1601.2,1272.2,1605.6,1223.1,1607.8,1166.6z M2007.7,1141.8c5.8,0.2,12.9,1.8,16.9,4.4  c4,2.6,8.5,4.8,12.1,8.7c9.3,9.5,16.1,20.7,19.1,33.6c2,8.3,2.2,18.9,3,28.6c-2.8-9.1-4.6-18.3-8.7-26.4  c-6.2-12.7-16.9-25.2-30.2-30.8c-4.4-1.8-7.2-1.6-9.7-1.2c1,1.8,2.8,3.2,3,6c0.2,2.8-0.6,7.8-5,10.1c-7.2,3.4-15.3,1-20.7-3.8  c-5.6-5-7.4-13.3-4.6-20.5C1986.4,1141.4,1999.9,1141.4,2007.7,1141.8z M1935.1,1129.5c0.8-14.7,6-27.2,19.3-34.4  c6.8-3.8,17.3-8.7,27.2-9.7c9.3-1,32-0.2,45.7,5.8c10.5,4.8,17.5,12.3,26.8,17.7c9.3,5.4,15.7,9.1,24.6,15.1  c13.5,9.5,21.3,19.7,30.6,25.8c4.4,3,10.9,2.6,16.7,4.4c-4.6,1.4-10.7,2.8-15.7,1.2c-6.2-2-14.9-7.6-19.7-11.7  c-8.5-7.2-12.9-10.7-22.3-16.1c-5.6-3.2-14.7-7-20.7-11.1c-6-4-16.7-12.7-22.5-15.7c-7.4-3.8-20.9-5.8-29.2-5.6  c-11.5,0.4-28,2.2-36.8,10.3c-8.9,8.1-12.1,15.1-10.1,25.4c3.2-3.8,5.4-8.7,8.9-11.5c6.8-5.8,14.7-6.2,23.3-5  c9.7,1.2,14.5,6.8,17.7,15.9c-2.2-1.6-6-5-9.3-6c-7.2-2.4-12.9-1.8-19.5,2c-8.1,4.2-5.8,10.7-7,17.9c-0.6,3.2-1.8,5.8-2.6,8.9  c-3-0.8-5.8-2-8.1-4.4c0,3.2-0.4,6.2,0.2,9.9c0.6,3.8,2.4,8.3,3.8,12.3c-5.6-5.6-11.3-10.9-14.9-18.1  C1937.3,1145.4,1934.7,1137.6,1935.1,1129.5z M1944.7,1021.8c4.2-6,5.4-15.5,7.8-23.1c-1,9.7,1,20.3-3.8,27.4  c-4.8,7-13.1,5.8-19.9,7.8C1934.3,1029.9,1940.7,1028.1,1944.7,1021.8z M1845.9,1165.5c5.2-4.2,19.7-0.8,30.4,0  c-7.6,2-15.3,4-23.1,5.8c-0.8,2.6-0.4,5.6-2.2,7.8c-1.8,2.2-5,3-7.6,4.6C1843.7,1177,1840.7,1169.8,1845.9,1165.5z M1921.4,867.3  c6.4,3.4,14.5,8.1,20.1,8.1s7-3.6,10.5-5.8c5.2,17.1,11.3,35.8,20.1,51.1c3.8,6.4,6,3.4,8.9,10.1c2.8,6.4,4,19.7,6.8,28  c2.6,8.3,6.2,14.5,9.3,21.7c-7.8-11.1-18.1-25.4-22.3-34.6c-4.4-9.3-1.6-10.1-5-18.9c-3.4-8.9-10.7-22.5-16.1-33.8  c-3.8,0.6-8.7,1.2-11.5,0.4c-2.8-0.8-2.4-4-5-6c-2.6-2-7-1.2-10.9-4.4C1922.6,879.6,1921.8,873.1,1921.4,867.3z M1887,951.4  c6-0.6,13.5,1,19.1,0.8c5.6-0.2,9.7-1.8,14.5-2.6c-0.8-8.5,0-24.2-7.8-29.8c-5-3.6-25.8-0.8-31.4,0.2c-12.5,2.6-27,10.1-39,14.9  c11.7-8.1,21.5-15.5,35.4-19.7c8.3-2.4,27.8-5.8,36.4-3.4c4,1,4.6,2.6,7,6c8.3,11.5,8.3,21.3,10.3,34.6c2,3.2,4.2,5.4,6,8.9  c1.6,3.4,2.6,8.7,3.2,12.9c-2.2-3-0.8-7-6.8-9.3c-6-2.4-15.1-0.2-23.1,0.6c5.8,4.2,8.7,8.3,9.1,17.1c0.2,10.5-8.7,17.9-17.9,18.7  c-12.9,1-19.5-1.8-24.6-12.9c-2.2-4.8-0.6-10.7-0.8-15.3c-15.5,1-15.1,0.6-26.4,10.1c6,9.1,10.1,14.1,20.1,19.5c5.6,3,12.1,6,19.1,7  c7,1.2,18.5,2.4,26,1.2s11.7-3.2,17.1-8.3c5.4-5,6-12.3,8.1-18.1c-0.4,5.4-1.2,12.5-3.2,16.5c-6.2,12.3-17.1,15.7-30,15.9  c-12.3,0-27.6-2.8-39.2-7.6c-9.3-3.8-24.4-14.7-28-23.9c-2.4-6.4-0.6-14.3-0.8-21.3c12.7-8.5,15.9-6.4,31-8.9  C1876.5,954.2,1880.9,951.8,1887,951.4z M1812.7,894c0.4-5,1-5,1.4-7.4c-11.7-3-16.3,4.4-23.1,18.3c-2.6,5.2,0,8.3-2.8,11.9  c-2.8,3.4-7,3-11.5,6.2c-4.4,3.2-8.9,9.7-12.9,13.1c-8.5,7-19.9,11.3-29.8,16.1c6.6-5,19.7-12.5,23.9-19.7  c2.2-3.8,1.8-11.1,5.4-14.5c3.4-3.4,4.6-5.8,9.3-6.6c4.4-0.8,2.6-6,4.2-10.3c1.6-4.2,4.4-7,7.4-11.3c3-4.2,7-10.5,13.1-12.7  c6-2.2,15.5,0.2,20.1-1.2c4.6-1.2,2-4.6,5.2-6.6c3.4-2,9.9-1.2,14.3-3.2c7.8-3.8,11.7-10.3,16.5-16.9c0.6,14.7,0.6,25.2-4.8,39  c-5.8,15.5-11.9,24.8-28.8,34.2c-5.8,3.2-11.7,4.4-16.3,6.2c2.8-3.8,6.8-5.4,8.5-11.5C1813.5,911,1812.3,899.1,1812.7,894z   M2084.6,965.5c-8.1,0.6-9.9-0.6-16.3,4c3.4,5.4,6.8,10.9,10.5,16.3C2078.4,975,2079.4,972.7,2084.6,965.5z M2063.5,957.6  c11.1-4.6,20.7-8.5,32.8-9.3c4.8-0.4,12.3,0.4,17.3,0.6c4.2-6,9.5-10.9,11.5-17.9c1.2-4.6,0.6-26.2-1.6-31.8  c-6.6-16.3-13.1-16.9-22.1-26.2c-6.6-6.8-6.8-17.1-8.9-28.6c-0.8-4.2-2.8-9.7-3.8-13.9c-11.9-2-24.8-2.6-38.4-2  c6.6-6.4,13.1-12.3,15.1-21.7c1.8-9.7,0.4-21.3-5-30c-5.4-8.7-14.1-16.1-22.1-23.1c-8.1-7-19.5-12.9-27-18.5  c9.9-3.6,19.9-8.7,29.6-10.7c25.2-4.8,46.7,2.6,71,17.3c14.1,8.5,25.8,16.7,40.5,32c14.7,15.5,33,43.7,47.3,60.6  c14.3,16.9,25.8,30,38.2,40.1c12.5,10.1,23.7,12.9,35.6,19.3l18.5,19.5l14.9-18.5l23.9,2.8l5-27l22.1-6l-3.6-36.4l15.9-11.3  l-11.9-22.5l12.1-24.8l-15.9-28.4l6-27.2l-18.3-15.5l-2.4-29l-25.6-9.7l-10.3-25.2l-28.8-0.4l-14.1-18.7l-19.3,1.4l-21.5-2.4  l-12.1-9.1l-17.7,11.7l-21.5-11.1l-42.5,16.1l27.8-24.2l28.8-4.6l21.9-5.6l29.8,9.7l26.2-6.6l25.2,14.9l26.8-1.4l13.1,23.5l26.6,3  l14.3,26.2l16.7,9.1l4.4,33.4l14.9,14.1l-6.4,29.4l17.5,22.1l-16.5,23.7l17.5,14.9l-22.5,19.9l22.5,23.9l-27.4,8.9l17.9,25.4  l-22.3,3.8l14.7,28l-25.4-0.4l12.7,20.9l-27.8-3.4l6.6,30.2l-20.9-18.5l-7.2,36.4l-14.5-26.2l-7.8,32.6l-17.9-24.2l0.4,34.2  l-19.7-30.8c4.2,17.5,3.4,36.6,14.9,53.1c35.6-4.8,58.8-13.7,86.1-40.1c24.8-23.9,54.5-73.7,62.6-105.3c9.3-36,9.5-102.2,0.4-139.1  c-8.7-35.4-19.9-52.1-40.3-81.1c-19.3-20.5-38.2-42.1-62.8-56.8c-36-21.5-82.1-27.2-123-26.8c-22.7,0.4-37.8,4.6-51.5,9.7  c-23.7,8.7-42.7,27.4-66.8,36.6c-7.8,3-14.1,3.2-20.3-0.2c6,12.1,12.7,17.5,27.8,21.9c10.9,3.2,37,1.2,54.9-0.4  c19.3-1.8,29.4-7.4,55.5-7.2c25.6,0.4,45.9,10.1,57,16.5c22.9,13.1,39.2,27.6,53.5,50.7c7.8,12.7,13.3,27,17.1,41.5  c3.8,14.5,5.6,30.8,5.8,45.1c0.2,14.3-0.8,27-4.2,39.8c-8.3,30-26.2,60.6-63,56c-22.5-2.8-56.8-45.3-68-61  c-22.9-31.4-46.7-66.2-75.7-92.4c-17.3-15.3-41.5-26.4-65.2-28.6c-44.5-4-57.8,4.4-91.2,32c6.8,2.2,13.5,3.4,20.5,6.4  c15.5,7,29.6,16.1,42.1,27.6c12.9,12.1,18.7,19.7,19.3,37.2c0.4,11.5-9.3,20.7-17.9,29.2c-5.2,5-12.3,9.9-16.7,13.7  c-5.6,5.2-12.9,11.1-5.6,19.3c2.6,3.2,7.4,5.4,11.3,8.5c6.2,4.6,3.4,21.9-4.8,26.6c-10.7,5.8-23.1,5.2-32-2.6  c11.1-1.6,17.9-3,17.7-12.1c-0.2-5.2-6.8-9.7-13.3-12.5c-15.7-7.2-27.6-6-43.3-17.3c-15.9-11.5-16.1-17.5-20.3-35.4  c-7.6,0.8-14.7,1-24.8,4.4c-10.3,3.4-21.5,11.5-30.6,13.3c-23.3,5-28,3.6-40.7,0.2c-22.3-5.8-51.7,4.2-80.7,13.5  c-4.8,1.6-24.4,0-37.4,4.6c-20.3,7-48.7,24.4-65.2,38.2c-25,20.9-57.8,83.7-76.1,156c-2,21.9,4.2,36.6-9.5,47.3  c-13.9,10.7-13.5,38-18.1,45.9c-4.6,7.6-10.1,4.2-20.1,15.1s-15.3,9.1-14.9,29.4c8.7-5.6,21.3-12.3,32.4-12.7  c9.9-0.4,9.9,12.7,35.2-12.3c13.5-13.3,39.4-13.7,57.6-19.7c18.1-5.8,50.5-18.1,82.9-54.3c32.4-36.2,48.1-74.7,54.3-130  c1,9.9,2.8,20.9-1.4,47.9s-13.3,57.4,5.8,93.8l11.9,22.7c-7-9.7-20.9-25.4-25-36.6l-9.7-26c-21.5,33.6-26.4,39.6-56.2,63.8  c-1.2,14.9-1.4,30.6,3.4,44.9s-2.8,30.8,0.8,40.3s12.3,4,15.1,13.7c2.8,9.7-1.4,28.4,2.8,37.8c4.2,9.5,15.1,3.6,20.3,6.6  s6.8,7,9.7,11.1c2.8,4-1,13.3,4.6,16.3c5.6,3,14.5,0.4,20.3,3.4c5.8,3,6.8,9.9,5.4,16.3c-1.4,6.2-7.6,9.3-10.5,15.5  c-2.8,6.4-2.4,10.9,0.8,16.7c3.2,5.8,10.7,9.1,17.9,12.1c7.2,3,17.5,1.2,25.2,5.4c7.6,4.2,14.3,12.3,18.3,18.1  c4,5.8,5,10.1,4.8,16.3c-0.2,6.2-2.8,13.5-6,19.5c-3.2,6-10.7,13.3,0.8,24.8s11.1,6.4,17.5,14.1c-0.8-12.9-6-23.3-2.2-33.2  c3.8-9.7,15.7-11.5,21.7-15.7c6.2-4.4,9.7-10.5,14.5-15.5c0,6.6,0.6,13.9-0.2,18.9c-1.6,10.3-4.6,19.3,10.7,20.9  c6.8,0.8,13.3-3.6,20.5-6.4c-3.8,6.8-10.3,12.3-11.3,20.3s0.2,16.9,5.8,25c5.6,8.1,15.3,14.1,22.3,18.7c7,4.6,10.9,5,16.3,7.6  c0.2,8.1-1.2,16.3-0.4,23.9c0.8,7.6,3.2,14.1,7.6,20.3c4.4,6.2,11.3,9.7,17.9,14.3c-3.6-8.5-10.9-16.3-10.9-25.2  c0-8.9,2.8-15.1,11.3-22.7c8.7-7.8,28.6-14.5,38-22.1c9.5-7.6,12.5-12.3,15.9-19.5s2.4-19.3,3-26c3,9.3,3.6,12.1,4.6,21.9  c1,9.7-5.6,23.3-8.5,30.6c11.7-5.6,19.1-14.7,22.9-23.5c2.4,1.4,1.2,5.6,2.2,13.5c4.2-4.2,8.9-7.4,13.1-11.3  c4.2-3.8,8.9-7.4,10.9-12.9c2-5.4,1.2-11.3-0.4-17.7s-8.7-13.7-12.5-20.7s0.6-13.7,0.4-22.1c-7.6-1.4-14.1-5.2-22.9-4  c-8.9,1.2-18.9,11.1-27.8,11.3c-8.9,0.2-14.1-8.3-21.3-10.7c-7.2-2.4-14.9-2-22.1-3c9.5-9.1,45.9-13.3,70.6-17.3  c21.9-3.6,43.7-5.6,65.8-6c9.9-0.2,22.7,3.2,29.6,1.2c6.8-2,5.4-6.6,7.4-11.9c5.6-14.3,2.8-27-0.2-41.5c-19.9-2.4-40.7-5.2-60.8-3.6  c-19.7,1.6-42.9,10.9-63.2,11.5c-17.7,0.6-43.7-3.4-58.8-12.7c-18.5-11.3-32.8-35.4-37.8-43.3c-8.3-12.7-18.7-37.4-25-48.9  c-6.4-11.3-7.6-14.5-13.1-19.3c-5.2-4.8-12.5-5-18.7-7.6c7.2,0.8,15.1-1.6,21.5,2.2c9.9,5.6,20.9,29,27,39.2  c6.4-21.7,5-30.4,23.7-42.5c-15.1,16.9-15.5,29.8-19.1,49.7c12.5,20.7,30,53.5,52.9,62.6c8.3,3.2,22.5,5.4,31.4,6.4  c27.8,3.4,54.5-5.4,81.9-12.1c19.9-5,40.3-3,64.6-1.6c8.3,0.4,27.8-4.4,31.8-12.9c2.2-4.4,2-9.9-1.2-14.7c-3.2-4.8-11.5-7-15.9-11.5  s-7-9.5-10.5-14.1c-18.5,3.6-33.8,4.8-47.5,5.2c9.9-4,19.3-6.4,29.6-10.5c10.3-4,21.9-10.7,30.2-16.1c8.3-5.4,13.7-8.7,19.5-15.1  c6-6.4,13.7-12.9,18.1-20.7s5-16.5,5.4-26.2c0.2-9.7-0.2-23.1-3.8-31s-10.9-10.1-16.7-11.9c-5.8-1.8-9.7,2.8-15.7,3.4  c-6,0.6-11.7,4.4-20.3,0.4c-8.7-4-18.9-12.3-27.8-24.8c-8.9-12.3-15.1-32.4-23.9-47.9c-15.3-26.8-34.6-51.5-52.9-76.3  c-1.6-6-3.8-14.5-4.6-22.7c-1.4-14.5-1.6-29.4,2.8-43.5c3.4-10.7,8.5-22.1,19.7-26.6c4.4-1.8,10.3-2.4,14.3-1s8.1,6,6.4,11.3  c-1.8,5.8-5.8,5.8-8.5,8.9c-4.6,5-6.4,8.7-8.3,14.7c5,0,11.7-0.4,15.9,0.6c5.4,1.4,10.3,5,13.1,12.5c-6.4-5.6-9.5-8.3-17.5-8.5  c-3.6,0-8.1,1.2-12.1,1.8c-1.6,4.8-2.4,10.9-4.4,14.7c-2,3.8-6.2,2.8-7.8,7.2C2062.9,944.6,2062.9,951.8,2063.5,957.6z M2119.4,951  c2.4,1,3.4,1.2,6.4,3.6c3,2.4,7.4,4.6,9.9,10.3c2.4,5.6,2.4,14.3,1.8,17.9c-2.2-0.6-5-0.2-7.2-2.2c-2.2-1.8-3.6-6.2-6.4-8.1  s-5.2-1.4-8.5-1.8c1.6,4.6,2.4,9.3,1.6,13.5c-1.6,9.1-7,13.7-15.7,14.9c-3.8,0.4-9.9-0.8-13.1-1.4c1.6,3.4,4.2,6.4,5.6,9.9  c7.4-1,12.9-1,16.7-2.8c3.8-1.8,8.3-6,13.3-7.8s9.7-1.8,15.1-2.6c-4.4,3.8-7.2,7.6-11.7,11.3c3.2,9.3,6.4,18.7,9.7,28  c6.8,4.2,13.1,6.4,21.7,11.7c8.7,5.2,18.9,14.7,30,19.7c11.1,5,17.9,7.8,29.4,10.1c11.7,2.2,20.9,11.7,32.4,13.1  c11.5,1.4,33,1.8,41.9,1c10.1-1,23.1-6.2,24.4-17.1c-8.5,2-21.3,0.2-27.8-15.7c-2.8-7-1.4-19.9-5.8-28.4  c-4.4-8.3-10.5-11.1-17.9-21.3c-7.4-10.3-19.3-26.4-26.2-40.3c-6.8-13.7-8.3-29.4-14.1-41.7c-5.6-12.3-14.3-22.3-20.9-31.8  c-14.5-20.7-26.4-34.8-50.3-45.3c-11.5-5-24.8-6.4-37-9.5c-5,2.2-11.9,4.8-13.1,10.7s1.2,14.5,5.4,18.9c7,7.4,17.7,15.3,21.9,27  c2.6,7.4,3.4,32.8,1.2,39.4C2129.5,941.9,2124.1,946.4,2119.4,951z M2121.7,1010.6c-2.2,2-4,3.8-7.4,5.4c-3.6,1.6-8.5,2-13.3,3.2  c6.6,10.5,13.7,20.9,20.1,31.8c6.4,10.9,11.9,22.9,18.1,34.2c-0.2-6.6,0-13.5-0.8-19.7c-1-6-3.8-11.5-6.4-20.7  C2128.9,1035.9,2125.5,1023.5,2121.7,1010.6z M1942.3,782.5c-1,10.3,0.8,26.2,2.8,36.2c2.6,11.9,5,18.1,14.7,25.4  c17.7,13.3,29.2,10.9,42.9,18.7c6.4,3.6,14.7,9.7,17.1,16.1c2.4,6.4-1.6,13.5-6.4,16.3c8.7,1.2,18.3-8.5,14.3-18.5  c-2-4.8-11.5-7-14.3-12.1s-2.8-10.1-1.6-15.1c2.4-9.1,20.3-17.3,26.8-24.6c9.9-11.1,13.5-20.3,8.1-34.4c-7.8-19.9-37.8-36-55.7-43.9  c-8.3-3.6-12.9-3.8-19.3-5.8c13.1,7.6,27,13.9,33.6,31c5.6,14.3,0.8,19.7,1,32.2c0,5.8,7.6,8.7,11.1,12.3c3,3.2,2.6,5.6,0.4,9.9  c-0.2-4-2-6.8-5-9.1c-5-3.6-10.5-2.8-13.1-10.1c-4-11.1,4-21.5-5-34c-6.8-9.3-15.9-19.7-28-20.1c-5.8-0.2-10.1,0.8-16.3,2.6  l-8.3-9.9l-0.2-0.2c-16.7-15.3-28.2-27.8-51.5-38.2s-35-12.1-61.8-11.5c-26.8,0.6-53.5,2.8-84.5,29.6s-111.1,129.4-130.6,142.3  c-19.3,13.1-23.7,17.3-47.9,17.3c-24.2,0-62.2-34.4-63.6-77.3s-2-58.2,27.8-109.9c29.8-51.7,83.9-67.6,124-72.9  c40.1-5.4,64.2,8.9,93.8,8.9s59-5,67.6-28.6c-4.2,2.6-9.9,5.4-25.8,4.4c-15.9-0.8-38-19.3-62.8-31.6s-52.5-13.9-88-14.5  s-79.7,2-123.6,25.8c-43.9,23.7-73.9,49.3-99.4,95.6c-25.4,46.3-29.2,84.1-25.2,140.3c4,56.2,21.3,97.8,54.7,138.9  c33.4,41.1,66.6,61.2,126.6,68.6l12.7-55.7l-22.5,32.4l0.6-36l-20.5,25.4l-8.9-34.4l-16.5,27.6l-8.3-38.4l-23.9,19.3l7.6-31.6  l-31.8,3.4l14.5-21.9l-29,0.4l16.9-29.4l-25.6-4l20.5-26.8l-31.4-9.3l26-25l-25.8-20.9l20.1-15.7l-18.7-24.8l20.1-23.3l-7.4-30.8  l16.9-14.9l5-35.2l19.1-9.7L1498,626l30.4-3.2l14.7-24.6l30.6,1.6l28.8-15.7l29.8,7l34-10.3l25.2,5.8l32.8,4.8l31.6,25.4l-48.5-16.9  l-24.4,11.7l-20.1-12.3l-13.9,9.5l-24.6,2.4l-22.1-1.4l-16.1,19.7l-32.8,0.4l-11.9,26.2l-29.2,10.3l-2.6,30.4l-20.9,16.3l7,28.6  l-18.1,29.8l13.9,26l-13.7,23.7l18.1,11.9l-4,38.2l25.2,6.4l5.6,28.4l27.6-2.8l17.1,19.5l21.1-20.5c38.4-19.1,54.3-30,84.3-62.4  c34.2-36.8,53.7-71,99.2-96.4c32.6-18.1,59.2-24.6,95.8-18.3c34.4,6,45.9,26.6,71.2,48.3c2.6-4.8,3.2-6.2,7.6-9.7  C1945.2,769.9,1942.9,776.5,1942.3,782.5z"
   id="path1269"
   style="fill:#bb9af7;fill-opacity:1" />
</svg>
