<?xml version="1.0" encoding="UTF-8" standalone="no"?>
<!-- Generator: Adobe Illustrator 25.2.1, SVG Export Plug-In . SVG Version: 6.00 Build 0)  -->

<svg
   version="1.1"
   id="Layer_1"
   x="0px"
   y="0px"
   viewBox="0 0 3840 2160"
   style="enable-background:new 0 0 3840 2160;"
   xml:space="preserve"
   sodipodi:docname="hurd.svg"
   inkscape:version="1.1.1 (3bf5ae0d25, 2021-09-20)"
   xmlns:inkscape="http://www.inkscape.org/namespaces/inkscape"
   xmlns:sodipodi="http://sodipodi.sourceforge.net/DTD/sodipodi-0.dtd"
   xmlns="http://www.w3.org/2000/svg"
   xmlns:svg="http://www.w3.org/2000/svg"><defs
   id="defs1373"><style
     type="text/css"
     id="style3748">
			#boxes, #arrows {
				stroke: black;
				stroke-width: 3;
			}

			#boxes { fill: white; }
		</style></defs><sodipodi:namedview
   id="namedview1371"
   pagecolor="#505050"
   bordercolor="#eeeeee"
   borderopacity="1"
   inkscape:pageshadow="0"
   inkscape:pageopacity="0"
   inkscape:pagecheckerboard="0"
   showgrid="false"
   inkscape:zoom="0.178125"
   inkscape:cx="1987.3684"
   inkscape:cy="1647.7193"
   inkscape:window-width="1920"
   inkscape:window-height="1060"
   inkscape:window-x="1920"
   inkscape:window-y="20"
   inkscape:window-maximized="1"
   inkscape:current-layer="g1365" />
<style
   type="text/css"
   id="style1333">
	.st0{fill:#FFFFFF;}
</style>
<rect
   style="fill:#24283b;stroke-width:5.46313"
   id="rect5602"
   width="3840"
   height="2160"
   x="0"
   y="0"
   sodipodi:insensitive="true" /><g
   transform="matrix(1,0,0,-1,-5,95)"
   id="g1368">
	<g
   id="g1341"
   style="fill:#b4f9f8;fill-opacity:1">
		<path
   d="m 1517.2,-827.4 c 0,0 0,0 0,0 l 12,-12 12,12 c 0,0 0,0 0,0 l 56.5,56.5 c 6.6,6.6 6.6,17.4 0,24 -6.6,6.6 -17.4,6.6 -24,0 l -27.6,-27.6 v 15.6 c 0,51.4 16.3,88.5 49.8,113.6 34.5,25.9 88.2,39 159.4,39 9.4,0 17,7.6 17,17 0,9.4 -7.6,17 -17,17 -78.8,0 -139.3,-15.4 -179.8,-45.8 -42,-31.5 -63.3,-78.9 -63.3,-140.8 v -15.6 l -27.6,27.6 c -6.6,6.6 -17.4,6.6 -24,0 -6.6,-6.6 -6.6,-17.4 0,-24 z"
   id="path1335"
   style="fill:#b4f9f8;fill-opacity:1" />
		<path
   d="m 2009.8,-945.4 h 43.9 l -27.6,-27.6 c -6.6,-6.6 -6.6,-17.4 0,-24 3.3,-3.3 7.7,-5 12,-5 4.3,0 8.7,1.7 12,5 l 56.5,56.5 c 0,0 0,0 0,0 l 12,12 -68.5,68.5 c -6.6,6.6 -17.4,6.6 -24,0 -6.6,-6.6 -6.6,-17.4 0,-24 l 27.6,-27.6 h -43.9 c -30.8,0 -124.4,0 -124.4,209.2 0,9.4 -7.6,17 -17,17 -9.4,0 -17,-7.6 -17,-17 0,-79.4 12.4,-137.8 37.9,-178.6 26.9,-42.7 67.4,-64.4 120.5,-64.4 z"
   id="path1337"
   style="fill:#b4f9f8;fill-opacity:1" />
		<path
   d="m 2346,-661.1 c -68.8,59 -172.4,88.9 -307.9,88.9 h -15.6 l 27.6,27.6 c 6.6,6.6 6.6,17.4 0,24 -6.6,6.6 -17.4,6.6 -24,0 l -68.5,-68.5 12,-12 c 0,0 0,0 0,0 l 56.5,-56.5 c 3.3,-3.3 7.7,-5 12,-5 4.3,0 8.7,1.7 12,5 6.6,6.6 6.6,17.4 0,24 l -27.6,27.6 h 15.6 c 254.9,0 378.8,-105.4 378.8,-322.3 0,-108.4 -34.8,-187.2 -106.3,-240.9 -28.3,-21.2 -62.5,-38.3 -102.6,-51.2 11,52.7 16.6,112.5 16.6,179 0,9.4 -7.6,17 -17,17 -9.4,0 -17,-7.6 -17,-17 0,-71.9 -6.6,-135.1 -19.8,-189.4 -54.3,-13.1 -117.6,-19.8 -189.4,-19.8 -9.4,0 -17,-7.6 -17,-17 0,-9.4 7.6,-17 17,-17 66.6,0 126.3,5.6 179,16.6 -13,-40 -30,-74.3 -51.2,-102.6 -53.6,-71.5 -132.4,-106.3 -240.9,-106.3 -216.9,0 -322.3,123.9 -322.3,378.8 v 15.6 l 27.6,-27.6 c 6.6,-6.6 17.4,-6.6 24,0 6.6,6.6 6.6,17.4 0,24 l -56.5,56.5 c 0,0 0,0 0,0 l -12,12 -68.5,-68.5 c -6.6,-6.6 -6.6,-17.4 0,-24 3.3,-3.3 7.7,-5 12,-5 4.3,0 8.7,1.7 12,5 l 27.6,27.6 v -15.6 c 0,-135.5 29.9,-239.1 88.9,-307.9 59.6,-69.6 149.6,-104.9 267.3,-104.9 118.2,0 208.3,40.3 268,119.9 26.9,35.8 47.7,80 62.3,132.2 52.2,14.6 96.4,35.4 132.2,62.3 79.5,59.7 119.9,149.8 119.9,268 0,117.8 -35.3,207.7 -104.8,267.4 z"
   id="path1339"
   style="fill:#b4f9f8;fill-opacity:1" />
	</g>
	<g
   id="boxes">
		<g
   id="g1347"
   style="stroke:none">
			
			<path
   d="m 1659.3,-1058.5 h -260.1 v 260.1 h 260.1 z m -226.2,33.9 h 192.2 v 192.2 h -192.2 z"
   id="path1345"
   style="stroke:none;fill:#b4f9f8;fill-opacity:1" />
		<rect
   style="fill:#414868;fill-opacity:1;stroke:none;stroke-opacity:1"
   id="rect4432"
   width="192.2"
   height="192.2"
   x="1433.1"
   y="832.40002"
   transform="scale(1,-1)" /></g>
		<g
   id="g1353"
   style="stroke:none">
			
			<path
   d="m 1998.5,-719.3 h -260.1 v 260.1 h 260.1 z m -226.2,34 h 192.2 v 192.2 h -192.2 z"
   id="path1351"
   style="stroke:none;fill:#b4f9f8;fill-opacity:1" /><rect
   style="fill:#414868;fill-opacity:1;stroke:none;stroke-opacity:1"
   id="rect4426"
   width="192.2"
   height="192.2"
   x="1772.3"
   y="493.09998"
   transform="scale(1,-1)" />
		</g>
		<g
   id="g1359"
   style="stroke:none">
			
			<path
   d="m 2337.7,-1058.5 h -260.1 v 260.1 h 260.1 z m -226.1,33.9 h 192.2 v 192.2 h -192.2 z"
   id="path1357"
   style="stroke:none;fill:#b4f9f8;fill-opacity:1" /><rect
   style="fill:#414868;fill-opacity:1;stroke:none;stroke-opacity:1"
   id="rect4428"
   width="192.2"
   height="192.2"
   x="2111.6001"
   y="832.40002"
   transform="scale(1,-1)" />
		</g>
		<g
   id="g1365"
   style="stroke:none">
			
			<path
   d="m 1998.5,-1397.7 h -260.1 v 260.1 h 260.1 z m -226.2,33.9 h 192.2 v 192.2 h -192.2 z"
   id="path1363"
   style="stroke:none;fill:#b4f9f8;fill-opacity:1" /><rect
   style="fill:#414868;fill-opacity:1;stroke:none;stroke-opacity:1"
   id="rect4430"
   width="192.2"
   height="192.2"
   x="1772.3"
   y="1171.6"
   transform="scale(1,-1)" />
		</g>
	</g>
</g>
</svg>
