<?xml version="1.0" encoding="UTF-8" standalone="no"?>
<!-- Generator: Adobe Illustrator 25.2.1, SVG Export Plug-In . SVG Version: 6.00 Build 0)  -->

<svg
   version="1.1"
   id="Layer_1"
   x="0px"
   y="0px"
   viewBox="0 0 3840 2160"
   style="enable-background:new 0 0 3840 2160;"
   xml:space="preserve"
   sodipodi:docname="kaios.svg"
   inkscape:version="1.1.1 (3bf5ae0d25, 2021-09-20)"
   xmlns:inkscape="http://www.inkscape.org/namespaces/inkscape"
   xmlns:sodipodi="http://sodipodi.sourceforge.net/DTD/sodipodi-0.dtd"
   xmlns="http://www.w3.org/2000/svg"
   xmlns:svg="http://www.w3.org/2000/svg"><defs
   id="defs1439" /><sodipodi:namedview
   id="namedview1437"
   pagecolor="#505050"
   bordercolor="#eeeeee"
   borderopacity="1"
   inkscape:pageshadow="0"
   inkscape:pageopacity="0"
   inkscape:pagecheckerboard="0"
   showgrid="false"
   inkscape:zoom="0.25190679"
   inkscape:cx="1393.3725"
   inkscape:cy="915.02099"
   inkscape:window-width="1920"
   inkscape:window-height="1060"
   inkscape:window-x="1920"
   inkscape:window-y="20"
   inkscape:window-maximized="1"
   inkscape:current-layer="Layer_1" />
<style
   type="text/css"
   id="style1432">
	.st0{fill:#6F02B5;}
</style>
<rect
   style="fill:#24283b;stroke-width:5.46313"
   id="rect5602"
   width="3840"
   height="2160"
   x="0"
   y="0" /><path
   class="st0"
   d="M2677.3,1022.6h-63.8c-20.3,0-37-16.5-37-37c0-22.3,20.6-35.6,41.1-37c25-2.1,93.7-0.6,118.1,0  c27.9,0.9,51.7-21.4,52.6-49.7c0.9-28.2-21.4-51.7-49.7-52.6c-9.4-0.3-94-2.6-129.3,0c-77.3,6.2-135.4,65.8-135.4,139.3  c0,77,62.6,139.3,139.3,139.3h63.8c22.9,0,42.3,19.7,42.3,43.2c0,26.7-23.2,40.5-46.1,42.3c-29.4,2.4-117.8,0.6-149.3,0  c-28.2-0.6-51.7,21.7-52.6,49.9c-0.6,28.2,21.7,51.7,49.9,52.6c7.6,0.3,54.4,1.5,97.5,1.5c24.4,0,47.6-0.3,62-1.5  c81.4-6.2,140.7-67,140.7-144.3C2821.8,1087.8,2757.2,1022.6,2677.3,1022.6 M2205.7,1213.3c-73.2,0-132.8-59.6-132.8-132.8  s59.6-132.8,132.8-132.8c73.2,0,132.8,59.6,132.8,132.8S2279.2,1213.3,2205.7,1213.3z M2205.7,846c-129.3,0-234.2,104.9-234.2,234.2  s104.9,234.2,234.2,234.2s234.2-104.9,234.2-234.2C2440.2,950.9,2335.3,846,2205.7,846 M1599.9,1220.3c-37.6,0-68.2-30.6-68.2-68.2  c0-37.6,30.6-68.2,68.2-68.2c37.6,0,68.2,30.6,68.2,68.2C1668.1,1189.8,1637.5,1220.3,1599.9,1220.3z M1599.9,990  c-89.6,0-162.5,72.9-162.5,162.5c0,89.6,72.9,162.5,162.5,162.5c27.9,0,54.4-7.1,77.3-19.4c8.5,11.8,22.3,19.4,38.2,19.4  c25.9,0,47-21.2,47-47v-108.1c0-2.4,0.3-4.7,0.3-7.3C1762.4,1062.6,1689.5,990,1599.9,990 M1322.2,989.7c39.7,0,71.7-32,71.7-71.7  c0-39.7-32-72-71.7-72s-71.7,32-71.7,71.7C1250.6,957.4,1282.6,989.7,1322.2,989.7 M1252.9,1012.9c-16.7-24.1-50.2-30-74.3-13.2  c-24.1,16.7-30,50.2-13.2,74.3l152.5,218c16.7,24.1,50.2,30,74.3,13.2c24.1-17,30-50.2,13.2-74.3L1252.9,1012.9 M1072.8,846  c-30,0-54.4,24.4-54.4,54.4v359.9c0,30,24.4,54.4,54.4,54.4s54.4-24.4,54.4-54.4V900.4C1127.2,870.4,1102.8,846,1072.8,846   M1866.4,990c-30,0-54.1,24.1-54.1,54.1v216.8c0,30,24.1,54.1,54.1,54.1c30,0,54.1-24.1,54.1-54.1V1044  C1920.4,1014.1,1896.1,990,1866.4,990"
   id="path1434"
   style="fill:#bb9af7;fill-opacity:1" />
</svg>
