<?xml version="1.0" encoding="UTF-8" standalone="no"?>
<!-- Generator: Adobe Illustrator 25.2.1, SVG Export Plug-In . SVG Version: 6.00 Build 0)  -->

<svg
   version="1.1"
   id="Layer_1"
   x="0px"
   y="0px"
   viewBox="0 0 3840 2160"
   style="enable-background:new 0 0 3840 2160;"
   xml:space="preserve"
   sodipodi:docname="kali-wordmark.svg"
   inkscape:version="1.1.1 (3bf5ae0d25, 2021-09-20)"
   xmlns:inkscape="http://www.inkscape.org/namespaces/inkscape"
   xmlns:sodipodi="http://sodipodi.sourceforge.net/DTD/sodipodi-0.dtd"
   xmlns="http://www.w3.org/2000/svg"
   xmlns:svg="http://www.w3.org/2000/svg"><defs
   id="defs19" /><sodipodi:namedview
   id="namedview17"
   pagecolor="#505050"
   bordercolor="#eeeeee"
   borderopacity="1"
   inkscape:pageshadow="0"
   inkscape:pageopacity="0"
   inkscape:pagecheckerboard="0"
   showgrid="false"
   inkscape:zoom="0.50381358"
   inkscape:cx="1752.6324"
   inkscape:cy="1106.5601"
   inkscape:window-width="1920"
   inkscape:window-height="1060"
   inkscape:window-x="0"
   inkscape:window-y="20"
   inkscape:window-maximized="1"
   inkscape:current-layer="Layer_1" />
<style
   type="text/css"
   id="style2">
	.st0{fill:#1793D1;}
	.st1{fill:#FFFFFF;fill-opacity:0.1657;}
	.st2{fill:url(#SVGID_1_);}
</style>
<rect
   style="fill:#24283b;stroke-width:5.46313"
   id="rect5602"
   width="3840"
   height="2160"
   x="-3840"
   y="0"
   transform="scale(-1,1)" />
<g
   fill="#527d97"
   id="g967"
   transform="matrix(11.154766,0,0,11.154766,1191.5888,650.83321)"
   style="fill:#7aa2f7;fill-opacity:1"><path
     style="color:#000000;text-indent:0;text-decoration-line:none;text-decoration-style:solid;text-decoration-color:#000000;text-transform:none;white-space:normal;isolation:auto;mix-blend-mode:normal;solid-color:#000000;color-rendering:auto;image-rendering:auto;shape-rendering:auto;fill:#7aa2f7;fill-opacity:1"
     d="M 3.5254,0 C 1.755,0.0019531 0,2.002 0,3.5215 v 58.826 c 0,1.7559 1.755,3.5137 3.5273,3.5117 h 15.652 v -4 h -14 C 4.5938,61.8562 4,61.2672 4,60.6852 V 5.1792 c 0,-0.5843 0.5938,-1.182 1.1816,-1.18 h 120.24 c 0.59766,-0.00195 1.1797,0.5957 1.1816,1.1797 v 55.506 c -0.002,0.58203 -0.58398,1.1719 -1.1816,1.1738 h -100.6 v 4 h 102.25 c 1.5312,0.002 3.5274,-1.7559 3.5293,-3.5117 V 3.519 c 0,-1.518 -1.99,-3.518 -3.52,-3.52 z"
     fill-rule="evenodd"
     id="path919" /><path
     d="M 19.33,49.9 V 17.03 h 5.09 V 33.328 L 37.939,17.03 h 6.237 L 31.948,31.141 44.4,49.9 h -5.7969 l -10.549,-15.402 -3.6342,4.0101 v 11.392 z"
     id="path921"
     style="fill:#7aa2f7;fill-opacity:1" /><path
     d="m 63.384,21.52 -4.6201,14.482 9.563,-2.52e-4 z m -3.0881,-4.49 h 6.199 L 78.9109,49.9 H 72.7435 L 69.6563,41.152 H 56.7733 L 53.6861,49.9 H 47.857 Z"
     id="path923"
     style="fill:#7aa2f7;fill-opacity:1" /><path
     d="m 82.704,17.03 h 4.8062 v 28.52 h 14.24 v 4.03 h -19.046 z"
     id="path925"
     style="fill:#7aa2f7;fill-opacity:1" /><path
     d="m 106.09,17.03 h 4.8203 V 49.58 H 106.09 Z"
     id="path927"
     style="fill:#7aa2f7;fill-opacity:1" /><path
     d="m 2.4186,73.779 v 2.337 H 3.908 q 0.74932,0 1.1079,-0.28626 0.36317,-0.29053 0.36317,-0.8844 0,-0.59814 -0.36317,-0.88013 -0.3585,-0.286 -1.1078,-0.286 H 2.4187 Z m 0,-2.6233 v 1.9226 h 1.3745 q 0.68036,0 1.0114,-0.23499 0.33559,-0.23926 0.33559,-0.72632 0,-0.48279 -0.33559,-0.72205 Q 4.47351,71.15568 3.7931,71.15568 H 2.4186 Z M 1.49,70.4457 h 2.3721 q 1.0619,0 1.6366,0.41016 0.57463,0.41016 0.57463,1.1664 0,0.58533 -0.29421,0.9314 -0.29421,0.34607 -0.86425,0.43152 0.68496,0.13672 1.0619,0.57251 0.38156,0.43152 0.38156,1.0809 0,0.85449 -0.6252,1.3202 -0.6252,0.4657 -1.7791,0.4657 h -2.464 v -6.3788 z"
     id="path929"
     style="fill:#7aa2f7;fill-opacity:1" /><path
     d="m 7.6299,70.446 h 0.92712 l 1.7688,2.6233 1.756,-2.6233 h 0.92712 l -2.256,3.3411 v 3.0377 H 9.8858 v -3.0377 z"
     id="path931"
     style="fill:#7aa2f7;fill-opacity:1" /><path
     d="m 21.333,71.031 q -0.93994,0 -1.4954,0.70068 -0.55115,0.70068 -0.55115,1.9098 0,1.2048 0.55115,1.9055 0.55542,0.70068 1.4954,0.70068 0.93994,0 1.4868,-0.70068 0.55115,-0.70068 0.55115,-1.9055 0,-1.2091 -0.55115,-1.9098 Q 22.27292,71.031 21.333,71.031 Z m 0,-0.70068 q 1.3416,0 2.1448,0.90149 0.80322,0.89722 0.80322,2.4097 0,1.5082 -0.80322,2.4097 -0.80322,0.89722 -2.1448,0.89722 -1.3458,0 -2.1533,-0.89722 -0.80322,-0.89722 -0.80322,-2.4097 0,-1.51248 0.80322,-2.4097 0.8075,-0.90149 2.1533,-0.90149 z"
     id="path933"
     style="fill:#7aa2f7;fill-opacity:1" /><path
     d="m 27.032,70.446 h 3.6658 v 0.72632 h -2.8027 v 1.8799 h 2.5293 v 0.72632 h -2.5293 v 3.0463 h -0.86304 v -6.3788 z"
     id="path935"
     style="fill:#7aa2f7;fill-opacity:1" /><path
     d="m 33.274,70.446 h 3.6658 v 0.72632 h -2.8027 v 1.8799 h 2.5293 v 0.72632 h -2.5293 v 3.0463 h -0.86304 v -6.3788 z"
     id="path937"
     style="fill:#7aa2f7;fill-opacity:1" /><path
     d="m 38.915,70.446 h 4.0332 v 0.72632 H 39.778 v 1.8884 h 3.0377 v 0.72632 H 39.778 v 2.3114 h 3.2471 v 0.72632 H 38.915 v -6.3788 z"
     id="path939"
     style="fill:#7aa2f7;fill-opacity:1" /><path
     d="m 45.552,70.446 h 1.1621 l 2.8284,5.3363 V 70.446 h 0.8374 v 6.3788 h -1.1621 l -2.8284,-5.3363 v 5.3363 H 45.552 Z"
     id="path941"
     style="fill:#7aa2f7;fill-opacity:1" /><path
     d="m 57.521,70.655 v 0.84168 q -0.49133,-0.23498 -0.92712,-0.35034 -0.43579,-0.11536 -0.84168,-0.11536 -0.70496,0 -1.0895,0.27344 -0.38025,0.27344 -0.38025,0.77759 0,0.42297 0.25208,0.64087 0.25635,0.21362 0.96558,0.34607 l 0.52124,0.10681 q 0.96558,0.18372 1.4227,0.64941 0.46142,0.46143 0.46142,1.239 0,0.92712 -0.62378,1.4056 -0.61951,0.47852 -1.8201,0.47852 -0.45288,0 -0.96558,-0.10254 -0.50842,-0.10254 -1.0553,-0.30334 v -0.88867 q 0.52551,0.2948 1.0297,0.44434 0.50415,0.14954 0.99121,0.14954 0.73914,0 1.1407,-0.29053 0.40161,-0.29053 0.40161,-0.82886 0,-0.46997 -0.29053,-0.73486 -0.286,-0.265 -0.944,-0.397 l -0.52551,-0.10254 q -0.96558,-0.19226 -1.3971,-0.60242 -0.43152,-0.41016 -0.43152,-1.1407 0,-0.84595 0.59387,-1.333 0.59814,-0.48706 1.6449,-0.48706 0.44861,0 0.91431,0.08118 0.4657,0.08118 0.95276,0.24353 z"
     id="path943"
     style="fill:#7aa2f7;fill-opacity:1" /><path
     d="m 59.951,70.446 h 0.86304 v 6.3788 H 59.951 Z"
     id="path945"
     style="fill:#7aa2f7;fill-opacity:1" /><path
     d="m 65.476,76.825 -2.4353,-6.3788 h 0.90149 l 2.0209,5.3705 2.0251,-5.3705 h 0.89722 l -2.431,6.3788 h -0.97839 z"
     id="path947"
     style="fill:#7aa2f7;fill-opacity:1" /><path
     d="m 70.313,70.446 h 4.0332 v 0.72632 H 71.176 v 1.8884 h 3.0377 v 0.72632 H 71.176 v 2.3114 h 3.2471 v 0.72632 H 70.313 v -6.3788 z"
     id="path949"
     style="fill:#7aa2f7;fill-opacity:1" /><path
     d="m 84.061,70.655 v 0.84168 q -0.49133,-0.23498 -0.92712,-0.35034 -0.43579,-0.11536 -0.84168,-0.11536 -0.70496,0 -1.0895,0.27344 -0.38025,0.27344 -0.38025,0.77759 0,0.42297 0.25208,0.64087 0.25635,0.21362 0.96558,0.34607 l 0.52124,0.10681 q 0.96558,0.18372 1.4227,0.64941 0.46142,0.46143 0.46142,1.239 0,0.92712 -0.62378,1.4056 -0.61951,0.47852 -1.8201,0.47852 -0.45288,0 -0.96558,-0.10254 -0.50842,-0.10254 -1.0553,-0.30334 v -0.88867 q 0.52551,0.2948 1.0297,0.44434 0.50415,0.14954 0.99121,0.14954 0.73914,0 1.1407,-0.29053 0.40161,-0.29053 0.40161,-0.82886 0,-0.46997 -0.29053,-0.73486 -0.286,-0.265 -0.944,-0.397 l -0.52551,-0.10254 q -0.96558,-0.19226 -1.3971,-0.60242 -0.43152,-0.41016 -0.43152,-1.1407 0,-0.84595 0.59387,-1.333 0.59814,-0.48706 1.6449,-0.48706 0.44861,0 0.91431,0.08118 0.4657,0.08118 0.95276,0.24353 z"
     id="path951"
     style="fill:#7aa2f7;fill-opacity:1" /><path
     d="m 86.391,70.446 h 4.0332 v 0.72632 H 87.254 v 1.8884 h 3.0377 v 0.72632 H 87.254 v 2.3114 h 3.2471 v 0.72632 H 86.391 v -6.3788 z"
     id="path953"
     style="fill:#7aa2f7;fill-opacity:1" /><path
     d="m 97.504,70.937 v 0.91003 q -0.43579,-0.40588 -0.9314,-0.60669 -0.49133,-0.2008 -1.0468,-0.2008 -1.0938,0 -1.6748,0.67078 -0.58105,0.6665 -0.58105,1.9312 0,1.2604 0.58105,1.9312 0.58106,0.6665 1.6748,0.6665 0.55542,0 1.0468,-0.20081 0.49561,-0.20081 0.9314,-0.60669 v 0.90149 q -0.45288,0.30762 -0.9613,0.46143 -0.50415,0.15381 -1.0681,0.15381 -1.4484,0 -2.2815,-0.8844 -0.83313,-0.88867 -0.83313,-2.4225 0,-1.5381 0.83313,-2.4225 0.83313,-0.88867 2.2815,-0.88867 0.57251,0 1.0767,0.15381 0.50842,0.14954 0.95276,0.45288 z"
     id="path955"
     style="fill:#7aa2f7;fill-opacity:1" /><path
     d="m 99.848,70.446 h 0.86732 v 3.8751 q 0,1.0254 0.3717,1.4783 0.3717,0.44861 1.2048,0.44861 0.82886,0 1.2006,-0.44861 0.3717,-0.45288 0.3717,-1.4783 V 70.446 h 0.86731 v 3.9819 q 0,1.2476 -0.61951,1.8842 -0.61523,0.6366 -1.8201,0.6366 -1.2091,0 -1.8286,-0.6366 -0.61524,-0.6366 -0.61524,-1.8842 V 70.446 Z"
     id="path957"
     style="fill:#7aa2f7;fill-opacity:1" /><path
     d="m 110.78,73.834 q 0.27771,0.09399 0.53833,0.40161 0.26489,0.30762 0.52978,0.84595 l 0.87586,1.7432 h -0.92713 l -0.81604,-1.6364 q -0.31616,-0.64087 -0.61523,-0.85022 -0.2948,-0.20935 -0.8075,-0.20935 h -0.93994 v 2.6959 h -0.86304 v -6.3788 h 1.9482 q 1.0938,0 1.6321,0.45715 0.53833,0.45715 0.53833,1.38 0,0.60242 -0.28199,0.99976 -0.27771,0.39734 -0.81176,0.55115 z m -2.1619,-2.6788 v 2.2644 h 1.0852 q 0.62378,0 0.93994,-0.28625 0.32043,-0.29053 0.32043,-0.85022 0,-0.55969 -0.32043,-0.84168 -0.31616,-0.28626 -0.93994,-0.28626 h -1.0852 z"
     id="path959"
     style="fill:#7aa2f7;fill-opacity:1" /><path
     d="m 114.84,70.446 h 0.86304 v 6.3788 H 114.84 Z"
     id="path961"
     style="fill:#7aa2f7;fill-opacity:1" /><path
     d="m 117.53,70.446 h 5.3961 v 0.72632 h -2.2644 v 5.6525 h -0.86731 v -5.6525 h -2.2644 V 70.446 Z"
     id="path963"
     style="fill:#7aa2f7;fill-opacity:1" /><path
     d="m 124.09,70.446 h 0.92712 l 1.7688,2.6233 1.756,-2.6233 h 0.92712 l -2.2559,3.3411 v 3.0377 h -0.86731 v -3.0377 l -2.2559,-3.3411 z"
     id="path965"
     style="fill:#7aa2f7;fill-opacity:1" /></g></svg>
