<?xml version="1.0" encoding="UTF-8" standalone="no"?>
<!-- Generator: Adobe Illustrator 25.2.1, SVG Export Plug-In . SVG Version: 6.00 Build 0)  -->

<svg
   version="1.1"
   id="Layer_1"
   x="0px"
   y="0px"
   viewBox="0 0 3840 2160"
   style="enable-background:new 0 0 3840 2160;"
   xml:space="preserve"
   sodipodi:docname="linux-mint-no-wordmark.svg"
   inkscape:version="1.1.1 (3bf5ae0d25, 2021-09-20)"
   xmlns:inkscape="http://www.inkscape.org/namespaces/inkscape"
   xmlns:sodipodi="http://sodipodi.sourceforge.net/DTD/sodipodi-0.dtd"
   xmlns="http://www.w3.org/2000/svg"
   xmlns:svg="http://www.w3.org/2000/svg"><defs
   id="defs1521" /><sodipodi:namedview
   id="namedview1519"
   pagecolor="#505050"
   bordercolor="#eeeeee"
   borderopacity="1"
   inkscape:pageshadow="0"
   inkscape:pageopacity="0"
   inkscape:pagecheckerboard="0"
   showgrid="false"
   inkscape:zoom="0.25190679"
   inkscape:cx="1976.9217"
   inkscape:cy="1252.4474"
   inkscape:window-width="1920"
   inkscape:window-height="1060"
   inkscape:window-x="1920"
   inkscape:window-y="20"
   inkscape:window-maximized="1"
   inkscape:current-layer="Layer_1" />
<style
   type="text/css"
   id="style1498">
	.st0{opacity:0.26;fill-rule:evenodd;clip-rule:evenodd;enable-background:new    ;}
	.st1{fill-rule:evenodd;clip-rule:evenodd;fill:url(#path2576_1_);}
	.st2{opacity:0.1751;fill:url(#path3419_1_);enable-background:new    ;}
	.st3{fill-rule:evenodd;clip-rule:evenodd;fill-opacity:8.040203e-02;}
	.st4{fill-rule:evenodd;clip-rule:evenodd;fill:#FFFFFF;}
	.st5{opacity:0.3;fill-rule:evenodd;clip-rule:evenodd;fill:#52A800;enable-background:new    ;}
</style>
<rect
   style="fill:#24283b;stroke-width:5.46313"
   id="rect5602"
   width="3840"
   height="2160"
   x="0"
   y="0" /><g
   id="logo"
   transform="matrix(1.5193335,0,0,1.5193335,-49.387944,-246.89101)">
	<path
   id="path3543"
   class="st0"
   d="m 1269.4,1219.4 c -143.6,0 -268.5,-108.7 -268.5,-252.3 V 819 774.4 H 909.7 V 527.2 l 384.3,1.9 h 120.3 c 143.6,0 268.5,108.7 268.5,252.3 v 437.9 z"
   style="fill:#24283b;fill-opacity:1" />
	
		<linearGradient
   id="path2576_1_"
   gradientUnits="userSpaceOnUse"
   x1="330.65131"
   y1="1652.7644"
   x2="686.44482"
   y2="1953.1097"
   gradientTransform="matrix(2.5191,0,0,2.5191,227.7214,-3526.8481)">
		<stop
   offset="0"
   style="stop-color:#C7F994"
   id="stop1501" />
		<stop
   offset="1"
   style="stop-color:#87CF3E"
   id="stop1503" />
	</linearGradient>
	<path
   id="path2576"
   class="st1"
   d="m 1629,1105.6 c 0,-95.1 0,-319.6 0,-319.6 0,-106.7 -93.8,-193.4 -209.6,-193.4 h -119.7 v 0 L 975,591.3 v 116.4 c 0,0 26.5,0 49.8,0 34.9,0 40.8,23.9 40.8,56.9 V 971 c 0,106.7 93.8,193.4 208.9,193.4 h 285.3 c 37.5,0 69.2,-23.2 69.2,-58.8 z"
   style="fill:#9ece6a;fill-opacity:1" />
	
		<linearGradient
   id="path3419_1_"
   gradientUnits="userSpaceOnUse"
   x1="370.3544"
   y1="1847.9838"
   x2="649.49512"
   y2="1585.9329"
   gradientTransform="matrix(2.4203,0,0,2.4203,200.3269,-3381.4141)">
		<stop
   offset="0"
   style="stop-color:#3D3D3D"
   id="stop1507" />
		<stop
   offset="1"
   style="stop-color:#000000;stop-opacity:0.114"
   id="stop1509" />
	</linearGradient>
	
	
	<path
   id="path4130"
   class="st4"
   d="m 1341.8,714.2 c -25.9,0 -49.2,9.7 -67.9,28.5 -18.8,18.8 -28.5,42 -28.5,68.6 v 133.3 h 61.5 V 811.2 c 0,-10.4 3.2,-18.1 10.4,-25.2 7.1,-7.1 14.9,-10.4 25.2,-10.4 10.3,0 17.5,3.2 25.2,10.4 7.1,7.1 10.4,15.5 10.4,25.2 v 133.3 h 60.8 V 811.2 c 0,-10.4 3.2,-18.1 10.4,-25.2 7.1,-7.1 14.9,-10.4 25.2,-10.4 9.7,0 17.5,3.2 25.2,10.4 7.1,7.1 10.4,15.5 10.4,25.2 l 0.6,155.9 c 0,33 -31.7,61.5 -72.5,61.5 l -196.7,-0.6 c -31.7,0 -58.2,-30.4 -58.2,-69.9 V 664.4 h -57.6 v 305.3 c 0,32.3 11.6,60.8 34.9,83.4 19.4,19.4 43.3,32.3 69.9,34.9 h 217.4 c 33.6,0 62.7,-12.3 86.7,-36.9 v 0 c 20.1,-20.7 31.7,-45.3 34.9,-73.7 V 810.6 c 0,-26.5 -9.7,-49.8 -28.5,-68.6 -18.8,-18.8 -41.4,-28.5 -67.9,-28.5 -25.2,0 -47.9,9.7 -66,27.2 -17.4,-17.4 -39.4,-26.5 -65.3,-26.5 z"
   style="fill:#f2f2f2;fill-opacity:1" />
	<path
   id="path4132"
   class="st5"
   d="m 1306.2,1027.9 v 59.5 h 142.3 c 33.6,0 62.7,-12.3 86,-36.9 v 0 c 20.1,-20.7 31.7,-45.3 34.9,-73.1 v -33.6 h -60.2 v 23.3 c 0,33 -31.7,61.5 -72.5,61.5 z"
   style="fill:#87b05b;fill-opacity:1" />
	<path
   id="path6141"
   class="st4"
   d="m 1273.3,1209.1 c -137.8,0 -257.5,-104.2 -257.5,-241.9 v -167 -42.7 H 928.5 V 545.4 l 368.1,1.9 h 115.1 c 137.8,0 257.5,104.2 257.5,241.9 V 1209 h -395.9 z m 340.2,-113.2 c 0,-91.2 0,-307.3 0,-307.3 0,-102.9 -89.9,-185.7 -201.2,-185.7 h -115.8 v 0 l -311.8,-1.3 v 99.6 c 0,0 12.3,0 34.9,0 23.9,0 52.4,22 52.4,55 v 210.9 c 0,102.9 89.9,185.7 201.2,185.7 h 274.3 c 35,0 66,-22.6 66,-56.9 z"
   style="fill:#f2f2f2;fill-opacity:1" />
</g>
</svg>
