<?xml version="1.0" encoding="UTF-8" standalone="no"?>
<!-- Generator: Adobe Illustrator 25.2.1, SVG Export Plug-In . SVG Version: 6.00 Build 0)  -->

<svg
   version="1.1"
   id="Layer_1"
   x="0px"
   y="0px"
   viewBox="0 0 3840 2160"
   style="enable-background:new 0 0 3840 2160;"
   xml:space="preserve"
   sodipodi:docname="openbsd.svg"
   inkscape:version="1.1.1 (3bf5ae0d25, 2021-09-20)"
   xmlns:inkscape="http://www.inkscape.org/namespaces/inkscape"
   xmlns:sodipodi="http://sodipodi.sourceforge.net/DTD/sodipodi-0.dtd"
   xmlns="http://www.w3.org/2000/svg"
   xmlns:svg="http://www.w3.org/2000/svg"><defs
   id="defs1860" /><sodipodi:namedview
   id="namedview1858"
   pagecolor="#505050"
   bordercolor="#eeeeee"
   borderopacity="1"
   inkscape:pageshadow="0"
   inkscape:pageopacity="0"
   inkscape:pagecheckerboard="0"
   showgrid="false"
   inkscape:zoom="0.35625"
   inkscape:cx="1939.6491"
   inkscape:cy="1169.1228"
   inkscape:window-width="1920"
   inkscape:window-height="1060"
   inkscape:window-x="1920"
   inkscape:window-y="20"
   inkscape:window-maximized="1"
   inkscape:current-layer="Layer_1" />
<style
   type="text/css"
   id="style1834">
	.st0{fill:#1E1812;}
	.st1{fill:#CF4229;}
	.st2{fill:#F2CA30;}
</style>
<rect
   style="fill:#24283b;stroke-width:5.46313"
   id="rect5602"
   width="3840"
   height="2160"
   x="0"
   y="0" /><g
   id="g1855">
	<path
   class="st0"
   d="m 1141.2,1312.9 c -6.8,-1.7 -15.7,-7.9 -19.1,-13.3 -1,-2 -2.4,-3.4 -3.1,-3.4 -0.3,0 -1.4,-1.7 -1.7,-3.8 -0.3,-2 -1.4,-4.8 -2.4,-5.5 -1.4,-1.7 -9.9,-1.7 -147.2,-1.7 -157.8,0 -150,0.3 -159.9,-5.5 -2.4,-1.4 -5.1,-3.4 -6.1,-4.8 -1,-1.4 -3.4,-3.1 -4.8,-3.8 -7.5,-4.1 -15.7,-13.7 -17.8,-21.9 -2.7,-10.6 -0.7,-32.5 3.4,-35.9 0.7,-0.7 1.4,-1.7 1.4,-2.4 0,-0.7 1.7,-2.7 3.8,-4.8 11.3,-10.6 17.8,-12.3 46.1,-12.3 16.1,0 20.8,-0.3 21.2,-1.4 0.3,-0.7 -3.1,-5.1 -7.9,-9.9 -4.4,-4.8 -9.6,-10.6 -10.9,-12.6 -1.4,-2.4 -3.4,-5.1 -4.4,-6.1 -1,-1 -3.1,-4.1 -4.1,-6.8 -1.4,-2.4 -3.1,-5.5 -3.8,-6.5 -4.1,-6.8 -9.2,-21.2 -9.2,-24.9 0,-1.4 -1,-5.5 -2,-9.2 -2.7,-8.2 -2.7,-31.8 -0.3,-42.7 1,-4.1 1.7,-9.6 2,-12.3 0.3,-4.8 3.4,-17.4 5.8,-22.5 0.3,-1 1,-3.4 1.4,-5.1 1,-5.1 7.5,-21.2 10.9,-27 0.3,-0.7 1.4,-2.7 2,-4.1 0.7,-1.4 1.7,-3.8 2.4,-5.1 0.7,-1.4 2.4,-4.1 3.1,-6.1 1,-2 2.7,-5.1 4.1,-6.8 1.4,-1.7 2.4,-3.8 2.4,-4.1 0,-0.3 2.7,-4.4 5.8,-8.9 14,-19.1 30.4,-37.2 47.8,-52.3 9.6,-8.2 29.4,-22.9 32.1,-23.9 1,-0.3 2.7,-1.4 3.8,-2.4 1,-1 6.5,-4.1 12,-6.8 5.5,-2.7 10.9,-5.8 12.3,-6.8 1.4,-1 4.8,-2.7 7.9,-3.8 2.7,-1 7.2,-3.1 9.6,-4.1 9.2,-4.1 24.9,-9.6 32.8,-11.3 35.2,-8.9 37.6,-9.2 69.7,-9.2 32.5,0 32.1,0 65.6,8.5 2,0.7 5.1,1.7 6.5,2.4 1.7,1 3.4,1.7 4.1,1.7 1.7,0 15.4,6.1 21.9,9.6 3.4,2 6.8,3.8 7.2,3.8 0.4,0 1.7,1 2.7,2 1,1 2.4,2 3.1,2 0.7,0 5.5,3.4 10.2,7.5 9.2,7.5 17.8,16.4 24.9,25.6 6.8,8.9 18.4,33.8 18.4,39.3 0,5.8 1.4,6.1 15.4,5.1 17.8,-1.4 38.6,-4.1 66.6,-8.5 13.3,-2 21.5,-0.7 30.1,4.8 3.1,2 1.7,2.4 17.8,-2.4 19.1,-5.5 50.6,-4.4 65.6,2 1,0.3 4.8,1.7 7.9,2.7 3.1,1 9.2,4.1 13.3,6.8 7.9,5.1 22.2,18.4 22.2,20.5 0,0.7 0.7,1.7 1.7,2.4 1,0.7 3.1,4.8 5.1,9.2 2,4.4 4.1,8.5 4.4,9.2 1.7,3.1 4.4,2.4 8.9,-2.4 5.1,-5.1 21.2,-17.4 29.4,-22.9 4.4,-2.7 9.6,-5.5 23.6,-13 5.5,-2.7 12.3,-5.8 13.7,-5.8 0.7,0 2.4,-0.7 4.1,-1.4 7.5,-4.1 33.1,-9.6 50.2,-10.9 30.1,-2.4 57.4,3.8 77.2,18.1 5.5,4.1 6.1,4.1 10.6,1 7.2,-5.1 10.9,-6.1 26.6,-6.8 8.5,-0.3 18.4,-1.4 22.5,-2 4.1,-0.7 13.3,-1.7 20.8,-2 16.1,-1.4 23.9,-2.4 50.6,-7.2 9.6,-1.7 20.5,-0.7 27,2.7 3.1,1.7 6.8,4.1 8.5,5.8 3.1,3.1 5.1,3.4 9.2,1.4 8.9,-4.4 27,-9.6 40.3,-10.9 19.5,-2 38.9,1 55,8.5 7.2,3.4 10.2,5.5 16.4,12 8.2,8.2 14,18.4 15.4,26 0.3,2.4 1.7,7.2 2.4,10.2 2,7.2 1.7,18.8 -1,25.6 -0.7,2.4 -1.7,5.5 -1.7,7.2 0,3.1 -9.6,32.5 -11.3,34.8 -0.3,0.7 -1.4,3.1 -2,5.5 -0.7,2.4 -1.7,5.1 -2,5.5 -1.7,2 -4.4,12 -3.4,13 0.3,0.3 4.4,2.7 9.2,5.1 4.4,2.4 9.9,5.5 12,7.5 7.5,6.5 7.2,12.3 6.8,-87.5 l -0.3,-89.5 -9.6,-0.7 c -5.5,-0.3 -11.3,-1 -12.6,-1.4 -8.2,-2 -16.1,-8.5 -21.5,-17.8 l -3.8,-6.1 v -13.7 c 0,-13.3 0,-14 3.1,-19.8 5.8,-11.3 13,-16.4 26,-19.1 11.6,-2.4 166.4,-2.4 202.6,0 24.9,1.7 43,3.8 51.6,6.1 2.7,0.7 6.8,1.7 9.2,2 5.5,1 26.6,8.2 32.5,11.3 2.7,1.4 5.5,2.4 6.1,2.4 0.7,0 2,0.7 2.4,1.4 0.7,0.7 3.1,2.4 5.5,3.4 2.4,1 6.5,4.1 9.6,6.1 2.7,2.4 6.1,4.8 7.5,5.8 3.1,2 12.6,13 15.4,17.8 2.7,4.4 4.8,3.8 8.9,-3.1 1.7,-3.1 5.8,-8.2 8.9,-11.6 3.1,-3.1 5.8,-6.1 5.8,-6.5 0,-1.4 14.3,-13 19.5,-15.7 2.7,-1.4 6.5,-3.8 8.5,-5.5 2,-1.4 4.4,-2.7 5.1,-2.7 0.7,0 1.7,-0.7 2.4,-1.4 0.7,-0.7 2.7,-1.7 4.4,-2.4 8.5,-3.1 19.5,-6.5 25.3,-8.2 3.8,-1 7.9,-2 9.2,-2.7 1.4,-0.3 6.8,-1.4 12.3,-2 5.5,-0.7 13,-1.7 16.7,-2 9.9,-1.4 33.5,-1.4 41,0 3.4,0.7 10.9,1.7 16.7,2.4 6.1,0.7 16.4,2.7 23.2,4.4 6.8,1.7 13.3,3.4 14.7,3.8 1.7,0.3 3.4,-0.3 6.8,-3.4 7.5,-6.5 15,-8.5 31.8,-8.5 12,0 15.4,0.3 20.5,2 3.4,1.4 6.8,2.7 7.2,3.1 0.7,0.3 40.7,1 89.2,1 99.8,0 119.2,0.7 155.1,6.1 4.1,0.7 8.5,1.7 9.2,2 1,0.3 4.1,1 7.2,1.4 3.1,0.3 7.2,1.4 9.2,2 2,0.7 9.6,3.4 16.7,5.8 7.2,2.4 13.7,4.8 14.3,5.1 0.6,0.3 2,1 3.1,1 1.4,0 3.1,1 4.1,2 1,1 2.7,2 4.1,2 1.4,0 2.7,0.3 3.1,1 0.7,0.7 4.8,2.7 9.2,5.1 4.4,2.4 8.9,4.8 9.6,5.8 0.7,1 1.7,1.7 2,1.7 1.4,0 10.2,6.1 17.4,12.3 9.6,7.9 15.7,14 24.9,24.9 6.8,8.2 16.1,22.2 17.4,26.3 0.3,1.4 1.4,3.4 2,4.1 2.7,3.1 9.2,21.2 13.3,37.2 2.4,9.6 2.7,11.6 2.7,35.9 0,18.4 -0.3,27.3 -1.4,30.7 -0.7,2.7 -2,7.5 -2.7,10.6 -1.7,7.2 -5.1,17.8 -7.5,23.2 -1,2.4 -2,4.8 -2,5.8 0,1 -0.3,2 -1,2.4 -0.7,0.3 -2.4,3.4 -4.1,7.2 -1.7,3.8 -4.8,9.2 -7.2,12.6 -2.4,3.4 -4.1,6.5 -4.1,6.8 0,1 -10.2,13 -12,14 -0.7,0.3 -1.4,1.4 -1.4,2 0,1.4 -4.1,5.1 -16.7,16.1 -7.2,6.1 -18.1,14 -28.7,20.2 -2.4,1.4 -3.8,3.1 -3.4,4.1 0.3,1.4 4.1,1.7 35.5,2.4 22.9,0.3 36.9,1 40,1.7 5.5,1.4 14,6.8 16.1,9.9 1,1.4 2.4,2.4 3.1,2.4 3.8,0 13.7,9.6 17.1,16.4 2,4.1 2,6.5 2.4,20.2 0,11.3 -0.3,16.1 -1.4,16.7 -0.7,0.7 -1.4,2 -1.4,2.7 0,4.4 -14.7,17.1 -21.9,19.1 -1.7,0.3 -388.1,1 -858.5,1.4 l -855.4,0.7 -3.8,7.9 c -5.5,10.9 -13,17.4 -23.6,19.5 -8.6,5.3 -145.6,5.3 -155.2,2.9 v 0 z"
   id="path1836"
   style="fill:#414868;fill-opacity:1" />
	<g
   id="g1853">
		<path
   id="path6235"
   class="st1"
   d="m 1294.9,1220.6 c -4.8,9.9 -13.7,32.1 5.1,31.1 544.9,2.4 1089.8,0.3 1635,1 26,0 52.3,0 78.2,0 4.8,-10.6 14.7,-28.7 4.1,-35.5 -573.6,0 -1147.2,-0.3 -1720.8,-0.7 l -1.4,3.1 z"
   style="fill:#f7768e;fill-opacity:1" />
		<path
   id="path5871"
   class="st1"
   d="m 804.7,1220.6 c -3.8,8.9 -14.3,29.7 2.4,31.1 104.2,0.7 208.7,2.4 312.6,-0.7 10.2,-7.2 10.2,-22.9 10.6,-34.5 -108,0 -215.9,0 -323.9,0 l -1.4,3.1 c 0,0 -0.3,1 -0.3,1 z"
   style="fill:#f7768e;fill-opacity:1" />
		<g
   id="g1843"
   style="fill:#f7768e;fill-opacity:1">
			<path
   id="path6207"
   class="st1"
   d="m 1991.9,883.5 c -3.4,12 2,24.9 15.7,22.9 13,0.3 33.5,3.1 31.4,20.8 0,74.8 2.4,150.7 -0.7,224.8 -7.2,18.4 -37.6,7.2 -46.1,19.5 -3.1,10.9 -0.3,27 14.3,23.6 71.4,-0.3 143.1,1.7 214.2,-2 46.1,-5.8 100.1,-20.8 119.2,-68 13.3,-36.9 -10.9,-75.2 -44.4,-90.5 -7.5,-5.5 -24.6,-8.5 -27.7,-12.3 33.8,-9.2 65.6,-43 54.7,-80.3 -10.6,-43.4 -60.5,-57.4 -99.1,-62.9 -76.9,-4.1 -154.1,-1 -231.3,-2 v 3.4 z m 172.1,23.9 c 23.6,-3.4 50.6,12.3 49.9,38.3 2.4,21.9 1.4,52.6 -24.9,59.4 -13.7,4.4 -28.4,4.4 -42.4,5.5 2,-32.8 -2.7,-68 3.1,-99.8 3.7,-2.7 8.9,-3.8 14.3,-3.4 z m -13.6,135.3 c 29,-1 67.3,6.5 75.8,38.9 8.5,28.7 3.1,69.4 -31.1,78.2 -14.7,1.4 -37.6,8.9 -47.5,-5.5 -1.7,-36.9 -0.7,-74.5 -1.4,-111.7 h 3.4 0.8 z"
   style="fill:#f7768e;fill-opacity:1" />
			<path
   id="path6169"
   class="st1"
   d="m 2622.8,883.5 c -3.8,12 2.4,25.3 16.1,23.2 12.6,0 32.1,4.1 28.4,20.8 0,75.2 2,151.7 -1,226.5 -9.6,13 -28.7,11.3 -43,13.3 -3.4,12.6 -1.7,31.8 15.7,27.7 69.4,-0.7 139,2.7 208.1,-2.7 62.5,-7.5 128.5,-37.6 154.4,-98.4 15.7,-35.2 17.1,-77.5 3.8,-113.4 -22.2,-61.2 -88.1,-93.3 -149.3,-100.8 -76.2,-5.8 -153.1,-1 -229.6,-2.7 -5.6,-2.8 -2.2,4.4 -3.6,6.5 z m 175.6,25.2 c 35.9,-1.7 71.4,17.8 85.7,50.9 19.1,39.6 17.8,85.7 10.6,128.5 -6.1,36.2 -35.5,69.4 -74.5,71.7 -13.7,-1 -34.2,7.5 -43.7,-5.8 1.4,-80.3 -2.4,-161.6 1.7,-241.5 6.6,-2.1 13.1,-4.1 20.2,-3.8 z"
   style="fill:#f7768e;fill-opacity:1" />
			<path
   id="path6151"
   class="st1"
   d="m 2593.8,869.5 c -9.2,-1.4 -13.3,7.9 -16.7,13 -30.4,1.4 -58.4,-16.1 -89.5,-12.6 -51.2,-3.1 -112.1,16.1 -129.8,69 -9.6,31.1 -3.8,68 22.5,88.8 42.7,40.3 104.9,46.8 153.1,76.5 24.6,16.1 10.6,54.3 -14.7,60.8 -42.4,13.7 -94.6,-1.4 -117.9,-41 -12.6,-13.3 -10.9,-34.8 -23.6,-47.5 -11.6,-5.1 -31.8,-2.4 -27.7,15 0,35.5 -3.4,72.1 1.7,106.9 6.5,7.2 23.6,6.1 29.4,0.7 3.8,-20.2 25.6,-6.8 37.9,-4.8 59.1,14 129.8,14.3 179.4,-25.6 34.5,-27.3 44.1,-80.6 18.1,-116.8 -30.4,-44.1 -88.5,-51.9 -133.9,-74.1 -24.3,-7.2 -64.2,-26.3 -45.1,-57.7 22.5,-26.3 64.9,-20.8 93.3,-6.8 26.3,14 41.7,40.3 54,65.9 10.6,8.9 35.5,5.5 30.7,-12.6 0,-30.4 2,-61.5 -1,-91.6 -4.8,-6.2 -13.4,-5.5 -20.2,-5.5 z"
   style="fill:#f7768e;fill-opacity:1" />
		</g>
		<g
   id="g1851"
   style="fill:#e0af68;fill-opacity:1">
			<path
   id="path5937"
   class="st2"
   d="m 1067.1,873.2 c -85.4,2.4 -165.7,55.3 -206.7,128.8 -23.6,43.7 -38.3,103.5 -6.8,147.2 36.2,52.3 109,61.2 167.7,50.2 85.1,-15.4 159.9,-77.5 190.3,-158.5 17.4,-45.8 12,-106.6 -30.1,-136.3 -31.1,-26.3 -74.1,-33.8 -114.4,-31.4 z m 7.5,31.8 c 27.3,-2.7 53.3,20.5 48.2,48.9 -2.7,49.5 -21.2,97.4 -44.4,140.8 -20.5,37.6 -55.3,78.9 -102.8,75.8 -26,0.7 -44.4,-24.3 -42.4,-49.2 6.8,-64.6 30.7,-130.2 72.4,-180 17.7,-20.3 41.3,-36.7 69,-36.3 z"
   style="fill:#e0af68;fill-opacity:1" />
			<path
   id="path5889"
   class="st2"
   d="m 1838.1,971.9 c -36.9,7.5 -74.8,8.9 -111.7,14 -8.9,7.9 -6.5,30.1 8.9,28 7.5,0.3 23.9,0 14.3,12.6 -15.4,53.6 -39.3,105.9 -53,160.2 5.1,15.7 28.7,5.1 40.7,8.2 14.7,-4.1 42.7,9.6 45.4,-11.3 19.5,-56 41.7,-116.5 89.2,-154.1 4.8,-3.8 21.2,-14 21.9,-5.1 -16.4,44.1 -39.3,85.1 -47.1,131.9 -4.4,24.3 18.1,44.1 41.7,42.4 43.4,3.8 78.9,-28 100.1,-62.5 5.1,-13.3 -13.3,-19.8 -23.2,-18.8 -11.6,9.9 -19.5,24.6 -32.5,31.8 13.7,-43.7 40.3,-84.4 46.5,-130.2 5.5,-26.6 -18.1,-51.6 -45.1,-47.5 -39.6,-5.1 -73.1,21.2 -97.7,48.9 2.7,-15.4 19.5,-31.8 11.3,-47.1 -3.2,-1.4 -6.3,-1.7 -9.7,-1.4 z"
   style="fill:#e0af68;fill-opacity:1" />
			<path
   class="st2"
   d="m 1668.3,976.4 c -15,-6.5 -31.8,-4.4 -47.8,-4.4 -71.7,7.9 -139.4,64.9 -151.7,137 -6.1,33.5 9.9,69.7 42.4,81.6 50.2,22.9 113.8,6.8 147.2,-36.6 7.9,-8.2 23.6,-26.3 6.8,-34.2 -12.6,-10.2 -28.4,-2.7 -35.2,10.2 -15,18.1 -47.1,34.5 -67.3,15 -6.1,-8.9 -7.2,-23.2 -2.7,-32.1 50.2,-8.2 107.6,-22.9 136,-69 16.4,-24.8 1.4,-60.3 -27.7,-67.5 z m -42,72.4 c -5.1,6.8 -15.7,17.1 -18.8,17.8 -0.7,0.3 -2,1 -3.4,2 -2,1.7 -14.7,8.5 -19.5,10.2 -1,0.3 -4.4,1.7 -7.2,3.1 -2.7,1.4 -7.2,2.7 -9.6,3.1 -2.4,0.7 -5.5,1.4 -6.8,1.7 l -2.4,0.7 2,-5.5 c 1,-3.1 2.4,-6.8 2.7,-8.2 0.3,-1.4 1.7,-5.5 3.4,-8.9 1.7,-3.4 3.1,-6.8 3.1,-7.5 0,-0.7 0.3,-1.7 1,-2.4 0.7,-0.7 2.7,-4.4 4.8,-8.5 2,-4.1 4.4,-8.9 5.5,-10.2 2,-4.1 8.9,-13.3 11.6,-16.7 1.4,-1.4 4.1,-4.8 6.5,-7.5 2.4,-2.4 4.8,-4.4 5.5,-4.4 0.7,0 1.7,-1 2.4,-2 1.4,-2.4 15.4,-8.2 20.2,-8.2 5.1,0 10.6,2.7 12.3,6.1 4.1,8.8 -2,30.3 -13.3,45.3 z"
   id="path1847"
   style="fill:#e0af68;fill-opacity:1" />
			<path
   class="st2"
   d="m 1465.1,1005.4 c -18.4,-38.9 -73.5,-42 -107.6,-23.2 -4.4,1.7 -14,6.8 -17.1,9.2 6.1,-10.9 1.7,-22.5 -12.6,-19.5 -35.9,6.1 -72.4,9.2 -108.6,13.3 -1.4,17.4 -2.7,34.2 19.8,29.7 9.2,-1 13.3,4.4 7.2,12.6 -21.5,71.4 -44.8,143.5 -69,214.5 -3.4,15.4 -18.4,14.3 -30.7,15.4 -11.6,6.1 -8.5,32.8 7.9,28.7 45.4,0.3 91.9,2.7 137,-1.4 10.6,-8.9 5.1,-33.1 -12,-28.4 -9.2,-0.3 -24.3,-0.7 -17.1,-14.3 3.8,-15.7 9.9,-33.1 15.4,-47.1 56.4,19.5 116.5,-13.3 151.7,-56.4 29.5,-35.4 53.4,-87 35.7,-133.1 z m -78.3,52.6 c -1.4,5.1 -3.1,10.9 -3.8,13.3 -0.7,2.4 -2,6.5 -3.4,9.6 -1.4,3.1 -2.7,7.2 -3.1,8.9 -0.3,1.7 -1.7,4.8 -2.7,6.5 -1,2 -4.4,8.9 -7.5,15.4 -3.1,6.5 -6.5,12.6 -7.2,13.3 -0.7,0.7 -1.7,1.7 -1.7,2.4 0,1.4 -8.5,14.3 -10.6,16.1 -1,0.7 -1.7,1.7 -1.7,2.4 0,1 -11.3,12.6 -16.7,17.4 -1.7,1.4 -6.5,4.4 -10.6,6.5 -7.2,3.8 -7.9,3.8 -17.4,3.8 -8.9,0 -10.6,-0.3 -13,-2.4 -5.8,-4.4 -6.5,-6.1 -6.5,-12 0,-5.5 3.4,-18.1 8.2,-31.4 1,-2.7 3.1,-8.2 4.1,-12.3 1.4,-4.1 2.7,-7.9 3.1,-8.2 0.3,-0.7 1.7,-4.1 3.1,-8.2 1,-3.8 3.1,-8.5 4.1,-10.2 1,-1.7 2,-3.8 2,-4.8 0,-1.7 5.5,-14.7 10.2,-23.9 1.7,-3.4 3.1,-6.5 3.1,-6.8 0,-1.4 8.2,-13 12.6,-17.4 5.8,-6.1 18.8,-16.4 20.5,-16.4 0.7,0 1.7,-0.3 2,-0.7 1.7,-1.7 12,-4.4 16.7,-4.4 6.5,0 14,4.1 17.1,9.6 3.2,4.9 2.9,21.6 -0.9,33.9 z"
   id="path1849"
   style="fill:#e0af68;fill-opacity:1" />
		</g>
	</g>
</g>
</svg>
