<?xml version="1.0" encoding="UTF-8" standalone="no"?>
<!-- Generator: Adobe Illustrator 25.2.1, SVG Export Plug-In . SVG Version: 6.00 Build 0)  -->

<svg
   version="1.1"
   id="Layer_1"
   x="0px"
   y="0px"
   viewBox="0 0 3840 2160"
   style="enable-background:new 0 0 3840 2160;"
   xml:space="preserve"
   sodipodi:docname="puflogv.svg"
   inkscape:version="1.1.1 (3bf5ae0d25, 2021-09-20)"
   xmlns:inkscape="http://www.inkscape.org/namespaces/inkscape"
   xmlns:sodipodi="http://sodipodi.sourceforge.net/DTD/sodipodi-0.dtd"
   xmlns="http://www.w3.org/2000/svg"
   xmlns:svg="http://www.w3.org/2000/svg"><defs
   id="defs2252" /><sodipodi:namedview
   id="namedview2250"
   pagecolor="#505050"
   bordercolor="#eeeeee"
   borderopacity="1"
   inkscape:pageshadow="0"
   inkscape:pageopacity="0"
   inkscape:pagecheckerboard="0"
   showgrid="false"
   inkscape:zoom="0.25190679"
   inkscape:cx="1333.8267"
   inkscape:cy="617.29181"
   inkscape:window-width="1920"
   inkscape:window-height="1060"
   inkscape:window-x="1920"
   inkscape:window-y="20"
   inkscape:window-maximized="1"
   inkscape:current-layer="Layer_1" />
<style
   type="text/css"
   id="style2055">
	.st0{fill:#454E5F;}
	.st1{fill:#BF616A;}
	.st2{fill:#EACA8B;}
	.st3{fill:#EBEDF1;}
</style>
<rect
   style="fill:#24283b;stroke-width:5.46313"
   id="rect5602"
   width="3840"
   height="2160"
   x="0"
   y="0" /><g
   id="g2247">
	<g
   id="g2083">
		<path
   class="st0"
   d="m 2536.6,1725.4 c 0.2,-6.4 -1.8,-11.9 -7.3,-16 -1.6,-1.1 -3.7,-1.8 -5,-3.2 -4.6,-4.8 -10.3,-6.6 -16.5,-6.6 -10.1,-0.2 -20.1,0 -30.4,0 5,-3.9 10.1,-7.3 14.6,-11 6.2,-4.8 11.4,-10.7 16,-17.1 5,-7.3 9.1,-15.1 11.9,-23.8 2.5,-8.2 5,-16.5 4.6,-25.4 -0.7,-8.9 0.9,-17.8 -1.4,-26.7 -2.3,-8.2 -4.8,-16.5 -9.4,-23.8 -3.4,-5.7 -8,-11 -12.1,-16.5 -6.4,-8 -14.9,-13.7 -23.8,-19 -4.8,-2.7 -9.8,-5 -14.9,-7.1 -5.9,-2.3 -11.9,-4.6 -18.1,-6.2 -4.6,-1.4 -9.4,-2.1 -14.2,-2.5 -11.4,-1.1 -23.1,-3 -34.5,-3 -30.2,-0.5 -60.1,-0.2 -90.3,-0.2 -1.6,0 -3.2,-0.5 -4.8,-0.9 -3.9,-1.4 -7.5,-2.7 -11.7,-2.3 -3,0.2 -5.9,0 -9.1,0 -5,0 -9.4,1.8 -13.3,5 -0.7,0.5 -1.8,0.9 -2.5,0.7 -5.9,-1.1 -11.9,-2.7 -17.8,-3.9 -5.7,-0.9 -11.4,-1.6 -17.1,-1.8 -7.8,-0.5 -15.5,0.5 -23.5,1.4 -7.3,0.9 -14.2,2.7 -21.3,4.8 -6.4,1.8 -12.3,5 -17.6,8.9 -5,3.9 -9.6,8.5 -14.2,12.8 -2.1,2.1 -3.4,4.6 -5.3,7.1 -6.2,-8.9 -14.4,-15.1 -23.8,-19.7 -9.6,-4.6 -19.4,-7.3 -29.9,-9.1 -13.7,-2.3 -27.7,-3 -41.4,-3 -26.7,-0.2 -53.5,0 -80.5,0 -4.1,0 -8.2,0.7 -12.1,1.1 -7.3,0.9 -15.8,9.6 -14.9,18.1 0.2,2.3 0.2,4.8 0,7.1 -0.2,3.9 0.5,7.1 2.7,10.3 2.7,4.3 6.4,7.5 11.4,8.7 3,0.7 6.2,0.7 9.1,0.9 1.6,0 2.5,0.5 2.5,2.1 0,11 0,22.2 0,33.1 -0.7,-0.9 -1.4,-2.1 -1.6,-3.2 -1.1,-8.5 -6.2,-14.6 -12.8,-19.2 -12.1,-8.5 -26.1,-9.1 -40,-6.9 -6.6,0.9 -13,3.4 -19.7,5.3 -4.1,-3.9 -9.4,-6.4 -15.8,-5.7 -4.1,0.5 -8.2,1.1 -12.3,1.6 -7.8,0.9 -15.5,2.1 -23.3,2.7 -8.2,0.9 -16.2,1.6 -24.5,2.1 -3.9,0.2 -7.3,1.1 -10.5,3.4 -1.4,0.9 -2.5,0.9 -3.9,0 -5,-4.1 -11,-6.2 -16.9,-8 -11.4,-3.2 -23.1,-3 -34.7,-1.1 -11.2,1.8 -21.9,5 -32,10.7 -4.8,2.7 -9.4,5.5 -13.9,8.7 -4.6,3.2 -8.7,6.6 -13.3,10.1 -0.7,-1.4 -1.4,-2.7 -1.8,-3.9 -2.5,-6.4 -7.1,-11.4 -12.6,-15.5 -10.1,-8 -22.2,-10.7 -34.7,-11.2 -7.3,-0.2 -14.6,0.7 -21.7,3.2 -1.1,0.5 -3,0.2 -4.1,-0.5 -3.9,-2.3 -8.2,-3.2 -12.6,-2.7 -9.1,1.1 -18.1,2.7 -27.2,4.1 -5.3,0.7 -10.7,0.9 -16,1.4 -1.4,0 -2.3,-0.2 -2.7,-2.1 -1.6,-7.8 -5,-14.6 -9.6,-21 -5.7,-7.8 -12.6,-14.4 -20.8,-19.4 -9.1,-5.7 -19,-9.8 -29.5,-12.3 -6.2,-1.6 -12.6,-3 -19.2,-3 -9.6,0.2 -19.2,-0.7 -28.6,0.5 -8.9,0.9 -17.4,3.4 -26.1,5.9 -13.5,3.7 -25.8,10.3 -37.7,17.8 -10.3,6.6 -19.7,14.6 -27.9,23.5 -6.6,7.3 -13,14.6 -18.1,23.3 -3.2,5.7 -6.6,11.4 -9.1,17.6 -2.5,5.7 -4.3,11.9 -5.9,17.8 -1.6,5.9 -2.7,12.1 -3.2,18.3 -0.7,10.3 -0.2,20.6 3.7,30.4 3,7.8 6.9,14.9 12.3,21 2.1,2.3 3.9,4.6 6.4,7.3 -2.1,0 -3.7,0 -5,0 -7.1,0.2 -14.4,-0.9 -21.3,1.6 -6.2,2.3 -10.7,6.2 -12.6,12.6 -1.1,3.9 -0.9,8.2 -1.1,12.3 -0.2,5.5 1.6,10.3 5.9,14.2 2.5,2.1 5.3,3.9 7.8,6.2 4.1,3.7 8.9,5.3 14.2,5.3 49.4,0 99,0 148.3,0 0.9,0 2.1,-0.2 3,0 0.9,0.2 1.8,0.9 2.3,1.6 1.1,1.8 1.8,3.9 3,5.7 3.7,5.7 9.4,8.5 16,8.5 25.4,0.2 50.7,0.2 75.9,0 8.2,0 14.6,-3.9 17.8,-11.7 1.4,-3.4 3.2,-4.3 6.6,-4.3 301.2,0 602.5,0 903.7,0 1.4,0 2.7,0 4.1,0 7.1,-0.2 14.4,-5.3 17.4,-12.1 2.5,-4.8 1.8,-9.6 1.8,-14.2 z M 1480.7,1572.5 c -0.5,6.9 -1.4,13.9 -3.2,20.8 -2.7,10.5 -6.2,20.8 -9.8,30.9 -2.7,7.1 -6.6,13.9 -10.3,20.8 -3.9,7.5 -9.1,13.9 -15.1,20.1 -5.5,5.5 -11.7,9.1 -19.4,10.3 -6.4,0.9 -11.9,-0.9 -11.2,-8.9 0,-0.9 0,-1.8 0,-2.7 -0.2,-8.9 2.3,-17.4 4.6,-25.6 1.4,-5.3 3,-10.7 5,-15.8 3.9,-9.1 7.8,-18.3 12.6,-26.7 3.9,-7.1 8.7,-13.7 13.9,-19.7 5.7,-6.6 12.8,-11.7 21.9,-12.3 7.3,-1.2 11.4,0.8 11,8.8 z m 34.7,136.5 c -2.7,-2.3 -5,-4.3 -7.5,-5.9 -2.5,-1.6 -5.7,-2.3 -8.5,-3.4 8.2,-6.6 16.7,-13 25.6,-20.1 -3.4,9.7 -6.4,19.1 -9.6,29.4 z m 140.8,-9.9 c 4.6,-4.1 8.5,-7.8 12.6,-11.4 2.5,3.9 4.8,7.5 7.3,11.4 -6.4,0 -12.8,0 -19.9,0 z m 141,-47.7 c 2.3,-1.6 4.1,-3 6.4,-4.8 -2,7.3 -2,7.3 -6.4,4.8 z m 68.6,47.7 c 0.7,-2.1 1.4,-3.9 2.3,-6.2 0.7,2.3 1.4,4.1 2.1,6.2 -1.7,0 -2.8,0 -4.4,0 z m 105.1,-44.1 c -3.4,-1.8 -6.9,-3.4 -10.1,-5.3 -2.1,-1.1 -0.5,-2.7 0,-4.1 2.5,-7.1 5.3,-14.4 7.8,-21.5 0.7,-2.3 0.9,-4.6 1.4,-6.9 0.2,-0.7 0.5,-1.4 0.7,-1.8 h 0.2 c 0,13.1 0,26.4 0,39.6 z m 89.9,-89.6 c 0.5,-0.2 0.7,-0.5 1.1,-0.5 0.7,1.4 2.3,2.7 2.3,4.1 0.2,5.3 0.2,10.5 0,15.8 0,0.9 -1.6,1.8 -2.5,3 -0.2,-0.2 -0.7,-0.2 -0.9,-0.5 0,-7.2 0,-14.6 0,-21.9 z m 10.5,100.1 c -1.4,3 -3.7,4.6 -6.6,5.3 -3.4,0.9 -4.3,0 -4.3,-3.4 0,-8.7 0,-17.4 0,-26.1 0,-0.9 0,-2.1 0.2,-3 6.6,0.2 11.2,4.3 12.1,11.9 0.9,5.3 1.1,10.3 -1.4,15.3 z m 69.9,-56 c 2.5,-3.2 3.2,-3.2 4.8,0 0.9,1.8 2.1,3.7 2.7,5.9 -2.5,-2 -4.7,-3.8 -7.5,-5.9 z m 10.1,8.3 z m 86.1,56 c -5.5,1.6 -11,2.1 -16.7,1.1 -8.5,-1.4 -15.8,-4.6 -21.5,-10.7 -5,-5.5 -8.7,-11.7 -11,-19.7 3.9,1.6 6.9,2.7 9.8,3.9 5.7,2.3 11.4,4.3 17.1,6.9 8.5,3.4 16.7,7.1 24.9,11 0.9,0.5 2.1,2.1 2.1,3 -0.1,2.4 -2.2,3.8 -4.7,4.5 z m -23.7,-109.1 c 7.5,-5.3 15.3,-3.4 23.1,-1.4 8.5,2.3 20.3,13.9 21.9,21.5 -15.1,-6.6 -30.9,-11.4 -45,-20.1 z m 94.1,51 c -3.7,-4.1 -7.3,-7.8 -10.3,-11 3.2,-2.1 6.6,-4.1 10.3,-6.4 0,5.5 0,11.2 0,17.4 z m 123.9,6.2 c -0.7,10.3 -1.4,20.6 -5.5,30.2 -4.8,11 -13,16.9 -24.7,18.3 -3.9,0.5 -4.3,0 -4.3,-3.7 0,-16.2 0,-32.5 0,-48.9 0,-16.5 0,-32.7 0,-49.1 0,-3.4 0,-3.7 3.4,-3 5.5,1.1 10.5,2.7 14.9,6.6 5.9,5.3 9.8,11.7 12.1,19.2 3.2,10 4.8,20.1 4.1,30.4 z"
   id="path2057" />
		<g
   id="g2081">
			<path
   class="st1"
   d="m 1588.1,1727.9 c 1.4,-3.4 2.3,-6.2 3.4,-8.9 0.2,-0.5 0.9,-0.7 1.6,-0.9 0.9,-0.2 2.1,0 3,0 302.4,0 604.8,0 907.4,0 1.4,0 2.5,0 4.6,0 -1.1,3.4 -2.1,6.4 -3.2,9.1 -0.2,0.5 -1.1,0.7 -1.6,0.7 -0.9,0 -1.6,0 -2.5,0 -302.6,0 -605,0 -907.6,0 -1.7,0 -2.8,0 -5.1,0 z"
   id="path2059"
   style="fill:#f7768e;fill-opacity:1" />
			<path
   class="st1"
   d="m 1325.7,1727.9 c 1.4,-3.4 2.3,-5.9 3.4,-8.7 0.2,-0.5 0.9,-0.9 1.6,-1.1 0.7,-0.2 1.4,0 2.3,0 52.6,0 105.4,0 157.9,0 1.1,0 2.1,0 3.7,0 0.2,3.7 -1.1,6.6 -2.5,9.4 -0.2,0.5 -1.6,0.5 -2.5,0.5 -6.4,0 -12.6,0 -19,0 -46.9,0 -93.7,0 -140.3,0 -1.6,-0.1 -2.7,-0.1 -4.6,-0.1 z"
   id="path2061"
   style="fill:#f7768e;fill-opacity:1" />
			<g
   id="g2069"
   style="fill:#f7768e;fill-opacity:1">
				<path
   class="st1"
   d="m 2289.1,1532.7 c 0,17.1 0,33.8 0,51 -2.3,0 -4.6,0.5 -6.6,-0.2 -1.1,-0.2 -1.8,-2.1 -2.5,-3.2 -3,-5.3 -5.3,-11 -8.9,-15.8 -5.7,-8.2 -13.3,-14.6 -22.4,-19 -9.4,-4.3 -19,-6.6 -29.3,-5.7 -7.3,0.7 -14.4,2.7 -20.1,7.3 -6.2,4.8 -8.2,11.7 -7.3,19.4 0.9,7.1 5.3,11.7 11,15.1 6.2,3.7 12.8,6.6 19.9,9.1 7.1,2.5 13.9,5.9 21,8.7 6.6,2.7 13.5,4.8 19.9,7.8 5.5,2.5 10.5,5.7 15.3,9.1 4.1,2.7 7.3,6.4 10.3,10.3 3.9,5 5.9,10.5 7.5,16.5 1.8,6.6 1.4,12.8 -0.7,19.4 -2.1,7.3 -5.7,13.5 -11,18.7 -6.2,6.4 -13.3,11.2 -21.7,13.7 -5.3,1.6 -10.7,3.4 -16.2,4.8 -3.4,0.9 -7.1,1.4 -10.7,1.6 -8.2,0.2 -16.5,0.7 -24.7,0 -7.3,-0.7 -14.4,-2.5 -21.7,-3.9 -4.8,-0.9 -9.4,-2.5 -13.9,-3.4 -4.3,-0.7 -8.7,0 -10.5,5.3 -0.9,2.3 -6.6,3.9 -8.5,2.3 -0.5,-0.5 -0.7,-1.6 -0.7,-2.5 0,-12.8 0,-25.6 0,-38.4 0,-5 0,-10.3 0,-15.3 0,-1.8 0.7,-2.5 2.5,-2.5 5.7,0.2 5.3,-1.1 7.1,5.5 2.3,7.5 5.7,14.4 10.1,21 5.5,8 12.3,14.2 21,18.5 9.4,4.8 19.9,6.4 30.4,6.2 8,-0.2 15.5,-2.1 22.6,-5.7 7.3,-3.9 13,-15.8 11.4,-24.2 -1.4,-7.8 -5.9,-12.6 -12.6,-16.5 -10.7,-6.2 -22.6,-9.6 -33.8,-14.4 -9.6,-3.9 -19.2,-8 -28.3,-12.8 -10.3,-5.5 -19.7,-12.6 -24.9,-23.5 -1.4,-3 -2.7,-6.4 -3,-9.8 -0.9,-10.1 0.2,-20.1 5.7,-28.8 3.9,-5.9 8.9,-11 15.3,-14.9 11.7,-7.1 24.2,-9.6 37.5,-10.1 9.1,-0.2 18.5,-0.5 27.4,1.6 5.7,1.4 11.2,3.4 16.9,4.3 4.3,0.9 8.9,0.9 13.3,0.7 1.4,0 3.2,-2.5 3.9,-4.1 0.9,-2.3 1.8,-2.7 4.1,-2.7 2,-0.5 3.8,-0.5 5.9,-0.5 z"
   id="path2063"
   style="fill:#f7768e;fill-opacity:1" />
				<path
   class="st1"
   d="m 2131.4,1627.1 c -3.7,-3 -7.8,-5.7 -12.1,-7.5 -6.2,-2.7 -12.6,-4.8 -19.2,-6.9 -3.7,-1.1 -7.5,-1.8 -11.7,-2.7 1.1,-0.5 1.8,-0.7 2.5,-0.9 8,-1.8 15.8,-4.1 23.1,-7.5 6.4,-3.2 12.1,-7.1 15.5,-13 5,-8.2 5.5,-17.4 1.1,-26.5 -4.6,-9.8 -13.3,-14.9 -22.6,-18.5 -4.8,-1.8 -10.1,-2.5 -14.9,-3.9 -9.8,-2.7 -19.9,-3.2 -29.7,-3.4 -31.8,-0.2 -63.5,0 -95.5,0 -0.9,0 -1.8,0 -3,0.2 0,2.1 0,3.9 0,5.7 4.1,0.5 8.2,0.7 12.3,1.1 3.9,0.7 7.5,2.1 10.1,5.3 3,3.7 3.7,8 3.7,12.6 0,36.6 0,73.1 0,109.7 0,1.1 0,2.3 0,3.7 -0.9,8 -3.2,13.7 -12.8,14.9 -4.6,0.5 -8.9,1.6 -13.3,2.5 -0.7,5.5 -0.7,5.5 4.8,5.5 30.4,0 60.8,0 91.4,0 7.1,0 14.2,-0.9 21.3,-1.6 2.3,-0.2 4.6,-0.7 6.9,-1.1 5.9,-1.1 12.1,-2.1 17.8,-3.7 6.9,-2.1 13.3,-5 19.2,-9.1 7.3,-5 13,-11.4 16,-19.9 4.6,-13.5 -1.3,-27 -10.9,-35 z m -92.8,-71.5 c 0,-1.8 0.2,-3.9 0.7,-5.7 0.7,-3 4.8,-6.6 8.7,-6.6 7.8,-0.2 15.5,-0.9 22.9,2.7 4.1,2.1 7.5,5 9.8,8.9 4.6,7.8 4.3,16.2 3.9,24.9 -0.2,3 -0.7,5.7 -1.1,8.7 -1.6,7.8 -6.4,12.6 -13.7,15.5 -9.4,3.9 -19.2,3.2 -29,4.3 -2.1,0.2 -2.1,-1.1 -2.1,-2.7 0,-8.7 0,-17.1 0,-25.8 -0.1,-8 -0.1,-16.2 -0.1,-24.2 z m 53.5,107.4 c -1.1,8 -4.3,14.9 -11,19.9 -4.6,3.7 -10.1,5.7 -15.8,6.2 -4.8,0.5 -9.8,0.2 -14.6,0 -9.1,-0.5 -11.9,-5 -12.1,-13.5 -0.2,-9.6 0,-19.2 0,-28.8 0,-9.6 0,-19.2 0,-28.8 0,-2.3 0.7,-3.2 3,-3 8.9,0.9 17.8,0.9 26.5,3 8.2,1.8 15.3,6.4 19.7,14.4 5.2,9.6 5.9,19.9 4.3,30.6 z"
   id="path2065"
   style="fill:#f7768e;fill-opacity:1" />
				<path
   class="st1"
   d="m 2503,1610.2 c -0.7,-6.2 -1.4,-12.6 -3.4,-18.3 -2.1,-6.2 -5.3,-11.9 -8.7,-17.4 -2.5,-4.1 -5.7,-7.8 -9.1,-11.2 -7.3,-7.1 -16,-12.1 -25.1,-16.5 -3.2,-1.6 -6.6,-2.7 -10.3,-3.7 -5.5,-1.4 -11,-2.3 -16.5,-3.9 -9.6,-2.5 -19.4,-3.2 -29.3,-3.4 -31.5,-0.2 -63.3,0 -94.9,0 -0.9,0 -1.8,0 -3,0.2 0,2.1 0,3.7 0,5.9 3.7,0.5 7.3,0.2 10.7,1.1 3.4,0.9 6.9,2.5 9.8,4.6 3.7,2.5 3.9,6.9 3.9,11 0,22.4 0,45 0,67.4 0,16.2 0,32.5 0,48.5 0,5.5 -2.1,10.3 -6.9,12.8 -4.3,2.1 -9.4,3 -14.2,3.7 -3.7,0.7 -3.9,0.2 -3.7,4.1 0,0.5 0,1.1 0.2,1.8 1.1,0 2.3,0.2 3.7,0.2 30.2,0 60.1,0 90.3,0 4.8,0 9.6,-0.2 14.2,-0.9 6.9,-0.9 13.7,-2.3 20.3,-3.4 2.3,-0.5 4.6,-0.9 6.9,-1.6 4.3,-1.4 8.9,-2.3 13.3,-4.1 6.2,-2.7 12.1,-5.7 17.6,-9.4 5,-3.2 9.8,-7.3 13.9,-11.4 3.2,-3.2 5.5,-7.3 8.5,-11 4.3,-5.7 7.1,-12.6 8.9,-19.4 2.7,-8.3 3.8,-17 2.9,-25.7 z m -51.9,20.6 c -0.2,8.5 -2.3,16.9 -5.3,24.7 -4.6,12.3 -12.3,22.4 -24.7,27.9 -5.7,2.5 -11.4,5 -18.1,4.8 -4.8,-0.2 -9.8,0.5 -14.9,0.5 -4.1,0 -8.5,-0.7 -11,-4.6 -0.7,-0.9 -1.4,-2.1 -1.4,-3.2 -0.2,-5 -0.5,-10.3 -0.5,-15.3 0,-17.1 0,-34.3 0,-51.7 v 0 c 0,-20.1 0,-40.2 0,-60.3 0,-5 1.8,-6.9 6.9,-8.2 9.6,-2.7 19,-1.4 28.3,0.9 11,2.5 19.4,8.7 26.1,17.4 5.3,6.9 8.5,14.9 11,23.1 4.5,14.3 3.9,29.1 3.6,44 z"
   id="path2067"
   style="fill:#f7768e;fill-opacity:1" />
			</g>
			<g
   id="g2079"
   style="fill:#e0af68;fill-opacity:1">
				<path
   class="st2"
   d="m 1806.8,1697.1 c 1.4,-3.4 2.5,-6.4 3.4,-9.4 1.4,-4.1 2.5,-8.5 3.9,-12.6 1.4,-4.1 3,-8.5 4.3,-12.6 3,-8.5 5.9,-16.9 8.9,-25.4 2.1,-5.7 4.1,-11.2 5.9,-16.9 1.4,-4.1 2.5,-8.5 3.7,-12.8 0.7,-2.7 -1.1,-5.7 -4.3,-6.4 -3.7,-0.9 -7.5,-1.1 -11.7,-1.8 0,-1.6 0,-3.7 0,-5.7 19.7,-0.9 39.1,-3.2 59,-6.9 -5.9,15.1 -11.9,29.9 -17.6,44.8 0.2,0.2 0.5,0.2 0.7,0.5 2.5,-3 5,-5.9 7.5,-8.9 4.1,-4.6 8,-9.4 12.3,-13.7 5,-4.8 10.1,-9.6 15.8,-13.7 7.3,-5.5 15.8,-8.9 25.4,-8.7 4.1,0.2 8.5,0 12.6,0.9 5.3,1.1 9.6,4.3 11,9.8 0.9,3.7 1.6,7.8 0.9,11.2 -1.4,6.9 -3.9,13.7 -6.2,20.6 -2.3,6.6 -5,13 -7.5,19.7 -2.7,6.9 -5.9,13.5 -8.7,20.3 -1.1,3 -2.1,5.9 -2.7,8.9 -0.7,3.2 2.7,5.7 5.9,4.3 3.2,-1.6 6.4,-3.7 8.9,-6.2 3.4,-3.4 6.4,-7.3 9.8,-11.4 2.1,0.9 4.3,1.8 7.1,3.2 -5,5.7 -9.8,11.7 -15.3,16.9 -3.2,3.2 -6.6,5.9 -10.5,8.2 -8.9,5.3 -18.3,7.3 -28.6,5.3 -3.2,-0.7 -5.9,-1.4 -8.7,-3.7 -3.9,-3.2 -5,-7.3 -4.6,-11.9 0.5,-4.6 1.6,-9.4 3,-13.7 1.6,-5.7 3.7,-11.2 5.7,-16.9 1.6,-4.1 3.2,-8 4.8,-11.9 2.5,-6.2 5,-12.1 7.5,-18.3 1.1,-2.7 2.3,-5.7 3.4,-8.5 0.7,-2.3 2.3,-4.8 0.2,-7.1 -2.3,-2.5 -5.5,-3.9 -8.7,-2.5 -3.9,1.6 -7.8,3.4 -11.2,5.7 -6.9,4.6 -12.6,10.7 -17.1,17.6 -5.3,8 -10.1,16.2 -14.6,24.7 -3.4,6.4 -6.4,13 -9.1,19.9 -3.2,7.8 -5.7,15.5 -8.5,23.3 -0.2,0.7 -0.9,1.6 -1.6,1.6 -10.8,0.4 -22.2,0.2 -34.4,0.2 z"
   id="path2071"
   style="fill:#e0af68;fill-opacity:1" />
				<path
   class="st2"
   d="m 1789.2,1590.6 c -9.4,-4.8 -20.1,-4.6 -30.2,-3.2 -6.4,0.9 -12.6,2.7 -18.5,5.3 -5.9,2.3 -11.7,5.5 -16.9,8.9 -6.6,4.3 -12.8,9.1 -17.8,15.3 -4.1,5.3 -8.2,10.3 -11.7,15.8 -3.9,6.2 -7.1,13 -8,20.3 -0.7,5.3 -0.9,10.7 -0.9,16 0,2.7 0.9,5.5 2.1,7.8 2.1,4.6 5,8.5 8.9,11.9 3.9,3.7 8.5,5.7 13.3,7.8 7.5,3 15.5,3.9 23.5,3.4 11.7,-0.7 22.4,-4.1 32,-11 8.2,-5.9 14.6,-13.5 21,-21.7 -2.5,-1.1 -4.3,-2.5 -6.6,-3.2 -0.9,-0.2 -2.7,0.2 -3.4,0.9 -3.7,3.4 -6.9,7.3 -10.7,10.7 -4.1,3.9 -8.9,7.1 -14.6,8 -5,0.7 -10.3,0.7 -15.3,0 -4.8,-0.7 -8,-4.1 -10.1,-8.5 -2.3,-5 -1.8,-10.3 -1.6,-15.5 0.2,-5.3 1.8,-6.2 7.1,-7.1 7.1,-1.1 14.2,-2.7 21.3,-4.3 5.3,-1.4 10.3,-2.7 15.1,-5 5.7,-2.5 11.2,-5.9 16.5,-9.1 7.1,-4.6 13.3,-10.3 16.2,-18.3 4.2,-12.2 -0.8,-20.2 -10.7,-25.2 z m -34.2,44.1 c -5.7,3.9 -11.9,6.2 -17.8,8.7 -3,1.4 -6.4,1.6 -10.5,2.5 2.1,-5.5 3.7,-10.5 5.7,-15.3 3.2,-8 7.3,-15.8 12.6,-22.6 4.3,-5.7 9.1,-11 16.2,-12.8 2.5,-0.7 5.5,-0.5 8.2,0.2 3,0.7 4.3,3 4.3,6.4 0,14.6 -7.1,24.7 -18.7,32.9 z"
   id="path2073"
   style="fill:#e0af68;fill-opacity:1" />
				<path
   class="st2"
   d="m 1675.9,1607.3 c -0.9,-3.4 -2.7,-6.9 -4.8,-9.8 -4.1,-5.7 -10.3,-8.5 -16.7,-9.8 -10.5,-2.1 -20.6,-0.9 -30.2,4.1 -7.1,3.7 -13.5,8.5 -19.2,14.4 -1.8,1.8 -3.7,3.9 -5.5,5.7 -0.2,-0.2 -0.5,-0.2 -0.7,-0.5 3.2,-8 6.6,-16.2 9.8,-24.2 -19.2,2.3 -38.2,4.6 -57.1,6.9 0,1.8 0,3.9 0,5.5 4.1,0.5 8,0.9 11.7,1.6 3,0.5 5.3,3.4 4.3,6.4 -1.4,5.3 -2.7,10.3 -4.3,15.5 -1.6,5 -3.2,9.8 -4.8,14.6 -2.7,8.5 -5.3,16.9 -7.8,25.4 -1.8,5.5 -3.7,10.7 -5.5,16.2 -2.7,8.5 -5.5,16.9 -8.2,25.4 -1.4,4.3 -2.7,8.5 -4.3,12.8 -1.6,4.6 -3,9.4 -5,13.9 -1.6,3.9 -4.6,6.9 -9.1,7.3 -3,0.2 -5.9,0.7 -9.1,1.1 0,1.8 0,3.9 0,5.9 24.5,0 48.7,0 73.1,0 0,-2.1 0,-4.1 0,-5.9 -4.3,-0.5 -8.2,-0.9 -12.3,-1.4 -3.7,-0.5 -6.2,-2.7 -6.2,-6.4 0,-1.8 0,-3.7 0.7,-5.3 2.3,-8 4.8,-16 7.3,-23.8 0.9,-2.7 2.1,-5.3 3.2,-8.2 9.1,4.8 18.5,6.2 28.3,4.8 10.1,-1.6 19.7,-4.8 28.1,-10.7 5.7,-3.9 11.7,-8 16.7,-12.8 5.7,-5.3 11,-11.2 14.6,-18.1 2.7,-5.3 6.2,-10.1 8.5,-15.5 4.9,-10.9 7.4,-22.8 4.5,-35.1 z m -39.6,27.6 c -1.6,3.9 -2.3,8 -3.9,11.9 -1.6,3.9 -3.4,7.8 -5.5,11.4 -1.8,3.4 -3.7,7.1 -5.7,10.3 -4.3,7.1 -9.6,13.5 -16.5,18.5 -4.8,3.4 -10.3,5.5 -16.2,4.3 -2.1,-0.5 -4.6,-0.7 -6.4,-1.8 -3.9,-2.7 -4.8,-7.1 -3.2,-11.9 2.3,-7.1 4.6,-14.2 7.1,-21 2.5,-7.3 5.5,-14.4 8.5,-21.5 2.3,-5.3 4.8,-10.3 7.8,-15.1 3.4,-5.7 8.5,-10.1 14.2,-13.3 3.4,-2.1 7.5,-2.7 9.6,-3.4 9.8,0.2 14.4,5 13.9,13 -0.5,6.5 -1.4,12.7 -3.7,18.6 z"
   id="path2075"
   style="fill:#e0af68;fill-opacity:1" />
				<path
   class="st2"
   d="m 1537.1,1565.7 c -3.2,-5.7 -7.3,-11 -12.6,-15.1 -3.4,-2.5 -6.9,-5.3 -10.7,-7.3 -3.7,-2.1 -7.8,-3.4 -11.9,-4.6 -6.2,-1.8 -12.6,-3.7 -19,-4.3 -7.1,-0.7 -14.4,-0.5 -21.5,-0.2 -10.1,0.2 -19.7,3 -29,5.9 -4.1,1.4 -8.2,3.2 -12.1,5 -11.4,5 -21.7,11.7 -31.3,19.7 -8.7,7.3 -16,15.3 -22.6,24.5 -4.8,6.6 -8.9,13.7 -12.1,21.3 -4.1,9.6 -6.6,19.4 -7.5,29.9 -0.9,8.7 0.5,16.9 3.7,25.1 2.3,5.7 6.2,10.5 10.1,14.9 2.3,2.7 5,5 8,6.9 4.6,2.7 9.4,5.5 14.4,7.5 5,2 10.3,3.7 15.5,4.8 8.9,1.6 18.1,2.1 27.2,1.1 3.4,-0.5 6.9,-0.5 10.3,-1.1 8.2,-1.8 16.5,-3.4 24.5,-5.9 6.4,-2.1 12.3,-5.3 18.3,-8.5 9.8,-5.3 18.7,-11.9 27,-19.4 6.4,-5.9 12.3,-12.6 17.4,-19.7 3.2,-4.1 6.4,-8.5 8.7,-13 3,-5.7 5,-12.1 7.5,-18.1 3.2,-7.8 3.7,-16 4.6,-23.5 -1.1,-9.5 -2.5,-18.2 -6.9,-25.9 z m -39,24.9 c -0.7,3.7 -1.6,7.1 -2.5,10.7 -1.4,5.5 -2.7,10.7 -4.6,16 -1.8,5.3 -3.9,10.3 -6.2,15.1 -2.5,5.5 -4.8,11 -7.8,16.2 -3.9,6.6 -8.2,12.8 -12.6,19 -3.2,4.1 -6.6,8.2 -10.5,11.7 -4.3,3.7 -9.1,6.9 -14.2,9.6 -7.1,3.9 -14.6,5 -22.6,4.6 -9.6,-0.7 -18.3,-3.4 -23.3,-12.6 -4.6,-8.2 -5.3,-17.1 -3.7,-26.1 1.1,-6.4 2.1,-13 3.7,-19.4 1.6,-6.2 3.9,-12.3 5.9,-18.5 1.1,-3.4 2.3,-6.9 3.7,-10.1 2.1,-4.8 3.9,-9.4 6.2,-14.2 4.8,-9.8 10.5,-19 17.6,-27.4 5.5,-6.4 11.4,-12.3 18.7,-16.5 10.5,-6.2 21.5,-8.2 33.6,-5.7 5.5,1.1 10.3,3.7 13.9,7.5 4.1,4.1 5.9,9.6 6.9,15.1 0.5,2.1 0.2,4.1 0.5,6.2 0.2,0 0.2,0 0.5,0 -1.2,6.2 -2.1,12.6 -3.2,18.8 z"
   id="path2077"
   style="fill:#e0af68;fill-opacity:1" />
			</g>
		</g>
	</g>
	<g
   id="g2245">
		<path
   class="st0"
   d="m 1555.4,1065.9 c -4.6,0.5 -6.5,2.3 -7.9,6 -4.6,13.4 -9.2,26.8 -14.8,39.8 -4.2,9.7 -12.5,16.6 -21.3,22.7 -18,12.5 -38.8,19 -60.6,19.4 -3.2,0 -6.5,0 -6.5,-4.2 0,-2.3 2.3,-6.5 3.7,-6.9 8.8,-1.8 13.4,-6.9 16.6,-14.3 3.2,-8.3 1.8,-16.6 0.5,-25 -4.2,-22.2 -10.6,-43.5 -19.4,-63.8 -7.9,-17.1 -16.2,-33.8 -25.9,-49.9 -9.7,-16.6 -20.3,-32.8 -32.4,-48.1 -12.5,-15.7 -26.4,-31 -40.7,-44.9 -9.7,-9.7 -21.3,-9.2 -32.8,-1.8 -3.7,2.3 -7.4,2.8 -9.7,-0.9 -1.8,-3.2 -1.4,-6.5 2.3,-9.2 14.8,-11.6 30.5,-21.7 49,-27.7 19.4,-6.5 39.3,-9.2 59.2,-2.3 5.5,1.8 10.6,5.1 15.3,8.3 25.9,17.1 50.9,35.1 74,55.9 8.8,7.9 20.3,5.5 26.8,-6 4.2,-7.4 6.5,-15.3 9.2,-23.1 0.5,-1.4 -1.8,-4.6 -3.2,-5.5 -10.2,-5.5 -20.8,-10.6 -31,-15.7 -4.6,-2.3 -9.2,-4.2 -13.4,-6.5 -1.8,-0.9 -2.8,-3.7 -4.2,-5.5 1.8,-1.4 4.2,-3.7 6,-3.2 10.6,1.4 20.8,3.2 31,4.6 5.1,0.5 9.7,0.5 14.8,0 4.2,-0.5 6.5,-2.8 7.4,-6.9 0.9,-4.1 -0.9,-6.9 -4.2,-8.8 -12,-8.3 -24,-16.2 -36.1,-24.5 -3.7,-2.8 -7.4,-5.1 -11.6,-7.9 -6,-4.2 -6.5,-10.6 -5.5,-17.1 0.9,-5.1 13.4,-9.7 19.4,-7.4 12,5.1 23.6,10.2 35.6,14.8 0.9,0.5 2.3,0.9 3.2,0.9 9.2,2.8 12,0.9 14.8,-7.9 0.9,-3.7 1.4,-7.4 2.8,-10.6 2.3,-6.5 0,-10.2 -5.5,-12.9 -10.2,-4.6 -19.9,-9.2 -30.1,-13.9 -2.8,-1.4 -5.5,-1.8 -4.6,-5.5 0.9,-3.7 3.7,-4.2 6.9,-3.7 9.2,1.4 18,2.8 27.3,3.7 2.8,0.5 5.5,0.5 9.7,0.5 -5.1,-6.5 -9.2,-11.1 -13.4,-16.2 -13.4,-16.2 -29.6,-29.1 -46.2,-42.1 -2.3,-1.8 -4.2,-4.6 -4.6,-6.9 -1.4,-8.8 5.1,-12.5 15.7,-8.3 7.9,3.2 15.3,7.9 22.7,11.6 13.9,6.9 27.3,14.8 43.5,13.9 5.5,-0.5 10.6,-1.8 16.2,-3.2 3.7,-0.9 4.2,-3.2 2.3,-6.5 -4.2,-8.3 -10.6,-14.3 -18,-19.9 -1.4,-0.9 -2.8,-1.8 -3.2,-2.8 -2.3,-3.2 -6,-7.4 -2.3,-10.2 2.3,-1.8 7.9,-0.9 11.1,0.9 7.9,3.7 14.8,8.3 22.2,12 1.8,0.9 4.2,1.8 6.9,1.8 -6,-6.9 -11.6,-13.9 -17.6,-20.3 -10.2,-11.1 -20.3,-22.2 -30.5,-32.8 -3.7,-3.7 -3.7,-9.7 -0.5,-13.4 0.5,-0.5 0.9,-0.9 1.4,-1.4 6,-7.4 6,-7.9 15.3,-4.6 6,2.3 12.5,5.5 17.1,9.7 12.9,11.6 27.3,21.3 42.5,29.6 3.7,1.8 10.2,4.6 12.5,2.8 5.5,-3.2 7.4,-10.2 6.5,-16.6 -1.8,-11.6 -7.9,-21.7 -14.3,-31 -9.2,-12.5 -19.4,-24 -29.1,-36.1 -4.2,-5.1 -4.2,-9.2 0,-12.9 3.2,-3.2 7.9,-2.3 12,1.8 11.1,10.6 22.2,21.7 33.8,32.4 7.9,7.4 17.6,12 28.2,14.3 5.5,1.4 10.2,0.5 13.9,-2.8 1.8,-1.4 3.2,-5.5 2.3,-7.4 -3.7,-10.2 -8.3,-20.3 -12.5,-30.5 -0.9,-2.8 -2.8,-5.5 -3.2,-8.3 -0.5,-2.3 0.5,-5.1 1.8,-6.5 2.8,-2.3 5.5,-0.9 7.9,1.4 4.6,6 9.2,12.5 14.3,18 4.2,4.6 9.2,8.3 14.3,12 2.8,2.3 5.5,0.9 6.5,-2.3 1,-3.2 0.9,-6.9 0,-10.2 -3.2,-12 -6.5,-23.6 -9.7,-35.6 -3.2,-10.2 -7.4,-20.3 -9.7,-30.5 -3.2,-13.9 0,-17.1 14.3,-14.3 1.8,0.5 4.2,2.3 5.1,4.2 5.5,10.2 10.6,20.8 16.6,30.5 5.1,8.8 10.2,17.1 15.7,25.4 4.2,6.5 6,6 11.6,0.9 7.9,-7.9 11.6,-17.1 8.3,-28.2 -6.5,-20.8 -12.9,-41.6 -19,-62.4 -0.9,-2.3 -1.4,-5.1 -2.3,-7.4 -0.9,-2.8 -2.8,-6 1.4,-7.9 3.7,-1.8 7.9,-2.8 11.1,1.8 5.5,8.8 11.6,17.6 17.1,26.4 6.9,10.6 13.4,22.2 20.8,32.4 6.9,9.2 17.1,14.3 28.7,16.6 4.2,0.9 7.4,-2.8 7.4,-8.3 0,-6.5 -1.4,-12.9 -2.3,-19.9 -0.5,-3.7 -0.9,-6.9 -0.9,-10.6 0,-1.8 1.4,-4.6 2.8,-5.5 2.8,-0.9 6,-0.5 7.4,3.7 3.7,9.7 7.9,19.4 12,29.1 0.9,2.3 2.8,3.7 4.2,6 2.3,3.7 5.5,4.2 8.8,2.8 2.3,-0.9 4.6,-4.6 4.2,-6.5 -0.5,-10.2 -1.8,-20.3 -2.3,-30.1 -0.9,-9.7 -1.4,-19.9 -1.4,-29.6 0,-2.8 2.3,-7.4 4.6,-8.3 2.3,-0.9 6.5,1.4 9.2,2.8 4.2,2.3 6,6.5 7.4,11.6 5.1,17.1 11.6,34.2 17.6,51.3 1.4,4.6 5.1,3.2 8.3,2.8 3.2,-0.5 6.5,-1.8 5.5,-6 -1.4,-11.6 -2.8,-23.1 -4.2,-35.1 -0.5,-2.8 -2.8,-6 1.8,-7.4 3.7,-0.9 7.9,-0.9 9.7,4.2 3.2,8.3 6,17.1 10.2,25 5.1,10.2 6.5,10.2 13.4,0.9 7.9,-9.7 9.7,-21.3 11.6,-32.8 3.2,-17.6 5.1,-35.1 8.3,-53.2 0.5,-2.3 2.8,-5.5 5.1,-6 3.7,-0.5 6.9,1.4 7.9,6 1.4,12.9 3.7,26.4 4.6,39.3 1.4,15.7 3.2,31 8.8,46.2 0.9,2.8 2.8,5.5 4.6,7.9 3.2,3.7 6,3.7 7.9,-0.9 4.6,-11.1 9.2,-22.2 13.4,-33.3 1.4,-4.2 3.7,-5.5 7.9,-4.2 3.7,1.4 4.2,3.2 3.7,6.9 -0.9,12.5 -1.4,24.5 -1.4,37 0,4.2 3.7,6 7.4,6 1.8,0 4.6,-2.8 5.5,-4.6 2.8,-7.9 4.6,-15.7 6.9,-24 1.8,-6 3.2,-11.6 5.5,-17.6 2.3,-6.5 6,-6.9 12.5,-4.2 8.8,4.2 9.2,12 9.7,19.9 1.4,13.9 2.3,27.7 3.2,41.2 0.5,4.6 6,9.2 12.5,10.2 5.1,0.9 7.4,-2.3 8.3,-6 1.8,-7.4 3.2,-14.8 4.6,-22.2 0.5,-2.8 1.4,-6 3.2,-8.3 0.9,-1.4 4.6,-1.8 6,-0.9 1.8,1.4 4.6,4.6 4.2,6.5 -3.2,10.2 0,19.9 0.9,29.6 0,2.8 0.9,5.5 0.9,8.3 0.5,7.4 5.1,11.1 11.6,6.5 7.9,-5.5 15.3,-11.6 21.7,-18.5 12.5,-13.4 21.3,-29.1 26.8,-46.7 1.8,-5.1 9.2,-7.4 13.4,-4.6 3.2,1.8 2.8,4.6 1.8,7.9 -5.5,19.4 -11.1,38.8 -15.7,58.3 -1.8,7.9 -0.9,16.6 -0.9,25 0,5.5 5.1,7.9 9.7,4.6 8.3,-6.5 16.6,-13.4 24.5,-20.3 3.2,-2.8 6,-5.5 10.2,-2.3 3.7,2.8 3.2,8.8 0,12.5 -6.5,7.4 -12.9,14.3 -19,22.2 -3.7,4.2 -1.8,8.3 3.7,11.1 5.1,-6.5 10.2,-12.9 15.3,-19.4 1.4,-1.4 2.3,-3.7 4.2,-4.6 3.2,-0.9 6.9,-2.3 9.7,-1.4 1.8,0.5 3.2,5.5 2.8,7.9 -1.8,7.4 -4.6,14.3 -7.4,21.3 -1.8,4.6 -4.2,9.2 -4.6,14.3 -0.5,3.2 0.9,7.9 2.8,9.7 1.8,1.8 6.5,2.3 9.2,1.4 6.5,-1.8 12.5,-5.1 19,-7.9 1.8,-0.9 3.7,-2.3 6,-2.8 2.8,-0.5 6.9,-0.9 8.8,0.5 2.3,2.8 1.4,6.5 -1.4,9.2 -5.1,4.2 -9.7,8.3 -14.8,12.5 -1.4,1.4 -2.8,2.8 -3.7,4.2 -0.9,1.8 -1.8,5.5 -0.9,6 1.8,1.8 5.5,4.2 7.9,3.7 22.7,-5.1 43.9,-13.4 63.8,-25.4 6,-3.7 12.5,-7.4 18,-11.6 4.6,-3.7 6.9,-1.4 10.2,1.8 3.2,3.2 3.7,6.5 0.5,10.2 -9.7,11.1 -19.9,21.7 -29.6,32.8 -9.7,11.1 -19,23.1 -24,37.5 -4.2,12 -3.7,13.9 8.8,12.9 10.2,-0.5 20.3,-3.2 30.5,-4.6 3.2,-0.5 8.3,-0.5 9.2,1.4 2.3,4.2 -2.8,6 -5.1,7.4 -9.2,5.1 -18.5,10.2 -27.7,14.8 -6,3.2 -7.4,5.1 -5.5,12 1.4,5.1 2.3,10.6 5.1,15.3 2.3,4.2 6,7.4 9.7,10.2 8.3,5.5 15.7,12 21.3,20.8 7.4,12 16.2,24 22.7,36.5 5.5,10.2 3.2,13.9 -6.9,19.9 -1.4,0.5 -2.3,2.8 -2.3,4.2 0,3.7 0.9,6.9 0.5,10.6 0,6.5 1.8,11.6 6.9,16.6 11.1,9.7 19,22.2 24.5,35.6 7.4,17.1 14.3,34.7 20.8,52.2 2.8,8.3 4.2,17.1 6,25.9 0.5,2.8 1.8,4.2 5.1,4.6 8.8,0.9 15.3,5.1 19,13.9 4.6,11.1 9.7,22.2 16.2,31.9 3.7,5.5 10.2,9.7 16.2,13.9 4.2,2.8 8.3,1.8 12,-1.4 5.5,-5.1 8.3,-3.7 11.1,3.2 3.2,7.9 -1.4,13.9 -4.6,19.4 -8.3,13.9 -19.4,25 -36.5,26.8 -22.2,2.8 -43.9,4.2 -63.8,-10.2 -8.8,9.2 -17.1,18.5 -25.9,27.3 -9.2,9.2 -19,19 -28.7,27.7 -3.2,3.2 -5.5,5.1 -1.8,9.2 7.9,8.8 14.8,18 22.2,27.3 0.9,0.9 2.8,1.8 2.8,3.2 0.5,2.3 0.9,5.1 -0.5,6.5 -0.9,1.4 -4.6,1.8 -6,0.9 -7.9,-4.6 -15.3,-10.2 -23.1,-15.3 -5.1,-3.2 -10.2,-6 -15.7,-8.3 -4.6,-1.8 -7.4,0.5 -5.5,5.1 2.3,6.9 5.5,13.4 8.8,20.3 1.4,3.2 3.7,6.5 4.2,10.2 0.5,5.5 -3.2,7.4 -8.3,5.5 -7.4,-2.8 -14.8,-5.1 -20.8,-11.1 -0.5,-0.9 -3.7,-0.5 -4.6,0.5 -5.1,5.5 -9.2,12 -7.9,19.4 1.4,5.5 4.6,11.6 8.3,15.7 12,13.9 24.5,26.8 36.5,40.7 1.8,2.3 3.2,5.5 3.7,8.8 0.5,3.2 -1.8,5.1 -5.1,5.5 -6,1.4 -10.2,0 -14.3,-4.6 -9.7,-10.6 -23.1,-14.3 -36.5,-18.5 -6.9,-2.3 -13.9,-4.6 -21.3,-6.5 -2.8,-0.9 -6,-0.9 -8.3,0.5 -6,3.7 -12,8.3 -18,12.9 -2.8,2.3 -3.2,4.6 -1.4,7.9 9.2,15.3 18,31 27.3,46.2 4.2,6.9 3.2,12 -4.2,15.7 -8.3,4.2 -13.4,2.8 -19.4,-4.2 -10.2,-12 -20.8,-24 -31,-36.1 -3.2,-3.7 -6,-3.2 -9.7,-0.9 -11.1,6.9 -22.2,13.9 -33.3,20.8 -1.4,0.9 -2.8,3.7 -2.8,5.5 2.3,24 6.9,47.6 19,69.4 1.8,3.2 2.3,7.4 2.8,11.1 0,1.8 -0.9,4.6 -2.3,5.5 -1.4,0.5 -4.6,-0.5 -5.5,-1.8 -4.6,-4.6 -8.8,-9.7 -13.4,-14.8 -12.9,-13.4 -25.4,-26.8 -38.8,-39.3 -6.5,-6 -15.3,-9.7 -25,-9.2 -4.2,0.5 -6.5,1.8 -5.5,6.9 2.8,13.4 4.6,27.3 6.5,40.7 0.5,4.6 0.9,10.2 -1.4,13.9 -5.5,8.8 -17.1,7.9 -22.7,-2.3 -2.8,-5.1 -4.6,-10.6 -6.5,-16.6 -3.2,-9.2 -6,-18 -9.2,-27.3 -2.3,-6.5 -3.7,-6 -10.2,-5.5 -10.6,0.5 -13.4,7.9 -16.2,15.7 -7.9,23.6 -12.9,47.6 -12.5,72.6 0,2.3 0,5.1 -1.4,6.9 -1.4,1.8 -3.7,3.2 -6,3.7 -0.9,0 -3.2,-2.3 -3.7,-4.2 -7.9,-23.6 -15.7,-46.7 -24,-70.3 -0.9,-2.8 -2.3,-5.5 -3.2,-8.3 -3.7,-10.2 -9.7,-13.9 -20.3,-12.5 -3.2,0.5 -5.1,1.4 -6,5.1 -0.9,6.5 -2.8,12.9 -4.6,19.4 -0.5,0.9 -0.9,2.3 -0.5,3.2 3.7,9.7 -2.8,17.1 -6,25 -1.4,3.2 -3.7,6 -6.9,4.6 -1.8,-0.9 -4.2,-3.7 -4.6,-6 -2.8,-14.8 -5.5,-30.1 -7.9,-45.3 -1.4,-8.8 -2.3,-9.7 -11.1,-10.6 -0.5,0 -0.9,0 -1.8,0 -10.6,-1.8 -10.6,-1.4 -14.3,7.9 -6.9,16.2 -14.3,31.9 -21.3,48.1 -2.8,6.9 -3.7,14.8 -6,21.7 -0.9,2.8 -2.8,6 -5.1,6.9 -1.4,0.5 -4.6,-2.3 -6.9,-3.7 -7.4,-4.6 -3.2,-11.1 -3.2,-17.1 -0.5,-10.6 -0.5,-20.8 -1.8,-31.4 -2.3,-14.3 -5.5,-28.7 -8.3,-43 -1.4,-7.4 -6.5,-10.6 -12.9,-12.9 -5.1,-1.8 -10.6,-2.8 -15.7,-4.6 -3.2,-0.9 -4.6,0.9 -5.5,3.2 -3.2,7.9 -6,15.7 -8.8,24 -1.8,4.6 -3.7,9.7 -5.5,14.3 -1.4,3.2 -3.2,4.6 -6.5,3.7 -0.5,0 -0.9,-0.5 -0.9,-0.5 -15.7,-0.5 -14.3,-2.8 -13.4,-19 0.5,-10.2 2.8,-20.3 4.2,-30.5 0.5,-4.6 0,-7.4 -5.5,-9.7 -13.9,-5.5 -14.3,-6.5 -24,4.6 -8.8,10.2 -15.7,21.7 -23.1,32.8 -5.1,7.9 -9.2,16.6 -13.4,25 -1.8,3.7 -4.2,6.5 -8.3,4.6 -3.7,-1.8 -6,-5.5 -5.1,-10.2 0.5,-3.7 1.4,-7.4 2.3,-11.6 2.3,-15.7 5.5,-31.4 7.4,-47.6 0.9,-9.7 0.9,-19.4 0,-28.7 -0.5,-3.2 -4.2,-6.9 -7.4,-9.7 -7.4,-5.5 -15.7,-11.1 -23.6,-16.2 -0.9,-0.9 -4.2,-0.5 -5.1,0.9 -9.7,9.2 -19.9,18 -24,31.9 -2.8,8.3 -7.9,10.6 -14.8,8.3 -6,-1.8 -7.4,-3.7 -6,-10.2 2.3,-7.9 5.1,-15.3 7.9,-23.1 3.2,-8.8 6.5,-17.6 9.7,-26.4 1.4,-4.2 0.5,-6.9 -2.8,-9.7 -5.5,-4.6 -10.6,-9.7 -16.2,-14.3 -1.4,-0.9 -4.2,-1.4 -5.5,-0.5 -9.7,5.1 -20.3,9.2 -28.7,16.2 -11.6,9.2 -21.3,20.3 -29.6,32.8 -2.3,3.2 -6.5,5.5 -10.2,7.4 -1.4,0.9 -4.6,0 -6,-1.4 -0.9,-0.9 -0.9,-3.7 -0.5,-5.5 5.1,-11.1 11.1,-21.7 15.3,-33.3 7.4,-19.4 17.6,-37.5 20.3,-58.3 0.9,-7.9 -1.8,-14.8 -6.9,-20.3 -1.8,-1.8 -6.5,-2.3 -9.2,-1.4 -7.9,3.7 -15.7,7.9 -23.1,12.5 -4.6,2.8 -7.9,7.4 -12.5,11.1 -1.8,1.4 -5.1,2.3 -7.4,2.3 -1.4,0 -4.2,-2.8 -3.7,-3.7 1.4,-4.2 2.3,-9.2 5.1,-12 11.6,-11.6 19.4,-25 26.4,-39.3 0.5,-1.4 0.5,-3.7 0,-5.1 -7.2,-13.1 -13.7,-27.5 -20.2,-41.8 z"
   id="path2085"
   style="fill:#565f89;fill-opacity:1" />
		<path
   class="st2"
   d="m 2345.6,641.9 c -6,6.5 -12.5,12 -17.6,19 -5.5,7.9 -9.7,16.6 -14.8,25.4 -2.8,-1.8 -6,-6.5 -11.6,-2.8 1.8,4.6 4.2,9.2 6,14.3 11.6,25 20.3,51.3 24.5,78.6 3.2,21.3 1.8,42.5 0.9,64.3 -0.9,21.7 0,43 8.8,63.3 0.5,0.5 0.5,1.4 0.5,2.3 -9.7,2.3 -14.8,9.7 -20.3,16.6 -7.9,10.6 -15.3,22.2 -23.6,32.8 -4.2,5.5 -10.2,9.2 -15.3,13.9 1.4,-11.1 2.3,-21.3 3.2,-31.4 0.5,-4.2 -0.9,-7.9 -0.9,-12 0,-2.8 -0.5,-6 0.5,-8.3 2.3,-4.6 5.1,-8.8 7.9,-13.4 6.9,-11.1 13.4,-22.7 16.2,-35.6 3.2,-17.1 1.8,-33.8 -3.2,-50.4 -0.5,-0.9 -0.5,-1.8 -0.5,-3.2 4.6,0.5 9.7,1.4 14.3,1.8 0.5,-0.5 0.5,-0.9 0.9,-1.8 -2.3,-4.2 -4.2,-7.9 -6.5,-11.6 -16.2,-23.6 -32.4,-47.2 -49,-70.7 -3.7,-5.5 -3.7,-9.7 0.5,-14.8 1.4,-1.8 2.8,-3.7 3.7,-5.5 0.9,-0.9 1.4,-2.3 2.8,-4.6 -2.3,0 -4.2,-0.5 -5.1,0 -31,19 -59.2,41.6 -80,72.1 -8.3,12.5 -13.4,25.9 -13.4,41.2 0,0.9 0,2.3 0.5,3.7 4.6,-1.8 8.8,-3.7 12.9,-5.5 1.8,11.6 3.2,22.2 5.1,33.8 -3.7,0 -7.9,0 -12,0 -1.8,0 -4.2,0 -6,0.9 -1.4,0.9 -2.8,2.8 -3.7,4.2 1.4,0.9 2.8,2.3 4.2,2.8 19.4,4.2 39.3,8.3 56.9,18 14.3,7.9 27.3,16.2 33.8,32.4 7.4,18 6.9,36.1 2.3,54.6 -7.4,32.4 -24,59.6 -44.9,85.1 -5.1,6 -10.6,12 -15.7,18 -0.9,1.4 -1.4,3.2 -1.8,5.1 1.8,0 4.2,0.9 5.5,0.5 9.2,-2.3 15.3,-8.8 20.3,-16.2 7.9,-11.1 15.7,-22.2 23.6,-33.3 0.9,-1.4 2.8,-3.2 4.2,-4.2 7.4,-5.1 10.2,-4.6 12.9,3.2 5.1,14.3 9.2,29.6 14.8,43.9 3.7,9.7 2.8,17.6 -2.8,26.8 -6.5,10.2 -8.8,23.1 -12.5,35.1 -0.9,3.2 0.5,6.9 0.9,10.2 0.9,0 1.8,0.5 2.3,0.5 2.3,-4.6 5.1,-9.2 7.4,-13.9 2.3,-4.6 3.7,-9.7 6.5,-13.9 5.5,-9.2 12.9,-11.1 22.2,-6 14.3,7.4 29.1,6.5 43.9,0.5 18.5,-7.4 32.4,-19.4 38.4,-38.8 4.6,-15.3 5.5,-30.5 -0.9,-45.8 -1.8,-4.2 -3.2,-8.8 -3.7,-13.4 -0.9,-7.4 -0.5,-14.8 4.2,-21.7 10.6,-15.7 14.8,-33.3 11.1,-52.2 -2.3,-11.6 -9.7,-19 -19.4,-24 -5.1,-2.8 -11.1,-4.6 -17.6,-7.4 3.2,-6 6.5,-12.9 10.6,-19 5.1,-7.4 13.4,-6.9 17.6,1.4 13.4,26.4 26.8,52.7 32.4,82.3 3.7,19.9 1.4,39.3 -3.2,58.7 -5.1,20.3 -12,38.8 -25.4,54.6 -11.6,13.4 -24.5,25.9 -37,38.4 -9.7,10.2 -20.3,19.4 -30.1,29.1 -0.9,0.9 -2.3,2.3 -4.2,3.7 -1.8,-6.9 -3.7,-12.9 -5.1,-19 -0.9,-2.3 -1.4,-5.1 -2.8,-6.9 -0.9,-1.4 -3.2,-2.3 -5.1,-3.2 -0.9,1.8 -2.3,4.2 -1.8,5.5 1.8,8.3 4.2,16.6 6.9,25 2.8,7.9 6.5,15.3 9.7,23.6 -9.2,-4.2 -17.6,-8.8 -25.9,-12.5 -5.5,-2.3 -11.6,-4.6 -17.6,-6.5 -1.4,-0.5 -3.2,0.9 -5.1,1.4 0.5,1.8 0.9,4.6 1.8,5.5 1.8,1.8 5.1,2.3 7.4,3.2 7.4,3.2 12.9,15.7 10.2,23.1 -0.5,0.9 -0.5,1.8 -1.4,2.3 -8.3,7.4 -12.9,17.6 -20.8,25.4 -7.9,8.3 -15.3,16.6 -23.6,25 -3.2,3.2 -6.5,6 -10.2,8.8 -10.2,-26.8 -20.3,-53.6 -31.4,-81.4 -2.3,9.7 4.6,43.5 15.3,69.4 8.8,21.3 19.4,42.1 28.2,62 -2.8,-3.7 -6.9,-8.8 -11.1,-13.9 -18,-21.7 -39.8,-38.8 -62.4,-55.5 -6,-4.6 -12.5,-6.9 -19.9,-8.3 -1.8,-0.5 -4.2,0.9 -6.5,1.4 0,0.9 0,1.4 -0.5,2.3 4.6,2.3 8.8,5.1 13.4,6.9 12.9,5.1 20.8,14.8 25.9,27.3 1.4,3.7 2.8,7.9 3.2,11.6 1.8,10.2 1.8,10.2 -7.4,15.7 -18,11.1 -59.6,27.7 -81.8,32.8 -0.9,-5.5 -2.8,-10.6 -2.8,-16.2 -0.5,-17.6 -0.5,-35.1 -0.5,-53.2 0,-4.2 -0.9,-6.5 -4.6,-8.3 -2.8,-1.4 -4.6,-0.9 -5.1,2.3 -0.9,5.1 -1.8,10.2 -1.8,15.3 0.5,17.1 0,34.2 1.8,51.3 2.3,23.6 6.5,46.7 10.2,69.8 0,0.9 0,2.3 -0.9,3.7 -3.7,-11.6 -7.4,-23.1 -11.1,-34.7 -8.8,-27.7 -18,-55.5 -35.6,-79.5 -6,-7.9 -12.5,-15.3 -19,-22.7 -7.9,3.2 -8.3,6 -2.3,10.6 3.2,2.8 6.9,5.1 6.9,10.6 0,1.8 2.3,4.2 3.7,6 9.2,12 16.2,25.4 19,40.7 v 0.5 c 2.3,13.4 0.5,15.7 -12.9,16.6 -15.7,0.9 -31.9,3.2 -47.6,4.2 -8.3,0.5 -16.6,-0.5 -25,-0.9 -3.2,0 -4.2,-1.8 -3.7,-5.1 3.7,-19.4 7.4,-39.3 11.1,-59.2 0.5,-2.3 0.5,-5.1 -0.5,-7.4 -0.5,-1.8 -3.2,-4.6 -4.2,-4.6 -2.3,0.9 -6,2.8 -6.5,4.6 -3.2,15.7 -6.5,31.4 -9.2,47.2 -2.8,17.6 -4.6,35.6 -6.9,53.6 -4.6,-43.9 -19,-84.2 -41.2,-122.5 -4.6,2.3 -4.6,5.1 -2.8,8.8 8.3,19.9 12.9,40.2 11.6,62 -0.5,4.2 -0.9,8.8 -1.4,13.9 -31.9,-6.5 -62,-16.6 -92.9,-27.3 8.3,-17.1 16.6,-33.3 25,-49.5 1.4,-2.3 2.3,-5.1 4.2,-6.9 3.2,-3.7 0.9,-6.5 -1.4,-8.8 -29.1,28.2 -38.4,67 -54.1,103.6 1.8,-16.2 4.2,-30.5 4.6,-45.3 0.5,-15.3 0,-30.5 -1.4,-45.8 -1.8,-14.8 -5.5,-29.6 -8.3,-43.9 -0.9,0 -1.8,0 -2.8,-0.5 -0.9,1.4 -2.3,3.2 -1.8,4.6 0.5,8.3 0.9,17.1 1.8,25.4 1.4,16.2 0.9,31.9 -9.7,45.8 -0.9,1.4 -2.3,2.8 -2.8,3.2 -5.5,-2.3 -10.6,-3.7 -15.3,-6.5 -12,-6.9 -23.6,-14.3 -35.1,-21.7 -6.9,-4.6 -13.9,-9.7 -20.8,-14.3 -2.8,-1.8 -3.2,-3.2 -1.8,-6 4.6,-12.9 12.5,-23.6 22.2,-33.3 3.7,-3.7 7.4,-6.9 10.6,-10.6 1.8,-1.8 2.3,-5.1 3.2,-7.4 -2.8,0 -6,-0.9 -8.3,0.5 -7.4,3.7 -13.9,8.3 -19.4,14.8 -17.1,19.4 -34.7,38.8 -52.2,58.3 -0.9,1.4 -1.8,2.8 -3.2,3.7 3.7,-10.6 7.4,-20.8 11.1,-31.4 9.7,-27.3 16.6,-55.9 21.7,-84.6 0.5,-3.2 0,-6.5 -0.9,-9.7 -0.5,-0.9 -2.8,-2.3 -4.2,-2.3 -0.9,0 -2.8,2.3 -2.8,3.2 -1.8,18.5 -7.9,35.6 -15.7,52.2 -2.3,5.1 -5.5,10.6 -8.3,16.6 -6.5,-5.5 -12.5,-10.6 -18.5,-16.2 -15.7,-14.8 -29.1,-31.4 -40.7,-49.5 -2.3,-3.2 -2.3,-6 -0.5,-9.2 10.2,-17.6 25.4,-29.1 42.5,-38.4 2.8,-1.4 5.5,-2.3 7.9,-4.2 1.4,-0.9 2.3,-2.8 3.7,-4.2 -2.3,-0.9 -4.2,-2.3 -6.5,-2.8 -0.9,-0.5 -2.3,1.4 -3.7,1.8 -12,5.5 -24.5,10.6 -36.5,16.2 -0.5,-0.5 -0.5,-0.9 -0.9,-1.4 4.6,-6.5 9.7,-12.9 13.9,-20.3 5.1,-8.3 9.7,-16.6 13.9,-25.4 2.8,-5.5 -0.9,-9.2 -4.6,-14.3 -15.7,24.5 -30.5,48.6 -45.8,72.1 -9.2,-12.9 -25.9,-48.6 -29.6,-63.3 5.1,1.4 10.2,1.8 14.3,3.7 6.5,2.3 12,6 18.5,8.8 1.8,0.9 5.1,0 6.5,-0.9 2.3,-2.8 1.4,-5.5 -1.8,-7.4 -9.2,-4.6 -18,-9.2 -27.7,-14.3 2.3,-3.7 6,-7.9 8.8,-12.9 4.2,-7.9 8.3,-15.7 11.6,-24 1.8,-4.6 0.5,-7.4 -3.2,-11.1 -1.8,3.2 -3.7,6 -5.1,8.8 -3.2,6.9 -6.5,13.9 -9.7,20.8 -2.8,6 -7.4,11.1 -13.9,14.3 -4.6,-7.9 1.4,-18.5 -6.9,-25 -5.1,4.2 -6.5,9.2 -5.5,15.3 0.9,6 1.8,11.6 2.8,17.6 0.9,4.6 -1.4,6.9 -6,7.4 -9.2,1.4 -9.2,1.8 -11.1,10.6 -6,28.7 -19.9,51.3 -47.2,65.2 -1.4,0.9 -2.8,1.4 -4.2,1.8 -0.9,-8.8 -2.3,-17.1 -2.8,-25.4 0,-1.8 1.8,-4.6 3.2,-5.5 7.9,-4.2 12.5,-11.1 18,-17.6 1.4,-1.4 1.8,-3.7 1.8,-6 -7.9,6.5 -15.7,13.4 -24,20.3 -2.8,-9.2 -5.1,-17.1 -7.4,-25 -1.4,-5.1 0.5,-8.8 4.6,-12 5.5,-3.7 10.6,-8.3 15.7,-12.5 -0.5,-0.9 -0.9,-1.4 -1.8,-2.3 -7.4,4.6 -14.8,9.2 -22.7,13.9 -0.9,-1.8 -1.8,-3.2 -2.3,-4.2 -5.5,-11.6 -5.5,-11.6 5.5,-17.1 4.2,-2.3 8.3,-5.1 12,-7.4 -0.5,-0.9 -0.5,-1.4 -0.9,-2.3 -1.8,0.5 -3.7,0.5 -5.5,1.4 -5.1,1.8 -9.7,4.2 -14.8,5.5 -1.8,0.5 -5.5,-0.5 -6,-1.8 -7.4,-12.9 -13.9,-26.4 -20.8,-39.8 8.3,-3.2 18.5,0.5 25,-7.4 -8.3,0 -16.6,0 -25,0 -6,0 -8.8,-3.2 -8.8,-10.2 10.2,0 20.3,0 30.5,0 0,-0.9 0,-1.4 0.5,-2.3 -4.2,-0.9 -8.3,-2.8 -12.9,-2.8 -5.5,-0.5 -11.1,0.5 -16.6,0.5 -2.8,0 -6.5,-0.9 -7.9,-2.3 -9.2,-12.9 -18.5,-26.4 -28.2,-40.2 15.7,0 31.4,0 47.2,0 0,-0.9 0,-1.8 0.5,-2.8 -4.6,-0.9 -9.2,-2.3 -13.9,-2.3 -10.6,-0.5 -21.3,0.5 -31.9,0 -10.2,-0.5 -16.6,-6.5 -21.3,-16.2 12.5,-2.8 24.5,-5.5 36.5,-8.3 0,-0.9 0,-1.4 0,-2.3 -5.1,0 -10.2,-0.5 -15.3,0 -6.5,0.5 -12.9,1.8 -19.4,2.8 -4.6,0.9 -8.3,0.5 -11.6,-4.2 -3.7,-5.1 -7.9,-9.2 -12.5,-13.9 7.9,-6.9 16.6,-9.2 26.4,-10.6 29.6,-3.7 53.6,8.3 74.4,27.7 13.9,12.9 28.2,25 41.6,37.9 10.2,9.7 21.3,8.3 32.8,3.7 5.5,-2.3 10.6,-6 15.7,-9.2 -0.9,9.7 0,19.4 6.9,29.6 0.9,-3.2 1.8,-4.6 1.8,-6.5 0.9,-15.7 1.4,-31.9 2.3,-47.6 0.5,-6.9 0.9,-13.9 2.8,-19.9 1.4,-4.6 6,-8.3 9.2,-12.5 0.5,-0.5 0.9,-0.5 1.4,-0.5 6.9,3.2 14.3,6 19.9,10.6 2.8,2.3 4.6,5.1 7.9,6.5 2.8,0.9 4.6,2.8 7.9,4.6 3.2,-1.8 2.8,-4.6 0.9,-7.9 -10.2,-18 -24,-32.8 -40.2,-44.9 -15.7,-12 -32.8,-22.7 -49,-33.8 -1.4,-0.9 -2.3,-1.8 -3.2,-3.2 11.1,4.2 22.7,8.3 33.8,12.5 21.3,7.9 43.5,11.1 66.1,9.7 5.1,-0.5 9.7,-2.3 14.8,-3.7 0,-0.9 0,-1.8 0,-2.8 -2.3,-0.9 -4.2,-2.3 -6.5,-2.8 -9.7,-1.4 -19.9,-1.8 -29.6,-2.8 -5.5,-0.5 -10.6,-1.4 -17.1,-2.3 1.8,-7.4 3.7,-14.3 5.1,-21.3 2.3,-8.3 4.6,-17.1 6,-25.4 0.5,-3.2 0,-7.4 -1.4,-10.6 -4.6,-12 -12.9,-21.3 -21.7,-30.5 -4.6,-5.1 -9.7,-10.2 -14.8,-15.3 0.5,-0.5 0.5,-0.9 0.9,-1.4 2.8,0.9 5.1,1.8 7.9,2.8 13.9,5.5 27.7,11.6 43,10.6 4.6,-0.5 9.7,-1.4 13.9,-3.2 12,-6.5 24,-5.5 37,-1.8 9.2,2.8 14.3,8.3 19.4,14.8 1.8,2.3 3.7,4.2 6,6 4.6,-4.2 6,-7.9 3.7,-13.4 -5.5,-13.4 -14.8,-24.5 -24,-34.7 -20.3,-21.7 -41.2,-42.5 -61.5,-63.8 -1.4,-1.4 -2.3,-3.2 -3.2,-5.1 0.5,-0.5 1.4,-0.9 1.8,-1.4 14.3,10.2 28.7,20.3 43.5,30.1 19,13.4 38.4,26.4 61,32.4 5.1,1.4 10.6,2.8 16.2,2.8 2.8,0 5.5,-1.8 8.3,-2.8 0,-0.5 -0.5,-0.9 -0.5,-1.4 -15.7,-6.9 -31.9,-13.4 -48.6,-20.3 2.3,-2.8 4.2,-5.1 6,-6.9 7.9,-7.4 8.3,-17.1 5.5,-26.4 -1.8,-6.5 -5.1,-12.5 -7.9,-18.5 -0.9,-1.8 -1.8,-3.7 -3.7,-6.9 5.1,3.2 9.2,5.1 12.9,7.9 16.2,11.6 29.6,7.4 42.5,-3.2 6.9,-5.5 12.9,-11.6 19.4,-17.1 2.3,-1.8 4.6,-3.7 8.3,-6.5 2.8,11.1 5.5,20.8 7.9,31 1.4,6 0.9,12 1.4,18 0,1.8 0,3.7 0.9,5.1 0.9,1.4 2.8,3.2 4.2,3.2 1.4,0 3.7,-2.3 4.2,-3.7 0.5,-5.5 0.9,-11.6 0.5,-17.1 -1.8,-34.7 -15.3,-66.1 -27.7,-98 -1.4,-3.7 -2.8,-7.4 -3.7,-10.6 0,-0.5 0,-0.5 0.5,-2.3 6.5,11.6 12,22.7 18.5,33.8 9.7,16.6 19.4,33.8 30.5,49.9 7.9,11.6 19,20.8 31.4,27.3 3.7,-2.8 1.4,-4.6 -0.5,-6.5 -13.9,-13.4 -24.5,-29.6 -34.2,-45.8 -0.5,-0.5 -0.5,-1.4 -0.9,-2.3 15.7,-5.1 25.4,-15.3 25.9,-31.4 0.5,-10.2 -3.2,-20.3 -5.5,-30.5 -1.8,-6.5 -4.6,-12.9 -6.5,-19.9 4.2,6.9 7.9,13.9 12,20.8 12.9,22.7 36.5,29.6 59.6,27.3 8.8,-0.9 17.6,-2.3 28.2,-3.2 -3.7,22.2 -7.4,43.9 -11.1,65.7 0.5,0 0.9,0.5 1.4,0.5 5.5,-6.5 9.2,-13.9 12,-21.3 7.9,-21.3 8.8,-43.5 7.4,-66.1 -0.9,-10.6 -1.8,-21.3 -2.8,-33.3 7.9,24 14.3,47.2 22.7,69.8 4.6,13.4 11.6,25.9 18,38.4 1.4,2.8 4.2,5.1 6.5,7.4 2.8,-2.8 3.2,-4.6 1.8,-8.3 -5.5,-15.3 -10.6,-31 -15.7,-46.7 -1.4,-4.2 -1.4,-8.8 -2.3,-13.4 8.8,-1.4 17.1,-1.8 24.5,-3.7 22.2,-5.1 30.1,-12.9 35.1,-37.9 1.8,-9.2 2.8,-19 4.2,-29.6 1.4,11.1 2.3,21.7 3.7,31.9 0.9,5.5 2.3,11.6 4.6,17.1 4.2,11.1 13.9,15.3 25,17.6 9.7,2.3 19.9,4.2 29.6,6.5 1.4,0.5 2.8,0.9 4.2,1.8 -6.5,21.3 -11.1,43 -27.3,59.6 -0.9,0.9 -0.5,2.3 -0.9,3.7 1.4,-0.5 3.2,0 4.2,-0.9 12.5,-8.3 21.7,-19 26.8,-32.8 6,-16.2 10.6,-33.3 15.7,-49.9 0.5,-1.8 0.9,-3.2 2.3,-5.1 0,13.4 -0.5,26.4 0,39.8 0.9,22.2 1.8,44.4 3.2,66.6 0,4.2 3.2,6 6.9,5.5 7.9,-0.9 7.4,-2.3 6.9,-11.1 -0.9,-18.5 -1.4,-37.5 -1.8,-55.9 0,-0.9 0.5,-1.8 1.4,-3.7 5.1,2.3 9.7,5.1 14.3,6.9 11.6,4.6 22.7,9.2 34.2,12.9 5.5,1.8 10.6,0.9 15.7,-3.7 11.6,-10.2 22.7,-21.3 31,-34.2 -4.2,15.7 -8.3,31 -6.5,47.6 -5.1,-0.9 -10.2,-6.9 -15.7,-0.5 12.9,16.2 35.1,19 49,34.2 -6.5,9.2 -13.9,16.6 -23.1,22.7 -9.7,6.5 -20.3,12.9 -30.5,19.4 -1.4,0.9 -2.8,2.8 -3.2,5.1 16.6,-1.4 31,-8.3 43,-18.5 9.2,-7.9 17.6,-17.1 25.9,-25.4 0.9,-0.5 1.4,0 0.9,0.9 -4.6,16.2 -10.6,32.4 -13.9,49 -2.8,12.9 -2.3,26.4 -3.2,39.8 0,1.4 1.4,2.8 2.3,4.2 0.9,-1.4 2.8,-2.3 3.2,-3.7 3.2,-14.3 6.5,-29.1 9.7,-43.5 2.3,-8.8 5.1,-17.6 7.9,-27.7 6.9,8.8 12.5,16.2 18.5,23.1 0.5,0.9 1.4,1.8 1.8,2.8 9.7,13.4 22.7,13.9 36.5,8.8 10.2,-3.7 19.4,-8.3 29.1,-12.9 2.3,-0.9 4.2,-1.8 6.5,-3.2 6.2,-0.2 6.7,0.3 6.2,1.2 z"
   id="path2087"
   style="fill:#e0af68;fill-opacity:1" />
		<path
   class="st2"
   d="m 2283.7,999.8 c 8.3,-5.1 18,-5.1 27.3,-4.2 5.5,0.5 11.1,1.8 16.6,2.8 10.6,1.8 16.2,7.4 18,18 0.9,6 1.4,12 2.3,18 0.5,1.8 0.9,3.2 1.4,6.5 4.6,-7.9 2.8,-15.3 2.8,-22.2 -0.5,-6.5 1.4,-11.1 6.9,-13.4 5.1,-2.3 11.1,-0.9 15.3,4.2 7.9,10.2 12,22.2 11.1,35.1 -0.5,7.9 -1.8,16.2 -4.6,23.6 -8.3,21.3 -18.5,27.3 -45.3,29.6 -9.2,0.9 -15.7,-3.2 -21.3,-10.2 -12,-15.7 -17.1,-33.8 -21.7,-52.2 -2.8,-12.1 -5.6,-23.6 -8.8,-35.6 z"
   id="path2089"
   style="fill:#e0af68;fill-opacity:1" />
		<path
   class="st2"
   d="m 2364.6,948.4 c -14.8,19.4 -33.3,32.8 -57.8,36.5 -7.4,1.4 -15.3,0 -23.1,-0.5 19,-13.9 31.4,-32.4 43,-51.3 11.6,-18.5 22.7,-19 44.9,-13.9 12,2.8 21.3,9.2 23.6,22.7 1.4,8.8 0.5,18 -3.7,26.4 -3.7,6.5 -7.4,12.5 -12,18.5 -6.9,9.2 -24,10.2 -32.8,6 -5.1,-2.3 -5.1,-11.6 0,-14.8 8.8,-6 15.7,-13.4 19.4,-23.1 0.5,-1.4 0.5,-3.2 0.9,-5.1 -1.5,-0.9 -2,-0.9 -2.4,-1.4 z"
   id="path2091"
   style="fill:#e0af68;fill-opacity:1" />
		<path
   class="st3"
   d="m 2274.9,899.4 c -11.1,-24 -33.3,-31.9 -55.5,-39.8 -6,-2.3 -10.2,-5.1 -11.1,-11.6 -1.4,-9.7 -2.3,-19.4 -3.7,-28.7 -0.5,-4.2 1.8,-6 5.5,-6.9 7.9,-1.4 15.7,-2.8 24,-3.2 14.3,-0.9 29.1,-1.4 43.5,-2.3 8.3,-0.5 10.2,0.9 14.3,8.3 6.5,12 6,25.4 5.1,38.4 -1.4,16.6 -6.9,31.9 -19.4,43.9 -0.4,0.1 -1.3,0.5 -2.7,1.9 z"
   id="path2093"
   style="fill:#d5d6db;fill-opacity:1" />
		<path
   class="st2"
   d="m 2297.1,798.2 c -37.5,-8.8 -72.6,1.4 -107.7,5.5 -0.5,-0.5 -0.9,-0.9 -1.4,-1.4 11.1,-15.3 21.3,-31 33.3,-45.8 5.1,-6.5 12.9,-11.6 19.9,-16.2 7.4,-5.1 10.2,-4.6 15.7,2.3 12,14.8 23.6,30.1 35.1,45.3 1.8,2.4 2.8,5.6 5.1,10.3 z"
   id="path2095"
   style="fill:#e0af68;fill-opacity:1" />
		<path
   class="st2"
   d="m 2441.8,1071 c -1.8,-0.9 -3.7,-1.4 -5.1,-2.3 -4.6,-1.8 -5.1,-4.6 -3.7,-9.7 4.6,-16.2 8.8,-32.4 12.9,-49 0.5,-1.4 0.9,-3.2 1.4,-5.5 9.7,2.8 15.7,9.2 20.8,16.6 3.2,4.6 6,9.7 8.8,14.8 6.5,11.6 12.9,23.1 27.3,28.7 -6.5,2.3 -10.6,8.8 -17.1,3.2 -4.6,-3.7 -8.3,-7.4 -12.9,-11.6 -0.9,7.9 7.4,11.1 10.2,17.1 -0.5,0.5 -0.5,0.9 -0.9,1.8 -2.8,-1.4 -6,-1.8 -7.4,-3.7 -2.8,-3.7 -4.6,-7.9 -6.9,-11.6 -1.4,-2.3 -3.2,-4.6 -5.1,-6.5 -0.9,0.5 -1.4,0.9 -2.3,1.4 3.2,6.9 6.5,13.9 10.2,22.7 -6.9,-1.4 -14.8,-0.9 -19.9,-4.2 -5.1,-3.2 -7.9,-10.6 -12.9,-16.2 1.2,4.7 1.7,8.9 2.6,14 z"
   id="path2097"
   style="fill:#e0af68;fill-opacity:1" />
		<path
   class="st3"
   d="m 2347,827.8 c -0.5,-3.7 -0.9,-7.4 -1.4,-11.1 6.9,0.5 13.4,0 19.4,1.4 2.3,0.5 5.5,4.2 6.5,6.9 4.6,14.8 7.4,30.1 2.8,45.3 -2.8,10.2 -8.3,18.5 -18.5,23.6 -1.8,-11.6 -3.7,-22.7 -5.5,-34.7 8.8,0.9 15.7,-1.8 19.9,-9.7 2.8,-6 1.8,-12 -2.3,-17.1 -6.1,-5.6 -12.6,-7 -20.9,-4.6 z"
   id="path2099"
   style="fill:#d5d6db;fill-opacity:1" />
		<path
   class="st2"
   d="m 2347,769.5 c 14.3,10.6 25,24.5 35.6,40.2 -11.6,-1.8 -22.2,-3.7 -32.8,-6 -0.9,0 -2.3,-2.3 -2.3,-3.2 -0.5,-9.7 -0.5,-20.4 -0.5,-31 z"
   id="path2101"
   style="fill:#e0af68;fill-opacity:1" />
		<path
   class="st2"
   d="m 2033.5,1404.4 c -5.5,-15.3 -10.6,-30.1 -15.7,-44.9 6,-2.8 12.5,-4.2 19,-3.2 6,0.9 7.9,3.7 6.5,9.7 -2.3,10.2 -5.5,20.3 -7.9,31 -0.5,2.3 -1,4.6 -1.9,7.4 z"
   id="path2103"
   style="fill:#e0af68;fill-opacity:1" />
		<path
   class="st2"
   d="m 1601.2,1221.7 c 5.1,-14.3 10.2,-29.1 15.3,-43.5 8.3,1.8 15.7,9.7 16.2,17.6 0,1.4 -0.9,3.7 -1.8,4.2 -11.6,5.1 -19.9,14.8 -28.7,23.1 -1,-0.5 -1.5,-0.5 -1,-1.4 z"
   id="path2105"
   style="fill:#e0af68;fill-opacity:1" />
		<path
   class="st2"
   d="m 1765.3,1298 c -4.2,5.5 -8.3,11.1 -12,16.2 -3.7,5.5 -6.9,11.1 -10.6,18 1.4,-15.7 2.3,-30.5 3.7,-45.3 8.3,0.9 14.3,4.6 18.9,11.1 z"
   id="path2107"
   style="fill:#e0af68;fill-opacity:1" />
		<path
   class="st2"
   d="m 1890.6,1396.5 c -1.8,-15.7 -3.2,-30.5 -4.6,-45.3 -0.5,-4.6 0.9,-6 5.5,-5.1 4.2,0.9 7.9,2.3 12,3.7 -4.1,15.7 -8.2,30.5 -12.9,46.7 z"
   id="path2109"
   style="fill:#e0af68;fill-opacity:1" />
		<path
   class="st2"
   d="m 2167.1,1323.9 c 4.6,13.9 8.8,27.3 12.5,38.8 -6,-6 -14.3,-12.9 -22.2,-20.8 -7.4,-7.4 -7.4,-8.3 2.3,-13.9 2.4,-1.8 4.7,-2.7 7.4,-4.1 z"
   id="path2111"
   style="fill:#e0af68;fill-opacity:1" />
		<path
   class="st2"
   d="m 2319.3,1248.5 c -9.7,-4.6 -19.9,-9.7 -30.5,-14.8 3.7,-5.1 7.4,-10.6 11.1,-16.2 6.9,10.6 13.4,20.3 19.9,30.1 0,0.5 0,0.5 0.5,0.9 -0.6,0 -0.6,0 -1,0 z"
   id="path2113"
   style="fill:#e0af68;fill-opacity:1" />
		<path
   class="st2"
   d="m 2244.4,602.6 c 0.9,-0.9 1.4,-2.3 2.3,-3.2 0.5,0 0.5,0.5 0.9,0.5 -0.5,1.4 -1.4,2.8 -1.8,4.2 -1,-0.6 -1,-1.1 -1.4,-1.5 z"
   id="path2115" />
		<path
   class="st2"
   d="m 2092.2,493.5 c 0,-0.9 0,-2.3 0,-3.2 h 0.5 c 0,0.9 0,2.3 0,3.2 z"
   id="path2117" />
		<path
   class="st2"
   d="m 2319.7,1247.6 c 0,0.5 0.5,0.9 0.5,1.4 -0.5,-0.5 -0.9,-0.5 -1.4,-0.9 0.5,0 0.9,0 0.9,-0.5 z"
   id="path2119" />
		<path
   class="st2"
   d="m 2344.7,641 c 0.5,-0.5 1.4,-0.9 1.8,-1.4 l 0.5,0.5 c -0.5,0.5 -0.9,0.9 -1.4,1.8 -0.4,0 -0.4,-0.5 -0.9,-0.9 z"
   id="path2121" />
		<path
   class="st2"
   d="m 1602.1,1222.6 c -0.5,0.5 -0.9,0.5 -1.4,0.9 0,-0.5 0.5,-1.4 0.5,-1.8 0.4,0 0.4,0.5 0.9,0.9 z"
   id="path2123" />
		<path
   class="st0"
   d="m 2287.4,838.9 c 0,9.7 -6.9,16.6 -16.6,17.1 -9.7,0 -17.6,-7.4 -17.1,-17.1 0,-9.7 7.9,-17.1 17.6,-17.1 8.7,0 16.1,7.3 16.1,17.1 z"
   id="path2125"
   style="fill:#565f89;fill-opacity:1" />
		<path
   class="st2"
   d="m 2137.1,623.4 c 0.5,0 0.5,0 0.9,0 0,0 -0.5,0 -0.9,0 z"
   id="path2127" />
		<path
   class="st2"
   d="m 1754.2,686.3 c 0,-0.5 0,-0.9 0,-1.4 0.5,0 0.5,0.5 0.9,0.5 -0.9,-0.1 -0.9,0.4 -0.9,0.9 -0.4,0 0,0 0,0 z"
   id="path2129" />
		<g
   id="g2239"
   style="fill:#565f89;fill-opacity:1">
			<path
   class="st0"
   d="m 1826.8,1071.9 c -5.5,10.2 -11.1,20.3 -16.6,30.5 3.2,3.2 4.6,0.9 6,-1.8 6.5,-10.6 12.9,-20.8 19.4,-31.4 0.5,-0.9 1.4,-1.4 2.8,-1.8 -5.5,12.5 -11.6,24.5 -17.1,37 12.5,4.2 18,2.3 24,-8.3 2.8,-5.1 5.5,-10.2 8.3,-15.3 0.5,0 0.9,0.5 1.8,0.5 -2.3,7.4 -5.1,14.3 -7.9,23.1 19.4,-8.3 23.1,-27.7 32.8,-42.1 0.5,0.5 1.4,0.5 1.8,0.9 -4.2,9.7 -8.8,19.4 -12.9,29.1 0.5,0.5 0.9,0.9 1.8,0.9 6.9,-9.2 14.3,-18 20.8,-27.3 14.8,-20.8 35.1,-35.6 57.3,-47.2 1.8,-0.9 4.6,-1.4 6,-0.5 1.8,1.4 3.2,4.2 4.6,6 -1.8,0.9 -3.7,2.8 -6,3.2 -19.4,6 -33.8,18.5 -45.8,34.2 -7.4,9.7 -14.8,19.9 -22.2,29.6 -14.3,17.6 -23.1,24.5 -44.4,29.6 1.8,9.7 3.7,19.4 5.1,29.6 10.2,-6.5 11.1,-22.7 27.3,-23.6 -11.6,13.9 -22.2,26.8 -32.8,39.8 -0.9,0 -1.4,-0.5 -2.3,-0.5 -0.5,-5.1 -0.9,-10.2 -1.4,-15.3 -0.9,-8.8 -1.8,-17.1 -3.2,-25.4 -0.5,-3.2 -2.3,-5.1 -6.5,-5.5 -23.6,-4.2 -47.2,-9.7 -68.4,-21.7 -8.3,-4.6 -8.8,-8.8 -1.4,-14.8 8.8,-6.9 18,-13.4 26.4,-20.8 3.7,-3.7 5.5,-9.2 7.9,-14.3 5.5,-11.6 9.2,-24 16.2,-34.7 6.9,-10.2 15.3,-20.3 29.1,-21.7 0.9,0 1.4,-0.5 2.3,-0.5 19.9,0 39.3,-1.8 59.2,1.4 12.5,1.8 25,2.3 36.5,-4.6 1.8,-0.9 5.1,0.5 8.8,0.5 -5.1,10.6 -12.9,16.2 -22.7,16.6 -11.1,0.9 -22.7,0 -34.2,-0.9 -9.2,-0.9 -18.5,-3.7 -27.7,-4.6 -9.2,-0.9 -17.1,2.8 -23.6,8.8 -4.6,4.2 -8.8,9.7 -12.5,14.8 -11.1,15.7 -21.3,31.9 -32.4,47.6 -6,7.9 -13.4,14.8 -20.3,22.2 6,7.9 12.9,7.4 18.5,-1.8 2.8,-4.2 5.1,-9.2 7.9,-13.4 1.4,-2.3 3.2,-4.2 5.1,-6 0.5,0.5 0.9,0.5 1.4,0.9 -0.5,1.4 -0.9,2.8 -1.8,4.2 -3.2,6 -6.5,12 -9.7,18 -2.3,4.2 -0.9,5.5 3.2,6 4.2,0.9 6.9,0 9.7,-4.2 6,-9.2 12,-18 18.5,-26.8 2.4,1.3 2.9,1.3 3.3,1.8 z"
   id="path2131"
   style="fill:#565f89;fill-opacity:1" />
			<path
   class="st0"
   d="m 1683.9,940.6 c 4.6,1.8 4.2,5.1 4.2,8.3 -1.4,14.3 -9.2,24.5 -18.5,34.2 -8.3,8.8 -17.1,18 -25.4,26.8 -1.4,1.4 -1.8,2.8 -3.7,5.5 25.9,-9.7 50.4,-22.7 79.1,-12 -2.8,5.1 -7.4,6 -11.6,6.5 -24.5,1.8 -48.1,7.9 -71.7,14.8 -6.5,1.8 -13.4,2.8 -20.3,4.2 -0.5,-0.9 -0.9,-1.4 -1.4,-2.3 1.4,-2.3 1.8,-5.1 3.7,-6.9 12.5,-12.5 25.9,-25 38.4,-37.5 7.4,-7.4 13.4,-16.2 19.9,-24.5 1.8,-2.8 2.8,-6.5 4.2,-9.2 0.4,-2.8 1.8,-5.6 3.1,-7.9 z"
   id="path2133"
   style="fill:#565f89;fill-opacity:1" />
			<path
   class="st0"
   d="m 1702.9,852.3 c -2.8,-6 -5.5,-12.5 -8.8,-18 -9.7,-17.1 -23.1,-30.1 -38.4,-41.6 -6,-4.6 -12.5,-8.3 -18,-12.9 -3.2,-2.8 -6,-6.5 -8.3,-9.7 -0.9,-0.9 -0.5,-3.2 -0.5,-4.6 1.8,0 3.7,-0.5 5.1,0 15.3,5.5 30.1,11.6 45.8,16.2 11.1,3.7 22.7,6.5 34.2,8.8 3.7,0.9 7.4,-0.5 11.6,-0.9 1.8,0 3.7,-0.5 5.1,0 1.4,0.5 2.8,2.3 3.7,3.2 -1.4,1.4 -2.3,2.8 -3.7,3.7 -8.8,3.2 -18.5,3.7 -27.7,2.3 -10.2,-1.8 -20.3,-4.2 -31.9,-6.5 12,8.8 21.3,18.5 26.8,31 3.7,7.9 5.5,16.2 7.9,24.5 0.5,1.4 -0.5,3.2 -0.9,4.6 -1.1,-0.1 -1.5,-0.1 -2,-0.1 z"
   id="path2135"
   style="fill:#565f89;fill-opacity:1" />
			<path
   class="st0"
   d="m 2131.1,1162.1 c 1.8,41.6 13.4,81.4 19.9,121.6 -0.5,0.5 -0.9,0.5 -1.8,0.9 -1.4,-1.4 -3.2,-2.3 -4.2,-4.2 -9.7,-15.7 -19,-32.4 -29.1,-47.6 -8.8,-12.5 -19.4,-24 -29.1,-36.1 -3.2,-4.2 -6.5,-7.9 -10.2,-12.5 3.7,-3.7 7.4,-5.1 10.2,-0.9 15.3,19 34.2,34.7 47.2,55.9 -0.9,-5.5 -1.8,-10.6 -2.8,-16.2 -2.3,-17.1 -5.1,-34.7 -7.4,-51.8 -0.6,-6.4 0.8,-8.2 7.3,-9.1 z"
   id="path2137"
   style="fill:#565f89;fill-opacity:1" />
			<path
   class="st0"
   d="m 2016.9,1271.2 c 1.8,-15.3 3.2,-30.5 5.1,-45.3 0.5,-5.1 1.8,-10.6 3.7,-15.7 0.9,-3.7 3.7,-5.5 9.2,-4.2 -1.4,9.7 -2.8,19 -4.6,28.2 -3.7,18 -5.5,36.5 -3.7,55 0.5,6.5 -3.2,11.6 -3.7,17.1 0,0.9 -2.8,2.8 -4.6,2.8 -0.9,0 -2.8,-1.8 -3.2,-3.2 -6,-30.5 -16.6,-59.2 -31.4,-86.9 -1.8,-3.7 -4.2,-6.9 -6,-10.6 -0.5,-0.9 -0.5,-2.3 -0.9,-3.7 1.4,0 2.8,-0.9 3.7,-0.5 2.8,1.8 6,3.7 7.9,6 12.5,18 20.8,37.9 26.8,58.7 0,0.5 0.5,1.4 0.5,1.8 -0.2,0.5 0.2,0.5 1.2,0.5 z"
   id="path2139"
   style="fill:#565f89;fill-opacity:1" />
			<path
   class="st0"
   d="m 2137.1,623.4 c -8.3,11.1 -16.6,22.7 -25.4,33.3 -5.1,6 -12.5,10.2 -21.7,11.6 25,-27.3 43.9,-57.8 65.2,-86.5 0.5,0 1.4,0 1.8,0.5 0,3.2 0.5,6.9 -0.5,10.2 -10.6,33.3 -15.7,67.5 -15.3,102.6 0,1.8 0.5,3.7 0,5.5 -0.5,1.4 -1.8,2.3 -2.8,3.7 -0.9,-0.9 -2.8,-1.8 -3.2,-2.8 -1.4,-6.9 -3.2,-13.9 -2.8,-20.8 0.9,-15.3 2.8,-31 4.6,-46.2 0.1,-4.2 0.1,-7.9 0.1,-11.1 0.4,-0.5 0.4,-0.5 0,0 0.9,-0.5 0.4,-0.5 0,0 z"
   id="path2141"
   style="fill:#565f89;fill-opacity:1" />
			<path
   class="st0"
   d="m 1840.7,564.7 c 21.7,29.6 35.1,64.7 58.7,92.9 0.5,0.9 0,2.3 0,5.1 -3.2,-0.9 -6.5,-1.4 -8.8,-3.2 -9.7,-6.9 -15.7,-17.1 -20.8,-27.3 -4.6,-9.2 -8.8,-19 -14.3,-28.2 0.9,10.2 1.8,20.3 2.8,30.5 0.9,14.3 1.8,29.1 -2.8,43.5 -0.5,1.8 -2.3,3.2 -3.7,4.6 -0.5,-0.5 -0.5,-0.5 -0.9,-0.9 0.5,-10.6 1.8,-21.3 0.9,-31.9 -2.3,-18 -6,-36.1 -9.2,-54.1 -1.4,-8.3 -3.2,-16.2 -4.6,-24.5 -0.5,-2.3 0.5,-4.6 0.9,-6.9 0.4,0.4 1.3,0.4 1.8,0.4 z"
   id="path2143"
   style="fill:#565f89;fill-opacity:1" />
			<path
   class="st0"
   d="m 1754.2,686.3 c 9.7,16.6 19,33.3 23.6,51.8 1.4,5.1 -0.9,9.7 -6.5,12.5 0.9,-11.6 -3.2,-21.3 -7.4,-31.4 -6,-14.3 -15.7,-26.4 -24,-38.8 -6,-9.2 -11.6,-19 -16.6,-28.7 -0.9,-1.8 -0.5,-4.6 -0.5,-6.9 0.5,0 1.4,-0.5 1.8,-0.5 4.6,4.2 9.7,8.3 14.3,12.5 13.9,11.1 27.7,22.7 42.1,33.3 6.5,5.1 13.9,8.8 23.1,7.4 3.2,-0.5 5.5,0.9 6,5.1 -6.9,4.2 -14.3,4.6 -21.3,1.4 -10.2,-4.6 -19.4,-10.2 -29.1,-15.3 -1.8,-1 -3.6,-2 -5.5,-2.4 z"
   id="path2145"
   style="fill:#565f89;fill-opacity:1" />
			<path
   class="st0"
   d="m 1989.6,585.9 c -4.2,25 -6.5,50.9 -25,70.7 8.3,-37.5 16.6,-74.4 25,-111.9 0.9,0 1.4,0 2.3,0 0.9,5.1 1.8,9.7 2.8,14.8 4.2,29.1 11.6,57.8 21.3,85.5 0.5,1.8 0,4.2 0,6 -1.8,-0.9 -4.6,-1.8 -5.5,-3.2 -9.2,-12.9 -12.9,-28.2 -16.2,-43.5 -1.4,-6 -1.8,-12.5 -3.2,-18.5 -0.6,0.1 -1.1,0.1 -1.5,0.1 z"
   id="path2147"
   style="fill:#565f89;fill-opacity:1" />
			<path
   class="st0"
   d="m 2270.2,1196.7 c -6.9,-6 -14.3,-12 -21.3,-18 -8.8,-7.9 -17.6,-15.7 -26.8,-23.1 -9.2,-7.4 -19.4,-12 -31,-13.9 -1.4,-6.5 0,-8.3 6,-6.5 7.9,2.3 15.7,5.1 23.1,9.2 10.2,5.5 19.9,12 30.5,18 -1.8,-4.2 -4.2,-8.3 -6,-12 -5.1,-9.7 -9.7,-19.9 -14.8,-29.6 -2.8,-5.1 0.5,-9.2 2.3,-13.4 0.9,-2.8 4.2,-1.8 5.5,1.8 4.6,12 9.2,24 14.3,36.1 5.5,12.5 11.6,24.5 17.1,37 1.8,4.2 2.3,8.8 3.7,13.4 -0.7,0.1 -1.6,0.6 -2.6,1 z"
   id="path2149"
   style="fill:#565f89;fill-opacity:1" />
			<path
   class="st0"
   d="m 1706.1,1109.8 c 10.2,-3.2 20.3,-6.5 30.5,-9.7 1.8,-0.5 3.7,-1.4 5.5,-2.3 8.8,-3.2 8.8,-3.2 14.3,4.2 -26.4,6 -50.4,19 -74.4,30.5 -0.9,0.5 -1.4,0.9 -2.3,1.4 -1.4,0.5 -3.2,0.5 -5.1,0.5 0.5,-1.8 0,-4.6 0.9,-5.5 7.9,-9.2 17.1,-18 24,-28.2 10.2,-14.3 19,-29.6 28.2,-44.4 0.9,-1.4 0.5,-4.2 1.4,-5.5 0.9,-1.8 2.3,-3.2 3.7,-4.6 1.4,1.8 4.2,4.2 3.7,6 -0.5,5.5 -0.9,11.6 -3.2,16.2 -5.5,10.2 -12.5,19.9 -19.4,29.6 -2.8,4.2 -5.5,8.3 -8.8,12 0.1,-0.2 0.1,0.3 1,-0.2 z"
   id="path2151"
   style="fill:#565f89;fill-opacity:1" />
			<path
   class="st0"
   d="m 1898.5,1254.1 c 5.1,-12.9 9.7,-24.5 14.8,-36.1 1.8,-4.6 4.2,-9.2 6.9,-13.9 0.9,-1.8 4.6,-4.2 5.1,-4.2 2.3,2.3 5.1,5.1 3.2,8.8 -4.6,9.2 -9.2,18.5 -13.4,28.2 -5.1,12.9 -9.2,25.9 -14.3,38.8 -0.9,2.3 -2.8,3.7 -4.2,5.5 -1.8,-2.3 -4.6,-4.6 -5.1,-6.9 -2.3,-12 -3.7,-24 -5.5,-36.1 -2.3,-15.3 -5.5,-30.1 -14.3,-43 -0.9,-1.4 -0.5,-3.7 -0.9,-5.5 1.8,0.5 4.6,0 6,0.9 8.8,5.5 11.1,15.3 12.9,24.5 2.3,13.1 5.6,25.1 8.8,39 z"
   id="path2153"
   style="fill:#565f89;fill-opacity:1" />
			<path
   class="st0"
   d="m 1782.4,1193.5 c 10.2,-14.3 23.6,-24.5 37.5,-34.2 4.2,-2.8 4.2,-2.8 9.7,0 -4.6,3.2 -9.7,5.5 -12.9,9.2 -9.2,9.7 -18,20.3 -26.8,30.5 -5.1,6 -9.2,12.5 -14.8,18 -1.4,1.8 -4.6,1.8 -6.9,2.3 0,-2.3 -0.9,-4.2 -0.5,-6.5 4.6,-20.8 10.2,-41.2 10.2,-62.4 0,-5.1 -0.5,-10.2 0,-15.7 0,-1.4 1.8,-2.8 2.8,-4.6 0.9,1.4 2.8,2.3 3.2,3.7 4.2,12.9 3.2,26.4 1.4,39.3 -1,7.5 -1.9,13.9 -2.9,20.4 z"
   id="path2155"
   style="fill:#565f89;fill-opacity:1" />
			<path
   class="st0"
   d="m 1763,779.2 c 9.2,12.9 14.3,27.3 14.3,43.9 -5.1,0 -7.9,-2.8 -8.3,-6.9 -1.4,-15.3 -10.2,-27.3 -18.5,-39.8 -5.1,-7.9 -8.8,-17.6 -16.6,-23.6 -0.9,-0.5 -0.9,-4.2 -0.5,-4.6 0.9,-0.9 3.7,-1.4 5.1,-0.5 7.4,4.6 14.3,9.7 21.3,15.3 10.6,8.3 20.8,17.1 35.1,18 1.8,0 5.5,4.2 5.1,6 -0.5,4.2 -4.2,3.2 -6.9,2.3 -7.9,-2.8 -15.7,-6 -23.6,-8.8 -2.3,-0.8 -4.6,-0.8 -6.5,-1.3 z"
   id="path2157"
   style="fill:#565f89;fill-opacity:1" />
			<path
   class="st0"
   d="m 1631.7,965.6 c -3.7,1.4 -5.5,2.8 -7.4,3.2 -2.8,0.9 -5.5,1.8 -6.5,-2.3 0,-0.5 -0.9,-1.4 -1.4,-1.4 -13.9,-6.9 -28.2,-11.6 -44.4,-8.3 -3.7,0.5 -7.4,1.4 -11.1,1.4 -1.8,0 -3.2,-2.3 -5.1,-3.7 1.4,-1.8 2.3,-4.2 4.2,-4.6 19,-5.5 34.7,-15.7 49.5,-28.2 1.4,-0.9 3.2,-0.9 5.1,-1.4 0,1.8 0.5,4.2 0,5.5 -4.2,9.2 -12,14.8 -20.3,19.4 -1.4,0.9 -2.8,1.4 -6,2.8 5.5,0.9 9.7,2.8 13.4,2.3 9.2,-0.5 16.2,4.2 23.6,8.3 2.7,0.5 4.1,3.7 6.4,7 z"
   id="path2159"
   style="fill:#565f89;fill-opacity:1" />
			<path
   class="st0"
   d="m 2159.7,1145 c -2.3,-12.9 -4.2,-25.9 -6.5,-38.4 -0.5,-2.8 -0.9,-5.5 -0.5,-8.3 0.5,-1.8 1.8,-3.7 2.8,-5.5 0.5,0 1.4,0.5 1.8,0.5 5.5,25.4 11.1,50.4 16.6,76.8 -7.4,-3.7 -12.9,-8.8 -18,-14.3 -7.4,-8.3 -13.9,-16.6 -21.7,-24.5 -7.4,-7.4 -15.7,-13.4 -23.6,-20.3 4.2,-6 4.6,-6.5 10.6,-0.9 11.1,9.2 21.3,19.4 31.9,29.1 2,1.6 4.3,3.4 6.6,5.8 z"
   id="path2161"
   style="fill:#565f89;fill-opacity:1" />
			<path
   class="st0"
   d="m 1965.1,717.7 c -8.3,0.9 -13.4,-1.4 -16.6,-8.8 -2.3,-5.5 -4.2,-11.6 -6.5,-17.1 -0.9,-3.2 -2.8,-6 -4.2,-9.7 -3.2,10.2 -6,19 -8.8,28.2 -0.5,1.4 -0.9,3.2 -1.8,4.6 -0.5,0.9 -1.8,2.8 -2.8,2.8 -1,0 -2.3,-1.4 -2.8,-2.8 -1.8,-4.6 -2.3,-8.8 0,-13.4 6,-12.9 11.6,-25.9 11.6,-40.7 0,-1.4 1.4,-3.2 2.8,-3.2 0.9,0 2.8,1.4 3.2,2.3 2.3,6.9 4.6,13.4 6.9,20.3 4.2,13.5 8.8,26.9 19,37.5 z"
   id="path2163"
   style="fill:#565f89;fill-opacity:1" />
			<path
   class="st0"
   d="m 1704.8,880.5 c 12.9,7.9 28.2,10.6 31.9,28.7 -3.2,-0.9 -5.5,-0.9 -6.5,-1.8 -8.8,-12.5 -22.2,-16.6 -36.1,-20.8 -3.2,-0.9 -6.9,-1.8 -10.2,-3.2 -1.4,-0.5 -2.3,-1.8 -3.7,-2.8 0.9,-0.9 2.3,-2.8 3.2,-3.2 12.9,-3.2 25.4,-6.5 38.4,-8.8 5.5,-0.9 10.6,-1.8 15.3,-4.6 1.8,-1.4 4.2,-1.8 6.9,-3.2 -0.5,6.5 -3.7,10.2 -8.3,11.6 -7.4,2.8 -15.3,4.2 -22.7,6.5 -1.3,0.6 -4.1,1.1 -8.2,1.6 z"
   id="path2165"
   style="fill:#565f89;fill-opacity:1" />
			<path
   class="st0"
   d="m 1831.9,695.1 c 4.6,-1.4 7.4,0 9.7,3.2 5.1,7.4 10.2,14.8 16.6,21.3 3.7,3.7 9.7,5.1 14.8,7.9 2.3,1.4 5.5,3.7 5.5,5.1 0,3.7 -4.6,5.1 -8.8,2.3 -9.2,-6 -18,-12.5 -27.7,-19 0.5,5.5 0.9,11.6 1.4,17.6 0.5,7.9 0.9,15.7 0.9,23.6 0,1.4 -1.4,2.8 -2.3,4.2 -0.9,-0.9 -2.8,-1.8 -3.2,-3.2 -0.9,-4.6 -1.8,-9.2 -2.3,-13.9 -1.8,-14.8 -3.2,-29.1 -4.6,-43.9 0,-1.5 0,-2.9 0,-5.2 z"
   id="path2167"
   style="fill:#565f89;fill-opacity:1" />
			<path
   class="st0"
   d="m 2055.7,643.7 c 0,6 0.9,12.5 0,18.5 -1.8,12.9 0,25 5.5,36.5 0.9,2.3 1.8,5.1 1.8,7.4 0,1.8 -0.9,4.6 -1.8,5.1 -2.8,0.9 -6,0.5 -6.5,-3.7 -1.8,-8.8 -4.2,-17.6 -6.5,-26.4 0,-0.5 -0.5,-1.4 -0.5,-1.4 -5.5,6.9 -10.6,13.9 -16.6,20.3 -1.4,1.8 -5.1,1.8 -7.9,1.8 -0.9,0 -2.8,-1.4 -2.8,-2.8 0,-0.9 0.9,-2.8 1.8,-3.7 11.6,-7.4 17.1,-19 22.2,-31 2.3,-5.5 3.7,-11.6 6,-17.1 0.5,-1.8 1.8,-3.2 2.8,-4.6 0.2,0.7 1.1,0.7 2.5,1.1 z"
   id="path2169"
   style="fill:#565f89;fill-opacity:1" />
			<path
   class="st0"
   d="m 2153.3,733 c -10.2,8.8 -22.2,11.6 -35.1,10.6 -0.5,-0.5 -0.9,-1.4 -1.4,-1.8 1.8,-1.4 3.2,-3.2 5.1,-4.2 10.2,-4.6 20.8,-8.8 30.1,-14.3 4.6,-2.8 7.9,-8.3 12,-12.9 2.3,-2.3 4.6,-4.6 8.3,-7.9 0,3.7 0.5,6 0,7.9 -7.4,19.9 -14.8,39.3 -21.7,59.2 0,0.5 -0.5,0.9 -0.9,1.4 -4.2,-0.9 -5.5,-2.3 -4.2,-6.9 3.2,-10.2 5.5,-20.3 8.3,-30.5 0.9,-1.1 -0.1,-0.6 -0.5,-0.6 z"
   id="path2171"
   style="fill:#565f89;fill-opacity:1" />
			<path
   class="st0"
   d="m 1635.4,884.6 c 9.7,3.7 18,6.9 26.8,10.6 -0.5,2.8 -0.5,6 -0.9,7.4 -10.2,-3.7 -20.3,-7.4 -31,-11.1 -3.2,-0.9 -6.9,-0.9 -10.2,-1.8 -1.4,-0.5 -2.8,-1.8 -3.2,-2.8 -0.4,-1 0.5,-2.8 1.4,-3.7 13.9,-8.3 27.7,-16.6 41.6,-25 1.4,-0.9 3.7,-0.5 5.5,-0.5 -0.5,1.8 0,4.6 -0.9,5.5 -5.5,5.1 -11.1,10.2 -17.1,14.3 -3.2,3 -6.9,4.8 -12,7.1 z"
   id="path2173"
   style="fill:#565f89;fill-opacity:1" />
			<path
   class="st0"
   d="m 1932.2,1187 c -1.8,-3.2 -4.2,-6.5 -4.6,-9.7 -2.8,-14.8 -4.6,-29.6 -15.3,-41.2 -0.9,-0.9 -1.4,-2.8 -0.9,-4.2 0.5,-0.9 2.3,-1.4 3.7,-1.4 2.3,-0.5 4.6,-0.5 7.4,-0.5 3.7,11.6 7.4,22.7 11.1,35.1 1.8,-3.7 2.8,-6.5 4.2,-9.2 1.4,-2.7 2.8,-5.5 4.6,-7.4 1.8,-1.9 4.2,-2.3 6.5,-3.7 0.5,2.8 1.8,6 0.9,8.3 -3.2,7.4 -7.4,13.9 -10.6,20.8 -1.8,3.7 -2.8,8.3 -4.6,12.5 -0.5,0.2 -1.4,0.6 -2.4,0.6 z"
   id="path2175"
   style="fill:#565f89;fill-opacity:1" />
			<path
   class="st0"
   d="m 2040,1163 c 0,-6 0,-12 0,-18 0,-7.9 2.8,-11.6 10.2,-12.5 -0.9,6.5 -1.8,12.5 -2.3,18.5 -0.5,9.2 -0.5,18.5 -0.9,28.2 0,1.4 -1.4,4.2 -2.3,4.2 -1.4,0.5 -4.2,0 -5.1,-1.4 -6.9,-8.8 -13.9,-18 -20.8,-26.4 -2.8,-3.2 -6.9,-5.1 -10.2,-7.9 -1.4,-1.4 -2.3,-3.7 -3.7,-5.5 1.8,0 4.6,-0.9 5.5,0 6,3.7 11.6,7.9 17.1,12 4.2,3.2 7.4,6.9 11.1,10.2 0,-0.5 0.5,-1 1.4,-1.4 z"
   id="path2177"
   style="fill:#565f89;fill-opacity:1" />
			<path
   class="st0"
   d="m 1731.6,1021 c 8.3,0.5 15.7,0.9 22.7,1.8 3.2,0.5 6.5,1.4 9.2,2.8 0.9,0.5 1.8,2.8 1.8,4.2 0,0.5 -2.8,1.8 -3.7,1.8 -13.9,-2.8 -27.3,-1.4 -40.7,1.4 -1.8,0.5 -4.2,0 -6,-0.5 0.9,-1.8 1.4,-4.2 2.8,-6 8.3,-12 17.1,-24.5 25.9,-36.5 1.8,-2.3 2.8,-6.9 6.5,-4.6 2.8,1.8 2.3,5.5 0,8.8 -5.5,6.9 -10.2,14.3 -15.3,21.7 -0.9,1.4 -1.8,2.8 -3.2,5.1 z"
   id="path2179"
   style="fill:#565f89;fill-opacity:1" />
			<path
   class="st0"
   d="m 2049.7,1068.2 c 12.9,-3.7 16.2,7.9 24.5,12 0.9,-3.2 1.4,-6.9 2.3,-9.7 0.9,-3.2 2.3,-6.9 4.6,-9.7 0.9,-1.4 5.5,-2.3 6.5,-1.4 1.8,1.4 3.2,4.2 0.9,7.9 -6,8.3 -7.9,18 -7.9,28.2 0,2.3 0.5,5.1 0.9,8.8 -8.8,-3.7 -9.2,-13.4 -14.8,-18.5 -5.9,-5.1 -11,-11.1 -17,-17.6 z"
   id="path2181"
   style="fill:#565f89;fill-opacity:1" />
			<path
   class="st0"
   d="m 2145.9,1041.4 c -0.5,-4.2 -0.5,-8.3 -0.9,-12.5 -0.5,-4.6 -0.9,-9.2 5.5,-11.6 1.4,12.5 3.2,24.5 4.2,36.1 0,1.8 -1.8,4.2 -2.8,6 -1.4,-1.4 -2.8,-2.8 -4.2,-4.2 -2.3,-2.3 -4.2,-4.6 -6.5,-6.5 -2.8,-2.3 -6.5,-4.2 -9.2,-6.9 -2.3,-2.3 -6,-4.6 -2.3,-8.3 4.2,-4.2 5.5,0.5 7.9,2.8 1.8,1.8 3.2,4.6 4.6,6.9 1.8,-0.9 2.7,-1.4 3.7,-1.8 z"
   id="path2183"
   style="fill:#565f89;fill-opacity:1" />
			<path
   class="st0"
   d="m 1965.5,1085.8 c 4.6,6.5 8.3,12 12.9,18.5 1.4,-5.1 2.8,-9.7 4.6,-13.9 0.9,-1.8 4.2,-5.1 5.1,-4.6 3.7,1.4 5.1,4.6 3.2,8.3 -4.2,8.8 -8.3,18 -12,27.3 -0.5,0.9 -1.4,1.8 -2.3,1.8 -0.9,0 -2.3,-0.9 -2.8,-1.8 -0.5,-1.8 0,-4.6 -0.9,-6.5 -1.8,-5.1 -3.7,-10.2 -6,-15.3 -2.2,-4.1 -5.5,-7.4 -1.8,-13.8 z"
   id="path2185"
   style="fill:#565f89;fill-opacity:1" />
			<path
   class="st0"
   d="m 2056.6,756.1 c -8.3,6.5 -15.7,12 -23.6,17.6 -0.9,0.9 -2.3,0.9 -3.7,1.4 0.5,-1.4 0,-2.8 0.9,-3.7 6.5,-6 12.9,-12 19.4,-18 2.3,-2.3 4.6,-4.6 7.4,-6.9 1.8,-1.8 4.2,-2.3 4.6,1.4 0.9,10.2 1.8,20.3 2.3,31 0,1.4 -1.4,2.8 -1.8,4.2 -0.9,-1.4 -2.3,-2.3 -2.3,-3.7 -0.9,-7.6 -1.8,-15 -3.2,-23.3 z"
   id="path2187"
   style="fill:#565f89;fill-opacity:1" />
			<path
   class="st0"
   d="m 1922.5,771.8 c -3.7,-5.5 -6.9,-10.6 -11.1,-16.6 -1.8,6.9 -3.7,13.4 -5.1,19.4 -0.9,3.7 -1.8,7.9 -3.2,11.6 -0.5,1.4 -1.8,1.8 -2.8,2.8 -0.5,-1.4 -1.8,-2.8 -1.4,-4.2 0.9,-6 2.8,-11.6 4.2,-17.6 1.4,-6.9 3.2,-13.9 4.6,-20.8 0.5,-1.8 0.9,-3.2 1.4,-6.5 9.7,8.8 12.9,19.4 15.7,30.5 -1.3,0.5 -1.8,1 -2.3,1.4 z"
   id="path2189"
   style="fill:#565f89;fill-opacity:1" />
			<path
   class="st0"
   d="m 2198.6,954.5 c -6.5,-4.6 -12.5,-8.3 -18.5,-12.9 -1.4,-0.9 -1.8,-3.7 -3.2,-5.5 1.8,0 3.7,0 5.1,0.9 6.9,4.2 13.9,8.3 20.3,13.4 5.5,4.6 5.1,6.9 -1.4,10.6 -6.9,4.2 -14.8,6 -23.6,6.9 4.6,-9.7 15.3,-6.5 21.3,-13.4 z"
   id="path2191"
   style="fill:#565f89;fill-opacity:1" />
			<path
   class="st0"
   d="m 1782.9,846.7 c 4.6,7.4 12.9,12 11.6,23.1 -1.8,-0.9 -2.8,-1.4 -3.7,-2.3 -5.1,-6 -10.2,-12.5 -15.3,-19 -1.4,-1.8 -2.3,-4.2 -3.2,-6 1.8,-0.5 4.2,-1.4 6,-1.4 5.5,-0.9 11.6,-1.8 17.6,-2.8 1.4,0 2.8,0.9 4.2,1.4 -0.9,1.4 -1.4,3.7 -2.8,4.2 -4.2,1.4 -9.3,1.9 -14.4,2.8 z"
   id="path2193"
   style="fill:#565f89;fill-opacity:1" />
			<path
   class="st0"
   d="m 2122.7,807 c -1.8,9.2 -0.9,19 -6,27.3 -0.9,0 -1.4,0 -2.3,-0.5 0.5,-6 0.9,-11.6 1.4,-17.6 -7.9,2.8 -12,11.6 -21.3,11.1 0.5,-6 11.6,-14.8 28.2,-20.3 z"
   id="path2195"
   style="fill:#565f89;fill-opacity:1" />
			<path
   class="st0"
   d="m 1780.1,936 c 0.9,6.9 -6.9,8.3 -9.7,13.9 3.7,1.4 7.4,3.2 11.1,5.1 2.8,1.4 8.3,0.9 6.9,7.9 -3.7,-0.9 -6.9,-1.8 -10.2,-2.8 -6,-1.8 -12,-4.2 -19.9,-6.9 7.4,-6.5 13.9,-12.5 20.3,-18 0.6,-0.2 1.1,0.3 1.5,0.8 z"
   id="path2197"
   style="fill:#565f89;fill-opacity:1" />
			<path
   class="st0"
   d="m 1865.7,858.3 c -8.3,-5.5 -12,-14.3 -15.3,-23.6 0,-0.5 1.8,-2.8 3.2,-2.8 5.1,-0.5 9.7,-0.5 14.8,0 4.2,0 7.4,1.4 6.9,6.9 -5.5,-0.5 -11.1,-0.9 -18,-1.4 3.7,7.4 6.9,13.4 10.2,19.4 -0.4,0.6 -0.9,1 -1.8,1.5 z"
   id="path2199"
   style="fill:#565f89;fill-opacity:1" />
			<path
   class="st0"
   d="m 1980.8,794.9 c -2.3,-5.1 -4.6,-10.2 -6.9,-15.3 -6.5,5.1 -6.5,14.3 -14.8,16.6 2.3,-10.2 6,-19 13.4,-26.4 8.3,7.6 12.9,20.5 8.3,25.1 z"
   id="path2201"
   style="fill:#565f89;fill-opacity:1" />
			<path
   class="st0"
   d="m 1917.9,960.9 c -8.8,0 -15.7,-3.2 -21.7,-7.9 -0.9,-0.5 -0.5,-4.2 0,-5.1 5.1,-6 11.1,-11.6 16.6,-17.6 5.1,4.6 2.3,7.4 -0.9,9.7 -3.2,2.8 -6.9,5.1 -10.2,7.4 3.3,8 14.8,3.8 16.2,13.5 z"
   id="path2203"
   style="fill:#565f89;fill-opacity:1" />
			<path
   class="st0"
   d="m 1929.9,1074.2 c 4.6,-5.1 8.3,-9.7 12.9,-14.8 2.8,5.5 0.5,8.3 -1.8,11.1 -4.2,4.2 -7.9,7.9 -9.2,13.9 -0.5,1.4 -3.2,2.8 -5.1,3.2 -0.5,0 -2.3,-2.3 -2.8,-3.7 -0.9,-4.2 -1.8,-8.3 -1.8,-12.5 0,-1.4 0.9,-3.2 1.4,-4.6 1.4,0.9 3.2,1.8 4.2,3.2 1.3,0.5 1.8,1.9 2.2,4.2 z"
   id="path2205"
   style="fill:#565f89;fill-opacity:1" />
			<path
   class="st0"
   d="m 2098.2,1012.7 c -9.7,0.9 -20.3,-8.3 -18.5,-16.2 4.2,3.2 8.8,6.5 14.3,11.1 0.9,-5.1 1.4,-8.8 1.8,-12.5 0,-1.8 -0.5,-3.7 -0.5,-5.5 0.5,-1.4 1.4,-2.8 2.3,-4.2 0.9,1.4 1.8,2.3 2.3,3.7 0.5,3.2 0,6.5 0,9.2 -0.3,4.7 -1.2,9.8 -1.7,14.4 z"
   id="path2207"
   style="fill:#565f89;fill-opacity:1" />
			<path
   class="st0"
   d="m 1950.3,849 c -5.5,0 -6.9,-2.3 -6.9,-6 0,-5.1 0,-9.7 0,-15.7 4.2,1.4 8.8,2.8 13.4,4.6 3.2,0.9 6,2.8 8.8,4.2 0.9,0.5 1.8,1.4 2.8,2.3 -0.9,0.9 -2.3,2.3 -3.2,2.3 -2.3,-0.5 -5.1,-1.4 -6.9,-2.3 -2.3,-0.9 -4.2,-2.8 -7.4,-4.6 -0.6,5.5 -0.6,10.1 -0.6,15.2 z"
   id="path2209"
   style="fill:#565f89;fill-opacity:1" />
			<path
   class="st0"
   d="m 1848.1,912.8 c 3.2,9.7 -5.5,12 -6.5,18.5 3.7,3.7 12,1.8 13.4,10.6 -8.3,0.5 -15.3,-2.3 -21.3,-7.4 4.7,-7.3 8.8,-13.8 14.4,-21.7 z"
   id="path2211"
   style="fill:#565f89;fill-opacity:1" />
			<path
   class="st0"
   d="m 1991.9,1019.6 c 8.8,-0.9 11.1,6.5 16.6,9.7 2.3,-3.7 4.6,-7.9 7.4,-11.6 0.5,0.5 1.4,0.5 1.8,0.9 2.8,9.2 -6,13.4 -9.7,21.3 -5.9,-7.3 -11,-13.8 -16.1,-20.3 z"
   id="path2213"
   style="fill:#565f89;fill-opacity:1" />
			<path
   class="st0"
   d="m 2053.4,843 c -2.8,-1.8 -5.5,-3.7 -8.8,-5.5 -1.4,5.1 -2.8,9.7 -4.6,14.8 -4.2,-4.6 -4.6,-16.6 -0.9,-19 2.3,-1.4 6,-0.9 8.3,0 2.8,1.4 5.1,4.6 7.4,7.4 0,0.9 -0.9,1.4 -1.4,2.3 z"
   id="path2215"
   style="fill:#565f89;fill-opacity:1" />
			<path
   class="st0"
   d="m 2041.8,961.9 c 2.8,-2.3 5.5,-4.6 8.8,-6.5 0.5,-0.5 1.4,0 1.8,0 0,6 -8.8,15.7 -15.3,16.2 -0.9,-5.5 -4.2,-10.6 -0.5,-18 2.5,3.2 3.8,5.5 5.2,8.3 z"
   id="path2217"
   style="fill:#565f89;fill-opacity:1" />
			<path
   class="st0"
   d="m 2138,924.4 c -0.5,-6.9 -0.5,-12.9 -0.9,-19 0.9,-0.5 1.4,-0.5 2.3,-0.9 1.4,1.8 3.2,3.2 3.7,5.1 1.8,6.5 0,11.6 -5.1,14.8 z"
   id="path2219"
   style="fill:#565f89;fill-opacity:1" />
			<path
   class="st0"
   d="m 1964.6,956.8 c 1.4,-4.2 1.8,-7.9 3.2,-10.6 0.9,-1.4 3.2,-1.8 5.1,-2.8 0.5,1.8 1.4,3.7 0.9,5.5 -0.9,2.8 -3.2,5.5 0,8.3 0.5,0.5 -0.5,2.3 -0.5,2.3 -2.3,0.5 -4.2,0.9 -6.5,0.5 -0.8,-0.5 -1.7,-2.3 -2.2,-3.2 z"
   id="path2221"
   style="fill:#565f89;fill-opacity:1" />
			<path
   class="st0"
   d="m 2064.5,910.1 c 3.7,-2.8 6,-5.1 9.2,-6.5 1.4,-0.9 4.6,-1.8 5.5,-0.9 2.8,1.8 0.9,4.2 -0.9,6 -2.3,1.8 -4.6,3.7 -7.4,5.1 -5,1.8 -6.9,0.9 -6.4,-3.7 z"
   id="path2223"
   style="fill:#565f89;fill-opacity:1" />
			<path
   class="st0"
   d="m 2199.5,1018.7 c -1.4,-2.3 -4.2,-5.1 -3.7,-6 0.9,-2.8 3.7,-4.6 5.5,-6.9 0.5,-0.5 2.3,0.5 3.2,1.4 0.5,0.5 0,2.3 -0.5,2.8 -0.3,2.3 -1.7,4.6 -4.5,8.7 z"
   id="path2225"
   style="fill:#565f89;fill-opacity:1" />
			<path
   class="st0"
   d="m 1817.6,987.7 c -1.8,-2.8 -4.2,-5.1 -3.7,-6.5 0.9,-2.3 3.2,-4.6 5.1,-6.5 0.5,-0.5 2.8,0.5 3.7,0.9 0.5,0.5 0,2.3 -0.5,3.2 -0.9,2.9 -2.3,5.2 -4.6,8.9 z"
   id="path2227"
   style="fill:#565f89;fill-opacity:1" />
			<path
   class="st0"
   d="m 1904.5,878.2 c -2.8,4.6 -4.6,7.9 -6.9,12 -1.4,-1.8 -4.2,-3.7 -4.2,-5.1 0.5,-2.3 2.3,-5.1 4.2,-6.5 1.4,-0.9 3.7,-0.4 6.9,-0.4 z"
   id="path2229"
   style="fill:#565f89;fill-opacity:1" />
			<path
   class="st0"
   d="m 1558.6,997 c -1.8,2.8 -3.2,5.1 -5.1,7.4 -1.4,-1.4 -3.7,-3.7 -3.2,-4.6 0.9,-2.8 3.2,-4.6 4.6,-6.9 1.4,1.3 2.4,2.2 3.7,4.1 z"
   id="path2231"
   style="fill:#565f89;fill-opacity:1" />
			<path
   class="st0"
   d="m 1950.7,894.3 c 1.8,-2.3 3.7,-4.6 5.1,-6.5 0.9,1.4 3.2,3.2 2.8,4.2 -0.9,2.8 -2.8,5.5 -4.2,8.3 -1.3,-1.8 -2.3,-3.6 -3.7,-6 z"
   id="path2233"
   style="fill:#565f89;fill-opacity:1" />
			<path
   class="st0"
   d="m 2017.8,900.4 c -1.4,-2.8 -4.2,-5.5 -3.7,-6.5 1.4,-2.8 4.2,-5.1 6.5,-6 3.2,-0.9 3.2,1.8 1.8,4.2 -0.9,2.2 -2.3,4.6 -4.6,8.3 z"
   id="path2235"
   style="fill:#565f89;fill-opacity:1" />
			<path
   class="st2"
   d="m 1706.1,1109.8 c -0.5,0 -0.5,0.5 -0.9,0.5 0,-0.5 0,-0.9 0,-1.4 0.5,0.5 0.5,0.9 0.9,0.9 z"
   id="path2237"
   style="fill:#565f89;fill-opacity:1" />
		</g>
		<path
   class="st2"
   d="m 1763,779.2 c 0,-0.5 0,-0.5 0.5,-0.9 -0.5,0.4 -0.5,0.4 -0.5,0.9 z"
   id="path2241" />
		<path
   class="st2"
   d="m 2153.3,733 c 0.5,0 0.9,-0.5 1.4,-0.5 0,0.5 -0.5,0.9 -0.5,1.4 0,-0.5 -0.5,-0.9 -0.9,-0.9 z"
   id="path2243" />
	</g>
</g>
</svg>
