<?xml version="1.0" encoding="UTF-8" standalone="no"?>
<!-- Generator: Adobe Illustrator 25.2.1, SVG Export Plug-In . SVG Version: 6.00 Build 0)  -->

<svg
   version="1.1"
   id="Layer_1"
   x="0px"
   y="0px"
   viewBox="0 0 3840 2160"
   style="enable-background:new 0 0 3840 2160;"
   xml:space="preserve"
   sodipodi:docname="puppy.svg"
   inkscape:version="1.1.1 (3bf5ae0d25, 2021-09-20)"
   xmlns:inkscape="http://www.inkscape.org/namespaces/inkscape"
   xmlns:sodipodi="http://sodipodi.sourceforge.net/DTD/sodipodi-0.dtd"
   xmlns="http://www.w3.org/2000/svg"
   xmlns:svg="http://www.w3.org/2000/svg"><defs
   id="defs2354"><inkscape:path-effect
     effect="fill_between_many"
     method="originald"
     linkedpaths="#path2488_5,0,1"
     id="path-effect1570" /><inkscape:path-effect
     effect="fill_between_many"
     method="originald"
     linkedpaths="#path1568,0,1|"
     id="path-effect2084" /></defs><sodipodi:namedview
   id="namedview2352"
   pagecolor="#505050"
   bordercolor="#eeeeee"
   borderopacity="1"
   inkscape:pageshadow="0"
   inkscape:pageopacity="0"
   inkscape:pagecheckerboard="0"
   showgrid="false"
   inkscape:zoom="0.35625"
   inkscape:cx="1308.0702"
   inkscape:cy="1079.2982"
   inkscape:window-width="1920"
   inkscape:window-height="1060"
   inkscape:window-x="1920"
   inkscape:window-y="20"
   inkscape:window-maximized="1"
   inkscape:current-layer="Layer_1" />
<style
   type="text/css"
   id="style2311">
	.st0{fill-rule:evenodd;clip-rule:evenodd;fill:url(#path2488_4_1_);}
	.st1{fill-rule:evenodd;clip-rule:evenodd;fill:url(#path52_1_);}
	.st2{fill-rule:evenodd;clip-rule:evenodd;fill:url(#path55_1_);}
	.st3{fill-rule:evenodd;clip-rule:evenodd;}
	.st4{fill-rule:evenodd;clip-rule:evenodd;fill:url(#ellipse60_1_);}
	.st5{fill-rule:evenodd;clip-rule:evenodd;fill:#141414;fill-opacity:0.3922;}
	.st6{fill-rule:evenodd;clip-rule:evenodd;fill:url(#path2419_1_);}
</style>
<rect
   style="fill:#24283b;stroke-width:5.46313"
   id="rect5602"
   width="3840"
   height="2160"
   x="0"
   y="0" /><g
   id="Group"
   transform="matrix(0.37957408,0,0,0.37957408,14.000289,-2.2075042)">
	
		<radialGradient
   id="path2488_4_1_"
   cx="-1022.8392"
   cy="-1005.5767"
   r="318.44559"
   gradientTransform="matrix(0.9856,1.0187,-0.8091,0.7828,4959.1245,3674.0403)"
   gradientUnits="userSpaceOnUse">
		<stop
   offset="0"
   style="stop-color:#000000;stop-opacity:0.3922"
   id="stop2313" />
		<stop
   offset="1"
   style="stop-color:#FFFFFF;stop-opacity:0"
   id="stop2315" />
	</radialGradient>
	
	
		<linearGradient
   id="path52_1_"
   gradientUnits="userSpaceOnUse"
   x1="8983.6162"
   y1="5526.8428"
   x2="9094.6309"
   y2="5638.855"
   gradientTransform="matrix(0.5105,0,0,0.5105,877.0613,-1172.9384)">
		<stop
   offset="0"
   style="stop-color:#FFFDFF"
   id="stop2319" />
		<stop
   offset="1"
   style="stop-color:#FFFFFF;stop-opacity:0"
   id="stop2321" />
	</linearGradient>
	
	
		<linearGradient
   id="path55_1_"
   gradientUnits="userSpaceOnUse"
   x1="7743.2432"
   y1="5968.4614"
   x2="7877.7573"
   y2="6096.7827"
   gradientTransform="matrix(0.5105,0,0,0.5105,877.0613,-1172.9384)">
		<stop
   offset="0"
   style="stop-color:#FFFFFF"
   id="stop2325" />
		<stop
   offset="1"
   style="stop-color:#FFFFFF;stop-opacity:0"
   id="stop2327" />
	</linearGradient>
	
	
	
		<linearGradient
   id="ellipse60_1_"
   gradientUnits="userSpaceOnUse"
   x1="6833.4243"
   y1="6432.5732"
   x2="6788.1987"
   y2="6382.7695"
   gradientTransform="matrix(0.5105,0,0,0.5105,877.0613,-1172.9384)">
		<stop
   offset="0"
   style="stop-color:#FFFFFF;stop-opacity:8.849560e-03"
   id="stop2332" />
		<stop
   offset="1"
   style="stop-color:#FFFFFF;stop-opacity:0.7843"
   id="stop2334" />
	</linearGradient>
	
	
	
	
		<radialGradient
   id="path2419_1_"
   cx="26442.408"
   cy="-13500.496"
   r="1137.2142"
   gradientTransform="matrix(0.09174305,0.1746,-0.2075,0.1091,-194.8448,-306.871)"
   gradientUnits="userSpaceOnUse">
		<stop
   offset="0"
   style="stop-color:#000000;stop-opacity:0"
   id="stop2340" />
		<stop
   offset="0.6326"
   style="stop-color:#FFFFFF;stop-opacity:0"
   id="stop2342" />
		<stop
   offset="0.6975"
   style="stop-color:#000000;stop-opacity:0.3922"
   id="stop2344" />
		<stop
   offset="1"
   style="stop-color:#000000"
   id="stop2346" />
	</radialGradient>
	
<path
   inkscape:original-d="M 0,0"
   inkscape:path-effect="#path-effect2084"
   d="m 5556.2,1666.6 c -126.1,0.2 -238.9,9.9 -289.7,24.7 -3,0.7 -5.7,2.2 -7.9,3.7 -76.3,-15.5 -155.2,-23.7 -236.2,-23.7 -190,0 -369.5,44.7 -528.6,124.1 -30.9,-13.3 -62.2,-21.7 -93,-24.2 -95.5,-7.7 -182.6,5.2 -255.4,25.7 -114,32.1 -194.7,85.4 -216.7,108.3 -51.1,37.8 -76.3,132.3 -86.1,242.6 -15.1,167.3 3,375.4 16.5,460 0.5,3.5 1.5,6.7 3.2,9.6 -15.5,76.3 -23.7,155.2 -23.7,235.9 0,326.5 132.5,621.9 346.8,835.9 214.2,214 510.1,346.3 837.2,346.3 326.8,0 622.7,-132.3 836.9,-346.3 214.2,-214 346.8,-509.4 346.8,-835.9 0,-203.4 -51.6,-394.9 -142.2,-562.2 2.5,-2.5 4.7,-4.9 6.9,-7.7 38,-42.9 62.2,-102.9 74.3,-167.8 11.6,-63.2 11.8,-131.3 2,-192 -11.6,-72.3 -38,-135.2 -76.3,-169.6 -1,-0.7 -1.7,-1.5 -2.7,-2.2 -61.9,-44.7 -194.7,-69.4 -336.1,-79.7 -58.5,-3.5 -118.7,-5.5 -176,-5.5 z"
   id="path2086"
   style="display:inline;fill:#414868;fill-opacity:1" /><path
   id="path1568"
   class="st3"
   d="m 5556.2,1666.6 c -126.1,0.2 -238.9,9.9 -289.7,24.7 -3,0.7 -5.7,2.2 -7.9,3.7 -76.3,-15.5 -155.2,-23.7 -236.2,-23.7 -190,0 -369.5,44.7 -528.6,124.1 -30.9,-13.3 -62.2,-21.7 -93,-24.2 -95.5,-7.7 -182.6,5.2 -255.4,25.7 -114,32.1 -194.7,85.4 -216.7,108.3 -51.1,37.8 -76.3,132.3 -86.1,242.6 -15.1,167.3 3,375.4 16.5,460 0.5,3.5 1.5,6.7 3.2,9.6 -15.5,76.3 -23.7,155.2 -23.7,235.9 0,326.5 132.5,621.9 346.8,835.9 214.2,214 510.1,346.3 837.2,346.3 326.8,0 622.7,-132.3 836.9,-346.3 214.2,-214 346.8,-509.4 346.8,-835.9 0,-203.4 -51.6,-394.9 -142.2,-562.2 2.5,-2.5 4.7,-4.9 6.9,-7.7 38,-42.9 62.2,-102.9 74.3,-167.8 11.6,-63.2 11.8,-131.3 2,-192 -11.6,-72.3 -38,-135.2 -76.3,-169.6 -1,-0.7 -1.7,-1.5 -2.7,-2.2 -61.9,-44.7 -194.7,-69.4 -336.1,-79.7 -58.5,-3.5 -118.7,-5.5 -176,-5.5 z m 5.5,55.5 c 54.3,0.2 111.1,2.2 166.3,6.2 131.5,9.6 253.2,31.1 306.5,68.6 28.1,25.7 47.9,76.5 57.8,136.2 8.9,54.8 8.6,116.2 -1.7,173 -10.1,55.5 -30.1,106.1 -61.2,140.9 -21,23.7 -47.4,40 -79.5,45.2 -70.8,11.4 -112,-58 -169.3,-154.7 -50.8,-85.6 -112.8,-190.3 -217.4,-283.1 -42,-30.4 -78.7,0.5 -56.5,25.4 l 0.5,0.5 c 111.1,92.1 174,198.9 225.6,285.8 68.4,115.5 117.7,198.7 226.1,181.2 22.2,-3.7 42.4,-10.9 60.7,-21.2 83.7,157.5 131.1,336.9 131.1,527.4 0,311.2 -126.4,592.8 -330.2,796.7 -204.1,203.9 -486,329.7 -797.4,329.7 -311.4,0 -593.6,-126.1 -797.7,-329.7 -204.6,-203.6 -330.7,-485.2 -330.7,-796.4 0,-76.5 7.7,-151 22.2,-223.4 -7.9,-41.5 -11.4,-86.6 -13.6,-120.9 0,-0.2 0,-0.5 0,-1 -9.4,-98.7 -15.5,-237.9 -5.2,-355.9 8.6,-97.5 27.9,-178.4 64.9,-203.1 2.5,-1.7 4.7,-3.9 6.7,-6.2 12.1,-15.8 82.9,-62.2 191,-92.8 54.5,-15.3 118,-26.2 187.1,-25.7 16,0 32.3,0.7 48.9,2 97.7,7.9 201.6,90.3 273.9,191 29.9,41.5 54,85.9 69.8,129.1 15.3,42.2 23,83.2 20,119.2 -3,37.8 -18,70.1 -48.1,91.6 -53.1,38 -127.3,14.6 -212.5,-12.1 -132.8,-41.7 -288.3,-90.3 -454.6,34.8 v 0 c -41.7,29.1 -11.8,72.1 12.8,62.9 155.7,-129.1 301.6,-83.4 425,-44.7 99.2,31.1 186.1,58.2 261.6,4.2 44.9,-32.1 67.1,-78.7 71.3,-132.5 3.5,-43.9 -5.2,-93 -23.2,-142.4 -17.8,-48.4 -44.2,-97.2 -76.8,-142.7 -44.4,-61.9 -100.4,-117.7 -161.2,-157 142.4,-64.9 300.9,-101.2 467.7,-101.2 83.9,0 165.9,9.1 244.3,26.7 33.3,-14.3 78,-19.3 117,-24.9 l 0.5,-0.2 c 44.4,-3.9 97.5,-6.4 154.3,-6.7 7.6,0.2 15.3,0.2 23.2,0.2 z m 120.4,599.7 c -109.1,0 -197.4,88.4 -197.4,197.2 0,108.8 88.4,197.2 197.4,197.2 109.1,0 197.4,-88.4 197.4,-197.2 0.1,-108.8 -88.3,-197.2 -197.4,-197.2 z m -1231.3,143.9 c -213.2,0 -386,172.5 -386,385.5 0,213 173,385.3 386,385.3 213,0 386,-172.5 386,-385.3 0,-212.8 -172.7,-385.5 -386,-385.5 z m 106.6,201.9 c 97.7,0 177,79.2 177,176.7 0,97.5 -79.2,176.7 -177,176.7 -97.8,0 -177,-79.2 -177,-176.7 0.1,-97.7 79.3,-176.7 177,-176.7 z m 981.1,153.8 c -4.9,0 -9.4,1 -13.8,2.5 L 4974.8,2984 c -1,0.2 -2.2,0.5 -3.2,1 h -0.2 -0.2 v 0 c -15.8,5.7 -27.1,20.7 -27.1,38.5 0,17 10.4,31.3 24.9,37.5 h 0.2 l 338.4,190.8 v 1.5 c 0,58.7 -26.2,111.8 -68.4,150.5 -42.9,39.5 -102.7,63.7 -168.8,63.7 -41.7,0 -81.7,-9.6 -116.5,-27.4 -34.1,-17.3 -63.4,-42.4 -84.9,-73.8 -0.2,-0.5 -0.5,-1 -1,-1.5 -6.7,-9.9 -18,-16.3 -30.6,-16.3 -20.5,0 -37,16.5 -37,37 0,8.1 2.7,15.8 7.2,22 28.4,41.5 67.4,75 112.8,98.2 45.4,23.2 97,36 150.1,36 85.1,0 162.6,-31.8 218.9,-83.4 41,-37.5 70.6,-85.1 84.2,-138.9 55.3,45.7 128.1,73.3 207.3,73.3 85.1,0 162.6,-31.8 218.9,-83.4 57,-52.3 92.3,-124.6 92.3,-204.8 0,-3.5 0,-7.4 -0.2,-12.1 0,-0.2 0,-0.5 0,-0.7 0,-20.5 -16.5,-37 -37,-37 -20.5,0 -37,16.5 -37,37 0,0.2 0,0.7 0,1 0,0.5 0,1.2 0.2,1.7 0.2,2.7 0.2,5.9 0.2,10.1 0,58.7 -26.2,111.8 -68.4,150.5 -42.9,39.5 -102.7,63.7 -168.8,63.7 -63.4,0 -121.2,-22.5 -163.9,-59.5 -8.9,-7.7 -17,-15.8 -24.4,-24.7 L 5574,2882.8 c 3.5,-5.9 5.7,-13.1 5.7,-20.5 -0.3,-22.7 -18.5,-40.9 -41.2,-40.9 z"
   clip-path="none"
   style="display:inline;fill:#b4f9f8;fill-opacity:1" /></g>
</svg>
