<?xml version="1.0" encoding="UTF-8" standalone="no"?>
<!-- Generator: Adobe Illustrator 25.2.1, SVG Export Plug-In . SVG Version: 6.00 Build 0)  -->

<svg
   version="1.1"
   id="Layer_1"
   x="0px"
   y="0px"
   viewBox="0 0 3840 2160"
   style="enable-background:new 0 0 3840 2160;"
   xml:space="preserve"
   sodipodi:docname="solus.svg"
   inkscape:version="1.1.1 (3bf5ae0d25, 2021-09-20)"
   xmlns:inkscape="http://www.inkscape.org/namespaces/inkscape"
   xmlns:sodipodi="http://sodipodi.sourceforge.net/DTD/sodipodi-0.dtd"
   xmlns="http://www.w3.org/2000/svg"
   xmlns:svg="http://www.w3.org/2000/svg"><defs
   id="defs2425" /><sodipodi:namedview
   id="namedview2423"
   pagecolor="#505050"
   bordercolor="#eeeeee"
   borderopacity="1"
   inkscape:pageshadow="0"
   inkscape:pageopacity="0"
   inkscape:pagecheckerboard="0"
   showgrid="false"
   inkscape:zoom="0.35625"
   inkscape:cx="1308.0702"
   inkscape:cy="1079.2982"
   inkscape:window-width="1920"
   inkscape:window-height="1060"
   inkscape:window-x="1920"
   inkscape:window-y="20"
   inkscape:window-maximized="1"
   inkscape:current-layer="Layer_1" />
<style
   type="text/css"
   id="style2413">
	.st0{fill-rule:evenodd;clip-rule:evenodd;fill:#4C5263;}
	.st1{fill:#5294E2;}
	.st2{fill-rule:evenodd;clip-rule:evenodd;fill:#FFFFFF;}
</style>
<rect
   style="fill:#24283b;stroke-width:5.46313"
   id="rect5602"
   width="3840"
   height="2160"
   x="0"
   y="0" /><g
   id="Group_1_"
   transform="translate(870.83295,1730.8969)">
	<path
   class="st0"
   d="m 1485.1,-623.9 c -4.3,-4.5 -8.9,-8.9 -13.6,-13 0,-0.2 0,-0.4 0,-0.5 0,-240.6 -195.1,-435.7 -435.7,-435.7 -41.8,0 -82.1,6 -120.5,16.8 -17.2,-25.2 -30.6,-42.5 -36,-44.1 -6.7,21.7 -13.6,43.4 -21,65 -152.2,68 -258.2,220.6 -258.2,397.9 0,44.5 6.7,87.4 19,127.9 -4.2,7.2 -8.1,14.7 -12.3,21.9 l -6.9,13.6 10.5,5.4 c 7.1,3.3 15.9,5.8 27,8.1 10.3,23.3 22.8,45.6 36.9,66.6 151.1,12.8 320.4,19.2 466.5,-2 140,-20.3 257.5,-66.2 321.2,-152 v 0 c -0.2,1.1 -0.4,2 -0.7,3.1 0.2,-1.1 0.5,-2 0.7,-3.1 12.1,-16.5 21.7,-33.1 29.7,-48.7 l 6.9,-13.6 z"
   id="path2415"
   style="fill:#565f89;fill-opacity:1" />
	<path
   id="path4814-1"
   class="st1"
   d="m 1145.4,-366.8 c -148,20.8 -298.9,15.8 -447.4,4.4 95.5,122 261.8,183.3 415.3,153.8 148.2,-25.5 277.9,-133.9 330.2,-274.7 -88,62.2 -191.9,100.2 -298.1,116.5 z"
   style="fill:#2ac3de;fill-opacity:1" />
	<path
   id="path4816-6"
   class="st2"
   d="m 1063.1,-807.5 c 65.7,135.2 65.7,268.9 27.1,367.7 54.1,0.4 142.4,6.3 238.3,-40.9 -78.7,-179.9 -265.4,-326.8 -265.4,-326.8 z" />
	<path
   id="path4819-6"
   class="st2"
   d="M 892.8,-1039.1 C 848.5,-858.6 721.1,-636.4 641,-494.5 l 70.9,17 c 44.7,6.3 99.9,12.7 153.3,18.3 98.1,10.1 176.4,18.1 191.1,19.2 -2.2,-27.3 -22.3,-324.1 -27.1,-381.2 -49.7,-89.7 -89.9,-136.2 -136.4,-217.9 z" />
	<path
   id="path4821-7"
   class="st2"
   d="m 1192.5,-725.9 c 40.7,27.3 79.4,52.1 108.9,81.6 39.8,40 60.3,93.7 54.5,149.8 53.4,-26.8 88.7,-71.5 108.9,-108.9 -35.5,-32.8 -97,-65 -163.4,-88.5 -36.6,-13 -75.1,-24.8 -108.9,-34 z" />
</g>
</svg>
