<?xml version="1.0" encoding="UTF-8" standalone="no"?>
<!-- Generator: Adobe Illustrator 25.2.1, SVG Export Plug-In . SVG Version: 6.00 Build 0)  -->

<svg
   version="1.1"
   id="Layer_1"
   x="0px"
   y="0px"
   viewBox="0 0 3840 2160"
   style="enable-background:new 0 0 3840 2160;"
   xml:space="preserve"
   sodipodi:docname="tux-icon.svg"
   inkscape:version="1.1.1 (3bf5ae0d25, 2021-09-20)"
   xmlns:inkscape="http://www.inkscape.org/namespaces/inkscape"
   xmlns:sodipodi="http://sodipodi.sourceforge.net/DTD/sodipodi-0.dtd"
   xmlns="http://www.w3.org/2000/svg"
   xmlns:svg="http://www.w3.org/2000/svg"><defs
   id="defs2585" /><sodipodi:namedview
   id="namedview2583"
   pagecolor="#505050"
   bordercolor="#eeeeee"
   borderopacity="1"
   inkscape:pageshadow="0"
   inkscape:pageopacity="0"
   inkscape:pagecheckerboard="0"
   showgrid="false"
   inkscape:zoom="0.35625"
   inkscape:cx="1308.0702"
   inkscape:cy="1079.2982"
   inkscape:window-width="1920"
   inkscape:window-height="1060"
   inkscape:window-x="1920"
   inkscape:window-y="20"
   inkscape:window-maximized="1"
   inkscape:current-layer="Layer_1" />
<style
   type="text/css"
   id="style2567">
	
		.st0{fill-rule:evenodd;clip-rule:evenodd;fill:#FFFFFF;stroke:#000000;stroke-width:4.4171;stroke-linecap:round;stroke-linejoin:round;stroke-miterlimit:10;}
	.st1{fill-rule:evenodd;clip-rule:evenodd;}
	.st2{fill-rule:evenodd;clip-rule:evenodd;fill:#FFFFFF;}
	.st3{fill-rule:evenodd;clip-rule:evenodd;fill:#FFD320;}
	.st4{fill-rule:evenodd;clip-rule:evenodd;fill:#E68C3F;}
</style>
<rect
   style="fill:#24283b;stroke-width:3.65769"
   id="rect3796"
   width="3840"
   height="2160"
   x="0"
   y="0" /><g
   id="g2580">
	<path
   id="frame"
   class="st0"
   d="m 1396.7,695.3 c 0,-2.1 0,-5.1 0,-7.6 0,-23.9 5.9,-44.8 17.5,-65.7 11.6,-20.9 27.4,-35.9 47.9,-47.9 16,-9.7 32.1,-14.4 49.6,-16.9 v -0.4 h 816.5 v 0.6 c 17.5,2.3 33.6,7.2 49.6,16.9 20.5,11.8 35.9,27.2 47.9,47.9 12,20.5 17.5,41.8 17.5,65.7 0,2.3 0,5.5 0,7.6 v 0 769.2 0 c 0,2.1 0,5.1 0,7.8 0,23.4 -5.9,44.6 -17.5,65.2 -11.6,20.9 -27.2,35.9 -47.9,47.9 -16,9.7 -32.1,14.4 -49.6,16.9 v 0.6 h -816.7 v -0.6 c -17.5,-2.3 -33.6,-7.2 -49.6,-16.9 -20.5,-11.8 -35.9,-27.2 -47.9,-47.9 -11.8,-20.5 -17.3,-41.8 -17.3,-65.2 0,-2.7 0,-5.9 0,-7.8 v 0 z"
   style="fill:#565f89;fill-opacity:1;stroke:#1a1b26;stroke-opacity:1" />
	<g
   id="tux"
   transform="translate(-67.0625,94.125)">
		<path
   id="path175"
   class="st1"
   d="m 2087.3,1452.8 c 27.9,-81.5 24.3,-176.1 -10.1,-255.1 -27.4,-61.9 -65.7,-132.8 -77.9,-200.2 -4.4,-23.9 -8,-59.1 -4,-83.2 0.8,-15 7.4,-34 12.7,-47.9 15.8,-36.3 41.8,-64.6 74.1,-87 57.4,-37.2 133,-69.7 202.5,-54.5 14.6,2.7 33.2,10.3 46.7,16 21.3,11.4 48.1,34.8 65,52.2 20.7,23.4 43.3,59.3 58.9,86.1 10.8,19.4 32.9,72.8 42.4,93.5 l 9.5,24.7 v 367.4 0 c 5.1,67.8 -47.5,132 -114.9,138.9 v 1.1 h -319.9 z"
   style="fill:#1a1b26;fill-opacity:1" />
		<g
   id="g179"
   transform="matrix(0.02143509,0,0,0.02151492,-11.905135,134.44951)">
			<path
   id="path185"
   class="st2"
   d="m 117570.8,57315.3 c 278.5,3114.6 -2281.5,6086.9 -5358.9,6469.7 -102.4,-352.4 -10100.3,666 -9273.8,-474.2 104.3,-1354.5 -44.3,-2795.4 -65.2,-4152.2 -169.3,-1779.5 -361.7,-3604.3 -925.2,-5311 -1135.8,-2180.7 403.5,-3951.6 2121.2,-5245.7 2565.9,-1949.5 8792.6,-4824.3 10853,-1014.8 786.5,1008.6 1634.3,2042.6 2457.6,3020.9 519.2,-1.5 27.4,6531.4 191.3,6707.3 z"
   style="fill:#d5d6db;fill-opacity:1" />
			<path
   id="path193"
   class="st2"
   d="m 103224.5,41374.1 c 2201,4891 -2363.2,7000.6 -4762.5,2225.7 -2168,-4927.1 2442.2,-7005.2 4762.5,-2225.7 z"
   style="fill:#d5d6db;fill-opacity:1" />
			<path
   id="path201"
   class="st2"
   d="m 105738,40545.6 c 2668.1,5653.5 8954.4,2816.1 6688.8,-2913 -2673.1,-5660.8 -8953.3,-2784.6 -6688.8,2913 z"
   style="fill:#d5d6db;fill-opacity:1" />
			<path
   id="path209"
   class="st1"
   d="m 107499.4,40452.5 c 1414.3,3343.5 4305.1,1775.3 3016.7,-1395.5 -1471.3,-3045.4 -4098.8,-1555.3 -3016.7,1395.5 z"
   style="fill:#1a1b26;fill-opacity:1" />
			<path
   id="path217"
   class="st1"
   d="m 102136.1,42626.2 c 361.5,775.8 701.6,2124.6 -178.4,2532.5 -1434.8,263.7 -2724.4,-2205 -2209,-3388.1 30.6,-381.1 507.8,-605.8 821.8,-522.2 739.8,128.5 1187.6,785.1 1565.6,1377.8 z"
   style="fill:#1a1b26;fill-opacity:1" />
			<path
   id="path225"
   class="st3"
   d="m 101767,45288.6 c 1074.8,-3120.5 3726.8,-4412.8 6924,-3774.9 1604.5,364 3278.7,-212.2 4868.2,223.4 2379.6,762.9 1431.6,3766.4 46.7,5087.4 -2299.4,1979.5 -2822,4603 -6241.8,5008.4 -1523.9,8.7 -2861.7,-848.4 -4354.3,-1047.3 -1354.7,-154.1 -3089.1,-1133.6 -2849.9,-2695.1 375,-1021.1 1089.8,-1903.7 1607.1,-2801.9 z"
   style="fill:#e1cd46;fill-opacity:1" />
			<path
   id="path233"
   class="st4"
   d="m 113288.1,43659.6 c -75.4,30.4 -174,57.6 -224.2,125.6 -128,43.3 -262.9,206.7 -364.4,297.9 -488,621.4 -1531.9,1966.6 -2027.7,2583.4 -431,480.1 -942.1,1091 -1448.3,1494.1 -466.2,352.8 -954.2,756.1 -1485.6,1010.1 -428.2,180.5 -924.8,347.1 -1387.7,405 -429.5,54.1 -913.2,117.2 -1345.4,60.6 -683.3,-62.3 -1442.4,-195.9 -2083.8,-446.8 -325.8,-130.5 -896.7,-293.3 -1219.4,-432.9 -99.9,-37.6 -209,-110.9 -317.8,-111.7 l -42,-18.6 -46.7,18.6 v 0 0 0 0 0 0 l -28.1,9.3 v 0 0 0 c -25.6,-66.5 -79.6,-199.7 -107.5,-265.4 v 0 l 32.7,-13.9 v 0 l 42,-13.9 32.7,-13.9 9.3,27.9 c 17.3,-4.9 57.6,-20.9 74.8,-27.9 l -4.6,37.2 v 0 c 22.4,-8.4 67.1,-27.2 88.7,-37.2 747.7,301.5 1601.4,635.8 2392.1,837.8 278.7,38 690.9,122.3 962.4,176.9 118,-18.6 361.7,-17.3 481.2,-4.6 674.4,84.9 1460.3,-116.1 2088.5,-358.3 421.5,-170.4 861.5,-436.9 1238.2,-689 368,-258.9 781.5,-660.5 1102.6,-977.6 733.1,-744.7 1765.8,-2118 2392.1,-2969.6 58.7,-81.1 200,-231.4 275.8,-297.9 56.2,-87 204.8,-253.8 285,-321.2 95,-30 166.2,-134.1 224.2,-209.5 42.9,-17.9 134.3,-54.5 177.6,-69.9 l 18.6,-41.8 102.8,-41.8 c 26.6,68.9 83.4,209.9 111.9,279 z" />
		</g>
	</g>
</g>
</svg>
