<?xml version="1.0" encoding="UTF-8" standalone="no"?>
<!-- Generator: Adobe Illustrator 25.2.1, SVG Export Plug-In . SVG Version: 6.00 Build 0)  -->

<svg
   version="1.1"
   id="Layer_1"
   x="0px"
   y="0px"
   viewBox="0 0 3840 2160"
   style="enable-background:new 0 0 3840 2160;"
   xml:space="preserve"
   sodipodi:docname="tux.svg"
   inkscape:version="1.1.1 (3bf5ae0d25, 2021-09-20)"
   xmlns:inkscape="http://www.inkscape.org/namespaces/inkscape"
   xmlns:sodipodi="http://sodipodi.sourceforge.net/DTD/sodipodi-0.dtd"
   xmlns="http://www.w3.org/2000/svg"
   xmlns:svg="http://www.w3.org/2000/svg"><defs
   id="defs2508" /><sodipodi:namedview
   id="namedview2506"
   pagecolor="#505050"
   bordercolor="#eeeeee"
   borderopacity="1"
   inkscape:pageshadow="0"
   inkscape:pageopacity="0"
   inkscape:pagecheckerboard="0"
   showgrid="false"
   inkscape:zoom="0.7125"
   inkscape:cx="1943.8597"
   inkscape:cy="1138.9474"
   inkscape:window-width="1920"
   inkscape:window-height="1060"
   inkscape:window-x="1920"
   inkscape:window-y="20"
   inkscape:window-maximized="1"
   inkscape:current-layer="Layer_1"
   inkscape:snap-bbox="false"
   inkscape:snap-global="false" />
<style
   type="text/css"
   id="style2484">
	.st0{fill-rule:evenodd;clip-rule:evenodd;fill:#282828;}
	.st1{fill-rule:evenodd;clip-rule:evenodd;fill:#FCC624;}
	.st2{fill:#FCC624;}
	.st3{fill:#282828;}
	.st4{fill:#F5F5F5;}
</style>
<rect
   style="fill:#24283b;stroke-width:8.1504"
   id="rect5483"
   width="3840"
   height="2160"
   x="0"
   y="0" /><g
   id="g2503">
	<path
   id="path2486"
   class="st0"
   sodipodi:type="inkscape:offset"
   inkscape:radius="8.7427893"
   inkscape:original="M 1929.4004 552.07422 C 1921.4566 551.93047 1914.7992 552.27422 1910.1992 552.69922 C 1894.6992 553.99922 1829.3996 569.69961 1799.0996 631.09961 C 1789.5996 649.79961 1783.5004 672.8 1782.9004 701 C 1780.7004 820.6 1788.1 802.20039 1783.5 856.90039 C 1781.9 877.10039 1772.7996 907.30039 1758.0996 936.90039 C 1741.2996 970.70039 1719.0004 997.19961 1705.9004 1016.5996 C 1679.1004 1056.2996 1653.4004 1090.8008 1633.9004 1130.3008 C 1622.9004 1152.8008 1614.9004 1184.3004 1611.4004 1206.9004 C 1609.0004 1222.1004 1608.9008 1241.7 1609.3008 1260 C 1595.6008 1271.9 1588.6 1292.0008 1574.5 1307.3008 C 1565.4 1317.1008 1547.9004 1320.3996 1528.4004 1324.0996 C 1511.7004 1327.1996 1494.0008 1333.7992 1487.8008 1343.6992 C 1487.1008 1344.6992 1486.5004 1345.8996 1485.9004 1347.0996 C 1471.8004 1374.1996 1488.9992 1420.5996 1480.6992 1455.0996 C 1477.0992 1469.6996 1471 1483.5 1471 1496 C 1471 1502.5 1472.5 1509.4008 1477 1517.3008 C 1481.9 1525.9008 1492.8004 1532.0004 1508.4004 1537.4004 C 1522.8004 1542.5004 1541.6004 1546.8 1563.4004 1552 L 1571 1553.8008 C 1580.8 1556.2008 1590.6 1558.4 1600.5 1560.5 C 1606.9 1561.8 1610.6004 1562.4 1613.9004 1563 C 1627.7004 1565.5 1633.0996 1566.4004 1670.0996 1580.9004 C 1678.9996 1584.3004 1689.0004 1588.2008 1699.4004 1591.3008 C 1720.1004 1597.7008 1743.5992 1602.5004 1765.1992 1598.4004 C 1776.1992 1596.5004 1786.4992 1592.3 1795.6992 1585 C 1805.1992 1577.6 1814.4008 1567.6008 1820.8008 1557.3008 C 1822.6008 1554.6008 1824.0996 1551.8 1825.5996 1549 C 1826.7996 1546.6 1828.0004 1544.0996 1828.9004 1541.5996 C 1829.8004 1539.1996 1830.5 1536.8 1831 1534.5 C 1839.8 1530.2 1861.3992 1523.6 1912.6992 1523 C 1990.0992 1522.3 2041.6992 1550.1992 2041.6992 1550.1992 L 2041.6992 1549.5996 C 2042.2992 1553.2996 2043.1996 1556.7 2044.0996 1560 C 2045.5996 1564.8 2047.4992 1569.2004 2050.1992 1573.4004 C 2052.8992 1577.6004 2056.3 1581.6 2060.5 1585.5 C 2065.1 1589.7 2070.6 1593.7 2077 1597 C 2083 1600.1 2089.5008 1602.6996 2096.8008 1604.5996 C 2103.3008 1606.3996 2110.4996 1607.4004 2118.0996 1607.9004 C 2125.1996 1608.2004 2132.5008 1607.9004 2140.3008 1606.9004 C 2153.4008 1605.0004 2163.4 1600.8996 2172 1595.5996 C 2180.5 1590.3996 2187.3008 1584.0992 2194.3008 1577.6992 L 2194.4004 1577.5996 C 2199.0004 1573.3996 2203.8 1569.1008 2209 1565.3008 C 2212.4 1562.6008 2215.6992 1560.2004 2218.6992 1557.9004 C 2223.1992 1554.5004 2225.6992 1552.4 2228.1992 1550.5 C 2235.7992 1544.5 2243.7992 1538.3008 2251.6992 1532.3008 C 2259.8992 1526.2008 2268.5 1520.1 2278 1514 C 2285.1 1509.4 2293.2004 1504.1996 2300.9004 1499.0996 C 2308.9004 1493.8996 2317.3 1488.4 2325 1483 C 2339 1473.5 2358.5008 1461.6008 2365.8008 1446.3008 C 2368.1008 1441.1008 2369.3996 1436.0996 2369.0996 1430.5996 C 2367.8996 1412.9996 2347.1008 1397.1 2328.8008 1381.5 C 2319.9008 1373.8 2310.7992 1366.2004 2306.1992 1358.4004 C 2302.2992 1352.2004 2297.9 1342.6008 2296.5 1335.8008 C 2292.9 1316.6008 2292.9004 1302.3008 2283.9004 1289.8008 C 2275.6004 1278.2008 2268.3 1274.9004 2255.5 1273.4004 C 2253.6 1273.3004 2251.8 1272.9992 2250 1272.6992 C 2258.3 1242.0992 2260.6992 1222.6 2259.1992 1197 C 2255.7992 1138.4 2218.9008 1076.2992 2170.8008 1005.6992 C 2154.6008 981.89922 2135.4996 957.19961 2122.0996 936.09961 C 2106.4996 911.59961 2090.3004 883.3 2083.9004 857.5 C 2079.1004 838.2 2077.2 801.59922 2076.5 740.69922 C 2078.7 647.39922 2049.9004 604.4 2014.9004 577.5 C 1988.6504 557.325 1953.2316 552.50547 1929.4004 552.07422 z "
   d="m 1929.5586,543.33203 c -8.2668,-0.14959 -15.1895,0.20518 -20.127,0.66016 -9.6643,0.81611 -30.1365,5.27422 -53.3476,17.65625 -23.2269,12.39046 -48.6837,32.90003 -64.8067,65.55078 -10.11,19.9232 -16.4931,44.28449 -17.1171,73.61523 a 8.7436635,8.7436635 0 0 0 -0,0.0254 c -1.1032,59.97197 0.2116,85.70947 1.2148,102.95508 1.0033,17.24562 1.6882,25.33156 -0.5859,52.37305 a 8.7436635,8.7436635 0 0 0 -0,0.043 c -1.4482,18.28245 -10.23,48.0351 -24.5157,76.80078 -16.238,32.66857 -38.0068,58.54244 -51.6152,78.69528 -26.664,39.4986 -52.6385,74.3006 -72.5938,114.7227 a 8.7436635,8.7436635 0 0 0 -0.014,0.031 c -11.6756,23.8819 -19.6612,55.7014 -23.2832,79.0762 -6e-4,0 -0,0.01 -0,0.012 -6e-4,0 -0,0.01 -0,0.014 -2.3952,15.1877 -2.5123,33.4284 -2.2012,50.7832 -14.0679,13.8969 -20.8181,32.357 -32.4727,45.0137 -5.9645,6.4132 -21.7986,10.4466 -41.2812,14.1445 -17.7205,3.2894 -36.9822,8.7579 -46.2754,23.3731 -1.1241,1.6452 -1.8376,3.0981 -2.4063,4.2382 -8.6363,16.6434 -7.2282,36.4106 -5.7148,55.8868 1.5141,19.4857 3.4079,38.9842 -0.2051,54.0292 -3.359,13.6069 -9.9453,27.6344 -9.9453,42.9688 0,7.845 1.9743,16.5523 7.1445,25.6289 a 8.7436635,8.7436635 0 0 0 0,0 c 6.7721,11.8858 19.7735,18.3629 36.0781,24.0117 0.01,0 0.012,0 0.018,0.01 15.1968,5.3804 34.1245,9.6701 55.8711,14.8574 a 8.7436635,8.7436635 0 0 0 0.014,0 l 7.5996,1.8008 c 9.8878,2.4206 19.7564,4.6347 29.7011,6.7441 a 8.7436635,8.7436635 0 0 0 0.074,0.016 c 6.5299,1.3264 10.3986,1.9554 13.5761,2.5332 a 8.7436635,8.7436635 0 0 0 0.01,0 c 13.8313,2.5057 17.7229,2.9981 54.5684,17.4375 a 8.7436635,8.7436635 0 0 0 0.07,0.027 c 8.8463,3.3794 19.0444,7.3646 29.8828,10.5976 21.2708,6.5733 45.9556,11.8545 69.8828,7.336 12.1955,-2.1154 23.9713,-6.8999 34.3574,-15.1329 10.3034,-8.0319 20.0085,-18.5561 27.0391,-29.8339 2.0665,-3.1155 3.6844,-6.1443 5.164,-8.9063 a 8.7436635,8.7436635 0 0 0 0.1133,-0.2187 c 1.2343,-2.4685 2.5759,-5.233 3.6817,-8.2911 0.441,-1.1792 0.6764,-2.3301 1.0351,-3.5019 8.861,-3.5408 29.3054,-8.8429 74.6406,-9.375 68.426,-0.6189 113.5262,20.6046 121.5254,24.6289 0.4684,1.9832 0.883,4.1757 1.3614,5.9297 a 8.7436635,8.7436635 0 0 0 0.09,0.3066 c 1.6731,5.3538 3.8984,10.554 7.0918,15.5215 3.1405,4.8853 7.0454,9.4505 11.7051,13.7773 a 8.7436635,8.7436635 0 0 0 0.055,0.051 c 5.1194,4.6743 11.2399,9.1276 18.3808,12.8106 0,9e-4 0,0 0.01,0 8e-4,5e-4 0,0 0,0 6.4966,3.3559 13.6147,6.1989 21.5411,8.2676 7.2774,2.0086 15.0127,3.0611 22.9902,3.5859 a 8.7436635,8.7436635 0 0 0 0.2051,0.01 c 7.5982,0.321 15.4178,-0 23.6816,-1.0625 a 8.7436635,8.7436635 0 0 0 0.1445,-0.02 c 14.2317,-2.0641 25.5484,-6.6714 35.0059,-12.4961 l 0.01,-0 c 9.4078,-5.7564 16.66,-12.527 23.6308,-18.9004 a 8.7436635,8.7436635 0 0 0 0.1543,-0.1464 c 4.5383,-4.1429 9.0915,-8.2023 13.8047,-11.6465 a 8.7436635,8.7436635 0 0 0 0.2793,-0.2129 c 3.2021,-2.5429 6.4214,-4.8867 9.5313,-7.2695 l 0.019,-0.016 c 4.6212,-3.4924 7.2424,-5.6831 9.5019,-7.4004 a 8.7436635,8.7436635 0 0 0 0.127,-0.1 c 7.5347,-5.9484 15.469,-12.096 23.3008,-18.0449 l 0,-0 c 8.0898,-6.018 16.5154,-11.9936 25.8027,-17.9571 a 8.7436635,8.7436635 0 0 0 0.029,-0.02 c 7.0575,-4.5725 15.1591,-9.774 22.9121,-14.9082 l 0.019,-0.014 c 8.0114,-5.2074 16.478,-10.7484 24.334,-16.2578 l -0.1113,0.076 c 13.6855,-9.2866 34.6361,-20.9966 43.7832,-40.168 a 8.7436635,8.7436635 0 0 0 0.1055,-0.2285 c 2.6463,-5.983 4.4236,-12.5568 4.0332,-19.7149 a 8.7436635,8.7436635 0 0 0 -0.01,-0.1191 c -0.8211,-12.0418 -7.8338,-21.9081 -16.0899,-30.6914 -8.2413,-8.7676 -18.202,-16.746 -27.2109,-24.4238 l -0.029,-0.025 c -0.01,-0.01 -0.013,-0.012 -0.02,-0.018 -8.9588,-7.7516 -17.4497,-15.3037 -20.7422,-20.8867 a 8.7436635,8.7436635 0 0 0 -0.1309,-0.2129 c -3.3057,-5.2553 -7.5147,-14.8143 -8.5234,-19.6719 -3.4304,-18.3683 -3.2578,-34.3339 -14.0664,-49.3613 v -0 c -8.2759,-11.5656 -18.3391,-16.9378 -30.2832,-19.1504 6.4034,-25.9175 8.5792,-45.5383 7.2011,-69.0664 v -0.01 c -3.5931,-61.8925 -41.6308,-124.86 -89.9004,-195.709 l -0,-0 c -16.4152,-24.11589 -35.5057,-48.83331 -48.5449,-69.36519 a 8.7436635,8.7436635 0 0 0 -0.01,-0.008 c -15.4345,-24.24012 -31.1582,-52.10578 -37.0879,-76.00977 a 8.7436635,8.7436635 0 0 0 -0,-0.004 c -4.3057,-17.31216 -6.4442,-54.0326 -7.1426,-114.79101 l -0,0.30664 c 2.2439,-95.16092 -28.2798,-142.10681 -65.0117,-170.33789 -28.7293,-22.08057 -65.8172,-26.78659 -90.6699,-27.23633 z"
   style="fill:#d5d6db;fill-opacity:1" /><path
   class="st0"
   d="m 2369.1,1430.6 c -1.2,-17.6 -22,-33.5 -40.3,-49.1 -8.9,-7.7 -18,-15.3 -22.6,-23.1 -3.9,-6.2 -8.3,-15.8 -9.7,-22.6 -3.6,-19.2 -3.6,-33.5 -12.6,-46 -8.3,-11.6 -15.6,-14.9 -28.4,-16.4 -1.9,-0.1 -3.7,-0.4 -5.5,-0.7 8.3,-30.6 10.7,-50.1 9.2,-75.7 -3.4,-58.6 -40.3,-120.7 -88.4,-191.3 -16.2,-23.8 -35.3,-48.5 -48.7,-69.6 -15.6,-24.5 -31.8,-52.8 -38.2,-78.6 -4.8,-19.3 -6.7,-55.9 -7.4,-116.8 2.2,-93.3 -26.6,-136.3 -61.6,-163.2 -35,-26.9 -86.3,-26.5 -104.7,-24.8 v 0 c -15.5,1.3 -80.8,17 -111.1,78.4 v 0 c -9.5,18.7 -15.6,41.7 -16.2,69.9 -2.2,119.6 5.2,101.2 0.6,155.9 -1.6,20.2 -10.7,50.4 -25.4,80 -16.8,33.8 -39.1,60.3 -52.2,79.7 -26.8,39.7 -52.5,74.2 -72,113.7 -11,22.5 -19,54 -22.5,76.6 -2.4,15.2 -2.5,34.8 -2.1,53.1 -13.7,11.9 -20.7,32 -34.8,47.3 -9.1,9.8 -26.6,13.1 -46.1,16.8 -16.7,3.1 -34.4,9.7 -40.6,19.6 -0.7,1 -1.3,2.2 -1.9,3.4 -14.1,27.1 3.1,73.5 -5.2,108 -3.6,14.6 -9.7,28.4 -9.7,40.9 0,6.5 1.5,13.4 6,21.3 4.9,8.6 15.8,14.7 31.4,20.1 14.4,5.1 33.2,9.4 55,14.6 l 7.6,1.8 c 9.8,2.4 19.6,4.6 29.5,6.7 6.4,1.3 10.1,1.9 13.4,2.5 13.8,2.5 19.2,3.4 56.2,17.9 8.9,3.4 18.9,7.3 29.3,10.4 20.7,6.4 44.2,11.2 65.8,7.1 11,-1.9 21.3,-6.1 30.5,-13.4 9.5,-7.4 18.7,-17.4 25.1,-27.7 1.8,-2.7 3.3,-5.5 4.8,-8.3 1.2,-2.4 2.4,-4.9 3.3,-7.4 0.9,-2.4 1.6,-4.8 2.1,-7.1 8.8,-4.3 30.4,-10.9 81.7,-11.5 77.4,-0.7 129,27.2 129,27.2 v -0.6 c 0.6,3.7 1.5,7.1 2.4,10.4 1.5,4.8 3.4,9.2 6.1,13.4 2.7,4.2 6.1,8.2 10.3,12.1 4.6,4.2 10.1,8.2 16.5,11.5 6,3.1 12.5,5.7 19.8,7.6 6.5,1.8 13.7,2.8 21.3,3.3 7.1,0.3 14.4,0 22.2,-1 13.1,-1.9 23.1,-6 31.7,-11.3 8.5,-5.2 15.3,-11.5 22.3,-17.9 l 0.1,-0.1 c 4.6,-4.2 9.4,-8.5 14.6,-12.3 3.4,-2.7 6.7,-5.1 9.7,-7.4 4.5,-3.4 7,-5.5 9.5,-7.4 7.6,-6 15.6,-12.2 23.5,-18.2 8.2,-6.1 16.8,-12.2 26.3,-18.3 7.1,-4.6 15.2,-9.8 22.9,-14.9 8,-5.2 16.4,-10.7 24.1,-16.1 14,-9.5 33.5,-21.4 40.8,-36.7 2.3,-5.2 3.6,-10.2 3.3,-15.7 z"
   id="path2739"
   style="fill:#1a1b26;fill-opacity:1" />
	<path
   id="path3218"
   class="st1"
   d="m 1566.6,1324.6 c -18.4,8.8 -60.7,8.6 -71,26.2 -11.3,19.3 -4,40.8 -3.9,65.5 0,17.4 -0.3,36.9 -7.6,57.6 -6.1,17.1 -8,23.1 0.6,38.1 8.6,15 46.1,22.3 97,34.4 50.9,12.1 34.7,3.1 91.5,25.4 35.3,13.8 85,30.6 117.2,5.5 11.9,-9.2 31.4,-30.4 32.6,-50.9 0.7,-11.8 -0.4,-24.3 -3.1,-31.8 -9.2,-25.3 -27.8,-36 -45.5,-62.5 -32.3,-49.1 -66.7,-95.5 -94.2,-136.4 -19.3,-28.9 -35,-35.9 -48.2,-33.6 -40.5,7.2 -27.4,44.2 -65.4,62.5 z"
   style="fill:#e0af68;fill-opacity:1" />
	<path
   class="st1"
   d="m 2358.6,1426.2 c -4.6,-10.3 -20.7,-26.3 -38.2,-40.8 -45.8,-37.9 -26,-73.2 -45.2,-91.8 -5.8,-6.2 -10.1,-9.8 -17,-11.2 -12.5,-2.5 -21.9,-2.5 -29.6,-1.5 -6.7,12.8 -15.5,29.8 -28.6,44.3 -21.1,23.7 -56.7,39.3 -80.3,28.3 -20.4,-9.5 -28,-49.4 -27.2,-74.2 -4,0.3 -7.7,1.2 -10.9,3.3 v 0 c -17.9,12.6 -14,50.3 -15,70.2 -1.6,30.5 -1.8,64.4 -2.8,77.8 -1.8,22.3 -18.6,72.8 -16.7,96.7 2.1,23.8 3.7,37.8 18.6,51.3 14.9,13.7 40.9,23.8 73.2,19.2 32.3,-4.6 44.5,-24.7 65.3,-40.3 20.8,-15.6 42.4,-34.2 69.9,-51.9 27.5,-17.7 72,-46.7 78.4,-54.6 6.4,-7.6 10.7,-14.5 6.1,-24.8 z"
   id="path2489"
   style="fill:#e0af68;fill-opacity:1" />
	<path
   class="st2"
   d="m 2005.4,830.5 c -1,-5.2 -2.8,-8.8 -8.5,-12.3 -6.2,-4 -17.3,-8.2 -36,-14.6 v 0 c -9.7,-3.6 -19.6,-7.1 -28.1,-10.4 -19.2,-7.4 -31.7,-13.1 -49.1,-11.6 -8,0.6 -15.9,2.4 -22.6,5.1 v 0 c -12.8,5.4 -25.1,13.7 -35.3,20.7 -8.9,6.2 -18,14.4 -23.4,22.9 -3.1,5.1 -8,15.3 -3.4,21.3 0,0 11.8,6.1 23.7,13.1 19.2,11.3 40.9,17.1 60.6,16.1 15.5,-0.9 32.9,-5.8 45.4,-11.8 12.6,-6.1 28.1,-15.6 43.1,-27.2 2.4,-1.8 6.8,-6.1 9.5,-7.4 2.4,-1.2 10.4,-0.4 10,2.2 -0.3,2.1 -9.5,5.8 -12.9,8.3 -16.5,12.2 -34.8,24.3 -46.9,29.8 -12.3,5.7 -33.2,12.2 -47.2,13.1 -12.8,0.7 -23.7,-0.6 -34.8,-4.5 -10.7,-3.6 -17.1,-6.8 -28.7,-13.4 -3.7,-2.1 -7.1,-3.9 -12.2,-7 0.4,0.4 0.3,1.2 0.7,1.6 5.4,5.4 11.8,10.7 17.1,16.8 6.2,7.1 12.1,15 17.4,19.9 9.8,8.9 19.2,13.7 32.7,15.5 26.3,3.3 46,-4 68.3,-18.7 10.4,-6.8 25,-19.6 33.3,-25.9 14,-10.4 17.9,-9.7 22,-14.9 4.5,-5.5 6.6,-19.8 5.3,-26.7 z"
   id="path2491"
   style="fill:#e0af68;fill-opacity:1" />
	<path
   class="st3"
   d="m 1872.2,793.9 c -0.6,0.9 -4.2,2.5 -6.4,4.3 -2.2,1.6 -4,3.6 -5.7,3.9 -1,0.1 -2.5,-0.3 -3.1,-1.5 -1.2,-2.2 1,-5.7 4.2,-6.7 3.1,-1 9.5,-2.2 11,0 z"
   id="path2493" />
	<path
   class="st3"
   d="m 1910,802 c -1.5,1.5 -14.7,-6.7 -17.9,-8 v 0 0 c -0.9,-1 10.4,-3.3 14.9,0.1 4.6,3.7 4.4,6.4 3,7.9 z"
   id="path2495" />
	<path
   class="st4"
   d="m 2093,1271.7 c 1.5,-11.2 7.9,-20.1 20.8,-24.1 v 0 c 1,-0.3 2.1,-0.6 3.3,-0.9 7.9,-1.9 19.6,-3.6 34.4,-4 1,0 2.1,0 3.1,-0.1 0.3,0 0.6,0 0.9,0 0.9,0 1.8,0 2.7,0 0.1,0 0.3,0 0.6,0 1,0 2.1,0 3.1,0 0.3,0 0.6,0 0.9,0 0.7,0 1.6,0 2.5,0 0.3,0 0.6,0 0.9,0 1,0 2.1,0 3.1,0 0.3,0 0.6,0 0.7,0 0.7,0 1.6,0 2.4,0.1 0.3,0 0.7,0 1,0 1,0 2.1,0.1 3,0.1 0.1,0 0.4,0 0.6,0 0.9,0 1.6,0.1 2.5,0.1 0.3,0 0.7,0 1,0.1 0.7,0 1.6,0.1 2.4,0.1 0.3,0 0.4,0 0.7,0 0.9,0.1 1.9,0.1 2.8,0.3 0.4,0 0.7,0.1 1.2,0.1 0.7,0.1 1.3,0.1 2.1,0.3 0.3,0 0.7,0.1 1,0.1 0.9,0.1 1.8,0.3 2.7,0.4 0.3,0 0.7,0.1 1,0.1 0.6,0.1 1.2,0.1 1.8,0.3 0.4,0 0.7,0.1 1.2,0.1 0.9,0.1 1.8,0.3 2.5,0.4 0.3,0 0.6,0.1 1,0.1 0.6,0.1 1.2,0.3 1.8,0.4 0.4,0.1 0.7,0.1 1.2,0.3 0.6,0.1 1.2,0.3 1.9,0.4 0.4,0.1 0.9,0.3 1.3,0.3 0.6,0.1 1.2,0.3 1.8,0.4 0.3,0.1 0.7,0.1 1,0.3 0.4,0.1 1,0.3 1.5,0.4 0.3,0.1 0.6,0.1 0.9,0.3 0.7,0.3 1.3,0.4 2.1,0.7 0.3,0.1 0.6,0.3 0.9,0.4 0.4,0.1 0.9,0.3 1.3,0.6 0.3,0.1 0.6,0.3 0.9,0.4 0.6,0.3 1.2,0.6 1.9,0.9 0.3,0.1 0.4,0.3 0.7,0.4 0.4,0.1 0.7,0.4 1.2,0.6 0.3,0.1 0.4,0.3 0.7,0.4 0.1,0 0.1,0.1 0.3,0.1 -3.4,-3 -7.6,-5.7 -12.1,-7.7 -17.9,-8.6 -42.4,-11.5 -67.4,-12.2 6.7,-17.7 13.5,-43.1 12.8,-62.2 -1.9,-50 -26.8,-88.4 -62.2,-115.2 -0.9,-0.6 -1.8,-1.2 -2.1,-1.2 -0.3,0 -0.1,0.3 1,1.5 40.9,38.8 54.6,83 51.3,125.9 -1.3,16.7 -8.6,35.7 -17,51 -3.9,0 -8.5,0.1 -12.3,0.3 1.9,-52.5 -8.3,-96.6 -37.6,-157.9 -2.8,-5.4 -16.2,-27.8 -24.3,-34.2 -6.2,-30.5 -7.1,-29 -19.6,-57 -18.9,-42.4 -25.9,-91.5 -31.5,-120.4 v 0 c -4,2.1 -10.9,4.9 -21.4,13.1 -7.6,6 -21.7,18.3 -32.6,25.9 -7.1,4.9 -14.9,9.1 -22.5,12.5 -11,4.8 -21.7,7.6 -29.8,7.9 -28.9,1.5 -42.7,-5.7 -55.9,-19.3 -5.5,-5.8 -9.7,-12.1 -16.7,-19.8 -3.1,-3.4 -7.4,-7.9 -11.8,-11 -0.1,3.7 -12.2,84.7 -28.6,120.4 -16.4,35.7 -15.5,23.7 -26.5,61 -15.3,13.8 -32,51 -43,83 -11.3,37.6 -19.9,66.5 -20.7,108.6 -5.7,-11.3 -9.8,-23.5 -11.3,-36.7 -5.7,-46.6 6.7,-101.9 43.4,-141.9 1.5,-1.6 1.5,-2.4 0.9,-2.4 -0.6,0 -1.5,0.4 -2.4,1.3 -45.8,40.9 -56.8,116.5 -52.1,150.3 3.4,24.1 9.7,44.9 22.5,61.9 v 0.1 c 0.1,0.3 0.4,0.4 0.6,0.7 3.4,4.3 7.1,8.5 11.5,12.2 v 0 c 7.4,8.3 16.8,17.3 35.9,31.8 35.1,26.6 59.7,40.8 64.6,58 6.4,23.1 -8,38.4 -26,47.8 13.1,13.1 55.2,40.2 131.8,36.7 67.4,-3 109.8,-28.6 145.8,-72.6 0.3,-10.1 1.3,-27.1 1.8,-45.4 0.4,-17.6 0.6,-35 3.3,-48.7 0.6,-3.1 1.8,-6.2 3,-8.9 4.5,-10.9 16.2,-18.2 27.5,-18.7 0.4,0.7 0.4,0.6 0.4,0.6 z"
   id="path2497"
   style="fill:#d5d6db;fill-opacity:1" />
	<path
   class="st4"
   d="m 1912.4,780.1 c 6.2,1.9 12.6,4.3 19.9,7.1 -4.6,-10.3 -4.2,-23.7 1.8,-34.5 8.6,-15.8 25.7,-20.8 38.1,-11.3 12.3,9.5 15.5,30.1 6.8,45.8 -3.1,5.7 -7.3,10 -12.1,12.8 8.2,2.8 14.9,5.2 20.2,7.4 6.8,-8.8 16.1,-22.8 19.9,-34.7 6.2,-19.5 1.5,-53.9 -24.7,-67.2 -5.7,-3 -11.6,-4.3 -17.6,-4.3 -21,-0.3 -41.4,16.1 -48.1,38.1 -5.2,18.3 -5.1,32.8 -4.2,40.8 z"
   id="path2499"
   style="fill:#d5d6db;fill-opacity:1" />
	<path
   class="st4"
   d="m 1817,806.9 c 1.8,-1.3 3.6,-2.7 5.4,-3.9 1.3,-1 2.8,-1.9 4.2,-3 -10.7,-5.2 -17.9,-21.6 -15.9,-37.2 1.9,-16.4 12.8,-26 24.4,-21.6 11.5,4.5 19.3,21.4 17.4,37.9 -0.3,2.1 -0.6,4.2 -1.2,6.1 3.4,-1.8 6.5,-3.1 9.4,-4.3 0.7,-0.3 1.3,-0.6 2.1,-0.7 1,-8.2 0.9,-17.3 -0.9,-26.3 -5.1,-24.7 -16.2,-43.1 -34.4,-43.3 -3.4,0 -7,0.6 -10.7,1.9 v 0 c -16.5,5.8 -22.9,33.6 -17.1,58.9 3,13.9 8.7,27.1 17.3,35.5 z"
   id="path2501"
   style="fill:#d5d6db;fill-opacity:1" />
</g>
</svg>
