<?xml version="1.0" encoding="UTF-8" standalone="no"?>
<!-- Generator: Adobe Illustrator 25.2.1, SVG Export Plug-In . SVG Version: 6.00 Build 0)  -->

<svg
   version="1.1"
   id="Layer_1"
   x="0px"
   y="0px"
   viewBox="0 0 3840 2160"
   style="enable-background:new 0 0 3840 2160;"
   xml:space="preserve"
   sodipodi:docname="void-linux.svg"
   inkscape:version="1.1.1 (3bf5ae0d25, 2021-09-20)"
   xmlns:inkscape="http://www.inkscape.org/namespaces/inkscape"
   xmlns:sodipodi="http://sodipodi.sourceforge.net/DTD/sodipodi-0.dtd"
   xmlns="http://www.w3.org/2000/svg"
   xmlns:svg="http://www.w3.org/2000/svg"><defs
   id="defs2741" /><sodipodi:namedview
   id="namedview2739"
   pagecolor="#505050"
   bordercolor="#eeeeee"
   borderopacity="1"
   inkscape:pageshadow="0"
   inkscape:pageopacity="0"
   inkscape:pagecheckerboard="0"
   showgrid="false"
   inkscape:zoom="0.178125"
   inkscape:cx="-303.15789"
   inkscape:cy="884.21053"
   inkscape:window-width="1920"
   inkscape:window-height="1060"
   inkscape:window-x="1920"
   inkscape:window-y="20"
   inkscape:window-maximized="1"
   inkscape:current-layer="g2736" />
<style
   type="text/css"
   id="style2716">
	.st0{fill:#ABC2AB;}
	.st1{fill:#478061;}
</style>

<rect
   style="fill:#24283b;stroke-width:1.0661"
   id="rect3561"
   width="3840"
   height="2160"
   x="0"
   y="0" /><g
   id="g2736">
	<g
   id="g2724">
		<path
   class="st0"
   d="m 1920,623.5 c -95.5,0 -188.8,30.4 -266.4,86.4 l 103.7,103.7 c 49,-29.9 105,-46 162.7,-46 172.7,0 312.4,139.7 312.4,312.4 0,57.3 -16.1,113.7 -46,162.3 l 103.7,103.7 c 56,-77.7 85.9,-170.5 86.4,-266.4 0.4,-251.7 -204.4,-456.1 -456.5,-456.1 z"
   id="path2718"
   style="fill:#73daca;fill-opacity:1" />
		<path
   class="st1"
   d="m 2186.4,1450.6 -103.7,-103.7 c -49,29.9 -105,46 -162.7,46 -172.7,0 -312.4,-139.7 -312.4,-312.4 0,-57.3 16.1,-113.7 46,-162.3 L 1549.9,813.6 c -56,77.7 -85.9,170.5 -86.4,266.4 0,252.1 204.4,456.5 456.5,456.5 95.5,0 188.8,-29.9 266.4,-85.9 z"
   id="path2720"
   style="fill:#9ece6a;fill-opacity:1" />
		<circle
   class="st0"
   cx="1920"
   cy="1080"
   r="145.39999"
   id="circle2722"
   style="fill:#73daca;fill-opacity:1" />
	</g>
	<g
   id="g2734"
   style="fill:#b4f9f8;fill-opacity:1">
		<path
   d="m 1497.3,1165.1 c -4.8,3.5 -9.5,5.2 -13.5,5.2 H 1466 c -2.6,0 -4.3,-0.4 -6.1,-1.3 -1.7,-0.9 -2.6,-2.2 -3.5,-3.9 l -89.8,-167.5 c -0.4,-0.4 -0.4,-0.9 -0.4,-1.3 v -1.7 c 0,-1.7 0.4,-3 1.7,-4.3 1.3,-1.3 3.5,-1.7 6.5,-1.7 h 109.8 c 6.1,0 9.5,1.7 11.3,5.2 L 1551,1101 1706.4,993.8 c 5.2,-3.5 10.4,-5.2 16.5,-5.2 h 17.4 c 2.2,0 3.5,0.9 3.5,3 0,1.7 -1.3,3.5 -4.3,6.1 z"
   id="path2726"
   style="fill:#b4f9f8;fill-opacity:1" />
		<path
   d="m 1739.5,1170.3 c -9.1,0 -17.4,-1.3 -24.7,-4.3 -6.9,-3 -13,-6.9 -17.8,-12.2 -4.8,-5.3 -8.2,-11.3 -10.8,-18.2 -2.6,-6.9 -3.9,-14.8 -3.9,-23 0,-10.4 1.7,-20.8 5.2,-30.8 3.5,-10 8.2,-20 14.8,-29.1 6.5,-9.1 13.9,-17.8 22.6,-25.6 8.7,-7.8 18.2,-14.8 28.2,-20.4 10.4,-5.6 21.3,-10 32.5,-13.5 11.2,-3.5 23,-5.2 35.1,-5.2 h 130.6 c 9.5,0 17.8,1.3 24.7,4.3 7.4,3 13.5,6.9 18.2,12.2 4.8,4.8 8.2,10.8 10.8,17.8 2.6,6.9 3.9,14.3 3.9,22.6 0,10.4 -1.7,20.8 -5.6,31.2 -3.5,10 -8.7,20 -14.8,29.1 -6.5,9.1 -13.9,17.8 -22.6,26 -8.7,7.8 -18.2,14.8 -28.6,20.4 -10.4,5.6 -21.3,10.4 -32.5,13.5 -11.3,3 -23,4.8 -34.3,4.8 h -131.1 v 0.4 z m 160.5,-109 c 6.1,-12.6 8.7,-21.7 8.7,-28.2 0,-5.2 -1.7,-8.7 -5.6,-10.8 -3.5,-2.2 -8.7,-3 -16.1,-3 h -36.5 c -5.2,0 -10,0.9 -14.3,2.2 -4.3,1.3 -8.2,3.5 -12.2,6.5 -3.9,3 -7.4,7.4 -10.8,13 -3.5,5.2 -6.9,12.2 -10.4,20 l -13,29.1 c -6.9,15.2 -10,26.5 -10,34.3 0,5.2 1.3,8.7 4.3,11.3 3,2.2 7.4,3 13,3 h 36.5 c 5.6,0 10.4,-0.9 15.2,-2.6 4.8,-1.7 9.1,-4.3 13.5,-8.2 4.4,-3.9 8.2,-8.7 12.2,-14.8 3.9,-6.1 7.8,-13.9 12.2,-23 z"
   id="path2728"
   style="fill:#b4f9f8;fill-opacity:1" />
		<path
   d="m 1989.9,1170.3 c -3,0 -4.8,-0.9 -4.8,-3 0,-0.9 0.4,-2.6 0.9,-3.9 l 75.1,-167.9 c 2.2,-4.8 5.6,-6.9 10,-6.9 h 92 c 3.5,0 5.2,1.3 5.2,3.5 0,0.9 -0.4,2.2 -0.9,3.5 l -74.6,167.9 c -2.2,4.8 -5.6,7.4 -10,7.4 h -92.9 z"
   id="path2730"
   style="fill:#b4f9f8;fill-opacity:1" />
		<path
   d="m 2120.9,1170.3 c -3,0 -4.8,-0.9 -4.8,-3 0,-0.9 0.4,-2.6 0.9,-3.9 l 75.1,-167.9 c 2.2,-4.8 5.6,-6.9 10,-6.9 h 214.4 c 9.1,0 17.4,1.3 24.7,4.3 6.9,3 13,6.9 17.8,12.2 4.8,4.8 8.2,10.8 10.8,17.8 2.6,7 3.9,14.3 3.9,22.6 0,10.8 -1.7,21.7 -5.6,32.1 -3.9,10.4 -8.7,20 -15.6,29.5 -6.5,9.1 -13.9,17.8 -23,25.6 -8.7,7.8 -18.2,14.8 -28.6,20.4 -10,5.6 -20.8,10 -32.1,13 -11.3,3 -22.6,4.8 -33.4,4.8 H 2121 v -0.6 z m 232.2,-109 c 5.6,-13 8.7,-22.1 8.7,-28.2 0,-5.2 -1.7,-8.7 -5.2,-10.8 -3.5,-2.2 -8.7,-3 -15.6,-3 h -54.2 l -52.9,119.3 h 53.8 c 5.2,0 10.4,-0.9 14.8,-2.6 4.8,-1.7 9.1,-4.3 13,-8.2 4.3,-3.9 8.2,-8.7 12.2,-14.8 3.9,-6.1 8.2,-13.9 12.2,-23 z"
   id="path2732"
   style="fill:#b4f9f8;fill-opacity:1" />
	</g>
</g></svg>
