<?xml version="1.0" encoding="utf-8"?>
<!-- Generator: Adobe Illustrator 23.0.1, SVG Export Plug-In . SVG Version: 6.00 Build 0)  -->
<svg version="1.1" id="Livello_1" xmlns="http://www.w3.org/2000/svg" xmlns:xlink="http://www.w3.org/1999/xlink" x="0px" y="0px"
	 width="804.3px" height="250px" viewBox="0 0 804.3 250" enable-background="new 0 0 804.3 250" xml:space="preserve">
<g>
	<path fill="#FFFFFF" d="M226.5,197.9c14.6-20.3,23.3-45.1,23.5-72C250.5,56.8,194.9,0.5,125.9,0C56.8-0.5,0.5,55.1,0,124.1
		c-0.2,27.3,8.4,52.6,23.1,73.3c3.6,5.1,7.6,9.9,12,14.4h0c22.5,23.3,54,37.9,89,38.2c39.2,0.3,74.2-17.5,97.3-45.5h0
		C223.2,202.3,224.9,200.1,226.5,197.9L226.5,197.9L226.5,197.9z"/>
	<path fill="#FF7800" d="M107.2,31.1c16-11,38-5,46.3,12.5l72.9,154.2c14.6-20.3,23.3-45.1,23.5-72C250.5,56.8,194.9,0.5,125.9,0
		C56.8-0.5,0.5,55.1,0,124.1c-0.2,27.3,8.4,52.6,23.1,73.3l2.9-0.6l47.6-10.5c1.3-0.3,2.1,1.5,0.9,2.2l-39.4,23.4
		c22.5,23.3,54,37.9,89,38.2c39.2,0.3,74.2-17.5,97.3-45.5L102.2,78.9C88.8,64.8,91.2,42.1,107.2,31.1 M129.6,172.9l-76.8,6.7
		c-8.3,0.7-15.3-6.2-14.7-14.5c0.6-8.3,8.5-14.1,16.6-12.2l75,17.7C131.1,170.8,131,172.8,129.6,172.9 M94.1,105.4l93.1,75.3
		c1.1,0.9,0.1,2.6-1.2,2.1L74,140.3c-11.7-4.5-16.7-18.4-10.5-29.2C69.8,100.2,84.3,97.5,94.1,105.4"/>
	<path fill="#04121A" d="M794.3,111.4c5.5,0,9.9-4.5,9.9-9.9V89.2h-31V62.1h-17.1c-5.5,0-9.9,4.5-9.9,9.9v17.1h-5
		c-5.5,0-9.9,4.5-9.9,9.9v12.3h15v39.7c0,6.4,0.1,12.2,0.2,17.3c0.1,5.1,1.5,10.1,4.2,15c2.9,5.2,7.2,9,12.8,11.4
		c5.6,2.4,12,3.6,19.1,3.8c7.1,0.2,14.4-0.4,21.8-1.8V185c0-5.6-4.7-10.1-10.3-9.9c-2.5,0.1-4.8,0-7.1-0.1
		c-5.2-0.3-9.1-2.4-11.4-6.2c-1.3-2-1.9-4.7-2-8c-0.1-3.3-0.1-7.1-0.1-11.3v-38.1H794.3z"/>
	<path fill="#04121A" d="M370.9,53.6h-28.7l-51.6,143.1h21.9c4.2,0,7.9-2.6,9.3-6.5l8.7-23.3h63.8l8.7,23.3c1.4,3.9,5.2,6.5,9.3,6.5
		h21.9L386.5,64.5C384.1,57.9,377.9,53.6,370.9,53.6 M339.6,142.3l22.8-61.4l22.8,61.4H339.6z"/>
	<path fill="#04121A" d="M576.7,86.5c-22.7,0-37.4,10.1-45,29.9l16.3,5.7c3.9,1.4,8.3,0.2,11-3.1c3.5-4.3,7.5-8,17.4-8
		c12.4,0,17.4,4.4,18.4,16.1l-33.2,5.7c-30.7,5-34.4,23.9-34.4,34.2c0,10.3,7.8,32.6,37.4,32.6c15,0,25.8-5.4,32.8-12.2
		c0.4,5.2,4.7,9.2,9.9,9.2h13.9v-69.3C621.2,98.6,602.9,86.5,576.7,86.5 M569.1,178.4c-10.4,0-15.4-3.5-15.4-10.1
		c0-6.6,4.9-13.6,21.4-16.5c9.1-1.6,16.4-2.9,21.2-3.8v6.8C596.3,168.6,582.4,178.4,569.1,178.4"/>
	<path fill="#04121A" d="M507.3,89.3c-4.2,0-7.9,2.6-9.3,6.5L473.6,162l-24.4-66.2c-1.4-3.9-5.2-6.5-9.3-6.5h-20.8l41,107.4h27
		l41-107.4H507.3z"/>
	<path fill="#04121A" d="M725.7,165.6c0-10.9-5.5-20.5-13.9-26.2h0c-0.3-0.2-0.6-0.4-0.9-0.6c0,0,0,0-0.1,0
		c-0.2-0.1-0.3-0.2-0.5-0.3c-1-0.6-2-1.2-3.1-1.7c-3.9-1.9-8.2-3.5-8.2-3.5v0c-1.7-0.7-3.6-1.3-5.5-2c-18.4-6.1-27.2-7.7-27.2-13.8
		c0-5.4,6.5-8.2,13.4-8.2c4.4,0,10.6,1.4,15.7,7.6c0,0,0.1,0.1,0.1,0.1c0.1,0.1,0.2,0.3,0.3,0.4c0,0.1,0.1,0.1,0.1,0.2
		c1.8,1.8,4.3,3,7,3c1.1,0,2.2-0.2,3.2-0.5c0,0,0.1,0,0.1,0l15-5.2c-5.1-17.3-21.1-28.5-42.5-28.5c-8.3,0-15.1,1.3-20.5,3.5l0,0
		c-11,4.1-18.8,14.7-18.8,27.1c0,11.7,7,21.8,17,26.4c4.9,2.5,10.7,4.7,17.6,6.7c19.3,5.7,23.9,9.5,23.9,16.3c0,0.8-0.1,1.6-0.3,2.3
		c-0.4,1.4-1.1,2.6-2,3.6c-2.7,2.8-7.7,4.2-14.3,4.2c-8.2,0-15.6-3.4-20.7-11.9c-2.4-4-7.3-5.7-11.7-4.2l-15,5.3
		c6.2,18.1,18.7,34,47.3,34c13,0,23.3-2.9,30.7-7.9l0-0.1C720.2,186,725.7,176.4,725.7,165.6"/>
</g>
</svg>
