<?xml version="1.0" encoding="UTF-8" standalone="no"?>
<!-- Generator: Adobe Illustrator 25.2.1, SVG Export Plug-In . SVG Version: 6.00 Build 0)  -->

<svg
   version="1.1"
   id="Layer_1"
   x="0px"
   y="0px"
   viewBox="0 0 3840 2160"
   style="enable-background:new 0 0 3840 2160;"
   xml:space="preserve"
   sodipodi:docname="apple.svg"
   inkscape:version="1.1.1 (3bf5ae0d25, 2021-09-20)"
   xmlns:inkscape="http://www.inkscape.org/namespaces/inkscape"
   xmlns:sodipodi="http://sodipodi.sourceforge.net/DTD/sodipodi-0.dtd"
   xmlns="http://www.w3.org/2000/svg"
   xmlns:svg="http://www.w3.org/2000/svg"><defs
   id="defs993" /><sodipodi:namedview
   id="namedview991"
   pagecolor="#505050"
   bordercolor="#eeeeee"
   borderopacity="1"
   inkscape:pageshadow="0"
   inkscape:pageopacity="0"
   inkscape:pagecheckerboard="0"
   showgrid="false"
   inkscape:zoom="0.35625"
   inkscape:cx="1308.0702"
   inkscape:cy="1079.2982"
   inkscape:window-width="1920"
   inkscape:window-height="1060"
   inkscape:window-x="0"
   inkscape:window-y="20"
   inkscape:window-maximized="1"
   inkscape:current-layer="Layer_1" />
<rect
   style="fill:#24283b;stroke-width:5.46313"
   id="rect5602"
   width="3840"
   height="2160"
   x="0"
   y="0" />
<path
   d="m 2301.05,920.95001 c -5.8,4.5 -108.2,62.20001 -108.2,190.49999 0,148.4 130.3,200.9 134.2,202.2 -0.6,3.2 -20.7,71.9 -68.7,141.9 -42.8,61.6 -87.5,123.1 -155.5,123.1 -68,0 -85.5,-39.5 -164,-39.5 -76.5,0 -103.7,40.8 -165.9,40.8 -62.2,0 -105.6,-57 -155.5,-127 -57.8,-82.2 -104.5,-209.9 -104.5,-331.1 0,-194.39998 126.4,-297.49999 250.8,-297.49999 66.1,0 121.2,43.4 162.7,43.4 39.5,0 101.1,-46 176.3,-46 28.5,0 130.9,2.6 198.3,99.2 z m -234,-181.5 c 31.1,-36.89999 53.1,-88.1 53.1,-139.3 0,-7.1 -0.6,-14.3 -1.9,-20.1 -50.6,1.9 -110.8,33.7 -147.1,75.8 -28.5,32.4 -55.1,83.6 -55.1,135.5 0,7.8 1.3,15.6 1.9,18.1 3.2,0.6 8.4,1.3 13.6,1.3 45.4,0 102.5,-30.4 135.5,-71.3 z"
   id="path856"
   style="fill:#b4f9f8;fill-opacity:1" /></svg>
