<?xml version="1.0" encoding="UTF-8" standalone="no"?>
<!-- Generator: Adobe Illustrator 25.2.1, SVG Export Plug-In . SVG Version: 6.00 Build 0)  -->

<svg
   version="1.1"
   id="Layer_1"
   x="0px"
   y="0px"
   viewBox="0 0 3840 2160"
   style="enable-background:new 0 0 3840 2160;"
   xml:space="preserve"
   sodipodi:docname="avast-2021.svg"
   inkscape:version="1.1.1 (3bf5ae0d25, 2021-09-20)"
   xmlns:inkscape="http://www.inkscape.org/namespaces/inkscape"
   xmlns:sodipodi="http://sodipodi.sourceforge.net/DTD/sodipodi-0.dtd"
   xmlns="http://www.w3.org/2000/svg"
   xmlns:svg="http://www.w3.org/2000/svg"><defs
   id="defs993" /><sodipodi:namedview
   id="namedview991"
   pagecolor="#505050"
   bordercolor="#eeeeee"
   borderopacity="1"
   inkscape:pageshadow="0"
   inkscape:pageopacity="0"
   inkscape:pagecheckerboard="0"
   showgrid="false"
   inkscape:zoom="0.35625"
   inkscape:cx="1308.0702"
   inkscape:cy="1079.2982"
   inkscape:window-width="1916"
   inkscape:window-height="1056"
   inkscape:window-x="0"
   inkscape:window-y="20"
   inkscape:window-maximized="1"
   inkscape:current-layer="Layer_1" />
<rect
   style="fill:#24283b;stroke-width:5.46313"
   id="rect5602"
   width="3840"
   height="2160"
   x="0"
   y="0" />
<g
   id="g1969"
   transform="matrix(1.6757089,0,0,1.6757089,1246.0327,870.45228)">
	<path
   fill="#ffffff"
   d="m 226.5,197.9 c 14.6,-20.3 23.3,-45.1 23.5,-72 C 250.5,56.8 194.9,0.5 125.9,0 56.8,-0.5 0.5,55.1 0,124.1 c -0.2,27.3 8.4,52.6 23.1,73.3 3.6,5.1 7.6,9.9 12,14.4 v 0 c 22.5,23.3 54,37.9 89,38.2 39.2,0.3 74.2,-17.5 97.3,-45.5 v 0 c 1.8,-2.2 3.5,-4.4 5.1,-6.6 z"
   id="path1955"
   style="fill:#c0caf5;fill-opacity:1" />
	<path
   fill="#ff7800"
   d="m 107.2,31.1 c 16,-11 38,-5 46.3,12.5 l 72.9,154.2 c 14.6,-20.3 23.3,-45.1 23.5,-72 C 250.5,56.8 194.9,0.5 125.9,0 56.8,-0.5 0.5,55.1 0,124.1 c -0.2,27.3 8.4,52.6 23.1,73.3 l 2.9,-0.6 47.6,-10.5 c 1.3,-0.3 2.1,1.5 0.9,2.2 l -39.4,23.4 c 22.5,23.3 54,37.9 89,38.2 39.2,0.3 74.2,-17.5 97.3,-45.5 L 102.2,78.9 c -13.4,-14.1 -11,-36.8 5,-47.8 m 22.4,141.8 -76.8,6.7 c -8.3,0.7 -15.3,-6.2 -14.7,-14.5 0.6,-8.3 8.5,-14.1 16.6,-12.2 l 75,17.7 c 1.4,0.2 1.3,2.2 -0.1,2.3 m -35.5,-67.5 93.1,75.3 c 1.1,0.9 0.1,2.6 -1.2,2.1 L 74,140.3 C 62.3,135.8 57.3,121.9 63.5,111.1 69.8,100.2 84.3,97.5 94.1,105.4"
   id="path1957"
   style="fill:#ff9e64;fill-opacity:1" />
	
	
	
	
	<g
   id="g2069"
   style="fill:#565f89;fill-opacity:1"><path
     fill="#04121a"
     d="m 794.3,111.4 c 5.5,0 9.9,-4.5 9.9,-9.9 V 89.2 h -31 V 62.1 h -17.1 c -5.5,0 -9.9,4.5 -9.9,9.9 v 17.1 h -5 c -5.5,0 -9.9,4.5 -9.9,9.9 v 12.3 h 15 V 151 c 0,6.4 0.1,12.2 0.2,17.3 0.1,5.1 1.5,10.1 4.2,15 2.9,5.2 7.2,9 12.8,11.4 5.6,2.4 12,3.6 19.1,3.8 7.1,0.2 14.4,-0.4 21.8,-1.8 V 185 c 0,-5.6 -4.7,-10.1 -10.3,-9.9 -2.5,0.1 -4.8,0 -7.1,-0.1 -5.2,-0.3 -9.1,-2.4 -11.4,-6.2 -1.3,-2 -1.9,-4.7 -2,-8 -0.1,-3.3 -0.1,-7.1 -0.1,-11.3 v -38.1 z"
     id="path1959"
     style="fill:#565f89;fill-opacity:1" /><path
     fill="#04121a"
     d="m 370.9,53.6 h -28.7 l -51.6,143.1 h 21.9 c 4.2,0 7.9,-2.6 9.3,-6.5 l 8.7,-23.3 h 63.8 l 8.7,23.3 c 1.4,3.9 5.2,6.5 9.3,6.5 h 21.9 L 386.5,64.5 c -2.4,-6.6 -8.6,-10.9 -15.6,-10.9 m -31.3,88.7 22.8,-61.4 22.8,61.4 z"
     id="path1961"
     style="fill:#565f89;fill-opacity:1" /><path
     fill="#04121a"
     d="m 576.7,86.5 c -22.7,0 -37.4,10.1 -45,29.9 l 16.3,5.7 c 3.9,1.4 8.3,0.2 11,-3.1 3.5,-4.3 7.5,-8 17.4,-8 12.4,0 17.4,4.4 18.4,16.1 l -33.2,5.7 c -30.7,5 -34.4,23.9 -34.4,34.2 0,10.3 7.8,32.6 37.4,32.6 15,0 25.8,-5.4 32.8,-12.2 0.4,5.2 4.7,9.2 9.9,9.2 h 13.9 v -69.3 c 0,-28.7 -18.3,-40.8 -44.5,-40.8 m -7.6,91.9 c -10.4,0 -15.4,-3.5 -15.4,-10.1 0,-6.6 4.9,-13.6 21.4,-16.5 9.1,-1.6 16.4,-2.9 21.2,-3.8 v 6.8 c 0,13.8 -13.9,23.6 -27.2,23.6"
     id="path1963"
     style="fill:#565f89;fill-opacity:1" /><path
     fill="#04121a"
     d="m 507.3,89.3 c -4.2,0 -7.9,2.6 -9.3,6.5 L 473.6,162 449.2,95.8 c -1.4,-3.9 -5.2,-6.5 -9.3,-6.5 h -20.8 l 41,107.4 h 27 l 41,-107.4 z"
     id="path1965"
     style="fill:#565f89;fill-opacity:1" /><path
     fill="#04121a"
     d="m 725.7,165.6 c 0,-10.9 -5.5,-20.5 -13.9,-26.2 v 0 c -0.3,-0.2 -0.6,-0.4 -0.9,-0.6 0,0 0,0 -0.1,0 -0.2,-0.1 -0.3,-0.2 -0.5,-0.3 -1,-0.6 -2,-1.2 -3.1,-1.7 -3.9,-1.9 -8.2,-3.5 -8.2,-3.5 v 0 c -1.7,-0.7 -3.6,-1.3 -5.5,-2 -18.4,-6.1 -27.2,-7.7 -27.2,-13.8 0,-5.4 6.5,-8.2 13.4,-8.2 4.4,0 10.6,1.4 15.7,7.6 0,0 0.1,0.1 0.1,0.1 0.1,0.1 0.2,0.3 0.3,0.4 0,0.1 0.1,0.1 0.1,0.2 1.8,1.8 4.3,3 7,3 1.1,0 2.2,-0.2 3.2,-0.5 0,0 0.1,0 0.1,0 l 15,-5.2 c -5.1,-17.3 -21.1,-28.5 -42.5,-28.5 -8.3,0 -15.1,1.3 -20.5,3.5 v 0 c -11,4.1 -18.8,14.7 -18.8,27.1 0,11.7 7,21.8 17,26.4 4.9,2.5 10.7,4.7 17.6,6.7 19.3,5.7 23.9,9.5 23.9,16.3 0,0.8 -0.1,1.6 -0.3,2.3 -0.4,1.4 -1.1,2.6 -2,3.6 -2.7,2.8 -7.7,4.2 -14.3,4.2 -8.2,0 -15.6,-3.4 -20.7,-11.9 -2.4,-4 -7.3,-5.7 -11.7,-4.2 l -15,5.3 c 6.2,18.1 18.7,34 47.3,34 13,0 23.3,-2.9 30.7,-7.9 v -0.1 c 8.3,-5.7 13.8,-15.3 13.8,-26.1"
     id="path1967"
     style="fill:#565f89;fill-opacity:1" /></g>
</g></svg>
