<?xml version="1.0" encoding="UTF-8" standalone="no"?>
<!-- Generator: Adobe Illustrator 25.2.1, SVG Export Plug-In . SVG Version: 6.00 Build 0)  -->

<svg
   version="1.1"
   id="Layer_1"
   x="0px"
   y="0px"
   viewBox="0 0 3840 2160"
   style="enable-background:new 0 0 3840 2160;"
   xml:space="preserve"
   sodipodi:docname="avast-2016.svg"
   inkscape:version="1.1.1 (3bf5ae0d25, 2021-09-20)"
   xmlns:inkscape="http://www.inkscape.org/namespaces/inkscape"
   xmlns:sodipodi="http://sodipodi.sourceforge.net/DTD/sodipodi-0.dtd"
   xmlns="http://www.w3.org/2000/svg"
   xmlns:svg="http://www.w3.org/2000/svg"><defs
   id="defs993" /><sodipodi:namedview
   id="namedview991"
   pagecolor="#505050"
   bordercolor="#eeeeee"
   borderopacity="1"
   inkscape:pageshadow="0"
   inkscape:pageopacity="0"
   inkscape:pagecheckerboard="0"
   showgrid="false"
   inkscape:zoom="0.25190679"
   inkscape:cx="1373.5239"
   inkscape:cy="974.56682"
   inkscape:window-width="1916"
   inkscape:window-height="1056"
   inkscape:window-x="0"
   inkscape:window-y="20"
   inkscape:window-maximized="1"
   inkscape:current-layer="g1427" />
<rect
   style="fill:#24283b;stroke-width:5.46313"
   id="rect5602"
   width="3840"
   height="2160"
   x="0"
   y="0" />
<switch
   id="switch1431"
   transform="matrix(3.0094618,0,0,3.0094618,1202.8453,854.18998)">
<g
   id="g1429">
	<g
   id="g1427">
		<path
   fill-rule="evenodd"
   clip-rule="evenodd"
   fill="#ff610c"
   d="m 141.2,101 c -4.9,-4.6 -8.1,-5.3 -12.1,-8.2 -12.2,-8.9 -15.1,-27.6 -5.8,-39.7 2.7,-3.5 6,-5.9 9.7,-8.4 3.9,-2.6 7.4,-6.3 9.3,-10.2 3.7,-7.8 2.8,-17.7 -2.9,-25.1 -5.4,-7 -14,-10.7 -23.3,-8.9 -4.4,0.8 -8.1,2.6 -11.9,6 -3.8,3.4 -4.8,7 -9.2,11.3 C 88.1,24.6 79.8,27.9 69.9,27.3 65.1,27 61,25.8 56.2,23.1 51,20.2 48.9,16.6 44.9,15.7 c -4.2,-1 -8.8,0.2 -11.6,3.4 -3.8,4.4 -3.3,8.4 -1.6,13.6 1.6,4.9 2.9,9.7 3.2,14.9 0.3,5.1 -0.3,10.3 -1.8,15.2 -2.7,9 -9.2,17.4 -15.5,23 -5.2,4.6 -8.8,5.3 -12.2,8.5 -3.3,3 -5.4,7.3 -5.4,12.1 0,8.4 6,15.4 13.9,16.8 6.2,1.2 12.1,-1.7 14,-2.3 12.9,-4.1 29.1,-3.6 40.8,-0.2 9.7,2.8 18,7.8 25.8,14.1 3.8,3 6.6,7.1 10.6,9.9 10.2,7.2 27.7,8.7 38.9,-5.8 7.6,-9.6 9.4,-26.5 -2.8,-37.9"
   id="path1407"
   style="fill:#ff9e64;fill-opacity:1" />
		<path
   fill-rule="evenodd"
   clip-rule="evenodd"
   fill="#ffffff"
   d="m 93,48.2 c -3.8,0 -5.2,3 -5.2,5.2 v 4 c -3.9,-5.3 -9.2,-8.7 -16.4,-8.7 -5.9,0 -10.9,2.4 -15,7.1 -4.1,4.7 -6.2,10.5 -6.2,17.1 0,6.7 2.1,12.4 6.2,17.1 4.2,4.8 9.2,7.1 15,7.1 7.7,0 13.1,-4.2 16.4,-8.8 v 4.3 c 0,1.9 1.6,5 5.2,5 3.6,0 5.1,-3.1 5.1,-5.2 V 53.3 C 98.1,50 95.2,48.2 93,48.2 M 74.2,87.6 c -7.9,0 -13.6,-7.2 -13.6,-14.9 0,-8.2 5.8,-14.9 13.6,-14.9 8.3,0 13.6,7.5 13.6,14.9 0,7.8 -5.6,14.9 -13.6,14.9"
   id="path1409"
   style="fill:#c0caf5;fill-opacity:1" />
		<g
   id="g1425"
   style="fill:#565f89;fill-opacity:1">
			<path
   fill-rule="evenodd"
   clip-rule="evenodd"
   fill="#131039"
   d="m 294.3,39.1 c -4.8,-1.9 -8.4,1.7 -9.3,4.1 L 267.6,88.8 250.2,43.2 c -0.9,-2.3 -4.5,-6 -9.3,-4.1 -5.2,2 -4.9,6.9 -4.1,9.1 0,0 14.5,38 19.2,50.3 2.7,7.1 8,8.6 11.5,8.6 3.5,0 8.8,-1.5 11.5,-8.6 4.7,-12.3 19.2,-50.3 19.2,-50.3 1.1,-2.2 1.3,-7.1 -3.9,-9.1"
   id="path1411"
   style="fill:#565f89;fill-opacity:1" />
			<path
   fill-rule="evenodd"
   clip-rule="evenodd"
   fill="#131039"
   d="m 220.6,38.5 c -5.2,0 -7.3,4.1 -7.3,7.1 v 5.6 c -5.4,-7.3 -12.7,-12.1 -22.7,-12.1 -8.1,0 -15.1,3.3 -20.8,9.8 -5.7,6.6 -8.6,14.5 -8.6,23.8 0,9.2 2.9,17.1 8.6,23.7 5.7,6.6 12.7,9.9 20.8,9.9 10.7,0 18.1,-5.8 22.7,-12.2 v 6 c 0,2.7 2.2,6.9 7.2,6.9 5,0 7.1,-4.3 7.1,-7.1 V 45.7 c 0.1,-4.6 -3.9,-7.2 -7,-7.2 m -26.2,54.9 c -10.9,0 -18.8,-10 -18.8,-20.7 0,-11.3 8.1,-20.6 18.8,-20.6 11.5,0 18.8,10.3 18.8,20.6 0,10.9 -7.8,20.7 -18.8,20.7"
   id="path1413"
   style="fill:#565f89;fill-opacity:1" />
			<path
   fill-rule="evenodd"
   clip-rule="evenodd"
   fill="#131039"
   d="m 361.1,38.5 c -5.2,0 -7.3,4.1 -7.3,7.1 v 5.6 c -5.4,-7.3 -12.7,-12.1 -22.7,-12.1 -8.1,0 -15.1,3.3 -20.8,9.8 -5.7,6.6 -8.6,14.5 -8.6,23.8 0,9.2 2.9,17.1 8.6,23.7 5.7,6.6 12.7,9.9 20.8,9.9 10.7,0 18.1,-5.8 22.7,-12.2 v 6 c 0,2.7 2.2,6.9 7.2,6.9 5,0 7.1,-4.3 7.1,-7.1 V 45.7 c 0,-4.6 -3.9,-7.2 -7,-7.2 m -26.2,54.9 c -10.9,0 -18.8,-10 -18.8,-20.7 0,-11.3 8.1,-20.6 18.8,-20.6 11.5,0 18.8,10.3 18.8,20.6 -0.1,10.9 -7.8,20.7 -18.8,20.7"
   id="path1415"
   style="fill:#565f89;fill-opacity:1" />
			<g
   id="g1419"
   style="fill:#565f89;fill-opacity:1">
				<path
   fill="#131039"
   d="m 380.2,99.1 c -1.6,-0.9 -2.9,-2.8 -2.9,-5.3 0,-3.4 2.6,-6.1 6.1,-6.1 1.3,0 2.4,0.4 3.3,0.9 6.4,4.3 13,6.4 19,6.4 6.5,0 10.3,-2.8 10.3,-7.1 v -0.3 c 0,-5.1 -7,-6.6 -14.8,-9 -9.8,-2.8 -20.7,-7 -20.7,-19.7 v -0.3 c 0,-12.5 10.4,-20.2 23.5,-20.2 7,0 14.4,2 20.8,5.4 2.1,1.1 3.6,3.1 3.6,5.8 0,3.5 -2.8,6.1 -6.3,6.1 -1.3,0 -2,-0.3 -3,-0.8 -5.4,-2.8 -10.9,-4.5 -15.5,-4.5 -5.9,0 -9.3,2.8 -9.3,6.5 v 0.3 c 0,4.9 7.1,6.6 14.9,9.1 9.6,3 20.5,7.6 20.5,19.5 v 0.3 c 0,13.9 -10.8,20.8 -24.5,20.8 -8.2,0.1 -17.4,-2.5 -25,-7.8 z"
   id="path1417"
   style="fill:#565f89;fill-opacity:1" />
			</g>
			<g
   id="g1423"
   style="fill:#565f89;fill-opacity:1">
				<path
   fill="#131039"
   d="M 443.6,87.8 V 53.4 h -2.9 c -3.6,0 -6.5,-2.9 -6.5,-6.5 0,-3.6 2.9,-6.5 6.5,-6.5 h 2.9 V 30.2 c 0,-4.1 3,-7.5 7.2,-7.5 4.1,0 7.1,3.4 7.1,7.5 v 10.2 h 11.3 c 3.6,0 6.6,2.9 6.6,6.5 0,3.6 -3,6.5 -6.6,6.5 h -11.3 v 32 c 0,5.9 3.4,8.2 8.5,8.2 1.8,0 3.3,-0.4 3.8,-0.4 3.4,0 6.4,2.7 6.4,6.2 0,2.7 -1.9,5 -4,5.9 -3.3,1.1 -6.4,1.7 -10.4,1.7 -11.1,0.1 -18.6,-4.8 -18.6,-19.2 z"
   id="path1421"
   style="fill:#565f89;fill-opacity:1" />
			</g>
		</g>
	</g>
</g>
</switch></svg>
