<?xml version="1.0" encoding="UTF-8" standalone="no"?>
<!-- Generator: Adobe Illustrator 25.2.1, SVG Export Plug-In . SVG Version: 6.00 Build 0)  -->

<svg
   version="1.1"
   id="Layer_1"
   x="0px"
   y="0px"
   viewBox="0 0 3840 2160"
   style="enable-background:new 0 0 3840 2160;"
   xml:space="preserve"
   sodipodi:docname="eset.svg"
   inkscape:version="1.1.1 (3bf5ae0d25, 2021-09-20)"
   xmlns:inkscape="http://www.inkscape.org/namespaces/inkscape"
   xmlns:sodipodi="http://sodipodi.sourceforge.net/DTD/sodipodi-0.dtd"
   xmlns:xlink="http://www.w3.org/1999/xlink"
   xmlns="http://www.w3.org/2000/svg"
   xmlns:svg="http://www.w3.org/2000/svg"><defs
   id="defs993"><rect
     id="SVGID_1_"
     y="0"
     width="182"
     height="71.9" /></defs><sodipodi:namedview
   id="namedview991"
   pagecolor="#505050"
   bordercolor="#eeeeee"
   borderopacity="1"
   inkscape:pageshadow="0"
   inkscape:pageopacity="0"
   inkscape:pagecheckerboard="0"
   showgrid="false"
   inkscape:zoom="0.25190679"
   inkscape:cx="2215.105"
   inkscape:cy="716.53487"
   inkscape:window-width="1916"
   inkscape:window-height="1056"
   inkscape:window-x="0"
   inkscape:window-y="20"
   inkscape:window-maximized="1"
   inkscape:current-layer="g1053" />
<rect
   style="fill:#24283b;stroke-width:5.46313"
   id="rect5602"
   width="3840"
   height="2160"
   x="0"
   y="0" />
<style
   type="text/css"
   id="style1039">
	.st0{clip-path:url(#SVGID_2_);fill:#0094A1;}
	.st1{clip-path:url(#SVGID_2_);fill:#FFFFFF;}
</style><g
   id="g1053"
   transform="matrix(6.0404366,0,0,6.0404366,1370.3203,862.8463)">
	<defs
   id="defs1042">
		<rect
   id="rect1062"
   y="0"
   width="182"
   height="71.900002"
   x="0" />
	</defs>
	<clipPath
   id="SVGID_2_">
		<use
   xlink:href="#SVGID_1_"
   style="overflow:visible"
   id="use1044"
   x="0"
   y="0"
   width="100%"
   height="100%" />
	</clipPath>
	
	<g
   id="g1153"
   style="fill:#b4f9f8;fill-opacity:1"><path
     class="st0"
     d="m 175,2.8 c 0,-0.1 0,-0.1 0,-0.2 0,-0.1 -0.1,-0.1 -0.2,-0.2 -0.1,0 -0.2,-0.1 -0.2,-0.1 -0.1,0 -0.2,0 -0.3,0 H 174 v 1 h 0.2 c 0.2,0 0.3,0 0.4,0 0.1,0 0.2,-0.1 0.3,-0.1 0.1,0 0.1,-0.1 0.1,-0.2 0,0 0,-0.1 0,-0.2 m 1.6,2.6 h -1.2 L 174.3,4.1 H 174 v 1.3 h -0.9 V 1.8 h 1.4 c 0.3,0 0.5,0 0.6,0 0.2,0 0.3,0.1 0.5,0.2 0.2,0.1 0.3,0.2 0.4,0.3 0.1,0.1 0.1,0.3 0.1,0.5 0,0.3 -0.1,0.5 -0.2,0.7 -0.1,0.2 -0.3,0.3 -0.6,0.4 z m 0.8,-1.7 c 0,-0.8 -0.3,-1.5 -0.8,-2 -0.6,-0.6 -1.2,-0.9 -2,-0.9 -0.8,0 -1.5,0.3 -2,0.9 -0.6,0.6 -0.8,1.2 -0.8,2 0,0.8 0.3,1.5 0.8,2 0.6,0.6 1.2,0.9 2,0.9 0.8,0 1.5,-0.3 2,-0.9 0.5,-0.6 0.8,-1.2 0.8,-2 m 0.8,0 c 0,1 -0.4,1.9 -1.1,2.6 -0.7,0.7 -1.6,1.1 -2.6,1.1 -1,0 -1.9,-0.4 -2.6,-1.1 -0.7,-0.7 -1.1,-1.6 -1.1,-2.6 0,-1 0.4,-1.9 1.1,-2.6 0.7,-0.7 1.6,-1.1 2.6,-1.1 1,0 1.9,0.4 2.6,1.1 0.8,0.7 1.1,1.6 1.1,2.6"
     clip-path="url(#SVGID_2_)"
     id="path1047"
     style="display:inline;fill:#b4f9f8;fill-opacity:1" /><path
     class="st0"
     d="M 25.1,3.7 C 16.1,3.7 8.4,8.4 4.3,15 0.8,21.2 0,31.2 0,37.8 c 0,6.6 0.8,16.7 4.3,22.8 4,6.6 11.7,11.3 20.8,11.3 h 131.8 c 9,0 16.7,-4.7 20.8,-11.3 C 181.2,54.5 182,44.4 182,37.8 182,31.2 181.2,21.1 177.7,15 173.7,8.4 166,3.7 156.9,3.7 Z"
     clip-path="url(#SVGID_2_)"
     id="path1049"
     style="display:inline;fill:#b4f9f8;fill-opacity:1" /></g>
	<path
   class="st1"
   d="m 112.8,34.1 h 11.1 v -0.3 c 0,-5.1 -2,-5.4 -5.7,-5.4 -4.5,-0.1 -5.3,1.3 -5.4,5.7 M 34.9,28.6 c 3.6,0 5.6,0.4 5.6,5.3 v 0.2 H 29.6 c 0.1,-4.2 1,-5.5 5.3,-5.5 M 19.5,38 c 0,11.9 3,16.2 15.6,16.2 4.7,0 8.5,-0.4 11.3,-1.9 2.6,-1.5 4.2,-4.1 4.2,-8.8 h -9.9 c -0.1,3.4 -2.4,3.8 -5.6,3.8 -4.6,0 -5.5,-1.9 -5.5,-7.6 v -0.2 h 21 V 38 c 0,-13 -3.5,-16.3 -15.5,-16.3 -12.8,0 -15.6,4 -15.6,16.3 m 37.8,-5.9 c 0,6.4 2.2,9.3 15.6,9.3 1.2,0 3.1,-0.1 4.2,0.4 1,0.5 1.5,1.4 1.5,3 0,2.8 -1,3.1 -5.8,3.1 -2.6,0 -5.3,-0.1 -5.5,-3.6 h -10 c 0.1,7 3.4,9.3 9.6,9.8 1.9,0.1 3.9,0.1 6,0.1 8.5,0 15.6,-1.4 15.6,-10.6 0,-8.8 -4.6,-9.4 -15.6,-9.7 -5.5,-0.1 -5.8,-1.3 -5.8,-3.1 0,-2.1 0.2,-2.8 5.8,-2.8 2,0 4.1,0.2 4.5,2.7 h 9.5 v -1.3 c 0,-7.6 -8,-7.7 -14,-7.7 -9.1,0 -15.6,0.2 -15.6,10.4 m 82.8,-10.4 h 24.8 V 29 h -7.4 V 53.9 H 147.4 V 29 H 140 v -7.3 z m -37.2,16.1 c 0,-12.3 2.7,-16.2 15.5,-16.2 11.9,0 15.4,3.2 15.4,16.2 v 1.4 h -21 v 0.3 c 0,5.7 0.9,7.7 5.6,7.7 3.1,0 5.5,-0.3 5.7,-3.8 h 9.7 c -0.1,4.5 -1.6,7.1 -4.2,8.6 -2.7,1.5 -6.5,1.9 -11.2,1.9 -12.5,0 -15.5,-4.2 -15.5,-16.1 M 12.2,59.9 C 7.1,54.4 6,45.9 6,37.8 6,29.7 7.1,21.2 12.2,15.7 c 3.2,-3.4 9.4,-6 14.6,-6 H 94.7 V 65.9 H 26.8 c -5.3,0 -11.4,-2.6 -14.6,-6"
   clip-path="url(#SVGID_2_)"
   id="path1051"
   style="display:inline;fill:#c0caf5;fill-opacity:1" />
</g></svg>
