<?xml version="1.0" encoding="UTF-8" standalone="no"?>
<!-- Generator: Adobe Illustrator 25.2.1, SVG Export Plug-In . SVG Version: 6.00 Build 0)  -->

<svg
   version="1.1"
   id="Layer_1"
   x="0px"
   y="0px"
   viewBox="0 0 3840 2160"
   style="enable-background:new 0 0 3840 2160;"
   xml:space="preserve"
   sodipodi:docname="meta.svg"
   inkscape:version="1.1.1 (3bf5ae0d25, 2021-09-20)"
   xmlns:inkscape="http://www.inkscape.org/namespaces/inkscape"
   xmlns:sodipodi="http://sodipodi.sourceforge.net/DTD/sodipodi-0.dtd"
   xmlns:xlink="http://www.w3.org/1999/xlink"
   xmlns="http://www.w3.org/2000/svg"
   xmlns:svg="http://www.w3.org/2000/svg"><defs
   id="defs993"><linearGradient
     id="Grad_Logo1"
     x1="61"
     y1="117"
     x2="259"
     y2="127"
     gradientUnits="userSpaceOnUse"
     xlink:href="#Grad_Logo2"><stop
       style="stop-color:#0064e1"
       offset="0"
       id="stop914" /><stop
       style="stop-color:#0064e1"
       offset="0.4"
       id="stop916" /><stop
       style="stop-color:#0073ee"
       offset="0.83"
       id="stop918" /><stop
       style="stop-color:#0082fb"
       offset="1"
       id="stop920" /></linearGradient><linearGradient
     id="Grad_Logo2"
     x1="45"
     y1="139"
     x2="45"
     y2="66"
     gradientUnits="userSpaceOnUse"><stop
       style="stop-color:#0082fb"
       offset="0"
       id="stop923" /><stop
       style="stop-color:#0064e0"
       offset="1"
       id="stop925" /></linearGradient></defs><sodipodi:namedview
   id="namedview991"
   pagecolor="#505050"
   bordercolor="#eeeeee"
   borderopacity="1"
   inkscape:pageshadow="0"
   inkscape:pageopacity="0"
   inkscape:pagecheckerboard="0"
   showgrid="false"
   inkscape:zoom="0.35625"
   inkscape:cx="1308.0702"
   inkscape:cy="1079.2982"
   inkscape:window-width="1920"
   inkscape:window-height="1060"
   inkscape:window-x="0"
   inkscape:window-y="20"
   inkscape:window-maximized="1"
   inkscape:current-layer="Layer_1" />
<rect
   style="fill:#24283b;stroke-width:5.46313"
   id="rect5602"
   width="3840"
   height="2160"
   x="0"
   y="0" />
<g
   id="g950"
   transform="matrix(1.6276242,0,0,1.6276242,1148.5061,924.56189)"><path
     id="Logo0"
     style="fill:#7aa2f7;fill-opacity:1"
     d="m 31.06,125.96 c 0,10.98 2.41,19.41 5.56,24.51 4.13,6.68 10.29,9.51 16.57,9.51 8.1,0 15.51,-2.01 29.79,-21.76 11.44,-15.83 24.92,-38.05 33.99,-51.98 l 15.36,-23.6 C 143,46.25 155.35,28.03 169.51,15.68 181.07,5.6 193.54,0 206.09,0 c 21.07,0 41.14,12.21 56.5,35.11 16.81,25.08 24.97,56.67 24.97,89.27 0,19.38 -3.82,33.62 -10.32,44.87 -6.28,10.88 -18.52,21.75 -39.11,21.75 v -31.02 c 17.63,0 22.03,-16.2 22.03,-34.74 0,-26.42 -6.16,-55.74 -19.73,-76.69 -9.63,-14.86 -22.11,-23.94 -35.84,-23.94 -14.85,0 -26.8,11.2 -40.23,31.17 -7.14,10.61 -14.47,23.54 -22.7,38.13 l -9.06,16.05 c -18.2,32.27 -22.81,39.62 -31.91,51.75 C 84.74,182.95 71.12,191 53.19,191 31.92,191 18.47,181.79 10.14,167.91 3.34,156.6 0,141.76 0,124.85 Z" /><path
     id="Logo1"
     style="fill:#7aa2f7;fill-opacity:1"
     d="M 24.49,37.3 C 38.73,15.35 59.28,0 82.85,0 c 13.65,0 27.22,4.04 41.39,15.61 15.5,12.65 32.02,33.48 52.63,67.81 l 7.39,12.32 c 17.84,29.72 27.99,45.01 33.93,52.22 7.64,9.26 12.99,12.02 19.94,12.02 17.63,0 22.03,-16.2 22.03,-34.74 l 27.4,-0.86 c 0,19.38 -3.82,33.62 -10.32,44.87 -6.28,10.88 -18.52,21.75 -39.11,21.75 -12.8,0 -24.14,-2.78 -36.68,-14.61 -9.64,-9.08 -20.91,-25.21 -29.58,-39.71 L 146.08,93.6 C 133.14,71.98 121.27,55.86 114.4,48.56 107.01,40.71 97.51,31.23 82.35,31.23 c -12.27,0 -22.69,8.61 -31.41,21.78 z" /><path
     id="Logo2"
     style="fill:#7aa2f7;fill-opacity:1"
     d="m 82.35,31.23 c -12.27,0 -22.69,8.61 -31.41,21.78 -12.33,18.61 -19.88,46.33 -19.88,72.95 0,10.98 2.41,19.41 5.56,24.51 L 10.14,167.91 C 3.34,156.6 0,141.76 0,124.85 0,94.1 8.44,62.05 24.49,37.3 38.73,15.35 59.28,0 82.85,0 Z" /><path
     id="Text"
     style="fill:#414868;fill-opacity:1"
     d="m 347.94,6.04 h 35.93 l 61.09,110.52 61.1,-110.52 h 35.15 v 181.6 H 511.9 V 48.46 l -53.58,96.38 h -27.5 L 377.25,48.46 v 139.18 h -29.31 z m 285.11,67.71 c -21.02,0 -33.68,15.82 -36.71,35.41 h 71.34 C 666.21,88.98 654.57,73.75 633.05,73.75 Z m -65.77,46.57 c 0,-41.22 26.64,-71.22 66.28,-71.22 38.99,0 62.27,29.62 62.27,73.42 v 8.05 h -99.49 c 3.53,21.31 17.67,35.67 40.47,35.67 18.19,0 29.56,-5.55 40.34,-15.7 l 15.57,19.07 c -14.67,13.49 -33.33,21.27 -56.95,21.27 -42.91,0 -68.49,-31.29 -68.49,-70.56 z M 731.37,76.35 h -26.98 v -24 h 26.98 V 12.66 h 28.28 v 39.69 h 40.99 v 24 h -40.99 v 60.83 c 0,20.77 6.64,28.15 22.96,28.15 7.45,0 11.72,-0.64 18.03,-1.69 v 23.74 c -7.86,2.22 -15.36,3.24 -23.48,3.24 -30.53,0 -45.79,-16.68 -45.79,-50.07 z m 188.35,23.34 c -5.68,-14.34 -18.35,-24.9 -36.97,-24.9 -24.2,0 -39.69,17.17 -39.69,45.14 0,27.27 14.26,45.27 38.53,45.27 19.08,0 32.7,-11.1 38.13,-24.91 z M 948,187.64 H 920.24 V 168.7 c -7.76,11.15 -21.88,22.18 -44.75,22.18 -36.78,0 -61.36,-30.79 -61.36,-70.95 0,-40.54 25.17,-70.83 62.92,-70.83 18.66,0 33.3,7.46 43.19,20.63 V 52.35 H 948 Z" /></g></svg>
