<?xml version="1.0" encoding="UTF-8" standalone="no"?>
<!-- Generator: Adobe Illustrator 25.2.1, SVG Export Plug-In . SVG Version: 6.00 Build 0)  -->

<svg
   version="1.1"
   id="Layer_1"
   x="0px"
   y="0px"
   viewBox="0 0 3840 2160"
   style="enable-background:new 0 0 3840 2160;"
   xml:space="preserve"
   sodipodi:docname="oracle.svg"
   inkscape:version="1.1.1 (3bf5ae0d25, 2021-09-20)"
   xmlns:inkscape="http://www.inkscape.org/namespaces/inkscape"
   xmlns:sodipodi="http://sodipodi.sourceforge.net/DTD/sodipodi-0.dtd"
   xmlns="http://www.w3.org/2000/svg"
   xmlns:svg="http://www.w3.org/2000/svg"><defs
   id="defs993" /><sodipodi:namedview
   id="namedview991"
   pagecolor="#505050"
   bordercolor="#eeeeee"
   borderopacity="1"
   inkscape:pageshadow="0"
   inkscape:pageopacity="0"
   inkscape:pagecheckerboard="0"
   showgrid="false"
   inkscape:zoom="0.35625"
   inkscape:cx="1308.0702"
   inkscape:cy="1079.2982"
   inkscape:window-width="1920"
   inkscape:window-height="1060"
   inkscape:window-x="0"
   inkscape:window-y="20"
   inkscape:window-maximized="1"
   inkscape:current-layer="Layer_1" />
<rect
   style="fill:#24283b;stroke-width:5.46313"
   id="rect5602"
   width="3840"
   height="2160"
   x="0"
   y="0" />
<path
   d="m 1808.5399,1112.2813 h 109.1509 l -57.6552,-93.1079 -105.9996,168.1671 h -48.2012 l 128.9185,-201.75752 a 30.72558,30.72558 0 0 1 50.135,-0.35814 l 129.2766,202.11566 h -48.2012 l -22.704,-37.6013 h -110.4401 l -24.0648,-37.4579 m 500.8484,37.4579 V 974.48159 h -40.9674 v 192.51831 a 19.767506,19.767506 0 0 0 6.0877,14.3243 20.698585,20.698585 0 0 0 14.8973,6.2312 h 186.2156 l 24.2797,-37.6014 h -190.7278 m -677.1087,-31.5133 a 71.979555,71.979555 0 0 0 0,-143.95911 h -179.0535 v 212.85891 h 40.8959 v -175.1861 h 135.6509 a 34.449915,34.449915 0 0 1 0,68.8999 h -115.3821 l 122.1861,106.2862 h 59.3741 l -82.0781,-68.8998 h 18.4067 m -430.5878,68.8998 h 123.6902 a 106.4294,106.4294 0 0 0 0,-212.78729 h -123.6902 a 106.4294,106.4294 0 1 0 0,212.78729 m 120.8969,-37.458 h -118.1753 a 68.899785,68.899785 0 0 1 0,-137.7281 h 118.1753 a 68.899785,68.899785 0 1 1 0,137.7281 m 777.0205,37.458 h 126.2685 l 23.9216,-37.458 h -147.3969 a 68.899785,68.899785 0 1 1 0,-137.7281 h 119.9659 l 24.208,-37.60119 h -146.9671 a 106.4294,106.4294 0 1 0 0,212.78729 m 500.4187,-37.458 a 68.899785,68.899785 0 0 1 -66.3214,-50.135 h 174.8995 l 24.0648,-37.5296 h -198.9643 a 68.828164,68.828164 0 0 1 66.3214,-50.135 h 120.0375 l 23.9931,-37.60131 h -146.8238 a 106.4294,106.4294 0 0 0 0,212.78721 h 126.2685 l 23.9933,-37.4579 h -147.5402"
   style="fill:#f7768e;stroke-width:7.16214;fill-opacity:1"
   id="path894" /></svg>
