<?xml version="1.0" encoding="UTF-8" standalone="no"?>
<!-- Generator: Adobe Illustrator 25.2.1, SVG Export Plug-In . SVG Version: 6.00 Build 0)  -->

<svg
   version="1.1"
   id="Layer_1"
   x="0px"
   y="0px"
   viewBox="0 0 3840 2160"
   style="enable-background:new 0 0 3840 2160;"
   xml:space="preserve"
   sodipodi:docname="red-hat-icon.svg"
   inkscape:version="1.1.1 (3bf5ae0d25, 2021-09-20)"
   xmlns:inkscape="http://www.inkscape.org/namespaces/inkscape"
   xmlns:sodipodi="http://sodipodi.sourceforge.net/DTD/sodipodi-0.dtd"
   xmlns="http://www.w3.org/2000/svg"
   xmlns:svg="http://www.w3.org/2000/svg"><defs
   id="defs993"><style
     id="style2">.a737459c-e8c7-4afa-8008-f6cfd15ccda2{fill:#e00;}</style></defs><sodipodi:namedview
   id="namedview991"
   pagecolor="#505050"
   bordercolor="#eeeeee"
   borderopacity="1"
   inkscape:pageshadow="0"
   inkscape:pageopacity="0"
   inkscape:pagecheckerboard="0"
   showgrid="false"
   inkscape:zoom="0.35625"
   inkscape:cx="1308.0702"
   inkscape:cy="1079.2982"
   inkscape:window-width="1920"
   inkscape:window-height="1060"
   inkscape:window-x="0"
   inkscape:window-y="20"
   inkscape:window-maximized="1"
   inkscape:current-layer="Layer_1" />
<rect
   style="fill:#24283b;stroke-width:5.46313"
   id="rect5602"
   width="3840"
   height="2160"
   x="0"
   y="0" />
<g
   id="g866"
   transform="matrix(5.8199027,0,0,5.8199027,1360.4164,655.1471)"><path
     class="a737459c-e8c7-4afa-8008-f6cfd15ccda2"
     d="m 128,84 c 12.5,0 30.6,-2.6 30.6,-17.5 a 19.53,19.53 0 0 0 -0.3,-3.4 L 150.9,30.7 C 149.2,23.6 147.7,20.3 135.2,14.1 125.5,9.1 104.4,1 98.1,1 92.2,1 90.5,8.5 83.6,8.5 76.9,8.5 72,2.9 65.7,2.9 c -6,0 -9.9,4.1 -12.9,12.5 0,0 -8.4,23.7 -9.5,27.2 a 6.15,6.15 0 0 0 -0.2,1.9 C 43,53.7 79.3,83.9 128,84 m 32.5,-11.4 c 1.7,8.2 1.7,9.1 1.7,10.1 0,14 -15.7,21.8 -36.4,21.8 C 79,104.5 38.1,77.1 38.1,59 a 18.35,18.35 0 0 1 1.5,-7.3 C 22.8,52.5 1,55.5 1,74.7 1,106.2 75.6,145 134.6,145 c 45.3,0 56.7,-20.5 56.7,-36.7 0,-12.7 -11,-27.1 -30.8,-35.7"
     id="path8"
     inkscape:connector-curvature="0"
     style="fill:#f7768e;fill-opacity:1" /><path
     d="m 160.5,72.6 c 1.7,8.2 1.7,9.1 1.7,10.1 0,14 -15.7,21.8 -36.4,21.8 C 79,104.5 38.1,77.1 38.1,59 a 18.35,18.35 0 0 1 1.5,-7.3 l 3.7,-9.1 a 6.15,6.15 0 0 0 -0.2,1.9 c 0,9.2 36.3,39.4 84.9,39.4 12.5,0 30.6,-2.6 30.6,-17.5 A 19.53,19.53 0 0 0 158.3,63 Z"
     id="path10"
     inkscape:connector-curvature="0"
     style="fill:#414868;fill-opacity:1" /></g></svg>
