<?xml version="1.0" encoding="UTF-8" standalone="no"?>
<!-- Generator: Adobe Illustrator 25.2.1, SVG Export Plug-In . SVG Version: 6.00 Build 0)  -->

<svg
   version="1.1"
   id="Layer_1"
   x="0px"
   y="0px"
   viewBox="0 0 3840 2160"
   style="enable-background:new 0 0 3840 2160;"
   xml:space="preserve"
   sodipodi:docname="servicenow.svg"
   inkscape:version="1.1.1 (3bf5ae0d25, 2021-09-20)"
   xmlns:inkscape="http://www.inkscape.org/namespaces/inkscape"
   xmlns:sodipodi="http://sodipodi.sourceforge.net/DTD/sodipodi-0.dtd"
   xmlns="http://www.w3.org/2000/svg"
   xmlns:svg="http://www.w3.org/2000/svg"><defs
   id="defs993" /><sodipodi:namedview
   id="namedview991"
   pagecolor="#505050"
   bordercolor="#eeeeee"
   borderopacity="1"
   inkscape:pageshadow="0"
   inkscape:pageopacity="0"
   inkscape:pagecheckerboard="0"
   showgrid="false"
   inkscape:zoom="0.35625"
   inkscape:cx="1308.0702"
   inkscape:cy="1079.2982"
   inkscape:window-width="1920"
   inkscape:window-height="1060"
   inkscape:window-x="0"
   inkscape:window-y="20"
   inkscape:window-maximized="1"
   inkscape:current-layer="Layer_1" />
<rect
   style="fill:#24283b;stroke-width:5.46313"
   id="rect5602"
   width="3840"
   height="2160"
   x="0"
   y="0" />
<g
   clip-rule="evenodd"
   fill-rule="evenodd"
   id="g954"
   transform="matrix(13.176328,0,0,13.176328,1061.5622,953.21567)"><path
   d="m 102.8,5.762 c -4.2,0 -7.5,3.3 -7.5,7.5 0,2.2 0.9,4.2 2.3,5.6 0.5,0.5 1.4,0.5 2,0.1 0.8,-0.7 2,-1.1 3.2,-1.1 1.3,0 2.3,0.4 3.2,1.1 0.6,0.5 1.4,0.4 2,-0.2 1.4,-1.4 2.3,-3.3 2.3,-5.5 -0.1,-4.1 -3.4,-7.5 -7.5,-7.5 m -0.1,11.4 c -2.3,0 -3.8,-1.7 -3.8,-3.8 0,-2.1 1.5,-3.8 3.8,-3.8 2.3,0 3.8,1.7 3.8,3.8 0,2.1 -1.5,3.8 -3.8,3.8"
   fill="#81b5a1"
   id="path950"
   style="fill:#73daca;fill-opacity:1" />
<g
   id="g986"
   style="fill:#565f89;fill-opacity:1"><g
     fill="#293e40"
     id="g948"
     style="fill:#565f89;fill-opacity:1">
<path
   d="m 31.7,5.862 c -1.4,0 -2.6,0.5 -3.6,1.3 v -1.1 h -3.4 v 12.9 h 3.5 v -8.2 c 0.5,-0.7 1.7,-1.6 3.2,-1.6 0.5,0 1,0.1 1.4,0.2 v -3.3 c -0.4,-0.1 -0.8,-0.2 -1.1,-0.2"
   id="path930"
   style="fill:#565f89;fill-opacity:1" />
<path
   d="m 1.6,14.96 c 0.9,0.8 2.3,1.3 3.5,1.3 0.9,0 1.7,-0.5 1.7,-1.1 0,-2 -6.3,-1.3 -6.3,-5.4 0,-2.5 2.4,-4 4.9,-4 1.7,0 3.5,0.6 4.4,1.3 L 8.2,9.56 C 7.5,9.16 6.7,8.66 5.7,8.66 c -1,0 -1.7,0.4 -1.7,1.1 0,1.7 6.3,1 6.3,5.5 0,2.5 -2.4,4 -5.1,4 -1.8,0 -3.7,-0.6 -5.2,-1.7 z"
   id="path932"
   style="fill:#565f89;fill-opacity:1" />
<path
   d="m 23.2,12.36 c 0,-3.6 -2.5,-6.6 -6.1,-6.6 -3.8,0 -6.3,3.2 -6.3,6.7 0,4.1 2.9,6.7 6.7,6.7 2,0 4,-0.8 5.3,-2.3 l -2,-2 c -0.6,0.7 -1.8,1.5 -3.2,1.5 -1.8,0 -3.3,-1.3 -3.5,-3.1 H 23 c 0.2,-0.2 0.2,-0.5 0.2,-0.9 z m -8.8,-1.5 c 0.2,-1.2 1.4,-2.3 2.8,-2.3 1.4,0 2.4,1.1 2.6,2.3 z"
   id="path934"
   style="fill:#565f89;fill-opacity:1" />
<polygon
   transform="translate(-0.3,-0.5379)"
   points="42.4,19.5 40,19.5 34.1,6.6 37.6,6.6 41.2,14.5 44.7,6.6 48.3,6.6 "
   id="polygon936"
   style="fill:#565f89;fill-opacity:1" />
<path
   d="m 50.9,-0.03788 c 1.3,0 2.3,1 2.3,2.2 0,1.3 -1,2.2 -2.3,2.2 -1.3,0 -2.2,-1 -2.2,-2.2 0,-1.3 0.9,-2.2 2.2,-2.2"
   id="path938"
   style="fill:#565f89;fill-opacity:1" />
<rect
   x="49.200001"
   y="6.0619998"
   width="3.5"
   height="12.9"
   id="rect940"
   style="fill:#565f89;fill-opacity:1" />
<path
   d="m 66.9,16.26 c -1.5,2 -3.4,2.9 -5.8,2.9 -4,0 -6.9,-3 -6.9,-6.7 0,-3.8 3,-6.7 6.9,-6.7 2.3,0 4.2,1.1 5.4,2.6 l -2.3,2.1 c -0.7,-0.9 -1.7,-1.5 -2.9,-1.5 -2,0 -3.5,1.6 -3.5,3.5 0,2 1.4,3.5 3.5,3.5 1.4,0 2.5,-0.8 3.1,-1.7 z"
   id="path942"
   style="fill:#565f89;fill-opacity:1" />
<path
   d="m 79.4,16.86 c -1.3,1.5 -3.3,2.3 -5.3,2.3 -3.8,0 -6.7,-2.6 -6.7,-6.7 0,-3.6 2.4,-6.7 6.3,-6.7 3.5,0 6.1,3 6.1,6.6 0,0.4 0,0.7 -0.1,1 h -9 c 0.2,1.8 1.7,3.1 3.5,3.1 1.4,0 2.6,-0.8 3.2,-1.5 z m -3.2,-6 c -0.1,-1.1 -1.1,-2.3 -2.6,-2.3 -1.4,0 -2.6,1.1 -2.8,2.3 z"
   id="path944"
   style="fill:#565f89;fill-opacity:1" />
<path
   d="M 81.1,18.96 V 6.06 h 3.3 v 1.1 c 1,-0.8 2.2,-1.3 3.6,-1.3 1.8,0 3.4,0.8 4.5,2.1 0.8,1 1.4,2.3 1.4,4.5 v 6.6 h -3.5 v -6.9 c 0,-1.3 -0.3,-2 -0.8,-2.4 -0.5,-0.5 -1.1,-0.8 -2,-0.8 -1.4,0 -2.6,0.9 -3.2,1.6 v 8.4 z"
   id="path946"
   style="fill:#565f89;fill-opacity:1" />
</g><polygon
     transform="translate(-0.3,-0.5379)"
     points="109.7,6.6 113.1,6.6 115.9,14 118.7,6.6 121.6,6.6 124.3,14 127.1,6.6 130.6,6.6 125.5,19.5 122.9,19.5 120.1,12.2 117.4,19.5 114.8,19.5 "
     fill="#293e40"
     id="polygon952"
     style="fill:#565f89;fill-opacity:1" /></g>
</g></svg>
