<?xml version="1.0" encoding="utf-8"?>
<!-- Generator: Adobe Illustrator 25.2.1, SVG Export Plug-In . SVG Version: 6.00 Build 0)  -->
<svg version="1.1" id="_x39_" xmlns="http://www.w3.org/2000/svg" xmlns:xlink="http://www.w3.org/1999/xlink" x="0px" y="0px"
	 viewBox="0 0 5360.6 704.8" style="enable-background:new 0 0 5360.6 704.8;" xml:space="preserve">
<g>
	<g>
		<path d="M1773.5,264.6c5.5-4.8,10.9-9.2,15.8-14.1c19.4-19.2,43-28.3,70.1-28.9c16-0.4,31.8,0.3,47.3,5.4
			c33.2,11,52.2,34.1,58.5,67.9c1.6,9.1,2.4,18.4,2.3,27.7c0.2,69.5,0.2,139,0.1,208.5v10.3H1885v-12.2c0-64.2,0-128.3,0-192.5
			c0.1-3.6,0-7.3-0.5-10.9c-4.5-24.5-24.7-37.7-51.1-34c-31.8,4.5-45.3,26-47.5,53.8c-0.8,10.6-0.7,21.2-0.8,31.9
			c-0.1,50.9-0.1,101.7,0,152.6v11.4h-82v-11.8c0-64.2,0-128.3-0.1-192.5c0-11.7-1.4-23.1-10.2-32.3c-11.7-12.2-26.4-15-42.2-12.7
			c-27.6,4-43.7,21.5-46.8,50.1c-0.5,5.3-0.8,10.6-0.7,15.9c-0.1,57.2-0.1,114.4,0,171.5V542c-27.6,0.1-54.3,0.1-81.5,0V228.2h81.2
			v32.8l1.8,0.9c22.7-27.1,50.6-42,86.8-40.6C1726.7,222.7,1755.2,235,1773.5,264.6z"/>
		<path d="M3409,264.4V119.2c7.6-2.6,68.4-3.4,82.8-1.2v423.2h-82.6V515c-10.1,8.8-18.8,17.8-28.9,25c-14.1,10.2-30.6,14-47.9,14.9
			c-20.9,1.1-41.1-1.9-60.3-10.5c-31.4-14.2-52.3-38-65-69.5c-10-24.3-15.6-50.1-16.7-76.3c-1.3-34,3.5-66.7,18.1-97.6
			c16.9-35.6,42-63.3,81-74.7c30.7-9,61.2-7.4,89.6,9.3c9.5,5.6,17.4,13.3,24.2,22C3404.6,259.3,3406,260.9,3409,264.4z
			 M3409.2,389.5c0-2,0.1-4,0-6c-1-25.3-6.2-49.4-22.1-69.9c-11.1-14.4-25.9-22.5-44.4-23c-24.2-0.7-41.1,11.6-53.2,31.1
			c-14.5,23.4-18,49.6-16.6,76.6c1,20.4,5.9,39.9,16.9,57.6c14.5,23.3,38.5,34.5,63.6,29c19.4-4.3,32.8-16.7,42.1-33.8
			C3405.8,431.8,3409.2,411,3409.2,389.5L3409.2,389.5z"/>
		<path d="M4359.8,404.6c-10.6,11.5-20.5,21.7-29.8,32.5c-1.8,2.1-1.8,6.2-1.8,9.4c-0.1,27.6-0.1,55.2-0.1,82.8V540
			c-7.4,2.4-68.4,3.1-81.8,1.1c-1.9-7.2-2.6-406.4-0.8-422.2c6.9-2.2,69-2.8,82.3-0.6v226.6l1.9,0.7c7.4-8.7,15-17.3,22.3-26
			c24-28.4,47.9-56.8,71.8-85.3c3.9-4.6,7.9-6.8,14.3-6.7c27.6,0.4,55.3,0.2,84.7,0.2c-10.8,15.2-23.6,27-34.8,40.1
			c-11.5,13.4-23.6,26.1-35.5,39.1s-23.6,26.1-35.9,39.7l114.5,194.9c-4.9,0.3-8.1,0.6-11.3,0.6c-25,0-50-0.3-75,0.2
			c-7.7,0.2-12-2.2-15.5-9c-17.3-32.6-35-64.9-52.6-97.2C4371.5,426.1,4366.1,416.2,4359.8,404.6z"/>
		<path d="M3988.2,330.8h-78.5c1.7-49.1,25.3-88.8,77.3-102.4c42.2-11.1,85-10.7,126.9,3.2c23,7.6,41.3,21.3,51.6,43.9
			c6.3,13.8,8.5,28.6,8.6,43.6c0.2,57.5,0.4,115.1-0.1,172.6c-0.1,14.3,4.3,25.9,14.1,35.9c4.9,5,4.8,5.2,3.8,14.4h-78.4
			c-12.1,0-17.1-4.3-18.9-16.5c-0.6-3.8-1-7.7-1.6-13c-5.8,5-10.4,9.2-15.1,13.1c-17.8,14.6-37.8,25.1-60.8,28.1
			c-35.4,4.7-67.6-2.5-93.5-29c-12.1-12.4-17.8-28-20.2-44.7c-2.3-16.1-2.1-32.4,1.8-48.5c7.6-31.6,28.1-51.1,57.8-62.1
			c21-7.8,43.3-10.2,65.2-14.3c11.1-2,22.3-3.6,33.4-6c5.8-1.3,11.4-3.4,16.7-6.1c10.4-5.4,15.3-14.6,14.6-26.2s-6.7-20.1-17.8-24.1
			c-5-1.8-10.2-3.5-15.4-3.8c-10.6-0.5-21.4-0.7-31.9,0.4c-22.8,2.4-32.3,11.3-37.4,33.4C3989.6,325.3,3988.9,327.9,3988.2,330.8z
			 M4092.4,395.2c-7.4,2-14.3,4.3-21.4,5.8c-14,3-28.1,5-42,8.3c-9,2.1-17.8,5.2-26.1,9.2c-15.8,7.6-19.4,21.8-17.8,37.6
			c1.5,14.5,10.1,24.1,23.8,29.2c8.9,3.3,18.3,3.4,27.6,2.7c25.1-1.8,44.6-17.2,51.9-41.2C4093.5,430.1,4093.5,413,4092.4,395.2z"/>
		<path d="M2593.9,330.9h-78.5c-1.1-9.1,1.1-17.7,3.1-26.3c10.4-44.9,40.1-69.8,84-78.7c34.3-7.2,69.8-6.6,103.9,1.7
			c20.6,5,39.4,13.7,53.6,30.6c14.7,17.5,19.4,38.2,19.4,60.2c0.1,57.2,0.3,114.3-0.1,171.5c-0.1,15.3,4.2,28,15.2,38.4
			c3.8,3.6,5.4,7.3,2.9,13.8h-9.1c-23.6,0-47.3,0-70.9,0c-10,0-13.4-2.4-16.1-12.3c-1.4-5-1.9-10.3-2.9-16.5c-2.6,2-4.6,3.5-6.4,5.2
			c-19.6,18.4-42.1,31.7-69,35.4c-35.3,4.8-67.5-2.3-93.5-28.7c-10.9-11-16.4-25-19.5-39.7c-3.4-16.6-3.4-33.8,0.1-50.4
			c6.8-33.4,27.7-54.3,59-65.6c24.8-9,51.1-11.5,76.9-16.1c12.7-2.3,25.7-3.2,37.4-9.7c14.7-8.3,19.5-24.5,11.3-39.2
			c-2.9-5.4-7.7-9.4-13.4-11.3c-20.8-7-41.9-6.4-62.7-0.4c-11.2,3.2-17.3,12-20.9,22.5C2596,319.9,2595.3,324.9,2593.9,330.9z
			 M2698.4,396c-23.7,4.9-46.8,9.6-69.7,14.6c-6.2,1.4-12.1,3.6-17.8,6.4c-16.3,7.9-22,19.9-20.1,40.4c1.3,13.5,12.4,25.5,27.6,29.1
			c14.3,3.5,29.3,2.4,43-3.1c12.2-4.7,22.2-14,27.8-25.8C2699.1,437.9,2699.3,417,2698.4,396z"/>
		<path d="M1149.3,390.1c-0.4-26.5,3-50.7,11.4-74.1c16.6-45.7,47.9-75.9,95.1-88.4c38.9-10.3,77.8-9.1,115.7,5.2
			c34.3,13,59.1,36.8,73.4,70.5c20.8,49.2,23.1,100,7.4,150.7c-16.5,53.4-53.2,86.3-108.2,97.3c-36.6,7.3-73,5.7-107.8-9.1
			c-43.7-18.5-68.8-52.8-80.4-97.8C1151,426.2,1148.7,407.5,1149.3,390.1z M1231.8,387.8c-0.4,16.6,2.3,33.2,7.9,48.8
			c7.4,20.4,19.1,37.4,39.7,46.3c32,13.9,67.1,1.1,84.4-30.1c8.3-15,12.7-31.1,14.5-48.2c2.8-26.4-0.3-51.8-11.6-75.6
			c-10.5-22.2-27.5-37.5-53.1-40.1c-27.4-2.9-48.7,7.8-63.7,30.7C1236.2,340.2,1232.2,363.5,1231.8,387.8L1231.8,387.8z"/>
		<path d="M2310.3,410.3h-210.5c0.4,5.4,0.6,9.8,1.2,14.2c1,7.9,1.4,15.9,3.4,23.6c8.5,32.2,39.4,46.6,67.6,43.7
			c25.5-2.6,44.2-15,54.9-39h80.3c-0.4,2.5-0.4,4.5-1,6.2c-13.9,40.5-41.2,68.6-80.8,84.2c-41.5,16.3-83.7,17.2-125.4,0.2
			c-31.4-12.8-53-36-66.6-66.6s-17.3-63-16-96.2c1.1-27.8,5.8-54.7,17.6-80c20.1-43.1,53.5-69.4,100.9-77c30.4-4.8,60.4-2.6,89,9.8
			c42.8,18.5,68.2,51.6,79.4,96.1c6.4,25.2,8,51,7,77C2311.1,407.7,2310.8,409,2310.3,410.3z M2101.4,354.8h123.9
			c-1.4-21.6-6.2-40.7-23.1-55.5c-21.9-19.3-66-22.8-86.7,9.6C2106.8,322.5,2102.9,337.9,2101.4,354.8z"/>
		<path d="M4842.3,410.3H4631c1.2,17.4,1.2,33.7,8.4,48.6c10.8,22.5,38,36,64.2,32.8c25.1-3.1,43.5-15.1,54.3-39h80.8
			c-1.3,4.5-2,8.5-3.5,12.3c-14.5,36-39.7,61.8-75.5,76.7c-41.6,17.4-84.1,18.7-126.4,2.5c-31.6-12.1-53.7-35-67.9-65.4
			c-14.3-30.8-18.3-63.5-17-97c0.8-22.6,4.1-44.8,11.7-66.3c19.7-55.5,58.6-87.9,117.3-93.6c45.9-4.4,88,6.6,121.7,40.4
			c16.2,16.3,27.2,35.8,33.7,57.9C4841.5,349.3,4843.6,378.9,4842.3,410.3z M4756.5,354.8c-1.7-21.5-6.3-40.5-22.8-55.2
			c-23.1-20.7-62.2-20-81.9,2.5c-13,14.9-17.2,33-19.4,52.6H4756.5z"/>
		<path d="M3135.2,541.3h-82v-11.5c0-58.5,0-117-0.1-175.5c0-7.3-0.6-14.5-1.7-21.8c-3.4-23.3-16.3-37.9-42-40.5
			c-22.1-2.3-42.4,2.5-58.4,19.2c-11.4,12-15.7,26.7-15.8,42.8c-0.1,58.5-0.2,117-0.1,175.5v11.9c-27.5,0.9-54.3,0.2-80.8,0.5
			c-2.1-8-2.8-299.6-0.9-313.8h81.3v38.5l1.7,0.8c2.8-3,5.7-5.9,8.3-9c20.3-24.8,46.7-36.3,78.4-36.8c14.4-0.2,28.6,0.1,42.6,4.1
			c37.4,10.5,58.8,35.8,66.6,73.1c1.8,8.8,2.7,17.7,2.6,26.6c0.2,68.1,0.1,136.3,0.1,204.4L3135.2,541.3z"/>
		<path d="M1108.4,345h-77.7c-1.5-4.9-2.9-9.6-4.4-14.3c-10.5-33.1-28.2-45.1-62.7-42c-22.4,2-37.7,13.9-45.7,34.7
			c-6.4,16.5-9.3,33.6-11,51.3c-2,20.5-0.2,41.1,5.1,61c4.7,17.7,13.1,33.6,29.2,43.6c18.2,11.4,37.6,12.1,57.1,3.5
			c13.1-5.8,19.7-17.4,24.9-29.8c2.7-6.4,4.7-13.1,7.2-20.1h78.7c-0.6,4.8-0.9,8.9-1.7,13c-6.9,36.9-24.3,67.2-56.3,87.9
			c-21.7,14-45.8,20.7-71.7,21.1c-17.7,0.3-35.2-0.1-52.5-4.7c-46.9-12.4-77.5-42.1-92.8-87.6c-9-26.7-11.7-54.3-10.5-82.4
			c1-22.6,4-44.8,11.5-66.3c18.6-52.5,55.3-83.1,110.6-90.7c24.2-3.4,48.5-3,72.2,3.8c51.5,14.7,80,49.7,89.3,101.5
			c0.8,4.5,1.2,9.2,1.7,13.8C1109.2,342.9,1108.8,343.5,1108.4,345z"/>
		<path d="M5193,288.6v-54.7h39.4c0.1-14.6,0.1-28.5,0.1-42.3s0-27.7,0-42.2h82.8v83.6h43.1c2.4,7.7,2.9,40.7,1,55.5h-43
			c-0.2,3.6-0.6,6.5-0.6,9.4c0,55.9,0,111.7,0,167.6c0,21.8,6.2,27.8,28.2,27.4c5-0.1,10-0.7,14.9-1.1c1.9,6.9,2.3,45.3,0.5,57.9
			c-17.7,5.2-36.2,7.2-54.6,5.8c-9.6-0.7-19.1-2.4-28.4-5.1c-24.2-7-37.5-24.1-41.8-48.4c-1.4-8.2-2-16.4-2-24.7
			c-0.2-58.9-0.1-117.7-0.1-176.6v-12.2H5193z"/>
		<path d="M3867.9,492v57.5c-6,1.4-12.3,3.1-18.7,4.2c-16.7,3-33.8,3.1-50.6,0.4c-38.2-6-57-28.5-58.1-67.6
			c-0.6-20.6-0.1-41.2-0.1-61.8V288.8h-39.5V234h39.4c0.1-14.6,0.1-28.4,0.2-42.3s0-27.8,0-42.2h82.5v83.9h44.9v54.9h-44
			c-0.3,3.9-0.7,6.4-0.8,9c0,55.9,0,111.7,0,167.6c0.1,3,0.4,5.9,0.9,8.8c2.7,14.6,7.8,19,22.8,19.1
			C3853.7,493,3860.6,492.4,3867.9,492z"/>
		<path d="M5062.9,227.9h79.3c2,7.1,2.7,299.1,0.7,313.4h-79.3C5061.5,534.2,5060.8,243.8,5062.9,227.9z"/>
		<path d="M5062.6,117.6h79.6c2.1,7.4,2.7,50.4,1.1,70.4c-6.9,2.2-61.5,2.9-80.7,1L5062.6,117.6z"/>
	</g>
	<g>
		<path d="M713.5,353.1c-1.8,20.5-2.4,41.1-5.7,61.3c-6.2,37.8-19.3,73.5-37.7,107.1c-11.3,20.6-25,39.6-40,57.7
			c-25,30.2-54.7,54.7-88,74.9c-24.2,14.5-50,26.1-76.9,34.6c-49.6,16-100.3,18.7-151.8,13.8c-33-3.2-64.5-11.9-95-24.5
			c-35-14.4-67.5-34.2-96.3-58.8c-23.5-20-44.3-42.7-61.1-68.7c-10.9-16.9-21.5-34.2-30.1-52.4c-10-21.2-17-43.7-22.6-66.6
			c-8.4-34.2-9.3-69-7.7-103.8C2.5,288.1,12,250,28,213.6c14.1-32.1,32.7-62,55.4-88.8C110,93.4,141.9,67,177.7,46.7
			C201.6,33,227,22.1,253.3,14.2C285.8,4.4,319.6-0.4,353.5,0c20.3,0.2,40.6,0.3,60.6,3.8c32.8,5.8,64.5,15.1,94.8,29.4
			C538,46.8,565.2,64.3,589.7,85c30.3,25.7,56,56.4,75.9,90.8c15.8,27,28,55.5,35.9,85.6C709.4,291.4,714.1,321.9,713.5,353.1z
			 M361.2,642.8c14.2,1.5,32.9-2.4,51.4-5.7c37.2-6.8,71.7-21.1,103.4-41.7c23.1-14.8,43.7-33.2,61.1-54.4
			c9.8-12,18.8-24.6,27.4-37.5c14.5-21.6,24.2-45.5,31.3-70.5c5.7-20.1,9-40.5,10.8-61.3c1.5-17.5,1-35.1-1.6-52.5
			c-3.1-21.1-7.6-42.1-15.3-62.4c-6.3-16.7-13.9-32.9-22.9-48.3c-9.7-16.4-21.2-31.5-33.9-46c-12.2-13.8-25.8-26.3-40.6-37.3
			c-17.7-13.3-36.9-24.6-57-33.7c-22.6-10.1-46.5-17.4-70.9-21.5c-22.3-3.8-44.8-4.5-67.5-3.2c-26.4,1.5-51.9,7.4-76.6,15.7
			c-21.3,7.2-41.3,17.5-60.4,29.7C139,151.1,95,211.5,76.6,281.3c-6.5,24.4-10.2,49.2-10.2,74.3c0.1,24.1,4,47.9,10.1,71.4
			c5.1,19.9,12.4,39.1,21.7,57.4c17.5,34.5,41.4,64.1,71,89.3c24.7,21,52.8,37.7,83,49.5C285.7,636.1,320.5,642.7,361.2,642.8z"/>
		<path d="M216.8,562.7v-84c4.2,1.2,7.8,1.7,11,3.1c24,11,48.9,17.6,75.3,20.7c27.8,3.2,53.4-1,77.7-14.1
			c12.2-6.5,21.7-16.4,29.1-27.9c11.8-18.4,18.3-38.7,20.2-62.2c-7.9,4-14.5,7.3-21.2,10.6c-18.1,9.2-38.2,14-58.5,14
			c-14.9,0-30-0.1-44.8-2.1c-26.8-3.6-50.6-14.3-71.6-31.9c-19.6-16.4-33.7-36.4-40.4-60.6c-5.7-20.3-9.6-41.1-6.3-62.7
			c2.1-14,3.3-28.1,8.1-41.7c10.4-29.2,27.9-52.9,53.6-70.6c24.4-16.8,51.3-26,80.6-28.5c24.9-2.1,49.9-2.5,74.5,2.3
			c30.6,6,57.4,19.6,79.7,41.8s36.7,48.9,45.7,78.9c8.7,28.5,12.9,58.2,12.4,88c-0.3,19.2-0.3,38.6-2.3,57.6
			c-1.6,15-5.9,29.7-9.6,44.4c-6.4,25.7-18.5,48.7-34.7,69.6c-16.9,21.7-37.4,39-62.2,51.3c-28.9,14.4-61,21.6-93.3,20.8
			c-21.6-0.4-43.3-0.7-64.6-3.6C255.8,573.5,236.6,567.4,216.8,562.7z M417.5,272.3c0.5-14.9-1.9-29.8-7.2-43.8
			c-4.2-11-11.7-19-21.6-24.9c-13-7.7-27.3-8-41.6-5.9c-18.4,2.7-31.7,12.4-39,29.8c-6.5,15.5-8,31.9-8.4,48.5
			c-0.1,4.2,1.7,8.4,1.8,12.6c0.1,9.8,2.8,19,6.5,27.9c5.7,13.4,15,22.7,29.2,27.7c8.8,3.1,17.6,3.1,26.5,3
			c21.8-0.1,41.1-14.2,47.9-34.9C415.9,299.5,417.9,285.9,417.5,272.3L417.5,272.3z"/>
	</g>
</g>
</svg>
