<?xml version="1.0" encoding="utf-8"?>
<!-- Generator: Adobe Illustrator 25.2.1, SVG Export Plug-In . SVG Version: 6.00 Build 0)  -->
<svg version="1.1"
	 id="alpine-linux" inkscape:version="0.48.5 r10040" xmlns:cc="http://creativecommons.org/ns#" xmlns:dc="http://purl.org/dc/elements/1.1/" xmlns:inkscape="http://www.inkscape.org/namespaces/inkscape" xmlns:rdf="http://www.w3.org/1999/02/22-rdf-syntax-ns#" xmlns:sodipodi="http://sodipodi.sourceforge.net/DTD/sodipodi-0.dtd" xmlns:svg="http://www.w3.org/2000/svg"
	 xmlns="http://www.w3.org/2000/svg" xmlns:xlink="http://www.w3.org/1999/xlink" x="0px" y="0px" viewBox="0 0 665.2 161.8"
	 style="enable-background:new 0 0 665.2 161.8;" xml:space="preserve">
<style type="text/css">
	.st0{fill:#0D597F;}
</style>
<g id="Group" transform="matrix(1.25,0,0,-1.25,-267.55675,592.22537)" inkscape:groupmode="layer" inkscape:label="Alpine_Linux_logo_v4">
	<g>
		<g id="g24" transform="translate(441.9298,442.9648)">
			<path id="path26" inkscape:connector-curvature="0" class="st0" d="M0,0c-10.5,5.8-27.9,5.8-38-0.1C-52.4-8.5-57.9-24.9-52.6-44
				c2.7-9.8,10-17,21-20.9c7.8-2.7,15-2.8,15.3-2.8l0,12c-0.2,0-20.8,0.3-24.8,14.8c-5.2,18.8,3.5,27,9.1,30.3
				c6.4,3.7,19.4,3.7,26.2,0c7.2-4,7.7-12.3,7.7-25.5v-24.4c0-8.6,12-9.2,12-9.2v9.2V-36C13.9-23.4,13.9-7.7,0,0"/>
		</g>
		<g id="g48" transform="translate(473.349,473.7803)">
			<path id="path50" inkscape:connector-curvature="0" class="st0" d="M0,0v-32.4v-9.2c0,0-11.9,0.7-11.9,9.3V0H0z"/>
		</g>
		<g id="g52" transform="translate(474.9603,402.1447)">
			<path id="path54" inkscape:connector-curvature="0" class="st0" d="M0,0c-1,3.8-1.5,7.1-1.6,10.1l0,10.3c0,8.6-11.9,9.2-11.9,9.2
				v-9.2V10.2c0-4.2,0.7-8.7,2-13.3c2.7-9.8,10-17,21-20.9c7.8-2.7,15-2.7,15.3-2.7l0,11.9C24.5-14.8,4-14.5,0,0"/>
		</g>
		<g id="g40" transform="translate(519.3928,442.6805)">
			<path id="path42" inkscape:connector-curvature="0" class="st0" d="M0,0c10.5,5.8,27.9,5.8,38-0.1C52.4-8.5,57.9-24.9,52.6-44
				c-2.7-9.8-10-17-21-20.9c-7.8-2.7-15-2.4-15.3-2.4l0,11.9c0.2,0,20.8,0.1,24.8,14.6c5.2,18.8-3.5,27-9.1,30.3
				c-6.4,3.7-19.4,3.7-26.2,0c-7.2-4-7.7-12.3-7.7-25.5v-12.6c0-8.6-12-9.2-12-9.2v9.2V-36C-13.9-23.4-13.9-7.7,0,0"/>
		</g>
		<g id="g44" transform="translate(517.3693,344.6278)">
			<path id="path46" inkscape:connector-curvature="0" class="st0" d="M0,0v30.5v9.2c0,0-11.9-0.7-11.9-9.3V0H0z"/>
		</g>
		<g id="g32" transform="translate(579.8309,375.3661)">
			<path id="path34" inkscape:connector-curvature="0" class="st0" d="M0,0v47.6v9.2c0,0,11.9-0.7,11.9-9.3V0H0z"/>
		</g>
		<g id="g36" transform="translate(591.7351,443.8518)">
			<path id="path38" inkscape:connector-curvature="0" class="st0" d="M0,0v-2v-9.2c0,0-11.9,0.7-11.9,9.3V0H0z"/>
		</g>
		<g id="g28" transform="translate(597.6101,375.3665)">
			<path id="path30" inkscape:connector-curvature="0" class="st0" d="M0,0v37.4c0,13,5.8,23.8,16.5,30.1c10.1,5.9,27.5,5.9,38,0.1
				c13.9-7.7,13.9-23.4,13.9-36V7.3v-9.2c0,0-12,0.6-12,9.2v24.3c0,13.2-0.5,21.5-7.7,25.5c-6.8,3.8-19.7,3.8-26.2,0
				c-4.4-2.6-10.7-8.2-10.7-19.7V0L0,0z"/>
		</g>
		<g id="g20" transform="translate(686.7844,397.9583)">
			<path id="path22" inkscape:connector-curvature="0" class="st0" d="M0,0c-3.7,6.4-3.7,19.4,0,26.2c1.6,3,6.6,9.6,28.4,9.6
				c4.5,0,7.7-0.2,10.1-0.6c5.3-0.7,9.3-2.5,9.3-7.4c0-6.5-9.6-6.5-9.6-6.5H18c-8.6,0-9.3-11.9-9.3-11.9h9.2h20.4
				c10.4,0,21.1,4.6,21.1,18.3c0,9-5.2,15.1-13.7,17.5c-8.5,2.3-11.8,2.2-23.4,2c-9.3-0.2-14.6-2.2-18-3.3
				C-1.6,41.9-6.9,38.4-10.5,32C-16.3,21.4-16.2,4-10.4-6c6.3-10.8,17.1-16.5,30.1-16.5h39.7l0,11.9H19.7C8.2-10.7,2.6-4.4,0,0"/>
		</g>
	</g>
	<g>
		<g id="g64" transform="translate(528.4338,353.235)">
			<path id="path66" inkscape:connector-curvature="0" class="st0" d="M0,0v22.2h-2V0c0-4.3,3.3-8.9,12.8-8.9H26v2H10.8
				C0.8-6.9,0-1.6,0,0"/>
		</g>
		<path id="path68" inkscape:connector-curvature="0" class="st0" d="M561.1,344.4h2v22.8h-2V344.4z"/>
		<path id="path70" inkscape:connector-curvature="0" class="st0" d="M561.1,368.4h2v3h-2V368.4z"/>
		<g id="g72" transform="translate(664.6232,367.1373)">
			<path id="path74" inkscape:connector-curvature="0" class="st0" d="M0,0h-2.6l-8.5-9.9L-19.6,0h-2.6l9.8-11.4l-9.7-11.4h2.6
				l8.4,9.8l8.4-9.8H0l-9.8,11.4L0,0z"/>
		</g>
		<g id="g76" transform="translate(634.3527,353.11)">
			<path id="path78" inkscape:connector-curvature="0" class="st0" d="M0,0c0-0.7-0.4-6.8-13.1-6.8C-25.6-6.8-26-0.7-26,0v14h-2V0
				c0-0.9,0.4-8.8,14.9-8.8C1.6-8.8,2-0.9,2,0v14H0V0z"/>
		</g>
		<g id="g80" transform="translate(584.7756,367.1373)">
			<path id="path82" inkscape:connector-curvature="0" class="st0" d="M0,0c-14.6,0-15.1-7.9-15.1-8.8v-14h2v14
				C-13.1-8.1-12.7-2,0-2c12.6,0,12.9-6.1,12.9-6.8v-14h2v14C14.9-7.9,14.5,0,0,0"/>
		</g>
	</g>
	<path class="st0" d="M325.7,473.6c0,0-74.5,0-74.5,0L214,409.1l37.2-64.5h74.5l37.2,64.5L325.7,473.6z M268.1,393.3
		c-0.7,0-1.4,0.1-2.2,0.2c-0.8,0.1-1.7,0.4-2.6,0.7c-0.9,0.3-2,0.8-3,1.3c-1.1,0.6-2.2,1.3-3.4,2.1l11.3,11.3V393.3z M314,395.5
		c-1.1-0.6-2.1-1-3.1-1.3c-1-0.3-1.8-0.6-2.6-0.7c-0.8-0.1-1.6-0.2-2.2-0.2c-0.8,0-1.5,0.1-2.1,0.2c-0.6,0.1-1.1,0.3-1.5,0.4
		c-0.4,0.2-0.7,0.3-0.9,0.5c-0.2,0.1-0.3,0.2-0.3,0.2l-6.6,6.8l-18.9,18.9l-6.8-6.5l-19.1-19.1c0,0-0.1-0.1-0.3-0.2
		c-0.2-0.1-0.5-0.3-0.9-0.5c-0.4-0.2-0.9-0.3-1.5-0.4c-0.6-0.1-1.3-0.2-2.1-0.2c-0.7,0-1.4,0.1-2.2,0.2c-0.8,0.1-1.7,0.4-2.6,0.7
		c-1,0.3-2,0.8-3.1,1.3c-1.1,0.6-2.3,1.3-3.5,2.1l42.2,41.7l16.7-17.2l0,0l0.1-0.1l0,0l0,0l9.8-9.8l0,0l15-14.7
		C316.2,396.7,315.1,396,314,395.5z M335.6,394.1c-1-0.3-1.8-0.6-2.6-0.7c-0.8-0.1-1.6-0.2-2.2-0.2c-0.8,0-1.5,0.1-2.1,0.2
		c-0.6,0.1-1.1,0.3-1.5,0.4c-0.4,0.2-0.7,0.3-0.9,0.5c-0.2,0.1-0.3,0.2-0.3,0.2l-7.6,7.6l-13.1,13.1l-2.1-2.1l-9.7,9.6l11.8,11.8
		l28.4-28.5l8.6-8.4c-1.2-0.9-2.4-1.6-3.5-2.1C337.5,394.9,336.5,394.5,335.6,394.1z"/>
</g>
</svg>
