<?xml version="1.0" encoding="utf-8"?>
<!-- Generator: Adobe Illustrator 25.2.1, SVG Export Plug-In . SVG Version: 6.00 Build 0)  -->
<svg version="1.1" id="Layer_1" xmlns="http://www.w3.org/2000/svg" xmlns:xlink="http://www.w3.org/1999/xlink" x="0px" y="0px"
	 viewBox="0 0 241.1 234.6" style="enable-background:new 0 0 241.1 234.6;" xml:space="preserve">
<style type="text/css">
	.st0{fill-rule:evenodd;clip-rule:evenodd;fill:#EFF4F8;}
	.st1{fill-rule:evenodd;clip-rule:evenodd;fill:#FFFFFF;}
	.st2{opacity:0.8;fill-rule:evenodd;clip-rule:evenodd;fill:#00B7FF;enable-background:new    ;}
</style>
<g id="deepin">
	<path class="st0" d="M154.4,4.7C90.5-13.4,23.6,22.2,4.9,84.4c-18.7,62.2,18,127.3,81.8,145.5c63.9,18.2,130.8-17.5,149.5-79.6
		C254.9,88,218.3,22.9,154.4,4.7z"/>
	<path class="st1" d="M153.6,7.3C91.2-10.5,25.8,24.4,7.5,85.1c-18.3,60.7,17.5,124.4,80,142.2c62.4,17.8,127.8-17.1,146.1-77.8
		C251.8,88.7,216,25.1,153.6,7.3L153.6,7.3z"/>
	<g>
		<path class="st2" d="M156.1,21.9c-15-5.3-30.3-6.7-45.2-5.4C93.7,17.8,85.3,23,85.8,22c-28.2,9.8-52,30.9-63.1,60.4
			c-19.7,52.6,8.2,110.8,62.2,130c54,19.2,113.7-8,133.4-60.6C238,99.2,210.2,41,156.1,21.9z"/>
		<path class="st1" d="M88.5,202.9c-5.8-2-11.1-4.7-16.2-7.6c25.2,1.9,58-3.8,80.1-23.9c0,0,42.2-32.8,11.7-86.7
			c0,0,4.9,21.7-1.4,39.6c0,0-6,24.3-32.6,31.3C91,166,46.3,139.3,27.7,126.4c-1.4-13.3-0.2-27,4.8-40.4
			c7.4-19.9,21.4-35.3,38.4-45.7c-4.3,29-0.9,55.7,3.9,66.9c6.5,15,17.8,32.5,39.8,34.7c22,2.2,34.2-17.8,34.2-17.8
			c11.3-16.7,13.1-40.7,12.9-41.3c-0.2-0.6-3-2.2-3-2.2c-7.6,30-20.2,40-20.2,40c-19.8,18.6-33.8,5.7-33.8,5.7
			c-15.1-15.7-4.5-41.3-4.5-41.3c5.9-17.4,23.1-42.9,42.6-55.9c3.2,0.8,6.5,1.3,9.7,2.4c11.8,4.2,22.1,10.5,30.8,18.2
			c-14.2,5.1-37.2,15.8-37.2,15.8c-36.4,14.9-38.9,37.5-38.9,37.5c-3.8,23.3,15.2,13.4,15.2,13.4c19.5-9.3,29.1-38.1,29.1-38.1
			c-6.1-1.1-10.9,0.7-10.9,0.7c-7.8,18.7-23.7,26.4-23.7,26.4c-6.3,3.2-7.7-2.5-7.7-2.5c-1.1-4.3,4.5-5,4.5-5
			c8.7-3.3,14.2-12.1,15.5-15.8c1.2-3.6,3.6-3.9,3.6-3.9c11.9-3.7,22.7-4.5,22.7-4.5c14.8-1.8,37.3,5.1,37.3,5.1
			c5.1,2,9.9,3.5,14.2,4.7c8.3,20.1,9.6,43,1.4,65C190.9,195.7,137.1,220.2,88.5,202.9L88.5,202.9z"/>
	</g>
</g>
</svg>
