<?xml version="1.0" encoding="utf-8"?>
<!-- Generator: Adobe Illustrator 25.2.1, SVG Export Plug-In . SVG Version: 6.00 Build 0)  -->
<svg version="1.1" id="fedora" xmlns:svg="http://www.w3.org/2000/svg"
	 xmlns="http://www.w3.org/2000/svg" xmlns:xlink="http://www.w3.org/1999/xlink" x="0px" y="0px" viewBox="0 0 267 267"
	 style="enable-background:new 0 0 267 267;" xml:space="preserve">
<style type="text/css">
	.st0{fill:#294172;}
	.st1{fill:#3C6EB4;}
	.st2{fill:#FFFFFF;}
</style>
<g>
	<g id="logo">
		<path id="voice" class="st0" d="M266.6,133.5C266.6,60,207,0.4,133.5,0.4S0.4,59.9,0.4,133.4v103c0,16.7,13.6,30.2,30.3,30.2
			h102.9C207.1,266.6,266.6,207,266.6,133.5"/>
		<path class="st1" d="M172.6,31.9c-34.4,0-62.4,28-62.4,62.4v33.1h-33c-34.4,0-62.4,28-62.4,62.4s28,62.5,62.4,62.5
			s62.4-28,62.4-62.5v-33.1h33c34.4,0,62.5-28,62.5-62.5S207,31.9,172.6,31.9z M110.4,189.9c0,18.3-14.9,33.2-33.2,33.2
			S44,208.2,44,189.9s14.9-33.2,33.2-33.2h33v0.1h0.2C110.4,156.8,110.4,189.9,110.4,189.9z M172.6,127.6h-33v-0.1h-0.2V94.3
			c0-18.3,14.9-33.2,33.2-33.2s33.2,14.9,33.2,33.2S190.9,127.6,172.6,127.6z"/>
		<path id="F" class="st2" d="M186.4,33.8c-4.8-1.3-8.6-1.9-13.8-1.9c-34.5,0-62.5,28-62.5,62.5v33.1H83.9
			c-8.2,0-14.8,6.4-14.7,14.6c0,8.1,6.5,14.5,14.6,14.5h21.7c2.6,0,4.7,2.1,4.7,4.6v28.7c0,18.2-14.8,32.9-33,32.9
			c-6.2,0-7.7-0.8-11.9-0.8c-8.8,0-14.8,5.9-14.8,14.1c0,6.7,5.8,12.5,12.8,14.4c4.8,1.3,8.6,1.9,13.8,1.9c34.5,0,62.5-28,62.5-62.5
			v-33.1h26.2c8.2,0,14.8-6.4,14.7-14.6c0-8.1-6.5-14.5-14.6-14.5h-21.7c-2.6,0-4.7-2.1-4.7-4.6V94.4c0-18.2,14.8-32.9,33-32.9
			c6.2,0,7.7,0.8,11.9,0.8c8.8,0,14.8-5.9,14.8-14.1C199.2,41.4,193.5,35.6,186.4,33.8z"/>
	</g>
	<path id="TM" class="st1" d="M243.7,243.6v-5.5l-2.5,5.8l-2.5-5.8v5.5h-1.4v-8.7h1.5l2.4,5.6l2.4-5.6h1.5v8.7H243.7z M233.3,236.3
		v7.3h-1.5v-7.3h-2.5v-1.5h6.4v1.5"/>
</g>
</svg>
