<?xml version="1.0" encoding="utf-8"?>
<!-- Generator: Adobe Illustrator 25.2.1, SVG Export Plug-In . SVG Version: 6.00 Build 0)  -->
<svg version="1.1"
	 id="freedo_1_" inkscape:version="0.48.2 r9819" xmlns:cc="http://creativecommons.org/ns#" xmlns:dc="http://purl.org/dc/elements/1.1/" xmlns:inkscape="http://www.inkscape.org/namespaces/inkscape" xmlns:rdf="http://www.w3.org/1999/02/22-rdf-syntax-ns#" xmlns:sodipodi="http://sodipodi.sourceforge.net/DTD/sodipodi-0.dtd"
	 xmlns="http://www.w3.org/2000/svg" xmlns:xlink="http://www.w3.org/1999/xlink" x="0px" y="0px" viewBox="0 0 626.4 612"
	 style="enable-background:new 0 0 626.4 612;" xml:space="preserve">
<style type="text/css">
	.st0{fill:#FFFFFF;}
	.st1{fill:#A7D4FF;}
	.st2{fill:#B17020;}
	.st3{fill:#F8B44D;}
</style>
<g id="group">
	<path d="M451.5,611.7c-9.7-3.6-18.7-8.4-26.1-15.7c-6.4-6.3-12.9-12.7-18.6-19.7c-5.1-6.4-8.9-13.8-13.6-20.7
		c-0.7-1.2-2.8-2.2-4.2-2.1c-8.5,0.8-17,2.4-25.5,3.1c-12.1,0.9-24.2,1.8-36.3,1.6c-11.4-0.2-22.8-2-34.2-3.1
		c-3.4-0.3-5.7,0.5-8.3,3.5c-9.3,10.4-19.6,20-31.1,28.2c-12.2,8.7-24.7,16.6-39.1,20.9c-2.1,0.6-4.2,1.2-6.2,1.5
		c-7.5,0.9-10.7-2.2-11.6-11.6c-0.3-3.5-0.7-7.1-0.5-10.6c0.2-3.3,1.1-6.6,1.6-9.2c-9.4,0.2-19.1,0.6-28.7,0.5
		c-6.8,0-9.8-3.6-9.7-11.7c0.2-7.2,1.2-14.6,1.8-22.5c-1.9-0.6-5.2-1.2-8.2-2.4c-7.6-3.2-15.2-6.4-22.6-9.9
		c-4.5-2.2-5.3-8.8-1.4-11.7c8.8-6.3,17.7-12.7,26.9-18.2c8-4.7,16.6-8.3,25.1-12.6c-7.4-11.1-10.7-23.8-13.2-36.6
		c-2.8-14-5-28.1-6.7-42.1c-1.3-11-1.7-22.2-2.4-32.9c-4.4,0-9.2,0.2-14-0.1c-5.2-0.3-6.5-4.7-7.7-8.7c-5-16.8-9.9-33.6-14.8-50.5
		c-1.2-4.2-2.4-8.5-3.7-12.8c-12.8,1.8-25.2,2-36.6-4.6c-11.4-6.5-18.9-21.8-16.2-35.3c2.8-14,10.4-24.7,21.7-33
		c2.4-1.8,5.4-2.8,8.4-4.4c-3.1-10.4-6.2-21-9.3-31.8c-8.1,3.2-15.8,6.3-23.6,9.5c-2,0.8-4,1.7-6,2.5c-10.1,4.1-18.5,0.4-25.7-6.2
		c-11.6-10.7-17.7-24.8-22.6-39.5c-4.9-14.9-8.2-30.1-8.6-45.9c-0.2-9.4-0.2-18.7,2.7-27.7C5.4,80.8,9.9,73.7,19,71.3
		c6.9-1.7,14.2-2.4,21.2-3.6c2.2-0.3,4.7-0.2,6.8-1.1c1.8-0.7,3.5-2.2,4.9-3.7c4.9-4.8,9.2-10.5,14.8-14.4c3.7-2.7,9.1-3.4,13.7-4.1
		c9.3-1.2,18.7-2.1,28.2-2.4c3.1-0.2,6.4,1.2,9.2,2.6c11,5.4,18.8,14.3,25.4,24.4c11.3,17.2,18.8,35.9,21.6,56.3
		c1,7.2,1.9,14.5,1.6,21.7c-0.8,16.4-4.8,31.7-17.8,43.2c-2,1.7-3.1,3.3-2.1,6.2c2,5.6,3.6,11.2,5.5,17.5
		c10.7-3.8,21.3-7.3,31.7-11.3c5.7-2.2,11.2-5.4,16.9-7.7c8.4-3.3,11.7-10.5,14.2-18.2c4.9-15.4,10.2-30.7,14.4-46.3
		c3.2-11.4,4.5-23.4,7.4-34.9c4.7-18.4,11.2-36.2,22.7-51.6c8.7-11.7,20.1-20.5,32.2-28.2C304.9,7.5,319.4,2,334.9,0.5
		c18-1.7,35.6,0.4,52.6,7.7c18.7,8,34.4,20,47.9,34.9C445.6,54.4,454.2,67,460.9,81c5.8-11,15.5-14.8,27.2-14.7
		c6.3,0,11.8,2.9,16.5,7c8.9,7.7,14.7,17.7,19.3,28.5c1.5,3.5,2.7,7,4.2,10.5c0.3,0.7,1.3,1.2,2.2,1.7c11.8,7.1,22.2,15.9,30.9,26.7
		c9.2,11.2,18.9,21.9,27.5,33.6c9.3,12.7,17.8,26.2,26.3,39.5c4.2,6.7,7.6,13.9,11.4,20.8c0,2.5,0,5,0,7.5
		c-0.8,3.3-0.9,6.8-1.5,10.2c-2.7,15-10.7,26.9-21,37.6c-2.9,3-5.2,6.4-8.3,9.2c-2.3,2.2-1.8,4.7-1,7.3c2.7,8.9,4.9,17.9,6.3,27.2
		c1.2,7.9,1.5,15.7-0.5,23.6c-2.2,8.9-2.1,17.8-0.2,26.7c1.5,7.5-2.7,12-10.4,10.6c-6.7-1.2-13.3-2.5-19.9-4.5
		c-1.3-0.4-2.6-1.1-4.1-0.7c-1.4,1.9-1.3,4.2-1.6,6.3c-1.7,15.4-6.1,29.9-14.5,43c-0.9,1.4-1.7,2.8-2.9,4c-4.1,4.2-10,3.6-13.1-1.4
		c-1.6-2.6-2.9-5.3-3.9-7.9c-2,11.6-5.2,23.1-10.2,33.9c-5.2,10.8-12.2,20.4-20.2,29.8c5.5,3,11,5.3,16.2,8.1
		c8.9,4.7,17.2,10.1,24.9,16.6c3.7,3.2,6.6,7.1,8.7,11.5c2.7,5.7,1.5,9.8-4.3,12.7c-7,3.3-14.4,5.7-22.2,7.1
		c-1.9,0.3-3.8,0.3-5.5,1.4c-0.8,1.2-0.3,2.2,0,3.2c2.3,8.4,1.6,16.7-1,25c-1.7,5.5-3.9,7.2-9.7,7c-9.9-0.3-19.7-1.7-29-5
		c-1.2-0.4-2.2-1.2-3.6-1c-1.2,0.6-1.2,1.8-1.5,2.8c-1.9,7.5-5.6,14.2-9.1,21c-1.2,2.2-2.6,3.9-5.1,4.5
		C455.9,611.7,453.7,611.7,451.5,611.7z"/>
	<path class="st0" d="M335.5,546.1c-29.7-1.3-58.7-4.9-86.8-15.1c-13.1-4.7-21.5-12.2-25.3-26.5c-6.4-23.7-12.5-47.5-15.2-72
		c-2.1-18.7-3-37.3-1.5-56.1c2.2-27.5,7.6-54.1,21.5-78.4c16.8-29.3,41.8-46.4,75.5-50.6c27.7-3.4,53.8,0.3,77,16.9
		c19.7,14,32.5,33.4,41.5,55.4c7.3,18,11.6,36.7,13.6,56.1c4.3,42.4-1.1,83.3-18.5,122.3c-5.3,12.1-12.7,22.9-20.5,33.5
		c-5,6.7-11.7,8.8-19.2,9.7C363.5,543.3,349.6,544.6,335.5,546.1z"/>
	<path class="st1" d="M588.2,285.4c-6.8-10.1-13.6-19.8-20.2-29.7c-20.8-31.1-40.8-62.9-57.1-96.7c-5.1-10.6-5.8-22.4-4.4-34.1
		c0.4-3.2,2.2-4.9,5.8-4c9.1,2.2,17.2,6.7,23.8,12.9c30.6,28.9,55,62.6,75,99.7c1.7,3.1,2.1,5.9,1.3,9.4
		C608.5,261.6,602,273.4,588.2,285.4z"/>
	<path class="st2" d="M131.7,302.9c3.3-1.8,6.7-3.1,9.6-5.2c10.7-7.9,9.4-22.1,4.4-30.8c-5.5-9.7-14.2-13.7-24.8-14
		c-3.3-0.1-4.5-1.2-5.3-4.2c-5.2-17.9-10.6-35.8-16-53.7c-0.9-2.9-0.2-4.5,2.7-5.2c0.8-0.2,1.5-0.7,2.3-0.8
		c8.2-1.8,12.1-6.7,13.6-15.3c4.3-25,3.5-49.4-6.5-73c-4.7-11.2-11.3-21.2-20.8-29.2c-5.8-4.9-12.3-8.4-20.5-8.7
		c3.7-3.6,7.8-2.6,11.7-1.9c10.7,1.9,18.5,8.5,24.6,17.2c11.2,15.8,16.7,33.9,19.2,53c1.3,10.3,1.7,20.7-0.7,31c-1,4.2,1,7,4.7,8
		c3.3,0.8,7.1-1.1,7.7-5.1c1.2-7.9,2.6-15.9,2.3-23.8c-0.6-16-3.9-31.6-9.7-46.5c-5.3-13.7-12.7-26.2-23.9-36
		c-0.5-0.4-1.2-0.7-2.3-1.2c4.3-2.1,7.2-1.2,10.2,0.5c9.1,5.2,15.2,13.2,20.5,22c12.1,20.3,19.6,42.2,18.9,66.2
		c-0.4,15.7-4.8,29.7-19,39c-3.5,2.3-3.1,5.8-2,9.3c6.1,20.4,12.2,40.9,18.2,61.3c4.9,16.6,9.7,33.2,15,49.7
		c1.8,5.7-0.2,10.7-0.8,15.9c-1.5,13.1-3.3,26.1-4.7,39.1c-0.3,3-1.1,4.2-4.2,4.1c-7.7-0.2-6,1.1-8.1-5.8
		c-5.3-17.7-10.4-35.3-15.6-53C131.9,304.6,131.8,303.7,131.7,302.9z"/>
	<path class="st3" d="M405.4,549.8c15.7-4,30.3-9.2,44.2-16.4c12.1-6.2,23.5-13.6,33.5-22.8c2.8-2.7,5.3-3.1,8.7-1.2
		c11.7,6.7,23.6,13.2,35.3,19.9c2.2,1.2,3.9,3.4,6.3,5.6c-9.4,3.5-18.5,5.5-28,4.6c-3.7-0.3-7.1-0.6-9.2,3c-1.9,3.4-0.3,6.2,1.8,9.1
		c4.6,5.9,6.8,12.5,5.8,20.2c-0.3,2.8-1.4,3.4-4,3.1c-9.8-1.1-19.2-3.9-27.9-8.6c-7.9-4.2-11.9-1.7-12.2,7.3
		c-0.3,8.7-3.6,16.3-7.9,24.3C430.7,587.3,416.9,570,405.4,549.8z"/>
	<path class="st3" d="M209.9,595.7c-1.5-6.7-0.2-12.1,1.7-17.5c0.7-2.2,2.2-4.2,2.5-6.6c0.4-2.6,0.9-6-0.3-7.7
		c-1.2-1.7-4.9-2.3-7.3-2.1c-7.8,0.8-15.5,2.5-23.3,3.5c-3.2,0.4-6.6,0.1-10.2,0.1c-1.3-7.3,0.3-14,3.7-20.3
		c0.7-1.3,1.6-2.6,2.3-3.9c2.7-5.1-0.2-10.2-6-10c-9.8,0.2-18.1-1.8-27.3-6.9c0.9-0.7,1.6-1.5,2.4-2.1c11.7-8.2,24.3-14.7,37.6-20
		c2.7-1.1,4-0.3,5.8,1.7c7.3,7.9,14.5,16,22.3,23.4c13.2,12.5,30.6,16,47.2,21.1c3.7,1.2,7.7,2,12.4,3.2
		C255,570.5,235.2,586.3,209.9,595.7z"/>
	<path class="st1" d="M99.6,241.6c1.5,4.6,2.7,8.7,4.2,12.7c0.8,2.2,0.2,3.2-1.7,4.3c-1.7,1.2-3.8,2.7-4.3,4.6
		c-0.5,1.8,0.1,4.9,1.3,6c1.7,1.3,4.7,1.8,6.8,1.4c3.1-0.6,5.9-2.3,8.8-3.5c9.9-4,19.4,1,21.7,11.4c0.9,4.3-0.7,8.7-4.5,10.1
		c-11.8,4.2-24.1,6.8-36.6,3.9c-13.2-3-20-14.4-16.2-27.5c2.8-9.7,8.4-17.7,17.7-22.5C97.7,242.1,98.5,242,99.6,241.6z"/>
	<path class="st1" d="M202.1,210.7c-3.2,7.2-6.3,13.8-9.2,20.7c-3.4,8.2-7.2,16.2-9.7,24.7c-1.9,6.4-5.6,9.2-11.7,10.3
		c-3.2,0.7-4.7,0.2-5.6-3.2c-3.1-11.2-6.6-22.2-9.7-33.3c-0.3-1.1,0.6-3.4,1.4-3.7c14.2-5.3,28.5-10.5,42.7-15.7
		C200.6,210.3,200.9,210.4,202.1,210.7z"/>
	<g>
		<path class="st0" d="M60.6,166.2c-1.6,8.5-2.8,17.1-4.7,25.5c-1.1,4.7-6.1,6.9-10.1,4.3c-4.3-2.7-8.6-6.2-11.5-10.3
			c-9.8-13.6-14.7-29.3-18.2-45.4c-2.7-12.7-4.7-25.7-2.6-38.6c0.6-3.7,1.6-7.2,2.7-10.7c2.4-7.7,13.2-9.9,18.9-3.7
			c6.8,7.6,11.3,16.3,14.7,25.7c6.2,17.2,9.7,34.8,9.7,53.1C59.8,166,60.1,166.1,60.6,166.2z"/>
		<path class="st0" d="M59.1,133.4c-1.2-4.6-2.2-8.6-3.3-13c5.8-1.2,11.5-2.2,17.2-3.3c8.7-1.6,17.4-2.9,26.1-4.7
			c2.7-0.6,3.7,0.2,4.3,2.7c0.7,2.9,1.6,5.8,2.5,9.3C90.3,127.4,75,130.3,59.1,133.4z"/>
		<path class="st0" d="M101.3,108.6c-15.7,2.8-31.1,5.7-46.5,8.5c-1.5-4.1-2.9-7.8-4.5-12.1c8.7-1.6,17.2-3.2,25.5-4.7
			c5.7-1,11.4-2.1,17.1-2.9c1.2-0.2,3,0.5,3.5,1.4C98.2,101.8,99.5,105.1,101.3,108.6z"/>
		<path class="st0" d="M106.4,127.6c0.5,4.1,0.8,7.5,1.2,11.3c-15.3,3.4-30.3,6.7-45.9,10.2c-0.7-4.3-1.3-8.3-2-12.6
			C75.5,133.5,90.7,130.6,106.4,127.6z"/>
		<path class="st0" d="M107.6,142.3c0,3.5,0.2,6.2-0.1,8.9c-0.1,0.7-1.2,1.8-2.1,2.1c-14.2,3.7-28.3,7.2-42.7,10.9
			c-0.2-4-0.3-7.7-0.5-11.8C77.2,149.1,92.1,145.8,107.6,142.3z"/>
		<path class="st0" d="M43.1,91.3c13.7-2.3,26.7-4.7,39.7-6.7c1.7-0.2,4,0.7,5.3,1.9c2.1,1.9,3.6,4.5,5.7,7.3
			c-15.3,2.7-30,5.3-44.9,8C47.1,98.6,45.2,95.2,43.1,91.3z"/>
		<path class="st0" d="M62.8,178.4c-0.2-0.3-0.2-0.4-0.2-0.6c-0.2-10-0.2-10,9.6-12.5c11.6-2.9,23.2-5.9,34.7-8.9
			c1.2,6.6-0.1,8.7-6,10.5c-11.6,3.6-23.2,7.1-34.7,10.7C65.1,177.9,63.9,178,62.8,178.4z"/>
		<path class="st0" d="M59.2,192.9c0.7-3.4,1.2-6.1,2.1-8.7c0.3-1,1.3-2.2,2.2-2.4c13.9-4.4,27.8-8.7,41.9-13
			c0.4,4.6-1.5,6.7-5.7,8.3c-12.8,4.7-25.4,10-38.1,15C61.1,192.3,60.5,192.5,59.2,192.9z"/>
		<path class="st0" d="M34.6,82.2c12.1-2.1,23.7-3.9,35.3-6c5-0.9,8.3,1.7,12.5,5c-5,0.9-9.2,1.7-13.5,2.4c-7.6,1.3-15.2,2.6-22.8,4
			c-3.2,0.6-6.2,1.1-8.2-2.3C37.2,84.2,35.9,83.4,34.6,82.2z"/>
	</g>
	<path class="st1" d="M209.6,506.7c-5.2-6.9-10.4-13.8-15.4-20.8c-8.6-11.9-11.4-25.8-14.5-39.7c-5.3-24-8.2-48.2-7.7-72.8
		c1-43.7,11.2-85.4,27.8-125.8c8.9-21.7,18.5-43.1,26.8-65.1c6.1-16,11.1-32.3,15.7-48.8c3.8-14.1,5.7-28.6,9.6-42.6
		c3.7-13.7,8.7-27.2,17.9-38.5c15.9-19.6,35.9-33.1,61-38c29.2-5.7,54.6,3.7,77.4,21.2c19.9,15.3,34.1,35.3,44.6,58
		c0.7,1.7,0.9,4,0.3,5.7c-4.4,14.4-7,29.4-5.4,44.2c2.7,24.9,6.7,49.7,16.7,73.1c0.7,1.7,0.8,4.1,0.2,5.7
		c-5.6,16.8-4.1,32.6,6.1,47.4c13.2,19.3,17.3,41,15.7,64c-0.4,6.3-1.4,12.7-1.6,19c-0.3,16.5,6.4,30.2,17.2,42.3
		c4.8,5.3,9.5,10.8,14.4,16.1c3.3,3.6,1.1,7.6,0.7,11.1c-1.7,13.2-4.6,26.1-10.4,38.1c-6.3,13-15.2,24.1-25.2,34.2
		c-19.7,19.7-43.6,32.1-71,40.4c4-6.2,7.7-11.7,10.9-17.3c12.3-21.6,19.9-44.8,24.2-69.1c3.4-18.7,4.9-37.6,4-56.6
		c-1.7-38.1-9.8-74.5-31.5-106.6c-17.1-25.3-40-43-70.3-49c-35.6-7.1-69.5-2.4-99.4,19.4c-20.2,14.7-33.1,35.1-41.7,58.1
		c-6.5,17.4-10.6,35.4-11.7,54c-0.8,12.8-1.9,25.7-1.4,38.6c1.2,33.2,6.8,65.8,16.9,97.5c0.2,0.5,0.2,1,0.3,1.6
		C210.4,506.2,210,506.4,209.6,506.7z M265,198.8c0.8,8.2,6.1,11.9,13.2,13.8c11.2,3.1,22.4,2.2,33.6-0.4
		c20.3-4.8,38.3-14.2,53.6-28.3c12.3-11.3,21.6-24.7,20.2-42.6c-1.1-13.7-7.1-24.5-19.5-31.1c-17.8-9.6-36.6-9.7-56-6
		c-13.3,2.6-23.8,9.1-32,19.7c-11.4,14.7-15.7,31.6-15.9,54.1C262.9,182.2,264.3,190.5,265,198.8z M300.6,86.7
		c1.4,6.2,4.9,9.1,10.7,8.7c5.6-0.4,10.4-5.2,11.2-10.5c1.1-6.7,2.8-13.4,4.1-20.2c0.4-2.1,0.7-4.4,0.2-6.4
		c-1.1-4.7-4.6-7.3-9.2-7.8c-4.7-0.5-8.7,1.3-11.2,5.5c-4.4,7.2-6.4,15.2-6.7,23.7C299.9,82.1,300.1,84.4,300.6,86.7z M348.1,86.3
		c0.4,6,4.2,9.8,9.7,9.8c5.9,0,11.4-5.1,12.2-10.3c0.9-6.3,2.2-12.7,3.9-18.9c1.9-6.7,0.3-12.3-5.2-14.8c-5.5-2.5-12.1-0.2-15.2,5.5
		c-4,7-5.7,14.6-5.9,23.1C347.7,82.2,348,84.3,348.1,86.3z"/>
	<path class="st0" d="M512.8,107.6c-13.2,0.8-19.5,7.5-19.6,20.8c-0.1,14.4,1.8,28.4,8.7,41.6c19.8,38.4,43.4,74.4,67.2,110.4
		c5,7.5,7.7,16.7,10.3,25.5c3.3,11.5,5.5,23.3,7.9,35.1c0.6,2.7,0.2,5.7-0.2,8.7c-1.1,9.4-2.2,18.8-3.5,28.8
		c-2.8-0.7-6.4-1.4-9.8-2.4c-23.2-6.7-35.6-27.6-37.4-47.4c-0.3-3.6-0.1-7.2,0-10.7c0.1-4.5-2.1-7.4-5.7-7.7
		c-4.2-0.3-6.3,1.4-6.9,6.3c-2.5,21.4,4.2,39.7,18.3,55.6c0.7,0.7,1.2,1.5,2.1,2.1c5.7,3.9,7.3,9,6.5,16
		c-1.2,10.4-5.1,26.6-8.9,32.7c-11.1-13.1-22.6-26.2-33.5-39.9c-8.7-10.7-12.3-23.2-10.4-37.2c4.2-29.8,0.3-58.1-17.2-83.6
		c-7.8-11.4-8.4-23.7-3.7-36.3c1.7-4.7,1.5-8.8-0.6-13.4c-7.7-17.4-11.4-35.9-14.2-54.6c-1.5-10-2.6-19.9-1.7-30.1
		c1.3-14.8,4.6-28.9,12.8-41.5c4.4-6.7,13.8-9,20.3-4.4c3,2.1,5.8,4.7,7.9,7.8C505.6,95.2,508.9,101.1,512.8,107.6z M522.6,246.1
		c-8.7-12.7-17-25.5-18.7-41.3c-0.5-4.7-3.8-7.3-7.3-6.7c-4.1,0.8-5.4,4-4.7,9c1.9,14.7,8.7,27.4,16.6,39.6c1.7,2.7,3.5,5.3,5.4,7.8
		c1.9,2.5,4.8,3.2,7.4,2c1.8-0.8,3-3.1,4.6-4.9C524.5,249.2,523.6,247.6,522.6,246.1z M528.7,284.1c-1-4.6-1.7-9.2-3.1-13.6
		c-1.2-3.8-4.4-5.3-7.7-4.3c-3.1,1-4.6,4.1-3.9,7.7c0.8,4.6,1.7,9.2,2.3,13.8c0.4,3.2,3.1,5.9,6,5.7c3.2-0.3,5.4-2.1,5.8-5.4
		c0.2-1.2,0-2.5,0-3.7C528.4,284.2,528.5,284.2,528.7,284.1z"/>
	<path class="st3" d="M331.3,112.6c8.2,2,16.7,3.7,24.7,6.2c16.1,5.1,22.1,24.6,14.7,38.6c-6.8,13-17.3,22.2-29.5,29.6
		c-13.7,8.4-28.6,14-44.6,15.5c-4.2,0.4-8.6-0.3-12.8-0.8c-4.5-0.5-6.6-3.1-7.3-7.7c-2.7-15.9-3.1-31.6,2.6-47.1
		c3.2-8.4,8-15.7,14.6-22c7.7-7.3,17.7-8.7,27.5-10.3c3.2-0.5,6.6-0.7,9.9-1C331.1,113.2,331.2,112.9,331.3,112.6z"/>
</g>
</svg>
