<?xml version="1.0" encoding="utf-8"?>
<!-- Generator: Adobe Illustrator 25.2.1, SVG Export Plug-In . SVG Version: 6.00 Build 0)  -->
<svg version="1.1" id="Layer_1" xmlns="http://www.w3.org/2000/svg" xmlns:xlink="http://www.w3.org/1999/xlink" x="0px" y="0px"
	 viewBox="0 0 448 512" style="enable-background:new 0 0 448 512;" xml:space="preserve">
<g id="freebsd">
	<path d="M303.7,96.2c11.1-11.1,115.5-77,139.2-53.2c23.7,23.7-42.1,128.1-53.2,139.2c-11.1,11.1-39.4,0.9-63.1-22.9
		C302.8,135.6,292.5,107.3,303.7,96.2z"/>
	<path d="M109.9,68.1C73.6,47.5,22,24.6,5.6,41.1c-16.6,16.6,7.1,69.4,27.9,105.7C52,114.6,78.3,87.5,109.9,68.1z"/>
	<path d="M406.7,174c3.3,11.3,2.7,20.7-2.7,26.1c-20.3,20.3-87.5-27-109.3-70.1c-18-32.3-11.1-53.4,14.9-48.7
		c5.7-3.6,12.3-7.6,19.6-11.6c-29.8-15.5-63.6-24.3-99.5-24.3C110.6,45.4,14.1,141.9,14.1,261c0,119,96.5,215.6,215.6,215.6
		S445.3,380.1,445.3,261c0-38.4-10.1-74.5-27.7-105.8C413.7,162.2,410,168.5,406.7,174L406.7,174z"/>
</g>
</svg>
