<?xml version="1.0" encoding="utf-8"?>
<!-- Generator: Adobe Illustrator 25.2.1, SVG Export Plug-In . SVG Version: 6.00 Build 0)  -->
<svg version="1.1"
	 id="freedos" xmlns:cc="http://creativecommons.org/ns#" xmlns:dc="http://purl.org/dc/elements/1.1/" xmlns:rdf="http://www.w3.org/1999/02/22-rdf-syntax-ns#" xmlns:svg="http://www.w3.org/2000/svg"
	 xmlns="http://www.w3.org/2000/svg" xmlns:xlink="http://www.w3.org/1999/xlink" x="0px" y="0px" viewBox="0 0 565 96"
	 style="enable-background:new 0 0 565 96;" xml:space="preserve">
<style type="text/css">
	.st0{fill:#FFFFFF;}
	.st1{fill:#BFCFE7;}
</style>
<g>
	<g>
		<g id="layer1" transform="translate(0,-24)">
			<path id="path20" d="M513.1,46c-18.6,3.8-26.9,15-18.8,25.4c4.2,5.2,14.6,8.6,32.9,11c21.1,2.7,27.9,7.6,21.1,15.1
				c-7.6,8.3-33.2,8-54.3-0.8c-2.5-1-3-0.3-3,4.5v5.8l11.5,2.2c19.3,3.7,42.9,1.7,51.9-4.3C573.2,92.1,564.4,78,535,74.3
				c-20.3-2.7-27.1-4.5-29.1-8.3c-7-13,25.6-17.8,52-7.5c2.3,1,2.8,0.3,2.8-3.8c0-5.8-0.7-6.1-17.5-8.6
				C529.8,44.2,522.9,44.2,513.1,46L513.1,46z"/>
			<path id="path22" d="M4,78.5v32.4h6.6h6.6V95.1V79.3h19.8c15.5,0,19.9-0.5,20.6-2.3c1.5-4-0.3-4.3-20.8-4.3H17.3v-9.1v-9.1h23.1
				c17.1,0,23.3-0.5,23.9-2.2c2-5.7-0.5-6.1-30.6-6.1L4,46V78.5z"/>
			<path id="path24" d="M291.5,78.5v32.9l22.9-1c38.9-1.7,56.8-11.6,56.8-31.7c0-21.1-17-31.1-55.2-32.2l-24.6-0.8L291.5,78.5
				L291.5,78.5z M338.5,56.2c11.8,3.2,18.6,11.3,18.6,21.9c0,16.1-10.3,22.9-36.9,24.1l-17.1,0.8V78.6V54.4h14.6
				C325.8,54.4,335.1,55.2,338.5,56.2L338.5,56.2z"/>
			<path id="path26" d="M78.5,63c-0.3,0.7-0.3,11.8,0,24.6l0.5,23.3h5.8h5.7V93.4V76l6-2.5c3.3-1.3,10.8-2.5,16.5-2.5
				c10.1,0,10.5-0.2,10.1-4.2c-0.2-5-13.3-5.8-25.1-1.7c-3.7,1.3-6.8,2.5-7,2.5c-0.3,0-0.5-1.3-0.5-3C90.4,61.8,79.3,60.2,78.5,63z"
				/>
			<path id="path28" d="M148.3,63c-25.4,6.8-26.1,37.2-0.8,45.5c9.3,3.2,39.2,2.5,43.4-0.8c2.8-2.3,2.2-9.5-0.8-8.6
				c-1.3,0.3-6.1,1.8-10.8,3.2c-16.1,4.7-35.1-1-37.7-11.3c-0.8-3.2-0.2-3.3,25.6-3.3h26.4v-6.3C193.5,65.3,172.2,56.7,148.3,63z
				 M178.7,72.5c6.3,7.6,4.8,8.5-16.8,8.5c-15.6,0-19.9-0.5-19.9-2.2C141.9,68.7,171.5,63.7,178.7,72.5z"/>
			<path id="path30" d="M225.9,62.8c-25.4,7.3-25.4,37.4-0.2,45.7c8.1,2.8,34.4,2.7,41.4-0.2c4.7-2,3.8-9.8-0.8-8.5
				c-24.6,7-43.4,3.5-46.7-9c-0.8-3.2-0.2-3.3,25.6-3.3h26.4v-6.3C271.6,65.5,248.5,56.2,225.9,62.8L225.9,62.8z M253.1,70.1
				c4.3,2.2,6.8,5.5,6.8,9.3c0,0.8-9,1.5-19.9,1.5c-15.6,0-19.9-0.5-19.9-2.2C220.1,70.1,242.2,64.3,253.1,70.1z"/>
		</g>
		<g id="use1-3" transform="translate(-4,-5)">
			<g id="layer1_1_" transform="translate(0,-24)">
				<path id="path20_1_" class="st0" d="M509.1,41c-18.6,3.8-26.9,15-18.8,25.4c4.2,5.2,14.6,8.6,32.9,11
					c21.1,2.7,27.9,7.6,21.1,15.1c-7.6,8.3-33.2,8-54.3-0.8c-2.5-1-3-0.3-3,4.5v5.8l11.5,2.2c19.3,3.7,42.9,1.7,51.9-4.3
					C569.2,87.1,560.4,73,531,69.3c-20.3-2.7-27.1-4.5-29.1-8.3c-7-13,25.6-17.8,52-7.5c2.3,1,2.8,0.3,2.8-3.8
					c0-5.8-0.7-6.1-17.5-8.6C525.8,39.2,518.9,39.2,509.1,41L509.1,41z"/>
				<path id="path22_1_" class="st0" d="M0,73.5v32.4h6.6h6.6V90.1V74.3h19.8c15.5,0,19.9-0.5,20.6-2.3c1.5-4-0.3-4.3-20.8-4.3H13.3
					v-9.1v-9.1h23.1c17.1,0,23.3-0.5,23.9-2.2c2-5.7-0.5-6.1-30.6-6.1L0,41V73.5z"/>
				<path id="path24_1_" class="st0" d="M287.5,73.5v32.9l22.9-1c38.9-1.7,56.8-11.6,56.8-31.7c0-21.1-17-31.1-55.2-32.2l-24.6-0.8
					L287.5,73.5L287.5,73.5z M334.5,51.2c11.8,3.2,18.6,11.3,18.6,21.9c0,16.1-10.3,22.9-36.9,24.1l-17.1,0.8V73.6V49.4h14.6
					C321.8,49.4,331.1,50.2,334.5,51.2L334.5,51.2z"/>
				<path id="path26_1_" class="st0" d="M74.5,58c-0.3,0.7-0.3,11.8,0,24.6l0.5,23.3h5.8h5.7V88.4V71l6-2.5
					c3.3-1.3,10.8-2.5,16.5-2.5c10.1,0,10.5-0.2,10.1-4.2c-0.2-5-13.3-5.8-25.1-1.7c-3.7,1.3-6.8,2.5-7,2.5c-0.3,0-0.5-1.3-0.5-3
					C86.4,56.8,75.3,55.2,74.5,58z"/>
				<path id="path28_1_" class="st0" d="M144.3,58c-25.4,6.8-26.1,37.2-0.8,45.5c9.3,3.2,39.2,2.5,43.4-0.8c2.8-2.3,2.2-9.5-0.8-8.6
					c-1.3,0.3-6.1,1.8-10.8,3.2c-16.1,4.7-35.1-1-37.7-11.3c-0.8-3.2-0.2-3.3,25.6-3.3h26.4v-6.3C189.5,60.3,168.2,51.7,144.3,58z
					 M174.7,67.5c6.3,7.6,4.8,8.5-16.8,8.5c-15.6,0-19.9-0.5-19.9-2.2C137.9,63.7,167.5,58.7,174.7,67.5z"/>
				<path id="path30_1_" class="st0" d="M221.9,57.8c-25.4,7.3-25.4,37.4-0.2,45.7c8.1,2.8,34.4,2.7,41.4-0.2c4.7-2,3.8-9.8-0.8-8.5
					c-24.6,7-43.4,3.5-46.7-9c-0.8-3.2-0.2-3.3,25.6-3.3h26.4v-6.3C267.6,60.5,244.5,51.2,221.9,57.8L221.9,57.8z M249.1,65.1
					c4.3,2.2,6.8,5.5,6.8,9.3c0,0.8-9,1.5-19.9,1.5c-15.6,0-19.9-0.5-19.9-2.2C216.1,65.1,238.2,59.3,249.1,65.1z"/>
			</g>
		</g>
	</g>
	<g id="g3069" transform="matrix(0.04405078,0,0,0.04405078,375.92767,0.261254)">
		<path id="path8" d="M1017.2,7.2c-319,23-570,185-785,504c-122,182-158,293-226,694c-6,36-8,117-4,203c8,157,1,141,84,195
			c19,12,63,60,98,105c34,46,74,93,87,103l25,19l-31,67c-48,102-45,243,5,243c19,0,92-53,147-106l45-44l100,39
			c356,139,781,108,1111-80l88-51l34,38c19,22,60,71,90,109c103,128,123,139,148,78c41-96,31-178-42-364l-18-47l69-66
			c83-79,73-77,118-18c63,84,193,180,293,218c70,26,71,2,8-101c-116-186-123-241-45-351c54-78,115-137,166-161c41-19,43-32,13-60
			c-51-46-152-58-235-29c-50,18-59,12-72-45c-158-703-620-1128-1196-1097C1075.2,3.2,1042.2,5.2,1017.2,7.2z"/>
		<path id="path4690" class="st1" d="M1402.2,93.2c169,42,296,117,421,249c223,238,350,523,413,926c1,2,16-9,34-24
			c55-46,166-75,235-59c27,5,26,7-63,99c-155,160-164,275-34,458c13,17,16,28,8,28c-49,0-265-234-260-282c6-60-74-18-122,65
			c-14,23-37,53-52,67l-27,25l-28-34c-26-30-30-32-49-19l-20,14l20,34c63,102,128,290,129,365c0,83-24,82-83-4
			c-46-69-176-210-208-226c-68-36-106-12-54,34c51,44,51,44-76,114c-232,127-779,158-980,57c-111-57-287-191-331-252l-21-31l24,6
			c13,3,65,17,116,31c205,56,774,65,883,14c142-66,158-161,18-108c-249,95-762,67-1068-57c-74-30-141-58-149-61c-18-7-9-324,13-452
			c60-351,248-687,469-838c23-16,59-40,80-55C780.2,81.2,1175.2,38.2,1402.2,93.2z M386.2,1931.2c13,17,22,31,20,33
			c-44,30-111,67-116,62c-9-9,14-78,34-103C347.2,1894.2,357.2,1895.2,386.2,1931.2z"/>
		<path id="path10" d="M355.2,1086.2c-119,64-155,279-61,365c156,145,374,40,377-181C673.2,1132.2,478.2,1019.2,355.2,1086.2z"/>
		<path id="path2025" class="st0" d="M532.2,1138.2c111,69,128,154,53,259c-120,167-362,12-287-184
			C330.2,1128.2,451.2,1089.2,532.2,1138.2z"/>
		<path id="path12" d="M412.2,1179.2c-94,39-79,201,19,209c44,4,62-8,82-56C555.2,1231.2,498.2,1144.2,412.2,1179.2z M491.2,1223.2
			c6,9,7,19,3,23c-12,13-82-10-85-28C403.2,1186.2,470.2,1190.2,491.2,1223.2z"/>
		<path id="path14" d="M836.2,1150.2c-152,46-147,280,8,336c67,23,106,18,147-20C1124.2,1339.2,1006.2,1098.2,836.2,1150.2z"/>
		<path id="path2912" class="st0" d="M927.2,1205.2c88,46,101,145,28,222c-61,65-178-10-178-112
			C777.2,1219.2,850.2,1165.2,927.2,1205.2z"/>
		<path id="path16" d="M832.2,1256.2c-43,66-7,167,53,148c59-19,82-48,82-104C967.2,1237.2,866.2,1204.2,832.2,1256.2z
			 M917.2,1265.2c16,19,5,34-20,28c-24-6-34-19-25-33C881.2,1246.2,903.2,1248.2,917.2,1265.2z"/>
	</g>
</g>
</svg>
