<?xml version="1.0" encoding="utf-8"?>
<!-- Generator: Adobe Illustrator 25.2.1, SVG Export Plug-In . SVG Version: 6.00 Build 0)  -->
<svg version="1.1" id="gnu-and-freedo" xmlns="http://www.w3.org/2000/svg" xmlns:xlink="http://www.w3.org/1999/xlink" x="0px"
	 y="0px" viewBox="0 0 1654 768" style="enable-background:new 0 0 1654 768;" xml:space="preserve">
<style type="text/css">
	.st0{fill:#444D5E;}
	.st1{fill:#D7DDE8;}
	.st2{fill:#87BFCF;}
	.st3{fill:#CD866F;}
	.st4{fill:#E9C98A;}
	.st5{fill:#4C566A;}
</style>
<g>
	<g id="freedo">
		<path class="st0" d="M1444,770.1c-11.7-4.3-22.4-10.1-31.3-18.8c-7.7-7.6-15.5-15.2-22.3-23.7c-6.1-7.7-10.7-16.6-16.3-24.8
			c-0.9-1.4-3.4-2.7-5-2.5c-10.2,1-20.4,2.9-30.6,3.7c-14.5,1.1-29.1,2.2-43.6,1.9c-13.7-0.3-27.4-2.4-41.1-3.7
			c-4.1-0.4-6.8,0.6-10,4.2c-11.2,12.5-23.5,24-37.3,33.8c-14.6,10.4-29.6,19.9-47,25.1c-2.5,0.7-5,1.5-7.5,1.8
			c-9,1.1-12.8-2.7-13.9-13.9c-0.4-4.2-0.9-8.5-0.6-12.7c0.2-4,1.3-7.9,1.9-11.1c-11.3,0.2-22.9,0.7-34.5,0.6
			c-8.2,0-11.8-4.3-11.6-14.1c0.2-8.7,1.4-17.5,2.2-27c-2.3-0.7-6.2-1.4-9.8-2.9c-9.1-3.8-18.2-7.7-27.1-11.9
			c-5.4-2.6-6.4-10.6-1.7-14c10.6-7.6,21.2-15.2,32.3-21.8c9.6-5.7,19.9-10,30.1-15.1c-8.9-13.3-12.8-28.6-15.8-44
			c-3.4-16.8-6-33.7-8.1-50.6c-1.6-13.2-2-26.6-2.9-39.5c-5.3,0-11.1,0.3-16.8-0.1c-6.3-0.4-7.8-5.6-9.2-10.5
			c-6-20.2-11.9-40.4-17.8-60.6c-1.5-5.1-2.9-10.2-4.4-15.4c-15.4,2.2-30.2,2.4-44-5.5c-13.7-7.8-22.7-26.2-19.4-42.4
			c3.4-16.8,12.5-29.6,26-39.6c2.9-2.2,6.5-3.4,10.1-5.3c-3.7-12.5-7.4-25.2-11.2-38.2c-9.7,3.9-19,7.6-28.3,11.4
			c-2.4,1-4.8,2-7.2,3c-12.1,4.9-22.2,0.5-30.9-7.4c-13.9-12.9-21.3-29.8-27.1-47.4c-5.9-17.9-9.9-36.1-10.3-55.1
			c-0.3-11.3-0.2-22.5,3.2-33.3c3.2-10,8.6-18.6,19.5-21.4c8.3-2.1,17-2.9,25.5-4.3c2.7-0.4,5.7-0.3,8.2-1.3
			c2.2-0.9,4.2-2.7,5.9-4.4c5.9-5.8,11.1-12.6,17.8-17.3c4.5-3.2,10.9-4.1,16.5-4.9c11.2-1.5,22.5-2.5,33.8-2.9
			c3.7-0.2,7.7,1.4,11.1,3.1c13.2,6.5,22.6,17.2,30.5,29.3c13.6,20.6,22.6,43.1,25.9,67.6c1.2,8.6,2.3,17.4,1.9,26
			c-1,19.7-5.8,38.1-21.4,51.9c-2.4,2.1-3.7,4-2.5,7.5c2.4,6.7,4.3,13.5,6.6,21c12.9-4.6,25.6-8.8,38.1-13.6
			c6.9-2.7,13.4-6.5,20.3-9.3c10.1-4,14-12.6,17-21.9c5.9-18.5,12.2-36.9,17.3-55.6c3.8-13.7,5.4-28.1,8.9-41.9
			c5.6-22.1,13.4-43.5,27.3-61.9c10.5-14,24.1-24.6,38.7-33.8c15.9-10,33.3-16.6,51.9-18.3c21.6-2,42.8,0.5,63.1,9.3
			c22.4,9.6,41.3,24,57.5,41.9c12.3,13.5,22.6,28.6,30.7,45.4c7-13.2,18.6-17.8,32.6-17.7c7.6,0,14.2,3.5,19.8,8.4
			c10.7,9.3,17.6,21.3,23.2,34.2c1.8,4.2,3.3,8.4,5.1,12.6c0.4,0.9,1.6,1.5,2.6,2.1c14.2,8.5,26.6,19.1,37.1,32
			c11,13.5,22.7,26.3,33,40.3c11.2,15.3,21.4,31.4,31.6,47.4c5.1,8,9.1,16.7,13.7,25c0,3,0,6,0,9c-1,4-1.1,8.2-1.8,12.2
			c-3.2,18-12.9,32.3-25.2,45.1c-3.5,3.6-6.3,7.7-10,11.1c-2.8,2.6-2.2,5.7-1.2,8.8c3.3,10.7,5.9,21.5,7.6,32.6
			c1.5,9.5,1.8,18.9-0.6,28.3c-2.6,10.7-2.5,21.4-0.3,32.1c1.8,9-3.3,14.4-12.5,12.7c-8-1.5-16-3-23.9-5.4c-1.6-0.5-3.1-1.3-4.9-0.9
			c-1.7,2.3-1.6,5-1.9,7.6c-2.1,18.5-7.3,35.9-17.4,51.6c-1.1,1.7-2.1,3.4-3.5,4.8c-4.9,5-12,4.3-15.7-1.7c-1.9-3.1-3.5-6.4-4.7-9.5
			c-2.4,13.9-6.2,27.7-12.3,40.7c-6.2,13-14.7,24.5-24.2,35.8c6.6,3.6,13.2,6.4,19.5,9.7c10.7,5.6,20.7,12.1,29.9,19.9
			c4.5,3.8,7.9,8.5,10.5,13.8c3.3,6.9,1.8,11.8-5.2,15.2c-8.4,4-17.3,6.8-26.6,8.5c-2.3,0.4-4.6,0.4-6.6,1.7c-1,1.4-0.4,2.7,0,3.9
			c2.8,10.1,1.9,20.1-1.2,30c-2.1,6.6-4.7,8.7-11.7,8.4c-11.9-0.4-23.6-2-34.8-6c-1.4-0.5-2.7-1.4-4.3-1.2c-1.5,0.7-1.5,2.2-1.8,3.4
			c-2.3,9-6.7,17-10.9,25.2c-1.4,2.6-3.1,4.7-6.1,5.4C1449.3,770.1,1446.7,770.1,1444,770.1z"/>
		<path class="st1" d="M1304.7,691.3c-35.7-1.6-70.5-5.9-104.2-18.1c-15.7-5.7-25.8-14.7-30.4-31.8c-7.7-28.5-15-57-18.3-86.4
			c-2.5-22.4-3.6-44.8-1.8-67.3c2.6-33,9.1-65,25.8-94.1c20.2-35.2,50.2-55.7,90.7-60.7c33.3-4.1,64.6,0.4,92.5,20.3
			c23.6,16.8,39,40.1,49.8,66.5c8.8,21.6,13.9,44.1,16.3,67.3c5.2,50.9-1.3,100-22.2,146.9c-6.4,14.5-15.2,27.5-24.6,40.2
			c-6,8-14.1,10.6-23.1,11.7C1338.4,688,1321.6,689.6,1304.7,691.3z"/>
		<path class="st2" d="M1608.1,378.3c-8.2-12.1-16.3-23.8-24.2-35.7c-25-37.4-49-75.5-68.6-116.1c-6.1-12.7-7-26.9-5.3-40.9
			c0.5-3.8,2.7-5.9,7-4.8c10.9,2.6,20.6,8,28.6,15.5c36.8,34.7,66,75.2,90,119.7c2,3.7,2.5,7.1,1.6,11.3
			C1632.5,349.8,1624.7,363.9,1608.1,378.3z"/>
		<path class="st3" d="M1060,399.4c4-2.2,8.1-3.7,11.5-6.2c12.8-9.5,11.3-26.5,5.3-37c-6.6-11.6-17-16.5-29.8-16.8
			c-4-0.1-5.4-1.5-6.4-5c-6.3-21.5-12.7-43-19.2-64.5c-1.1-3.5-0.2-5.4,3.2-6.3c1-0.3,1.8-0.8,2.8-1c9.9-2.2,14.5-8,16.3-18.4
			c5.2-30,4.2-59.3-7.8-87.6c-5.7-13.5-13.6-25.5-25-35.1c-7-5.9-14.8-10.1-24.6-10.5c4.5-4.3,9.4-3.1,14-2.3
			c12.9,2.3,22.2,10.2,29.5,20.6c13.5,19,20.1,40.7,23,63.6c1.6,12.4,2,24.8-0.9,37.2c-1.2,5,1.2,8.4,5.6,9.6c4,1,8.5-1.3,9.2-6.1
			c1.4-9.5,3.1-19.1,2.8-28.6c-0.7-19.2-4.7-37.9-11.7-55.8c-6.4-16.5-15.2-31.5-28.7-43.2c-0.6-0.5-1.5-0.8-2.8-1.4
			c5.2-2.5,8.7-1.5,12.3,0.6c10.9,6.3,18.3,15.9,24.6,26.4c14.5,24.4,23.5,50.7,22.7,79.5c-0.5,18.9-5.8,35.7-22.8,46.8
			c-4.2,2.8-3.7,7-2.4,11.2c7.3,24.5,14.6,49.1,21.9,73.6c5.9,19.9,11.6,39.9,18,59.7c2.2,6.8-0.2,12.8-1,19.1
			c-1.8,15.7-4,31.3-5.6,47c-0.4,3.6-1.3,5-5,4.9c-9.3-0.2-7.2,1.3-9.7-7c-6.4-21.2-12.5-42.4-18.7-63.6
			C1060.3,401.4,1060.2,400.3,1060,399.4z"/>
		<path class="st4" d="M1388.7,695.8c18.8-4.8,36.4-11.1,53.1-19.7c14.5-7.5,28.2-16.3,40.2-27.4c3.4-3.2,6.4-3.7,10.4-1.4
			c14.1,8,28.3,15.8,42.4,23.9c2.7,1.5,4.7,4.1,7.6,6.7c-11.3,4.2-22.2,6.6-33.6,5.5c-4.4-0.4-8.5-0.7-11,3.6
			c-2.3,4.1-0.4,7.5,2.2,10.9c5.5,7.1,8.2,15,7,24.2c-0.4,3.4-1.7,4.1-4.8,3.7c-11.8-1.3-23-4.7-33.5-10.3c-9.5-5.1-14.3-2-14.7,8.8
			c-0.4,10.4-4.3,19.6-9.5,29.2C1419,740.8,1402.5,720.1,1388.7,695.8z"/>
		<path class="st4" d="M1153.9,750.9c-1.8-8-0.2-14.5,2-21c0.9-2.7,2.6-5.1,3-7.9c0.5-3.1,1.1-7.2-0.4-9.2s-5.9-2.8-8.8-2.5
			c-9.4,1-18.6,3-28,4.2c-3.9,0.5-7.9,0.1-12.2,0.1c-1.6-8.8,0.4-16.8,4.5-24.4c0.9-1.6,1.9-3.1,2.8-4.7c3.3-6.1-0.3-12.2-7.2-12
			c-11.8,0.3-21.7-2.2-32.8-8.3c1.1-0.9,1.9-1.8,2.9-2.5c14.1-9.8,29.2-17.6,45.2-24c3.3-1.3,4.8-0.4,7,2
			c8.8,9.5,17.4,19.2,26.8,28.1c15.8,15,36.7,19.2,56.7,25.3c4.5,1.4,9.2,2.4,14.9,3.8C1208.1,720.7,1184.3,739.6,1153.9,750.9z"/>
		<path class="st2" d="M1021.5,325.8c1.8,5.5,3.3,10.4,5.1,15.2c1,2.6,0.2,3.8-2,5.2c-2.1,1.4-4.6,3.3-5.2,5.5
			c-0.6,2.2,0.1,5.9,1.6,7.2c2,1.6,5.6,2.2,8.2,1.7c3.7-0.7,7.1-2.8,10.6-4.2c11.9-4.8,23.3,1.2,26,13.7c1.1,5.2-0.8,10.5-5.4,12.1
			c-14.2,5-28.9,8.2-44,4.7c-15.9-3.6-24-17.3-19.5-33c3.4-11.7,10.1-21.3,21.3-27C1019.2,326.4,1020.1,326.2,1021.5,325.8z"/>
		<path class="st2" d="M1144.5,288.6c-3.8,8.6-7.6,16.6-11,24.8c-4.1,9.8-8.7,19.4-11.7,29.6c-2.3,7.7-6.7,11-14,12.4
			c-3.8,0.8-5.6,0.3-6.7-3.8c-3.7-13.4-7.9-26.7-11.7-40c-0.4-1.3,0.7-4.1,1.7-4.5c17-6.4,34.2-12.6,51.3-18.8
			C1142.7,288.1,1143.1,288.3,1144.5,288.6z"/>
		<g>
			<path class="st1" d="M974.6,235.2c-1.9,10.2-3.4,20.5-5.7,30.6c-1.3,5.6-7.3,8.3-12.1,5.2c-5.2-3.3-10.3-7.5-13.8-12.4
				c-11.8-16.3-17.6-35.2-21.8-54.5c-3.3-15.3-5.6-30.8-3.1-46.4c0.7-4.4,1.9-8.7,3.3-12.9c2.9-9.2,15.9-11.9,22.7-4.4
				c8.2,9.1,13.6,19.6,17.6,30.9c7.4,20.6,11.6,41.8,11.6,63.8C973.7,235,974.1,235.1,974.6,235.2z"/>
			<path class="st1" d="M972.9,195.8c-1.4-5.5-2.6-10.3-4-15.6c7-1.4,13.8-2.7,20.6-4c10.4-1.9,20.9-3.5,31.3-5.7
				c3.3-0.7,4.5,0.2,5.2,3.2c0.8,3.5,1.9,7,3,11.2C1010.3,188.6,991.9,192.1,972.9,195.8z"/>
			<path class="st1" d="M1023.5,166.1c-18.9,3.4-37.3,6.8-55.8,10.2c-1.8-4.9-3.5-9.4-5.4-14.5c10.5-1.9,20.6-3.8,30.6-5.6
				c6.8-1.2,13.7-2.5,20.5-3.5c1.4-0.2,3.6,0.6,4.2,1.7C1019.8,157.9,1021.4,161.8,1023.5,166.1z"/>
			<path class="st1" d="M1029.7,188.9c0.6,4.9,1,9,1.5,13.6c-18.4,4.1-36.4,8.1-55.1,12.3c-0.8-5.2-1.6-10-2.4-15.1
				C992.5,196,1010.8,192.5,1029.7,188.9z"/>
			<path class="st1" d="M1031.1,206.5c0,4.2,0.2,7.5-0.1,10.7c-0.1,0.9-1.5,2.2-2.5,2.5c-17,4.4-34,8.7-51.3,13.1
				c-0.2-4.8-0.4-9.2-0.6-14.2C994.6,214.7,1012.5,210.7,1031.1,206.5z"/>
			<path class="st1" d="M953.6,145.3c16.4-2.8,32-5.6,47.7-8c2-0.3,4.8,0.9,6.4,2.3c2.5,2.3,4.3,5.4,6.9,8.8
				c-18.4,3.3-36,6.4-53.9,9.6C958.4,154,956.2,150,953.6,145.3z"/>
			<path class="st1" d="M977.3,249.8c-0.2-0.4-0.3-0.5-0.3-0.7c-0.3-12-0.3-12,11.5-15c13.9-3.5,27.8-7.1,41.7-10.7
				c1.4,7.9-0.1,10.4-7.2,12.6c-13.9,4.3-27.8,8.5-41.7,12.8C980,249.2,978.6,249.4,977.3,249.8z"/>
			<path class="st1" d="M973,267.3c0.9-4.1,1.5-7.3,2.5-10.4c0.4-1.2,1.6-2.6,2.7-2.9c16.7-5.3,33.4-10.4,50.3-15.6
				c0.5,5.5-1.8,8.1-6.8,10c-15.4,5.7-30.5,12-45.8,18C975.2,266.6,974.5,266.8,973,267.3z"/>
			<path class="st1" d="M943.4,134.3c14.5-2.5,28.5-4.7,42.4-7.2c6-1.1,10,2,15,6c-6,1.1-11.1,2-16.2,2.9
				c-9.1,1.6-18.2,3.1-27.4,4.8c-3.8,0.7-7.4,1.3-9.9-2.8C946.5,136.7,945,135.8,943.4,134.3z"/>
		</g>
		<path class="st2" d="M1153.6,644.1c-6.2-8.3-12.5-16.6-18.5-25c-10.3-14.3-13.7-31-17.4-47.7c-6.4-28.8-9.9-57.9-9.3-87.4
			c1.2-52.5,13.5-102.6,33.4-151c10.7-26.1,22.2-51.8,32.2-78.2c7.3-19.2,13.3-38.8,18.8-58.6c4.6-16.9,6.9-34.4,11.5-51.2
			c4.5-16.5,10.5-32.7,21.5-46.2c19.1-23.5,43.1-39.8,73.3-45.6c35.1-6.8,65.5,4.4,92.9,25.5c23.9,18.4,40.9,42.4,53.5,69.7
			c0.9,2,1.1,4.8,0.4,6.9c-5.3,17.3-8.4,35.3-6.5,53.1c3.2,29.9,8,59.7,20,87.8c0.9,2,1,4.9,0.3,6.9c-6.7,20.2-4.9,39.1,7.3,56.9
			c15.9,23.2,20.8,49.2,18.9,76.8c-0.5,7.6-1.7,15.2-1.9,22.8c-0.4,19.8,7.7,36.3,20.6,50.8c5.8,6.4,11.4,13,17.3,19.3
			c4,4.3,1.3,9.1,0.8,13.3c-2.1,15.8-5.5,31.3-12.5,45.8c-7.6,15.6-18.2,28.9-30.3,41.1c-23.7,23.7-52.3,38.6-85.2,48.5
			c4.8-7.5,9.2-14,13.1-20.8c14.8-25.9,23.9-53.8,29.1-83c4.1-22.5,5.9-45.2,4.8-67.9c-2.1-45.7-11.8-89.4-37.8-128
			c-20.5-30.4-48-51.6-84.4-58.8c-42.7-8.5-83.4-2.9-119.4,23.3c-24.3,17.7-39.7,42.1-50.1,69.8c-7.8,20.9-12.7,42.5-14.1,64.8
			c-1,15.4-2.3,30.9-1.7,46.3c1.4,39.9,8.2,79,20.3,117.1c0.2,0.6,0.3,1.2,0.4,1.9C1154.5,643.4,1154,643.7,1153.6,644.1z
			 M1220.1,274.4c1,9.9,7.3,14.3,15.8,16.6c13.5,3.7,26.9,2.7,40.3-0.5c24.4-5.8,46-17.1,64.4-34c14.8-13.6,25.9-29.7,24.3-51.2
			c-1.3-16.4-8.5-29.4-23.4-37.4c-21.4-11.5-44-11.7-67.2-7.2c-16,3.1-28.6,10.9-38.4,23.6c-13.7,17.7-18.8,38-19.1,64.9
			C1217.5,254.4,1219.2,264.4,1220.1,274.4z M1262.8,139.7c1.7,7.5,5.9,10.9,12.8,10.4c6.7-0.5,12.5-6.2,13.5-12.6
			c1.3-8.1,3.4-16.1,4.9-24.2c0.5-2.5,0.9-5.3,0.3-7.7c-1.3-5.6-5.5-8.8-11-9.4c-5.6-0.6-10.5,1.6-13.5,6.6
			c-5.3,8.7-7.7,18.2-8.1,28.4C1262,134.2,1262.2,137,1262.8,139.7z M1319.9,139.3c0.5,7.2,5.1,11.8,11.6,11.8
			c7.1,0,13.7-6.1,14.6-12.4c1.1-7.6,2.6-15.3,4.7-22.7c2.3-8.1,0.4-14.8-6.2-17.8s-14.5-0.2-18.3,6.6c-4.8,8.4-6.8,17.5-7.1,27.7
			C1319.4,134.4,1319.7,136.9,1319.9,139.3z"/>
		<path class="st1" d="M1517.6,164.9c-15.8,1-23.4,9-23.5,25c-0.1,17.3,2.2,34.1,10.5,50c23.8,46.1,52.1,89.3,80.7,132.5
			c6,9,9.3,20,12.4,30.6c4,13.8,6.6,28,9.5,42.1c0.7,3.3,0.2,6.9-0.2,10.4c-1.3,11.3-2.7,22.6-4.2,34.6c-3.4-0.8-7.7-1.7-11.8-2.9
			c-27.8-8-42.7-33.1-44.9-56.9c-0.4-4.3-0.1-8.6,0-12.9c0.1-5.4-2.5-8.9-6.9-9.2c-5-0.4-7.6,1.7-8.3,7.6c-3,25.7,5,47.7,22,66.8
			c0.8,0.9,1.5,1.8,2.5,2.5c6.8,4.7,8.8,10.8,7.8,19.2c-1.4,12.5-6.1,31.9-10.7,39.3c-13.3-15.7-27.1-31.5-40.2-47.9
			c-10.4-12.9-14.8-27.8-12.5-44.7c5-35.8,0.4-69.8-20.6-100.4c-9.4-13.7-10.1-28.5-4.4-43.6c2.1-5.7,1.8-10.6-0.7-16.1
			c-9.3-20.9-13.7-43.1-17.1-65.6c-1.8-12-3.1-23.9-2-36.2c1.6-17.8,5.5-34.7,15.4-49.8c5.3-8,16.6-10.8,24.4-5.3
			c3.6,2.5,7,5.7,9.5,9.4C1509,149.9,1512.9,157.1,1517.6,164.9z M1529.4,331.1c-10.4-15.2-20.4-30.6-22.5-49.6
			c-0.6-5.6-4.6-8.8-8.8-8c-4.9,1-6.5,4.8-5.7,10.8c2.3,17.7,10.5,32.9,19.9,47.6c2,3.2,4.2,6.4,6.5,9.4s5.8,3.9,8.9,2.4
			c2.2-1,3.6-3.7,5.5-5.9C1531.6,334.9,1530.6,332.9,1529.4,331.1z M1536.7,376.8c-1.2-5.5-2.1-11-3.7-16.3
			c-1.4-4.6-5.3-6.4-9.3-5.2c-3.7,1.2-5.5,4.9-4.7,9.3c1,5.5,2,11,2.8,16.6c0.5,3.8,3.7,7.1,7.2,6.8c3.8-0.4,6.5-2.5,7-6.5
			c0.2-1.5,0-3,0-4.5C1536.3,376.9,1536.5,376.9,1536.7,376.8z"/>
		<path class="st4" d="M1299.7,170.8c9.9,2.4,20,4.4,29.7,7.4c19.3,6.1,26.5,29.5,17.7,46.3c-8.2,15.6-20.8,26.6-35.4,35.6
			c-16.5,10.1-34.3,16.8-53.6,18.6c-5.1,0.5-10.3-0.4-15.4-1c-5.4-0.6-7.9-3.7-8.8-9.3c-3.2-19.1-3.7-38,3.1-56.5
			c3.8-10.1,9.6-18.9,17.5-26.4c9.3-8.8,21.2-10.5,33-12.4c3.9-0.6,7.9-0.8,11.9-1.2C1299.5,171.6,1299.6,171.2,1299.7,170.8z"/>
	</g>
	<path id="gnu" class="st5" d="M230,0c6,1.1,12,2.2,17.9,3.5c16.6,3.7,31,12,44.8,21.7C305,33.7,318.9,38,333.6,40
		c2.3,0.3,4.6,0.6,6.7,1.2c5.6,1.6,6.2,8,1.4,13.6c-5.4,6.2-12.8,8.6-20.5,10.6c-14.8,3.9-29.8,5.1-45,4.6
		c-12.5-0.4-25.1-1.9-37.6-1.8c-29.8,0.2-56.6,9.9-80.3,27.9c-19.8,15-34.9,33.8-45.7,56.3c-8.1,17.1-11.8,35-9.6,53.5
		c2.7,22.3,17.7,40.9,41,44.8c15.6,2.6,30.5-1.7,44.3-9.7c18.7-10.8,32.1-26.8,44.5-43.9c12.5-17.4,25.9-34.2,42-48.4
		c20.2-17.8,43.2-31,70.1-35.5c16.6-2.8,33.4-2,49.8,2.8c18.6,5.4,34.9,14.8,49.6,27.2c3.1,2.6,5.1,2.3,7.8,0
		c10.8-9,23-15.3,36.3-19.5c25.5-8.1,50.1-5.7,74.3,5.5c22.6,10.4,40.8,26.4,57.2,44.5c16.8,18.5,32.5,38.1,49.7,56.2
		c10.8,11.3,24.5,19.1,40.2,21.8c9.6,1.7,18-2.6,24.8-9.2c11.8-11.3,17.9-25.7,20.9-41.2c2.4-12.5,4.2-25.4,3.9-38.1
		c-0.4-19.5-4.2-38.5-16.5-54.7c-10.6-13.9-24.4-23.3-40.9-28.3c-9.1-2.8-18.8-4.1-28.3-5.2c-16-1.8-32.2-1.9-48.1-4.4
		c-13.5-2.2-26-7.6-33.4-20.6c-2.2-3.8-0.3-5.6,3-6c8.3-0.9,16.8-1,25-2.2c12.7-1.9,25.5-3.7,37.9-6.9c18.5-4.8,36.8-10.6,55-16.2
		c17.5-5.4,34.3-2.3,50.7,4c20,7.7,35.7,21.4,49.7,37.5c11.9,13.6,21.8,28.5,29.5,44.8c8,16.8,13.8,34.3,16.5,52.8
		c1.3,8.9,2.5,17.9,3,26.8c1.1,20.8-2.5,40.9-11.3,59.7c-9.1,19.6-19.1,38.8-29.8,57.5c-9,15.8-22.4,27.9-38.7,36
		c-11.5,5.7-23.9,9.1-36.7,11.1c-6.8,1-13.5,2.2-21.3,3.4c2.9,4.3,4.9,8.6,8.1,11.9c8,8.3,15.9,16.8,24.9,23.9
		c5,3.9,12,5.3,18.1,7.8c1.9,0.8,4,1.4,5.7,2.5c5.2,3.2,6.1,8.5,1.4,12.4c-5.1,4.2-10.7,8.1-16.7,10.9c-15.4,7.3-32.1,7.3-48.5,5.9
		c-21.9-1.8-41.8-10-58.4-24.6c-9.2-8.1-17.5-17.3-26.2-25.9c-0.3-0.3-0.7-0.5-0.5-0.3c-2.7,13.5-5.6,27.2-8.1,40.9
		c-0.4,2,0.3,4.9,1.6,6.3c8.8,8.6,19.5,13.4,31.9,13.9c3.4,0.2,7-0.1,10.3-1.1c9.6-2.7,15.9,2.3,21,9c12.3,16.1,12.1,43.1,0,59.2
		c-4.8,6.4-11.1,11.6-16.7,17.4c-6.6,6.7-13.3,13.1-17.3,21.9c-2.5,5.4,1.8,12.1,6.7,16.5c2.1,1.9,4.5,3.4,6.2,5.6
		c4.9,6.5,4,14.7-3.5,21.6c-6.1,5.6-13.2,10.1-20,14.8c-2.6,1.8-5.8,2.9-9.1,4.6c6.4,6.8,8.6,15.5,8.6,24.1
		c0.1,13.3-7.3,28.6-22.4,32.5c-3.9,1-8.7,0-12.7-1.2c-7.7-2.3-14.5-1.6-21.2,3c-6.3,4.3-9,10.3-9.3,17.4
		c-0.4,10.7,0.5,21.4-2.6,31.9c-4.7,15.9-15.3,26.2-30.3,31.7c-15.9,5.8-32.4,6.1-49.4,3.4c-29-4.7-54.8-16.3-77.8-34
		c-16.4-12.6-30.1-27.9-38.8-48.2c-1.6,2.9-2.9,5.1-3.9,7.3c-1.7,3.9-4.3,4.4-8,2.7c-8.7-4.1-15.2-10.9-18.7-19.4
		c-5-12.2-8.5-25.1-12.5-37.8c-1.4-4.4-2.1-9-3.4-14.4c-2.4,4.1-4.4,7.4-6.3,10.7c-3.5,6.1-6.9,6.5-12.1,1.6
		c-8.4-8-12.2-18.3-14.2-29.4c-1.6-8.6-2.7-17.4-4.1-26.1c-0.1-0.7-0.7-1.4-1.3-2.5c-1.9,3.7-3.5,7-5.3,10.3c-1.9,3.6-4.2,4-6,0.6
		c-6.2-11.9-12.3-23.8-12.5-37.7c-0.1-8.1-1.1-16.2-0.8-24.3c0.2-7.5,1.5-14.9,2.4-22.9c-2.1,1.5-4.2,2.8-6,4.4
		c-19.7,16.2-42.6,26.2-66.7,33.7c-13.9,4.3-28.1,6.9-42.6,8.3c-10.6,1-21,0.9-31.3-1.3c-10.6-2.2-15.6-11.9-8.3-21.2
		c8-10.1,16.1-20.2,23.3-30.9c11.7-17.3,19.3-36.4,24.1-56.7c2.5-10.6,5.4-21,8.1-31.8c-7.4-0.5-14.4-0.8-21.4-1.4
		c-30.4-2.7-58.8-11.5-83.3-30.2c-29.3-22.3-47.2-52.5-57.2-87.4c-4.5-15.7-6.9-32-10.2-48.1c-0.9-4.4-1.4-8.8-2-13.3
		c0-13,0-26,0-39c1.1-9.2,1.2-18.4,3.4-27.5c7.5-31.3,22-58.6,44.5-81.8C81.5,28.2,123.1,9.7,169.7,1.3C174.8,0.4,180,1,185,0
		C200,0,215,0,230,0z M317.9,458.9c1.1-1.4,2.1-2.9,3.2-4.3c3.6-4.7,7-9.5,10.9-13.9c1.4-1.5,4.3-1.7,6.5-2.6
		c0.8,2.5,2.7,5.2,2.3,7.6c-1.5,9.8-2.6,19.5-0.8,29.4c2.6,14.6,4.4,29.3,7.2,43.9c1.6,8.4,4.4,16.5,6.7,24.8c3-3.1,4.3-6.2,6.3-9
		c4-5.7,8.2-11.4,12.7-16.8c1-1.2,3.8-2.2,5.2-1.6c1.2,0.4,1.6,3.2,2,5c0.5,2.5,0.6,5.2,1.1,7.8c2.5,13.8,4.8,27.6,7.7,41.2
		c4,19.1,9.7,37.7,17.3,55.7c7,16.4,15.9,31.8,27.7,45.2c18.1,20.7,40.8,33.9,67.5,40.4c6.3,1.5,12.8,2.4,19.7,3.7
		c-4.9-10.8-8.7-20.8-6-32c3.4-13.8,10.3-25,23.9-30.7c13.6-5.7,28.2-5.2,42.5-6.5c10.9-0.9,21.9-0.4,32.8-1.2
		c16.2-1.3,20.7-11.7,14.8-23.9c-3.7-7.6-11.1-11.7-18.7-12.7c-10.9-1.3-22.1-1.3-32.7,2.9c-15,6-30.3,9.9-46.6,7.7
		c-5.5-0.7-11.1-1.3-16.3-2.9c-13.8-4.2-25.6-11.8-36.4-21.3c-13.5-11.7-24.2-25.1-28.5-42.8c-0.9-3.8-0.5-7.9-0.8-11.9
		c2.1,0.4,2.9,1,3.5,1.8c0.6,0.7,1.2,1.5,1.7,2.4c10.2,17.7,22.4,33.5,39.2,45.5c12.1,8.6,25.4,15.1,40.5,13
		c12.5-1.8,24.6-5.7,36.8-9c13.9-3.8,27.9-7.2,42.5-6.7c7.3,0.3,14.5,1.2,21.8,0.9c10.5-0.4,17.7-7.5,11.2-18.5
		c-2.1-3.5-4.5-6.8-7.1-9.9c-6.2-7.4-9.5-15-1.8-23.7c8.1-9.2,17-18,26.6-25.7c15.9-12.7,18.4-30.7,13-46.6c-1.6-4.8-6-9.9-10.5-12
		c-3.8-1.8-9.7-0.1-14.5,0.8c-7.9,1.3-15.3,0.1-22-4.1c-12.2-7.6-20.4-18.8-26.6-31.4c-4.8-9.7-7.6-20.5-13-29.9
		c-9.7-17.1-20.5-33.6-31-50.2c-2.9-4.6-5-9.3-4-14.8c1.4-7.9,3.1-15.8,5.1-25.7c1.8,2.5,3.3,3.9,4,5.6c1.8,4.3,5.1,4.7,8.9,4.2
		c4.4-0.6,8.7-1.8,13.1-1.9c10.1-0.3,20.3-1.1,29.9,4.9c-1.5-8.4-3.5-16.3-5.6-24c-1.8-6.6-3.8-13.1-5.3-19.7
		c-0.3-1.3,0.7-3.9,1.6-4.3c1.5-0.6,4-0.3,5.2,0.7c7.2,5.8,13.7,12.7,16.8,21.3c5.4,15.2,9.6,30.9,14.3,46.4
		c4.6,15,10,29.5,19.3,42.4c6.6,9.1,9.5,9.4,19.1,3.6c1.6-1,5-0.8,6.4,0.2c4.5,3.4,8.5,7.3,12.5,11.3c7.4,7.2,15.8,12.7,26,14.7
		c5.9,1.1,12.1,3.1,18.5,0c-12-4-20-12.7-26.7-22.2c-13.1-18.7-22.6-39.4-31.4-60.5c-6.9-16.5-14.2-32.8-26.1-46.7
		c-16.2-19-34.6-34.4-59.8-39.6c-13.3-2.7-26.9-3.2-39.9,1.6c-7.3,2.7-14.1,6.7-21.1,10.3c-13.7,7.2-27.7,9.1-42.4,2.8
		c-11.6-4.9-23.4-9.7-35.2-14.1c-14.3-5.4-28.8-10.4-44.3-11.2c-9.8-0.5-19.9-2.4-29.2-0.5c-12.3,2.4-24,7.8-35.9,11.9
		c-13.6,4.8-27,10.1-40.8,14.5c-19.5,6.2-38.5,13.3-54,27.3c-15.3,13.9-27.5,30.2-36.2,49.1c-12.8,27.8-17.9,57.4-21,87.4
		c-1.9,18.1-8.3,34.3-17.2,49.9c-4.7,8.2-9.4,16.4-13.8,24.7c-0.7,1.3-0.3,3.3-0.4,5c1.7,0,3.5,0.4,5-0.2
		c9.5-3.9,19.1-7.4,28.1-12.1c9.4-4.9,17.2-12,23.5-20.6c4.5-6,9-12.1,13.8-17.8c3.7-4.3,7.3-3.8,10.5,0.7c1,1.4,2.1,2.7,3.6,4.5
		c8-16.6,8.9-35.3,19.8-49.8c7,2.5,9.2,2.6,11.2,0.3c1.7-2,3.2-4.1,4.7-6.2c11.1-16.4,14.7-34.9,16.1-54.2
		c0.6-8.6,1.2-17.4,3.1-25.8c5.9-25.8,20.6-44.4,46.7-52.1c6.5-1.9,13.7-1.6,20.6-1.8c1.5,0,4.2,2,4.2,3c-0.1,1.6-1.6,3.6-3.2,4.6
		c-2.3,1.5-4.9,2.4-7.6,3.3c-12.7,3.9-21.2,12.4-24.8,24.9c-2.6,9-3.8,18.5-5.1,27.8c-1.7,12.2-2.7,24.4-4.1,36.6
		c-1,8.9-2.1,17.9-3.5,26.7c-2.4,14.9-8.6,28.6-15.6,41.8c-4.4,8.2-2.9,16.7-2.4,25.1c0.2,3,1.3,5.9,1.9,8.8
		C316.9,458.8,317.4,458.8,317.9,458.9z M119.2,59.1c2.4,0.1,5,0.3,7.1,1.3c1.8,0.9,3.1,2.9,4.6,4.5c-1.5,1.4-2.8,3.3-4.6,4.1
		c-14.7,6.5-29.8,12.1-44.2,19.2C67.2,95.5,55.9,107.3,48,122c-10.3,19.2-15.9,40-19.3,61.5c-2.2,13.5-2.6,27-0.6,40.4
		c2.6,17.5,7.3,34.6,13.9,51.1c3.3,8.1,7.1,15.9,10.7,23.9c1.2-7.3,0.7-14.2,1.3-21c0.4-4.8,1.7-9.7,3.8-14c1.5-3.1,4.6-7.1,7.3-7.4
		c4.6-0.5,4.8,5,5.7,8.4c5.8,20.6,12.8,40.6,26,57.9c4.9,6.4,10.5,12.1,18.3,17.1c-0.5-2.1-0.7-3.2-1-4.2c-4-11.8-7.6-23.8-6.2-36.5
		c0.2-2,1-5.1,2.3-5.5c1.9-0.7,5.1-0.2,6.7,1.1c6.4,5.2,12.5,10.7,18.5,16.4c14.9,14.1,33,19.3,53,18.8c1.6,0,3.6-1.2,4.6-2.5
		c7.3-9.8,13.7-20.4,21.7-29.5c10.9-12.4,22.1-24.6,34.6-35.4c14.6-12.5,31.4-21.9,49.8-28.3c4.9-1.7,9.4-4.5,15.2-7.4
		c-4.4-2.7-7.5-4.3-10.2-6.3c-2.1-1.6-3.8-3.6-5.7-5.5c2.2-1.7,4.5-3.4,6.8-5c0.4-0.3,0.9-0.2,1.4-0.3c15.4-2.6,30.8-5.3,46.2-7.7
		c6.8-1.1,13.6-1.6,21.2-2.4c-4.1-2.1-7.6-3.5-10.6-5.7c-2.4-1.7-4.2-4.4-6.2-6.6c2.2-1.6,4.4-3.4,6.8-4.8c1.5-0.9,3.4-1.2,5.1-1.5
		c12.2-1.8,24.2-1,36.4,0.9c21.4,3.3,40.6,12.4,59,23.2c13.2,7.7,26,16.1,39.5,23.2c11,5.8,22.9,7.5,34,0c7.8-5.3,15-11.6,22.5-17.3
		c3.9-2.9,7.8-5.9,12.1-8.1c6.5-3.3,10.1-1,10.3,6.1c0.1,3.1,1.2,4.1,4.2,4c7.2-0.1,14.3-0.3,21.5,0.1c2.4,0.1,4.7,1.7,6.9,3
		c1.7,1,2.9,3,4.7,3.8c9.1,4.5,18.4,8.8,27.6,13.2c0.3,0.1,0.8-0.1,1.2-0.1c-0.1-0.7-0.1-1.3-0.3-1.6
		c-12.5-15.6-24.6-31.5-37.7-46.6c-10.2-11.8-22.5-21.6-36.2-29.4c-11-6.3-22.6-11.3-35.4-11.3c-10.7,0-20.9,3.3-30,9.1
		c-2.2,1.4-3.9,3.7-6.9,6.6c2.7,0,3.8,0.3,4.6,0c10.1-4.5,20.8-3.6,31.3-2.8c1.3,0.1,2.6,1.5,3.9,2.3c-3.5,2.1-6.3,2.9-9.1,3.6
		c-15.2,3.6-28.9,9.4-36.3,24.5c-1.3,2.7-2.5,3-5.2,1c-8.9-6.9-17.7-14-27.1-20.1c-21.4-13.7-43.9-25.6-69.3-29.9
		c-12.3-2.1-25.4-2.8-37.6-1c-21.5,3.1-40.9,12.4-58.1,26.1c-17,13.6-31.4,29.5-44.8,46.6c-10.7,13.7-20.8,27.8-34.4,39.1
		c-14.8,12.3-31.1,21.6-49.9,25.4c-16,3.2-31.6,1.9-45.8-7.2c-4.6-2.9-9.6-5.4-14.6-7.7c-3.9-1.9-6.2,0.1-7.1,4
		c-0.8,3.1-1.6,6.2-2.5,10c-1.9-1-4.2-1.4-4.9-2.7c-4.1-7.5-8.6-15-11.4-23c-4.4-12.6-3.7-25.8-2.3-39c1.7-16.9,6.6-32.7,13.7-48
		c7.6-16.5,17.3-31.9,29.1-45.6c8.8-10.2,19.1-19.1,29-28.3c4.2-3.9,9.1-7,13.5-10.6c3.4-2.7,3.4-5.6,0.1-8.6
		c-2.3-2.1-4.5-4.5-6.7-6.7c-3-2.9-1.3-4.4,1.6-4.9c5.5-1,11-1.6,16.5-2.1c9-0.8,18-1.9,27.1-1.9c16.9-0.1,34-0.6,50.7,1.2
		c16.4,1.8,32.6,4.4,49.2,3.6c3.6-0.2,7.3-1.2,12-2c-5.2-1.8-9.1-2.9-12.8-4.6c-12.3-5.7-24.6-11.2-36.6-17.4
		c-17.6-9.1-36.4-12.3-56-11.9c-5.8,0.1-11.5,0.9-17.3,1.4c-0.3,0.5-0.6,1-0.9,1.5c1.8,1.4,3.9,2.6,5.5,4.2c2.7,2.8,1.9,5.7-1.9,6.8
		c-2.6,0.8-5.3,1.6-8,1.9c-13.8,1.8-27.7,2.8-41.4,5.2c-16.6,3-32.7,8-47.6,16.8C106.9,59,113.1,58.9,119.2,59.1z M775.9,217.3
		c-3.7,9.3-6.5,19.1-11.1,28c-10.9,20.9-31,29-53.2,24.9c-7.8-1.4-15.5-3.7-23.5-5.6c1.6,1.2,2.9,2.4,4.4,3.4
		c8,6,16.5,11.5,26.5,12.9c11.7,1.6,23.7,1.6,35.5,2.2c5.5,0.3,7.2,1.2,6.4,6.7c-0.9,5.9-3.4,11.6-5.2,17.3c-0.2,0,0.9,0.3,1.7,0
		c10.8-3.9,21-9,28.9-17.7c6.3-6.9,12.1-14.3,18.4-21.2c2.9-3.2,6.2-6.2,9.6-9c2.6-2,4.8-1.4,4.8,2.4c-0.1,3.8-0.6,7.5-0.8,11.3
		c-0.1,2.3,0,4.6,0,8c10.6-14.7,18-29.5,23.8-45.1c6.1-16.4,7.3-33.4,7.2-50.8c-0.1-19.2-4.3-37.2-12.1-54.5
		c-11-24.5-26.9-45.3-47.6-62.4c-12.9-10.6-26.7-19.9-42.9-24.6c-8.6-2.5-17.4-5-26.5-2.3c-8.9,2.6-17.5,5.9-26.5,8
		c-12.7,2.8-25.5,4.9-38.4,6.9c-8.1,1.3-16.3,1.8-24.4,2.6c3,1.2,6.1,2.3,9.2,2.4c12.3,0.5,24.5,0.6,36.8,1.1
		c6.9,0.3,13.8,0.8,20.5,2.2c16.7,3.3,32.5,9.1,47.5,17.1c23.6,12.7,42.6,29.7,52.5,55.4c2.8,7.2,5.4,14.3,4.8,22.3
		c-0.3,3.6-1.3,5.1-4.8,3c-3-1.8-6-3.7-10.1-6.3c4.5,12.6,8.2,24.3,12.7,35.7c3.4,8.6,4.9,17.4,3.9,26.5c-0.5,5-0.5,10.7-6,14.4
		c-7.7-5.3-9.6-16.7-19.7-20.5C777.3,213.7,776.6,215.5,775.9,217.3z M591.6,355.8c2.4,4.4,5.4,8.9,7.3,13.9
		c3.1,8.2,5.2,16.7,8.2,24.9c1.7,4.4,2.4,9.7,8.1,13.2c2.7-25.7,11.2-50.1,2.6-75.1C616.5,352.4,610.3,357.9,591.6,355.8z
		 M582,330.9c1.8-4.2,5.6-7.4,8.8-11.3c-5.5,0.6-11.5,0.7-17.4,1.9c-3.2,0.6-6.6,3.7-4.8,7.1c3.1,5.9,7.5,11.1,11.1,16.3
		C580.4,339.8,580.2,334.9,582,330.9z M603.3,326.3c-2.1,2.2-1.8,6.3,0.7,8.2c3.5,2.7,5.4,1.6,10.7-6.1
		C609.9,323.3,606.6,322.7,603.3,326.3z M649.7,234.8c0.2,0,0.5-0.2,0.8-0.3c-0.3-0.3-0.5-0.6-0.9-0.8c-0.1,0-0.4,0.3-0.6,0.5
		C649.3,234.5,649.5,234.8,649.7,234.8z M459.8,333.2c-1.5,1.3-4,2.4-5.8,2.1c-3.4-0.6-5-3.5-3.8-6.7c0.6-1.6,3.4-3.7,4.8-3.4
		c5.2,0.8,10.3,2.9,15.5,3.8c3,0.5,7.1,0.8,9.1-0.8c3-2.3,3.5-6.9,1.2-10.3c-3.3-4.8-4.3-10-5-15.6c-0.4-3.3-1.9-6.4-2.9-9.6
		c-0.7,0-1.4,0.1-2.1,0.1c-1.3,4.1-2.8,8.1-3.7,12.2c-0.7,2.9-1.9,3.2-4.7,3.1c-7.8-0.4-15.7-0.6-23.5,0c-12.1,0.9-21.9,6.5-28.3,17
		c-7.4,12.1-3.1,30.3,8.2,38.9c3.3,2.5,7.2,6.1,12.1,3c-3.3-7.1-7.6-13.7-9.5-20.8c-2.3-8.6,2.2-15.8,9.5-18.5
		c-4.3,12.1-2.5,20.7,5.5,26.2c4.8,3.3,18.9,3.1,23.2-1.5c5.6-5.9,8.1-16.2,3-24.1C461.6,329.9,461.2,332.1,459.8,333.2z M483,478
		c5.2-19.8,27-30.4,45.6-22.1c13,5.8,24.1,14.2,34.6,23.7c4.7,4.3,9.4,8.8,14.6,12.4c5.7,4,11.1,1.7,12.5-4.2
		c1.5-6.1-2.3-9.6-5.6-12.4c-9.8-8.4-19.7-16.7-30.6-23.6c-14.8-9.3-31.1-14.5-49-10.9c-11.6,2.4-22.1,7.1-29.1,17.2
		c-10.3,15-9,30.8-2.5,46.7c1.7,4.1,4.2,7.7,9.3,9.5C481.2,501.7,479.8,489.9,483,478z M502.2,477.1c-12.6,4.4-15.7,12.3-9.7,21.6
		c4.9,7.5,16.6,12.6,26.4,5c5.5-4.3,8.2-3.6,11.6,2.5c1.4,2.5,1.5,5.6,2.5,8.3c0.6,1.6,1.9,4.3,2.6,4.2c2.2-0.3,4.9-1.2,6.2-2.8
		c1.4-1.9,2.7-5.2,2-7.2c-2.1-6.2-4.5-12.5-8-18c-5.5-8.7-13-15.3-24.4-15.1C508.3,476.1,505.1,476.1,502.2,477.1z"/>
</g>
</svg>
