<?xml version="1.0" encoding="utf-8"?>
<!-- Generator: Adobe Illustrator 25.2.1, SVG Export Plug-In . SVG Version: 6.00 Build 0)  -->
<svg version="1.1" id="gnu-heckert" xmlns="http://www.w3.org/2000/svg" xmlns:xlink="http://www.w3.org/1999/xlink" x="0px"
	 y="0px" viewBox="0 0 535 523" style="enable-background:new 0 0 535 523;" xml:space="preserve">
<path d="M113,304.4c-3.6,0.2-8.4,1.9-11.5,7.6c-2.6,4.6-8.7,5.4-11.5,4.5c-4.7-1.6-10.8-2.6-16.6,1.5c-5.8,4.2-12.2,1-11-6.6
	c1.1-7.6,3.8-14.4,11.1-18.5c15.9-9.1,4.8-15.5,13.6-24.7c8.7-9.2,6.8-12,6.5-24.5c-29.5-4.4-46.3-13-65-36.3
	C9.8,183.9,2.6,164.7,0.7,135.4S0.4,87.2,13.1,62.8s26-36,49.1-48.2C85.2,2.6,107.8-0.4,128.7,0c20.9,0.4,34.8,1.9,46.7,8.6
	c11.8,6.7,22.6,15.2,29.5,15.3c6.9,0.1,11.6-1.7,14.9-4.3c0.9,22.7-19.5,24.7-37.8,25.2c-18.3,0.5-29.5-7.1-46.4-4.3
	S91.3,51,77.8,74.3S64,106,65.1,125.6c1.1,19.6,18,34.2,27.5,34.4c9.5,0.2,11.6-2.6,20-8c8.3-5.4,50.9-58.1,65.4-70
	c14.5-11.8,28.9-15.5,44.3-15.7s19.4,0.3,31.9,5.4c12.5,5.1,20.1,14.5,30.2,20.3c5.1-3,8.3-7.5,13.1-11
	c16.9-12.3,25.6-15.7,45.7-13.7c11.5,1.1,26.1,7.7,34.7,15.2c15.4,13.4,28.2,32.1,38.5,46.3c8,11.1,17.5,24.3,31,28.4
	c14.7,4.5,25.8-14.6,27.4-25.1c0.9-6,2.1-11.2,2.1-17.8c0-6.6-0.7-14.6-2.6-21.5s-5.2-13.7-8.7-19.4c-5.7-9.2-15.1-18.9-24.9-23.9
	c-5.5-2.8-18.4-7.9-26.5-8c-10-0.2-17.6,3.1-26.8,3.8c-11.2,0.8-31.1,3.3-39.8-5.3c-5.6-5.5-6.3-9.1-7.2-16.3c2.5,2,5.9,3.4,9,3.6
	c7,0.6,13.5-5.1,19.2-8.4c4.6-2.7,11.2-7.6,17.3-10c15.7-6.3,34.9-6.1,51.5-4.4c13.3,1.4,30.5,7.3,42.1,13.8
	c11.7,6.6,23,17.8,31.2,28.3c10.4,13.2,16.1,24.6,19.8,41.1c4.8,21.1,6.1,52.7,0.3,73.5c-4.6,16.4-19.8,41.5-32.7,53.8
	c-12.8,12.2-27.5,18-44.3,21.2c0.7,3.4,0.8,6.5,1.6,9.3c1.2,3.9,3.6,8.3,8.4,6.9c1.9-0.6,3-1,5.5,1.2c2.5,2.2,1.2,10.8-5.9,14.7
	c-3.6,2-7.5,2.4-13.3,2.5s-14.9,0.1-21.2-1c-6.3-1.1-10.1-6.1-17.1-6.9c-10.8-1.2-19.1-9-27.7-14.6c-3.6-2.3-4.8-2.4-6.9-3.5
	c1.1,3.4,2.6,7,3.4,10.3c0.8,3.3,0.4,6.4,0.8,9c0.4,2.6,1.1,4.7,1.6,6.9c1.7,1.5,2.3,3.9,5.2,4.6c2.9,0.7,7.5-0.4,10.4-0.8
	s5-2,7.3-1.6c2.3,0.4,4.5,2.1,6.5,3.7s3.6,1.8,5.2,5.7s3,11.9,3.3,17.3s-0.4,10.2-2,14.4s-3,6.1-7.3,10.3
	c-4.3,4.2-11.3,10.4-18.3,14.7c1.3,1.9,1.9,3.6,3.9,5.7c2,2.1,6.2,4.4,8,6.6c1.9,2.2,2.8,3.7,2.8,6.2c0,2.4-0.1,5.6-2.1,8.3
	c-4.9,6.6-10.8,7.8-17.9,10.9c1.2,7.5,2.2,12.8,0.4,20.2c-0.7,3-2.3,9.9-6,11.7c-3.7,1.8-11,0.9-15.5,1.6c-4.6,0.7-7.1,1.4-10.7,2.1
	c-2.2,3.1-5.4,6.6-6.5,9.4c-1.1,2.8-0.8,3.8,0.2,6.7s4.1,7,5,10.4s1.1,7,0.2,10.3c-0.8,3.4-2.3,5.8-5.1,8.8c-2.9,3-8.5,5.3-11.3,7.8
	c-2.8,2.4-5.6,2.7-4.8,6.7c1.1,5.5,9.1,14.4,14.9,16.6c3.5,1.3,8.2,0.9,12.4-0.9c-0.3,4.7-4.4,7.9-7,11c7.2-2.1,14.2-6,19-11.2
	c-1.5,4.5-6.7,11.8-14.4,18.2c-7.7,6.4-7.7,5.1-11.5,7.6c7,1.4,13.5,1,18.9,0.1c-3,1.6-7.8,3.9-14.3,4.6c-6.4,0.7-10.4,0.2-16.2-1.2
	c-5.8-1.4-11.1-6.7-18.2-10.3c0.7,2.6,1.2,5.8,4.1,8.4s7.4,4.1,12.2,6.4c-6.1-0.7-12.4-0.9-18.4-2.2c-4.4-1-7.4-2-10.6-3.6
	c-3.2-1.6-5.7-3.9-8.6-5.9c1.4,2.6,1.8,5.7,4.1,7.8s6.1,3,9.2,4.4c-3.2-0.1-6.3,0.6-9.6-0.2c-3.3-0.8-6.4-2.1-9.9-4.7
	s-7-5.7-9.9-8.9c-2.9-3.2-6.6-7.3-7.7-10.3c-1.1-2.9,0.7-5,1-7.5c-2,1.3-4.5,2.1-6.1,4s-2.9,3.7-2.3,7.1c0.7,3.4,3.8,7.5,6,11.2
	c-6.6-5.4-10.2-7.4-11.8-13.9c-1.5-6.1,2.3-11.6,5.2-16.2c1.4-2.3,3.6-4.4,4.9-6.6c-3-2.9-6.4-5.4-8.9-8.7c-2.5-3.3-3.6-7.8-6.2-11
	c-2.6-3.2-6.1-5.2-9.1-7.8c2.7,5.7,7.1,12.8,8,17.2c1,4.4-1.1,7.2-2.6,9.6c-1.6,2.4-4.1,2.9-6.5,4.4c-2.4,1.5-6.2,0.3-7.6,2.5
	c-1.4,2.2-1.8,5.5-0.4,7.6l5.6,8.9c-2.1-1-5.7-4.1-7.3-6.3s-4.1-4.2-4.4-7.1c-0.3-2.9-0.5-5.5,1.4-8.1c1.9-2.6,7.1-3.5,9.4-5.5
	c2.3-2,3.6-3.3,3.5-5.9c-0.1-2.6-2.7-4.4-4.8-6.1c-6.6-5-15.2-9.6-20.8-15.6c-3.2-3.4-4.7-6.1-5.4-8.5c-0.6-2.3,0-4.2,1.6-7
	c1.6-2.9,7-6.7,7.7-9.8c0.7-3.1-2.1-3.8-4.6-4.9s-7.2,0.6-9.5-1.4c-2.3-1.9,0.7-5.9-1.9-8.2c-2.6-2.2-8.5-1-11.6-3.4
	c-3.1-2.4-4.3-5.3-5.4-8.8s-1.2-7.2-0.5-9.7s2.9-2.9,4.1-4.2s2.4-2.4,0.7-4.3c-1.7-1.9-7.4,0.1-10.6-2.4c-3.2-2.5-1.3-8.4-3.6-10.9
	c-2.3-2.5-6.4-1.5-8.6-2.3c-2.2-0.8-3,2-4.4-2.4c-1.3-4.5-1.4-17.8-3.2-22.7s-5.3-0.3-6.9-5.3c-1.6-4.9-0.1-12.8-0.8-20.3l-3.3-20.3
	c-11.6,7.8-19.3,10.3-31.8,12.5c-1,30.6-3.9,48.6,6.5,82.5c10.4,33.9,31.4,53.9,59.7,82.6c-37.4-28-55.2-50.8-66.4-80
	C109.7,356.9,111.9,332.5,113,304.4z M311.7,292.1c2.9,0.1,6.4,0.9,8.4,2.2c2,1.3,4.2,2.4,6,4.3c4.6,4.7,8,10.3,9.5,16.7
	c1,4.1,1.1,9.4,1.5,14.2c-1.4-4.5-2.3-9.1-4.3-13.1c-3.1-6.3-8.4-12.5-15-15.3c-2.2-0.9-3.6-0.8-4.8-0.6c0.5,0.9,1.4,1.6,1.5,3
	s-0.3,3.9-2.5,5c-3.6,1.7-7.6,0.5-10.3-1.9c-2.8-2.5-3.7-6.6-2.3-10.2C301.1,291.9,307.8,291.9,311.7,292.1z M275.6,286
	c0.4-7.3,3-13.5,9.6-17.1c3.4-1.9,8.6-4.3,13.5-4.8c4.6-0.5,15.9-0.1,22.7,2.9c5.2,2.4,8.7,6.1,13.3,8.8c4.6,2.7,7.8,4.5,12.2,7.5
	c6.7,4.7,10.6,9.8,15.2,12.8c2.2,1.5,5.4,1.3,8.3,2.2c-2.3,0.7-5.3,1.4-7.8,0.6c-3.1-1-7.4-3.8-9.8-5.8c-4.2-3.6-6.4-5.3-11.1-8
	c-2.8-1.6-7.3-3.5-10.3-5.5c-3-2-8.3-6.3-11.2-7.8c-3.7-1.9-10.4-2.9-14.5-2.8c-5.7,0.2-13.9,1.1-18.3,5.1c-4.4,4-6,7.5-5,12.6
	c1.6-1.9,2.7-4.3,4.4-5.7c3.4-2.9,7.3-3.1,11.6-2.5c4.8,0.6,7.2,3.4,8.8,7.9c-1.1-0.8-3-2.5-4.6-3c-3.6-1.2-6.4-0.9-9.7,1
	c-4,2.1-2.9,5.3-3.5,8.9c-0.3,1.6-0.9,2.9-1.3,4.4c-1.5-0.4-2.9-1-4-2.2c0,1.6-0.2,3.1,0.1,4.9c0.3,1.9,1.2,4.1,1.9,6.1
	c-2.8-2.8-5.6-5.4-7.4-9C276.7,293.9,275.4,290,275.6,286z M280.4,232.5c2.1-3,2.7-7.7,3.9-11.5c-0.5,4.8,0.5,10.1-1.9,13.6
	s-6.5,2.9-9.9,3.9C275.2,236.5,278.4,235.6,280.4,232.5z M231.3,303.9c2.6-2.1,9.8-0.4,15.1,0c-3.8,1-7.6,2-11.5,2.9
	c-0.4,1.3-0.2,2.8-1.1,3.9c-0.9,1.1-2.5,1.5-3.8,2.3C230.2,309.6,228.7,306,231.3,303.9z M268.8,155.7c3.2,1.7,7.2,4,10,4
	s3.5-1.8,5.2-2.9c2.6,8.5,5.6,17.8,10,25.4c1.9,3.2,3,1.7,4.4,5c1.4,3.2,2,9.8,3.4,13.9c1.3,4.1,3.1,7.2,4.6,10.8
	c-3.9-5.5-9-12.6-11.1-17.2c-2.2-4.6-0.8-5-2.5-9.4s-5.3-11.2-8-16.8c-1.9,0.3-4.3,0.6-5.7,0.2s-1.2-2-2.5-3c-1.3-1-3.5-0.6-5.4-2.2
	C269.4,161.8,269,158.6,268.8,155.7z M251.7,197.5c3-0.3,6.7,0.5,9.5,0.4s4.8-0.9,7.2-1.3c-0.4-4.2,0-12-3.9-14.8
	c-2.5-1.8-12.8-0.4-15.6,0.1c-6.2,1.3-13.4,5-19.4,7.4c5.8-4,10.7-7.7,17.6-9.8c4.1-1.2,13.8-2.9,18.1-1.7c2,0.5,2.3,1.3,3.5,3
	c4.1,5.7,4.1,10.6,5.1,17.2c1,1.6,2.1,2.7,3,4.4c0.8,1.7,1.3,4.3,1.6,6.4c-1.1-1.5-0.4-3.5-3.4-4.6c-3-1.2-7.5-0.1-11.5,0.3
	c2.9,2.1,4.3,4.1,4.5,8.5c0.1,5.2-4.3,8.9-8.9,9.3c-6.4,0.5-9.7-0.9-12.2-6.4c-1.1-2.4-0.3-5.3-0.4-7.6c-7.7,0.5-7.5,0.3-13.1,5
	c3,4.5,5,7,10,9.7c2.8,1.5,6,3,9.5,3.5c3.5,0.6,9.2,1.2,12.9,0.6c3.7-0.6,5.8-1.6,8.5-4.1c2.7-2.5,3-6.1,4-9
	c-0.2,2.7-0.6,6.2-1.6,8.2c-3.1,6.1-8.5,7.8-14.9,7.9c-6.1,0-13.7-1.4-19.5-3.8c-4.6-1.9-12.1-7.3-13.9-11.9
	c-1.2-3.2-0.3-7.1-0.4-10.6c6.3-4.2,7.9-3.2,15.4-4.4C246.5,198.9,248.7,197.7,251.7,197.5z M214.8,169c0.2-2.5,0.5-2.5,0.7-3.7
	c-5.8-1.5-8.1,2.2-11.5,9.1c-1.3,2.6,0,4.1-1.4,5.9c-1.4,1.7-3.5,1.5-5.7,3.1c-2.2,1.6-4.4,4.8-6.4,6.5c-4.2,3.5-9.9,5.6-14.8,8
	c3.3-2.5,9.8-6.2,11.9-9.8c1.1-1.9,0.9-5.5,2.7-7.2c1.7-1.7,2.3-2.9,4.6-3.3c2.2-0.4,1.3-3,2.1-5.1s2.2-3.5,3.7-5.6s3.5-5.2,6.5-6.3
	c3-1.1,7.7,0.1,10-0.6c2.3-0.6,1-2.3,2.6-3.3c1.7-1,4.9-0.6,7.1-1.6c3.9-1.9,5.8-5.1,8.2-8.4c0.3,7.3,0.3,12.5-2.4,19.4
	c-2.9,7.7-5.9,12.3-14.3,17c-2.9,1.6-5.8,2.2-8.1,3.1c1.4-1.9,3.4-2.7,4.2-5.7C215.2,177.4,214.6,171.5,214.8,169z M349.9,204.5
	c-4,0.3-4.9-0.3-8.1,2c1.7,2.7,3.4,5.4,5.2,8.1C346.8,209.2,347.3,208.1,349.9,204.5z M339.4,200.6c5.5-2.3,10.3-4.2,16.3-4.6
	c2.4-0.2,6.1,0.2,8.6,0.3c2.1-3,4.7-5.4,5.7-8.9c0.6-2.3,0.3-13-0.8-15.8c-3.3-8.1-6.5-8.4-11-13c-3.3-3.4-3.4-8.5-4.4-14.2
	c-0.4-2.1-1.4-4.8-1.9-6.9c-5.9-1-12.3-1.3-19.1-1c3.3-3.2,6.5-6.1,7.5-10.8c0.9-4.8,0.2-10.6-2.5-14.9c-2.7-4.3-7-8-11-11.5
	c-4-3.5-9.7-6.4-13.4-9.2c4.9-1.8,9.9-4.3,14.7-5.3c12.5-2.4,23.2,1.3,35.3,8.6c7,4.2,12.8,8.3,20.1,15.9
	c7.3,7.7,16.4,21.7,23.5,30.1s12.8,14.9,19,19.9c6.2,5,11.8,6.4,17.7,9.6l9.2,9.7l7.4-9.2l11.9,1.4l2.5-13.4l11-3l-1.8-18.1l7.9-5.6
	l-5.9-11.2l6-12.3l-7.9-14.1l3-13.5l-9.1-7.7l-1.2-14.4l-12.7-4.8l-5.1-12.5l-14.3-0.2l-7-9.3l-9.6,0.7l-10.7-1.2l-6-4.5l-8.8,5.8
	L391.8,26l-21.1,8l13.8-12l14.3-2.3l10.9-2.8l14.8,4.8l13-3.3l12.5,7.4l13.3-0.7l6.5,11.7l13.2,1.5l7.1,13l8.3,4.5l2.2,16.6l7.4,7
	l-3.2,14.6l8.7,11l-8.2,11.8l8.7,7.4l-11.2,9.9L514,146l-13.6,4.4l8.9,12.6l-11.1,1.9l7.3,13.9l-12.6-0.2l6.3,10.4l-13.8-1.7l3.3,15
	l-10.4-9.2l-3.6,18.1l-7.2-13l-3.9,16.2l-8.9-12l0.2,17l-9.8-15.3c2.1,8.7,1.7,18.2,7.4,26.4c17.7-2.4,29.2-6.8,42.8-19.9
	c12.3-11.9,27.1-36.6,31.1-52.3c4.6-17.9,4.7-50.8,0.2-69.1c-4.3-17.6-9.9-25.9-20-40.3c-9.6-10.2-19-20.9-31.2-28.2
	c-17.9-10.7-40.8-13.5-61.1-13.3c-11.3,0.2-18.8,2.3-25.6,4.8c-11.8,4.3-21.2,13.6-33.2,18.2c-3.9,1.5-7,1.6-10.1-0.1
	c3,6,6.3,8.7,13.8,10.9c5.4,1.6,18.4,0.6,27.3-0.2c9.6-0.9,14.6-3.7,27.6-3.6c12.7,0.2,22.8,5,28.3,8.2
	c11.4,6.5,19.5,13.7,26.6,25.2c3.9,6.3,6.6,13.4,8.5,20.6c1.9,7.2,2.8,15.3,2.9,22.4s-0.4,13.4-2.1,19.8
	c-4.1,14.9-13,30.1-31.3,27.8c-11.2-1.4-28.2-22.5-33.8-30.3c-11.4-15.6-23.2-32.9-37.6-45.9C367,77.6,355,72.1,343.2,71
	c-22.1-2-28.7,2.2-45.3,15.9c3.4,1.1,6.7,1.7,10.2,3.2c7.7,3.5,14.7,8,20.9,13.7c6.4,6,9.3,9.8,9.6,18.5c0.2,5.7-4.6,10.3-8.9,14.5
	c-2.6,2.5-6.1,4.9-8.3,6.8c-2.8,2.6-6.4,5.5-2.8,9.6c1.3,1.6,3.7,2.7,5.6,4.2c3.1,2.3,1.7,10.9-2.4,13.2c-5.3,2.9-11.5,2.6-15.9-1.3
	c5.5-0.8,8.9-1.5,8.8-6c-0.1-2.6-3.4-4.8-6.6-6.2c-7.8-3.6-13.7-3-21.5-8.6c-7.9-5.7-8-8.7-10.1-17.6c-3.8,0.4-7.3,0.5-12.3,2.2
	c-5.1,1.7-10.7,5.7-15.2,6.6c-11.6,2.5-13.9,1.8-20.2,0.1c-11.1-2.9-25.7,2.1-40.1,6.7c-2.4,0.8-12.1,0-18.6,2.3
	c-10.1,3.5-24.2,12.1-32.4,19c-12.4,10.4-28.7,41.6-37.8,77.5c-1,10.9,2.1,18.2-4.7,23.5c-6.9,5.3-6.7,18.9-9,22.8
	c-2.3,3.8-5,2.1-10,7.5s-7.6,4.5-7.4,14.6c4.3-2.8,10.6-6.1,16.1-6.3c4.9-0.2,4.9,6.3,17.5-6.1c6.7-6.6,19.6-6.8,28.6-9.8
	c9-2.9,25.1-9,41.2-27s23.9-37.1,27-64.6c0.5,4.9,1.4,10.4-0.7,23.8s-6.6,28.5,2.9,46.6l5.9,11.3c-3.5-4.8-10.4-12.6-12.4-18.2
	l-4.8-12.9c-10.7,16.7-13.1,19.7-27.9,31.7c-0.6,7.4-0.7,15.2,1.7,22.3c2.4,7.1-1.4,15.3,0.4,20s6.1,2,7.5,6.8s-0.7,14.1,1.4,18.8
	s7.5,1.8,10.1,3.3c2.6,1.5,3.4,3.5,4.8,5.5c1.4,2-0.5,6.6,2.3,8.1c2.8,1.5,7.2,0.2,10.1,1.7s3.4,4.9,2.7,8.1
	c-0.7,3.1-3.8,4.6-5.2,7.7c-1.4,3.2-1.2,5.4,0.4,8.3c1.6,2.9,5.3,4.5,8.9,6s8.7,0.6,12.5,2.7s7.1,6.1,9.1,9c2,2.9,2.5,5,2.4,8.1
	c-0.1,3.1-1.4,6.7-3,9.7s-5.3,6.6,0.4,12.3c5.7,5.7,5.5,3.2,8.7,7c-0.4-6.4-3-11.6-1.1-16.5c1.9-4.8,7.8-5.7,10.8-7.8
	c3.1-2.2,4.8-5.2,7.2-7.7c0,3.3,0.3,6.9-0.1,9.4c-0.8,5.1-2.3,9.6,5.3,10.4c3.4,0.4,6.6-1.8,10.2-3.2c-1.9,3.4-5.1,6.1-5.6,10.1
	c-0.5,4,0.1,8.4,2.9,12.4c2.8,4,7.6,7,11.1,9.3c3.5,2.3,5.4,2.5,8.1,3.8c0.1,4-0.6,8.1-0.2,11.9s1.6,7,3.8,10.1
	c2.2,3.1,5.6,4.8,8.9,7.1c-1.8-4.2-5.4-8.1-5.4-12.5c0-4.4,1.4-7.5,5.6-11.3c4.3-3.9,14.2-7.2,18.9-11c4.7-3.8,6.2-6.1,7.9-9.7
	s1.2-9.6,1.5-12.9c1.5,4.6,1.8,6,2.3,10.9c0.5,4.8-2.8,11.6-4.2,15.2c5.8-2.8,9.5-7.3,11.4-11.7c1.2,0.7,0.6,2.8,1.1,6.7
	c2.1-2.1,4.4-3.7,6.5-5.6c2.1-1.9,4.4-3.7,5.4-6.4c1-2.7,0.6-5.6-0.2-8.8s-4.3-6.8-6.2-10.3c-1.9-3.5,0.3-6.8,0.2-11
	c-3.8-0.7-7-2.6-11.4-2c-4.4,0.6-9.4,5.5-13.8,5.6s-7-4.1-10.6-5.3s-7.4-1-11-1.5c4.7-4.5,22.8-6.6,35.1-8.6
	c10.9-1.8,21.7-2.8,32.7-3c4.9-0.1,11.3,1.6,14.7,0.6c3.4-1,2.7-3.3,3.7-5.9c2.8-7.1,1.4-13.4-0.1-20.6c-9.9-1.2-20.2-2.6-30.2-1.8
	c-9.8,0.8-21.3,5.4-31.4,5.7c-8.8,0.3-21.7-1.7-29.2-6.3c-9.2-5.6-16.3-17.6-18.8-21.5c-4.1-6.3-9.3-18.6-12.4-24.3
	c-3.2-5.6-3.8-7.2-6.5-9.6c-2.6-2.4-6.2-2.5-9.3-3.8c3.6,0.4,7.5-0.8,10.7,1.1c4.9,2.8,10.4,14.4,13.4,19.5
	c3.2-10.8,2.5-15.1,11.8-21.1c-7.5,8.4-7.7,14.8-9.5,24.7c6.2,10.3,14.9,26.6,26.3,31.1c4.1,1.6,11.2,2.7,15.6,3.2
	c13.8,1.7,27.1-2.7,40.7-6c9.9-2.5,20-1.5,32.1-0.8c4.1,0.2,13.8-2.2,15.8-6.4c1.1-2.2,1-4.9-0.6-7.3c-1.6-2.4-5.7-3.5-7.9-5.7
	s-3.5-4.7-5.2-7c-9.2,1.8-16.8,2.4-23.6,2.6c4.9-2,9.6-3.2,14.7-5.2s10.9-5.3,15-8c4.1-2.7,6.8-4.3,9.7-7.5c3-3.2,6.8-6.4,9-10.3
	c2.2-3.9,2.5-8.2,2.7-13c0.1-4.8-0.1-11.5-1.9-15.4c-1.8-3.9-5.4-5-8.3-5.9c-2.9-0.9-4.8,1.4-7.8,1.7c-3,0.3-5.8,2.2-10.1,0.2
	s-9.4-6.1-13.8-12.3c-4.4-6.1-7.5-16.1-11.9-23.8c-7.6-13.3-17.2-25.6-26.3-37.9c-0.8-3-1.9-7.2-2.3-11.3
	c-0.7-7.2-0.8-14.6,1.4-21.6c1.7-5.3,4.2-11,9.8-13.2c2.2-0.9,5.1-1.2,7.1-0.5c2,0.7,4,3,3.2,5.6c-0.9,2.9-2.9,2.9-4.2,4.4
	c-2.3,2.5-3.2,4.3-4.1,7.3c2.5,0,5.8-0.2,7.9,0.3c2.7,0.7,5.1,2.5,6.5,6.2c-3.2-2.8-4.7-4.1-8.7-4.2c-1.8,0-4,0.6-6,0.9
	c-0.8,2.4-1.2,5.4-2.2,7.3s-3.1,1.4-3.9,3.6C339.1,194.1,339.1,197.7,339.4,200.6z M367.2,197.3c1.2,0.5,1.7,0.6,3.2,1.8
	s3.7,2.3,4.9,5.1c1.2,2.8,1.2,7.1,0.9,8.9c-1.1-0.3-2.5-0.1-3.6-1.1c-1.1-0.9-1.8-3.1-3.2-4c-1.4-0.9-2.6-0.7-4.2-0.9
	c0.8,2.3,1.2,4.6,0.8,6.7c-0.8,4.5-3.5,6.8-7.8,7.4c-1.9,0.2-4.9-0.4-6.5-0.7c0.8,1.7,2.1,3.2,2.8,4.9c3.7-0.5,6.4-0.5,8.3-1.4
	s4.1-3,6.6-3.9c2.5-0.9,4.8-0.9,7.5-1.3c-2.2,1.9-3.6,3.8-5.8,5.6c1.6,4.6,3.2,9.3,4.8,13.9c3.4,2.1,6.5,3.2,10.8,5.8
	c4.3,2.6,9.4,7.3,14.9,9.8s8.9,3.9,14.6,5c5.8,1.1,10.4,5.8,16.1,6.5s16.4,0.9,20.8,0.5c5-0.5,11.5-3.1,12.1-8.5
	c-4.2,1-10.6,0.1-13.8-7.8c-1.4-3.5-0.7-9.9-2.9-14.1c-2.2-4.1-5.2-5.5-8.9-10.6s-9.6-13.1-13-20c-3.4-6.8-4.1-14.6-7-20.7
	c-2.8-6.1-7.1-11.1-10.4-15.8c-7.2-10.3-13.1-17.3-25-22.5c-5.7-2.5-12.3-3.2-18.4-4.7c-2.5,1.1-5.9,2.4-6.5,5.3s0.6,7.2,2.7,9.4
	c3.5,3.7,8.8,7.6,10.9,13.4c1.3,3.7,1.7,16.3,0.6,19.6C372.2,192.8,369.5,195,367.2,197.3z M368.3,226.9c-1.1,1-2,1.9-3.7,2.7
	c-1.8,0.8-4.2,1-6.6,1.6c3.3,5.2,6.8,10.4,10,15.8c3.2,5.4,5.9,11.4,9,17c-0.1-3.3,0-6.7-0.4-9.8c-0.5-3-1.9-5.7-3.2-10.3
	C371.9,239.5,370.2,233.3,368.3,226.9z M279.2,113.6c-0.5,5.1,0.4,13,1.4,18c1.3,5.9,2.5,9,7.3,12.6c8.8,6.6,14.5,5.4,21.3,9.3
	c3.2,1.8,7.3,4.8,8.5,8s-0.8,6.7-3.2,8.1c4.3,0.6,9.1-4.2,7.1-9.2c-1-2.4-5.7-3.5-7.1-6c-1.4-2.5-1.4-5-0.8-7.5
	c1.2-4.5,10.1-8.6,13.3-12.2c4.9-5.5,6.7-10.1,4-17.1c-3.9-9.9-18.8-17.9-27.7-21.8c-4.1-1.8-6.4-1.9-9.6-2.9
	c6.5,3.8,13.4,6.9,16.7,15.4c2.8,7.1,0.4,9.8,0.5,16c0,2.9,3.8,4.3,5.5,6.1c1.5,1.6,1.3,2.8,0.2,4.9c-0.1-2-1-3.4-2.5-4.5
	c-2.5-1.8-5.2-1.4-6.5-5c-2-5.5,2-10.7-2.5-16.9c-3.4-4.6-7.9-9.8-13.9-10c-2.9-0.1-5,0.4-8.1,1.3l-4.1-4.9l-0.1-0.1
	c-8.3-7.6-14-13.8-25.6-19c-11.6-5.2-17.4-6-30.7-5.7c-13.3,0.3-26.6,1.4-42,14.7c-15.4,13.3-55.2,64.3-64.9,70.7
	c-9.6,6.5-11.8,8.6-23.8,8.6s-30.9-17.1-31.6-38.4c-0.7-21.3-1-28.9,13.8-54.6c14.8-25.7,41.7-33.6,61.6-36.2
	c19.9-2.7,31.9,4.4,46.6,4.4c14.7,0,29.3-2.5,33.6-14.2c-2.1,1.3-4.9,2.7-12.8,2.2c-7.9-0.4-18.9-9.6-31.2-15.7
	c-12.3-6.1-26.1-6.9-43.7-7.2s-39.6,1-61.4,12.8S30.1,42.1,17.4,65.1c-12.6,23-14.5,41.8-12.5,69.7s10.6,48.6,27.2,69
	s33.1,30.4,62.9,34.1l6.3-27.7l-11.2,16.1l0.3-17.9L80.2,221l-4.4-17.1l-8.2,13.7l-4.1-19.1l-11.9,9.6l3.8-15.7l-15.8,1.7l7.2-10.9
	l-14.4,0.2l8.4-14.6l-12.7-2l10.2-13.3l-15.6-4.6l12.9-12.4l-12.8-10.4l10-7.8L23.5,106l10-11.6l-3.7-15.3l8.4-7.4l2.5-17.5l9.5-4.8
	l8.2-13.6l15.1-1.6L80.8,22L96,22.8l14.3-7.8l14.8,3.5l16.9-5.1l12.5,2.9l16.3,2.4l15.7,12.6l-24.1-8.4l-12.1,5.8l-10-6.1l-6.9,4.7
	l-12.2,1.2l-11-0.7l-8,9.8l-16.3,0.2L80,50.8l-14.5,5.1L64.2,71l-10.4,8.1l3.5,14.2l-9,14.8l6.9,12.9l-6.8,11.8l9,5.9l-2,19
	l12.5,3.2l2.8,14.1l13.7-1.4l8.5,9.7l10.5-10.2c19.1-9.5,27-14.9,41.9-31c17-18.3,26.7-35.3,49.3-47.9c16.2-9,29.4-12.2,47.6-9.1
	c17.1,3,22.8,13.2,35.4,24c1.3-2.4,1.6-3.1,3.8-4.8C280.6,107.3,279.5,110.6,279.2,113.6z"/>
</svg>
