<?xml version="1.0" encoding="utf-8"?>
<!-- Generator: Adobe Illustrator 25.2.1, SVG Export Plug-In . SVG Version: 6.00 Build 0)  -->
<svg version="1.1" id="kaios" xmlns="http://www.w3.org/2000/svg" xmlns:xlink="http://www.w3.org/1999/xlink" x="0px" y="0px"
	 viewBox="0 0 700 250" style="enable-background:new 0 0 700 250;" xml:space="preserve">
<style type="text/css">
	.st0{fill:#6F02B5;}
</style>
<path class="st0" d="M607.7,105.5H586c-6.9,0-12.6-5.6-12.6-12.6c0-7.6,7-12.1,14-12.6c8.5-0.7,31.9-0.2,40.2,0
	c9.5,0.3,17.6-7.3,17.9-16.9c0.3-9.6-7.3-17.6-16.9-17.9c-3.2-0.1-32-0.9-44,0c-26.3,2.1-46.1,22.4-46.1,47.4
	c0,26.2,21.3,47.4,47.4,47.4h21.7c7.8,0,14.4,6.7,14.4,14.7c0,9.1-7.9,13.8-15.7,14.4c-10,0.8-40.1,0.2-50.8,0
	c-9.6-0.2-17.6,7.4-17.9,17c-0.2,9.6,7.4,17.6,17,17.9c2.6,0.1,18.5,0.5,33.2,0.5c8.3,0,16.2-0.1,21.1-0.5
	c27.7-2.1,47.9-22.8,47.9-49.1C656.9,127.7,634.9,105.5,607.7,105.5 M447.2,170.4c-24.9,0-45.2-20.3-45.2-45.2S422.3,80,447.2,80
	s45.2,20.3,45.2,45.2S472.2,170.4,447.2,170.4z M447.2,45.4c-44,0-79.7,35.7-79.7,79.7c0,44,35.7,79.7,79.7,79.7
	c44,0,79.7-35.7,79.7-79.7C527,81.1,491.3,45.4,447.2,45.4 M241,172.8c-12.8,0-23.2-10.4-23.2-23.2s10.4-23.2,23.2-23.2
	c12.8,0,23.2,10.4,23.2,23.2C264.2,162.4,253.8,172.8,241,172.8z M241,94.4c-30.5,0-55.3,24.8-55.3,55.3c0,30.5,24.8,55.3,55.3,55.3
	c9.5,0,18.5-2.4,26.3-6.6c2.9,4,7.6,6.6,13,6.6c8.8,0,16-7.2,16-16v-36.8c0-0.8,0.1-1.6,0.1-2.5C296.3,119.1,271.5,94.4,241,94.4
	 M146.5,94.3c13.5,0,24.4-10.9,24.4-24.4S160,45.4,146.5,45.4s-24.4,10.9-24.4,24.4S133,94.3,146.5,94.3 M122.9,102.2
	c-5.7-8.2-17.1-10.2-25.3-4.5c-8.2,5.7-10.2,17.1-4.5,25.3l51.9,74.2c5.7,8.2,17.1,10.2,25.3,4.5c8.2-5.8,10.2-17.1,4.5-25.3
	L122.9,102.2 M61.6,45.4c-10.2,0-18.5,8.3-18.5,18.5v122.5c0,10.2,8.3,18.5,18.5,18.5s18.5-8.3,18.5-18.5V63.9
	C80.1,53.7,71.8,45.4,61.6,45.4 M331.7,94.4c-10.2,0-18.4,8.2-18.4,18.4v73.8c0,10.2,8.2,18.4,18.4,18.4c10.2,0,18.4-8.2,18.4-18.4
	v-73.8C350.1,102.6,341.8,94.4,331.7,94.4"/>
</svg>
