<?xml version="1.0" encoding="utf-8"?>
<!-- Generator: Adobe Illustrator 25.2.1, SVG Export Plug-In . SVG Version: 6.00 Build 0)  -->
<svg version="1.1"
	 id="nix-snowflake" inkscape:version="0.92.0 r15299" xmlns:cc="http://creativecommons.org/ns#" xmlns:dc="http://purl.org/dc/elements/1.1/" xmlns:inkscape="http://www.inkscape.org/namespaces/inkscape" xmlns:rdf="http://www.w3.org/1999/02/22-rdf-syntax-ns#" xmlns:sodipodi="http://sodipodi.sourceforge.net/DTD/sodipodi-0.dtd" xmlns:svg="http://www.w3.org/2000/svg"
	 xmlns="http://www.w3.org/2000/svg" xmlns:xlink="http://www.w3.org/1999/xlink" x="0px" y="0px" viewBox="0 0 401.4 348.1"
	 style="enable-background:new 0 0 401.4 348.1;" xml:space="preserve">
<style type="text/css">
	.st0{fill-rule:evenodd;clip-rule:evenodd;fill:url(#path3336-6_4_);}
	.st1{fill-rule:evenodd;clip-rule:evenodd;fill:url(#path3336-6_5_);}
	.st2{fill-rule:evenodd;clip-rule:evenodd;fill:url(#path3336-6_6_);}
	.st3{fill-rule:evenodd;clip-rule:evenodd;fill:url(#path3336-6_7_);}
	.st4{fill-rule:evenodd;clip-rule:evenodd;fill:url(#path4260-0_3_);}
	.st5{fill-rule:evenodd;clip-rule:evenodd;fill:url(#path4260-0_4_);}
	.st6{fill-rule:evenodd;clip-rule:evenodd;fill:url(#path4260-0_5_);}
</style>
<g id="logo" transform="translate(-156.33871,933.1905)" inkscape:groupmode="layer" inkscape:label="gradient-logo" sodipodi:insensitive="true">
	
		<linearGradient id="path3336-6_4_" gradientUnits="userSpaceOnUse" x1="521.8618" y1="-1040.0598" x2="611.3521" y2="-1194.8368" gradientTransform="matrix(0.8 0 0 -0.8 -188.8829 -1570.3114)">
		<stop  offset="0" style="stop-color:#699AD7"/>
		<stop  offset="0.2435" style="stop-color:#7EB1DD"/>
		<stop  offset="1" style="stop-color:#7EBAE4"/>
	</linearGradient>
	<path id="path3336-6" inkscape:connector-curvature="0" sodipodi:nodetypes="cccccccccc" class="st0" d="M278.9-754.9l97.8,169.3
		l-44.9,0.4l-26.1-45.5l-26.3,45.3l-22.3,0l-11.4-19.8l37.4-64.4l-26.6-46.3L278.9-754.9z"/>
	
		<linearGradient id="path3336-6_5_" gradientUnits="userSpaceOnUse" x1="443.2359" y1="8.6242" x2="532.7262" y2="-146.1528" gradientTransform="matrix(0.4 0.6928 0.6928 -0.4 91.322 -1163.5536)">
		<stop  offset="0" style="stop-color:#699AD7"/>
		<stop  offset="0.2435" style="stop-color:#7EB1DD"/>
		<stop  offset="1" style="stop-color:#7EBAE4"/>
	</linearGradient>
	<path id="path3336-6_1_" inkscape:connector-curvature="0" sodipodi:nodetypes="cccccccccc" class="st1" d="M314.2-824.7
		l-97.8,169.3l-22.8-38.7l26.4-45.3l-52.3-0.1l-11.2-19.3l11.4-19.8l74.5,0.2l26.8-46.2L314.2-824.7z"/>
	
		<linearGradient id="path3336-6_6_" gradientUnits="userSpaceOnUse" x1="-347.0123" y1="-1632.4939" x2="-257.522" y2="-1787.2709" gradientTransform="matrix(0.4 -0.6928 -0.6928 -0.4 -681.2282 -1530.8521)">
		<stop  offset="0" style="stop-color:#699AD7"/>
		<stop  offset="0.2435" style="stop-color:#7EB1DD"/>
		<stop  offset="1" style="stop-color:#7EBAE4"/>
	</linearGradient>
	<path id="path3336-6_2_" inkscape:connector-curvature="0" sodipodi:nodetypes="cccccccccc" class="st2" d="M321.7-689.3l195.5,0
		l-22.1,39.1l-52.4-0.1l26,45.4l-11.2,19.3l-22.8,0l-37-64.6l-53.4-0.1L321.7-689.3z"/>
	
		<linearGradient id="path3336-6_7_" gradientUnits="userSpaceOnUse" x1="-1373.1382" y1="-127.5599" x2="-1283.6478" y2="-282.3368" gradientTransform="matrix(-0.8 0 0 0.8 -612.7117 -678.1752)">
		<stop  offset="0" style="stop-color:#699AD7"/>
		<stop  offset="0.2435" style="stop-color:#7EB1DD"/>
		<stop  offset="1" style="stop-color:#7EBAE4"/>
	</linearGradient>
	<path id="path3336-6_3_" inkscape:connector-curvature="0" sodipodi:nodetypes="cccccccccc" class="st3" d="M435.5-763.5
		l-97.8-169.3l44.9-0.4l26.1,45.5l26.3-45.3l22.3,0l11.4,19.8l-37.4,64.4l26.6,46.3L435.5-763.5z"/>
	
		<linearGradient id="path4260-0_3_" gradientUnits="userSpaceOnUse" x1="-270.7159" y1="-1475.0804" x2="-182.8135" y2="-1630.4589" gradientTransform="matrix(0.8 0 0 -0.8 446.3535 -1919.2628)">
		<stop  offset="0" style="stop-color:#415E9A"/>
		<stop  offset="0.2317" style="stop-color:#4A6BAF"/>
		<stop  offset="1" style="stop-color:#5277C3"/>
	</linearGradient>
	<path id="path4260-0" inkscape:connector-curvature="0" sodipodi:nodetypes="cccccccccc" class="st4" d="M278.9-754.9l97.8,169.3
		l-44.9,0.4l-26.1-45.5l-26.3,45.3l-22.3,0l-11.4-19.8l37.4-64.4l-26.6-46.3L278.9-754.9z"/>
	
		<linearGradient id="path4260-0_4_" gradientUnits="userSpaceOnUse" x1="-1296.8418" y1="29.8536" x2="-1208.9395" y2="-125.5247" gradientTransform="matrix(-0.4 0.6928 0.6928 0.4 -136.1876 6.5832)">
		<stop  offset="0" style="stop-color:#415E9A"/>
		<stop  offset="0.2317" style="stop-color:#4A6BAF"/>
		<stop  offset="1" style="stop-color:#5277C3"/>
	</linearGradient>
	<path id="path4260-0_1_" inkscape:connector-curvature="0" sodipodi:nodetypes="cccccccccc" class="st5" d="M392.3-829.5l-195.5,0
		l22.1-39.1l52.4,0.1l-26-45.4l11.2-19.3l22.8,0l37,64.6l53.4,0.1L392.3-829.5z"/>
	
		<linearGradient id="path4260-0_5_" gradientUnits="userSpaceOnUse" x1="-2087.0898" y1="-1611.2645" x2="-1999.1876" y2="-1766.6428" gradientTransform="matrix(-0.4 -0.6928 -0.6928 0.4 -1512.9578 -1460.6141)">
		<stop  offset="0" style="stop-color:#415E9A"/>
		<stop  offset="0.2317" style="stop-color:#4A6BAF"/>
		<stop  offset="1" style="stop-color:#5277C3"/>
	</linearGradient>
	<path id="path4260-0_2_" inkscape:connector-curvature="0" sodipodi:nodetypes="cccccccccc" class="st6" d="M400-693.8l97.8-169.3
		l22.8,38.7l-26.4,45.3l52.3,0.1l11.2,19.3l-11.4,19.8l-74.5-0.2l-26.8,46.2L400-693.8z"/>
</g>
</svg>
