<?xml version="1.0" encoding="utf-8"?>
<!-- Generator: Adobe Illustrator 25.2.1, SVG Export Plug-In . SVG Version: 6.00 Build 0)  -->
<svg version="1.1"
	 id="open-bsd" xmlns:cc="http://creativecommons.org/ns#" xmlns:dc="http://purl.org/dc/elements/1.1/" xmlns:rdf="http://www.w3.org/1999/02/22-rdf-syntax-ns#" xmlns:svg="http://www.w3.org/2000/svg"
	 xmlns="http://www.w3.org/2000/svg" xmlns:xlink="http://www.w3.org/1999/xlink" x="0px" y="0px" viewBox="0 0 670 138"
	 style="enable-background:new 0 0 670 138;" xml:space="preserve">
<style type="text/css">
	.st0{fill:#1E1812;}
	.st1{fill:#CF4229;}
	.st2{fill:#F2CA30;}
</style>
<g>
	<path class="st0" d="M106.6,138.2c-2-0.5-4.6-2.3-5.6-3.9c-0.3-0.6-0.7-1-0.9-1c-0.1,0-0.4-0.5-0.5-1.1s-0.4-1.4-0.7-1.6
		c-0.4-0.5-2.9-0.5-43.1-0.5c-46.2,0-43.9,0.1-46.8-1.6c-0.7-0.4-1.5-1-1.8-1.4c-0.3-0.4-1-0.9-1.4-1.1c-2.2-1.2-4.6-4-5.2-6.4
		c-0.8-3.1-0.2-9.5,1-10.5c0.2-0.2,0.4-0.5,0.4-0.7c0-0.2,0.5-0.8,1.1-1.4c3.3-3.1,5.2-3.6,13.5-3.6c4.7,0,6.1-0.1,6.2-0.4
		c0.1-0.2-0.9-1.5-2.3-2.9c-1.3-1.4-2.8-3.1-3.2-3.7c-0.4-0.7-1-1.5-1.3-1.8c-0.3-0.3-0.9-1.2-1.2-2c-0.4-0.7-0.9-1.6-1.1-1.9
		c-1.2-2-2.7-6.2-2.7-7.3c0-0.4-0.3-1.6-0.6-2.7c-0.8-2.4-0.8-9.3-0.1-12.5c0.3-1.2,0.5-2.8,0.6-3.6c0.1-1.4,1-5.1,1.7-6.6
		c0.1-0.3,0.3-1,0.4-1.5c0.3-1.5,2.2-6.2,3.2-7.9c0.1-0.2,0.4-0.8,0.6-1.2c0.2-0.4,0.5-1.1,0.7-1.5c0.2-0.4,0.7-1.2,0.9-1.8
		c0.3-0.6,0.8-1.5,1.2-2c0.4-0.5,0.7-1.1,0.7-1.2c0-0.1,0.8-1.3,1.7-2.6c4.1-5.6,8.9-10.9,14-15.3c2.8-2.4,8.6-6.7,9.4-7
		c0.3-0.1,0.8-0.4,1.1-0.7c0.3-0.3,1.9-1.2,3.5-2c1.6-0.8,3.2-1.7,3.6-2c0.4-0.3,1.4-0.8,2.3-1.1c0.8-0.3,2.1-0.9,2.8-1.2
		c2.7-1.2,7.3-2.8,9.6-3.3C78.6,3.1,79.3,3,88.7,3c9.5,0,9.4,0,19.2,2.5c0.6,0.2,1.5,0.5,1.9,0.7c0.5,0.3,1,0.5,1.2,0.5
		c0.5,0,4.5,1.8,6.4,2.8c1,0.6,2,1.1,2.1,1.1c0.1,0,0.5,0.3,0.8,0.6c0.3,0.3,0.7,0.6,0.9,0.6c0.2,0,1.6,1,3,2.2
		c2.7,2.2,5.2,4.8,7.3,7.5c2,2.6,5.4,9.9,5.4,11.5c0,1.7,0.4,1.8,4.5,1.5c5.2-0.4,11.3-1.2,19.5-2.5c3.9-0.6,6.3-0.2,8.8,1.4
		c0.9,0.6,0.5,0.7,5.2-0.7c5.6-1.6,14.8-1.3,19.2,0.6c0.3,0.1,1.4,0.5,2.3,0.8c0.9,0.3,2.7,1.2,3.9,2c2.3,1.5,6.5,5.4,6.5,6
		c0,0.2,0.2,0.5,0.5,0.7c0.3,0.2,0.9,1.4,1.5,2.7s1.2,2.5,1.3,2.7c0.5,0.9,1.3,0.7,2.6-0.7c1.5-1.5,6.2-5.1,8.6-6.7
		c1.3-0.8,2.8-1.6,6.9-3.8c1.6-0.8,3.6-1.7,4-1.7c0.2,0,0.7-0.2,1.2-0.4c2.2-1.2,9.7-2.8,14.7-3.2c8.8-0.7,16.8,1.1,22.6,5.3
		c1.6,1.2,1.8,1.2,3.1,0.3c2.1-1.5,3.2-1.8,7.8-2c2.5-0.1,5.4-0.4,6.6-0.6c1.2-0.2,3.9-0.5,6.1-0.6c4.7-0.4,7-0.7,14.8-2.1
		c2.8-0.5,6-0.2,7.9,0.8c0.9,0.5,2,1.2,2.5,1.7c0.9,0.9,1.5,1,2.7,0.4c2.6-1.3,7.9-2.8,11.8-3.2c5.7-0.6,11.4,0.3,16.1,2.5
		c2.1,1,3,1.6,4.8,3.5c2.4,2.4,4.1,5.4,4.5,7.6c0.1,0.7,0.5,2.1,0.7,3c0.6,2.1,0.5,5.5-0.3,7.5c-0.2,0.7-0.5,1.6-0.5,2.1
		c0,0.9-2.8,9.5-3.3,10.2c-0.1,0.2-0.4,0.9-0.6,1.6s-0.5,1.5-0.6,1.6c-0.5,0.6-1.3,3.5-1,3.8c0.1,0.1,1.3,0.8,2.7,1.5
		c1.3,0.7,2.9,1.6,3.5,2.2c2.2,1.9,2.1,3.6,2-25.6l-0.1-26.2l-2.8-0.2c-1.6-0.1-3.3-0.3-3.7-0.4c-2.4-0.6-4.7-2.5-6.3-5.2l-1.1-1.8
		v-4c0-3.9,0-4.1,0.9-5.8c1.7-3.3,3.8-4.8,7.6-5.6c3.4-0.7,48.7-0.7,59.3,0c7.3,0.5,12.6,1.1,15.1,1.8c0.8,0.2,2,0.5,2.7,0.6
		c1.6,0.3,7.8,2.4,9.5,3.3c0.8,0.4,1.6,0.7,1.8,0.7c0.2,0,0.6,0.2,0.7,0.4c0.2,0.2,0.9,0.7,1.6,1c0.7,0.3,1.9,1.2,2.8,1.8
		c0.8,0.7,1.8,1.4,2.2,1.7c0.9,0.6,3.7,3.8,4.5,5.2c0.8,1.3,1.4,1.1,2.6-0.9c0.5-0.9,1.7-2.4,2.6-3.4c0.9-0.9,1.7-1.8,1.7-1.9
		c0-0.4,4.2-3.8,5.7-4.6c0.8-0.4,1.9-1.1,2.5-1.6c0.6-0.4,1.3-0.8,1.5-0.8c0.2,0,0.5-0.2,0.7-0.4c0.2-0.2,0.8-0.5,1.3-0.7
		c2.5-0.9,5.7-1.9,7.4-2.4c1.1-0.3,2.3-0.6,2.7-0.8c0.4-0.1,2-0.4,3.6-0.6c1.6-0.2,3.8-0.5,4.9-0.6c2.9-0.4,9.8-0.4,12,0
		c1,0.2,3.2,0.5,4.9,0.7c1.8,0.2,4.8,0.8,6.8,1.3c2,0.5,3.9,1,4.3,1.1c0.5,0.1,1-0.1,2-1c2.2-1.9,4.4-2.5,9.3-2.5
		c3.5,0,4.5,0.1,6,0.6c1,0.4,2,0.8,2.1,0.9c0.2,0.1,11.9,0.3,26.1,0.3c29.2,0,34.9,0.2,45.4,1.8c1.2,0.2,2.5,0.5,2.7,0.6
		c0.3,0.1,1.2,0.3,2.1,0.4c0.9,0.1,2.1,0.4,2.7,0.6c0.6,0.2,2.8,1,4.9,1.7c2.1,0.7,4,1.4,4.2,1.5c0.2,0.1,0.6,0.3,0.9,0.3
		c0.4,0,0.9,0.3,1.2,0.6c0.3,0.3,0.8,0.6,1.2,0.6c0.4,0,0.8,0.1,0.9,0.3c0.2,0.2,1.4,0.8,2.7,1.5c1.3,0.7,2.6,1.4,2.8,1.7
		c0.2,0.3,0.5,0.5,0.6,0.5c0.4,0,3,1.8,5.1,3.6c2.8,2.3,4.6,4.1,7.3,7.3c2,2.4,4.7,6.5,5.1,7.7c0.1,0.4,0.4,1,0.6,1.2
		c0.8,0.9,2.7,6.2,3.9,10.9c0.7,2.8,0.8,3.4,0.8,10.5c0,5.4-0.1,8-0.4,9c-0.2,0.8-0.6,2.2-0.8,3.1c-0.5,2.1-1.5,5.2-2.2,6.8
		c-0.3,0.7-0.6,1.4-0.6,1.7s-0.1,0.6-0.3,0.7c-0.2,0.1-0.7,1-1.2,2.1s-1.4,2.7-2.1,3.7c-0.7,1-1.2,1.9-1.2,2c0,0.3-3,3.8-3.5,4.1
		c-0.2,0.1-0.4,0.4-0.4,0.6c0,0.4-1.2,1.5-4.9,4.7c-2.1,1.8-5.3,4.1-8.4,5.9c-0.7,0.4-1.1,0.9-1,1.2c0.1,0.4,1.2,0.5,10.4,0.7
		c6.7,0.1,10.8,0.3,11.7,0.5c1.6,0.4,4.1,2,4.7,2.9c0.3,0.4,0.7,0.7,0.9,0.7c1.1,0,4,2.8,5,4.8c0.6,1.2,0.6,1.9,0.7,5.9
		c0,3.3-0.1,4.7-0.4,4.9c-0.2,0.2-0.4,0.6-0.4,0.8c0,1.3-4.3,5-6.4,5.6c-0.5,0.1-113.6,0.3-251.3,0.4l-250.4,0.2l-1.1,2.3
		c-1.6,3.2-3.8,5.1-6.9,5.7C149.5,138.9,109.4,138.9,106.6,138.2L106.6,138.2L106.6,138.2z"/>
	<g>
		<path id="path6235" class="st1" d="M151.6,111.2c-1.4,2.9-4,9.4,1.5,9.1c159.5,0.7,319,0.1,478.6,0.3c7.6,0,15.3,0,22.9,0
			c1.4-3.1,4.3-8.4,1.2-10.4c-167.9,0-335.8-0.1-503.7-0.2l-0.4,0.9L151.6,111.2z"/>
		<path id="path5871" class="st1" d="M8.1,111.2c-1.1,2.6-4.2,8.7,0.7,9.1c30.5,0.2,61.1,0.7,91.5-0.2c3-2.1,3-6.7,3.1-10.1
			c-31.6,0-63.2,0-94.8,0l-0.4,0.9C8.2,110.9,8.1,111.2,8.1,111.2z"/>
		<g>
			<path id="path6207" class="st1" d="M355.6,12.5c-1,3.5,0.6,7.3,4.6,6.7c3.8,0.1,9.8,0.9,9.2,6.1c0,21.9,0.7,44.1-0.2,65.8
				c-2.1,5.4-11,2.1-13.5,5.7c-0.9,3.2-0.1,7.9,4.2,6.9c20.9-0.1,41.9,0.5,62.7-0.6c13.5-1.7,29.3-6.1,34.9-19.9
				c3.9-10.8-3.2-22-13-26.5c-2.2-1.6-7.2-2.5-8.1-3.6c9.9-2.7,19.2-12.6,16-23.5c-3.1-12.7-17.7-16.8-29-18.4
				c-22.5-1.2-45.1-0.3-67.7-0.6l0,1L355.6,12.5L355.6,12.5z M406,19.5c6.9-1,14.8,3.6,14.6,11.2c0.7,6.4,0.4,15.4-7.3,17.4
				c-4,1.3-8.3,1.3-12.4,1.6c0.6-9.6-0.8-19.9,0.9-29.2C402.9,19.7,404.4,19.4,406,19.5z M402,59.1c8.5-0.3,19.7,1.9,22.2,11.4
				c2.5,8.4,0.9,20.3-9.1,22.9c-4.3,0.4-11,2.6-13.9-1.6C400.7,81,401,70,400.8,59.1h1H402z"/>
			<path id="path6169" class="st1" d="M540.3,12.5c-1.1,3.5,0.7,7.4,4.7,6.8c3.7,0,9.4,1.2,8.3,6.1c0,22,0.6,44.4-0.3,66.3
				c-2.8,3.8-8.4,3.3-12.6,3.9c-1,3.7-0.5,9.3,4.6,8.1c20.3-0.2,40.7,0.8,60.9-0.8c18.3-2.2,37.6-11,45.2-28.8
				c4.6-10.3,5-22.7,1.1-33.2c-6.5-17.9-25.8-27.3-43.7-29.5c-22.3-1.7-44.8-0.3-67.2-0.8C539.7,9.8,540.7,11.9,540.3,12.5z
				 M591.7,19.9c10.5-0.5,20.9,5.2,25.1,14.9c5.6,11.6,5.2,25.1,3.1,37.6c-1.8,10.6-10.4,20.3-21.8,21c-4-0.3-10,2.2-12.8-1.7
				c0.4-23.5-0.7-47.3,0.5-70.7C587.7,20.4,589.6,19.8,591.7,19.9z"/>
			<path id="path6151" class="st1" d="M531.8,8.4c-2.7-0.4-3.9,2.3-4.9,3.8c-8.9,0.4-17.1-4.7-26.2-3.7c-15-0.9-32.8,4.7-38,20.2
				c-2.8,9.1-1.1,19.9,6.6,26c12.5,11.8,30.7,13.7,44.8,22.4c7.2,4.7,3.1,15.9-4.3,17.8c-12.4,4-27.7-0.4-34.5-12
				c-3.7-3.9-3.2-10.2-6.9-13.9c-3.4-1.5-9.3-0.7-8.1,4.4c0,10.4-1,21.1,0.5,31.3c1.9,2.1,6.9,1.8,8.6,0.2c1.1-5.9,7.5-2,11.1-1.4
				c17.3,4.1,38,4.2,52.5-7.5c10.1-8,12.9-23.6,5.3-34.2c-8.9-12.9-25.9-15.2-39.2-21.7c-7.1-2.1-18.8-7.7-13.2-16.9
				c6.6-7.7,19-6.1,27.3-2c7.7,4.1,12.2,11.8,15.8,19.3c3.1,2.6,10.4,1.6,9-3.7c0-8.9,0.6-18-0.3-26.8
				C536.3,8.2,533.8,8.4,531.8,8.4L531.8,8.4z"/>
		</g>
		<g>
			<path id="path5937" class="st2" d="M84.9,9.5c-25,0.7-48.5,16.2-60.5,37.7c-6.9,12.8-11.2,30.3-2,43.1
				c10.6,15.3,31.9,17.9,49.1,14.7c24.9-4.5,46.8-22.7,55.7-46.4c5.1-13.4,3.5-31.2-8.8-39.9C109.3,11,96.7,8.8,84.9,9.5z
				 M87.1,18.8c8-0.8,15.6,6,14.1,14.3c-0.8,14.5-6.2,28.5-13,41.2c-6,11-16.2,23.1-30.1,22.2c-7.6,0.2-13-7.1-12.4-14.4
				c2-18.9,9-38.1,21.2-52.7C72.1,23.5,79,18.7,87.1,18.8z"/>
			<path id="path5889" class="st2" d="M310.6,38.4c-10.8,2.2-21.9,2.6-32.7,4.1c-2.6,2.3-1.9,8.8,2.6,8.2c2.2,0.1,7,0,4.2,3.7
				c-4.5,15.7-11.5,31-15.5,46.9c1.5,4.6,8.4,1.5,11.9,2.4c4.3-1.2,12.5,2.8,13.3-3.3c5.7-16.4,12.2-34.1,26.1-45.1
				c1.4-1.1,6.2-4.1,6.4-1.5c-4.8,12.9-11.5,24.9-13.8,38.6c-1.3,7.1,5.3,12.9,12.2,12.4c12.7,1.1,23.1-8.2,29.3-18.3
				c1.5-3.9-3.9-5.8-6.8-5.5c-3.4,2.9-5.7,7.2-9.5,9.3c4-12.8,11.8-24.7,13.6-38.1c1.6-7.8-5.3-15.1-13.2-13.9
				c-11.6-1.5-21.4,6.2-28.6,14.3c0.8-4.5,5.7-9.3,3.3-13.8C312.5,38.4,311.6,38.3,310.6,38.4z"/>
			<path class="st2" d="M260.9,39.7c-4.4-1.9-9.3-1.3-14-1.3c-21,2.3-40.8,19-44.4,40.1c-1.8,9.8,2.9,20.4,12.4,23.9
				c14.7,6.7,33.3,2,43.1-10.7c2.3-2.4,6.9-7.7,2-10c-3.7-3-8.3-0.8-10.3,3c-4.4,5.3-13.8,10.1-19.7,4.4c-1.8-2.6-2.1-6.8-0.8-9.4
				c14.7-2.4,31.5-6.7,39.8-20.2C273.8,52.2,269.4,41.8,260.9,39.7z M248.6,60.9c-1.5,2-4.6,5-5.5,5.2c-0.2,0.1-0.6,0.3-1,0.6
				c-0.6,0.5-4.3,2.5-5.7,3c-0.3,0.1-1.3,0.5-2.1,0.9c-0.8,0.4-2.1,0.8-2.8,0.9c-0.7,0.2-1.6,0.4-2,0.5l-0.7,0.2l0.6-1.6
				c0.3-0.9,0.7-2,0.8-2.4c0.1-0.4,0.5-1.6,1-2.6c0.5-1,0.9-2,0.9-2.2s0.1-0.5,0.3-0.7c0.2-0.2,0.8-1.3,1.4-2.5
				c0.6-1.2,1.3-2.6,1.6-3c0.6-1.2,2.6-3.9,3.4-4.9c0.4-0.4,1.2-1.4,1.9-2.2c0.7-0.7,1.4-1.3,1.6-1.3c0.2,0,0.5-0.3,0.7-0.6
				c0.4-0.7,4.5-2.4,5.9-2.4c1.5,0,3.1,0.8,3.6,1.8C253.7,50.2,251.9,56.5,248.6,60.9z"/>
			<path class="st2" d="M201.4,48.2c-5.4-11.4-21.5-12.3-31.5-6.8c-1.3,0.5-4.1,2-5,2.7c1.8-3.2,0.5-6.6-3.7-5.7
				c-10.5,1.8-21.2,2.7-31.8,3.9c-0.4,5.1-0.8,10,5.8,8.7c2.7-0.3,3.9,1.3,2.1,3.7c-6.3,20.9-13.1,42-20.2,62.8
				c-1,4.5-5.4,4.2-9,4.5c-3.4,1.8-2.5,9.6,2.3,8.4c13.3,0.1,26.9,0.8,40.1-0.4c3.1-2.6,1.5-9.7-3.5-8.3c-2.7-0.1-7.1-0.2-5-4.2
				c1.1-4.6,2.9-9.7,4.5-13.8c16.5,5.7,34.1-3.9,44.4-16.5C199.6,76.8,206.6,61.7,201.4,48.2z M178.5,63.6c-0.4,1.5-0.9,3.2-1.1,3.9
				s-0.6,1.9-1,2.8c-0.4,0.9-0.8,2.1-0.9,2.6c-0.1,0.5-0.5,1.4-0.8,1.9c-0.3,0.6-1.3,2.6-2.2,4.5c-0.9,1.9-1.9,3.7-2.1,3.9
				s-0.5,0.5-0.5,0.7c0,0.4-2.5,4.2-3.1,4.7c-0.3,0.2-0.5,0.5-0.5,0.7c0,0.3-3.3,3.7-4.9,5.1c-0.5,0.4-1.9,1.3-3.1,1.9
				c-2.1,1.1-2.3,1.1-5.1,1.1c-2.6,0-3.1-0.1-3.8-0.7c-1.7-1.3-1.9-1.8-1.9-3.5c0-1.6,1-5.3,2.4-9.2c0.3-0.8,0.9-2.4,1.2-3.6
				c0.4-1.2,0.8-2.3,0.9-2.4c0.1-0.2,0.5-1.2,0.9-2.4c0.3-1.1,0.9-2.5,1.2-3c0.3-0.5,0.6-1.1,0.6-1.4c0-0.5,1.6-4.3,3-7
				c0.5-1,0.9-1.9,0.9-2c0-0.4,2.4-3.8,3.7-5.1c1.7-1.8,5.5-4.8,6-4.8c0.2,0,0.5-0.1,0.6-0.2c0.5-0.5,3.5-1.3,4.9-1.3
				c1.9,0,4.1,1.2,5,2.8C179.7,55.1,179.6,60,178.5,63.6z"/>
		</g>
	</g>
</g>
</svg>
