<?xml version="1.0" encoding="utf-8"?>
<!-- Generator: Adobe Illustrator 25.2.1, SVG Export Plug-In . SVG Version: 6.00 Build 0)  -->
<svg version="1.1" id="Layer_1" xmlns="http://www.w3.org/2000/svg" xmlns:xlink="http://www.w3.org/1999/xlink" x="0px" y="0px"
	 viewBox="0 0 549.1 357.1" style="enable-background:new 0 0 549.1 357.1;" xml:space="preserve">
<style type="text/css">
	.st0{fill:#454E5F;}
	.st1{fill:#BF616A;}
	.st2{fill:#EACA8B;}
	.st3{fill:#EBEDF1;}
</style>
<g>
	<g>
		<path class="st0" d="M543.1,333.2c0.1-2.8-0.8-5.2-3.2-7c-0.7-0.5-1.6-0.8-2.2-1.4c-2-2.1-4.5-2.9-7.2-2.9c-4.4-0.1-8.8,0-13.3,0
			c2.2-1.7,4.4-3.2,6.4-4.8c2.7-2.1,5-4.7,7-7.5c2.2-3.2,4-6.6,5.2-10.4c1.1-3.6,2.2-7.2,2-11.1c-0.3-3.9,0.4-7.8-0.6-11.7
			c-1-3.6-2.1-7.2-4.1-10.4c-1.5-2.5-3.5-4.8-5.3-7.2c-2.8-3.5-6.5-6-10.4-8.3c-2.1-1.2-4.3-2.2-6.5-3.1c-2.6-1-5.2-2-7.9-2.7
			c-2-0.6-4.1-0.9-6.2-1.1c-5-0.5-10.1-1.3-15.1-1.3c-13.2-0.2-26.3-0.1-39.5-0.1c-0.7,0-1.4-0.2-2.1-0.4c-1.7-0.6-3.3-1.2-5.1-1
			c-1.3,0.1-2.6,0-4,0c-2.2,0-4.1,0.8-5.8,2.2c-0.3,0.2-0.8,0.4-1.1,0.3c-2.6-0.5-5.2-1.2-7.8-1.7c-2.5-0.4-5-0.7-7.5-0.8
			c-3.4-0.2-6.8,0.2-10.3,0.6c-3.2,0.4-6.2,1.2-9.3,2.1c-2.8,0.8-5.4,2.2-7.7,3.9c-2.2,1.7-4.2,3.7-6.2,5.6c-0.9,0.9-1.5,2-2.3,3.1
			c-2.7-3.9-6.3-6.6-10.4-8.6c-4.2-2-8.5-3.2-13.1-4c-6-1-12.1-1.3-18.1-1.3c-11.7-0.1-23.4,0-35.2,0c-1.8,0-3.6,0.3-5.3,0.5
			c-3.2,0.4-6.9,4.2-6.5,7.9c0.1,1,0.1,2.1,0,3.1c-0.1,1.7,0.2,3.1,1.2,4.5c1.2,1.9,2.8,3.3,5,3.8c1.3,0.3,2.7,0.3,4,0.4
			c0.7,0,1.1,0.2,1.1,0.9c0,4.8,0,9.7,0,14.5c-0.3-0.4-0.6-0.9-0.7-1.4c-0.5-3.7-2.7-6.4-5.6-8.4c-5.3-3.7-11.4-4-17.5-3
			c-2.9,0.4-5.7,1.5-8.6,2.3c-1.8-1.7-4.1-2.8-6.9-2.5c-1.8,0.2-3.6,0.5-5.4,0.7c-3.4,0.4-6.8,0.9-10.2,1.2
			c-3.6,0.4-7.1,0.7-10.7,0.9c-1.7,0.1-3.2,0.5-4.6,1.5c-0.6,0.4-1.1,0.4-1.7,0c-2.2-1.8-4.8-2.7-7.4-3.5c-5-1.4-10.1-1.3-15.2-0.5
			c-4.9,0.8-9.6,2.2-14,4.7c-2.1,1.2-4.1,2.4-6.1,3.8c-2,1.4-3.8,2.9-5.8,4.4c-0.3-0.6-0.6-1.2-0.8-1.7c-1.1-2.8-3.1-5-5.5-6.8
			c-4.4-3.5-9.7-4.7-15.2-4.9c-3.2-0.1-6.4,0.3-9.5,1.4c-0.5,0.2-1.3,0.1-1.8-0.2c-1.7-1-3.6-1.4-5.5-1.2c-4,0.5-7.9,1.2-11.9,1.8
			c-2.3,0.3-4.7,0.4-7,0.6c-0.6,0-1-0.1-1.2-0.9c-0.7-3.4-2.2-6.4-4.2-9.2c-2.5-3.4-5.5-6.3-9.1-8.5c-4-2.5-8.3-4.3-12.9-5.4
			c-2.7-0.7-5.5-1.3-8.4-1.3c-4.2,0.1-8.4-0.3-12.5,0.2c-3.9,0.4-7.6,1.5-11.4,2.6c-5.9,1.6-11.3,4.5-16.5,7.8
			c-4.5,2.9-8.6,6.4-12.2,10.3c-2.9,3.2-5.7,6.4-7.9,10.2c-1.4,2.5-2.9,5-4,7.7c-1.1,2.5-1.9,5.2-2.6,7.8c-0.7,2.6-1.2,5.3-1.4,8
			c-0.3,4.5-0.1,9,1.6,13.3c1.3,3.4,3,6.5,5.4,9.2c0.9,1,1.7,2,2.8,3.2c-0.9,0-1.6,0-2.2,0c-3.1,0.1-6.3-0.4-9.3,0.7
			c-2.7,1-4.7,2.7-5.5,5.5c-0.5,1.7-0.4,3.6-0.5,5.4c-0.1,2.4,0.7,4.5,2.6,6.2c1.1,0.9,2.3,1.7,3.4,2.7c1.8,1.6,3.9,2.3,6.2,2.3
			c21.6,0,43.3,0,64.9,0c0.4,0,0.9-0.1,1.3,0c0.4,0.1,0.8,0.4,1,0.7c0.5,0.8,0.8,1.7,1.3,2.5c1.6,2.5,4.1,3.7,7,3.7
			c11.1,0.1,22.2,0.1,33.2,0c3.6,0,6.4-1.7,7.8-5.1c0.6-1.5,1.4-1.9,2.9-1.9c131.8,0,263.6,0,395.4,0c0.6,0,1.2,0,1.8,0
			c3.1-0.1,6.3-2.3,7.6-5.3C543.4,337.3,543.1,335.2,543.1,333.2z M81.1,266.3c-0.2,3-0.6,6.1-1.4,9.1c-1.2,4.6-2.7,9.1-4.3,13.5
			c-1.2,3.1-2.9,6.1-4.5,9.1c-1.7,3.3-4,6.1-6.6,8.8c-2.4,2.4-5.1,4-8.5,4.5c-2.8,0.4-5.2-0.4-4.9-3.9c0-0.4,0-0.8,0-1.2
			c-0.1-3.9,1-7.6,2-11.2c0.6-2.3,1.3-4.7,2.2-6.9c1.7-4,3.4-8,5.5-11.7c1.7-3.1,3.8-6,6.1-8.6c2.5-2.9,5.6-5.1,9.6-5.4
			C79.5,261.9,81.3,262.8,81.1,266.3z M96.3,326c-1.2-1-2.2-1.9-3.3-2.6c-1.1-0.7-2.5-1-3.7-1.5c3.6-2.9,7.3-5.7,11.2-8.8
			C99,317.4,97.7,321.5,96.3,326z M157.9,321.7c2-1.8,3.7-3.4,5.5-5c1.1,1.7,2.1,3.3,3.2,5C163.8,321.7,161,321.7,157.9,321.7z
			 M219.6,300.8c1-0.7,1.8-1.3,2.8-2.1C221.5,301.9,221.5,301.9,219.6,300.8z M249.6,321.7c0.3-0.9,0.6-1.7,1-2.7
			c0.3,1,0.6,1.8,0.9,2.7C250.8,321.7,250.3,321.7,249.6,321.7z M295.6,302.4c-1.5-0.8-3-1.5-4.4-2.3c-0.9-0.5-0.2-1.2,0-1.8
			c1.1-3.1,2.3-6.3,3.4-9.4c0.3-1,0.4-2,0.6-3c0.1-0.3,0.2-0.6,0.3-0.8c0,0,0.1,0,0.1,0C295.6,290.8,295.6,296.6,295.6,302.4z
			 M334.9,263.2c0.2-0.1,0.3-0.2,0.5-0.2c0.3,0.6,1,1.2,1,1.8c0.1,2.3,0.1,4.6,0,6.9c0,0.4-0.7,0.8-1.1,1.3
			c-0.1-0.1-0.3-0.1-0.4-0.2C334.9,269.6,334.9,266.4,334.9,263.2z M339.5,307c-0.6,1.3-1.6,2-2.9,2.3c-1.5,0.4-1.9,0-1.9-1.5
			c0-3.8,0-7.6,0-11.4c0-0.4,0-0.9,0.1-1.3c2.9,0.1,4.9,1.9,5.3,5.2C340.5,302.6,340.6,304.8,339.5,307z M370.1,282.5
			c1.1-1.4,1.4-1.4,2.1,0c0.4,0.8,0.9,1.6,1.2,2.6C372.3,284.2,371.3,283.4,370.1,282.5z M374.5,286.1L374.5,286.1L374.5,286.1
			L374.5,286.1z M412.2,310.6c-2.4,0.7-4.8,0.9-7.3,0.5c-3.7-0.6-6.9-2-9.4-4.7c-2.2-2.4-3.8-5.1-4.8-8.6c1.7,0.7,3,1.2,4.3,1.7
			c2.5,1,5,1.9,7.5,3c3.7,1.5,7.3,3.1,10.9,4.8c0.4,0.2,0.9,0.9,0.9,1.3C414.2,309.7,413.3,310.3,412.2,310.6z M401.8,262.9
			c3.3-2.3,6.7-1.5,10.1-0.6c3.7,1,8.9,6.1,9.6,9.4C414.9,268.8,408,266.7,401.8,262.9z M443,285.2c-1.6-1.8-3.2-3.4-4.5-4.8
			c1.4-0.9,2.9-1.8,4.5-2.8C443,280,443,282.5,443,285.2z M497.2,287.9c-0.3,4.5-0.6,9-2.4,13.2c-2.1,4.8-5.7,7.4-10.8,8
			c-1.7,0.2-1.9,0-1.9-1.6c0-7.1,0-14.2,0-21.4c0-7.2,0-14.3,0-21.5c0-1.5,0-1.6,1.5-1.3c2.4,0.5,4.6,1.2,6.5,2.9
			c2.6,2.3,4.3,5.1,5.3,8.4C496.8,279,497.5,283.4,497.2,287.9z"/>
		<g>
			<path class="st1" d="M128.1,334.3c0.6-1.5,1-2.7,1.5-3.9c0.1-0.2,0.4-0.3,0.7-0.4c0.4-0.1,0.9,0,1.3,0c132.3,0,264.6,0,397,0
				c0.6,0,1.1,0,2,0c-0.5,1.5-0.9,2.8-1.4,4c-0.1,0.2-0.5,0.3-0.7,0.3c-0.4,0-0.7,0-1.1,0c-132.4,0-264.7,0-397.1,0
				C129.6,334.3,129.1,334.3,128.1,334.3z"/>
			<path class="st1" d="M13.3,334.3c0.6-1.5,1-2.6,1.5-3.8c0.1-0.2,0.4-0.4,0.7-0.5c0.3-0.1,0.6,0,1,0c23,0,46.1,0,69.1,0
				c0.5,0,0.9,0,1.6,0c0.1,1.6-0.5,2.9-1.1,4.1c-0.1,0.2-0.7,0.2-1.1,0.2c-2.8,0-5.5,0-8.3,0c-20.5,0-41,0-61.4,0
				C14.6,334.3,14.1,334.3,13.3,334.3z"/>
			<g>
				<path class="st1" d="M434.8,248.9c0,7.5,0,14.8,0,22.3c-1,0-2,0.2-2.9-0.1c-0.5-0.1-0.8-0.9-1.1-1.4c-1.3-2.3-2.3-4.8-3.9-6.9
					c-2.5-3.6-5.8-6.4-9.8-8.3c-4.1-1.9-8.3-2.9-12.8-2.5c-3.2,0.3-6.3,1.2-8.8,3.2c-2.7,2.1-3.6,5.1-3.2,8.5
					c0.4,3.1,2.3,5.1,4.8,6.6c2.7,1.6,5.6,2.9,8.7,4c3.1,1.1,6.1,2.6,9.2,3.8c2.9,1.2,5.9,2.1,8.7,3.4c2.4,1.1,4.6,2.5,6.7,4
					c1.8,1.2,3.2,2.8,4.5,4.5c1.7,2.2,2.6,4.6,3.3,7.2c0.8,2.9,0.6,5.6-0.3,8.5c-0.9,3.2-2.5,5.9-4.8,8.2c-2.7,2.8-5.8,4.9-9.5,6
					c-2.3,0.7-4.7,1.5-7.1,2.1c-1.5,0.4-3.1,0.6-4.7,0.7c-3.6,0.1-7.2,0.3-10.8,0c-3.2-0.3-6.3-1.1-9.5-1.7
					c-2.1-0.4-4.1-1.1-6.1-1.5c-1.9-0.3-3.8,0-4.6,2.3c-0.4,1-2.9,1.7-3.7,1c-0.2-0.2-0.3-0.7-0.3-1.1c0-5.6,0-11.2,0-16.8
					c0-2.2,0-4.5,0-6.7c0-0.8,0.3-1.1,1.1-1.1c2.5,0.1,2.3-0.5,3.1,2.4c1,3.3,2.5,6.3,4.4,9.2c2.4,3.5,5.4,6.2,9.2,8.1
					c4.1,2.1,8.7,2.8,13.3,2.7c3.5-0.1,6.8-0.9,9.9-2.5c3.2-1.7,5.7-6.9,5-10.6c-0.6-3.4-2.6-5.5-5.5-7.2c-4.7-2.7-9.9-4.2-14.8-6.3
					c-4.2-1.7-8.4-3.5-12.4-5.6c-4.5-2.4-8.6-5.5-10.9-10.3c-0.6-1.3-1.2-2.8-1.3-4.3c-0.4-4.4,0.1-8.8,2.5-12.6
					c1.7-2.6,3.9-4.8,6.7-6.5c5.1-3.1,10.6-4.2,16.4-4.4c4-0.1,8.1-0.2,12,0.7c2.5,0.6,4.9,1.5,7.4,1.9c1.9,0.4,3.9,0.4,5.8,0.3
					c0.6,0,1.4-1.1,1.7-1.8c0.4-1,0.8-1.2,1.8-1.2C433.1,248.9,433.9,248.9,434.8,248.9z"/>
				<path class="st1" d="M365.8,290.2c-1.6-1.3-3.4-2.5-5.3-3.3c-2.7-1.2-5.5-2.1-8.4-3c-1.6-0.5-3.3-0.8-5.1-1.2
					c0.5-0.2,0.8-0.3,1.1-0.4c3.5-0.8,6.9-1.8,10.1-3.3c2.8-1.4,5.3-3.1,6.8-5.7c2.2-3.6,2.4-7.6,0.5-11.6c-2-4.3-5.8-6.5-9.9-8.1
					c-2.1-0.8-4.4-1.1-6.5-1.7c-4.3-1.2-8.7-1.4-13-1.5c-13.9-0.1-27.8,0-41.8,0c-0.4,0-0.8,0-1.3,0.1c0,0.9,0,1.7,0,2.5
					c1.8,0.2,3.6,0.3,5.4,0.5c1.7,0.3,3.3,0.9,4.4,2.3c1.3,1.6,1.6,3.5,1.6,5.5c0,16,0,32,0,48c0,0.5,0,1,0,1.6
					c-0.4,3.5-1.4,6-5.6,6.5c-2,0.2-3.9,0.7-5.8,1.1c-0.3,2.4-0.3,2.4,2.1,2.4c13.3,0,26.6,0,40,0c3.1,0,6.2-0.4,9.3-0.7
					c1-0.1,2-0.3,3-0.5c2.6-0.5,5.3-0.9,7.8-1.6c3-0.9,5.8-2.2,8.4-4c3.2-2.2,5.7-5,7-8.7C372.6,299.6,370,293.7,365.8,290.2z
					 M325.2,258.9c0-0.8,0.1-1.7,0.3-2.5c0.3-1.3,2.1-2.9,3.8-2.9c3.4-0.1,6.8-0.4,10,1.2c1.8,0.9,3.3,2.2,4.3,3.9
					c2,3.4,1.9,7.1,1.7,10.9c-0.1,1.3-0.3,2.5-0.5,3.8c-0.7,3.4-2.8,5.5-6,6.8c-4.1,1.7-8.4,1.4-12.7,1.9c-0.9,0.1-0.9-0.5-0.9-1.2
					c0-3.8,0-7.5,0-11.3C325.2,266,325.2,262.4,325.2,258.9z M348.6,305.9c-0.5,3.5-1.9,6.5-4.8,8.7c-2,1.6-4.4,2.5-6.9,2.7
					c-2.1,0.2-4.3,0.1-6.4,0c-4-0.2-5.2-2.2-5.3-5.9c-0.1-4.2,0-8.4,0-12.6c0-4.2,0-8.4,0-12.6c0-1,0.3-1.4,1.3-1.3
					c3.9,0.4,7.8,0.4,11.6,1.3c3.6,0.8,6.7,2.8,8.6,6.3C349,296.7,349.3,301.2,348.6,305.9z"/>
				<path class="st1" d="M528.4,282.8c-0.3-2.7-0.6-5.5-1.5-8c-0.9-2.7-2.3-5.2-3.8-7.6c-1.1-1.8-2.5-3.4-4-4.9
					c-3.2-3.1-7-5.3-11-7.2c-1.4-0.7-2.9-1.2-4.5-1.6c-2.4-0.6-4.8-1-7.2-1.7c-4.2-1.1-8.5-1.4-12.8-1.5c-13.8-0.1-27.7,0-41.5,0
					c-0.4,0-0.8,0-1.3,0.1c0,0.9,0,1.6,0,2.6c1.6,0.2,3.2,0.1,4.7,0.5c1.5,0.4,3,1.1,4.3,2c1.6,1.1,1.7,3,1.7,4.8
					c0,9.8,0,19.7,0,29.5c0,7.1,0,14.2,0,21.2c0,2.4-0.9,4.5-3,5.6c-1.9,0.9-4.1,1.3-6.2,1.6c-1.6,0.3-1.7,0.1-1.6,1.8
					c0,0.2,0,0.5,0.1,0.8c0.5,0,1,0.1,1.6,0.1c13.2,0,26.3,0,39.5,0c2.1,0,4.2-0.1,6.2-0.4c3-0.4,6-1,8.9-1.5c1-0.2,2-0.4,3-0.7
					c1.9-0.6,3.9-1,5.8-1.8c2.7-1.2,5.3-2.5,7.7-4.1c2.2-1.4,4.3-3.2,6.1-5c1.4-1.4,2.4-3.2,3.7-4.8c1.9-2.5,3.1-5.5,3.9-8.5
					C528.3,290.4,528.8,286.6,528.4,282.8z M505.7,291.8c-0.1,3.7-1,7.4-2.3,10.8c-2,5.4-5.4,9.8-10.8,12.2c-2.5,1.1-5,2.2-7.9,2.1
					c-2.1-0.1-4.3,0.2-6.5,0.2c-1.8,0-3.7-0.3-4.8-2c-0.3-0.4-0.6-0.9-0.6-1.4c-0.1-2.2-0.2-4.5-0.2-6.7c0-7.5,0-15,0-22.6
					c0,0,0,0,0,0c0-8.8,0-17.6,0-26.4c0-2.2,0.8-3,3-3.6c4.2-1.2,8.3-0.6,12.4,0.4c4.8,1.1,8.5,3.8,11.4,7.6c2.3,3,3.7,6.5,4.8,10.1
					C506.1,278.8,505.8,285.3,505.7,291.8z"/>
			</g>
			<g>
				<path class="st2" d="M223.8,320.8c0.6-1.5,1.1-2.8,1.5-4.1c0.6-1.8,1.1-3.7,1.7-5.5c0.6-1.8,1.3-3.7,1.9-5.5
					c1.3-3.7,2.6-7.4,3.9-11.1c0.9-2.5,1.8-4.9,2.6-7.4c0.6-1.8,1.1-3.7,1.6-5.6c0.3-1.2-0.5-2.5-1.9-2.8c-1.6-0.4-3.3-0.5-5.1-0.8
					c0-0.7,0-1.6,0-2.5c8.6-0.4,17.1-1.4,25.8-3c-2.6,6.6-5.2,13.1-7.7,19.6c0.1,0.1,0.2,0.1,0.3,0.2c1.1-1.3,2.2-2.6,3.3-3.9
					c1.8-2,3.5-4.1,5.4-6c2.2-2.1,4.4-4.2,6.9-6c3.2-2.4,6.9-3.9,11.1-3.8c1.8,0.1,3.7,0,5.5,0.4c2.3,0.5,4.2,1.9,4.8,4.3
					c0.4,1.6,0.7,3.4,0.4,4.9c-0.6,3-1.7,6-2.7,9c-1,2.9-2.2,5.7-3.3,8.6c-1.2,3-2.6,5.9-3.8,8.9c-0.5,1.3-0.9,2.6-1.2,3.9
					c-0.3,1.4,1.2,2.5,2.6,1.9c1.4-0.7,2.8-1.6,3.9-2.7c1.5-1.5,2.8-3.2,4.3-5c0.9,0.4,1.9,0.8,3.1,1.4c-2.2,2.5-4.3,5.1-6.7,7.4
					c-1.4,1.4-2.9,2.6-4.6,3.6c-3.9,2.3-8,3.2-12.5,2.3c-1.4-0.3-2.6-0.6-3.8-1.6c-1.7-1.4-2.2-3.2-2-5.2c0.2-2,0.7-4.1,1.3-6
					c0.7-2.5,1.6-4.9,2.5-7.4c0.7-1.8,1.4-3.5,2.1-5.2c1.1-2.7,2.2-5.3,3.3-8c0.5-1.2,1-2.5,1.5-3.7c0.3-1,1-2.1,0.1-3.1
					c-1-1.1-2.4-1.7-3.8-1.1c-1.7,0.7-3.4,1.5-4.9,2.5c-3,2-5.5,4.7-7.5,7.7c-2.3,3.5-4.4,7.1-6.4,10.8c-1.5,2.8-2.8,5.7-4,8.7
					c-1.4,3.4-2.5,6.8-3.7,10.2c-0.1,0.3-0.4,0.7-0.7,0.7C234.1,320.9,229.1,320.8,223.8,320.8z"/>
				<path class="st2" d="M216.1,274.2c-4.1-2.1-8.8-2-13.2-1.4c-2.8,0.4-5.5,1.2-8.1,2.3c-2.6,1-5.1,2.4-7.4,3.9
					c-2.9,1.9-5.6,4-7.8,6.7c-1.8,2.3-3.6,4.5-5.1,6.9c-1.7,2.7-3.1,5.7-3.5,8.9c-0.3,2.3-0.4,4.7-0.4,7c0,1.2,0.4,2.4,0.9,3.4
					c0.9,2,2.2,3.7,3.9,5.2c1.7,1.6,3.7,2.5,5.8,3.4c3.3,1.3,6.8,1.7,10.3,1.5c5.1-0.3,9.8-1.8,14-4.8c3.6-2.6,6.4-5.9,9.2-9.5
					c-1.1-0.5-1.9-1.1-2.9-1.4c-0.4-0.1-1.2,0.1-1.5,0.4c-1.6,1.5-3,3.2-4.7,4.7c-1.8,1.7-3.9,3.1-6.4,3.5c-2.2,0.3-4.5,0.3-6.7,0
					c-2.1-0.3-3.5-1.8-4.4-3.7c-1-2.2-0.8-4.5-0.7-6.8c0.1-2.3,0.8-2.7,3.1-3.1c3.1-0.5,6.2-1.2,9.3-1.9c2.3-0.6,4.5-1.2,6.6-2.2
					c2.5-1.1,4.9-2.6,7.2-4c3.1-2,5.8-4.5,7.1-8C222.6,279.9,220.4,276.4,216.1,274.2z M201.1,293.5c-2.5,1.7-5.2,2.7-7.8,3.8
					c-1.3,0.6-2.8,0.7-4.6,1.1c0.9-2.4,1.6-4.6,2.5-6.7c1.4-3.5,3.2-6.9,5.5-9.9c1.9-2.5,4-4.8,7.1-5.6c1.1-0.3,2.4-0.2,3.6,0.1
					c1.3,0.3,1.9,1.3,1.9,2.8C209.3,285.5,206.2,289.9,201.1,293.5z"/>
				<path class="st2" d="M166.5,281.5c-0.4-1.5-1.2-3-2.1-4.3c-1.8-2.5-4.5-3.7-7.3-4.3c-4.6-0.9-9-0.4-13.2,1.8
					c-3.1,1.6-5.9,3.7-8.4,6.3c-0.8,0.8-1.6,1.7-2.4,2.5c-0.1-0.1-0.2-0.1-0.3-0.2c1.4-3.5,2.9-7.1,4.3-10.6c-8.4,1-16.7,2-25,3
					c0,0.8,0,1.7,0,2.4c1.8,0.2,3.5,0.4,5.1,0.7c1.3,0.2,2.3,1.5,1.9,2.8c-0.6,2.3-1.2,4.5-1.9,6.8c-0.7,2.2-1.4,4.3-2.1,6.4
					c-1.2,3.7-2.3,7.4-3.4,11.1c-0.8,2.4-1.6,4.7-2.4,7.1c-1.2,3.7-2.4,7.4-3.6,11.1c-0.6,1.9-1.2,3.7-1.9,5.6
					c-0.7,2-1.3,4.1-2.2,6.1c-0.7,1.7-2,3-4,3.2c-1.3,0.1-2.6,0.3-4,0.5c0,0.8,0,1.7,0,2.6c10.7,0,21.3,0,32,0c0-0.9,0-1.8,0-2.6
					c-1.9-0.2-3.6-0.4-5.4-0.6c-1.6-0.2-2.7-1.2-2.7-2.8c0-0.8,0-1.6,0.3-2.3c1-3.5,2.1-7,3.2-10.4c0.4-1.2,0.9-2.3,1.4-3.6
					c4,2.1,8.1,2.7,12.4,2.1c4.4-0.7,8.6-2.1,12.3-4.7c2.5-1.7,5.1-3.5,7.3-5.6c2.5-2.3,4.8-4.9,6.4-7.9c1.2-2.3,2.7-4.4,3.7-6.8
					C166.7,292.1,167.8,286.9,166.5,281.5z M149.2,293.6c-0.7,1.7-1,3.5-1.7,5.2c-0.7,1.7-1.5,3.4-2.4,5c-0.8,1.5-1.6,3.1-2.5,4.5
					c-1.9,3.1-4.2,5.9-7.2,8.1c-2.1,1.5-4.5,2.4-7.1,1.9c-0.9-0.2-2-0.3-2.8-0.8c-1.7-1.2-2.1-3.1-1.4-5.2c1-3.1,2-6.2,3.1-9.2
					c1.1-3.2,2.4-6.3,3.7-9.4c1-2.3,2.1-4.5,3.4-6.6c1.5-2.5,3.7-4.4,6.2-5.8c1.5-0.9,3.3-1.2,4.2-1.5c4.3,0.1,6.3,2.2,6.1,5.7
					C150.6,288.3,150.2,291,149.2,293.6z"/>
				<path class="st2" d="M105.8,263.3c-1.4-2.5-3.2-4.8-5.5-6.6c-1.5-1.1-3-2.3-4.7-3.2c-1.6-0.9-3.4-1.5-5.2-2
					c-2.7-0.8-5.5-1.6-8.3-1.9c-3.1-0.3-6.3-0.2-9.4-0.1c-4.4,0.1-8.6,1.3-12.7,2.6c-1.8,0.6-3.6,1.4-5.3,2.2
					c-5,2.2-9.5,5.1-13.7,8.6c-3.8,3.2-7,6.7-9.9,10.7c-2.1,2.9-3.9,6-5.3,9.3c-1.8,4.2-2.9,8.5-3.3,13.1c-0.4,3.8,0.2,7.4,1.6,11
					c1,2.5,2.7,4.6,4.4,6.5c1,1.2,2.2,2.2,3.5,3c2,1.2,4.1,2.4,6.3,3.3c2.2,0.9,4.5,1.6,6.8,2.1c3.9,0.7,7.9,0.9,11.9,0.5
					c1.5-0.2,3-0.2,4.5-0.5c3.6-0.8,7.2-1.5,10.7-2.6c2.8-0.9,5.4-2.3,8-3.7c4.3-2.3,8.2-5.2,11.8-8.5c2.8-2.6,5.4-5.5,7.6-8.6
					c1.4-1.8,2.8-3.7,3.8-5.7c1.3-2.5,2.2-5.3,3.3-7.9c1.4-3.4,1.6-7,2-10.3C108.3,270.5,107.7,266.7,105.8,263.3z M88.7,274.2
					c-0.3,1.6-0.7,3.1-1.1,4.7c-0.6,2.4-1.2,4.7-2,7c-0.8,2.3-1.7,4.5-2.7,6.6c-1.1,2.4-2.1,4.8-3.4,7.1c-1.7,2.9-3.6,5.6-5.5,8.3
					c-1.4,1.8-2.9,3.6-4.6,5.1c-1.9,1.6-4,3-6.2,4.2c-3.1,1.7-6.4,2.2-9.9,2c-4.2-0.3-8-1.5-10.2-5.5c-2-3.6-2.3-7.5-1.6-11.4
					c0.5-2.8,0.9-5.7,1.6-8.5c0.7-2.7,1.7-5.4,2.6-8.1c0.5-1.5,1-3,1.6-4.4c0.9-2.1,1.7-4.1,2.7-6.2c2.1-4.3,4.6-8.3,7.7-12
					c2.4-2.8,5-5.4,8.2-7.2c4.6-2.7,9.4-3.6,14.7-2.5c2.4,0.5,4.5,1.6,6.1,3.3c1.8,1.8,2.6,4.2,3,6.6c0.2,0.9,0.1,1.8,0.2,2.7
					c0.1,0,0.1,0,0.2,0C89.6,268.7,89.2,271.5,88.7,274.2z"/>
			</g>
		</g>
	</g>
	<g>
		<path class="st0" d="M193.8,148.7c-1,0.1-1.4,0.5-1.7,1.3c-1,2.9-2,5.8-3.2,8.6c-0.9,2.1-2.7,3.6-4.6,4.9
			c-3.9,2.7-8.4,4.1-13.1,4.2c-0.7,0-1.4,0-1.4-0.9c0-0.5,0.5-1.4,0.8-1.5c1.9-0.4,2.9-1.5,3.6-3.1c0.7-1.8,0.4-3.6,0.1-5.4
			c-0.9-4.8-2.3-9.4-4.2-13.8c-1.7-3.7-3.5-7.3-5.6-10.8c-2.1-3.6-4.4-7.1-7-10.4c-2.7-3.4-5.7-6.7-8.8-9.7c-2.1-2.1-4.6-2-7.1-0.4
			c-0.8,0.5-1.6,0.6-2.1-0.2c-0.4-0.7-0.3-1.4,0.5-2c3.2-2.5,6.6-4.7,10.6-6c4.2-1.4,8.5-2,12.8-0.5c1.2,0.4,2.3,1.1,3.3,1.8
			c5.6,3.7,11,7.6,16,12.1c1.9,1.7,4.4,1.2,5.8-1.3c0.9-1.6,1.4-3.3,2-5c0.1-0.3-0.4-1-0.7-1.2c-2.2-1.2-4.5-2.3-6.7-3.4
			c-1-0.5-2-0.9-2.9-1.4c-0.4-0.2-0.6-0.8-0.9-1.2c0.4-0.3,0.9-0.8,1.3-0.7c2.3,0.3,4.5,0.7,6.7,1c1.1,0.1,2.1,0.1,3.2,0
			c0.9-0.1,1.4-0.6,1.6-1.5c0.2-0.9-0.2-1.5-0.9-1.9c-2.6-1.8-5.2-3.5-7.8-5.3c-0.8-0.6-1.6-1.1-2.5-1.7c-1.3-0.9-1.4-2.3-1.2-3.7
			c0.2-1.1,2.9-2.1,4.2-1.6c2.6,1.1,5.1,2.2,7.7,3.2c0.2,0.1,0.5,0.2,0.7,0.2c2,0.6,2.6,0.2,3.2-1.7c0.2-0.8,0.3-1.6,0.6-2.3
			c0.5-1.4,0-2.2-1.2-2.8c-2.2-1-4.3-2-6.5-3c-0.6-0.3-1.2-0.4-1-1.2c0.2-0.8,0.8-0.9,1.5-0.8c2,0.3,3.9,0.6,5.9,0.8
			c0.6,0.1,1.2,0.1,2.1,0.1c-1.1-1.4-2-2.4-2.9-3.5c-2.9-3.5-6.4-6.3-10-9.1c-0.5-0.4-0.9-1-1-1.5c-0.3-1.9,1.1-2.7,3.4-1.8
			c1.7,0.7,3.3,1.7,4.9,2.5c3,1.5,5.9,3.2,9.4,3c1.2-0.1,2.3-0.4,3.5-0.7c0.8-0.2,0.9-0.7,0.5-1.4c-0.9-1.8-2.3-3.1-3.9-4.3
			c-0.3-0.2-0.6-0.4-0.7-0.6c-0.5-0.7-1.3-1.6-0.5-2.2c0.5-0.4,1.7-0.2,2.4,0.2c1.7,0.8,3.2,1.8,4.8,2.6c0.4,0.2,0.9,0.4,1.5,0.4
			c-1.3-1.5-2.5-3-3.8-4.4c-2.2-2.4-4.4-4.8-6.6-7.1c-0.8-0.8-0.8-2.1-0.1-2.9c0.1-0.1,0.2-0.2,0.3-0.3c1.3-1.6,1.3-1.7,3.3-1
			c1.3,0.5,2.7,1.2,3.7,2.1c2.8,2.5,5.9,4.6,9.2,6.4c0.8,0.4,2.2,1,2.7,0.6c1.2-0.7,1.6-2.2,1.4-3.6c-0.4-2.5-1.7-4.7-3.1-6.7
			c-2-2.7-4.2-5.2-6.3-7.8c-0.9-1.1-0.9-2,0-2.8c0.7-0.7,1.7-0.5,2.6,0.4c2.4,2.3,4.8,4.7,7.3,7c1.7,1.6,3.8,2.6,6.1,3.1
			c1.2,0.3,2.2,0.1,3-0.6c0.4-0.3,0.7-1.2,0.5-1.6c-0.8-2.2-1.8-4.4-2.7-6.6c-0.2-0.6-0.6-1.2-0.7-1.8c-0.1-0.5,0.1-1.1,0.4-1.4
			c0.6-0.5,1.2-0.2,1.7,0.3c1,1.3,2,2.7,3.1,3.9c0.9,1,2,1.8,3.1,2.6c0.6,0.5,1.2,0.2,1.4-0.5c0.2-0.7,0.2-1.5,0-2.2
			c-0.7-2.6-1.4-5.1-2.1-7.7c-0.7-2.2-1.6-4.4-2.1-6.6c-0.7-3,0-3.7,3.1-3.1c0.4,0.1,0.9,0.5,1.1,0.9c1.2,2.2,2.3,4.5,3.6,6.6
			c1.1,1.9,2.2,3.7,3.4,5.5c0.9,1.4,1.3,1.3,2.5,0.2c1.7-1.7,2.5-3.7,1.8-6.1c-1.4-4.5-2.8-9-4.1-13.5c-0.2-0.5-0.3-1.1-0.5-1.6
			c-0.2-0.6-0.6-1.3,0.3-1.7c0.8-0.4,1.7-0.6,2.4,0.4c1.2,1.9,2.5,3.8,3.7,5.7c1.5,2.3,2.9,4.8,4.5,7c1.5,2,3.7,3.1,6.2,3.6
			c0.9,0.2,1.6-0.6,1.6-1.8c0-1.4-0.3-2.8-0.5-4.3c-0.1-0.8-0.2-1.5-0.2-2.3c0-0.4,0.3-1,0.6-1.2c0.6-0.2,1.3-0.1,1.6,0.8
			c0.8,2.1,1.7,4.2,2.6,6.3c0.2,0.5,0.6,0.8,0.9,1.3c0.5,0.8,1.2,0.9,1.9,0.6c0.5-0.2,1-1,0.9-1.4c-0.1-2.2-0.4-4.4-0.5-6.5
			c-0.2-2.1-0.3-4.3-0.3-6.4c0-0.6,0.5-1.6,1-1.8c0.5-0.2,1.4,0.3,2,0.6c0.9,0.5,1.3,1.4,1.6,2.5c1.1,3.7,2.5,7.4,3.8,11.1
			c0.3,1,1.1,0.7,1.8,0.6c0.7-0.1,1.4-0.4,1.2-1.3c-0.3-2.5-0.6-5-0.9-7.6c-0.1-0.6-0.6-1.3,0.4-1.6c0.8-0.2,1.7-0.2,2.1,0.9
			c0.7,1.8,1.3,3.7,2.2,5.4c1.1,2.2,1.4,2.2,2.9,0.2c1.7-2.1,2.1-4.6,2.5-7.1c0.7-3.8,1.1-7.6,1.8-11.5c0.1-0.5,0.6-1.2,1.1-1.3
			c0.8-0.1,1.5,0.3,1.7,1.3c0.3,2.8,0.8,5.7,1,8.5c0.3,3.4,0.7,6.7,1.9,10c0.2,0.6,0.6,1.2,1,1.7c0.7,0.8,1.3,0.8,1.7-0.2
			c1-2.4,2-4.8,2.9-7.2c0.3-0.9,0.8-1.2,1.7-0.9c0.8,0.3,0.9,0.7,0.8,1.5c-0.2,2.7-0.3,5.3-0.3,8c0,0.9,0.8,1.3,1.6,1.3
			c0.4,0,1-0.6,1.2-1c0.6-1.7,1-3.4,1.5-5.2c0.4-1.3,0.7-2.5,1.2-3.8c0.5-1.4,1.3-1.5,2.7-0.9c1.9,0.9,2,2.6,2.1,4.3
			c0.3,3,0.5,6,0.7,8.9c0.1,1,1.3,2,2.7,2.2c1.1,0.2,1.6-0.5,1.8-1.3c0.4-1.6,0.7-3.2,1-4.8c0.1-0.6,0.3-1.3,0.7-1.8
			c0.2-0.3,1-0.4,1.3-0.2c0.4,0.3,1,1,0.9,1.4c-0.7,2.2,0,4.3,0.2,6.4c0,0.6,0.2,1.2,0.2,1.8c0.1,1.6,1.1,2.4,2.5,1.4
			c1.7-1.2,3.3-2.5,4.7-4c2.7-2.9,4.6-6.3,5.8-10.1c0.4-1.1,2-1.6,2.9-1c0.7,0.4,0.6,1,0.4,1.7c-1.2,4.2-2.4,8.4-3.4,12.6
			c-0.4,1.7-0.2,3.6-0.2,5.4c0,1.2,1.1,1.7,2.1,1c1.8-1.4,3.6-2.9,5.3-4.4c0.7-0.6,1.3-1.2,2.2-0.5c0.8,0.6,0.7,1.9,0,2.7
			c-1.4,1.6-2.8,3.1-4.1,4.8c-0.8,0.9-0.4,1.8,0.8,2.4c1.1-1.4,2.2-2.8,3.3-4.2c0.3-0.3,0.5-0.8,0.9-1c0.7-0.2,1.5-0.5,2.1-0.3
			c0.4,0.1,0.7,1.2,0.6,1.7c-0.4,1.6-1,3.1-1.6,4.6c-0.4,1-0.9,2-1,3.1c-0.1,0.7,0.2,1.7,0.6,2.1c0.4,0.4,1.4,0.5,2,0.3
			c1.4-0.4,2.7-1.1,4.1-1.7c0.4-0.2,0.8-0.5,1.3-0.6c0.6-0.1,1.5-0.2,1.9,0.1c0.5,0.6,0.3,1.4-0.3,2c-1.1,0.9-2.1,1.8-3.2,2.7
			c-0.3,0.3-0.6,0.6-0.8,0.9c-0.2,0.4-0.4,1.2-0.2,1.3c0.4,0.4,1.2,0.9,1.7,0.8c4.9-1.1,9.5-2.9,13.8-5.5c1.3-0.8,2.7-1.6,3.9-2.5
			c1-0.8,1.5-0.3,2.2,0.4c0.7,0.7,0.8,1.4,0.1,2.2c-2.1,2.4-4.3,4.7-6.4,7.1c-2.1,2.4-4.1,5-5.2,8.1c-0.9,2.6-0.8,3,1.9,2.8
			c2.2-0.1,4.4-0.7,6.6-1c0.7-0.1,1.8-0.1,2,0.3c0.5,0.9-0.6,1.3-1.1,1.6c-2,1.1-4,2.2-6,3.2c-1.3,0.7-1.6,1.1-1.2,2.6
			c0.3,1.1,0.5,2.3,1.1,3.3c0.5,0.9,1.3,1.6,2.1,2.2c1.8,1.2,3.4,2.6,4.6,4.5c1.6,2.6,3.5,5.2,4.9,7.9c1.2,2.2,0.7,3-1.5,4.3
			c-0.3,0.1-0.5,0.6-0.5,0.9c0,0.8,0.2,1.5,0.1,2.3c0,1.4,0.4,2.5,1.5,3.6c2.4,2.1,4.1,4.8,5.3,7.7c1.6,3.7,3.1,7.5,4.5,11.3
			c0.6,1.8,0.9,3.7,1.3,5.6c0.1,0.6,0.4,0.9,1.1,1c1.9,0.2,3.3,1.1,4.1,3c1,2.4,2.1,4.8,3.5,6.9c0.8,1.2,2.2,2.1,3.5,3
			c0.9,0.6,1.8,0.4,2.6-0.3c1.2-1.1,1.8-0.8,2.4,0.7c0.7,1.7-0.3,3-1,4.2c-1.8,3-4.2,5.4-7.9,5.8c-4.8,0.6-9.5,0.9-13.8-2.2
			c-1.9,2-3.7,4-5.6,5.9c-2,2-4.1,4.1-6.2,6c-0.7,0.7-1.2,1.1-0.4,2c1.7,1.9,3.2,3.9,4.8,5.9c0.2,0.2,0.6,0.4,0.6,0.7
			c0.1,0.5,0.2,1.1-0.1,1.4c-0.2,0.3-1,0.4-1.3,0.2c-1.7-1-3.3-2.2-5-3.3c-1.1-0.7-2.2-1.3-3.4-1.8c-1-0.4-1.6,0.1-1.2,1.1
			c0.5,1.5,1.2,2.9,1.9,4.4c0.3,0.7,0.8,1.4,0.9,2.2c0.1,1.2-0.7,1.6-1.8,1.2c-1.6-0.6-3.2-1.1-4.5-2.4c-0.1-0.2-0.8-0.1-1,0.1
			c-1.1,1.2-2,2.6-1.7,4.2c0.3,1.2,1,2.5,1.8,3.4c2.6,3,5.3,5.8,7.9,8.8c0.4,0.5,0.7,1.2,0.8,1.9c0.1,0.7-0.4,1.1-1.1,1.2
			c-1.3,0.3-2.2,0-3.1-1c-2.1-2.3-5-3.1-7.9-4c-1.5-0.5-3-1-4.6-1.4c-0.6-0.2-1.3-0.2-1.8,0.1c-1.3,0.8-2.6,1.8-3.9,2.8
			c-0.6,0.5-0.7,1-0.3,1.7c2,3.3,3.9,6.7,5.9,10c0.9,1.5,0.7,2.6-0.9,3.4c-1.8,0.9-2.9,0.6-4.2-0.9c-2.2-2.6-4.5-5.2-6.7-7.8
			c-0.7-0.8-1.3-0.7-2.1-0.2c-2.4,1.5-4.8,3-7.2,4.5c-0.3,0.2-0.6,0.8-0.6,1.2c0.5,5.2,1.5,10.3,4.1,15c0.4,0.7,0.5,1.6,0.6,2.4
			c0,0.4-0.2,1-0.5,1.2c-0.3,0.1-1-0.1-1.2-0.4c-1-1-1.9-2.1-2.9-3.2c-2.8-2.9-5.5-5.8-8.4-8.5c-1.4-1.3-3.3-2.1-5.4-2
			c-0.9,0.1-1.4,0.4-1.2,1.5c0.6,2.9,1,5.9,1.4,8.8c0.1,1,0.2,2.2-0.3,3c-1.2,1.9-3.7,1.7-4.9-0.5c-0.6-1.1-1-2.3-1.4-3.6
			c-0.7-2-1.3-3.9-2-5.9c-0.5-1.4-0.8-1.3-2.2-1.2c-2.3,0.1-2.9,1.7-3.5,3.4c-1.7,5.1-2.8,10.3-2.7,15.7c0,0.5,0,1.1-0.3,1.5
			c-0.3,0.4-0.8,0.7-1.3,0.8c-0.2,0-0.7-0.5-0.8-0.9c-1.7-5.1-3.4-10.1-5.2-15.2c-0.2-0.6-0.5-1.2-0.7-1.8c-0.8-2.2-2.1-3-4.4-2.7
			c-0.7,0.1-1.1,0.3-1.3,1.1c-0.2,1.4-0.6,2.8-1,4.2c-0.1,0.2-0.2,0.5-0.1,0.7c0.8,2.1-0.6,3.7-1.3,5.4c-0.3,0.7-0.8,1.3-1.5,1
			c-0.4-0.2-0.9-0.8-1-1.3c-0.6-3.2-1.2-6.5-1.7-9.8c-0.3-1.9-0.5-2.1-2.4-2.3c-0.1,0-0.2,0-0.4,0c-2.3-0.4-2.3-0.3-3.1,1.7
			c-1.5,3.5-3.1,6.9-4.6,10.4c-0.6,1.5-0.8,3.2-1.3,4.7c-0.2,0.6-0.6,1.3-1.1,1.5c-0.3,0.1-1-0.5-1.5-0.8c-1.6-1-0.7-2.4-0.7-3.7
			c-0.1-2.3-0.1-4.5-0.4-6.8c-0.5-3.1-1.2-6.2-1.8-9.3c-0.3-1.6-1.4-2.3-2.8-2.8c-1.1-0.4-2.3-0.6-3.4-1c-0.7-0.2-1,0.2-1.2,0.7
			c-0.7,1.7-1.3,3.4-1.9,5.2c-0.4,1-0.8,2.1-1.2,3.1c-0.3,0.7-0.7,1-1.4,0.8c-0.1,0-0.2-0.1-0.2-0.1c-3.4-0.1-3.1-0.6-2.9-4.1
			c0.1-2.2,0.6-4.4,0.9-6.6c0.1-1,0-1.6-1.2-2.1c-3-1.2-3.1-1.4-5.2,1c-1.9,2.2-3.4,4.7-5,7.1c-1.1,1.7-2,3.6-2.9,5.4
			c-0.4,0.8-0.9,1.4-1.8,1c-0.8-0.4-1.3-1.2-1.1-2.2c0.1-0.8,0.3-1.6,0.5-2.5c0.5-3.4,1.2-6.8,1.6-10.3c0.2-2.1,0.2-4.2,0-6.2
			c-0.1-0.7-0.9-1.5-1.6-2.1c-1.6-1.2-3.4-2.4-5.1-3.5c-0.2-0.2-0.9-0.1-1.1,0.2c-2.1,2-4.3,3.9-5.2,6.9c-0.6,1.8-1.7,2.3-3.2,1.8
			c-1.3-0.4-1.6-0.8-1.3-2.2c0.5-1.7,1.1-3.3,1.7-5c0.7-1.9,1.4-3.8,2.1-5.7c0.3-0.9,0.1-1.5-0.6-2.1c-1.2-1-2.3-2.1-3.5-3.1
			c-0.3-0.2-0.9-0.3-1.2-0.1c-2.1,1.1-4.4,2-6.2,3.5c-2.5,2-4.6,4.4-6.4,7.1c-0.5,0.7-1.4,1.2-2.2,1.6c-0.3,0.2-1,0-1.3-0.3
			c-0.2-0.2-0.2-0.8-0.1-1.2c1.1-2.4,2.4-4.7,3.3-7.2c1.6-4.2,3.8-8.1,4.4-12.6c0.2-1.7-0.4-3.2-1.5-4.4c-0.4-0.4-1.4-0.5-2-0.3
			c-1.7,0.8-3.4,1.7-5,2.7c-1,0.6-1.7,1.6-2.7,2.4c-0.4,0.3-1.1,0.5-1.6,0.5c-0.3,0-0.9-0.6-0.8-0.8c0.3-0.9,0.5-2,1.1-2.6
			c2.5-2.5,4.2-5.4,5.7-8.5c0.1-0.3,0.1-0.8,0-1.1C196.6,154.9,195.2,151.8,193.8,148.7z"/>
		<path class="st2" d="M364.7,57c-1.3,1.4-2.7,2.6-3.8,4.1c-1.2,1.7-2.1,3.6-3.2,5.5c-0.6-0.4-1.3-1.4-2.5-0.6c0.4,1,0.9,2,1.3,3.1
			c2.5,5.4,4.4,11.1,5.3,17c0.7,4.6,0.4,9.2,0.2,13.9c-0.2,4.7,0,9.3,1.9,13.7c0.1,0.1,0.1,0.3,0.1,0.5c-2.1,0.5-3.2,2.1-4.4,3.6
			c-1.7,2.3-3.3,4.8-5.1,7.1c-0.9,1.2-2.2,2-3.3,3c0.3-2.4,0.5-4.6,0.7-6.8c0.1-0.9-0.2-1.7-0.2-2.6c0-0.6-0.1-1.3,0.1-1.8
			c0.5-1,1.1-1.9,1.7-2.9c1.5-2.4,2.9-4.9,3.5-7.7c0.7-3.7,0.4-7.3-0.7-10.9c-0.1-0.2-0.1-0.4-0.1-0.7c1,0.1,2.1,0.3,3.1,0.4
			c0.1-0.1,0.1-0.2,0.2-0.4c-0.5-0.9-0.9-1.7-1.4-2.5c-3.5-5.1-7-10.2-10.6-15.3c-0.8-1.2-0.8-2.1,0.1-3.2c0.3-0.4,0.6-0.8,0.8-1.2
			c0.2-0.2,0.3-0.5,0.6-1c-0.5,0-0.9-0.1-1.1,0c-6.7,4.1-12.8,9-17.3,15.6c-1.8,2.7-2.9,5.6-2.9,8.9c0,0.2,0,0.5,0.1,0.8
			c1-0.4,1.9-0.8,2.8-1.2c0.4,2.5,0.7,4.8,1.1,7.3c-0.8,0-1.7,0-2.6,0c-0.4,0-0.9,0-1.3,0.2c-0.3,0.2-0.6,0.6-0.8,0.9
			c0.3,0.2,0.6,0.5,0.9,0.6c4.2,0.9,8.5,1.8,12.3,3.9c3.1,1.7,5.9,3.5,7.3,7c1.6,3.9,1.5,7.8,0.5,11.8c-1.6,7-5.2,12.9-9.7,18.4
			c-1.1,1.3-2.3,2.6-3.4,3.9c-0.2,0.3-0.3,0.7-0.4,1.1c0.4,0,0.9,0.2,1.2,0.1c2-0.5,3.3-1.9,4.4-3.5c1.7-2.4,3.4-4.8,5.1-7.2
			c0.2-0.3,0.6-0.7,0.9-0.9c1.6-1.1,2.2-1,2.8,0.7c1.1,3.1,2,6.4,3.2,9.5c0.8,2.1,0.6,3.8-0.6,5.8c-1.4,2.2-1.9,5-2.7,7.6
			c-0.2,0.7,0.1,1.5,0.2,2.2c0.2,0,0.4,0.1,0.5,0.1c0.5-1,1.1-2,1.6-3c0.5-1,0.8-2.1,1.4-3c1.2-2,2.8-2.4,4.8-1.3
			c3.1,1.6,6.3,1.4,9.5,0.1c4-1.6,7-4.2,8.3-8.4c1-3.3,1.2-6.6-0.2-9.9c-0.4-0.9-0.7-1.9-0.8-2.9c-0.2-1.6-0.1-3.2,0.9-4.7
			c2.3-3.4,3.2-7.2,2.4-11.3c-0.5-2.5-2.1-4.1-4.2-5.2c-1.1-0.6-2.4-1-3.8-1.6c0.7-1.3,1.4-2.8,2.3-4.1c1.1-1.6,2.9-1.5,3.8,0.3
			c2.9,5.7,5.8,11.4,7,17.8c0.8,4.3,0.3,8.5-0.7,12.7c-1.1,4.4-2.6,8.4-5.5,11.8c-2.5,2.9-5.3,5.6-8,8.3c-2.1,2.2-4.4,4.2-6.5,6.3
			c-0.2,0.2-0.5,0.5-0.9,0.8c-0.4-1.5-0.8-2.8-1.1-4.1c-0.2-0.5-0.3-1.1-0.6-1.5c-0.2-0.3-0.7-0.5-1.1-0.7c-0.2,0.4-0.5,0.9-0.4,1.2
			c0.4,1.8,0.9,3.6,1.5,5.4c0.6,1.7,1.4,3.3,2.1,5.1c-2-0.9-3.8-1.9-5.6-2.7c-1.2-0.5-2.5-1-3.8-1.4c-0.3-0.1-0.7,0.2-1.1,0.3
			c0.1,0.4,0.2,1,0.4,1.2c0.4,0.4,1.1,0.5,1.6,0.7c1.6,0.7,2.8,3.4,2.2,5c-0.1,0.2-0.1,0.4-0.3,0.5c-1.8,1.6-2.8,3.8-4.5,5.5
			c-1.7,1.8-3.3,3.6-5.1,5.4c-0.7,0.7-1.4,1.3-2.2,1.9c-2.2-5.8-4.4-11.6-6.8-17.6c-0.5,2.1,1,9.4,3.3,15c1.9,4.6,4.2,9.1,6.1,13.4
			c-0.6-0.8-1.5-1.9-2.4-3c-3.9-4.7-8.6-8.4-13.5-12c-1.3-1-2.7-1.5-4.3-1.8c-0.4-0.1-0.9,0.2-1.4,0.3c0,0.2,0,0.3-0.1,0.5
			c1,0.5,1.9,1.1,2.9,1.5c2.8,1.1,4.5,3.2,5.6,5.9c0.3,0.8,0.6,1.7,0.7,2.5c0.4,2.2,0.4,2.2-1.6,3.4c-3.9,2.4-12.9,6-17.7,7.1
			c-0.2-1.2-0.6-2.3-0.6-3.5c-0.1-3.8-0.1-7.6-0.1-11.5c0-0.9-0.2-1.4-1-1.8c-0.6-0.3-1-0.2-1.1,0.5c-0.2,1.1-0.4,2.2-0.4,3.3
			c0.1,3.7,0,7.4,0.4,11.1c0.5,5.1,1.4,10.1,2.2,15.1c0,0.2,0,0.5-0.2,0.8c-0.8-2.5-1.6-5-2.4-7.5c-1.9-6-3.9-12-7.7-17.2
			c-1.3-1.7-2.7-3.3-4.1-4.9c-1.7,0.7-1.8,1.3-0.5,2.3c0.7,0.6,1.5,1.1,1.5,2.3c0,0.4,0.5,0.9,0.8,1.3c2,2.6,3.5,5.5,4.1,8.8
			c0,0,0,0.1,0,0.1c0.5,2.9,0.1,3.4-2.8,3.6c-3.4,0.2-6.9,0.7-10.3,0.9c-1.8,0.1-3.6-0.1-5.4-0.2c-0.7,0-0.9-0.4-0.8-1.1
			c0.8-4.2,1.6-8.5,2.4-12.8c0.1-0.5,0.1-1.1-0.1-1.6c-0.1-0.4-0.7-1-0.9-1c-0.5,0.2-1.3,0.6-1.4,1c-0.7,3.4-1.4,6.8-2,10.2
			c-0.6,3.8-1,7.7-1.5,11.6c-1-9.5-4.1-18.2-8.9-26.5c-1,0.5-1,1.1-0.6,1.9c1.8,4.3,2.8,8.7,2.5,13.4c-0.1,0.9-0.2,1.9-0.3,3
			c-6.9-1.4-13.4-3.6-20.1-5.9c1.8-3.7,3.6-7.2,5.4-10.7c0.3-0.5,0.5-1.1,0.9-1.5c0.7-0.8,0.2-1.4-0.3-1.9
			c-6.3,6.1-8.3,14.5-11.7,22.4c0.4-3.5,0.9-6.6,1-9.8c0.1-3.3,0-6.6-0.3-9.9c-0.4-3.2-1.2-6.4-1.8-9.5c-0.2,0-0.4,0-0.6-0.1
			c-0.2,0.3-0.5,0.7-0.4,1c0.1,1.8,0.2,3.7,0.4,5.5c0.3,3.5,0.2,6.9-2.1,9.9c-0.2,0.3-0.5,0.6-0.6,0.7c-1.2-0.5-2.3-0.8-3.3-1.4
			c-2.6-1.5-5.1-3.1-7.6-4.7c-1.5-1-3-2.1-4.5-3.1c-0.6-0.4-0.7-0.7-0.4-1.3c1-2.8,2.7-5.1,4.8-7.2c0.8-0.8,1.6-1.5,2.3-2.3
			c0.4-0.4,0.5-1.1,0.7-1.6c-0.6,0-1.3-0.2-1.8,0.1c-1.6,0.8-3,1.8-4.2,3.2c-3.7,4.2-7.5,8.4-11.3,12.6c-0.2,0.3-0.4,0.6-0.7,0.8
			c0.8-2.3,1.6-4.5,2.4-6.8c2.1-5.9,3.6-12.1,4.7-18.3c0.1-0.7,0-1.4-0.2-2.1c-0.1-0.2-0.6-0.5-0.9-0.5c-0.2,0-0.6,0.5-0.6,0.7
			c-0.4,4-1.7,7.7-3.4,11.3c-0.5,1.1-1.2,2.3-1.8,3.6c-1.4-1.2-2.7-2.3-4-3.5c-3.4-3.2-6.3-6.8-8.8-10.7c-0.5-0.7-0.5-1.3-0.1-2
			c2.2-3.8,5.5-6.3,9.2-8.3c0.6-0.3,1.2-0.5,1.7-0.9c0.3-0.2,0.5-0.6,0.8-0.9c-0.5-0.2-0.9-0.5-1.4-0.6c-0.2-0.1-0.5,0.3-0.8,0.4
			c-2.6,1.2-5.3,2.3-7.9,3.5c-0.1-0.1-0.1-0.2-0.2-0.3c1-1.4,2.1-2.8,3-4.4c1.1-1.8,2.1-3.6,3-5.5c0.6-1.2-0.2-2-1-3.1
			c-3.4,5.3-6.6,10.5-9.9,15.6c-2-2.8-5.6-10.5-6.4-13.7c1.1,0.3,2.2,0.4,3.1,0.8c1.4,0.5,2.6,1.3,4,1.9c0.4,0.2,1.1,0,1.4-0.2
			c0.5-0.6,0.3-1.2-0.4-1.6c-2-1-3.9-2-6-3.1c0.5-0.8,1.3-1.7,1.9-2.8c0.9-1.7,1.8-3.4,2.5-5.2c0.4-1,0.1-1.6-0.7-2.4
			c-0.4,0.7-0.8,1.3-1.1,1.9c-0.7,1.5-1.4,3-2.1,4.5c-0.6,1.3-1.6,2.4-3,3.1c-1-1.7,0.3-4-1.5-5.4c-1.1,0.9-1.4,2-1.2,3.3
			c0.2,1.3,0.4,2.5,0.6,3.8c0.2,1-0.3,1.5-1.3,1.6c-2,0.3-2,0.4-2.4,2.3c-1.3,6.2-4.3,11.1-10.2,14.1c-0.3,0.2-0.6,0.3-0.9,0.4
			c-0.2-1.9-0.5-3.7-0.6-5.5c0-0.4,0.4-1,0.7-1.2c1.7-0.9,2.7-2.4,3.9-3.8c0.3-0.3,0.4-0.8,0.4-1.3c-1.7,1.4-3.4,2.9-5.2,4.4
			c-0.6-2-1.1-3.7-1.6-5.4c-0.3-1.1,0.1-1.9,1-2.6c1.2-0.8,2.3-1.8,3.4-2.7c-0.1-0.2-0.2-0.3-0.4-0.5c-1.6,1-3.2,2-4.9,3
			c-0.2-0.4-0.4-0.7-0.5-0.9c-1.2-2.5-1.2-2.5,1.2-3.7c0.9-0.5,1.8-1.1,2.6-1.6c-0.1-0.2-0.1-0.3-0.2-0.5c-0.4,0.1-0.8,0.1-1.2,0.3
			c-1.1,0.4-2.1,0.9-3.2,1.2c-0.4,0.1-1.2-0.1-1.3-0.4c-1.6-2.8-3-5.7-4.5-8.6c1.8-0.7,4,0.1,5.4-1.6c-1.8,0-3.6,0-5.4,0
			c-1.3,0-1.9-0.7-1.9-2.2c2.2,0,4.4,0,6.6,0c0-0.2,0-0.3,0.1-0.5c-0.9-0.2-1.8-0.6-2.8-0.6c-1.2-0.1-2.4,0.1-3.6,0.1
			c-0.6,0-1.4-0.2-1.7-0.5c-2-2.8-4-5.7-6.1-8.7c3.4,0,6.8,0,10.2,0c0-0.2,0-0.4,0.1-0.6c-1-0.2-2-0.5-3-0.5c-2.3-0.1-4.6,0.1-6.9,0
			c-2.2-0.1-3.6-1.4-4.6-3.5c2.7-0.6,5.3-1.2,7.9-1.8c0-0.2,0-0.3,0-0.5c-1.1,0-2.2-0.1-3.3,0c-1.4,0.1-2.8,0.4-4.2,0.6
			c-1,0.2-1.8,0.1-2.5-0.9c-0.8-1.1-1.7-2-2.7-3c1.7-1.5,3.6-2,5.7-2.3c6.4-0.8,11.6,1.8,16.1,6c3,2.8,6.1,5.4,9,8.2
			c2.2,2.1,4.6,1.8,7.1,0.8c1.2-0.5,2.3-1.3,3.4-2c-0.2,2.1,0,4.2,1.5,6.4c0.2-0.7,0.4-1,0.4-1.4c0.2-3.4,0.3-6.9,0.5-10.3
			c0.1-1.5,0.2-3,0.6-4.3c0.3-1,1.3-1.8,2-2.7c0.1-0.1,0.2-0.1,0.3-0.1c1.5,0.7,3.1,1.3,4.3,2.3c0.6,0.5,1,1.1,1.7,1.4
			c0.6,0.2,1,0.6,1.7,1c0.7-0.4,0.6-1,0.2-1.7c-2.2-3.9-5.2-7.1-8.7-9.7c-3.4-2.6-7.1-4.9-10.6-7.3c-0.3-0.2-0.5-0.4-0.7-0.7
			c2.4,0.9,4.9,1.8,7.3,2.7c4.6,1.7,9.4,2.4,14.3,2.1c1.1-0.1,2.1-0.5,3.2-0.8c0-0.2,0-0.4,0-0.6c-0.5-0.2-0.9-0.5-1.4-0.6
			c-2.1-0.3-4.3-0.4-6.4-0.6c-1.2-0.1-2.3-0.3-3.7-0.5c0.4-1.6,0.8-3.1,1.1-4.6c0.5-1.8,1-3.7,1.3-5.5c0.1-0.7,0-1.6-0.3-2.3
			c-1-2.6-2.8-4.6-4.7-6.6c-1-1.1-2.1-2.2-3.2-3.3c0.1-0.1,0.1-0.2,0.2-0.3c0.6,0.2,1.1,0.4,1.7,0.6c3,1.2,6,2.5,9.3,2.3
			c1-0.1,2.1-0.3,3-0.7c2.6-1.4,5.2-1.2,8-0.4c2,0.6,3.1,1.8,4.2,3.2c0.4,0.5,0.8,0.9,1.3,1.3c1-0.9,1.3-1.7,0.8-2.9
			c-1.2-2.9-3.2-5.3-5.2-7.5c-4.4-4.7-8.9-9.2-13.3-13.8c-0.3-0.3-0.5-0.7-0.7-1.1c0.1-0.1,0.3-0.2,0.4-0.3c3.1,2.2,6.2,4.4,9.4,6.5
			c4.1,2.9,8.3,5.7,13.2,7c1.1,0.3,2.3,0.6,3.5,0.6c0.6,0,1.2-0.4,1.8-0.6c0-0.1-0.1-0.2-0.1-0.3c-3.4-1.5-6.9-2.9-10.5-4.4
			c0.5-0.6,0.9-1.1,1.3-1.5c1.7-1.6,1.8-3.7,1.2-5.7c-0.4-1.4-1.1-2.7-1.7-4c-0.2-0.4-0.4-0.8-0.8-1.5c1.1,0.7,2,1.1,2.8,1.7
			c3.5,2.5,6.4,1.6,9.2-0.7c1.5-1.2,2.8-2.5,4.2-3.7c0.5-0.4,1-0.8,1.8-1.4c0.6,2.4,1.2,4.5,1.7,6.7c0.3,1.3,0.2,2.6,0.3,3.9
			c0,0.4,0,0.8,0.2,1.1c0.2,0.3,0.6,0.7,0.9,0.7c0.3,0,0.8-0.5,0.9-0.8c0.1-1.2,0.2-2.5,0.1-3.7c-0.4-7.5-3.3-14.3-6-21.2
			c-0.3-0.8-0.6-1.6-0.8-2.3c0-0.1,0-0.1,0.1-0.5c1.4,2.5,2.6,4.9,4,7.3c2.1,3.6,4.2,7.3,6.6,10.8c1.7,2.5,4.1,4.5,6.8,5.9
			c0.8-0.6,0.3-1-0.1-1.4c-3-2.9-5.3-6.4-7.4-9.9c-0.1-0.1-0.1-0.3-0.2-0.5c3.4-1.1,5.5-3.3,5.6-6.8c0.1-2.2-0.7-4.4-1.2-6.6
			c-0.4-1.4-1-2.8-1.4-4.3c0.9,1.5,1.7,3,2.6,4.5c2.8,4.9,7.9,6.4,12.9,5.9c1.9-0.2,3.8-0.5,6.1-0.7c-0.8,4.8-1.6,9.5-2.4,14.2
			c0.1,0,0.2,0.1,0.3,0.1c1.2-1.4,2-3,2.6-4.6c1.7-4.6,1.9-9.4,1.6-14.3c-0.2-2.3-0.4-4.6-0.6-7.2c1.7,5.2,3.1,10.2,4.9,15.1
			c1,2.9,2.5,5.6,3.9,8.3c0.3,0.6,0.9,1.1,1.4,1.6c0.6-0.6,0.7-1,0.4-1.8c-1.2-3.3-2.3-6.7-3.4-10.1c-0.3-0.9-0.3-1.9-0.5-2.9
			c1.9-0.3,3.7-0.4,5.3-0.8c4.8-1.1,6.5-2.8,7.6-8.2c0.4-2,0.6-4.1,0.9-6.4c0.3,2.4,0.5,4.7,0.8,6.9c0.2,1.2,0.5,2.5,1,3.7
			c0.9,2.4,3,3.3,5.4,3.8c2.1,0.5,4.3,0.9,6.4,1.4c0.3,0.1,0.6,0.2,0.9,0.4c-1.4,4.6-2.4,9.3-5.9,12.9c-0.2,0.2-0.1,0.5-0.2,0.8
			c0.3-0.1,0.7,0,0.9-0.2c2.7-1.8,4.7-4.1,5.8-7.1c1.3-3.5,2.3-7.2,3.4-10.8c0.1-0.4,0.2-0.7,0.5-1.1c0,2.9-0.1,5.7,0,8.6
			c0.2,4.8,0.4,9.6,0.7,14.4c0,0.9,0.7,1.3,1.5,1.2c1.7-0.2,1.6-0.5,1.5-2.4c-0.2-4-0.3-8.1-0.4-12.1c0-0.2,0.1-0.4,0.3-0.8
			c1.1,0.5,2.1,1.1,3.1,1.5c2.5,1,4.9,2,7.4,2.8c1.2,0.4,2.3,0.2,3.4-0.8c2.5-2.2,4.9-4.6,6.7-7.4c-0.9,3.4-1.8,6.7-1.4,10.3
			c-1.1-0.2-2.2-1.5-3.4-0.1c2.8,3.5,7.6,4.1,10.6,7.4c-1.4,2-3,3.6-5,4.9c-2.1,1.4-4.4,2.8-6.6,4.2c-0.3,0.2-0.6,0.6-0.7,1.1
			c3.6-0.3,6.7-1.8,9.3-4c2-1.7,3.8-3.7,5.6-5.5c0.2-0.1,0.3,0,0.2,0.2c-1,3.5-2.3,7-3,10.6c-0.6,2.8-0.5,5.7-0.7,8.6
			c0,0.3,0.3,0.6,0.5,0.9c0.2-0.3,0.6-0.5,0.7-0.8c0.7-3.1,1.4-6.3,2.1-9.4c0.5-1.9,1.1-3.8,1.7-6c1.5,1.9,2.7,3.5,4,5
			c0.1,0.2,0.3,0.4,0.4,0.6c2.1,2.9,4.9,3,7.9,1.9c2.2-0.8,4.2-1.8,6.3-2.8c0.5-0.2,0.9-0.4,1.4-0.7C364.7,56.7,364.8,56.8,364.7,57
			z"/>
		<path class="st2" d="M351.3,134.4c1.8-1.1,3.9-1.1,5.9-0.9c1.2,0.1,2.4,0.4,3.6,0.6c2.3,0.4,3.5,1.6,3.9,3.9
			c0.2,1.3,0.3,2.6,0.5,3.9c0.1,0.4,0.2,0.7,0.3,1.4c1-1.7,0.6-3.3,0.6-4.8c-0.1-1.4,0.3-2.4,1.5-2.9c1.1-0.5,2.4-0.2,3.3,0.9
			c1.7,2.2,2.6,4.8,2.4,7.6c-0.1,1.7-0.4,3.5-1,5.1c-1.8,4.6-4,5.9-9.8,6.4c-2,0.2-3.4-0.7-4.6-2.2c-2.6-3.4-3.7-7.3-4.7-11.3
			C352.6,139.5,352,137,351.3,134.4z"/>
		<path class="st2" d="M368.8,123.3c-3.2,4.2-7.2,7.1-12.5,7.9c-1.6,0.3-3.3,0-5-0.1c4.1-3,6.8-7,9.3-11.1c2.5-4,4.9-4.1,9.7-3
			c2.6,0.6,4.6,2,5.1,4.9c0.3,1.9,0.1,3.9-0.8,5.7c-0.8,1.4-1.6,2.7-2.6,4c-1.5,2-5.2,2.2-7.1,1.3c-1.1-0.5-1.1-2.5,0-3.2
			c1.9-1.3,3.4-2.9,4.2-5c0.1-0.3,0.1-0.7,0.2-1.1C369,123.4,368.9,123.4,368.8,123.3z"/>
		<path class="st3" d="M349.4,112.7c-2.4-5.2-7.2-6.9-12-8.6c-1.3-0.5-2.2-1.1-2.4-2.5c-0.3-2.1-0.5-4.2-0.8-6.2
			c-0.1-0.9,0.4-1.3,1.2-1.5c1.7-0.3,3.4-0.6,5.2-0.7c3.1-0.2,6.3-0.3,9.4-0.5c1.8-0.1,2.2,0.2,3.1,1.8c1.4,2.6,1.3,5.5,1.1,8.3
			c-0.3,3.6-1.5,6.9-4.2,9.5C349.9,112.3,349.7,112.4,349.4,112.7z"/>
		<path class="st2" d="M354.2,90.8c-8.1-1.9-15.7,0.3-23.3,1.2c-0.1-0.1-0.2-0.2-0.3-0.3c2.4-3.3,4.6-6.7,7.2-9.9
			c1.1-1.4,2.8-2.5,4.3-3.5c1.6-1.1,2.2-1,3.4,0.5c2.6,3.2,5.1,6.5,7.6,9.8C353.5,89.1,353.7,89.8,354.2,90.8z"/>
		<path class="st2" d="M385.5,149.8c-0.4-0.2-0.8-0.3-1.1-0.5c-1-0.4-1.1-1-0.8-2.1c1-3.5,1.9-7,2.8-10.6c0.1-0.3,0.2-0.7,0.3-1.2
			c2.1,0.6,3.4,2,4.5,3.6c0.7,1,1.3,2.1,1.9,3.2c1.4,2.5,2.8,5,5.9,6.2c-1.4,0.5-2.3,1.9-3.7,0.7c-1-0.8-1.8-1.6-2.8-2.5
			c-0.2,1.7,1.6,2.4,2.2,3.7c-0.1,0.1-0.1,0.2-0.2,0.4c-0.6-0.3-1.3-0.4-1.6-0.8c-0.6-0.8-1-1.7-1.5-2.5c-0.3-0.5-0.7-1-1.1-1.4
			c-0.2,0.1-0.3,0.2-0.5,0.3c0.7,1.5,1.4,3,2.2,4.9c-1.5-0.3-3.2-0.2-4.3-0.9c-1.1-0.7-1.7-2.3-2.8-3.5
			C385.2,147.8,385.3,148.7,385.5,149.8z"/>
		<path class="st3" d="M365,97.2c-0.1-0.8-0.2-1.6-0.3-2.4c1.5,0.1,2.9,0,4.2,0.3c0.5,0.1,1.2,0.9,1.4,1.5c1,3.2,1.6,6.5,0.6,9.8
			c-0.6,2.2-1.8,4-4,5.1c-0.4-2.5-0.8-4.9-1.2-7.5c1.9,0.2,3.4-0.4,4.3-2.1c0.6-1.3,0.4-2.6-0.5-3.7C368.2,97,366.8,96.7,365,97.2z"
			/>
		<path class="st2" d="M365,84.6c3.1,2.3,5.4,5.3,7.7,8.7c-2.5-0.4-4.8-0.8-7.1-1.3c-0.2,0-0.5-0.5-0.5-0.7
			C365,89.2,365,86.9,365,84.6z"/>
		<path class="st2" d="M297.2,221.9c-1.2-3.3-2.3-6.5-3.4-9.7c1.3-0.6,2.7-0.9,4.1-0.7c1.3,0.2,1.7,0.8,1.4,2.1
			c-0.5,2.2-1.2,4.4-1.7,6.7C297.5,220.8,297.4,221.3,297.2,221.9z"/>
		<path class="st2" d="M203.7,182.4c1.1-3.1,2.2-6.3,3.3-9.4c1.8,0.4,3.4,2.1,3.5,3.8c0,0.3-0.2,0.8-0.4,0.9c-2.5,1.1-4.3,3.2-6.2,5
			C203.7,182.6,203.6,182.6,203.7,182.4z"/>
		<path class="st2" d="M239.2,198.9c-0.9,1.2-1.8,2.4-2.6,3.5c-0.8,1.2-1.5,2.4-2.3,3.9c0.3-3.4,0.5-6.6,0.8-9.8
			C236.9,196.7,238.2,197.5,239.2,198.9z"/>
		<path class="st2" d="M266.3,220.2c-0.4-3.4-0.7-6.6-1-9.8c-0.1-1,0.2-1.3,1.2-1.1c0.9,0.2,1.7,0.5,2.6,0.8
			C268.2,213.5,267.3,216.7,266.3,220.2z"/>
		<path class="st2" d="M326.1,204.5c1,3,1.9,5.9,2.7,8.4c-1.3-1.3-3.1-2.8-4.8-4.5c-1.6-1.6-1.6-1.8,0.5-3
			C325,205,325.5,204.8,326.1,204.5z"/>
		<path class="st2" d="M359,188.2c-2.1-1-4.3-2.1-6.6-3.2c0.8-1.1,1.6-2.3,2.4-3.5c1.5,2.3,2.9,4.4,4.3,6.5c0,0.1,0,0.1,0.1,0.2
			C359.1,188.2,359.1,188.2,359,188.2z"/>
		<path class="st2" d="M342.8,48.5c0.2-0.2,0.3-0.5,0.5-0.7c0.1,0,0.1,0.1,0.2,0.1c-0.1,0.3-0.3,0.6-0.4,0.9
			C342.9,48.7,342.9,48.6,342.8,48.5z"/>
		<path class="st2" d="M309.9,24.9c0-0.2,0-0.5,0-0.7c0,0,0.1,0,0.1,0c0,0.2,0,0.5,0,0.7C310,24.9,309.9,24.9,309.9,24.9z"/>
		<path class="st2" d="M359.1,188c0,0.1,0.1,0.2,0.1,0.3c-0.1-0.1-0.2-0.1-0.3-0.2C359,188.1,359.1,188.1,359.1,188z"/>
		<path class="st2" d="M364.5,56.8c0.1-0.1,0.3-0.2,0.4-0.3c0,0,0.1,0.1,0.1,0.1c-0.1,0.1-0.2,0.2-0.3,0.4
			C364.6,57,364.6,56.9,364.5,56.8z"/>
		<path class="st2" d="M203.9,182.6c-0.1,0.1-0.2,0.1-0.3,0.2c0-0.1,0.1-0.3,0.1-0.4C203.8,182.4,203.8,182.5,203.9,182.6z"/>
		<path class="st0" d="M352.1,99.6c0,2.1-1.5,3.6-3.6,3.7c-2.1,0-3.8-1.6-3.7-3.7c0-2.1,1.7-3.7,3.8-3.7
			C350.5,95.9,352.1,97.5,352.1,99.6z"/>
		<path class="st2" d="M319.6,53c0.1,0,0.1,0,0.2,0C319.8,53,319.7,53,319.6,53C319.6,53,319.6,53,319.6,53z"/>
		<path class="st2" d="M236.8,66.6c0-0.1,0-0.2,0-0.3c0.1,0,0.1,0.1,0.2,0.1C236.8,66.4,236.8,66.5,236.8,66.6
			C236.7,66.6,236.8,66.6,236.8,66.6z"/>
		<g>
			<path class="st0" d="M252.5,150c-1.2,2.2-2.4,4.4-3.6,6.6c0.7,0.7,1,0.2,1.3-0.4c1.4-2.3,2.8-4.5,4.2-6.8
				c0.1-0.2,0.3-0.3,0.6-0.4c-1.2,2.7-2.5,5.3-3.7,8c2.7,0.9,3.9,0.5,5.2-1.8c0.6-1.1,1.2-2.2,1.8-3.3c0.1,0,0.2,0.1,0.4,0.1
				c-0.5,1.6-1.1,3.1-1.7,5c4.2-1.8,5-6,7.1-9.1c0.1,0.1,0.3,0.1,0.4,0.2c-0.9,2.1-1.9,4.2-2.8,6.3c0.1,0.1,0.2,0.2,0.4,0.2
				c1.5-2,3.1-3.9,4.5-5.9c3.2-4.5,7.6-7.7,12.4-10.2c0.4-0.2,1-0.3,1.3-0.1c0.4,0.3,0.7,0.9,1,1.3c-0.4,0.2-0.8,0.6-1.3,0.7
				c-4.2,1.3-7.3,4-9.9,7.4c-1.6,2.1-3.2,4.3-4.8,6.4c-3.1,3.8-5,5.3-9.6,6.4c0.4,2.1,0.8,4.2,1.1,6.4c2.2-1.4,2.4-4.9,5.9-5.1
				c-2.5,3-4.8,5.8-7.1,8.6c-0.2,0-0.3-0.1-0.5-0.1c-0.1-1.1-0.2-2.2-0.3-3.3c-0.2-1.9-0.4-3.7-0.7-5.5c-0.1-0.7-0.5-1.1-1.4-1.2
				c-5.1-0.9-10.2-2.1-14.8-4.7c-1.8-1-1.9-1.9-0.3-3.2c1.9-1.5,3.9-2.9,5.7-4.5c0.8-0.8,1.2-2,1.7-3.1c1.2-2.5,2-5.2,3.5-7.5
				c1.5-2.2,3.3-4.4,6.3-4.7c0.2,0,0.3-0.1,0.5-0.1c4.3,0,8.5-0.4,12.8,0.3c2.7,0.4,5.4,0.5,7.9-1c0.4-0.2,1.1,0.1,1.9,0.1
				c-1.1,2.3-2.8,3.5-4.9,3.6c-2.4,0.2-4.9,0-7.4-0.2c-2-0.2-4-0.8-6-1c-2-0.2-3.7,0.6-5.1,1.9c-1,0.9-1.9,2.1-2.7,3.2
				c-2.4,3.4-4.6,6.9-7,10.3c-1.3,1.7-2.9,3.2-4.4,4.8c1.3,1.7,2.8,1.6,4-0.4c0.6-0.9,1.1-2,1.7-2.9c0.3-0.5,0.7-0.9,1.1-1.3
				c0.1,0.1,0.2,0.1,0.3,0.2c-0.1,0.3-0.2,0.6-0.4,0.9c-0.7,1.3-1.4,2.6-2.1,3.9c-0.5,0.9-0.2,1.2,0.7,1.3c0.9,0.2,1.5,0,2.1-0.9
				c1.3-2,2.6-3.9,4-5.8C252.3,149.9,252.4,149.9,252.5,150z"/>
			<path class="st0" d="M221.6,121.6c1,0.4,0.9,1.1,0.9,1.8c-0.3,3.1-2,5.3-4,7.4c-1.8,1.9-3.7,3.9-5.5,5.8
				c-0.3,0.3-0.4,0.6-0.8,1.2c5.6-2.1,10.9-4.9,17.1-2.6c-0.6,1.1-1.6,1.3-2.5,1.4c-5.3,0.4-10.4,1.7-15.5,3.2
				c-1.4,0.4-2.9,0.6-4.4,0.9c-0.1-0.2-0.2-0.3-0.3-0.5c0.3-0.5,0.4-1.1,0.8-1.5c2.7-2.7,5.6-5.4,8.3-8.1c1.6-1.6,2.9-3.5,4.3-5.3
				c0.4-0.6,0.6-1.4,0.9-2C221,122.7,221.3,122.1,221.6,121.6z"/>
			<path class="st0" d="M225.7,102.5c-0.6-1.3-1.2-2.7-1.9-3.9c-2.1-3.7-5-6.5-8.3-9c-1.3-1-2.7-1.8-3.9-2.8
				c-0.7-0.6-1.3-1.4-1.8-2.1c-0.2-0.2-0.1-0.7-0.1-1c0.4,0,0.8-0.1,1.1,0c3.3,1.2,6.5,2.5,9.9,3.5c2.4,0.8,4.9,1.4,7.4,1.9
				c0.8,0.2,1.6-0.1,2.5-0.2c0.4,0,0.8-0.1,1.1,0c0.3,0.1,0.6,0.5,0.8,0.7c-0.3,0.3-0.5,0.6-0.8,0.8c-1.9,0.7-4,0.8-6,0.5
				c-2.2-0.4-4.4-0.9-6.9-1.4c2.6,1.9,4.6,4,5.8,6.7c0.8,1.7,1.2,3.5,1.7,5.3c0.1,0.3-0.1,0.7-0.2,1
				C225.9,102.5,225.8,102.5,225.7,102.5z"/>
			<path class="st0" d="M318.3,169.5c0.4,9,2.9,17.6,4.3,26.3c-0.1,0.1-0.2,0.1-0.4,0.2c-0.3-0.3-0.7-0.5-0.9-0.9
				c-2.1-3.4-4.1-7-6.3-10.3c-1.9-2.7-4.2-5.2-6.3-7.8c-0.7-0.9-1.4-1.7-2.2-2.7c0.8-0.8,1.6-1.1,2.2-0.2c3.3,4.1,7.4,7.5,10.2,12.1
				c-0.2-1.2-0.4-2.3-0.6-3.5c-0.5-3.7-1.1-7.5-1.6-11.2C316.6,170.1,316.9,169.7,318.3,169.5z"/>
			<path class="st0" d="M293.6,193.1c0.4-3.3,0.7-6.6,1.1-9.8c0.1-1.1,0.4-2.3,0.8-3.4c0.2-0.8,0.8-1.2,2-0.9
				c-0.3,2.1-0.6,4.1-1,6.1c-0.8,3.9-1.2,7.9-0.8,11.9c0.1,1.4-0.7,2.5-0.8,3.7c0,0.2-0.6,0.6-1,0.6c-0.2,0-0.6-0.4-0.7-0.7
				c-1.3-6.6-3.6-12.8-6.8-18.8c-0.4-0.8-0.9-1.5-1.3-2.3c-0.1-0.2-0.1-0.5-0.2-0.8c0.3,0,0.6-0.2,0.8-0.1c0.6,0.4,1.3,0.8,1.7,1.3
				c2.7,3.9,4.5,8.2,5.8,12.7c0,0.1,0.1,0.3,0.1,0.4C293.3,193.1,293.4,193.1,293.6,193.1z"/>
			<path class="st0" d="M319.6,53c-1.8,2.4-3.6,4.9-5.5,7.2c-1.1,1.3-2.7,2.2-4.7,2.5c5.4-5.9,9.5-12.5,14.1-18.7
				c0.1,0,0.3,0,0.4,0.1c0,0.7,0.1,1.5-0.1,2.2c-2.3,7.2-3.4,14.6-3.3,22.2c0,0.4,0.1,0.8,0,1.2c-0.1,0.3-0.4,0.5-0.6,0.8
				c-0.2-0.2-0.6-0.4-0.7-0.6c-0.3-1.5-0.7-3-0.6-4.5c0.2-3.3,0.6-6.7,1-10C319.6,54.5,319.6,53.7,319.6,53
				C319.7,52.9,319.7,52.9,319.6,53C319.8,52.9,319.7,52.9,319.6,53z"/>
			<path class="st0" d="M255.5,40.3c4.7,6.4,7.6,14,12.7,20.1c0.1,0.2,0,0.5,0,1.1c-0.7-0.2-1.4-0.3-1.9-0.7
				c-2.1-1.5-3.4-3.7-4.5-5.9c-1-2-1.9-4.1-3.1-6.1c0.2,2.2,0.4,4.4,0.6,6.6c0.2,3.1,0.4,6.3-0.6,9.4c-0.1,0.4-0.5,0.7-0.8,1
				c-0.1-0.1-0.1-0.1-0.2-0.2c0.1-2.3,0.4-4.6,0.2-6.9c-0.5-3.9-1.3-7.8-2-11.7c-0.3-1.8-0.7-3.5-1-5.3c-0.1-0.5,0.1-1,0.2-1.5
				C255.2,40.3,255.4,40.3,255.5,40.3z"/>
			<path class="st0" d="M236.8,66.6c2.1,3.6,4.1,7.2,5.1,11.2c0.3,1.1-0.2,2.1-1.4,2.7c0.2-2.5-0.7-4.6-1.6-6.8
				c-1.3-3.1-3.4-5.7-5.2-8.4c-1.3-2-2.5-4.1-3.6-6.2c-0.2-0.4-0.1-1-0.1-1.5c0.1,0,0.3-0.1,0.4-0.1c1,0.9,2.1,1.8,3.1,2.7
				c3,2.4,6,4.9,9.1,7.2c1.4,1.1,3,1.9,5,1.6c0.7-0.1,1.2,0.2,1.3,1.1c-1.5,0.9-3.1,1-4.6,0.3c-2.2-1-4.2-2.2-6.3-3.3
				C237.6,66.9,237.2,66.7,236.8,66.6L236.8,66.6z"/>
			<path class="st0" d="M287.7,44.9c-0.9,5.4-1.4,11-5.4,15.3c1.8-8.1,3.6-16.1,5.4-24.2c0.2,0,0.3,0,0.5,0c0.2,1.1,0.4,2.1,0.6,3.2
				c0.9,6.3,2.5,12.5,4.6,18.5c0.1,0.4,0,0.9,0,1.3c-0.4-0.2-1-0.4-1.2-0.7c-2-2.8-2.8-6.1-3.5-9.4c-0.3-1.3-0.4-2.7-0.7-4
				C287.9,44.9,287.8,44.9,287.7,44.9z"/>
			<path class="st0" d="M348.4,177c-1.5-1.3-3.1-2.6-4.6-3.9c-1.9-1.7-3.8-3.4-5.8-5c-2-1.6-4.2-2.6-6.7-3c-0.3-1.4,0-1.8,1.3-1.4
				c1.7,0.5,3.4,1.1,5,2c2.2,1.2,4.3,2.6,6.6,3.9c-0.4-0.9-0.9-1.8-1.3-2.6c-1.1-2.1-2.1-4.3-3.2-6.4c-0.6-1.1,0.1-2,0.5-2.9
				c0.2-0.6,0.9-0.4,1.2,0.4c1,2.6,2,5.2,3.1,7.8c1.2,2.7,2.5,5.3,3.7,8c0.4,0.9,0.5,1.9,0.8,2.9C348.8,176.8,348.6,176.9,348.4,177
				z"/>
			<path class="st0" d="M226.4,158.2c2.2-0.7,4.4-1.4,6.6-2.1c0.4-0.1,0.8-0.3,1.2-0.5c1.9-0.7,1.9-0.7,3.1,0.9
				c-5.7,1.3-10.9,4.1-16.1,6.6c-0.2,0.1-0.3,0.2-0.5,0.3c-0.3,0.1-0.7,0.1-1.1,0.1c0.1-0.4,0-1,0.2-1.2c1.7-2,3.7-3.9,5.2-6.1
				c2.2-3.1,4.1-6.4,6.1-9.6c0.2-0.3,0.1-0.9,0.3-1.2c0.2-0.4,0.5-0.7,0.8-1c0.3,0.4,0.9,0.9,0.8,1.3c-0.1,1.2-0.2,2.5-0.7,3.5
				c-1.2,2.2-2.7,4.3-4.2,6.4c-0.6,0.9-1.2,1.8-1.9,2.6C226.2,158.2,226.2,158.3,226.4,158.2z"/>
			<path class="st0" d="M268,189.4c1.1-2.8,2.1-5.3,3.2-7.8c0.4-1,0.9-2,1.5-3c0.2-0.4,1-0.9,1.1-0.9c0.5,0.5,1.1,1.1,0.7,1.9
				c-1,2-2,4-2.9,6.1c-1.1,2.8-2,5.6-3.1,8.4c-0.2,0.5-0.6,0.8-0.9,1.2c-0.4-0.5-1-1-1.1-1.5c-0.5-2.6-0.8-5.2-1.2-7.8
				c-0.5-3.3-1.2-6.5-3.1-9.3c-0.2-0.3-0.1-0.8-0.2-1.2c0.4,0.1,1,0,1.3,0.2c1.9,1.2,2.4,3.3,2.8,5.3
				C266.6,183.8,267.3,186.4,268,189.4z"/>
			<path class="st0" d="M242.9,176.3c2.2-3.1,5.1-5.3,8.1-7.4c0.9-0.6,0.9-0.6,2.1,0c-1,0.7-2.1,1.2-2.8,2c-2,2.1-3.9,4.4-5.8,6.6
				c-1.1,1.3-2,2.7-3.2,3.9c-0.3,0.4-1,0.4-1.5,0.5c0-0.5-0.2-0.9-0.1-1.4c1-4.5,2.2-8.9,2.2-13.5c0-1.1-0.1-2.2,0-3.4
				c0-0.3,0.4-0.6,0.6-1c0.2,0.3,0.6,0.5,0.7,0.8c0.9,2.8,0.7,5.7,0.3,8.5C243.3,173.5,243.1,174.9,242.9,176.3z"/>
			<path class="st0" d="M238.7,86.7c2,2.8,3.1,5.9,3.1,9.5c-1.1,0-1.7-0.6-1.8-1.5c-0.3-3.3-2.2-5.9-4-8.6c-1.1-1.7-1.9-3.8-3.6-5.1
				c-0.2-0.1-0.2-0.9-0.1-1c0.2-0.2,0.8-0.3,1.1-0.1c1.6,1,3.1,2.1,4.6,3.3c2.3,1.8,4.5,3.7,7.6,3.9c0.4,0,1.2,0.9,1.1,1.3
				c-0.1,0.9-0.9,0.7-1.5,0.5c-1.7-0.6-3.4-1.3-5.1-1.9C239.6,86.8,239.1,86.8,238.7,86.7L238.7,86.7z"/>
			<path class="st0" d="M210.3,127c-0.8,0.3-1.2,0.6-1.6,0.7c-0.6,0.2-1.2,0.4-1.4-0.5c0-0.1-0.2-0.3-0.3-0.3
				c-3-1.5-6.1-2.5-9.6-1.8c-0.8,0.1-1.6,0.3-2.4,0.3c-0.4,0-0.7-0.5-1.1-0.8c0.3-0.4,0.5-0.9,0.9-1c4.1-1.2,7.5-3.4,10.7-6.1
				c0.3-0.2,0.7-0.2,1.1-0.3c0,0.4,0.1,0.9,0,1.2c-0.9,2-2.6,3.2-4.4,4.2c-0.3,0.2-0.6,0.3-1.3,0.6c1.2,0.2,2.1,0.6,2.9,0.5
				c2-0.1,3.5,0.9,5.1,1.8C209.5,125.6,209.8,126.3,210.3,127z"/>
			<path class="st0" d="M324.5,165.8c-0.5-2.8-0.9-5.6-1.4-8.3c-0.1-0.6-0.2-1.2-0.1-1.8c0.1-0.4,0.4-0.8,0.6-1.2
				c0.1,0,0.3,0.1,0.4,0.1c1.2,5.5,2.4,10.9,3.6,16.6c-1.6-0.8-2.8-1.9-3.9-3.1c-1.6-1.8-3-3.6-4.7-5.3c-1.6-1.6-3.4-2.9-5.1-4.4
				c0.9-1.3,1-1.4,2.3-0.2c2.4,2,4.6,4.2,6.9,6.3C323.5,164.9,324,165.3,324.5,165.8z"/>
			<path class="st0" d="M282.4,73.4c-1.8,0.2-2.9-0.3-3.6-1.9c-0.5-1.2-0.9-2.5-1.4-3.7c-0.2-0.7-0.6-1.3-0.9-2.1
				c-0.7,2.2-1.3,4.1-1.9,6.1c-0.1,0.3-0.2,0.7-0.4,1c-0.1,0.2-0.4,0.6-0.6,0.6c-0.2,0-0.5-0.3-0.6-0.6c-0.4-1-0.5-1.9,0-2.9
				c1.3-2.8,2.5-5.6,2.5-8.8c0-0.3,0.3-0.7,0.6-0.7c0.2,0,0.6,0.3,0.7,0.5c0.5,1.5,1,2.9,1.5,4.4C279.2,68.2,280.2,71.1,282.4,73.4z
				"/>
			<path class="st0" d="M226.1,108.6c2.8,1.7,6.1,2.3,6.9,6.2c-0.7-0.2-1.2-0.2-1.4-0.4c-1.9-2.7-4.8-3.6-7.8-4.5
				c-0.7-0.2-1.5-0.4-2.2-0.7c-0.3-0.1-0.5-0.4-0.8-0.6c0.2-0.2,0.5-0.6,0.7-0.7c2.8-0.7,5.5-1.4,8.3-1.9c1.2-0.2,2.3-0.4,3.3-1
				c0.4-0.3,0.9-0.4,1.5-0.7c-0.1,1.4-0.8,2.2-1.8,2.5c-1.6,0.6-3.3,0.9-4.9,1.4C227.6,108.4,227,108.5,226.1,108.6z"/>
			<path class="st0" d="M253.6,68.5c1-0.3,1.6,0,2.1,0.7c1.1,1.6,2.2,3.2,3.6,4.6c0.8,0.8,2.1,1.1,3.2,1.7c0.5,0.3,1.2,0.8,1.2,1.1
				c0,0.8-1,1.1-1.9,0.5c-2-1.3-3.9-2.7-6-4.1c0.1,1.2,0.2,2.5,0.3,3.8c0.1,1.7,0.2,3.4,0.2,5.1c0,0.3-0.3,0.6-0.5,0.9
				c-0.2-0.2-0.6-0.4-0.7-0.7c-0.2-1-0.4-2-0.5-3c-0.4-3.2-0.7-6.3-1-9.5C253.6,69.3,253.6,69,253.6,68.5z"/>
			<path class="st0" d="M302,57.4c0,1.3,0.2,2.7,0,4c-0.4,2.8,0,5.4,1.2,7.9c0.2,0.5,0.4,1.1,0.4,1.6c0,0.4-0.2,1-0.4,1.1
				c-0.6,0.2-1.3,0.1-1.4-0.8c-0.4-1.9-0.9-3.8-1.4-5.7c0-0.1-0.1-0.3-0.1-0.3c-1.2,1.5-2.3,3-3.6,4.4c-0.3,0.4-1.1,0.4-1.7,0.4
				c-0.2,0-0.6-0.3-0.6-0.6c0-0.2,0.2-0.6,0.4-0.8c2.5-1.6,3.7-4.1,4.8-6.7c0.5-1.2,0.8-2.5,1.3-3.7c0.1-0.4,0.4-0.7,0.6-1
				C301.5,57.3,301.7,57.3,302,57.4z"/>
			<path class="st0" d="M323.1,76.7c-2.2,1.9-4.8,2.5-7.6,2.3c-0.1-0.1-0.2-0.3-0.3-0.4c0.4-0.3,0.7-0.7,1.1-0.9
				c2.2-1,4.5-1.9,6.5-3.1c1-0.6,1.7-1.8,2.6-2.8c0.5-0.5,1-1,1.8-1.7c0,0.8,0.1,1.3,0,1.7c-1.6,4.3-3.2,8.5-4.7,12.8
				c0,0.1-0.1,0.2-0.2,0.3c-0.9-0.2-1.2-0.5-0.9-1.5c0.7-2.2,1.2-4.4,1.8-6.6C323.4,76.6,323.2,76.7,323.1,76.7z"/>
			<path class="st0" d="M211.1,109.5c2.1,0.8,3.9,1.5,5.8,2.3c-0.1,0.6-0.1,1.3-0.2,1.6c-2.2-0.8-4.4-1.6-6.7-2.4
				c-0.7-0.2-1.5-0.2-2.2-0.4c-0.3-0.1-0.6-0.4-0.7-0.6c-0.1-0.2,0.1-0.6,0.3-0.8c3-1.8,6-3.6,9-5.4c0.3-0.2,0.8-0.1,1.2-0.1
				c-0.1,0.4,0,1-0.2,1.2c-1.2,1.1-2.4,2.2-3.7,3.1C213,108.6,212.2,109,211.1,109.5z"/>
			<path class="st0" d="M275.3,174.9c-0.4-0.7-0.9-1.4-1-2.1c-0.6-3.2-1-6.4-3.3-8.9c-0.2-0.2-0.3-0.6-0.2-0.9
				c0.1-0.2,0.5-0.3,0.8-0.3c0.5-0.1,1-0.1,1.6-0.1c0.8,2.5,1.6,4.9,2.4,7.6c0.4-0.8,0.6-1.4,0.9-2c0.3-0.6,0.6-1.2,1-1.6
				c0.4-0.4,0.9-0.5,1.4-0.8c0.1,0.6,0.4,1.3,0.2,1.8c-0.7,1.6-1.6,3-2.3,4.5c-0.4,0.8-0.6,1.8-1,2.7
				C275.7,174.8,275.5,174.9,275.3,174.9z"/>
			<path class="st0" d="M298.6,169.7c0-1.3,0-2.6,0-3.9c0-1.7,0.6-2.5,2.2-2.7c-0.2,1.4-0.4,2.7-0.5,4c-0.1,2-0.1,4-0.2,6.1
				c0,0.3-0.3,0.9-0.5,0.9c-0.3,0.1-0.9,0-1.1-0.3c-1.5-1.9-3-3.9-4.5-5.7c-0.6-0.7-1.5-1.1-2.2-1.7c-0.3-0.3-0.5-0.8-0.8-1.2
				c0.4,0,1-0.2,1.2,0c1.3,0.8,2.5,1.7,3.7,2.6c0.9,0.7,1.6,1.5,2.4,2.2C298.3,169.9,298.4,169.8,298.6,169.7z"/>
			<path class="st0" d="M231.9,139c1.8,0.1,3.4,0.2,4.9,0.4c0.7,0.1,1.4,0.3,2,0.6c0.2,0.1,0.4,0.6,0.4,0.9c0,0.1-0.6,0.4-0.8,0.4
				c-3-0.6-5.9-0.3-8.8,0.3c-0.4,0.1-0.9,0-1.3-0.1c0.2-0.4,0.3-0.9,0.6-1.3c1.8-2.6,3.7-5.3,5.6-7.9c0.4-0.5,0.6-1.5,1.4-1
				c0.6,0.4,0.5,1.2,0,1.9c-1.2,1.5-2.2,3.1-3.3,4.7C232.4,138.2,232.2,138.5,231.9,139z"/>
			<path class="st0" d="M300.7,149.2c2.8-0.8,3.5,1.7,5.3,2.6c0.2-0.7,0.3-1.5,0.5-2.1c0.2-0.7,0.5-1.5,1-2.1
				c0.2-0.3,1.2-0.5,1.4-0.3c0.4,0.3,0.7,0.9,0.2,1.7c-1.3,1.8-1.7,3.9-1.7,6.1c0,0.5,0.1,1.1,0.2,1.9c-1.9-0.8-2-2.9-3.2-4
				C303.1,151.9,302,150.6,300.7,149.2z"/>
			<path class="st0" d="M321.5,143.4c-0.1-0.9-0.1-1.8-0.2-2.7c-0.1-1-0.2-2,1.2-2.5c0.3,2.7,0.7,5.3,0.9,7.8c0,0.4-0.4,0.9-0.6,1.3
				c-0.3-0.3-0.6-0.6-0.9-0.9c-0.5-0.5-0.9-1-1.4-1.4c-0.6-0.5-1.4-0.9-2-1.5c-0.5-0.5-1.3-1-0.5-1.8c0.9-0.9,1.2,0.1,1.7,0.6
				c0.4,0.4,0.7,1,1,1.5C321.1,143.6,321.3,143.5,321.5,143.4z"/>
			<path class="st0" d="M282.5,153c1,1.4,1.8,2.6,2.8,4c0.3-1.1,0.6-2.1,1-3c0.2-0.4,0.9-1.1,1.1-1c0.8,0.3,1.1,1,0.7,1.8
				c-0.9,1.9-1.8,3.9-2.6,5.9c-0.1,0.2-0.3,0.4-0.5,0.4c-0.2,0-0.5-0.2-0.6-0.4c-0.1-0.4,0-1-0.2-1.4c-0.4-1.1-0.8-2.2-1.3-3.3
				C282.4,155.1,281.7,154.4,282.5,153z"/>
			<path class="st0" d="M302.2,81.7c-1.8,1.4-3.4,2.6-5.1,3.8c-0.2,0.2-0.5,0.2-0.8,0.3c0.1-0.3,0-0.6,0.2-0.8
				c1.4-1.3,2.8-2.6,4.2-3.9c0.5-0.5,1-1,1.6-1.5c0.4-0.4,0.9-0.5,1,0.3c0.2,2.2,0.4,4.4,0.5,6.7c0,0.3-0.3,0.6-0.4,0.9
				c-0.2-0.3-0.5-0.5-0.5-0.8C302.7,85.1,302.5,83.5,302.2,81.7z"/>
			<path class="st0" d="M273.2,85.1c-0.8-1.2-1.5-2.3-2.4-3.6c-0.4,1.5-0.8,2.9-1.1,4.2c-0.2,0.8-0.4,1.7-0.7,2.5
				c-0.1,0.3-0.4,0.4-0.6,0.6c-0.1-0.3-0.4-0.6-0.3-0.9c0.2-1.3,0.6-2.5,0.9-3.8c0.3-1.5,0.7-3,1-4.5c0.1-0.4,0.2-0.7,0.3-1.4
				c2.1,1.9,2.8,4.2,3.4,6.6C273.4,84.9,273.3,85,273.2,85.1z"/>
			<path class="st0" d="M332.9,124.6c-1.4-1-2.7-1.8-4-2.8c-0.3-0.2-0.4-0.8-0.7-1.2c0.4,0,0.8,0,1.1,0.2c1.5,0.9,3,1.8,4.4,2.9
				c1.2,1,1.1,1.5-0.3,2.3c-1.5,0.9-3.2,1.3-5.1,1.5C329.3,125.4,331.6,126.1,332.9,124.6z"/>
			<path class="st0" d="M243,101.3c1,1.6,2.8,2.6,2.5,5c-0.4-0.2-0.6-0.3-0.8-0.5c-1.1-1.3-2.2-2.7-3.3-4.1
				c-0.3-0.4-0.5-0.9-0.7-1.3c0.4-0.1,0.9-0.3,1.3-0.3c1.2-0.2,2.5-0.4,3.8-0.6c0.3,0,0.6,0.2,0.9,0.3c-0.2,0.3-0.3,0.8-0.6,0.9
				C245.2,101,244.1,101.1,243,101.3z"/>
			<path class="st0" d="M316.5,92.7c-0.4,2-0.2,4.1-1.3,5.9c-0.2,0-0.3,0-0.5-0.1c0.1-1.3,0.2-2.5,0.3-3.8c-1.7,0.6-2.6,2.5-4.6,2.4
				C310.5,95.8,312.9,93.9,316.5,92.7z"/>
			<path class="st0" d="M242.4,120.6c0.2,1.5-1.5,1.8-2.1,3c0.8,0.3,1.6,0.7,2.4,1.1c0.6,0.3,1.8,0.2,1.5,1.7
				c-0.8-0.2-1.5-0.4-2.2-0.6c-1.3-0.4-2.6-0.9-4.3-1.5c1.6-1.4,3-2.7,4.4-3.9C242.2,120.4,242.3,120.5,242.4,120.6z"/>
			<path class="st0" d="M260.9,103.8c-1.8-1.2-2.6-3.1-3.3-5.1c0-0.1,0.4-0.6,0.7-0.6c1.1-0.1,2.1-0.1,3.2,0c0.9,0,1.6,0.3,1.5,1.5
				c-1.2-0.1-2.4-0.2-3.9-0.3c0.8,1.6,1.5,2.9,2.2,4.2C261.2,103.6,261.1,103.7,260.9,103.8z"/>
			<path class="st0" d="M285.8,90.1c-0.5-1.1-1-2.2-1.5-3.3c-1.4,1.1-1.4,3.1-3.2,3.6c0.5-2.2,1.3-4.1,2.9-5.7
				C285.8,86.3,286.8,89.1,285.8,90.1z"/>
			<path class="st0" d="M272.2,126c-1.9,0-3.4-0.7-4.7-1.7c-0.2-0.1-0.1-0.9,0-1.1c1.1-1.3,2.4-2.5,3.6-3.8c1.1,1,0.5,1.6-0.2,2.1
				c-0.7,0.6-1.5,1.1-2.2,1.6C269.4,124.8,271.9,123.9,272.2,126z"/>
			<path class="st0" d="M274.8,150.5c1-1.1,1.8-2.1,2.8-3.2c0.6,1.2,0.1,1.8-0.4,2.4c-0.9,0.9-1.7,1.7-2,3c-0.1,0.3-0.7,0.6-1.1,0.7
				c-0.1,0-0.5-0.5-0.6-0.8c-0.2-0.9-0.4-1.8-0.4-2.7c0-0.3,0.2-0.7,0.3-1c0.3,0.2,0.7,0.4,0.9,0.7
				C274.6,149.7,274.7,150,274.8,150.5z"/>
			<path class="st0" d="M311.2,137.2c-2.1,0.2-4.4-1.8-4-3.5c0.9,0.7,1.9,1.4,3.1,2.4c0.2-1.1,0.3-1.9,0.4-2.7
				c0-0.4-0.1-0.8-0.1-1.2c0.1-0.3,0.3-0.6,0.5-0.9c0.2,0.3,0.4,0.5,0.5,0.8c0.1,0.7,0,1.4,0,2C311.5,135.1,311.3,136.2,311.2,137.2
				z"/>
			<path class="st0" d="M279.2,101.8c-1.2,0-1.5-0.5-1.5-1.3c0-1.1,0-2.1,0-3.4c0.9,0.3,1.9,0.6,2.9,1c0.7,0.2,1.3,0.6,1.9,0.9
				c0.2,0.1,0.4,0.3,0.6,0.5c-0.2,0.2-0.5,0.5-0.7,0.5c-0.5-0.1-1.1-0.3-1.5-0.5c-0.5-0.2-0.9-0.6-1.6-1
				C279.2,99.7,279.2,100.7,279.2,101.8z"/>
			<path class="st0" d="M257.1,115.6c0.7,2.1-1.2,2.6-1.4,4c0.8,0.8,2.6,0.4,2.9,2.3c-1.8,0.1-3.3-0.5-4.6-1.6
				C255,118.7,255.9,117.3,257.1,115.6z"/>
			<path class="st0" d="M288.2,138.7c1.9-0.2,2.4,1.4,3.6,2.1c0.5-0.8,1-1.7,1.6-2.5c0.1,0.1,0.3,0.1,0.4,0.2c0.6,2-1.3,2.9-2.1,4.6
				C290.4,141.5,289.3,140.1,288.2,138.7z"/>
			<path class="st0" d="M301.5,100.5c-0.6-0.4-1.2-0.8-1.9-1.2c-0.3,1.1-0.6,2.1-1,3.2c-0.9-1-1-3.6-0.2-4.1c0.5-0.3,1.3-0.2,1.8,0
				c0.6,0.3,1.1,1,1.6,1.6C301.8,100.2,301.6,100.3,301.5,100.5z"/>
			<path class="st0" d="M299,126.2c0.6-0.5,1.2-1,1.9-1.4c0.1-0.1,0.3,0,0.4,0c0,1.3-1.9,3.4-3.3,3.5c-0.2-1.2-0.9-2.3-0.1-3.9
				C298.4,125.1,298.7,125.6,299,126.2z"/>
			<path class="st0" d="M319.8,118.1c-0.1-1.5-0.1-2.8-0.2-4.1c0.2-0.1,0.3-0.1,0.5-0.2c0.3,0.4,0.7,0.7,0.8,1.1
				C321.3,116.3,320.9,117.4,319.8,118.1z"/>
			<path class="st0" d="M282.3,125.1c0.3-0.9,0.4-1.7,0.7-2.3c0.2-0.3,0.7-0.4,1.1-0.6c0.1,0.4,0.3,0.8,0.2,1.2
				c-0.2,0.6-0.7,1.2,0,1.8c0.1,0.1-0.1,0.5-0.1,0.5c-0.5,0.1-0.9,0.2-1.4,0.1C282.6,125.7,282.4,125.3,282.3,125.1z"/>
			<path class="st0" d="M303.9,115c0.8-0.6,1.3-1.1,2-1.4c0.3-0.2,1-0.4,1.2-0.2c0.6,0.4,0.2,0.9-0.2,1.3c-0.5,0.4-1,0.8-1.6,1.1
				C304.2,116.2,303.8,116,303.9,115z"/>
			<path class="st0" d="M333.1,138.5c-0.3-0.5-0.9-1.1-0.8-1.3c0.2-0.6,0.8-1,1.2-1.5c0.1-0.1,0.5,0.1,0.7,0.3
				c0.1,0.1,0,0.5-0.1,0.6C334,137.1,333.7,137.6,333.1,138.5z"/>
			<path class="st0" d="M250.5,131.8c-0.4-0.6-0.9-1.1-0.8-1.4c0.2-0.5,0.7-1,1.1-1.4c0.1-0.1,0.6,0.1,0.8,0.2
				c0.1,0.1,0,0.5-0.1,0.7C251.3,130.5,251,131,250.5,131.8z"/>
			<path class="st0" d="M269.3,108.1c-0.6,1-1,1.7-1.5,2.6c-0.3-0.4-0.9-0.8-0.9-1.1c0.1-0.5,0.5-1.1,0.9-1.4
				C268.1,108,268.6,108.1,269.3,108.1z"/>
			<path class="st0" d="M194.5,133.8c-0.4,0.6-0.7,1.1-1.1,1.6c-0.3-0.3-0.8-0.8-0.7-1c0.2-0.6,0.7-1,1-1.5
				C194,133.2,194.2,133.4,194.5,133.8z"/>
			<path class="st0" d="M279.3,111.6c0.4-0.5,0.8-1,1.1-1.4c0.2,0.3,0.7,0.7,0.6,0.9c-0.2,0.6-0.6,1.2-0.9,1.8
				C279.8,112.5,279.6,112.1,279.3,111.6z"/>
			<path class="st0" d="M293.8,112.9c-0.3-0.6-0.9-1.2-0.8-1.4c0.3-0.6,0.9-1.1,1.4-1.3c0.7-0.2,0.7,0.4,0.4,0.9
				C294.6,111.6,294.3,112.1,293.8,112.9z"/>
			<path class="st2" d="M226.4,158.2c-0.1,0-0.1,0.1-0.2,0.1c0-0.1,0-0.2,0-0.3C226.3,158.1,226.3,158.2,226.4,158.2z"/>
		</g>
		<path class="st2" d="M238.7,86.7c0-0.1,0-0.1,0.1-0.2C238.7,86.6,238.7,86.6,238.7,86.7C238.7,86.7,238.7,86.7,238.7,86.7z"/>
		<path class="st2" d="M323.1,76.7c0.1,0,0.2-0.1,0.3-0.1c0,0.1-0.1,0.2-0.1,0.3C323.3,76.8,323.2,76.7,323.1,76.7z"/>
	</g>
</g>
</svg>
