<?xml version="1.0" encoding="utf-8"?>
<!-- Generator: Adobe Illustrator 25.2.1, SVG Export Plug-In . SVG Version: 6.00 Build 0)  -->
<svg version="1.1"
	 id="puppy" inkscape:version="0.47 r22583" xmlns:cc="http://creativecommons.org/ns#" xmlns:dc="http://purl.org/dc/elements/1.1/" xmlns:inkscape="http://www.inkscape.org/namespaces/inkscape" xmlns:rdf="http://www.w3.org/1999/02/22-rdf-syntax-ns#" xmlns:sodipodi="http://sodipodi.sourceforge.net/DTD/sodipodi-0.dtd" xmlns:svg="http://www.w3.org/2000/svg"
	 xmlns="http://www.w3.org/2000/svg" xmlns:xlink="http://www.w3.org/1999/xlink" x="0px" y="0px" viewBox="0 0 400 400"
	 style="enable-background:new 0 0 400 400;" xml:space="preserve">
<style type="text/css">
	.st0{fill-rule:evenodd;clip-rule:evenodd;fill:url(#path2488_4_1_);}
	.st1{fill-rule:evenodd;clip-rule:evenodd;fill:url(#path52_1_);}
	.st2{fill-rule:evenodd;clip-rule:evenodd;fill:url(#path55_1_);}
	.st3{fill-rule:evenodd;clip-rule:evenodd;}
	.st4{fill-rule:evenodd;clip-rule:evenodd;fill:url(#ellipse60_1_);}
	.st5{fill-rule:evenodd;clip-rule:evenodd;fill:#141414;fill-opacity:0.3922;}
	.st6{fill-rule:evenodd;clip-rule:evenodd;fill:url(#path2419_1_);}
</style>
<g id="Group" transform="matrix(0.37957408,0,0,0.37957408,14.000289,-2.2075042)" inkscape:export-filename="D:\Puppy\puppy0912.png" inkscape:export-xdpi="3000.0005" inkscape:export-ydpi="3000.0005">
	
		<radialGradient id="path2488_4_1_" cx="-1520.6919" cy="1888.0671" r="129.0291" gradientTransform="matrix(2.5967 2.6839 2.1316 -2.0623 313.8076 8095.5845)" gradientUnits="userSpaceOnUse">
		<stop  offset="0" style="stop-color:#000000;stop-opacity:0.3922"/>
		<stop  offset="1" style="stop-color:#FFFFFF;stop-opacity:0"/>
	</radialGradient>
	
		<path id="path2488_4" sodipodi:nodetypes="cscsccsccccscscscsssccsccscssscsccccscscscsccssccsssssscccccccssscscccsccsssccsssccsssccccccccsscccssscssscssscssscsssssssssccsc" class="st0" d="
		M712.6,70.3c21.9,0.1,45,0.9,67.4,2.5c53.3,3.9,102.5,12.6,124.1,27.8c11.4,10.4,19.4,31,23.3,55.3c3.6,22.2,3.5,47.1-0.7,70.2
		c-4.1,22.5-12.2,43-24.8,57.2c-8.5,9.6-19.2,16.2-32.2,18.3c-28.7,4.6-45.4-23.6-68.6-62.7c-20.6-34.7-45.7-77.1-88.1-114.8
		c-17-12.3-31.9,0.2-22.9,10.3l0.2,0.2c45,37.3,70.5,80.7,91.3,115.9c27.7,46.8,47.7,80.6,91.5,73.5c9-1.5,17.2-4.4,24.6-8.6
		c33.9,63.8,53.1,136.7,53.1,214c0,126.2-51.1,240.4-133.8,323.1c-82.6,82.7-196.8,133.8-323,133.8c-126.2,0-240.4-51.1-323-133.8
		C88.6,769.7,37.5,655.5,37.5,529.3c0-31,3.1-61.3,9-90.6c-3.2-16.9-4.6-35.1-5.5-49c0-0.1,0-0.2,0-0.4
		c-3.8-40.1-6.3-96.5-2.1-144.4c3.5-39.5,11.3-72.4,26.3-82.4c1-0.7,1.9-1.6,2.7-2.5c4.9-6.4,33.6-25.2,77.4-37.6
		c22.1-6.2,47.7-10.6,75.8-10.4c6.5,0,13.1,0.3,19.8,0.8c39.5,3.2,81.7,36.6,110.9,77.4c12.1,16.9,21.9,34.8,28.3,52.3
		c6.2,17.1,9.3,33.7,8.1,48.3c-1.2,15.3-7.3,28.4-19.5,37.2c-21.5,15.4-51.6,5.9-86.1-4.9c-53.7-16.9-116.8-36.6-184.1,14.1l0,0
		c-16.9,11.8-4.8,29.2,5.2,25.5c63.1-52.4,122.1-33.8,172.2-18.1c40.2,12.6,75.3,23.6,105.9,1.7c18.2-13,27.2-31.9,28.9-53.8
		c1.4-17.9-2.1-37.7-9.4-57.7c-7.2-19.6-17.9-39.5-31.1-57.8c-18-25.1-40.7-47.7-65.3-63.6c57.7-26.3,121.9-41,189.4-41
		c34,0,67.1,3.7,99,10.8c13.5-5.8,31.6-7.8,47.4-10.1l0.2-0.1c18-1.6,39.5-2.6,62.4-2.7C706.4,70.3,709.5,70.3,712.6,70.3
		L712.6,70.3L712.6,70.3z"/>
	
		<linearGradient id="path52_1_" gradientUnits="userSpaceOnUse" x1="-138.0069" y1="1259.6704" x2="-93.0256" y2="1214.2848" gradientTransform="matrix(1.3449 0 0 -1.3449 858.2321 1735.0148)">
		<stop  offset="0" style="stop-color:#FFFDFF"/>
		<stop  offset="1" style="stop-color:#FFFFFF;stop-opacity:0"/>
	</linearGradient>
	<path id="path52" class="st1" d="M702.3,74.3c103.3,0,187.1,31.9,187.1,71.3c0,30.3-49.6,56.2-119.5,66.5
		c-10.3-56.7-80.5-104.2-176.7-124.4C623.9,79.3,661.6,74.3,702.3,74.3L702.3,74.3L702.3,74.3z"/>
	
		<linearGradient id="path55_1_" gradientUnits="userSpaceOnUse" x1="-328.7818" y1="1191.7401" x2="-274.2787" y2="1139.7463" gradientTransform="matrix(1.3449 0 0 -1.3449 858.2321 1735.0148)">
		<stop  offset="0" style="stop-color:#FFFFFF"/>
		<stop  offset="1" style="stop-color:#FFFFFF;stop-opacity:0"/>
	</linearGradient>
	<path id="path55" class="st2" d="M489.4,77.2c155.6,0,281.9,66.9,281.9,149.3c0,82.4-126.2,149.3-281.9,149.3
		c-48.3,0-93.7-6.4-133.5-17.8c1.4-0.3,2.8-0.6,4.2-0.9c10.2-2.6,20.3-8.1,30.1-18.1c8.9-10.4,15.3-21.8,18.6-34.4
		c3.3-12.5,3.5-26.2,0-41.3c-3.4-14.5-8.1-28.4-13.9-41.7c-5.8-13.3-12.7-26-20.5-38.3c-9.4-14-19.4-26.9-30.7-38.5
		c-11.3-11.6-24-22.1-38.7-31.2C354.3,91,418.8,77.2,489.4,77.2L489.4,77.2L489.4,77.2z"/>
	
		<path id="path2488_5" sodipodi:nodetypes="cscsccsccccscscscsssccsccscssscsccccscscscsccssccsssssscccccccssscscccsccsssccsssccsssccccccccsscccssscssscssscssscsssssssssccsc" class="st3" d="
		M710.4,48.2c-51.1,0.1-96.8,4-117.4,10c-1.2,0.3-2.3,0.9-3.2,1.5c-30.9-6.3-62.9-9.6-95.7-9.6c-77,0-149.7,18.1-214.2,50.3
		c-12.5-5.4-25.2-8.8-37.7-9.8c-38.7-3.1-74,2.1-103.5,10.4c-46.2,13-78.9,34.6-87.8,43.9C30.2,160.2,20,198.5,16,243.2
		c-6.1,67.8,1.2,152.1,6.7,186.4c0.2,1.4,0.6,2.7,1.3,3.9c-6.3,30.9-9.6,62.9-9.6,95.6c0,132.3,53.7,252,140.5,338.7
		c86.8,86.7,206.7,140.3,339.2,140.3c132.4,0,252.3-53.6,339.1-140.3c86.8-86.7,140.5-206.4,140.5-338.7c0-82.4-20.9-160-57.6-227.8
		c1-1,1.9-2,2.8-3.1c15.4-17.4,25.2-41.7,30.1-68c4.7-25.6,4.8-53.2,0.8-77.8c-4.7-29.3-15.4-54.8-30.9-68.7
		c-0.4-0.3-0.7-0.6-1.1-0.9c-25.1-18.1-78.9-28.1-136.2-32.3C758,49,733.6,48.2,710.4,48.2C710.4,48.2,710.4,48.2,710.4,48.2z
		 M712.6,70.7c22,0.1,45,0.9,67.4,2.5c53.3,3.9,102.6,12.6,124.2,27.8c11.4,10.4,19.4,31,23.4,55.2c3.6,22.2,3.5,47.1-0.7,70.1
		c-4.1,22.5-12.2,43-24.8,57.1c-8.5,9.6-19.2,16.2-32.2,18.3c-28.7,4.6-45.4-23.5-68.6-62.7c-20.6-34.7-45.7-77.1-88.1-114.7
		c-17-12.3-31.9,0.2-22.9,10.3l0.2,0.2c45,37.3,70.5,80.6,91.4,115.8c27.7,46.8,47.7,80.5,91.6,73.4c9-1.5,17.2-4.4,24.6-8.6
		c33.9,63.8,53.1,136.5,53.1,213.7c0,126.1-51.2,240.2-133.8,322.8c-82.7,82.6-196.9,133.6-323.1,133.6
		c-126.2,0-240.5-51.1-323.2-133.6C88.2,769.4,37.1,655.3,37.1,529.2c0-31,3.1-61.2,9-90.5c-3.2-16.8-4.6-35.1-5.5-49
		c0-0.1,0-0.2,0-0.4c-3.8-40-6.3-96.4-2.1-144.2c3.5-39.5,11.3-72.3,26.3-82.3c1-0.7,1.9-1.6,2.7-2.5c4.9-6.4,33.6-25.2,77.4-37.6
		c22.1-6.2,47.8-10.6,75.8-10.4c6.5,0,13.1,0.3,19.8,0.8c39.6,3.2,81.7,36.6,111,77.4c12.1,16.8,21.9,34.8,28.3,52.3
		c6.2,17.1,9.3,33.7,8.1,48.3c-1.2,15.3-7.3,28.4-19.5,37.1c-21.5,15.4-51.6,5.9-86.1-4.9c-53.8-16.9-116.8-36.6-184.2,14.1l0,0
		c-16.9,11.8-4.8,29.2,5.2,25.5c63.1-52.3,122.2-33.8,172.2-18.1c40.2,12.6,75.4,23.6,106,1.7c18.2-13,27.2-31.9,28.9-53.7
		c1.4-17.8-2.1-37.7-9.4-57.7c-7.2-19.6-17.9-39.4-31.1-57.8c-18-25.1-40.7-47.7-65.3-63.6c57.7-26.3,121.9-41,189.5-41
		c34,0,67.2,3.7,99,10.8c13.5-5.8,31.6-7.8,47.4-10.1l0.2-0.1c18-1.6,39.5-2.6,62.5-2.7C706.3,70.7,709.4,70.7,712.6,70.7
		L712.6,70.7L712.6,70.7z M761.4,313.7c-44.2,0-80,35.8-80,79.9c0,44.1,35.8,79.9,80,79.9c44.2,0,80-35.8,80-79.9
		C841.4,349.5,805.6,313.7,761.4,313.7L761.4,313.7z M262.5,372c-86.4,0-156.4,69.9-156.4,156.2s70.1,156.1,156.4,156.1
		s156.4-69.9,156.4-156.1S348.9,372,262.5,372L262.5,372L262.5,372z M305.7,453.8c39.6,0,71.7,32.1,71.7,71.6
		c0,39.5-32.1,71.6-71.7,71.6S234,564.9,234,525.4C234,485.8,266.1,453.8,305.7,453.8z M703.2,516.1c-2,0-3.8,0.4-5.6,1L474.8,582
		c-0.4,0.1-0.9,0.2-1.3,0.4l-0.1,0l-0.1,0l0,0c-6.4,2.3-11,8.4-11,15.6c0,6.9,4.2,12.7,10.1,15.2c0,0,0.1,0,0.1,0l137.1,77.3v0.6
		c0,23.8-10.6,45.3-27.7,61c-17.4,16-41.6,25.8-68.4,25.8c-16.9,0-33.1-3.9-47.2-11.1c-13.8-7-25.7-17.2-34.4-29.9
		c-0.1-0.2-0.2-0.4-0.4-0.6c-2.7-4-7.3-6.6-12.4-6.6c-8.3,0-15,6.7-15,15c0,3.3,1.1,6.4,2.9,8.9c11.5,16.8,27.3,30.4,45.7,39.8
		c18.4,9.4,39.3,14.6,60.8,14.6c34.5,0,65.9-12.9,88.7-33.8c16.6-15.2,28.6-34.5,34.1-56.3c22.4,18.5,51.9,29.7,84,29.7
		c34.5,0,65.9-12.9,88.7-33.8c23.1-21.2,37.4-50.5,37.4-83c0-1.4,0-3-0.1-4.9c0-0.1,0-0.2,0-0.3c0-8.3-6.7-15-15-15
		c-8.3,0-15,6.7-15,15c0,0.1,0,0.3,0,0.4c0,0.2,0,0.5,0.1,0.7c0.1,1.1,0.1,2.4,0.1,4.1c0,23.8-10.6,45.3-27.7,61
		c-17.4,16-41.6,25.8-68.4,25.8c-25.7,0-49.1-9.1-66.4-24.1c-3.6-3.1-6.9-6.4-9.9-10L717.5,541c1.4-2.4,2.3-5.3,2.3-8.3
		C719.8,523.5,712.4,516.1,703.2,516.1L703.2,516.1L703.2,516.1z"/>
	
		<linearGradient id="ellipse60_1_" gradientUnits="userSpaceOnUse" x1="-468.6972" y1="1120.3766" x2="-487.0218" y2="1140.5564" gradientTransform="matrix(1.3449 0 0 -1.3449 858.2321 1735.0148)">
		<stop  offset="0" style="stop-color:#FFFFFF;stop-opacity:8.849560e-03"/>
		<stop  offset="1" style="stop-color:#FFFFFF;stop-opacity:0.7843"/>
	</linearGradient>
	
		<ellipse id="ellipse60" sodipodi:cx="22.165199" sodipodi:cy="56.421501" sodipodi:rx="38.182999" sodipodi:ry="20.1476" class="st4" cx="197.4" cy="194.6" rx="135.3" ry="71.4">
	</ellipse>
	<path id="path64" class="st5" d="M321.1,357c18.5,6.6,39.8,13,53.8,13.1c37.7,0.1,51.9-26.1,51.9-58c0-18-12.1-54-20.7-65.7
		l-0.4,3.1c4.1,15,5.9,29.7,4.8,43.2c-1.8,21.9-10.7,40.8-28.9,53.8C363.1,359.7,343,360.9,321.1,357L321.1,357L321.1,357L321.1,357
		z"/>
	<path id="path66" class="st5" d="M856.1,324.5c5.2,3.9,10.4,7,15.6,8.6c14.1,4.4,26,4.6,36,1.8c-3.1-6.6-6.4-13.2-9.8-19.6
		c-7.4,4.2-15.6,7.1-24.6,8.6C867.1,324.9,861.4,325.1,856.1,324.5L856.1,324.5L856.1,324.5z"/>
	
		<radialGradient id="path2419_1_" cx="2047.7708" cy="2530.7927" r="460.7812" gradientTransform="matrix(0.2417 0.46 0.5467 -0.2873 -1380.3075 307.8911)" gradientUnits="userSpaceOnUse">
		<stop  offset="0" style="stop-color:#000000;stop-opacity:0"/>
		<stop  offset="0.6326" style="stop-color:#FFFFFF;stop-opacity:0"/>
		<stop  offset="0.6975" style="stop-color:#000000;stop-opacity:0.3922"/>
		<stop  offset="1" style="stop-color:#000000"/>
	</radialGradient>
	<path id="path2419" class="st6" d="M900.7,301.6c3.1,21.8,4.8,44,4.8,66.7c0,255.7-207.5,463.2-463.2,463.2
		c-174,0-325.7-96.1-404.8-238.1c32.4,224.1,225.4,396.4,458.4,396.4c255.7,0,463.2-207.5,463.2-463.2
		C959,444.9,937.8,368.2,900.7,301.6z"/>
</g>
</svg>
