<?xml version="1.0" encoding="utf-8"?>
<!-- Generator: Adobe Illustrator 25.2.1, SVG Export Plug-In . SVG Version: 6.00 Build 0)  -->
<svg version="1.1"
	 id="solus" inkscape:version="0.91 r13725" xmlns:cc="http://creativecommons.org/ns#" xmlns:dc="http://purl.org/dc/elements/1.1/" xmlns:inkscape="http://www.inkscape.org/namespaces/inkscape" xmlns:rdf="http://www.w3.org/1999/02/22-rdf-syntax-ns#" xmlns:sodipodi="http://sodipodi.sourceforge.net/DTD/sodipodi-0.dtd" xmlns:svg="http://www.w3.org/2000/svg"
	 xmlns="http://www.w3.org/2000/svg" xmlns:xlink="http://www.w3.org/1999/xlink" x="0px" y="0px" viewBox="0 0 512 512"
	 style="enable-background:new 0 0 512 512;" xml:space="preserve">
<style type="text/css">
	.st0{fill-rule:evenodd;clip-rule:evenodd;fill:#4C5263;}
	.st1{fill:#5294E2;}
	.st2{fill-rule:evenodd;clip-rule:evenodd;fill:#FFFFFF;}
</style>
<g id="Group" transform="translate(870.83295,1730.8969)">
	<path class="st0" d="M-374.1-1460c-2.4-2.5-4.9-4.9-7.5-7.2c0-0.1,0-0.2,0-0.3c0-133-107.8-240.8-240.8-240.8
		c-23.1,0-45.4,3.3-66.6,9.3c-9.5-13.9-16.9-23.5-19.9-24.4c-3.7,12-7.5,24-11.6,35.9c-84.1,37.6-142.7,121.9-142.7,219.9
		c0,24.6,3.7,48.3,10.5,70.7c-2.3,4-4.5,8.1-6.8,12.1l-3.8,7.5l5.8,3c3.9,1.8,8.8,3.2,14.9,4.5c5.7,12.9,12.6,25.2,20.4,36.8
		c83.5,7.1,177.1,10.6,257.8-1.1c77.4-11.2,142.3-36.6,177.5-84h0c-0.1,0.6-0.2,1.1-0.4,1.7c0.1-0.6,0.3-1.1,0.4-1.7
		c6.7-9.1,12-18.3,16.4-26.9l3.8-7.5L-374.1-1460z"/>
	<path id="path4814-1" inkscape:connector-curvature="0" sodipodi:nodetypes="ccccc" class="st1" d="M-561.8-1317.9
		c-81.8,11.5-165.2,8.7-247.3,2.4c52.8,67.4,144.7,101.3,229.5,85c81.9-14.1,153.6-74,182.5-151.8
		C-445.7-1347.9-503.1-1326.9-561.8-1317.9L-561.8-1317.9z"/>
	
		<path id="path4816-6" inkscape:connector-curvature="0" inkscape:export-xdpi="90" inkscape:export-ydpi="90" sodipodi:nodetypes="cccc" class="st2" d="
		M-607.3-1561.5c36.3,74.7,36.3,148.6,15,203.2c29.9,0.2,78.7,3.5,131.7-22.6C-504.1-1480.3-607.3-1561.5-607.3-1561.5z"/>
	<path id="path4819-6" inkscape:connector-curvature="0" sodipodi:nodetypes="cccsccc" class="st2" d="M-701.4-1689.5
		c-24.5,99.8-94.9,222.6-139.2,301l39.2,9.4c24.7,3.5,55.2,7,84.7,10.1c54.2,5.6,97.5,10,105.6,10.6c-1.2-15.1-12.3-179.1-15-210.7
		C-653.5-1618.6-675.7-1644.3-701.4-1689.5z"/>
	<path id="path4821-7" inkscape:connector-curvature="0" sodipodi:nodetypes="csccsc" class="st2" d="M-535.8-1516.4
		c22.5,15.1,43.9,28.8,60.2,45.1c22,22.1,33.3,51.8,30.1,82.8c29.5-14.8,49-39.5,60.2-60.2c-19.6-18.1-53.6-35.9-90.3-48.9
		C-495.8-1504.8-517.1-1511.3-535.8-1516.4z"/>
</g>
</svg>
