<?xml version="1.0" encoding="utf-8"?>
<!-- Generator: Adobe Illustrator 25.2.1, SVG Export Plug-In . SVG Version: 6.00 Build 0)  -->
<svg version="1.1"
	 id="tux-icon" xmlns:cc="http://creativecommons.org/ns#" xmlns:dc="http://purl.org/dc/elements/1.1/" xmlns:inkscape="http://www.inkscape.org/namespaces/inkscape" xmlns:rdf="http://www.w3.org/1999/02/22-rdf-syntax-ns#" xmlns:sodipodi="http://sodipodi.sourceforge.net/DTD/sodipodi-0.dtd" xmlns:svg="http://www.w3.org/2000/svg"
	 xmlns="http://www.w3.org/2000/svg" xmlns:xlink="http://www.w3.org/1999/xlink" x="0px" y="0px" viewBox="0 0 500 500"
	 style="enable-background:new 0 0 500 500;" xml:space="preserve">
<style type="text/css">
	
		.st0{fill-rule:evenodd;clip-rule:evenodd;fill:#FFFFFF;stroke:#000000;stroke-width:4.4171;stroke-linecap:round;stroke-linejoin:round;stroke-miterlimit:10;}
	.st1{fill-rule:evenodd;clip-rule:evenodd;}
	.st2{fill-rule:evenodd;clip-rule:evenodd;fill:#FFFFFF;}
	.st3{fill-rule:evenodd;clip-rule:evenodd;fill:#FFD320;}
	.st4{fill-rule:evenodd;clip-rule:evenodd;fill:#E68C3F;}
</style>
<g>
	<path id="frame" inkscape:connector-curvature="0" class="st0" d="M2,67.6c0-1,0-2.4,0-3.6c0-11.3,2.8-21.2,8.3-31.1
		s13-17,22.7-22.7c7.6-4.6,15.2-6.8,23.5-8V2h386.7v0.3c8.3,1.1,15.9,3.4,23.5,8c9.7,5.6,17,12.9,22.7,22.7
		c5.7,9.7,8.3,19.8,8.3,31.1c0,1.1,0,2.6,0,3.6l0,0V432l0,0c0,1,0,2.4,0,3.7c0,11.1-2.8,21.1-8.3,30.9c-5.5,9.9-12.9,17-22.7,22.7
		c-7.6,4.6-15.2,6.8-23.5,8v0.3H56.4v-0.3c-8.3-1.1-15.9-3.4-23.5-8c-9.7-5.6-17-12.9-22.7-22.7C4.6,456.9,2,446.8,2,435.7
		c0-1.3,0-2.8,0-3.7l0,0V67.6z"/>
	<g id="tux" transform="translate(-67.0625,94.125)">
		<path id="path175" inkscape:connector-curvature="0" class="st1" d="M364.4,376.8c13.2-38.6,11.5-83.4-4.8-120.8
			c-13-29.3-31.1-62.9-36.9-94.8c-2.1-11.3-3.8-28-1.9-39.4c0.4-7.1,3.5-16.1,6-22.7c7.5-17.2,19.8-30.6,35.1-41.2
			c27.2-17.6,63-33,95.9-25.8c6.9,1.3,15.7,4.9,22.1,7.6c10.1,5.4,22.8,16.5,30.8,24.7c9.8,11.1,20.5,28.1,27.9,40.8
			c5.1,9.2,15.6,34.5,20.1,44.3l4.5,11.7v174l0,0c2.4,32.1-22.5,62.5-54.4,65.8v0.5H357.3L364.4,376.8z"/>
		<g id="g179" transform="matrix(0.02143509,0,0,0.02151492,-11.905135,134.44951)">
			<path id="path185" inkscape:connector-curvature="0" class="st2" d="M26855.2,9389.1c131.9,1475.1-1080.5,2882.8-2538,3064.1
				c-48.5-166.9-4783.5,315.4-4392.1-224.6c49.4-641.5-21-1323.9-30.9-1966.5c-80.2-842.8-171.3-1707-438.2-2515.3
				c-537.9-1032.8,191.1-1871.5,1004.6-2484.4c1215.2-923.3,4164.2-2284.8,5140-480.6c372.5,477.7,774,967.4,1163.9,1430.7
				C27010.5,6211.8,26777.6,9305.8,26855.2,9389.1z"/>
			<path id="path193" inkscape:connector-curvature="0" class="st2" d="M20060.8,1839.3c1042.4,2316.4-1119.2,3315.5-2255.5,1054.1
				C16778.5,559.9,18961.9-424.3,20060.8,1839.3z"/>
			<path id="path201" inkscape:connector-curvature="0" class="st2" d="M21251.2,1446.9C22514.8,4124.4,25492,2780.6,24419,67.3
				C23153-2613.7,20178.7-1251.5,21251.2,1446.9z"/>
			<path id="path209" inkscape:connector-curvature="0" class="st1" d="M22085.4,1402.8c669.8,1583.5,2038.9,840.8,1428.7-660.9
				C22817.3-700.4,21572.9,5.3,22085.4,1402.8z"/>
			<path id="path217" inkscape:connector-curvature="0" class="st1" d="M19545.3,2432.3c171.2,367.4,332.3,1006.2-84.5,1199.4
				c-679.5,124.9-1290.3-1044.3-1046.2-1604.6c14.5-180.5,240.5-286.9,389.2-247.3C19154.2,1840.6,19366.3,2151.6,19545.3,2432.3z"
				/>
			<path id="path225" inkscape:connector-curvature="0" class="st3" d="M19370.5,3693.2c509-1477.9,1765-2089.9,3279.2-1787.8
				c759.9,172.4,1552.8-100.5,2305.6,105.8c1127,361.3,678,1783.8,22.1,2409.4c-1089,937.5-1336.5,2180-2956.1,2372
				c-721.7,4.1-1355.3-401.8-2062.2-496c-641.6-73-1463-536.9-1349.7-1276.4C18787,4536.6,19125.5,4118.6,19370.5,3693.2z"/>
			<path id="path233" inkscape:connector-curvature="0" class="st4" d="M24826.9,2921.7c-35.7,14.4-82.4,27.3-106.2,59.5
				c-60.6,20.5-124.5,97.9-172.6,141.1c-231.1,294.3-725.5,931.4-960.3,1223.5c-204.1,227.4-446.2,516.7-685.9,707.6
				c-220.8,167.1-451.9,358.1-703.6,478.4c-202.8,85.5-438,164.4-657.2,191.8c-203.4,25.6-432.5,55.5-637.2,28.7
				c-323.6-29.5-683.1-92.8-986.9-211.6c-154.3-61.8-424.7-138.9-577.5-205c-47.3-17.8-99-52.5-150.5-52.9l-19.9-8.8l-22.1,8.8l0,0
				l0,0l0,0l0,0l0,0l0,0l-13.3,4.4l0,0l0,0l0,0c-12.1-31.5-37.7-94.6-50.9-125.7l0,0l15.5-6.6l0,0l19.9-6.6l15.5-6.6l4.4,13.2
				c8.2-2.3,27.3-9.9,35.4-13.2l-2.2,17.6l0,0c10.6-4,31.8-12.9,42-17.6c354.1,142.8,758.4,301.1,1132.9,396.8
				c132,18,327.2,57.9,455.8,83.8c55.9-8.8,171.3-8.2,227.9-2.2c319.4,40.2,691.6-55,989.1-169.7c199.6-80.7,408-206.9,586.4-326.3
				c174.3-122.6,370.1-312.8,522.2-463c347.2-352.7,836.3-1003.1,1132.9-1406.4c27.8-38.4,94.7-109.6,130.6-141.1
				c26.6-41.2,97-120.2,135-152.1c45-14.2,78.7-63.5,106.2-99.2c20.3-8.5,63.6-25.8,84.1-33.1l8.8-19.8l48.7-19.8
				C24786.5,2822.2,24813.4,2889,24826.9,2921.7z"/>
		</g>
	</g>
</g>
</svg>
