<?xml version="1.0" encoding="utf-8"?>
<!-- Generator: Adobe Illustrator 25.2.1, SVG Export Plug-In . SVG Version: 6.00 Build 0)  -->
<svg version="1.1"
	 id="tux" inkscape:version="0.91 r13725" xmlns:cc="http://creativecommons.org/ns#" xmlns:dc="http://purl.org/dc/elements/1.1/" xmlns:inkscape="http://www.inkscape.org/namespaces/inkscape" xmlns:rdf="http://www.w3.org/1999/02/22-rdf-syntax-ns#" xmlns:sodipodi="http://sodipodi.sourceforge.net/DTD/sodipodi-0.dtd" xmlns:svg="http://www.w3.org/2000/svg"
	 xmlns="http://www.w3.org/2000/svg" xmlns:xlink="http://www.w3.org/1999/xlink" x="0px" y="0px" viewBox="0 0 630 730"
	 style="enable-background:new 0 0 630 730;" xml:space="preserve">
<style type="text/css">
	.st0{fill-rule:evenodd;clip-rule:evenodd;fill:#282828;}
	.st1{fill-rule:evenodd;clip-rule:evenodd;fill:#FCC624;}
	.st2{fill:#FCC624;}
	.st3{fill:#282828;}
	.st4{fill:#F5F5F5;}
</style>
<g>
	<path class="st0" d="M616.9,600.7c-0.8-11.8-14.8-22.5-27.1-33c-6-5.2-12.1-10.3-15.2-15.5c-2.6-4.2-5.6-10.6-6.5-15.2
		c-2.4-12.9-2.4-22.5-8.5-30.9c-5.6-7.8-10.5-10-19.1-11c-1.3-0.1-2.5-0.3-3.7-0.5c5.6-20.6,7.2-33.7,6.2-50.9
		c-2.3-39.4-27.1-81.1-59.4-128.6c-10.9-16-23.7-32.6-32.7-46.8c-10.5-16.5-21.4-35.5-25.7-52.8c-3.2-13-4.5-37.6-5-78.5
		c1.5-62.7-17.9-91.6-41.4-109.7c-23.5-18.1-58-17.8-70.4-16.7l0,0c-10.4,0.9-54.3,11.4-74.7,52.7l0,0c-6.4,12.6-10.5,28-10.9,47
		c-1.5,80.4,3.5,68,0.4,104.8c-1.1,13.6-7.2,33.9-17.1,53.8c-11.3,22.7-26.3,40.5-35.1,53.6c-18,26.7-35.3,49.9-48.4,76.4
		c-7.4,15.1-12.8,36.3-15.1,51.5c-1.6,10.2-1.7,23.4-1.4,35.7c-9.2,8-13.9,21.5-23.4,31.8c-6.1,6.6-17.9,8.8-31,11.3
		c-11.2,2.1-23.1,6.5-27.3,13.2c-0.5,0.7-0.9,1.5-1.3,2.3c-9.5,18.2,2.1,49.4-3.5,72.6c-2.4,9.8-6.5,19.1-6.5,27.5c0,4.4,1,9,4,14.3
		c3.3,5.8,10.6,9.9,21.1,13.5c9.7,3.4,22.3,6.3,37,9.8l5.1,1.2c6.6,1.6,13.2,3.1,19.8,4.5c4.3,0.9,6.8,1.3,9,1.7
		c9.3,1.7,12.9,2.3,37.8,12c6,2.3,12.7,4.9,19.7,7c13.9,4.3,29.7,7.5,44.2,4.8c7.4-1.3,14.3-4.1,20.5-9c6.4-5,12.6-11.7,16.9-18.6
		c1.2-1.8,2.2-3.7,3.2-5.6c0.8-1.6,1.6-3.3,2.2-5c0.6-1.6,1.1-3.2,1.4-4.8c5.9-2.9,20.4-7.3,54.9-7.7c52-0.5,86.7,18.3,86.7,18.3
		l0-0.4c0.4,2.5,1,4.8,1.6,7c1,3.2,2.3,6.2,4.1,9c1.8,2.8,4.1,5.5,6.9,8.1c3.1,2.8,6.8,5.5,11.1,7.7c4,2.1,8.4,3.8,13.3,5.1
		c4.4,1.2,9.2,1.9,14.3,2.2c4.8,0.2,9.7,0,14.9-0.7c8.8-1.3,15.5-4,21.3-7.6c5.7-3.5,10.3-7.7,15-12l0.1-0.1
		c3.1-2.8,6.3-5.7,9.8-8.3c2.3-1.8,4.5-3.4,6.5-5c3-2.3,4.7-3.7,6.4-5c5.1-4,10.5-8.2,15.8-12.2c5.5-4.1,11.3-8.2,17.7-12.3
		c4.8-3.1,10.2-6.6,15.4-10c5.4-3.5,11-7.2,16.2-10.8c9.4-6.4,22.5-14.4,27.4-24.7C616.2,607.8,617.1,604.4,616.9,600.7z"/>
	<path id="path3218" inkscape:connector-curvature="0" class="st1" d="M77.5,529.5c-12.4,5.9-40.8,5.8-47.7,17.6
		c-7.6,13-2.7,27.4-2.6,44c0,11.7-0.2,24.8-5.1,38.7c-4.1,11.5-5.4,15.5,0.4,25.6c5.8,10.1,31,15,65.2,23.1
		c34.2,8.1,23.3,2.1,61.5,17.1c23.7,9.3,57.1,20.6,78.8,3.7c8-6.2,21.1-20.4,21.9-34.2c0.5-7.9-0.3-16.3-2.1-21.4
		c-6.2-17-18.7-24.2-30.6-42c-21.7-33-44.8-64.2-63.3-91.7c-13-19.4-23.5-24.1-32.4-22.6C94.2,492.3,103,517.2,77.5,529.5
		L77.5,529.5L77.5,529.5L77.5,529.5L77.5,529.5z"/>
	<path class="st1" d="M609.8,597.8c-3.1-6.9-13.9-17.7-25.7-27.4c-30.8-25.5-17.5-49.2-30.4-61.7c-3.9-4.2-6.8-6.6-11.4-7.5
		c-8.4-1.7-14.7-1.7-19.9-1c-4.5,8.6-10.4,20-19.2,29.8c-14.2,15.9-38.1,26.4-54,19c-13.7-6.4-18.8-33.2-18.3-49.9
		c-2.7,0.2-5.2,0.8-7.3,2.2l0,0c-12,8.5-9.4,33.8-10.1,47.2c-1.1,20.5-1.2,43.3-1.9,52.3c-1.2,15-12.5,48.9-11.2,65
		c1.4,16,2.5,25.4,12.5,34.5c10,9.2,27.5,16,49.2,12.9c21.7-3.1,29.9-16.6,43.9-27.1c14-10.5,28.5-23,47-34.9
		c18.5-11.9,48.4-31.4,52.7-36.7C610,609.3,612.9,604.7,609.8,597.8z"/>
	<path class="st2" d="M372.4,197.4c-0.7-3.5-1.9-5.9-5.7-8.3c-4.2-2.7-11.6-5.5-24.2-9.8l0,0c-6.5-2.4-13.2-4.8-18.9-7
		c-12.9-5-21.3-8.8-33-7.8c-5.4,0.4-10.7,1.6-15.2,3.4v0c-8.6,3.6-16.9,9.2-23.7,13.9c-6,4.2-12.1,9.7-15.7,15.4
		c-2.1,3.4-5.4,10.3-2.3,14.3c0,0,7.9,4.1,15.9,8.8c12.9,7.6,27.5,11.5,40.7,10.8c10.4-0.6,22.1-3.9,30.5-7.9
		c8.5-4.1,18.9-10.5,29-18.3c1.6-1.2,4.6-4.1,6.4-5c1.6-0.8,7-0.3,6.7,1.5c-0.2,1.4-6.4,3.9-8.7,5.6c-11.1,8.2-23.4,16.3-31.5,20
		c-8.3,3.8-22.3,8.2-31.7,8.8c-8.6,0.5-15.9-0.4-23.4-3c-7.2-2.4-11.5-4.6-19.3-9c-2.5-1.4-4.8-2.6-8.2-4.7c0.3,0.3,0.2,0.8,0.5,1.1
		c3.6,3.6,7.9,7.2,11.5,11.3c4.2,4.8,8.1,10.1,11.7,13.4c6.6,6,12.9,9.2,22,10.4c17.7,2.2,30.9-2.7,45.9-12.6
		c7-4.6,16.8-13.2,22.4-17.4c9.4-7,12-6.5,14.8-10C371.9,211.6,373.3,202,372.4,197.4z"/>
	<path class="st3" d="M282.9,172.8c-0.4,0.6-2.8,1.7-4.3,2.9c-1.5,1.1-2.7,2.4-3.8,2.6c-0.7,0.1-1.7-0.2-2.1-1
		c-0.8-1.5,0.7-3.8,2.8-4.5C277.6,172.1,281.9,171.3,282.9,172.8L282.9,172.8z"/>
	<path class="st3" d="M308.3,178.2c-1,1-9.9-4.5-12-5.4v0v0c-0.6-0.7,7-2.2,10,0.1C309.4,175.4,309.2,177.2,308.3,178.2z"/>
	<path class="st4" d="M431.3,493.9c1-7.5,5.3-13.5,14-16.2c0,0,0,0,0,0c0.7-0.2,1.4-0.4,2.2-0.6c5.3-1.3,13.2-2.4,23.1-2.7
		c0.7,0,1.4,0,2.1-0.1c0.2,0,0.4,0,0.6,0c0.6,0,1.2,0,1.8,0c0.1,0,0.2,0,0.4,0c0.7,0,1.4,0,2.1,0c0.2,0,0.4,0,0.6,0
		c0.5,0,1.1,0,1.7,0c0.2,0,0.4,0,0.6,0c0.7,0,1.4,0,2.1,0c0.2,0,0.4,0,0.5,0c0.5,0,1.1,0,1.6,0.1c0.2,0,0.5,0,0.7,0
		c0.7,0,1.4,0.1,2,0.1c0.1,0,0.3,0,0.4,0c0.6,0,1.1,0.1,1.7,0.1c0.2,0,0.5,0,0.7,0.1c0.5,0,1.1,0.1,1.6,0.1c0.2,0,0.3,0,0.5,0
		c0.6,0.1,1.3,0.1,1.9,0.2c0.3,0,0.5,0.1,0.8,0.1c0.5,0.1,0.9,0.1,1.4,0.2c0.2,0,0.5,0.1,0.7,0.1c0.6,0.1,1.2,0.2,1.8,0.3
		c0.2,0,0.5,0.1,0.7,0.1c0.4,0.1,0.8,0.1,1.2,0.2c0.3,0,0.5,0.1,0.8,0.1c0.6,0.1,1.2,0.2,1.7,0.3c0.2,0,0.4,0.1,0.7,0.1
		c0.4,0.1,0.8,0.2,1.2,0.3c0.3,0.1,0.5,0.1,0.8,0.2c0.4,0.1,0.8,0.2,1.3,0.3c0.3,0.1,0.6,0.2,0.9,0.2c0.4,0.1,0.8,0.2,1.2,0.3
		c0.2,0.1,0.5,0.1,0.7,0.2c0.3,0.1,0.7,0.2,1,0.3c0.2,0.1,0.4,0.1,0.6,0.2c0.5,0.2,0.9,0.3,1.4,0.5c0.2,0.1,0.4,0.2,0.6,0.3
		c0.3,0.1,0.6,0.2,0.9,0.4c0.2,0.1,0.4,0.2,0.6,0.3c0.4,0.2,0.8,0.4,1.3,0.6c0.2,0.1,0.3,0.2,0.5,0.3c0.3,0.1,0.5,0.3,0.8,0.4
		c0.2,0.1,0.3,0.2,0.5,0.3c0.1,0,0.1,0.1,0.2,0.1c-2.3-2-5.1-3.8-8.1-5.2c-12-5.8-28.5-7.7-45.3-8.2c4.5-11.9,9.1-29,8.6-41.8
		c-1.3-33.6-18-59.4-41.8-77.4c-0.6-0.4-1.2-0.8-1.4-0.8s-0.1,0.2,0.7,1c27.5,26.1,36.7,55.8,34.5,84.6c-0.9,11.2-5.8,24-11.4,34.3
		c-2.6,0-5.7,0.1-8.3,0.2c1.3-35.3-5.6-64.9-25.3-106.1c-1.9-3.6-10.9-18.7-16.3-23c-4.2-20.5-4.8-19.5-13.2-38.3
		c-12.7-28.5-17.4-61.5-21.2-80.9v0c-2.7,1.4-7.3,3.3-14.4,8.8c-5.1,4-14.6,12.3-21.9,17.4c-4.8,3.3-10,6.1-15.1,8.4
		c-7.4,3.2-14.6,5.1-20,5.3c-19.4,1-28.7-3.8-37.6-13c-3.7-3.9-6.5-8.1-11.2-13.3c-2.1-2.3-5-5.3-7.9-7.4
		c-0.1,2.5-8.2,56.9-19.2,80.9c-11,24-10.4,15.9-17.8,41c-10.3,9.3-21.5,34.3-28.9,55.8c-7.6,25.3-13.4,44.7-13.9,73
		c-3.8-7.6-6.6-15.8-7.6-24.7c-3.8-31.3,4.5-68.5,29.2-95.4c1-1.1,1-1.6,0.6-1.6c-0.4,0-1,0.3-1.6,0.9c-30.8,27.5-38.2,78.3-35,101
		c2.3,16.2,6.5,30.2,15.1,41.6c0,0,0,0.1,0,0.1c0.1,0.2,0.3,0.3,0.4,0.5c2.3,2.9,4.8,5.7,7.7,8.2c0,0,0,0,0,0
		c5,5.6,11.3,11.6,24.1,21.4c23.6,17.9,40.1,27.4,43.4,39c4.3,15.5-5.4,25.8-17.5,32.1c8.8,8.8,37.1,27,88.6,24.7
		c45.3-2,73.8-19.2,98-48.8c0.2-6.8,0.9-18.2,1.2-30.5c0.3-11.8,0.4-23.5,2.2-32.7c0.4-2.1,1.2-4.2,2-6c3-7.3,10.9-12.2,18.5-12.6
		C431.3,494,431.3,493.9,431.3,493.9z"/>
	<path class="st4" d="M309.9,163.5c4.2,1.3,8.5,2.9,13.4,4.8c-3.1-6.9-2.8-15.9,1.2-23.2c5.8-10.6,17.3-14,25.6-7.6
		c8.3,6.4,10.4,20.2,4.6,30.8c-2.1,3.8-4.9,6.7-8.1,8.6c5.5,1.9,10,3.5,13.6,5c4.6-5.9,10.8-15.3,13.4-23.3
		c4.2-13.1,1-36.2-16.6-45.2c-3.8-2-7.8-2.9-11.8-2.9c-14.1-0.2-27.8,10.8-32.3,25.6C309.2,148.4,309.3,158.1,309.9,163.5
		L309.9,163.5z"/>
	<path class="st4" d="M245.8,181.5c1.2-0.9,2.4-1.8,3.6-2.6c0.9-0.7,1.9-1.3,2.8-2c-7.2-3.5-12-14.5-10.7-25
		c1.3-11,8.6-17.5,16.4-14.5c7.7,3,13,14.4,11.7,25.5c-0.2,1.4-0.4,2.8-0.8,4.1c2.3-1.2,4.4-2.1,6.3-2.9c0.5-0.2,0.9-0.4,1.4-0.5
		c0.7-5.5,0.6-11.6-0.6-17.7c-3.4-16.6-10.9-29-23.1-29.1c-2.3,0-4.7,0.4-7.2,1.3h0c-11.1,3.9-15.4,22.6-11.5,39.6
		C236.2,167,240,175.9,245.8,181.5z"/>
</g>
</svg>
