<?xml version="1.0" encoding="utf-8"?>
<!-- Generator: Adobe Illustrator 25.2.1, SVG Export Plug-In . SVG Version: 6.00 Build 0)  -->
<svg version="1.1" id="ubuntu" xmlns:svg="http://www.w3.org/2000/svg"
	 xmlns="http://www.w3.org/2000/svg" xmlns:xlink="http://www.w3.org/1999/xlink" x="0px" y="0px" viewBox="0 0 100 100"
	 style="enable-background:new 0 0 100 100;" xml:space="preserve">
<style type="text/css">
	.st0{fill:#FF6309;}
	.st1{fill:#FFB515;}
	.st2{fill:#C90016;}
</style>
<g>
	<circle id="orange-circle" class="st0" cx="14.1" cy="50" r="9.1"/>
	<circle id="yellow-circle" class="st1" cx="79" cy="87.5" r="9.1"/>
	<circle id="red-circle" class="st2" cx="78.9" cy="12.5" r="9.1"/>
	<path id="orange-arm" class="st0" d="M57.3,27.6c11.3,0,20.6,8.4,22.2,19.2H95c-0.7-8.5-4.2-16.5-10.1-22.7
		c-3.8,1.9-8.4,2-12.4-0.3c-4-2.3-6.3-6.3-6.5-10.6c-2.8-0.7-5.7-1-8.7-1c-5.7,0-11.1,1.2-16.1,3.6L49,29.2
		C51.6,28.2,54.4,27.6,57.3,27.6z"/>
	<path id="yellow-arm" class="st1" d="M34.9,50c0-7.1,3.4-13.5,8.6-17.6L35.7,19c-1.8,1.3-3.5,2.7-5.1,4.3
		c-4.5,4.5-7.7,9.9-9.5,15.8C24.7,41.4,27,45.4,27,50c0,4.6-2.4,8.6-5.9,10.9c1.8,5.9,5,11.3,9.5,15.8c1.6,1.6,3.3,3,5.1,4.3
		l7.8-13.4C38.3,63.5,34.9,57.1,34.9,50z"/>
	<path id="red-arm" class="st2" d="M79.5,53.2C77.9,64,68.6,72.4,57.3,72.4c-2.9,0-5.8-0.6-8.3-1.6l-7.8,13.4
		c5,2.3,10.4,3.6,16.1,3.6c3,0,5.9-0.3,8.7-1c0.2-4.3,2.5-8.3,6.5-10.6c4-2.3,8.6-2.2,12.4-0.3c5.9-6.3,9.4-14.2,10.1-22.7
		C95,53.2,79.5,53.2,79.5,53.2z"/>
</g>
</svg>
