<?xml version="1.0" encoding="utf-8"?>
<!-- Generator: Adobe Illustrator 25.2.1, SVG Export Plug-In . SVG Version: 6.00 Build 0)  -->
<svg version="1.1" id="Layer_1" xmlns="http://www.w3.org/2000/svg" xmlns:xlink="http://www.w3.org/1999/xlink" x="0px" y="0px"
	 viewBox="0 0 256 211" style="enable-background:new 0 0 256 211;" xml:space="preserve">
<style type="text/css">
	.st0{fill:#ABC2AB;}
	.st1{fill:#478061;}
</style>
<g>
	<g>
		<path class="st0" d="M128,0c-22,0-43.5,7-61.4,19.9l23.9,23.9c11.3-6.9,24.2-10.6,37.5-10.6c39.8,0,72,32.2,72,72
			c0,13.2-3.7,26.2-10.6,37.4l23.9,23.9c12.9-17.9,19.8-39.3,19.9-61.4C233.3,47.1,186.1,0,128,0L128,0z"/>
		<path class="st1" d="M189.4,190.6l-23.9-23.9c-11.3,6.9-24.2,10.6-37.5,10.6c-39.8,0-72-32.2-72-72c0-13.2,3.7-26.2,10.6-37.4
			L42.7,43.8c-12.9,17.9-19.8,39.3-19.9,61.4c0,58.1,47.1,105.2,105.2,105.2C150,210.4,171.5,203.5,189.4,190.6L189.4,190.6z"/>
		<circle class="st0" cx="128" cy="105.2" r="33.5"/>
	</g>
	<g>
		<path d="M30.6,124.8c-1.1,0.8-2.2,1.2-3.1,1.2h-4.1c-0.6,0-1-0.1-1.4-0.3s-0.6-0.5-0.8-0.9L0.5,86.2c-0.1-0.1-0.1-0.2-0.1-0.3
			v-0.4c0-0.4,0.1-0.7,0.4-1c0.3-0.3,0.8-0.4,1.5-0.4h25.3c1.4,0,2.2,0.4,2.6,1.2L43,110l35.8-24.7c1.2-0.8,2.4-1.2,3.8-1.2h4
			c0.5,0,0.8,0.2,0.8,0.7c0,0.4-0.3,0.8-1,1.4L30.6,124.8L30.6,124.8z"/>
		<path d="M86.4,126c-2.1,0-4-0.3-5.7-1c-1.6-0.7-3-1.6-4.1-2.8c-1.1-1.2-1.9-2.6-2.5-4.2c-0.6-1.6-0.9-3.4-0.9-5.3
			c0-2.4,0.4-4.8,1.2-7.1c0.8-2.3,1.9-4.6,3.4-6.7c1.5-2.1,3.2-4.1,5.2-5.9c2-1.8,4.2-3.4,6.5-4.7c2.4-1.3,4.9-2.3,7.5-3.1
			c2.6-0.8,5.3-1.2,8.1-1.2h30.1c2.2,0,4.1,0.3,5.7,1c1.7,0.7,3.1,1.6,4.2,2.8c1.1,1.1,1.9,2.5,2.5,4.1c0.6,1.6,0.9,3.3,0.9,5.2
			c0,2.4-0.4,4.8-1.3,7.2c-0.8,2.3-2,4.6-3.4,6.7c-1.5,2.1-3.2,4.1-5.2,6c-2,1.8-4.2,3.4-6.6,4.7c-2.4,1.3-4.9,2.4-7.5,3.1
			c-2.6,0.7-5.3,1.1-7.9,1.1H86.4L86.4,126z M123.4,100.9c1.4-2.9,2-5,2-6.5c0-1.2-0.4-2-1.3-2.5c-0.8-0.5-2-0.7-3.7-0.7h-8.4
			c-1.2,0-2.3,0.2-3.3,0.5c-1,0.3-1.9,0.8-2.8,1.5c-0.9,0.7-1.7,1.7-2.5,3c-0.8,1.2-1.6,2.8-2.4,4.6l-3,6.7
			c-1.6,3.5-2.3,6.1-2.3,7.9c0,1.2,0.3,2,1,2.6c0.7,0.5,1.7,0.7,3,0.7h8.4c1.3,0,2.4-0.2,3.5-0.6c1.1-0.4,2.1-1,3.1-1.9
			c1-0.9,1.9-2,2.8-3.4c0.9-1.4,1.8-3.2,2.8-5.3L123.4,100.9L123.4,100.9z"/>
		<path d="M144.1,126c-0.7,0-1.1-0.2-1.1-0.7c0-0.2,0.1-0.6,0.2-0.9l17.3-38.7c0.5-1.1,1.3-1.6,2.3-1.6H184c0.8,0,1.2,0.3,1.2,0.8
			c0,0.2-0.1,0.5-0.2,0.8l-17.2,38.7c-0.5,1.1-1.3,1.7-2.3,1.7H144.1L144.1,126z"/>
		<path d="M174.3,126c-0.7,0-1.1-0.2-1.1-0.7c0-0.2,0.1-0.6,0.2-0.9l17.3-38.7c0.5-1.1,1.3-1.6,2.3-1.6h49.4c2.1,0,4,0.3,5.7,1
			c1.6,0.7,3,1.6,4.1,2.8c1.1,1.1,1.9,2.5,2.5,4.1c0.6,1.6,0.9,3.3,0.9,5.2c0,2.5-0.4,5-1.3,7.4c-0.9,2.4-2,4.6-3.6,6.8
			c-1.5,2.1-3.2,4.1-5.3,5.9c-2,1.8-4.2,3.4-6.6,4.7c-2.3,1.3-4.8,2.3-7.4,3c-2.6,0.7-5.2,1.1-7.7,1.1H174.3L174.3,126z
			 M227.8,100.9c1.3-3,2-5.1,2-6.5c0-1.2-0.4-2-1.2-2.5c-0.8-0.5-2-0.7-3.6-0.7h-12.5l-12.2,27.5h12.4c1.2,0,2.4-0.2,3.4-0.6
			c1.1-0.4,2.1-1,3-1.9c1-0.9,1.9-2,2.8-3.4c0.9-1.4,1.9-3.2,2.8-5.3L227.8,100.9L227.8,100.9z"/>
	</g>
</g>
</svg>
