<?xml version="1.0" encoding="UTF-8" standalone="no"?>
<!-- Generator: Adobe Illustrator 25.2.1, SVG Export Plug-In . SVG Version: 6.00 Build 0)  -->

<svg
   version="1.1"
   id="Layer_1"
   x="0px"
   y="0px"
   viewBox="0 0 3840 2160"
   style="enable-background:new 0 0 3840 2160;"
   xml:space="preserve"
   sodipodi:docname="angular.svg"
   inkscape:version="1.1.1 (3bf5ae0d25, 2021-09-20)"
   xmlns:inkscape="http://www.inkscape.org/namespaces/inkscape"
   xmlns:sodipodi="http://sodipodi.sourceforge.net/DTD/sodipodi-0.dtd"
   xmlns="http://www.w3.org/2000/svg"
   xmlns:svg="http://www.w3.org/2000/svg"><defs
   id="defs2916" /><sodipodi:namedview
   id="namedview2914"
   pagecolor="#505050"
   bordercolor="#eeeeee"
   borderopacity="1"
   inkscape:pageshadow="0"
   inkscape:pageopacity="0"
   inkscape:pagecheckerboard="0"
   showgrid="false"
   inkscape:zoom="0.25190679"
   inkscape:cx="1774.4659"
   inkscape:cy="593.47348"
   inkscape:window-width="1916"
   inkscape:window-height="1056"
   inkscape:window-x="0"
   inkscape:window-y="20"
   inkscape:window-maximized="1"
   inkscape:current-layer="g1107" />
<style
   type="text/css"
   id="style2876">
	.st0{fill:#0065A9;}
	.st1{fill:#007ACC;}
	.st2{fill:#1F9CF0;}
	.st3{opacity:0.25;}
	.st4{fill-rule:evenodd;clip-rule:evenodd;fill:url(#SVGID_1_);}
</style>
<rect
   style="fill:#24283b;fill-opacity:1;stroke:#1a1b26;stroke-width:6.79166"
   id="rect3113"
   width="3833.2085"
   height="2153.2083"
   x="3.3958299"
   y="3.3958299" />
<g
   id="g1107"
   transform="matrix(0.35947408,0,0,0.30878307,-78.430652,-16.989954)">
	<polygon
   class="st0"
   points="203.9,186.3 218.1,63.2 125,30 31.9,63.2 46.1,186.3 125,230 "
   id="polygon1101"
   transform="matrix(11.472856,0,0,11.472856,4125.2108,2061.1521)"
   style="fill:#f7768e;fill-opacity:1" />
	<polygon
   class="st1"
   points="125,230 203.9,186.3 218.1,63.2 125,30 125,52.2 125,52.1 125,153.4 "
   id="polygon1103"
   transform="matrix(11.472856,0,0,11.472856,4125.2108,2061.1521)"
   style="fill:#de526c;fill-opacity:1" />
	<path
   class="st2"
   d="m 5559.3177,2658.888 -667.7201,1497.2075 v 0 h 248.961 v 0 l 134.2323,-335.0073 H 5841.55 l 134.2324,335.0073 v 0 h 248.961 v 0 z m 195.0386,955.6888 h -390.0771 l 195.0385,-469.2398 z"
   id="path1105"
   style="stroke-width:11.4729;fill:#c0caf5;fill-opacity:1" />
</g><style
   type="text/css"
   id="style1099">
	.st0{fill:#DD0031;}
	.st1{fill:#C3002F;}
	.st2{fill:#FFFFFF;}
</style></svg>
