<?xml version="1.0" encoding="UTF-8" standalone="no"?>
<!-- Generator: Adobe Illustrator 25.2.1, SVG Export Plug-In . SVG Version: 6.00 Build 0)  -->

<svg
   version="1.1"
   id="Layer_1"
   x="0px"
   y="0px"
   viewBox="0 0 3840 2160"
   style="enable-background:new 0 0 3840 2160;"
   xml:space="preserve"
   sodipodi:docname="appcode.svg"
   inkscape:version="1.1.1 (3bf5ae0d25, 2021-09-20)"
   xmlns:inkscape="http://www.inkscape.org/namespaces/inkscape"
   xmlns:sodipodi="http://sodipodi.sourceforge.net/DTD/sodipodi-0.dtd"
   xmlns:xlink="http://www.w3.org/1999/xlink"
   xmlns="http://www.w3.org/2000/svg"
   xmlns:svg="http://www.w3.org/2000/svg"><defs
   id="defs2916"><linearGradient
     id="linear-gradient"
     x1="37.7"
     y1="-754.46"
     x2="128"
     y2="-754.46"
     gradientTransform="matrix(1, 0, 0, -1, 0, -648.86)"
     gradientUnits="userSpaceOnUse"><stop
       offset="0.19"
       stop-color="#00daf0"
       id="stop919" /><stop
       offset="0.9"
       stop-color="#247ce6"
       id="stop921" /></linearGradient><linearGradient
     id="linear-gradient-2"
     x1="2.33"
     y1="-680.66"
     x2="70.23"
     y2="-680.66"
     xlink:href="#linear-gradient" /><linearGradient
     id="linear-gradient-3"
     x1="83.87"
     y1="-780.92"
     x2="20.45"
     y2="-692.42"
     gradientTransform="matrix(1,0,0,-1,0,-648.86)"
     gradientUnits="userSpaceOnUse"><stop
       offset="0.09"
       stop-color="#1ddf93"
       id="stop925" /><stop
       offset="0.48"
       stop-color="#00daf0"
       id="stop927" /><stop
       offset="0.9"
       stop-color="#247ce6"
       id="stop929" /></linearGradient></defs><sodipodi:namedview
   id="namedview2914"
   pagecolor="#505050"
   bordercolor="#eeeeee"
   borderopacity="1"
   inkscape:pageshadow="0"
   inkscape:pageopacity="0"
   inkscape:pagecheckerboard="0"
   showgrid="false"
   inkscape:zoom="0.7125"
   inkscape:cx="1762.807"
   inkscape:cy="1098.2456"
   inkscape:window-width="1920"
   inkscape:window-height="1060"
   inkscape:window-x="0"
   inkscape:window-y="20"
   inkscape:window-maximized="1"
   inkscape:current-layer="Layer_1" />
<style
   type="text/css"
   id="style2876">
	.st0{fill:#0065A9;}
	.st1{fill:#007ACC;}
	.st2{fill:#1F9CF0;}
	.st3{opacity:0.25;}
	.st4{fill-rule:evenodd;clip-rule:evenodd;fill:url(#SVGID_1_);}
</style>
<rect
   style="fill:#24283b;fill-opacity:1;stroke:#1a1b26;stroke-width:6.79166"
   id="rect3113"
   width="3833.2085"
   height="2153.2083"
   x="3.3958299"
   y="3.3958299" />
<g
   id="g975"
   transform="matrix(4.6591126,0,0,4.6591126,1621.8168,781.81679)"><g
     id="g942"><polygon
       points="60.4,57 108.2,100.6 128,48.2 68.2,34.6 "
       fill="#247ce6"
       id="polygon934"
       style="fill:#7aa2f7;fill-opacity:1" /><polygon
       points="53.8,83.2 128,102.6 97.8,128 37.6,112.4 "
       fill="url(#linear-gradient)"
       id="polygon936"
       style="fill:#7aa2f7;fill-opacity:1" /><polygon
       points="64.8,56.8 17.6,63.6 2.4,19.8 70.2,0 "
       fill="url(#linear-gradient-2)"
       id="polygon938"
       style="fill:#7aa2f7;fill-opacity:1" /><polygon
       points="0,128 127.6,102.6 111.6,74 92.6,41.6 93,41.4 70.2,0 0,75.8 "
       fill="url(#linear-gradient-3)"
       id="polygon940"
       style="fill:#73daca;fill-opacity:1" /></g><g
     id="g952"><rect
       x="24"
       y="24"
       width="80"
       height="80"
       id="rect944"
       style="fill:#414868;fill-opacity:1" /><g
       id="g1062"><rect
         x="31.4"
         y="89"
         width="30"
         height="5"
         fill="#ffffff"
         id="rect946" /><path
         d="m 44.6,34.4 h 6.6 l 14,33 H 57.6 L 54.6,60 H 40.8 l -3,7.4 h -7.4 z m 7.6,19.4 -4.4,-10.6 -4.4,10.6 z"
         fill="#ffffff"
         id="path948" /><path
         d="m 63.4,51.2 v 0 A 17,17 0 0 1 80.8,33.8 c 6.2,0 10,2 13.2,5.2 l -4.6,5.4 c -2.6,-2.4 -5.2,-3.8 -8.6,-3.8 -5.6,0 -9.6,4.6 -9.6,10.4 v 0 c 0,5.8 4,10.4 9.6,10.4 3.8,0 6.2,-1.6 8.8,-4 l 4.6,4.8 c -3.4,3.6 -7.2,6 -13.6,6 a 16.78,16.78 0 0 1 -17.2,-17"
         fill="#ffffff"
         id="path950" /></g></g></g></svg>
