<?xml version="1.0" encoding="UTF-8" standalone="no"?>
<!-- Generator: Adobe Illustrator 25.2.1, SVG Export Plug-In . SVG Version: 6.00 Build 0)  -->

<svg
   version="1.1"
   id="Layer_1"
   x="0px"
   y="0px"
   viewBox="0 0 3840 2160"
   style="enable-background:new 0 0 3840 2160;"
   xml:space="preserve"
   sodipodi:docname="atom.svg"
   inkscape:version="1.1.1 (3bf5ae0d25, 2021-09-20)"
   xmlns:inkscape="http://www.inkscape.org/namespaces/inkscape"
   xmlns:sodipodi="http://sodipodi.sourceforge.net/DTD/sodipodi-0.dtd"
   xmlns="http://www.w3.org/2000/svg"
   xmlns:svg="http://www.w3.org/2000/svg"><defs
   id="defs17" /><sodipodi:namedview
   id="namedview15"
   pagecolor="#505050"
   bordercolor="#eeeeee"
   borderopacity="1"
   inkscape:pageshadow="0"
   inkscape:pageopacity="0"
   inkscape:pagecheckerboard="0"
   showgrid="false"
   inkscape:zoom="0.35625"
   inkscape:cx="696.14035"
   inkscape:cy="1079.2982"
   inkscape:window-width="1920"
   inkscape:window-height="1060"
   inkscape:window-x="0"
   inkscape:window-y="20"
   inkscape:window-maximized="1"
   inkscape:current-layer="Layer_1" />
<style
   type="text/css"
   id="style2">
	.st0{fill:none;stroke:#66595C;stroke-width:5;stroke-linecap:round;}
	.st1{fill:#66595C;}
</style>
<rect
   style="fill:#24283b;fill-opacity:1;stroke:#1a1b26;stroke-width:6.79166"
   id="rect3113"
   width="3833.2085"
   height="2153.2083"
   x="3.3958299"
   y="3.3958299" /><g
   id="g12"
   style="stroke:#b4f9f8;stroke-opacity:1">
	<path
   class="st0"
   d="m 2224.9,834.5 c 16.8,-86.3 7.2,-151 -32.7,-177.3 -13.6,-8.8 -29.6,-12.8 -47.1,-12 -96.7,4.8 -253.2,138.2 -381,334.7 -151.8,233.2 -205.3,466.5 -119.8,521.6 40.7,26.4 104.6,8 177.3,-43.9"
   id="path4"
   style="stroke:#b4f9f8;stroke-opacity:1" />
	<path
   class="st0"
   d="m 2302.4,1216.4 c 71.9,-28 115.8,-66.3 118.2,-110.2 5.6,-101.4 -214.9,-194.9 -492.8,-209.3 -26.4,-1.6 -51.9,-2.4 -76.7,-1.6 -242,0 -430.5,66.3 -435.3,158.2 -2.4,43.9 37.5,86.3 105.4,121.4"
   id="path6"
   style="stroke:#b4f9f8;stroke-opacity:1" />
	<path
   class="st0"
   d="m 1849.5,683.6 c -49.5,-40.7 -95.1,-62.3 -132.6,-59.9 -9.6,0.8 -18.4,3.2 -27.2,8 -90.3,46.3 -61.5,284.4 64.7,532 126.2,247.6 301.9,411.4 392.2,365 87.1,-43.9 63.1,-266 -50.3,-503.2"
   id="path8"
   style="stroke:#b4f9f8;stroke-opacity:1" />
	<path
   class="st1"
   d="m 1981.3,1087 c 0,32.7 -27.2,59.9 -59.9,59.9 -32.7,0 -59.9,-27.2 -59.9,-59.9 v 0 c 0,-32.7 27.2,-59.9 59.9,-59.9 32.7,-0.1 59.9,27.1 59.9,59.9 z"
   id="path10"
   style="stroke:none;stroke-opacity:1;fill:#b4f9f8;fill-opacity:1" />
</g>
</svg>
