<?xml version="1.0" encoding="UTF-8" standalone="no"?>
<!-- Generator: Adobe Illustrator 25.2.1, SVG Export Plug-In . SVG Version: 6.00 Build 0)  -->

<svg
   version="1.1"
   id="Layer_1"
   x="0px"
   y="0px"
   viewBox="0 0 3840 2160"
   style="enable-background:new 0 0 3840 2160;"
   xml:space="preserve"
   sodipodi:docname="c.svg"
   inkscape:version="1.1.1 (3bf5ae0d25, 2021-09-20)"
   xmlns:inkscape="http://www.inkscape.org/namespaces/inkscape"
   xmlns:sodipodi="http://sodipodi.sourceforge.net/DTD/sodipodi-0.dtd"
   xmlns="http://www.w3.org/2000/svg"
   xmlns:svg="http://www.w3.org/2000/svg"><defs
   id="defs868" /><sodipodi:namedview
   id="namedview866"
   pagecolor="#505050"
   bordercolor="#eeeeee"
   borderopacity="1"
   inkscape:pageshadow="0"
   inkscape:pageopacity="0"
   inkscape:pagecheckerboard="0"
   showgrid="false"
   inkscape:zoom="0.35625"
   inkscape:cx="1661.7544"
   inkscape:cy="1152.2807"
   inkscape:window-width="1920"
   inkscape:window-height="1060"
   inkscape:window-x="0"
   inkscape:window-y="20"
   inkscape:window-maximized="1"
   inkscape:current-layer="Layer_1" />
<style
   type="text/css"
   id="style834">
	.st0{fill:#A8B9CC;}
	.st1{fill:#1B75B3;}
</style>
<rect
   style="fill:#24283b;fill-opacity:1;stroke:#1a1b26;stroke-width:6.79166"
   id="rect3113"
   width="3833.2085"
   height="2153.2083"
   x="3.3958299"
   y="3.3958299" /><g
   id="g863">
	<path
   id="path3"
   class="st0"
   d="m 2013,958.2 c 0,0 -7.6,-71.8 -78.8,-73.7 -71.2,-1.9 -107.8,53.8 -107.8,133.5 0,79.7 40.4,143.5 109.6,143.5 69.2,0 77,-79.7 77,-79.7 l 132.8,7.9 c 0,0 7.8,72 -47.7,126.8 -55.5,54.9 -123.7,63.8 -171.3,63.6 -47.6,-0.4 -113.6,0.7 -177.4,-64.7 -63.8,-65.4 -74.7,-128.8 -74.7,-191.3 0,-62.4 12.1,-145.1 88,-207.6 51.6,-42.5 103.8,-58.3 156.2,-58.3 218.4,0 232.9,201.3 232.9,201.3 z"
   style="fill:#73daca;fill-opacity:1" />
	<g
   id="g5"
   transform="translate(-132.125,-197.58301)"
   style="fill:#7aa2f7;fill-opacity:1">
		<g
   id="g7"
   style="fill:#7aa2f7;fill-opacity:1">
			<path
   id="path9"
   class="st1"
   d="m 1913.8,815.9 h 72.9 l 0.1,25.3 h -3.5 c -1.1,-9 -4.4,-15.1 -9.9,-18.4 -3,-1.7 -7.6,-2.7 -13.6,-2.8 v 66.1 c 0,4.7 0.7,7.6 2.4,9.2 1.6,1.6 4.8,2.3 9.7,2.3 v 3.2 h -43.2 v -3.2 c 4.8,0 7.9,-0.7 9.5,-2.3 1.6,-1.6 2.4,-4.5 2.4,-9.2 V 820 c -5.9,0.1 -10.5,1.1 -13.6,2.8 -5.8,3.2 -9,9.5 -9.9,18.4 h -3.5 l 0.2,-25.3 z"
   style="fill:#7aa2f7;fill-opacity:1" />
			<path
   id="path11"
   class="st1"
   d="m 2002.1,897.6 c 3.2,-0.1 5.5,-0.6 6.9,-1.4 2.3,-1.3 3.4,-3.8 3.4,-7.5 V 828 c 0,-3.5 -1,-5.9 -3,-7.2 -1.3,-0.7 -3.7,-1.3 -7.2,-1.7 v -3.2 h 41 v 3.2 c -3.5,0.1 -6.1,0.7 -7.3,1.4 -2.3,1.3 -3.4,3.8 -3.4,7.3 v 26 h 28.8 v -26 c 0,-3.7 -1.1,-6.1 -3.2,-7.3 -1.3,-0.7 -3.8,-1.3 -7.5,-1.6 v -3.2 h 41.2 v 3.2 c -3.5,0.3 -5.9,0.8 -7.3,1.6 -2.1,1.3 -3.2,3.7 -3.2,7.2 v 60.7 c 0,3.7 1.3,6.2 3.7,7.5 1.4,0.7 3.7,1.3 6.9,1.4 v 3.2 h -41.2 v -3.2 c 3.5,-0.1 5.9,-0.6 7.3,-1.4 2.3,-1.3 3.4,-3.8 3.4,-7.3 v -29 h -28.8 v 29 c 0,3.7 1.3,6.2 3.7,7.5 1.4,0.7 3.8,1.1 7.2,1.3 v 3.2 h -41 v -3 z"
   style="fill:#7aa2f7;fill-opacity:1" />
			<path
   id="path13"
   class="st1"
   d="m 2104.5,900.7 v -3.2 c 3.5,-0.1 5.9,-0.6 7.3,-1.4 2.3,-1.3 3.4,-3.8 3.4,-7.3 v -60.7 c 0,-3.7 -1.1,-6.1 -3.5,-7.3 -1.4,-0.7 -3.8,-1.3 -7.3,-1.4 v -3.2 h 69.8 v 25.3 h -3 c -1.6,-8.1 -4.1,-13.6 -7.8,-16.7 -3.7,-3 -10.5,-4.5 -20.2,-4.5 -3.7,0 -6.1,0.4 -7.1,1.1 -1,0.8 -1.6,2.4 -1.6,4.8 V 855 c 6.9,0.1 11.6,-1.3 14,-4 2.4,-2.7 4.4,-7.6 5.7,-14.7 h 3.1 v 42.4 h -3.1 c -0.8,-7.2 -2.7,-12.1 -5.2,-15.1 -2.7,-3 -7.5,-4.4 -14.4,-4.4 v 30.7 c 0,2.7 0.7,4.5 2,5.4 1.3,1 4.1,1.4 8.2,1.4 7.8,0 14,-1.6 18.9,-4.7 4.9,-3.1 9.2,-8.9 13,-17.5 h 3.4 l -4.9,26.1 h -70.7 v 0.1 z"
   style="fill:#7aa2f7;fill-opacity:1" />
		</g>
	</g>
	<g
   id="g15"
   transform="translate(-132.125,-197.58301)"
   style="fill:#7aa2f7;fill-opacity:1">
		<g
   id="g17"
   style="fill:#7aa2f7;fill-opacity:1">
			<path
   id="path19"
   class="st1"
   d="m 1548.1,1612.6 c 4,-0.3 6.6,-1.1 8.1,-2.5 1.4,-1.4 2,-4.4 2,-8.9 v -55.5 c 0,-4.7 -0.7,-7.6 -2.1,-8.9 -1.4,-1.3 -4.1,-2.1 -8.1,-2.5 v -3.2 h 39 c 10.3,0 18.2,1.7 23.6,5.2 5.4,3.5 8.1,9.5 8.1,17.9 0,4.1 -1,8.1 -3.1,11.6 -2.1,3.7 -5.7,6.5 -10.5,8.8 -3.7,1.6 -7.3,2.5 -11,2.8 -3.7,0.3 -9.2,0.4 -16.4,0.4 v 23.4 c 0,4.7 0.7,7.6 2.3,9 1.6,1.4 4.2,2.3 8.3,2.4 v 3.2 h -40.4 l 0.2,-3.2 v 0 z m 44.3,-41.8 c 3.8,-2.5 5.8,-8.1 5.8,-16.4 0,-5.6 -1,-10.3 -2.8,-13.8 -1.8,-3.5 -5.4,-5.2 -10.6,-5.2 -2.4,0 -4.1,0.3 -5.2,0.8 -1,0.6 -1.6,1.7 -1.6,3.4 v 33.8 c 7.2,-0.2 12,-1.1 14.4,-2.6 z"
   style="fill:#7aa2f7;fill-opacity:1" />
			<path
   id="path21"
   class="st1"
   d="m 1624.8,1612.6 c 4.1,-0.1 6.9,-1 8.3,-2.4 1.6,-1.4 2.3,-4.4 2.3,-9 v -55.5 c 0,-4.8 -0.8,-8.1 -2.7,-9.5 -1.1,-1 -3.8,-1.7 -8.1,-2 v -3.2 h 39.1 c 8.1,0 14.7,0.8 19.6,2.7 9.7,3.5 14.5,9.9 14.5,19.2 0,6.8 -2.5,12.1 -7.6,16.1 -3.8,3 -8.1,4.8 -12.3,5.7 l 25.7,35.7 c 0.7,1 1.4,1.6 2.1,2 0.7,0.3 1.7,0.6 2.8,0.6 v 3 h -25.3 l -28.2,-39.3 v 0 24.6 c 0,4.4 0.7,7.3 2.1,8.9 1.4,1.6 4.2,2.4 8.5,2.5 v 3.2 h -41 l 0.2,-3.3 v 0 z m 47.4,-43.7 c 3.4,-2.1 5.1,-7.2 5.1,-15.1 0,-4.8 -0.7,-8.8 -2,-11.6 -2.3,-4.8 -6.4,-7.2 -12.3,-7.2 -3.2,0 -5.4,0.4 -6.4,1.3 -1,0.8 -1.6,2.3 -1.6,4.1 v 31.9 c 8.1,0 13.8,-1.1 17.2,-3.4 z"
   style="fill:#7aa2f7;fill-opacity:1" />
			<path
   id="path23"
   class="st1"
   d="m 1790.5,1541.2 c 8.3,8.3 12.4,19.2 12.4,32.3 0,13.1 -4.1,24 -12.4,32.3 -8.2,8.2 -18.2,12.3 -30.5,12.3 -13,0 -23.4,-4.5 -31.6,-13.4 -7.6,-8.5 -11.4,-18.6 -11.4,-30.5 0,-13.1 4,-24 12,-32.5 8.1,-8.6 18.4,-12.9 31.1,-12.9 12.2,0.1 22.4,4.2 30.4,12.4 z m -11.7,56.1 c 1.8,-6.1 2.7,-14 2.7,-23.7 0,-13.4 -2,-23.4 -5.8,-30.2 -3.8,-6.8 -9,-10.2 -15.7,-10.2 -9.2,0 -15.4,5.7 -18.8,16.9 -1.8,5.9 -2.7,13.8 -2.7,23.4 0,9.7 0.8,17.7 2.7,23.7 3.4,11.2 9.6,16.7 18.8,16.7 9.1,0.1 15.4,-5.6 18.8,-16.6 z"
   style="fill:#7aa2f7;fill-opacity:1" />
			<path
   id="path25"
   class="st1"
   d="m 1826.1,1542.5 c 8.1,-8.8 18.4,-13.1 30.8,-13.1 4.9,0 10,1 15,3 4.9,2 8.1,3 9.3,3 1.2,0 2.4,-0.4 3.1,-1.4 0.8,-1 1.4,-2.4 2,-4.2 h 3.4 v 29.4 h -3.1 c -3,-6.4 -5.9,-11.4 -8.9,-15.1 -5.7,-6.8 -12.1,-10.2 -19.4,-10.2 -7.8,0 -13.6,3.5 -17.1,10.6 -3.5,7.1 -5.4,16.9 -5.4,29.7 0,10.5 1.7,19.8 4.9,28 3.4,8.2 9.7,12.3 19.4,12.3 5.2,0 8.6,-1.1 10.5,-3.4 1,-1.3 1.6,-3.2 1.6,-5.8 V 1592 c 0,-3.8 -1.1,-6.4 -3.4,-7.5 -1.4,-0.7 -4.4,-1.1 -8.9,-1.3 v -3.2 h 41.5 v 3.2 c -4.2,0.1 -6.9,1 -8.3,2.7 -1.4,1.6 -2,4.5 -2,8.9 v 15.7 c -2.7,1.7 -7.1,3.4 -13,5.1 -5.9,1.7 -12.7,2.5 -20.1,2.5 -13.4,0 -24.2,-4.4 -32.2,-13.1 -7.5,-8.2 -11.3,-18.5 -11.3,-30.9 -0.1,-12.5 3.9,-23.1 11.6,-31.6 z"
   style="fill:#7aa2f7;fill-opacity:1" />
			<path
   id="path27"
   class="st1"
   d="m 1908.9,1612.6 c 4.1,-0.1 6.9,-1 8.3,-2.4 1.6,-1.4 2.3,-4.4 2.3,-9 v -55.5 c 0,-4.8 -0.8,-8.1 -2.7,-9.5 -1.1,-1 -3.8,-1.7 -8.1,-2 v -3.2 h 39 c 8.1,0 14.7,0.8 19.6,2.7 9.7,3.5 14.5,9.9 14.5,19.2 0,6.8 -2.5,12.1 -7.6,16.1 -3.8,3 -8.1,4.8 -12.3,5.7 l 25.7,35.7 c 0.7,1 1.4,1.6 2.1,2 0.7,0.3 1.7,0.6 2.8,0.6 v 3 h -25.1 l -28.2,-39.4 v 0 24.6 c 0,4.4 0.7,7.3 2.1,8.9 1.4,1.6 4.2,2.4 8.5,2.5 v 3.2 h -41 v -3.2 h 0.1 z m 47.3,-43.7 c 3.4,-2.1 5.1,-7.2 5.1,-15.1 0,-4.8 -0.7,-8.8 -2,-11.6 -2.3,-4.8 -6.4,-7.2 -12.3,-7.2 -3.2,0 -5.4,0.4 -6.4,1.3 -1,0.8 -1.6,2.3 -1.6,4.1 v 31.9 c 8,0 13.8,-1.1 17.2,-3.4 z"
   style="fill:#7aa2f7;fill-opacity:1" />
			<path
   id="path29"
   class="st1"
   d="m 1999.3,1612.6 c 3,-0.1 5.2,-1.6 7.1,-4.1 1.1,-1.6 2.8,-5.1 4.9,-10.6 l 27,-68.6 h 3.4 l 27,66 c 3.1,7.3 5.4,12.1 6.8,14.3 1.6,2.1 3.7,3.1 6.4,3.1 v 3.2 h -39.3 v -3.2 c 4,-0.1 6.5,-0.6 7.8,-1 1.3,-0.6 1.8,-1.8 1.8,-4.1 0,-1 -0.3,-2.4 -1,-4.5 -0.4,-1.1 -1,-2.7 -1.6,-4.2 l -3.1,-7.6 h -27.3 c -1.8,4.9 -3,8.2 -3.4,9.7 -1.1,3.2 -1.6,5.7 -1.6,7.1 0,1.8 1.1,3.1 3.5,4 1.4,0.4 3.4,0.7 6.2,0.7 v 3.2 h -24.7 v -3.4 h 0.1 z m 45.5,-26.4 -11.7,-29.1 h -1 l -10.9,29.1 z"
   style="fill:#7aa2f7;fill-opacity:1" />
			<path
   id="path31"
   class="st1"
   d="m 2088.9,1612.6 c 4.7,0 7.6,-0.8 9,-2.5 1.4,-1.7 2.1,-4.1 2.1,-7.5 V 1543 c 0,-3.4 -0.8,-5.6 -2.4,-6.8 -1.6,-1.1 -4.4,-1.8 -8.3,-2.1 v -3.2 h 30.5 l 23.9,58.1 h 1 l 23.7,-58.1 h 30.5 v 3.2 c -4.1,0.3 -6.9,1.1 -8.3,2.4 -1.6,1.3 -2.3,4.2 -2.3,9.2 v 55.5 c 0,4.7 0.7,7.6 2.3,9 1.6,1.4 4.2,2.3 8.3,2.4 v 3.2 h -40.3 v -3.2 c 3.5,-0.1 6.4,-0.7 8.1,-1.8 1.8,-1.1 2.7,-3.5 2.7,-7.3 v -61.3 h -0.8 l -29.7,73.7 h -3.2 l -29.9,-72.3 h -0.6 v 56.8 c 0,4.2 0.7,7.2 2.3,9.2 1.6,2 4.8,3 9.9,3.2 v 3.2 H 2089 l -0.1,-3.4 v 0 z"
   style="fill:#7aa2f7;fill-opacity:1" />
			<path
   id="path33"
   class="st1"
   d="m 2205.9,1612.6 c 4.7,0 7.6,-0.8 9,-2.5 1.4,-1.7 2.1,-4.1 2.1,-7.5 V 1543 c 0,-3.4 -0.8,-5.6 -2.4,-6.8 -1.6,-1.2 -4.4,-1.8 -8.5,-2.1 v -3.2 h 30.5 l 23.9,58.1 h 1 l 23.7,-58.1 h 30.5 v 3.2 c -4.1,0.3 -6.9,1.1 -8.3,2.4 -1.6,1.3 -2.3,4.2 -2.3,9.2 v 55.5 c 0,4.7 0.7,7.6 2.3,9 1.6,1.4 4.2,2.3 8.3,2.4 v 3.2 h -40.3 v -3.2 c 3.5,-0.1 6.4,-0.7 8.1,-1.8 1.8,-1.1 2.7,-3.5 2.7,-7.3 v -61.3 h -0.8 l -29.7,73.7 h -3.2 l -29.9,-72.3 h -0.6 v 56.8 c 0,4.2 0.7,7.2 2.3,9.2 1.6,2 4.8,3 9.9,3.2 v 3.2 h -28.4 l 0.1,-3.4 v 0 z"
   style="fill:#7aa2f7;fill-opacity:1" />
			<path
   id="path35"
   class="st1"
   d="m 2323.3,1612.6 c 3.4,-0.1 5.9,-0.6 7.3,-1.3 2.4,-1.3 3.7,-3.8 3.7,-7.5 v -60.7 c 0,-3.7 -1.1,-6.2 -3.5,-7.5 -1.4,-0.7 -4,-1.3 -7.6,-1.4 v -3.2 h 42.4 v 3.2 c -3.8,0.1 -6.4,0.6 -7.8,1.4 -2.4,1.3 -3.5,3.8 -3.5,7.5 v 60.7 c 0,3.5 1,5.8 2.8,7.1 1.8,1.1 4.7,1.8 8.5,1.8 v 3.2 h -42.4 l 0.1,-3.3 v 0 z"
   style="fill:#7aa2f7;fill-opacity:1" />
			<path
   id="path37"
   class="st1"
   d="m 2373,1612.6 c 4.5,-0.1 7.3,-1 8.8,-2.7 1.3,-1.7 2,-4.1 2,-7.3 v -59.5 c -3.7,-4.2 -5.9,-6.8 -6.9,-7.6 -0.8,-0.7 -2,-1.3 -3.5,-1.4 v -3.2 h 25.7 l 41.7,52.4 h 0.6 v -36.9 c 0,-4.2 -0.7,-7.3 -2.3,-9 -1.6,-1.8 -4.5,-3 -8.9,-3.2 v -3.2 h 26 v 3.2 c -3.8,0.7 -6.4,1.6 -7.6,2.7 -1.2,1.1 -2,3.5 -2,7.3 v 74 h -3.4 l -53.3,-67.1 h -0.8 v 49.2 c 0,3.8 0.6,6.6 1.6,8.2 1.6,2.5 4.9,4 9.9,4.2 v 3.2 H 2373 v -3.3 0 z"
   style="fill:#7aa2f7;fill-opacity:1" />
			<path
   id="path39"
   class="st1"
   d="m 2477.4,1542.5 c 8.1,-8.8 18.4,-13.1 30.8,-13.1 4.9,0 10,1 15,3 4.9,2 8.1,3 9.3,3 1.2,0 2.4,-0.4 3.1,-1.4 0.7,-1 1.4,-2.4 2,-4.2 h 3.4 v 29.4 h -3.1 c -3,-6.4 -5.9,-11.4 -8.9,-15.1 -5.6,-6.8 -12.1,-10.2 -19.4,-10.2 -7.8,0 -13.6,3.5 -17.1,10.6 -3.5,7.1 -5.4,16.9 -5.4,29.7 0,10.5 1.7,19.8 4.9,28 3.2,8.2 9.7,12.3 19.4,12.3 5.2,0 8.6,-1.1 10.5,-3.4 1,-1.3 1.6,-3.2 1.6,-5.8 V 1592 c 0,-3.8 -1.1,-6.4 -3.4,-7.5 -1.4,-0.7 -4.4,-1.1 -8.9,-1.3 v -3.2 h 41.5 v 3.2 c -4.2,0.1 -6.9,1 -8.3,2.7 -1.4,1.6 -2,4.5 -2,8.9 v 15.7 c -2.7,1.7 -7.1,3.4 -13,5.1 -5.9,1.7 -12.7,2.5 -20.1,2.5 -13.4,0 -24.2,-4.4 -32.2,-13.1 -7.5,-8.2 -11.3,-18.5 -11.3,-30.9 -0.1,-12.5 3.9,-23.1 11.6,-31.6 z"
   style="fill:#7aa2f7;fill-opacity:1" />
			<path
   id="path41"
   class="st1"
   d="m 1691.1,1738 c 3.2,-0.1 5.7,-0.6 7.1,-1.4 2.4,-1.3 3.7,-3.8 3.7,-7.5 v -60.7 c 0,-3.7 -1.1,-6.1 -3.4,-7.3 -1.3,-0.7 -3.8,-1.3 -7.2,-1.4 v -3.2 h 42.4 v 3.2 c -4.9,0.1 -8.2,0.8 -9.9,2.1 -1.7,1.3 -2.4,4.4 -2.4,9.3 v 59.3 c 0,2.8 0.7,4.7 2.1,5.5 1.4,0.8 4.1,1.4 8.2,1.4 7.3,0 13.4,-1.7 18.4,-4.9 4.9,-3.4 9.2,-9.9 12.9,-19.5 h 3.5 l -4.9,28.4 h -70.2 l -0.3,-3.3 v 0 z"
   style="fill:#7aa2f7;fill-opacity:1" />
			<path
   id="path43"
   class="st1"
   d="m 1775.3,1738 c 3,-0.1 5.2,-1.6 7.1,-4.1 1.1,-1.6 2.8,-5.1 4.9,-10.6 l 27,-68.6 h 3.4 l 27,66 c 3,7.3 5.4,12.1 6.8,14.3 1.6,2.1 3.7,3.1 6.4,3.1 v 3.2 h -39.3 v -3.2 c 4,-0.1 6.5,-0.6 7.8,-1 1.3,-0.6 1.8,-1.8 1.8,-4.1 0,-1 -0.3,-2.4 -1,-4.5 -0.4,-1.1 -1,-2.7 -1.6,-4.2 l -3.1,-7.6 h -27.3 c -1.8,4.9 -3,8.2 -3.4,9.7 -1.1,3.2 -1.6,5.6 -1.6,7.1 0,1.8 1.1,3.1 3.5,4 1.4,0.4 3.4,0.7 6.2,0.7 v 3.2 h -24.6 l 0,-3.4 v 0 z m 45.5,-26.4 -11.6,-29.1 h -1 l -10.9,29.1 h 23.5 z"
   style="fill:#7aa2f7;fill-opacity:1" />
			<path
   id="path45"
   class="st1"
   d="m 1866,1738 c 4.5,-0.1 7.3,-1 8.8,-2.7 1.3,-1.7 2,-4.1 2,-7.3 v -59.5 c -3.7,-4.2 -5.9,-6.8 -6.9,-7.6 -0.8,-0.7 -2.1,-1.3 -3.5,-1.4 v -3.2 h 25.7 l 41.7,52.4 h 0.6 v -36.9 c 0,-4.2 -0.7,-7.3 -2.3,-9 -1.6,-1.8 -4.5,-3 -8.9,-3.2 v -3.2 h 26 v 3.2 c -3.8,0.7 -6.4,1.6 -7.6,2.7 -1.2,1.1 -2,3.5 -2,7.3 v 74 h -3.4 l -53.3,-67.1 h -0.8 v 49.2 c 0,3.8 0.6,6.6 1.6,8.2 1.6,2.5 4.9,4 9.9,4.2 v 3.2 H 1866 v -3.3 0 z"
   style="fill:#7aa2f7;fill-opacity:1" />
			<path
   id="path47"
   class="st1"
   d="m 1971,1667.9 c 8.1,-8.8 18.4,-13.1 30.8,-13.1 4.9,0 10,1 15,3 4.9,2 8.1,3 9.3,3 1.2,0 2.4,-0.4 3.1,-1.4 0.8,-1 1.4,-2.4 2,-4.2 h 3.4 v 29.4 h -3.1 c -3,-6.4 -5.9,-11.4 -8.9,-15.1 -5.7,-6.8 -12.1,-10.2 -19.4,-10.2 -7.8,0 -13.6,3.5 -17.1,10.6 -3.5,7.1 -5.4,16.9 -5.4,29.7 0,10.5 1.7,19.8 4.9,28 3.4,8.2 9.7,12.3 19.4,12.3 5.2,0 8.6,-1.1 10.5,-3.4 1,-1.3 1.6,-3.2 1.6,-5.8 v -13.3 c 0,-3.8 -1.1,-6.4 -3.4,-7.5 -1.4,-0.7 -4.4,-1.1 -8.9,-1.3 v -3.2 h 41.5 v 3.2 c -4.2,0.1 -6.9,1 -8.3,2.7 -1.4,1.6 -2,4.5 -2,8.9 v 16 c -2.7,1.7 -7.1,3.4 -13,5.1 -5.9,1.7 -12.7,2.5 -20.1,2.5 -13.4,0 -24.2,-4.4 -32.2,-13.1 -7.5,-8.2 -11.3,-18.5 -11.3,-30.9 -0.1,-12.8 3.9,-23.2 11.6,-31.9 z"
   style="fill:#7aa2f7;fill-opacity:1" />
			<path
   id="path49"
   class="st1"
   d="m 2095.5,1656.4 v 3.2 c -4.7,0.1 -7.8,0.8 -9.5,2.3 -1.6,1.4 -2.4,4.4 -2.4,9.2 v 42.1 c 0,6.4 0.7,11.3 2.3,14.8 2.7,6.5 7.8,9.7 15.3,9.7 9.3,0 15.5,-3.5 18.9,-10.7 1.8,-4 2.7,-9.5 2.7,-16.5 V 1672 c 0,-4.5 -0.8,-7.6 -2.4,-9.3 -1.6,-1.7 -4.7,-2.7 -9.3,-3.1 v -3.2 h 26.6 v 3.2 c -3.8,0.7 -6.4,1.7 -7.6,2.8 -1.3,1.1 -1.8,3.7 -1.8,7.8 v 40.1 c 0,10.6 -2.5,18.9 -7.5,24.7 -4.9,5.8 -12.7,8.8 -23.4,8.8 -14,0 -23.4,-4.2 -28.5,-13 -2.7,-4.5 -4.1,-10.5 -4.1,-17.7 V 1671 c 0,-4.7 -0.6,-7.6 -1.8,-8.9 -1.2,-1.3 -4,-2.1 -8.2,-2.5 v -3.2 l 40.7,0 z"
   style="fill:#7aa2f7;fill-opacity:1" />
			<path
   id="path51"
   class="st1"
   d="m 2145.6,1738 c 3,-0.1 5.2,-1.6 7.1,-4.1 1.1,-1.6 2.8,-5.1 4.9,-10.6 l 27,-68.6 h 3.4 l 27,66 c 3.1,7.3 5.4,12.1 6.8,14.3 1.6,2.1 3.7,3.1 6.4,3.1 v 3.2 h -39.3 v -3.2 c 4,-0.1 6.5,-0.6 7.8,-1 1.3,-0.6 1.8,-1.8 1.8,-4.1 0,-1 -0.3,-2.4 -1,-4.5 -0.4,-1.1 -1,-2.7 -1.6,-4.2 l -3.1,-7.6 h -27.3 c -1.8,4.9 -3,8.2 -3.4,9.7 -1.1,3.2 -1.6,5.6 -1.6,7.1 0,1.8 1.1,3.1 3.5,4 1.4,0.4 3.4,0.7 6.2,0.7 v 3.2 h -24.7 v -3.4 h 0.1 z m 45.5,-26.4 -11.6,-29.1 h -1 l -10.9,29.1 z"
   style="fill:#7aa2f7;fill-opacity:1" />
			<path
   id="path53"
   class="st1"
   d="m 2250.4,1667.9 c 8.1,-8.8 18.4,-13.1 30.8,-13.1 4.9,0 10,1 15,3 4.9,2 8.1,3 9.3,3 1.2,0 2.4,-0.4 3.1,-1.4 0.8,-1 1.4,-2.4 2,-4.2 h 3.4 v 29.4 h -3.1 c -3,-6.4 -5.9,-11.4 -8.9,-15.1 -5.6,-6.8 -12.1,-10.2 -19.4,-10.2 -7.8,0 -13.6,3.5 -17.1,10.6 -3.5,7.1 -5.4,16.9 -5.4,29.7 0,10.5 1.7,19.8 4.9,28 3.4,8.2 9.7,12.3 19.4,12.3 5.2,0 8.6,-1.1 10.5,-3.4 1,-1.3 1.6,-3.2 1.6,-5.8 v -13.3 c 0,-3.8 -1.1,-6.4 -3.4,-7.5 -1.4,-0.7 -4.4,-1.1 -8.9,-1.3 v -3.2 h 41.5 v 3.2 c -4.2,0.1 -6.9,1 -8.3,2.7 -1.4,1.6 -2,4.5 -2,8.9 v 16 c -2.7,1.7 -7.1,3.4 -13,5.1 -5.9,1.7 -12.7,2.5 -20.1,2.5 -13.4,0 -24.2,-4.4 -32.2,-13.1 -7.5,-8.2 -11.3,-18.5 -11.3,-30.9 0.1,-12.8 3.9,-23.2 11.6,-31.9 z"
   style="fill:#7aa2f7;fill-opacity:1" />
			<path
   id="path55"
   class="st1"
   d="m 2333.9,1741.2 v -3.2 c 3.5,-0.1 5.9,-0.6 7.3,-1.4 2.3,-1.3 3.4,-3.8 3.4,-7.3 v -60.7 c 0,-3.7 -1.1,-6.1 -3.5,-7.3 -1.4,-0.7 -3.8,-1.3 -7.3,-1.4 v -3.2 h 69.8 v 25.3 h -3 c -1.6,-8.1 -4.1,-13.6 -7.9,-16.7 -3.7,-3 -10.5,-4.5 -20.2,-4.5 -3.7,0 -6.1,0.4 -7.1,1.1 -1,0.8 -1.6,2.4 -1.6,4.8 v 29.1 c 6.9,0.1 11.6,-1.3 14,-4 2.4,-2.7 4.4,-7.6 5.6,-14.7 h 3.1 v 42.4 h -3.1 c -0.8,-7.2 -2.7,-12.1 -5.2,-15.1 -2.7,-3 -7.5,-4.4 -14.4,-4.4 v 30.5 c 0,2.7 0.7,4.5 2,5.4 1.3,1 4.1,1.4 8.2,1.4 7.8,0 14,-1.6 18.9,-4.7 4.9,-3.1 9.2,-8.9 13,-17.5 h 3.4 l -4.9,26.1 -70.5,0 v 0 z"
   style="fill:#7aa2f7;fill-opacity:1" />
		</g>
	</g>
</g>
</svg>
