<?xml version="1.0" encoding="UTF-8" standalone="no"?>
<!-- Generator: Adobe Illustrator 25.2.1, SVG Export Plug-In . SVG Version: 6.00 Build 0)  -->

<svg
   version="1.1"
   id="Layer_1"
   x="0px"
   y="0px"
   viewBox="0 0 3840 2160"
   style="enable-background:new 0 0 3840 2160;"
   xml:space="preserve"
   sodipodi:docname="cpp.svg"
   inkscape:version="1.1.1 (3bf5ae0d25, 2021-09-20)"
   xmlns:inkscape="http://www.inkscape.org/namespaces/inkscape"
   xmlns:sodipodi="http://sodipodi.sourceforge.net/DTD/sodipodi-0.dtd"
   xmlns="http://www.w3.org/2000/svg"
   xmlns:svg="http://www.w3.org/2000/svg"><defs
   id="defs31" /><sodipodi:namedview
   id="namedview29"
   pagecolor="#505050"
   bordercolor="#eeeeee"
   borderopacity="1"
   inkscape:pageshadow="0"
   inkscape:pageopacity="0"
   inkscape:pagecheckerboard="0"
   showgrid="false"
   inkscape:zoom="0.35625"
   inkscape:cx="696.14035"
   inkscape:cy="1079.2982"
   inkscape:window-width="1920"
   inkscape:window-height="1060"
   inkscape:window-x="0"
   inkscape:window-y="20"
   inkscape:window-maximized="1"
   inkscape:current-layer="Layer_1" />
<style
   type="text/css"
   id="style2">
	.st0{fill:#00599C;}
	.st1{fill:#004482;}
	.st2{fill:#659AD2;}
	.st3{fill:#FFFFFF;}
</style>
<rect
   style="fill:#24283b;fill-opacity:1;stroke-width:6.61584"
   id="rect1482"
   width="3840"
   height="2160"
   x="0"
   y="0" /><g
   id="g26">
	<g
   id="g10">
		<path
   class="st0"
   d="m 2404.6,1359.8 c 7.8,-13.7 12.7,-28.6 12.7,-42.6 V 842.4 c 0,-13.7 -4.9,-28.9 -12.7,-42.6 L 1920,1080 Z"
   id="path4"
   style="fill:#5f7ec0;fill-opacity:1" />
		<path
   class="st1"
   d="M 1962.9,1629.3 2374,1392 c 11.7,-6.8 22.8,-18.5 30.6,-32.2 L 1920,1080 1435.4,1359.8 c 7.8,13.7 18.5,25.4 30.6,32.2 l 411.1,237.3 c 23.4,13.6 62.4,13.6 85.8,0 z"
   id="path6"
   style="fill:#3e5480;fill-opacity:1" />
		<path
   class="st2"
   d="M 2404.6,800.2 C 2396.8,786.5 2386.1,774.8 2374,768 L 1962.9,530.7 c -23.7,-13.7 -62.4,-13.7 -86.1,0 L 1465.6,768 c -23.4,13.7 -42.9,47.1 -42.9,74.4 v 474.8 c 0,13.7 4.9,28.9 12.7,42.6 L 1920,1080 Z"
   id="path8"
   style="fill:#7aa2f7;fill-opacity:1" />
	</g>
	<g
   id="g24">
		<g
   id="g14">
			<path
   class="st3"
   d="m 1920,1411.5 c -182.7,0 -331.5,-148.9 -331.5,-331.5 0,-182.6 148.9,-331.5 331.5,-331.5 118,0 227.8,63.4 287,165.8 l -143.3,82.9 c -29.6,-51 -84.5,-82.9 -143.7,-82.9 -91.3,0 -165.8,74.4 -165.8,165.8 0,91.4 74.4,165.8 165.8,165.8 59.2,0 114.1,-31.9 143.7,-82.9 l 143.3,82.9 c -59.2,101.9 -169,165.6 -287,165.6 z"
   id="path12" />
		</g>
		<g
   id="g18">
			<polygon
   class="st3"
   points="2214.8,1061.5 2214.8,1024.7 2177.7,1024.7 2177.7,1061.5 2141,1061.5 2141,1098.2 2177.7,1098.2 2177.7,1135.3 2214.8,1135.3 2214.8,1098.2 2251.5,1098.2 2251.5,1061.5 "
   id="polygon16" />
		</g>
		<g
   id="g22">
			<polygon
   class="st3"
   points="2352.9,1061.5 2352.9,1024.7 2315.9,1024.7 2315.9,1061.5 2279.1,1061.5 2279.1,1098.2 2315.9,1098.2 2315.9,1135.3 2352.9,1135.3 2352.9,1098.2 2389.6,1098.2 2389.6,1061.5 "
   id="polygon20" />
		</g>
	</g>
</g>
</svg>
