<?xml version="1.0" encoding="UTF-8" standalone="no"?>
<!-- Generator: Adobe Illustrator 25.2.1, SVG Export Plug-In . SVG Version: 6.00 Build 0)  -->

<svg
   version="1.1"
   id="Layer_1"
   x="0px"
   y="0px"
   viewBox="0 0 3840 2160"
   style="enable-background:new 0 0 3840 2160;"
   xml:space="preserve"
   sodipodi:docname="csharp.svg"
   inkscape:version="1.1.1 (3bf5ae0d25, 2021-09-20)"
   xmlns:inkscape="http://www.inkscape.org/namespaces/inkscape"
   xmlns:sodipodi="http://sodipodi.sourceforge.net/DTD/sodipodi-0.dtd"
   xmlns="http://www.w3.org/2000/svg"
   xmlns:svg="http://www.w3.org/2000/svg"><defs
   id="defs865" /><sodipodi:namedview
   id="namedview863"
   pagecolor="#505050"
   bordercolor="#eeeeee"
   borderopacity="1"
   inkscape:pageshadow="0"
   inkscape:pageopacity="0"
   inkscape:pagecheckerboard="0"
   showgrid="false"
   inkscape:zoom="0.50381358"
   inkscape:cx="2084.2131"
   inkscape:cy="1042.8326"
   inkscape:window-width="1920"
   inkscape:window-height="1060"
   inkscape:window-x="0"
   inkscape:window-y="20"
   inkscape:window-maximized="1"
   inkscape:current-layer="g860" />
<style
   type="text/css"
   id="style848">
	.st0{fill:#05930C;}
	.st1{opacity:0.1;fill:#FFFFFF;enable-background:new    ;}
	.st2{fill:#FFFFFF;}
</style>
<rect
   style="fill:#24283b;fill-opacity:1;stroke-width:6.61584"
   id="rect1482"
   width="3840"
   height="2160"
   x="0"
   y="0" /><g
   id="g860">
	<circle
   class="st0"
   cx="1926.8"
   cy="1072.9"
   r="490.5"
   id="circle850"
   style="fill:#9ece6a;fill-opacity:1" />
	<path
   class="st1"
   d="m 1586.6,720.4 c -202.3,180.9 -219.2,490.5 -39.8,692.8 179.4,202.3 490.5,220.7 692.8,39.8 13.8,-12.3 27.6,-26.1 39.8,-39.8 z"
   id="path852" />
	<g
   id="g858">
		<path
   class="st2"
   d="m 1902.3,1249.1 c -33.7,16.9 -70.5,24.5 -107.3,23 -49,1.5 -98.1,-16.9 -131.8,-53.6 -33.7,-38.3 -52.1,-88.9 -49,-139.5 -3.1,-55.2 18.4,-108.8 55.2,-150.2 36.8,-38.3 88.9,-58.2 142.5,-56.7 30.7,-1.5 61.3,4.6 90.4,15.3 v 47.5 c -27.6,-15.3 -59.8,-23 -92,-23 -39.8,-1.5 -79.7,15.3 -107.3,44.4 -29.1,32.2 -42.9,75.1 -41.4,119.5 -1.5,41.4 12.3,81.2 38.3,111.9 26.1,27.6 62.8,42.9 101.2,41.4 35.3,1.5 70.5,-7.7 101.2,-26.1 v 46.1 z"
   id="path854" />
		<path
   class="st2"
   d="m 2245.6,988.6 -6.1,29.1 H 2169 l -16.9,81.2 h 75.1 l -7.7,29.1 H 2146 l -23,107.3 h -33.7 l 23,-107.3 h -67.4 l -23,107.3 h -33.7 l 23,-107.3 h -70.5 l 4.6,-29.1 h 72 l 16.9,-81.2 h -76.6 l 6.1,-29.1 h 75.1 l 23,-108.8 h 33.7 l -23,108.8 h 69 l 23,-108.8 h 33.7 l -23,108.8 z m -110.3,27.6 h -67.4 l -18.4,81.2 h 69 z"
   id="path856" />
	</g>
</g>
</svg>
