<?xml version="1.0" encoding="UTF-8" standalone="no"?>
<!-- Generator: Adobe Illustrator 25.2.1, SVG Export Plug-In . SVG Version: 6.00 Build 0)  -->

<svg
   version="1.1"
   id="Layer_1"
   x="0px"
   y="0px"
   viewBox="0 0 3840 2160"
   style="enable-background:new 0 0 3840 2160;"
   xml:space="preserve"
   sodipodi:docname="dart.svg"
   inkscape:version="1.1.1 (3bf5ae0d25, 2021-09-20)"
   xmlns:inkscape="http://www.inkscape.org/namespaces/inkscape"
   xmlns:sodipodi="http://sodipodi.sourceforge.net/DTD/sodipodi-0.dtd"
   xmlns="http://www.w3.org/2000/svg"
   xmlns:svg="http://www.w3.org/2000/svg"><defs
   id="defs955" /><sodipodi:namedview
   id="namedview953"
   pagecolor="#505050"
   bordercolor="#eeeeee"
   borderopacity="1"
   inkscape:pageshadow="0"
   inkscape:pageopacity="0"
   inkscape:pagecheckerboard="0"
   showgrid="false"
   inkscape:zoom="0.25190679"
   inkscape:cx="591.48862"
   inkscape:cy="359.25987"
   inkscape:window-width="1920"
   inkscape:window-height="1060"
   inkscape:window-x="0"
   inkscape:window-y="20"
   inkscape:window-maximized="1"
   inkscape:current-layer="Layer_1" />
<style
   type="text/css"
   id="style924">
	.st0{fill:#231F20;}
	.st1{fill:#00C4B3;}
	.st2{fill:#22D3C5;}
	.st3{fill:#0075C9;}
	.st4{fill:#00A8E1;}
</style>
<rect
   style="fill:#24283b;fill-opacity:1;stroke-width:6.61584"
   id="rect1482"
   width="3840"
   height="2160"
   x="0"
   y="0" /><g
   id="g950">
	<g
   id="g934"
   style="fill:#a9b1d6;fill-opacity:1">
		<path
   class="st0"
   d="m 1934.8,970.6 c 35.4,32.3 52.9,76.6 52.9,133.8 0,57.6 -17.1,103.1 -51.7,136.5 -34.2,33.5 -86.7,50.2 -157.1,50.2 h -124.1 v -368 h 128.4 c 65.7,0.4 116.2,15.2 151.6,47.5 z m -60.6,218.6 c 20.2,-19.1 30.3,-46.7 30.3,-83.2 0,-36.2 -10.1,-65 -30.3,-84.4 -20.2,-19.4 -51.3,-29.9 -93.4,-29.9 h -47.5 v 226 h 53.7 c 37.8,-0.1 66.9,-9.5 87.2,-28.5 z"
   id="path926"
   style="fill:#a9b1d6;fill-opacity:1" />
		<path
   class="st0"
   d="m 2280.2,1291.5 h -73.5 v -35 c -21,25.7 -45.5,38.5 -75.5,38.5 -29.9,0 -55.2,-8.6 -75.8,-26.1 -20.6,-17.5 -30.7,-40.8 -30.7,-69.6 0,-29.2 10.5,-50.6 31.9,-65 21,-14.4 50.2,-21.4 86.7,-21.4 h 58.3 v -2.3 c 0,-30.3 -15.6,-45.5 -47.5,-45.5 -13.6,0 -28,2.7 -43.6,8.2 -15.2,5.4 -28,12.1 -38.9,20.2 l -35.4,-51.3 c 37.3,-27.2 80.1,-40.8 128,-40.8 34.6,0 61.8,8.6 84,26.1 21.8,17.1 31.9,44.7 31.9,82.1 v 181.9 z m -78.9,-109.3 v -11.7 h -49.4 c -31.9,0 -47.5,8.9 -47.5,28.4 0,10.1 3.9,17.5 11.3,22.9 7.4,5.4 18.3,7.8 32.7,7.8 14,0 26.4,-4.3 37,-13.2 10.8,-8.2 15.9,-19.9 15.9,-34.2 z"
   id="path928"
   style="fill:#a9b1d6;fill-opacity:1" />
		<path
   class="st0"
   d="m 2489.1,1076 c -23.7,0 -42.4,8.2 -54.1,25.3 -11.7,16.7 -18.7,38.9 -18.7,66.5 v 124.1 h -79 v -283.6 h 79 v 36.2 c 10.5,-11.7 24.9,-21.4 40.1,-29.6 15.2,-8.2 33.5,-12.4 49,-12.8 v 74.7 z"
   id="path930"
   style="fill:#a9b1d6;fill-opacity:1" />
		<path
   class="st0"
   d="m 2632.2,1065.5 v 125.2 c 0,10.9 3.1,19.4 8.9,25.7 5.4,6.2 12.4,9.3 20.2,9.3 14.8,0 27.2,-6.6 37.7,-20.2 l 29.6,55.6 c -24.5,22.6 -50.6,33.8 -77.8,33.8 -27.2,0 -50.2,-8.9 -69.2,-26.8 -19.1,-17.9 -28,-42.4 -28,-73.5 V 923.9 h 79 v 79 h 84 l -43.2,63 z"
   id="path932"
   style="fill:#a9b1d6;fill-opacity:1" />
	</g>
	<g
   id="g948">
		<path
   class="st1"
   d="m 1226.5,981.1 -27.6,-27.6 v 199.1 l 0.4,9.3 c 0,4.3 0.8,9.3 2.3,14.4 l 218.6,77 54.5,-24.1 v 0 z"
   id="path936"
   style="fill:#73daca;fill-opacity:1" />
		<path
   class="st2"
   d="m 1201.6,1176.3 z m 273.1,52.9 -54.5,24.1 -218.2,-77 c 4.3,15.9 13.2,33.8 23.3,44 l 71.2,70.8 158.7,0.4 z"
   id="path938"
   style="fill:#b4f9f8;fill-opacity:1" />
		<path
   class="st3"
   d="m 1199.7,953.4 -84.8,128.4 c -7,7.4 -3.5,22.9 7.8,34.6 l 49,49.4 30.7,10.9 c -1.2,-5.1 -2.3,-10.1 -2.3,-14.4 l -0.4,-9.3 z"
   id="path940"
   style="fill:#7aa2f7;fill-opacity:1" />
		<path
   class="st3"
   d="m 1421.8,955.8 c -5.1,-1.2 -10.1,-1.9 -14.4,-2.3 l -9.7,-0.4 h -198.8 l 275.8,275.8 v 0 l 24.1,-54.5 z"
   id="path942"
   style="fill:#7aa2f7;fill-opacity:1" />
		<path
   class="st4"
   d="m 1421.4,955.8 c 0.4,0 0.4,0 0,0 v 0 c 0.4,0 0.4,0 0,0 z m 44.3,23.3 c -10.1,-10.1 -27.6,-19.4 -44,-23.3 l 77,218.6 -24.1,54.5 v 0 l 59.1,-19.1 v -162.2 z"
   id="path944"
   style="fill:#7dcfff;fill-opacity:1" />
		<path
   class="st1"
   d="m 1410.9,925.4 -49.4,-49 c -11.3,-11.3 -26.8,-14.8 -34.6,-7.8 l -128.4,84.8 h 198.8 l 9.7,0.4 c 4.3,0 9.3,0.8 14.4,2.3 z"
   id="path946"
   style="fill:#73daca;fill-opacity:1" />
	</g>
</g>
</svg>
