<?xml version="1.0" encoding="UTF-8" standalone="no"?>
<!-- Generator: Adobe Illustrator 25.2.1, SVG Export Plug-In . SVG Version: 6.00 Build 0)  -->

<svg
   version="1.1"
   id="Layer_1"
   x="0px"
   y="0px"
   viewBox="0 0 3840 2160"
   style="enable-background:new 0 0 3840 2160;"
   xml:space="preserve"
   sodipodi:docname="git-colour.svg"
   inkscape:version="1.1.1 (3bf5ae0d25, 2021-09-20)"
   xmlns:inkscape="http://www.inkscape.org/namespaces/inkscape"
   xmlns:sodipodi="http://sodipodi.sourceforge.net/DTD/sodipodi-0.dtd"
   xmlns="http://www.w3.org/2000/svg"
   xmlns:svg="http://www.w3.org/2000/svg"><defs
   id="defs1031" /><sodipodi:namedview
   id="namedview1029"
   pagecolor="#505050"
   bordercolor="#eeeeee"
   borderopacity="1"
   inkscape:pageshadow="0"
   inkscape:pageopacity="0"
   inkscape:pagecheckerboard="0"
   showgrid="false"
   inkscape:zoom="0.35625"
   inkscape:cx="2057.5439"
   inkscape:cy="1059.6491"
   inkscape:window-width="1920"
   inkscape:window-height="1060"
   inkscape:window-x="0"
   inkscape:window-y="20"
   inkscape:window-maximized="1"
   inkscape:current-layer="Layer_1" />
<style
   type="text/css"
   id="style1014">
	.st0{fill:#413000;}
	.st1{fill:#F05133;}
</style>
<rect
   style="fill:#24283b;fill-opacity:1;stroke-width:6.61584"
   id="rect1482"
   width="3840"
   height="2160"
   x="0"
   y="0" /><g
   id="g1026">
	<g
   id="g1022"
   style="fill:#9aa5ce;fill-opacity:1">
		<path
   class="st0"
   d="m 2079.6,973 c -35.3,0 -61.2,17.1 -61.2,58.8 0,31.2 17.1,52.9 59.4,52.9 35.9,0 60,-21.2 60,-54.1 0,-37.6 -21.7,-57.6 -58.2,-57.6 z m -70.6,293.5 c -8.2,10 -16.5,21.2 -16.5,34.1 0,25.3 32.3,33.5 77.6,33.5 37.1,0 87.6,-2.4 87.6,-37.1 0,-20.6 -24.1,-21.8 -55.3,-23.5 z m 189.4,-291.7 c 11.8,14.7 23.5,35.3 23.5,64.7 0,71.2 -55.9,112.3 -136.4,112.3 -20.6,0 -38.8,-2.4 -50.6,-5.9 l -21.2,34.1 62.9,4.1 c 110.6,7.1 175.8,10 175.8,95.3 0,73.5 -64.7,115.3 -175.8,115.3 -115.9,0 -160,-29.4 -160,-80 0,-28.8 12.9,-44.1 35.3,-65.3 -21.2,-8.8 -28.2,-24.7 -28.2,-42.3 0,-14.1 7.1,-27.1 18.8,-38.8 11.8,-12.4 24.1,-24.1 39.4,-38.2 -31.2,-15.3 -55.3,-48.8 -55.3,-95.9 0,-73.5 48.8,-124.1 146.4,-124.1 27.6,0 44.1,2.4 58.8,6.5 h 124.7 v 54.1 l -58.1,4.1"
   id="path1016"
   style="fill:#9aa5ce;fill-opacity:1" />
		<path
   class="st0"
   d="m 2370.1,858.9 c -36.5,0 -57.6,-21.2 -57.6,-57.6 0,-36.4 21.2,-56.5 57.6,-56.5 37.1,0 58.2,20 58.2,56.5 0,36.5 -21.1,57.6 -58.2,57.6 z m -82.9,384.1 v -50.6 l 32.9,-4.7 c 8.8,-1.2 10,-2.9 10,-12.9 V 986.6 c 0,-7.1 -1.8,-11.8 -8.2,-13.5 l -34.7,-12.4 7.1,-51.8 h 132.3 v 265.2 c 0,10 0.6,11.8 10,12.9 l 32.3,4.7 v 50.6 l -181.7,0.7"
   id="path1018"
   style="fill:#9aa5ce;fill-opacity:1" />
		<path
   class="st0"
   d="m 2723,1218.3 c -27.6,13.5 -67.6,25.3 -104.1,25.3 -75.9,0 -104.7,-30.6 -104.7,-102.9 v -167 c 0,-4.1 0,-6.5 -5.3,-6.5 h -44.7 v -57 c 56.5,-6.5 78.8,-34.7 85.9,-104.1 h 60.6 v 91.2 c 0,4.7 0,6.5 5.3,6.5 h 89.4 v 64.1 h -95.3 v 152.9 c 0,37.6 8.8,52.3 43.5,52.3 17.6,0 36.5,-4.7 51.8,-10 l 17.6,55.2"
   id="path1020"
   style="fill:#9aa5ce;fill-opacity:1" />
	</g>
	<path
   class="st1"
   d="M 1775,1050.7 1482.1,757.8 c -17.1,-17.1 -44.1,-17.1 -61.2,0 l -60.6,61.2 77,77 c 17.6,-5.9 38.2,-1.8 52.9,12.4 14.1,14.1 18.2,35.3 12.4,52.9 l 74.1,74.1 c 18.2,-6.5 38.8,-2.4 52.9,12.4 20,20 20,52.3 0,72.3 -20,20 -52.3,20 -72.3,0 -15.3,-15.3 -18.8,-37.1 -11.2,-55.9 l -69.4,-68.8 v 182.3 c 4.7,2.4 9.4,5.9 13.5,10 20,20 20,52.3 0,72.3 -20,20 -52.3,20 -72.3,0 -20,-20 -20,-52.3 0,-72.3 4.7,-4.7 10.6,-8.8 17.1,-11.2 V 991.9 c -5.9,-2.4 -11.8,-6.5 -17.1,-11.2 -15.3,-15.3 -18.8,-37.6 -11.2,-55.9 l -75.9,-76.5 -201.1,200.5 c -17.1,17.1 -17.1,44.1 0,61.2 l 292.3,292.3 c 17.1,17.1 44.1,17.1 61.2,0 l 291.1,-291.1 c 17.1,-16.4 17.1,-44.1 0.7,-60.5"
   id="path1024"
   style="fill:#ff9e64;fill-opacity:1" />
</g>
</svg>
