<?xml version="1.0" encoding="UTF-8" standalone="no"?>
<!-- Generator: Adobe Illustrator 25.2.1, SVG Export Plug-In . SVG Version: 6.00 Build 0)  -->

<svg
   version="1.1"
   id="Layer_1"
   x="0px"
   y="0px"
   viewBox="0 0 3840 2160"
   style="enable-background:new 0 0 3840 2160;"
   xml:space="preserve"
   sodipodi:docname="git-white.svg"
   inkscape:version="1.1.1 (3bf5ae0d25, 2021-09-20)"
   xmlns:inkscape="http://www.inkscape.org/namespaces/inkscape"
   xmlns:sodipodi="http://sodipodi.sourceforge.net/DTD/sodipodi-0.dtd"
   xmlns="http://www.w3.org/2000/svg"
   xmlns:svg="http://www.w3.org/2000/svg"><defs
   id="defs1107" /><sodipodi:namedview
   id="namedview1105"
   pagecolor="#505050"
   bordercolor="#eeeeee"
   borderopacity="1"
   inkscape:pageshadow="0"
   inkscape:pageopacity="0"
   inkscape:pagecheckerboard="0"
   showgrid="false"
   inkscape:zoom="0.178125"
   inkscape:cx="1032.9825"
   inkscape:cy="1479.2982"
   inkscape:window-width="1920"
   inkscape:window-height="1060"
   inkscape:window-x="0"
   inkscape:window-y="20"
   inkscape:window-maximized="1"
   inkscape:current-layer="Layer_1" />
<style
   type="text/css"
   id="style1090">
	.st0{fill:#FFFFFF;}
</style>
<rect
   style="fill:#24283b;stroke-width:1.04697;fill-opacity:1"
   id="rect1349"
   width="3840"
   height="2160"
   x="0"
   y="0" /><g
   id="g1102"
   style="fill:#a9b1d6;fill-opacity:1">
	<g
   id="g1098"
   style="fill:#a9b1d6;fill-opacity:1">
		<path
   class="st0"
   d="M2079.6,973c-35.3,0-61.2,17.1-61.2,58.8c0,31.2,17.1,52.9,59.4,52.9c35.9,0,60-21.2,60-54.1    C2137.8,993,2116.1,973,2079.6,973L2079.6,973z M2009,1266.5c-8.2,10-16.5,21.2-16.5,34.1c0,25.3,32.3,33.5,77.6,33.5    c37.1,0,87.6-2.4,87.6-37.1c0-20.6-24.1-21.8-55.3-23.5L2009,1266.5L2009,1266.5z M2198.4,974.8c11.8,14.7,23.5,35.3,23.5,64.7    c0,71.2-55.9,112.3-136.4,112.3c-20.6,0-38.8-2.4-50.6-5.9l-21.2,34.1l62.9,4.1c110.6,7.1,175.8,10,175.8,95.3    c0,73.5-64.7,115.3-175.8,115.3c-115.9,0-160-29.4-160-80c0-28.8,12.9-44.1,35.3-65.3c-21.2-8.8-28.2-24.7-28.2-42.3    c0-14.1,7.1-27.1,18.8-38.8c11.8-12.4,24.1-24.1,39.4-38.2c-31.2-15.3-55.3-48.8-55.3-95.9c0-73.5,48.8-124.1,146.4-124.1    c27.6,0,44.1,2.4,58.8,6.5h124.7v54.1L2198.4,974.8"
   id="path1092"
   style="fill:#a9b1d6;fill-opacity:1" />
		<path
   class="st0"
   d="M2370.1,858.9c-36.5,0-57.6-21.2-57.6-57.6s21.2-56.5,57.6-56.5c37.1,0,58.2,20,58.2,56.5    S2407.2,858.9,2370.1,858.9z M2287.2,1243v-50.6l32.9-4.7c8.8-1.2,10-2.9,10-12.9V986.6c0-7.1-1.8-11.8-8.2-13.5l-34.7-12.4    l7.1-51.8h132.3v265.2c0,10,0.6,11.8,10,12.9l32.3,4.7v50.6L2287.2,1243"
   id="path1094"
   style="fill:#a9b1d6;fill-opacity:1" />
		<path
   class="st0"
   d="M2723,1218.3c-27.6,13.5-67.6,25.3-104.1,25.3c-75.9,0-104.7-30.6-104.7-102.9v-167c0-4.1,0-6.5-5.3-6.5    h-44.7v-57c56.5-6.5,78.8-34.7,85.9-104.1h60.6v91.2c0,4.7,0,6.5,5.3,6.5h89.4v64.1h-95.3v152.9c0,37.6,8.8,52.3,43.5,52.3    c17.6,0,36.5-4.7,51.8-10L2723,1218.3"
   id="path1096"
   style="fill:#a9b1d6;fill-opacity:1" />
	</g>
	<path
   class="st0"
   d="M1775,1050.7l-292.9-292.9c-17.1-17.1-44.1-17.1-61.2,0l-60.6,61.2l77,77c17.6-5.9,38.2-1.8,52.9,12.4   c14.1,14.1,18.2,35.3,12.4,52.9l74.1,74.1c18.2-6.5,38.8-2.4,52.9,12.4c20,20,20,52.3,0,72.3c-20,20-52.3,20-72.3,0   c-15.3-15.3-18.8-37.1-11.2-55.9l-69.4-68.8v182.3c4.7,2.4,9.4,5.9,13.5,10c20,20,20,52.3,0,72.3c-20,20-52.3,20-72.3,0   c-20-20-20-52.3,0-72.3c4.7-4.7,10.6-8.8,17.1-11.2V991.9c-5.9-2.4-11.8-6.5-17.1-11.2c-15.3-15.3-18.8-37.6-11.2-55.9l-75.9-76.5   l-201.1,200.5c-17.1,17.1-17.1,44.1,0,61.2l292.3,292.3c17.1,17.1,44.1,17.1,61.2,0l291.1-291.1   C1791.4,1094.8,1791.4,1067.1,1775,1050.7"
   id="path1100"
   style="fill:#a9b1d6;fill-opacity:1" />
</g>
</svg>
