<?xml version="1.0" encoding="UTF-8" standalone="no"?>
<!-- Generator: Adobe Illustrator 25.2.1, SVG Export Plug-In . SVG Version: 6.00 Build 0)  -->

<svg
   version="1.1"
   id="Layer_1"
   x="0px"
   y="0px"
   viewBox="0 0 3840 2160"
   style="enable-background:new 0 0 3840 2160;"
   xml:space="preserve"
   sodipodi:docname="go-gopher.svg"
   inkscape:version="1.1.1 (3bf5ae0d25, 2021-09-20)"
   xmlns:inkscape="http://www.inkscape.org/namespaces/inkscape"
   xmlns:sodipodi="http://sodipodi.sourceforge.net/DTD/sodipodi-0.dtd"
   xmlns="http://www.w3.org/2000/svg"
   xmlns:svg="http://www.w3.org/2000/svg"><defs
   id="defs1190" /><sodipodi:namedview
   id="namedview1188"
   pagecolor="#505050"
   bordercolor="#eeeeee"
   borderopacity="1"
   inkscape:pageshadow="0"
   inkscape:pageopacity="0"
   inkscape:pagecheckerboard="0"
   showgrid="false"
   inkscape:zoom="0.25190679"
   inkscape:cx="643.09501"
   inkscape:cy="791.95959"
   inkscape:window-width="1920"
   inkscape:window-height="1060"
   inkscape:window-x="0"
   inkscape:window-y="20"
   inkscape:window-maximized="1"
   inkscape:current-layer="Layer_1" />
<style
   type="text/css"
   id="style1166">
	.st0{fill:#384E54;}
	.st1{fill:#76E1FE;}
	.st2{fill:#FFFFFF;}
	.st3{fill-opacity:0.3294;}
	.st4{fill:#FFFCFB;}
	.st5{fill:#C38C74;}
	.st6{fill:#23201F;}
	.st7{fill:#171311;}
</style>
<rect
   style="fill:#24283b;stroke-width:6.61584;fill-opacity:1"
   id="rect1482"
   width="3840"
   height="2160"
   x="0"
   y="0" /><g
   id="g1185">
	<path
   class="st0"
   d="m 2301.5,768.5 c -24.5,-41.7 -78.5,-56.4 -125.1,-29.4 -9.8,4.9 -17.2,12.3 -22.1,17.2 -41.7,-31.9 -93.2,-51.5 -152.1,-54 -27,-2.5 -54,-2.5 -81,-2.5 v 0 c -27,0 -54,0 -81,2.5 -58.9,2.5 -110.4,22.1 -154.5,54 -7.4,-7.4 -14.7,-12.3 -22.1,-17.2 -44.2,-24.5 -100.6,-12.3 -125.1,29.4 -24.5,41.7 -7.4,98.1 39.2,122.7 2.5,2.5 4.9,2.5 7.4,4.9 -7.4,24.5 -9.8,49.1 -9.8,73.6 0,73.6 0,318.9 0,490.6 h 686.9 c 0,-196.2 0,-392.5 0,-490.6 0,-24.5 -4.9,-49.1 -9.8,-73.6 2.5,-2.5 7.4,-2.5 9.8,-4.9 46.6,-24.6 63.8,-81 39.3,-122.7 z"
   id="path1168"
   style="fill:#565f89;fill-opacity:1" />
	<path
   class="st1"
   d="m 2257.3,805.2 c -12.3,-22.1 -41.7,-29.4 -66.2,-17.2 -7.4,4.9 -24.5,14.7 -36.8,27 -44.2,-41.7 -120.2,-66.2 -235.5,-66.2 -117.8,0 -193.8,27 -240.4,71.1 -12.3,-12.3 -31.9,-24.5 -39.2,-29.4 -24.5,-14.7 -54,-7.4 -66.2,17.2 -12.3,22.1 -2.5,49.1 19.6,63.8 7.4,2.5 31.9,14.7 44.2,19.6 -7.4,22.1 -12.3,49.1 -12.3,78.5 v 490.6 h 588.8 c 0,-181.5 0,-441.6 0,-490.6 0,-29.4 -4.9,-56.4 -12.3,-81 12.3,-4.9 29.4,-14.7 34.3,-17.2 24.5,-14.6 34.3,-41.6 22,-66.2 z"
   id="path1170"
   style="fill:#73daca;fill-opacity:1" />
	<circle
   id="circle4477"
   class="st2"
   cx="2046.3"
   cy="920.5"
   r="115.3">
	</circle>
	<circle
   id="circle4483"
   class="st2"
   cx="1778.9"
   cy="920.5"
   r="117.8">
	</circle>
	<path
   id="rect4246"
   class="st3"
   d="m 1889.3,1057.9 h 54 c 9.8,0 17.2,7.4 17.2,17.2 v 66.2 c 0,9.8 -7.4,17.2 -17.2,17.2 h -54 c -9.8,0 -17.2,-7.4 -17.2,-17.2 v -66.2 c 0.1,-9.8 7.4,-17.2 17.2,-17.2 z" />
	<path
   id="rect4485"
   class="st4"
   d="m 1889.3,1040.8 h 54 c 9.8,0 17.2,7.4 17.2,17.2 v 66.2 c 0,9.8 -7.4,17.2 -17.2,17.2 h -54 c -9.8,0 -17.2,-7.4 -17.2,-17.2 V 1058 c 0.1,-9.9 7.4,-17.2 17.2,-17.2 z" />
	<path
   id="path4487"
   class="st3"
   d="m 2016.9,1072.6 c 0,19.6 -22.1,31.9 -51.5,29.4 0,0 0,-14.7 -7.4,-14.7 -12.3,0 -27,0 -41.7,0 -14.7,0 -29.4,4.9 -41.7,0 -2.5,0 -4.9,14.7 -7.4,14.7 -29.4,0 -51.5,-7.4 -51.5,-29.4 0,-29.4 44.2,-54 100.6,-54 56.4,0 100.6,24.6 100.6,54 z" />
	<path
   id="path4489"
   class="st5"
   d="m 2016.9,1050.6 c 0,14.7 -9.8,22.1 -27,24.5 -7.4,2.5 -14.7,2.5 -24.5,2.5 -14.7,0 -29.4,0 -46.6,0 -17.2,0 -31.9,0 -46.6,0 -7.4,0 -14.7,0 -19.6,-2.5 -19.6,-2.5 -31.9,-9.8 -31.9,-24.5 0,-29.4 44.2,-51.5 98.1,-51.5 53.9,0 98.1,24.5 98.1,51.5 z"
   style="fill:#e0af68;fill-opacity:1" />
	<ellipse
   id="ellipse4491"
   class="st6"
   cx="1916.3"
   cy="1006.4"
   rx="51.5"
   ry="31.9"
   style="fill:#414868;fill-opacity:1">
	</ellipse>
	<circle
   id="circle4493"
   class="st7"
   cx="1830.5"
   cy="920.5"
   r="49.099998"
   style="fill:#414868;fill-opacity:1">
	</circle>
	<circle
   id="circle4495"
   class="st7"
   cx="2092.8999"
   cy="920.5"
   r="49.099998"
   style="fill:#414868;fill-opacity:1">
	</circle>
	<path
   class="st0"
   d="m 1651.4,842 c -22.1,-19.6 -39.2,-22.1 -49.1,-22.1 -4.9,0 -7.4,2.5 -7.4,4.9 -2.5,2.5 0,4.9 2.5,7.4 2.5,0 2.5,0 4.9,0 0,0 9.8,-2.5 19.6,2.5 -14.7,0 -19.6,7.4 -24.5,9.8 0,4.9 -2.5,7.4 0,9.8 0,2.5 2.5,2.5 2.5,2.5 0,0 0,0 2.5,0 2.5,0 2.5,-2.5 2.5,-4.9 0,-2.4 4.9,-12.3 27,-12.3 0,0 0,0 2.5,0 2.5,2.5 7.4,4.9 9.8,7.4 l 2.5,2.5 c 2.5,0 2.5,0 2.5,-2.5 4.6,0 4.6,-5 2.2,-5 z"
   id="path1181"
   style="fill:#414868;fill-opacity:1" />
	<path
   class="st0"
   d="m 2213.1,827.3 c 7.4,-2.5 12.3,0 12.3,0 2.5,0 2.5,0 4.9,0 4.9,0 4.9,-4.9 2.5,-4.9 0,0 -2.5,-2.5 -9.8,-2.5 -9.8,0 -27,0 -49.1,22.1 -2.5,2.5 -2.5,4.9 0,7.4 l 2.5,2.5 c 0,0 2.5,0 2.5,-2.5 4.9,-4.9 9.8,-7.4 14.7,-9.8 22.1,0 27,9.8 27,12.3 0,2.5 2.5,2.5 2.5,4.9 0,0 0,0 2.5,0 2.5,0 4.9,0 4.9,-2.5 0,0 0,-2.5 -2.5,-7.4 2.3,-9.8 -2.6,-14.7 -14.9,-19.6 z"
   id="path1183"
   style="fill:#414868;fill-opacity:1" />
</g>
</svg>
