<?xml version="1.0" encoding="UTF-8" standalone="no"?>
<!-- Generator: Adobe Illustrator 25.2.1, SVG Export Plug-In . SVG Version: 6.00 Build 0)  -->

<svg
   version="1.1"
   id="Layer_1"
   x="0px"
   y="0px"
   viewBox="0 0 3840 2160"
   style="enable-background:new 0 0 3840 2160;"
   xml:space="preserve"
   sodipodi:docname="haskell.svg"
   inkscape:version="1.1.1 (3bf5ae0d25, 2021-09-20)"
   xmlns:inkscape="http://www.inkscape.org/namespaces/inkscape"
   xmlns:sodipodi="http://sodipodi.sourceforge.net/DTD/sodipodi-0.dtd"
   xmlns="http://www.w3.org/2000/svg"
   xmlns:svg="http://www.w3.org/2000/svg"><defs
   id="defs1268" /><sodipodi:namedview
   id="namedview1266"
   pagecolor="#505050"
   bordercolor="#eeeeee"
   borderopacity="1"
   inkscape:pageshadow="0"
   inkscape:pageopacity="0"
   inkscape:pagecheckerboard="0"
   showgrid="false"
   inkscape:zoom="0.35625"
   inkscape:cx="1877.8947"
   inkscape:cy="1214.0351"
   inkscape:window-width="1920"
   inkscape:window-height="1060"
   inkscape:window-x="0"
   inkscape:window-y="20"
   inkscape:window-maximized="1"
   inkscape:current-layer="Layer_1" />
<style
   type="text/css"
   id="style1249">
	.st0{fill:#333333;fill-opacity:0.937;}
	.st1{fill:#453A62;}
	.st2{fill:#5E5086;}
	.st3{fill:#8F4E8B;}
</style>
<rect
   style="fill:#24283b;fill-opacity:1;stroke-width:6.61584"
   id="rect1482"
   width="3840"
   height="2160"
   x="0"
   y="0" /><g
   id="g1263">
	<g
   id="g1255"
   style="fill:#9aa5ce;fill-opacity:1">
		<path
   class="st0"
   d="m 1625.3,919.1 v 325.7 h -89.5 v -127.3 h -109.3 v 127.3 H 1337 V 919.1 h 89.5 v 120.3 h 109.3 V 919.1 Z m 117.6,330.6 c -11.9,0 -23.3,-2.2 -33.4,-6.1 -10.5,-4 -19.3,-9.2 -27.2,-16.2 -7.5,-7 -13.2,-15.4 -17.6,-24.6 -4.4,-9.7 -6.6,-19.8 -6.6,-30.7 0,-12.3 2.6,-23.3 7.9,-33.4 5.3,-10.1 12.3,-18.9 21.5,-26.3 9.2,-7.5 20.2,-13.2 32.5,-17.1 12.7,-4 26.8,-6.1 42.1,-6.1 19.8,0 36,3.1 48.7,9.2 v -7.5 c 0,-11.4 -3.5,-19.8 -10.1,-25 -6.6,-5.7 -17.1,-8.3 -31.6,-8.3 -13.6,0 -26.3,2.2 -38.2,7 -11.4,4.4 -23.7,10.5 -36.9,19.3 l -25.5,-54 c 32,-20.6 68,-30.7 108.9,-30.7 38.6,0 68,8.8 89.1,25.9 20.6,17.1 31.2,43 31.2,77.3 v 47 c 0,8.3 1.3,14 4.8,17.6 3.1,3.1 8.8,4.8 16.7,5.7 v 73.3 c -7.9,1.3 -15.4,2.6 -22.4,3.1 -7,0.9 -13.2,1.3 -18.9,1.3 -15.8,0 -27.7,-2.6 -36,-8.3 -7.9,-5.7 -13.2,-14 -15.8,-25.5 l -1.8,-8.8 c -10.5,13.6 -23.3,24.1 -37.3,31.6 -13.4,6.7 -28.3,10.3 -44.1,10.3 z m 25.9,-62.4 c 5.3,0 10.5,-0.9 16.2,-2.2 5.7,-1.8 10.5,-4 14.5,-7 3.5,-2.6 6.1,-4.8 8.3,-7.9 2.2,-3.1 3.1,-6.1 3.1,-9.2 v -18 c -5.3,-1.8 -11,-3.5 -17.1,-4.4 -6.1,-1.3 -11.9,-1.8 -16.7,-1.8 -10.5,0 -19.8,2.6 -26.8,7.9 -7,5.3 -10.5,11.9 -10.5,19.8 0,6.6 2.6,12.3 7.9,16.7 6.2,3.9 12.7,5.7 21.1,6.1 z m 287.1,62.4 c -10.1,0 -21.1,-0.9 -32.5,-2.2 -11.4,-1.3 -23.3,-3.5 -34.2,-6.1 -11,-2.6 -21.5,-5.3 -32,-8.8 -10.5,-3.5 -19.3,-7.5 -27.2,-11.9 l 33.4,-59.3 c 16.7,8.8 32.9,15.8 48.3,20.2 15.4,4.4 29.4,7 42.6,7 15.4,0 22.8,-4 22.8,-11.4 0,-4 -3.1,-7.5 -9.2,-10.5 -6.1,-3.1 -17.6,-6.6 -34.7,-11 -17.1,-4.4 -31.6,-9.2 -43,-13.6 -11.4,-4.4 -21.1,-9.7 -28.1,-15.4 -7,-5.7 -12.3,-11.9 -15.4,-18.9 -3.1,-7 -4.4,-14.9 -4.4,-24.1 0,-12.3 2.6,-23.7 7.5,-33.8 5.3,-10.5 12.3,-19.3 21.5,-27.2 9.2,-7.5 20.2,-13.6 32.5,-17.6 12.7,-4.4 26.8,-6.6 41.7,-6.6 16.2,0 33.4,2.2 51.8,7 18.9,4.4 37.7,11.4 57.1,20.2 L 2121,1081 c -17.1,-7.9 -31.2,-13.6 -42.6,-17.1 -11.4,-3.5 -22.4,-5.3 -32.5,-5.3 -6.6,0 -12.3,0.9 -16.7,3.1 -4,1.8 -6.1,4.8 -6.1,9.2 0,2.6 0.4,4.4 1.8,6.6 1.3,1.3 3.5,3.1 6.6,4.4 3.1,1.3 7,3.1 12.3,5.3 5.7,1.3 12.3,3.1 20.2,5.3 18.4,4.4 33.8,9.7 46.5,14.5 12.7,4.8 22.4,10.5 29.8,16.7 7.5,5.7 13.2,12.7 16.2,20.2 3.5,7.5 4.8,15.8 4.8,25.5 0,24.6 -9.7,44.3 -28.5,58.8 -18.6,14.4 -44,21.5 -76.9,21.5 z m 294,-4.9 -54.4,-88.2 -17.6,19.3 v 68.9 h -87.3 V 909.9 h 87.3 v 183 l 64.1,-89.5 h 91.7 l -83,105.3 91.3,135.6 h -92.2 v 0.5 z"
   id="path1251"
   style="fill:#9aa5ce;fill-opacity:1" />
		<path
   class="st0"
   d="m 2565,1249.7 c -21.1,0 -39.9,-3.1 -56.6,-9.7 -16.7,-6.6 -30.3,-15.8 -41.7,-27.2 -11,-11.4 -19.3,-24.1 -25.5,-39.1 -5.7,-14.5 -8.8,-30.3 -8.8,-46.5 0,-17.6 2.6,-33.8 8.3,-49.6 5.7,-15.8 14,-29.4 25.5,-40.8 11.4,-11.4 25,-20.6 41.3,-27.7 16.7,-7 35.6,-10.5 57.5,-10.5 21.5,0 40.4,3.5 57.1,10.5 16.7,6.6 30.3,15.8 41.3,27.7 11.4,11.4 19.8,24.6 25.5,39.9 5.7,14.9 8.8,30.7 8.8,47.4 0,4.4 -0.4,9.2 -0.9,14 -0.4,4.4 -0.9,8.8 -1.3,12.3 H 2526 c 0.9,12.7 5.7,22.4 14,28.1 8.8,5.7 18,8.3 28.1,8.3 9.7,0 18.4,-2.2 26.8,-6.6 8.8,-4.4 14,-10.1 17.1,-18 l 73.7,21.1 c -9.7,19.3 -25,35.1 -45.6,47.4 -20.6,12.8 -45.2,19 -75.1,19 z m 38.6,-151 c -1.8,-11.4 -5.7,-20.6 -12.7,-27.7 -7,-6.6 -16.2,-10.1 -27.2,-10.1 -11,0 -20.2,3.5 -27.2,10.1 -7,6.6 -11.4,15.8 -12.7,27.7 z m 120.8,-188.8 h 87.3 V 1143 c 0,18.4 7.5,27.7 22.4,27.7 3.5,0 7.5,-0.4 11.9,-1.8 4.4,-1.3 8.3,-3.1 11.9,-5.3 l 11,70.2 c -10.5,4.8 -22.4,8.8 -35.6,11.4 -12.7,2.6 -25,4 -36.9,4 -23.3,0 -41.3,-6.1 -53.6,-18 -12.7,-11.9 -18.9,-29 -18.9,-51.8 z m 166.8,0 h 87.3 V 1143 c 0,18.4 7.5,27.7 22.4,27.7 3.5,0 7.5,-0.4 11.9,-1.8 4.4,-1.3 8.3,-3.1 11.9,-5.3 l 11,70.2 c -10.5,4.8 -22.4,8.8 -35.6,11.4 -12.7,2.6 -25,4 -36.9,4 -23.3,0 -41.3,-6.1 -53.6,-18 -12.7,-11.9 -18.9,-29 -18.9,-51.8 z"
   id="path1253"
   style="fill:#9aa5ce;fill-opacity:1" />
	</g>
	<path
   class="st1"
   d="M 804.4,1245.3 912.8,1082.5 804.4,919.6 H 886 L 994.4,1082.4 886,1245.2 h -81.6 z"
   id="path1257"
   style="fill:#7e69a7;fill-opacity:1" />
	<path
   class="st2"
   d="M 913.3,1245.3 1021.7,1082.5 913.3,919.6 h 81.6 l 217.3,325.7 h -81.6 l -68,-101.8 -68,101.8 z"
   id="path1259"
   style="fill:#bb9af7;fill-opacity:1" />
	<path
   class="st3"
   d="m 1175.8,1150.4 -36,-54.4 h 126.4 v 54.4 z m -54.5,-81.6 -36,-54.4 h 180.8 v 54.4 z"
   id="path1261"
   style="fill:#ae46a7;fill-opacity:1" />
</g>
</svg>
