<?xml version="1.0" encoding="UTF-8" standalone="no"?>
<!-- Generator: Adobe Illustrator 25.2.1, SVG Export Plug-In . SVG Version: 6.00 Build 0)  -->

<svg
   version="1.1"
   id="Layer_1"
   x="0px"
   y="0px"
   viewBox="0 0 3840 2160"
   style="enable-background:new 0 0 3840 2160;"
   xml:space="preserve"
   sodipodi:docname="intellij-idea.svg"
   inkscape:version="1.1.1 (3bf5ae0d25, 2021-09-20)"
   xmlns:inkscape="http://www.inkscape.org/namespaces/inkscape"
   xmlns:sodipodi="http://sodipodi.sourceforge.net/DTD/sodipodi-0.dtd"
   xmlns="http://www.w3.org/2000/svg"
   xmlns:svg="http://www.w3.org/2000/svg"><defs
   id="defs2916" /><sodipodi:namedview
   id="namedview2914"
   pagecolor="#505050"
   bordercolor="#eeeeee"
   borderopacity="1"
   inkscape:pageshadow="0"
   inkscape:pageopacity="0"
   inkscape:pagecheckerboard="0"
   showgrid="false"
   inkscape:zoom="1.0076272"
   inkscape:cx="1873.7089"
   inkscape:cy="994.91165"
   inkscape:window-width="1920"
   inkscape:window-height="1060"
   inkscape:window-x="0"
   inkscape:window-y="20"
   inkscape:window-maximized="1"
   inkscape:current-layer="Layer_1" />
<style
   type="text/css"
   id="style2876">
	.st0{fill:#0065A9;}
	.st1{fill:#007ACC;}
	.st2{fill:#1F9CF0;}
	.st3{opacity:0.25;}
	.st4{fill-rule:evenodd;clip-rule:evenodd;fill:url(#SVGID_1_);}
</style>
<rect
   style="fill:#24283b;fill-opacity:1;stroke:#1a1b26;stroke-width:6.79166"
   id="rect3113"
   width="3833.2085"
   height="2153.2083"
   x="3.3958299"
   y="3.3958299" />
<g
   id="g1068"
   transform="matrix(8.5429423,0,0,8.5429423,1620.997,780.99702)">
	<g
   id="g1056">
		<linearGradient
   id="SVGID_1_-6"
   gradientUnits="userSpaceOnUse"
   x1="0.78979999"
   y1="40.089298"
   x2="33.3172"
   y2="40.089298">
			<stop
   offset="0.2581"
   style="stop-color:#F97A12"
   id="stop978" />
			<stop
   offset="0.4591"
   style="stop-color:#B07B58"
   id="stop980" />
			<stop
   offset="0.7241"
   style="stop-color:#577BAE"
   id="stop982" />
			<stop
   offset="0.9105"
   style="stop-color:#1E7CE5"
   id="stop984" />
			<stop
   offset="1"
   style="stop-color:#087CFA"
   id="stop986" />
		</linearGradient>
		<polygon
   style="fill:#ff9e64;fill-opacity:1"
   points="33.3,35 17.7,54.6 0.8,41.2 9.2,25.6 "
   id="polygon989" />
		<linearGradient
   id="SVGID_2_"
   gradientUnits="userSpaceOnUse"
   x1="25.767401"
   y1="24.879999"
   x2="79.424004"
   y2="54.57">
			<stop
   offset="0"
   style="stop-color:#F97A12"
   id="stop991" />
			<stop
   offset="7.179946e-002"
   style="stop-color:#CB7A3E"
   id="stop993" />
			<stop
   offset="0.1541"
   style="stop-color:#9E7B6A"
   id="stop995" />
			<stop
   offset="0.242"
   style="stop-color:#757B91"
   id="stop997" />
			<stop
   offset="0.3344"
   style="stop-color:#537BB1"
   id="stop999" />
			<stop
   offset="0.4324"
   style="stop-color:#387CCC"
   id="stop1001" />
			<stop
   offset="0.5381"
   style="stop-color:#237CE0"
   id="stop1003" />
			<stop
   offset="0.6552"
   style="stop-color:#147CEF"
   id="stop1005" />
			<stop
   offset="0.7925"
   style="stop-color:#0B7CF7"
   id="stop1007" />
			<stop
   offset="1"
   style="stop-color:#087CFA"
   id="stop1009" />
		</linearGradient>
		<polygon
   style="fill:#7aa2f7;fill-opacity:1"
   points="48.2,1.1 70,18.7 68.7,59.2 41.8,70 25.6,59.6 49.3,35 38.9,12.3 "
   id="polygon1012" />
		<linearGradient
   id="SVGID_3_"
   gradientUnits="userSpaceOnUse"
   x1="63.227699"
   y1="42.915298"
   x2="48.290298"
   y2="-1.7191">
			<stop
   offset="0"
   style="stop-color:#FE315D"
   id="stop1014" />
			<stop
   offset="7.840246e-002"
   style="stop-color:#CB417E"
   id="stop1016" />
			<stop
   offset="0.1601"
   style="stop-color:#9E4E9B"
   id="stop1018" />
			<stop
   offset="0.2474"
   style="stop-color:#755BB4"
   id="stop1020" />
			<stop
   offset="0.3392"
   style="stop-color:#5365CA"
   id="stop1022" />
			<stop
   offset="0.4365"
   style="stop-color:#386DDB"
   id="stop1024" />
			<stop
   offset="0.5414"
   style="stop-color:#2374E9"
   id="stop1026" />
			<stop
   offset="0.6576"
   style="stop-color:#1478F3"
   id="stop1028" />
			<stop
   offset="0.794"
   style="stop-color:#0B7BF8"
   id="stop1030" />
			<stop
   offset="1"
   style="stop-color:#087CFA"
   id="stop1032" />
		</linearGradient>
		<polygon
   style="fill:#bb9af7;fill-opacity:1"
   points="48.2,1.1 70,18.7 48.7,43.9 38.9,12.3 "
   id="polygon1035" />
		<linearGradient
   id="SVGID_4_"
   gradientUnits="userSpaceOnUse"
   x1="10.7204"
   y1="16.473"
   x2="55.523701"
   y2="90.580002">
			<stop
   offset="0"
   style="stop-color:#FE315D"
   id="stop1037" />
			<stop
   offset="4.023279e-002"
   style="stop-color:#F63462"
   id="stop1039" />
			<stop
   offset="0.1037"
   style="stop-color:#DF3A71"
   id="stop1041" />
			<stop
   offset="0.1667"
   style="stop-color:#C24383"
   id="stop1043" />
			<stop
   offset="0.2912"
   style="stop-color:#AD4A91"
   id="stop1045" />
			<stop
   offset="0.5498"
   style="stop-color:#755BB4"
   id="stop1047" />
			<stop
   offset="0.9175"
   style="stop-color:#1D76ED"
   id="stop1049" />
			<stop
   offset="1"
   style="stop-color:#087CFA"
   id="stop1051" />
		</linearGradient>
		<polygon
   style="fill:#f7768e;fill-opacity:1"
   points="16,33.1 0,27.7 10.1,0 32.1,2.7 53.7,27.4 33.7,58.1 5.6,68.3 10.1,52.5 "
   id="polygon1054" />
	</g>
	<g
   id="g1066">
		<rect
   x="13.7"
   y="13.5"
   style="fill:#414868;fill-opacity:1"
   width="43.200001"
   height="43.200001"
   id="rect1058" />
		
		
		<g
   id="g1350"><rect
     x="17.700001"
     y="48.599998"
     style="fill:#ffffff"
     width="16.200001"
     height="2.7"
     id="rect1060" /><polygon
     style="fill:#ffffff"
     points="26.9,22.4 29.4,22.4 29.4,19.1 20.4,19.1 20.4,22.4 23,22.4 23,33.7 20.4,33.7 20.4,37 29.4,37 29.4,33.7 26.9,33.7 "
     id="polygon1062" /><path
     style="fill:#ffffff"
     d="M 38,37.3 C 36.6,37.3 35.4,37 34.5,36.5 33.6,36 32.8,35.3 32.2,34.6 l 2.5,-2.8 c 0.5,0.6 1,1 1.5,1.3 0.5,0.3 1.1,0.5 1.7,0.5 0.7,0 1.3,-0.2 1.8,-0.7 0.4,-0.5 0.6,-1.2 0.6,-2.3 V 19.1 h 4 v 11.7 c 0,1.1 -0.1,2 -0.4,2.8 -0.3,0.8 -0.7,1.4 -1.3,2 -0.5,0.5 -1.2,1 -2,1.2 -0.8,0.3 -1.6,0.5 -2.6,0.5"
     id="path1064" /></g>
	</g>
</g></svg>
