<?xml version="1.0" encoding="UTF-8" standalone="no"?>
<!-- Generator: Adobe Illustrator 25.2.1, SVG Export Plug-In . SVG Version: 6.00 Build 0)  -->

<svg
   version="1.1"
   id="Layer_1"
   x="0px"
   y="0px"
   viewBox="0 0 3840 2160"
   style="enable-background:new 0 0 3840 2160;"
   xml:space="preserve"
   sodipodi:docname="javascript.svg"
   inkscape:version="1.1.1 (3bf5ae0d25, 2021-09-20)"
   xmlns:inkscape="http://www.inkscape.org/namespaces/inkscape"
   xmlns:sodipodi="http://sodipodi.sourceforge.net/DTD/sodipodi-0.dtd"
   xmlns="http://www.w3.org/2000/svg"
   xmlns:svg="http://www.w3.org/2000/svg"><defs
   id="defs1707" /><sodipodi:namedview
   id="namedview1705"
   pagecolor="#505050"
   bordercolor="#eeeeee"
   borderopacity="1"
   inkscape:pageshadow="0"
   inkscape:pageopacity="0"
   inkscape:pagecheckerboard="0"
   showgrid="false"
   inkscape:zoom="0.35625"
   inkscape:cx="696.14035"
   inkscape:cy="1079.2982"
   inkscape:window-width="1920"
   inkscape:window-height="1060"
   inkscape:window-x="0"
   inkscape:window-y="20"
   inkscape:window-maximized="1"
   inkscape:current-layer="Layer_1" />
<style
   type="text/css"
   id="style1692">
	.st0{fill:#EFDA4F;}
	.st1{fill:#323330;}
</style>
<rect
   style="fill:#24283b;fill-opacity:1;stroke:#1a1b26;stroke-width:6.79166"
   id="rect3113"
   width="3833.2085"
   height="2153.2083"
   x="3.3958299"
   y="3.3958299" /><g
   id="g1702">
	<rect
   x="1484.7"
   y="644.70001"
   class="st0"
   width="870.70001"
   height="870.70001"
   id="rect1694"
   style="fill:#e0af68;fill-opacity:1" />
	<g
   id="g1700"
   style="fill:#565f89;fill-opacity:1">
		<path
   class="st1"
   d="m 2001.9,1362.9 c 22.3,-12.9 44.2,-25.6 66.4,-38.4 2.2,3.3 4.3,6.4 6.4,9.4 12.5,17.7 28,31.5 49.6,37 18.1,4.6 36.3,4.8 54,-2.2 21.4,-8.4 30.9,-27.9 24,-48.3 -2.6,-7.6 -7.2,-13.9 -13.8,-18.1 -9.4,-6 -19.1,-11.5 -29.1,-16.3 -19.5,-9.3 -39.6,-17.4 -59,-26.8 -18.9,-9.2 -35.9,-21.1 -49.4,-37.4 -18.1,-21.9 -24.7,-47.5 -24.3,-75.4 0.7,-50.2 31.9,-89.7 81.4,-101.9 34.5,-8.4 68.7,-7.1 101.4,8.2 23.6,11 39.8,29.9 52.6,52.4 -21.2,13.6 -42.1,27.1 -63.4,40.7 -2.1,-3.2 -3.9,-6.2 -5.9,-9.1 -7.8,-11.3 -17.3,-20.4 -31.1,-23.8 -9.9,-2.5 -19.9,-2.8 -29.8,0.2 -30.5,9.2 -30.4,44.9 -15.1,58.9 5.9,5.5 12.7,10.3 19.9,13.8 16.5,8 33.4,15.1 50.1,22.6 20.6,9.3 40.7,19.6 58.4,33.9 26.1,21 39,48.5 40.6,81.8 1.1,22.4 -2.2,44 -13.4,63.8 -13.6,23.9 -34.1,39.8 -59.8,48.2 -53.2,17.3 -105.2,14.4 -154.6,-13.2 -24.7,-13.8 -42.9,-34.4 -56.1,-60 z"
   id="path1696"
   style="fill:#565f89;fill-opacity:1" />
		<path
   class="st1"
   d="m 1713.4,1371.5 c 21.9,-13.3 43.9,-26.6 66.2,-40.1 1.3,2.3 2.6,4.6 3.9,6.8 5.3,8.9 10.8,17.7 18.7,24.5 13.9,11.9 39.4,14.4 55.3,5.3 10.7,-6.1 15.1,-16.2 16.8,-27.6 1.1,-7 1.6,-14.2 1.6,-21.4 0.1,-89.6 0.1,-179.3 0.1,-268.9 0,-1.7 0,-3.6 0,-5.5 27.2,0 54,0 81.2,0 0.1,0.9 0.3,1.8 0.3,2.7 0,94 0.1,188.1 -0.2,282.1 -0.1,23.6 -5,46.3 -17.4,66.8 -15.1,25 -37.7,39.4 -65.6,45.7 -33.9,7.5 -67.5,6.4 -99.6,-7.9 -27.7,-12.3 -47.2,-33.4 -60.5,-60.3 -0.4,-0.6 -0.4,-1.3 -0.8,-2.2 z"
   id="path1698"
   style="fill:#565f89;fill-opacity:1" />
	</g>
</g>
</svg>
