<?xml version="1.0" encoding="UTF-8" standalone="no"?>
<!-- Generator: Adobe Illustrator 25.2.1, SVG Export Plug-In . SVG Version: 6.00 Build 0)  -->

<svg
   version="1.1"
   id="Layer_1"
   x="0px"
   y="0px"
   viewBox="0 0 3840 2160"
   style="enable-background:new 0 0 3840 2160;"
   xml:space="preserve"
   sodipodi:docname="java.svg"
   inkscape:version="1.1.1 (3bf5ae0d25, 2021-09-20)"
   xmlns:inkscape="http://www.inkscape.org/namespaces/inkscape"
   xmlns:sodipodi="http://sodipodi.sourceforge.net/DTD/sodipodi-0.dtd"
   xmlns="http://www.w3.org/2000/svg"
   xmlns:svg="http://www.w3.org/2000/svg"><defs
   id="defs1633" /><sodipodi:namedview
   id="namedview1631"
   pagecolor="#505050"
   bordercolor="#eeeeee"
   borderopacity="1"
   inkscape:pageshadow="0"
   inkscape:pageopacity="0"
   inkscape:pagecheckerboard="0"
   showgrid="false"
   inkscape:zoom="0.35625"
   inkscape:cx="1308.0702"
   inkscape:cy="1079.2982"
   inkscape:window-width="1920"
   inkscape:window-height="1060"
   inkscape:window-x="0"
   inkscape:window-y="20"
   inkscape:window-maximized="1"
   inkscape:current-layer="Layer_1" />
<style
   type="text/css"
   id="style1592">
	.st0{fill:#5382A1;}
	.st1{fill:#F8981D;}
</style>
<rect
   style="fill:#24283b;fill-opacity:1;stroke:#1a1b26;stroke-width:6.79166"
   id="rect3113"
   width="3833.2085"
   height="2153.2083"
   x="3.3958299"
   y="3.3958299" /><g
   id="g1628">
	<g
   id="g1604"
   style="fill:#7aa2f7;fill-opacity:1">
		<path
   class="st0"
   d="m 1811.2,1594.5 c -14.7,12.9 -30.3,19.8 -44.1,19.8 -19.8,0 -30.6,-12 -30.6,-31.2 0,-20.7 11.4,-36 57.9,-36 h 16.8 v 47.4 m 40.8,45.9 v -141.9 c 0,-36.3 -20.7,-60.3 -70.5,-60.3 -29.1,0 -54.6,7.2 -75.3,16.2 l 6,25.2 c 16.2,-6 37.5,-11.7 58.2,-11.7 28.8,0 41.1,11.7 41.1,35.4 v 18 h -14.4 c -69.6,0 -101.1,27 -101.1,67.8 0,35.1 20.7,54.9 59.7,54.9 25.2,0 43.8,-10.5 61.2,-25.5 l 3.3,21.6 z"
   id="path1594"
   style="fill:#7aa2f7;fill-opacity:1" />
		<path
   class="st0"
   d="M 1987.7,1640.4 H 1937 L 1876.1,1442 h 44.1 l 37.8,121.8 8.4,36.6 c 19.2,-53.1 32.7,-106.8 39.3,-158.7 h 42.9 c -11.1,65.5 -31.8,137.2 -60.9,198.7"
   id="path1596"
   style="fill:#7aa2f7;fill-opacity:1" />
		<path
   class="st0"
   d="m 2182.1,1594.5 c -14.7,12.9 -30.3,19.8 -44.4,19.8 -19.8,0 -30.6,-12 -30.6,-31.2 0,-20.7 11.7,-36 57.9,-36 h 17.1 v 47.4 m 40.5,45.9 v -141.9 c 0,-36.3 -20.7,-60.3 -70.5,-60.3 -29.1,0 -54.6,7.2 -75.3,16.2 l 6,25.2 c 16.2,-6 37.5,-11.7 58.2,-11.7 28.8,0 41.1,11.7 41.1,35.4 v 18 h -14.4 c -69.9,0 -101.1,27 -101.1,67.8 0,35.1 20.7,54.9 59.7,54.9 25.2,0 43.8,-10.5 61.5,-25.5 l 3.3,21.6 z"
   id="path1598"
   style="fill:#7aa2f7;fill-opacity:1" />
		<path
   class="st0"
   d="m 1651.3,1674 c -11.7,16.8 -30.3,30.3 -50.7,37.8 l -20.1,-23.7 c 15.6,-8.1 29.1,-21 35.1,-33 5.4,-10.8 7.5,-24.6 7.5,-57.6 v -226.3 h 43.2 v 223.6 c 0,44.1 -3.6,61.8 -15,79.2"
   id="path1600"
   style="fill:#7aa2f7;fill-opacity:1" />
		<path
   class="st0"
   d="m 2231.3,1444.8 h -4.8 v -2.7 h 12.9 v 2.7 h -4.8 v 13.2 h -3.3 z m 25.5,0.6 v 0 l -4.8,12.6 h -2.1 l -4.8,-12.6 v 0 12.6 h -3 v -15.9 h 4.5 l 4.2,11.4 4.2,-11.4 h 4.5 v 15.9 h -3 z"
   id="path1602"
   style="fill:#7aa2f7;fill-opacity:1" />
	</g>
	<g
   id="g1626">
		<g
   id="g1610"
   style="fill:#ff9e64;fill-opacity:1">
			<path
   class="st1"
   d="m 1959.2,862.6 c 41.7,48 -11.1,91.5 -11.1,91.5 0,0 106.2,-54.9 57.3,-123.3 -45.6,-63.9 -80.4,-95.7 108.6,-205.6 0,0 -296.8,74.1 -154.8,237.4"
   id="path1606"
   style="fill:#ff9e64;fill-opacity:1" />
			<path
   class="st1"
   d="m 2005.4,448.2 c 0,0 90,90 -85.5,228.7 -140.7,111 -32.1,174.4 0,247 -82.2,-74.1 -142.5,-139.2 -102,-200.2 59.6,-89.2 224.1,-132.4 187.5,-275.5"
   id="path1608"
   style="fill:#ff9e64;fill-opacity:1" />
		</g>
		<g
   id="g1624"
   style="fill:#7aa2f7;fill-opacity:1">
			<path
   class="st0"
   d="m 1804.9,1118.6 c 0,0 -33,19.2 23.7,25.8 68.7,7.8 103.8,6.6 179.5,-7.5 0,0 19.8,12.6 47.7,23.4 -169.6,72.3 -384.1,-4.5 -250.9,-41.7"
   id="path1612"
   style="fill:#7aa2f7;fill-opacity:1" />
			<path
   class="st0"
   d="m 1784.2,1023.7 c 0,0 -37.2,27.6 19.5,33.3 73.2,7.5 131.4,8.1 231.7,-11.1 0,0 13.8,14.1 35.7,21.6 -205.3,60.1 -433.6,4.8 -286.9,-43.8"
   id="path1614"
   style="fill:#7aa2f7;fill-opacity:1" />
			<path
   class="st0"
   d="m 2183.6,1188.8 c 0,0 24.6,20.1 -27,35.7 -98.1,29.7 -407.8,38.7 -493.6,1.2 -30.9,-13.5 27,-32.1 45.3,-36 18.9,-4.2 30,-3.3 30,-3.3 -34.5,-24.3 -222.4,47.7 -95.4,68.1 345.7,56.1 630.5,-25.2 540.7,-65.7"
   id="path1616"
   style="fill:#7aa2f7;fill-opacity:1" />
			<path
   class="st0"
   d="m 1820.8,925.3 c 0,0 -157.5,37.5 -55.8,51 42.9,5.7 128.7,4.5 208.3,-2.1 65.1,-5.4 130.5,-17.1 130.5,-17.1 0,0 -23.1,9.9 -39.6,21.3 -159.9,42 -469,22.5 -379.9,-20.4 75.6,-36.9 136.5,-32.7 136.5,-32.7"
   id="path1618"
   style="fill:#7aa2f7;fill-opacity:1" />
			<path
   class="st0"
   d="m 2103.5,1083.2 c 162.6,-84.6 87.3,-165.6 34.8,-154.8 -12.9,2.7 -18.6,5.1 -18.6,5.1 0,0 4.8,-7.5 13.8,-10.8 103.8,-36.6 183.7,107.7 -33.6,164.7 0.3,0.3 3,-2.1 3.6,-4.2"
   id="path1620"
   style="fill:#7aa2f7;fill-opacity:1" />
			<path
   class="st0"
   d="m 1837,1312.4 c 156,9.9 395.8,-5.4 401.5,-79.5 0,0 -10.8,27.9 -129,50.1 -133.2,25.2 -297.7,22.2 -394.9,6 -0.3,0.3 19.8,16.8 122.4,23.4"
   id="path1622"
   style="fill:#7aa2f7;fill-opacity:1" />
		</g>
	</g>
</g>
</svg>
