<?xml version="1.0" encoding="UTF-8" standalone="no"?>
<!-- Generator: Adobe Illustrator 25.2.1, SVG Export Plug-In . SVG Version: 6.00 Build 0)  -->

<svg
   version="1.1"
   id="Layer_1"
   x="0px"
   y="0px"
   viewBox="0 0 3840 2160"
   style="enable-background:new 0 0 3840 2160;"
   xml:space="preserve"
   sodipodi:docname="julia.svg"
   inkscape:version="1.1.1 (3bf5ae0d25, 2021-09-20)"
   xmlns:inkscape="http://www.inkscape.org/namespaces/inkscape"
   xmlns:sodipodi="http://sodipodi.sourceforge.net/DTD/sodipodi-0.dtd"
   xmlns="http://www.w3.org/2000/svg"
   xmlns:svg="http://www.w3.org/2000/svg"><defs
   id="defs1795" /><sodipodi:namedview
   id="namedview1793"
   pagecolor="#505050"
   bordercolor="#eeeeee"
   borderopacity="1"
   inkscape:pageshadow="0"
   inkscape:pageopacity="0"
   inkscape:pagecheckerboard="0"
   showgrid="false"
   inkscape:zoom="0.35625"
   inkscape:cx="1319.2982"
   inkscape:cy="1056.8421"
   inkscape:window-width="1920"
   inkscape:window-height="1060"
   inkscape:window-x="0"
   inkscape:window-y="20"
   inkscape:window-maximized="1"
   inkscape:current-layer="Layer_1" />
<style
   type="text/css"
   id="style1766">
	.st0{fill:#252525;}
	.st1{fill:#6682DF;stroke:#4063D8;stroke-width:4.7974;stroke-miterlimit:6.25;}
	.st2{fill:#D5635C;stroke:#CB3C33;stroke-width:4.7974;stroke-miterlimit:6.25;}
	.st3{fill:#60AD51;stroke:#389826;stroke-width:4.7974;stroke-miterlimit:6.25;}
	.st4{fill:#AA79C1;stroke:#9558B2;stroke-width:4.7974;stroke-miterlimit:6.2501;}
</style>
<rect
   style="fill:#24283b;fill-opacity:1;stroke:#1a1b26;stroke-width:6.79166"
   id="rect3113"
   width="3833.2085"
   height="2153.2083"
   x="3.3958299"
   y="3.3958299" /><g
   transform="matrix(1.25,0,0,-1.25,0,258.84)"
   id="g1790">
	<g
   id="g1778"
   style="fill:#a9b1d6;fill-opacity:1">
		<path
   class="st0"
   d="m 1293.5,-824.9 v 232.8 l -68.8,-19.1 v -247.4 c 0,-13 -1.1,-21.8 -2.9,-26.3 -2.1,-4.5 -5,-6.6 -8.8,-6.6 -1.9,0 -3.7,0.8 -6.1,2.1 -2.1,1.3 -5,4.3 -8.2,8.5 -2.9,3.7 -6.4,7.7 -10.6,11.7 -4.3,4 -10.1,5.8 -17.3,5.8 -9.6,0 -17.3,-2.4 -23.1,-7.2 -5.8,-4.8 -8.5,-10.6 -8.5,-17.8 0,-8.5 5,-15.7 15.4,-21.8 10.1,-6.4 25,-9.3 44.1,-9.3 14.4,0 27.4,1.1 38.8,3.5 11.7,2.4 21.5,6.9 30,13.8 8.2,6.9 14.9,16.5 19.1,28.7 4.8,12.2 6.9,28.4 6.9,48.6 z"
   id="path1768"
   style="fill:#a9b1d6;fill-opacity:1" />
		<path
   class="st0"
   d="m 1389.2,-599 h -68.6 v -159.2 c 0,-9.8 2.1,-19.1 6.1,-27.6 4,-8.5 9.8,-16.2 17,-22.6 7.2,-6.4 15.7,-11.4 25.2,-15.1 9.6,-3.7 20.2,-5.6 31.4,-5.6 9.6,0 19.7,2.4 29.8,6.9 10.4,4.5 19.9,10.6 29,18.3 v -21 h 68.6 v 226.2 h -68.6 v -163.4 c -5.3,-8 -11.4,-14.6 -18.3,-19.9 -6.9,-5.3 -13,-8 -18.3,-8 -4.5,0 -9,0.8 -13,2.7 -4,1.6 -7.4,4 -10.6,6.6 -2.9,2.9 -5.3,6.1 -7.2,10.1 -1.6,4 -2.7,8 -2.7,12.5 V -599 Z"
   id="path1770"
   style="fill:#a9b1d6;fill-opacity:1" />
		<path
   class="st0"
   d="M 1623,-824.9 V -489 l -68.3,-18.9 V -825 h 68.3 z"
   id="path1772"
   style="fill:#a9b1d6;fill-opacity:1" />
		<path
   class="st0"
   d="m 1650.4,-611.2 v -213.7 h 68.6 v 232.8 z"
   id="path1774"
   style="fill:#a9b1d6;fill-opacity:1" />
		<path
   class="st0"
   d="m 1864.1,-708.2 v -65.4 c -6.9,-5.3 -13.3,-9.6 -19.1,-13 -5.8,-3.5 -11.4,-5 -17,-5 -2.9,0 -5.3,0.8 -7.7,2.7 -2.4,1.6 -4.5,4 -6.6,6.6 -2.1,2.9 -3.5,6.1 -4.8,10.1 -1.1,4 -1.6,8 -1.6,12.2 0,5.3 1.6,10.6 5,15.7 3.5,5 8,9.8 13.3,14.1 5.6,4.5 11.7,8.5 18.3,12.2 6.9,3.7 13.5,7.1 20.2,9.8 z m 68.8,-116.7 v 169.6 c 0,9.3 -1.9,18.1 -5.3,25.5 -3.7,7.7 -9.3,14.1 -16.7,19.7 -7.7,5.3 -17.3,9.6 -29,12.5 -11.7,2.9 -25.8,4.3 -42,4.3 -13.3,0 -25.8,-1.3 -37.7,-4.3 -12,-2.9 -22.3,-6.6 -31.4,-11.4 -9,-4.8 -16.2,-10.6 -21.5,-17.3 -5.3,-6.7 -8,-14.1 -8,-21.8 0,-8.5 2.9,-15.4 9,-21 6.1,-5.6 13.8,-8.2 23.4,-8.2 6.1,0 11.4,0.8 15.4,2.7 4,1.9 7.2,4.3 9.6,7.2 2.1,2.9 3.7,6.6 4.8,10.6 0.8,4 1.3,8.2 1.3,12.2 0,7.4 2.1,13.8 6.4,18.9 4.3,5.3 11.7,7.7 22.6,7.7 9.3,0 16.5,-2.9 22.1,-9 5.6,-6.1 8.2,-16.2 8.2,-30.8 v -22.3 l -7.4,-1.9 c -9.3,-2.9 -18.6,-5.8 -27.9,-8.8 -9.3,-3.2 -18.6,-6.6 -27.4,-10.4 -8.8,-3.7 -17,-7.7 -24.4,-12.2 -7.7,-4.5 -14.4,-9.3 -19.9,-15.1 -5.8,-5.6 -10.4,-12 -13.6,-18.9 -3.2,-6.9 -5,-14.9 -5,-23.4 0,-8.5 1.6,-16.2 4.8,-23.4 3.2,-7.2 7.7,-13.3 13.3,-18.6 5.8,-5.3 13,-9.3 21.3,-12.2 8.3,-2.9 17.8,-4.5 28.2,-4.5 7.7,0 14.4,0.5 19.9,1.6 5.6,1.1 10.6,2.7 15.1,4.8 4.5,2.1 8.5,4.3 12.2,7.2 3.7,2.7 7.4,5.6 11.2,8.8 v -18.1 z"
   id="path1776"
   style="fill:#a9b1d6;fill-opacity:1" />
	</g>
	<g
   id="g1788">
		<circle
   class="st1"
   cx="1258.1"
   cy="-532.59998"
   r="42.5"
   id="circle1780"
   style="fill:#7dcfff;fill-opacity:1;stroke:#7aa2f7;stroke-opacity:1" />
		<circle
   class="st2"
   cx="1689.5"
   cy="-532.59998"
   r="42.5"
   id="circle1782"
   style="fill:#ff9e64;fill-opacity:1;stroke:#f7768e;stroke-opacity:1" />
		<circle
   class="st3"
   cx="1745.3"
   cy="-436.89999"
   r="42.5"
   id="circle1784"
   style="fill:#9ece6a;fill-opacity:1;stroke:#5fb876;stroke-opacity:1" />
		
	</g>
</g>
</svg>
