<?xml version="1.0" encoding="UTF-8" standalone="no"?>
<!-- Generator: Adobe Illustrator 25.2.1, SVG Export Plug-In . SVG Version: 6.00 Build 0)  -->

<svg
   version="1.1"
   id="Layer_1"
   x="0px"
   y="0px"
   viewBox="0 0 3840 2160"
   style="enable-background:new 0 0 3840 2160;"
   xml:space="preserve"
   sodipodi:docname="kotlin.svg"
   inkscape:version="1.1.1 (3bf5ae0d25, 2021-09-20)"
   xmlns:inkscape="http://www.inkscape.org/namespaces/inkscape"
   xmlns:sodipodi="http://sodipodi.sourceforge.net/DTD/sodipodi-0.dtd"
   xmlns:xlink="http://www.w3.org/1999/xlink"
   xmlns="http://www.w3.org/2000/svg"
   xmlns:svg="http://www.w3.org/2000/svg"><defs
   id="defs1918" /><sodipodi:namedview
   id="namedview1916"
   pagecolor="#505050"
   bordercolor="#eeeeee"
   borderopacity="1"
   inkscape:pageshadow="0"
   inkscape:pageopacity="0"
   inkscape:pagecheckerboard="0"
   showgrid="false"
   inkscape:zoom="0.35625"
   inkscape:cx="1900.3509"
   inkscape:cy="950.17544"
   inkscape:window-width="1920"
   inkscape:window-height="1060"
   inkscape:window-x="0"
   inkscape:window-y="20"
   inkscape:window-maximized="1"
   inkscape:current-layer="Layer_1" />
<style
   type="text/css"
   id="style1854">
	.st0{fill:#231F20;}
	.st1{fill:url(#SVGID_1_);}
	.st2{fill:url(#SVGID_2_);}
	.st3{fill:url(#SVGID_3_);}
</style>
<rect
   style="fill:#24283b;fill-opacity:1;stroke:#1a1b26;stroke-width:6.79166"
   id="rect3113"
   width="3833.2085"
   height="2153.2083"
   x="3.3958299"
   y="3.3958299" /><g
   id="g1913">
	<g
   id="g1868"
   style="fill:#a9b1d6;fill-opacity:1">
		<path
   class="st0"
   d="m 1534,902.8 h 80 v 159 l 147.5,-159 h 96.8 l -148.3,154.3 155,209.7 h -96.1 l -112.9,-155 -42.2,43.6 v 111.1 h -80 V 902.8 Z"
   id="path1856"
   style="fill:#a9b1d6;fill-opacity:1" />
		<path
   class="st0"
   d="m 1822.3,1128.9 v -1.1 c 0,-80 64.3,-145 151.5,-145 86.5,0 150.4,63.9 150.4,144 v 1.1 c 0,80 -64.3,145 -151.5,145 -86.1,0 -150.4,-63.9 -150.4,-144 z m 223.6,0 v -1.1 c 0,-41.1 -29.7,-76.8 -73.2,-76.8 -45.4,0 -72.2,35 -72.2,76.1 v 1.1 c 0,41.1 29.7,76.8 73.2,76.8 45.4,-0.3 72.2,-35 72.2,-76.1 z"
   id="path1858"
   style="fill:#a9b1d6;fill-opacity:1" />
		<path
   class="st0"
   d="m 2146,1187.5 v -132.2 h -33.2 v -67.5 h 33.2 v -71.1 h 78.9 v 71.1 h 65.4 v 67.5 h -65.4 v 119 c 0,18.2 7.9,27.2 25.4,27.2 14.6,0 27.5,-3.6 38.9,-10 v 63.6 c -16.8,10 -35.7,16.1 -62.5,16.1 -48.2,0.3 -80.7,-19 -80.7,-83.7 z"
   id="path1860"
   style="fill:#a9b1d6;fill-opacity:1" />
		<path
   class="st0"
   d="m 2313.1,887.1 h 78.9 v 379.4 h -78.9 z"
   id="path1862"
   style="fill:#a9b1d6;fill-opacity:1" />
		<path
   class="st0"
   d="m 2420.7,887.1 h 83.2 v 70 h -83.2 z m 2.1,100.7 h 78.9 v 278.6 h -78.9 c 0,0.4 0,-278.6 0,-278.6 z"
   id="path1864"
   style="fill:#a9b1d6;fill-opacity:1" />
		<path
   class="st0"
   d="m 2531.8,987.8 h 78.9 v 39.7 c 18.2,-23.2 41.4,-44.7 81.8,-44.7 59.7,0 94.7,39.7 94.7,103.6 v 180.4 h -78.9 V 1111 c 0,-37.5 -17.5,-56.8 -47.9,-56.8 -30,0 -49.3,19.3 -49.3,56.8 v 155.4 h -78.9 z"
   id="path1866"
   style="fill:#a9b1d6;fill-opacity:1" />
	</g>
	<g
   id="g1911">
		
			<linearGradient
   id="SVGID_1_"
   gradientUnits="userSpaceOnUse"
   x1="1011.4604"
   y1="3267.0872"
   x2="1303.2555"
   y2="2975.2886"
   gradientTransform="translate(0,-2050)"
   xlink:href="#SVGID_3_">
			<stop
   offset="0.1075"
   style="stop-color:#C757BC"
   id="stop1870" />
			<stop
   offset="0.2138"
   style="stop-color:#D0609A"
   id="stop1872" />
			<stop
   offset="0.4254"
   style="stop-color:#E1725C"
   id="stop1874" />
			<stop
   offset="0.6048"
   style="stop-color:#EE7E2F"
   id="stop1876" />
			<stop
   offset="0.743"
   style="stop-color:#F58613"
   id="stop1878" />
			<stop
   offset="0.8232"
   style="stop-color:#F88909"
   id="stop1880" />
		</linearGradient>
		<polygon
   class="st1"
   points="1416.5,902.5 1235.4,902.5 1052.8,1094.6 1052.8,1266.5 1235,1083.6 "
   id="polygon1883"
   style="fill:#ff9e64;fill-opacity:1" />
		
			<linearGradient
   id="SVGID_2_"
   gradientUnits="userSpaceOnUse"
   x1="1180.9647"
   y1="3369.8096"
   x2="1334.684"
   y2="3216.0759"
   gradientTransform="translate(0,-2050)">
			<stop
   offset="9.677000e-02"
   style="stop-color:#0095D5"
   id="stop1885" />
			<stop
   offset="0.3007"
   style="stop-color:#238AD9"
   id="stop1887" />
			<stop
   offset="0.6211"
   style="stop-color:#557BDE"
   id="stop1889" />
			<stop
   offset="0.8643"
   style="stop-color:#7472E2"
   id="stop1891" />
			<stop
   offset="1"
   style="stop-color:#806EE3"
   id="stop1893" />
		</linearGradient>
		<polygon
   class="st2"
   points="1052.8,1266.5 1235,1083.6 1416.5,1266.5 "
   id="polygon1896"
   style="fill:#806ee3;fill-opacity:1" />
		
			<linearGradient
   id="SVGID_3_"
   gradientUnits="userSpaceOnUse"
   x1="1036.04"
   y1="3065.3162"
   x2="1170.3992"
   y2="2930.957"
   gradientTransform="translate(0,-2050)"
   spreadMethod="pad">
			<stop
   offset="9.677000e-02"
   style="stop-color:#0095D5"
   id="stop1898" />
			<stop
   offset="0.3007"
   style="stop-color:#238AD9"
   id="stop1900" />
			<stop
   offset="0.6211"
   style="stop-color:#557BDE"
   id="stop1902" />
			<stop
   offset="0.8643"
   style="stop-color:#7472E2"
   id="stop1904" />
			<stop
   offset="1"
   style="stop-color:#806EE3"
   id="stop1906" />
		</linearGradient>
		<polygon
   class="st3"
   points="1052.8,902.5 1235.4,902.5 1052.8,1094.6 "
   id="polygon1909"
   style="fill:#7aa2f7;fill-opacity:1" />
	</g>
</g>
</svg>
