<?xml version="1.0" encoding="UTF-8" standalone="no"?>
<!-- Generator: Adobe Illustrator 25.2.1, SVG Export Plug-In . SVG Version: 6.00 Build 0)  -->

<svg
   version="1.1"
   id="Layer_1"
   x="0px"
   y="0px"
   viewBox="0 0 3840 2160"
   style="enable-background:new 0 0 3840 2160;"
   xml:space="preserve"
   sodipodi:docname="musl-no-text.svg"
   inkscape:version="1.1.1 (3bf5ae0d25, 2021-09-20)"
   xmlns:inkscape="http://www.inkscape.org/namespaces/inkscape"
   xmlns:sodipodi="http://sodipodi.sourceforge.net/DTD/sodipodi-0.dtd"
   xmlns="http://www.w3.org/2000/svg"
   xmlns:svg="http://www.w3.org/2000/svg"><defs
   id="defs2075" /><sodipodi:namedview
   id="namedview2073"
   pagecolor="#505050"
   bordercolor="#eeeeee"
   borderopacity="1"
   inkscape:pageshadow="0"
   inkscape:pageopacity="0"
   inkscape:pagecheckerboard="0"
   showgrid="false"
   inkscape:zoom="0.35625"
   inkscape:cx="1653.3333"
   inkscape:cy="1146.6667"
   inkscape:window-width="1920"
   inkscape:window-height="1060"
   inkscape:window-x="0"
   inkscape:window-y="20"
   inkscape:window-maximized="1"
   inkscape:current-layer="Layer_1" />
<style
   type="text/css"
   id="style2061">
	.st0{fill:none;stroke:#000000;}
</style>
<rect
   style="fill:#24283b;fill-opacity:1;stroke:#1a1b26;stroke-width:6.79166"
   id="rect3113"
   width="3833.2085"
   height="2153.2083"
   x="3.3958299"
   y="3.3958299" /><g
   id="Group"
   transform="translate(0,-6)"
   style="fill:none;fill-opacity:1;stroke:#b4f9f8;stroke-opacity:1;stroke-width:5;stroke-miterlimit:4;stroke-dasharray:none">
	<path
   id="path2383"
   class="st0"
   d="M1834.8,1686.6c0,0-31.1,62.2-54.4,6.2c-23.3-54.4-18.7-185-18.7-185   c6.2-486.5,268.9-144.6,222.3-76.2L1834.8,1686.6z"
   style="fill:none;fill-opacity:1;stroke:#b4f9f8;stroke-opacity:1;stroke-width:5;stroke-miterlimit:4;stroke-dasharray:none" />
	<path
   id="path3157"
   class="st0"
   d="M1836.4,1683.5c0,0-34.2,68.4-62.2,4.7c-28-63.7-28-211.4-28-211.4   c-9.3-553.3,310.9-155.4,256.5-79.3L1836.4,1683.5z"
   style="fill:none;fill-opacity:1;stroke:#b4f9f8;stroke-opacity:1;stroke-width:5;stroke-miterlimit:4;stroke-dasharray:none" />
	<path
   id="path3159"
   class="st0"
   d="M1841,1678.8c0,0-38.9,79.3-74.6,4.7c-35.7-74.6-37.3-245.6-37.3-245.6   c-23.3-638.8,363.7-172.5,301.5-83.9L1841,1678.8z"
   style="fill:none;fill-opacity:1;stroke:#b4f9f8;stroke-opacity:1;stroke-width:5;stroke-miterlimit:4;stroke-dasharray:none" />
	<path
   id="path3161"
   class="st0"
   d="M1845.7,1672.6c0,0-45.1,91.7-88.6,4.7c-43.5-88.6-49.7-289.1-49.7-289.1   c-40.4-753.8,433.6-197.4,360.6-94.8L1845.7,1672.6z"
   style="fill:none;fill-opacity:1;stroke:#b4f9f8;stroke-opacity:1;stroke-width:5;stroke-miterlimit:4;stroke-dasharray:none" />
	<path
   id="path3163"
   class="st0"
   d="M1850.3,1668c0,0-51.3,105.7-105.7,3.1c-54.4-102.6-66.8-337.3-66.8-337.3   c-69.9-876.6,508.3-217.6,425.9-99.5L1850.3,1668z"
   style="fill:none;fill-opacity:1;stroke:#b4f9f8;stroke-opacity:1;stroke-width:5;stroke-miterlimit:4;stroke-dasharray:none" />
	<path
   id="path3165"
   class="st0"
   d="M1856.6,1660.2c0,0-59.1,124.3-124.3,3.1c-65.3-121.2-79.3-397.9-79.3-397.9   c-82.4-1030.5,600-254.9,500.5-116.6L1856.6,1660.2z"
   style="fill:none;fill-opacity:1;stroke:#b4f9f8;stroke-opacity:1;stroke-width:5;stroke-miterlimit:4;stroke-dasharray:none" />
	<path
   id="path3167"
   class="st0"
   d="M1862.8,1652.4c0,0-68.4,143-144.5,1.6c-76.2-141.4-96.4-457-96.4-457   c-107.2-1187.5,694.8-287.5,581.3-129L1862.8,1652.4z"
   style="fill:none;fill-opacity:1;stroke:#b4f9f8;stroke-opacity:1;stroke-width:5;stroke-miterlimit:4;stroke-dasharray:none" />
	<path
   id="path3169"
   class="st0"
   d="M1869,1644.7c0,0-76.2,158.5-163.2,1.6c-87-158.5-113.5-514.5-113.5-514.5   c-130.6-1332,783.4-315.5,655.9-139.9L1869,1644.7z"
   style="fill:none;fill-opacity:1;stroke:#b4f9f8;stroke-opacity:1;stroke-width:5;stroke-miterlimit:4;stroke-dasharray:none" />
</g>
</svg>
