<?xml version="1.0" encoding="UTF-8" standalone="no"?>
<!-- Generator: Adobe Illustrator 25.2.1, SVG Export Plug-In . SVG Version: 6.00 Build 0)  -->

<svg
   version="1.1"
   id="Layer_1"
   x="0px"
   y="0px"
   viewBox="0 0 3840 2160"
   style="enable-background:new 0 0 3840 2160;"
   xml:space="preserve"
   sodipodi:docname="openshift.svg"
   inkscape:version="1.1.1 (3bf5ae0d25, 2021-09-20)"
   xmlns:inkscape="http://www.inkscape.org/namespaces/inkscape"
   xmlns:sodipodi="http://sodipodi.sourceforge.net/DTD/sodipodi-0.dtd"
   xmlns="http://www.w3.org/2000/svg"
   xmlns:svg="http://www.w3.org/2000/svg"><defs
   id="defs2916" /><sodipodi:namedview
   id="namedview2914"
   pagecolor="#505050"
   bordercolor="#eeeeee"
   borderopacity="1"
   inkscape:pageshadow="0"
   inkscape:pageopacity="0"
   inkscape:pagecheckerboard="0"
   showgrid="false"
   inkscape:zoom="1.0076272"
   inkscape:cx="1836.989"
   inkscape:cy="1056.4423"
   inkscape:window-width="1920"
   inkscape:window-height="1060"
   inkscape:window-x="0"
   inkscape:window-y="20"
   inkscape:window-maximized="1"
   inkscape:current-layer="Layer_1" />
<style
   type="text/css"
   id="style2876">
	.st0{fill:#0065A9;}
	.st1{fill:#007ACC;}
	.st2{fill:#1F9CF0;}
	.st3{opacity:0.25;}
	.st4{fill-rule:evenodd;clip-rule:evenodd;fill:url(#SVGID_1_);}
</style>
<rect
   style="fill:#24283b;fill-opacity:1;stroke:#1a1b26;stroke-width:6.79166"
   id="rect3113"
   width="3833.2085"
   height="2153.2083"
   x="3.3958299"
   y="3.3958299" />
<g
   id="g910"
   transform="matrix(13.790243,0,0,13.790243,1524.9318,756.03227)"><path
     d="m 54.22782,11.986615 c -0.5725,-1.1825 -1.235,-2.3237504 -2.00375,-3.4000004 l -8.2125,2.9887504 c 0.955,0.9775 1.7575,2.07625 2.41375,3.25125 z m -36.30287,9.08338 -8.215,2.98875 c 0.105,1.3175 0.3325,2.61875 0.65125,3.89375 l 7.80375,-2.84125 c -0.25375,-1.32 -0.34375,-2.68 -0.24,-4.04125"
     id="path44560"
     style="fill:#c95066;fill-opacity:1;fill-rule:nonzero;stroke:none" /><path
     d="m 36.1562,9.6601146 c 1.70875,0.7975004 3.18875,1.8850004 4.4375,3.1600004 l 8.2125,-2.9887504 c -2.275,-3.1925 -5.37375,-5.86 -9.17,-7.63125 -11.74125,-5.475 -25.74875,-0.3775 -31.2225,11.3625004 -1.7725,3.79875 -2.43125,7.83375 -2.12125,11.74125 l 8.21375,-2.98875 c 0.13625,-1.78 0.57,-3.56375 1.36625,-5.27375 C 19.42995,9.4138646 28.5287,6.1038646 36.1562,9.6601146"
     id="path44564"
     style="fill:#f7768e;fill-opacity:1;fill-rule:nonzero;stroke:none" /><path
     d="m 44.91582,24.668245 c -0.13125,1.77875 -0.58,3.5625 -1.37875,5.27375 -3.55625,7.62875 -12.65625,10.93875 -20.2825,7.3825 -1.71125,-0.79875 -3.2025,-1.8775 -4.44625,-3.155 l -8.19625,2.9825 c 2.27,3.1925 5.365,5.86125 9.16375,7.63375 11.74125,5.47375 25.74625,0.37625 31.22125,-11.365 1.77375,-3.79625 2.4275,-7.83125 2.115,-11.735 z"
     id="path44572"
     style="fill:#dd516b;fill-opacity:1;fill-rule:nonzero;stroke:none" /><path
     d="m 46.93545,14.641115 -7.80375,2.84 c 1.45,2.5975 2.135,5.5875 1.91,8.595 l 8.19625,-2.98125 c -0.235,-2.94125 -1.01875,-5.8125 -2.3025,-8.45375 m -36.06275,13.124 -7.80375,2.8425 c 0.71625,2.845 1.96,5.54875 3.67,7.955 l 8.195,-2.98375 c -2.10375,-2.16 -3.5025,-4.89375 -4.06125,-7.81375"
     id="path44576"
     style="fill:#f7768e;fill-opacity:1;fill-rule:nonzero;stroke:none" /><path
     d="m 53.03832,9.8229946 c -0.25875,-0.42 -0.5275,-0.83375 -0.81375,-1.23625 l -8.2125,2.9887504 c 0.36125,0.37 0.69375,0.7625 1.01125,1.165 z M 17.89357,22.719365 c -0.02,-0.5475 -0.0113,-1.0975 0.0312,-1.64875 l -8.215,2.98875 c 0.0425,0.52625 0.10875,1.04875 0.1875,1.57 l 7.99625,-2.91 z"
     id="path44584"
     style="fill:#b83e55;fill-opacity:1;fill-rule:nonzero;stroke:none" /><path
     d="m 53.11157,21.685615 -8.19625,2.9825 c -0.0863,1.18 -0.31625,2.3625 -0.6925,3.525 l 8.92125,-3.2525 c 0.0638,-1.09 0.0537,-2.1775 -0.0325,-3.255 m -42.49875,15.4675 c 0.63125,0.88875 1.33,1.73625 2.08875,2.53625 l 8.9225,-3.25375 c -1.0425,-0.6525 -1.985,-1.41375 -2.81625,-2.26625 z"
     id="path44588"
     style="fill:#af3349;fill-opacity:1;fill-rule:nonzero;stroke:none" /></g></svg>
