<?xml version="1.0" encoding="UTF-8" standalone="no"?>
<!-- Generator: Adobe Illustrator 25.2.1, SVG Export Plug-In . SVG Version: 6.00 Build 0)  -->

<svg
   version="1.1"
   id="Layer_1"
   x="0px"
   y="0px"
   viewBox="0 0 3840 2160"
   style="enable-background:new 0 0 3840 2160;"
   xml:space="preserve"
   sodipodi:docname="php.svg"
   inkscape:version="1.1.1 (3bf5ae0d25, 2021-09-20)"
   xmlns:inkscape="http://www.inkscape.org/namespaces/inkscape"
   xmlns:sodipodi="http://sodipodi.sourceforge.net/DTD/sodipodi-0.dtd"
   xmlns="http://www.w3.org/2000/svg"
   xmlns:svg="http://www.w3.org/2000/svg"><defs
   id="defs2266" /><sodipodi:namedview
   id="namedview2264"
   pagecolor="#505050"
   bordercolor="#eeeeee"
   borderopacity="1"
   inkscape:pageshadow="0"
   inkscape:pageopacity="0"
   inkscape:pagecheckerboard="0"
   showgrid="false"
   inkscape:zoom="0.35625"
   inkscape:cx="1771.2281"
   inkscape:cy="1079.2982"
   inkscape:window-width="1920"
   inkscape:window-height="1060"
   inkscape:window-x="0"
   inkscape:window-y="20"
   inkscape:window-maximized="1"
   inkscape:current-layer="Layer_1" />
<style
   type="text/css"
   id="style2231">
	.st0{fill:url(#path3462_1_);}
	.st1{fill:#777BB3;}
	.st2{fill:#FFFFFF;}
</style>
<rect
   style="fill:#24283b;fill-opacity:1;stroke:#1a1b26;stroke-width:6.79166"
   id="rect3113"
   width="3833.2085"
   height="2153.2083"
   x="3.3958299"
   y="3.3958299" /><g
   id="Group"
   transform="matrix(1.25,0,0,-1.25,-4.4,394.29875)">
	
		<radialGradient
   id="path3462_1_"
   cx="-376.6344"
   cy="-1627.6792"
   r="1.5494"
   gradientTransform="matrix(567.278,0,0,-567.278,215024.77,-923749)"
   gradientUnits="userSpaceOnUse">
		<stop
   offset="0"
   style="stop-color:#AEB2D5"
   id="stop2233" />
		<stop
   offset="0.3"
   style="stop-color:#AEB2D5"
   id="stop2235" />
		<stop
   offset="0.75"
   style="stop-color:#484C89"
   id="stop2237" />
		<stop
   offset="1"
   style="stop-color:#484C89"
   id="stop2239" />
	</radialGradient>
	
	<path
   id="path3474"
   class="st1"
   d="m 1539.5,-757.1 c 227.3,0 411.7,93.4 411.7,208.6 0,115.3 -184.4,208.6 -411.7,208.6 -227.3,0 -411.7,-93.3 -411.7,-208.6 0,-115.3 184.4,-208.6 411.7,-208.6"
   style="fill:#bb9af7;fill-opacity:1" />
	<g
   id="g2260">
		<g
   id="g2250">
			<path
   class="st2"
   d="m 1454,-465.2 c -14.9,17 -38.1,25.6 -69.3,25.6 H 1290 c -4.5,0 -8.2,-3.1 -9.1,-7.6 L 1237.1,-673 c -0.5,-2.8 0.2,-5.6 2,-7.7 1.7,-2.2 4.3,-3.4 7.1,-3.4 h 49.3 c 4.5,0 8.2,3.1 9.1,7.6 l 10.2,52.5 h 34.4 c 19.5,0 35.9,2.2 48.8,6.4 13.2,4.3 25.4,11.6 36.3,21.7 9,8.2 16.3,17.4 21.8,27.4 5.6,9.9 9.6,21.1 11.9,33 5.5,29.4 0.9,53.1 -14,70.3 z m -55.3,-63.5 c -2.9,-15.2 -8.4,-25.9 -16.3,-31.8 -8.1,-6.2 -21.1,-9.3 -38.6,-9.3 h -18.6 l 14.7,75.9 h 26 c 20.8,0 28,-4.5 30.5,-7.3 4.1,-4.4 4.9,-14 2.3,-27.5 z"
   id="path2244" />
			<path
   class="st2"
   d="m 1548.4,-379.5 h -48.8 c -4.5,0 -8.2,-3.1 -9.1,-7.6 L 1446.6,-613 c -0.5,-2.8 0.2,-5.6 2,-7.7 1.8,-2.1 4.3,-3.4 7.1,-3.4 h 48.8 c 4.5,0 8.2,3.1 9.1,7.6 l 23.7,121.8 h 31.3 c 14.6,0 17.5,-3.1 17.7,-3.3 0.9,-0.9 2,-5.3 0.2,-15.2 l -19.4,-99.9 c -0.5,-2.8 0.2,-5.6 2,-7.7 1.7,-2.2 4.3,-3.4 7.1,-3.4 h 49.6 c 4.5,0 8.2,3.1 9.1,7.6 l 20.5,105.1 c 4.8,24.6 0.6,43.2 -12.2,55 -12.2,11.3 -32.8,16.7 -62.9,16.7 H 1548 l 9.5,49 c 0.5,2.8 -0.2,5.6 -2,7.7 -1.7,2.3 -4.4,3.6 -7.1,3.6"
   id="path2246" />
			<path
   class="st2"
   d="m 1837.9,-465.2 c -14.9,17 -38.1,25.6 -69.3,25.6 H 1674 c -4.5,0 -8.2,-3.1 -9.1,-7.6 L 1621,-673 c -0.5,-2.8 0.2,-5.6 2,-7.7 1.7,-2.2 4.3,-3.4 7.1,-3.4 h 49.3 c 4.5,0 8.2,3.1 9.1,7.6 l 10.2,52.5 h 34.4 c 19.5,0 35.9,2.2 48.8,6.4 13.2,4.3 25.4,11.6 36.3,21.7 9,8.2 16.3,17.4 21.8,27.4 5.6,9.9 9.6,21.1 11.9,33 5.7,29.4 0.9,53.1 -14,70.3 z m -55.3,-63.5 c -2.9,-15.2 -8.4,-25.9 -16.3,-31.8 -8.1,-6.2 -21.1,-9.3 -38.6,-9.3 h -18.6 l 14.7,75.9 h 26 c 20.8,0 28,-4.5 30.5,-7.3 4.2,-4.4 5,-14 2.3,-27.5 z"
   id="path2248" />
		</g>
		<g
   id="g2258"
   style="fill:#565f89;fill-opacity:1">
			<path
   d="M 1384.7,-448.9 H 1290 l -43.8,-225.7 h 49.3 l 11.6,60.1 h 42.1 c 18.6,0 33.9,2 45.9,5.9 12.1,3.9 22.9,10.4 32.7,19.7 8.2,7.6 14.9,16 20,25.1 5.1,9.1 8.7,19.2 10.8,30.2 5.3,26.8 1.2,47.6 -11.8,62.6 -13,14.6 -33.7,22.1 -62.1,22.1 z m 23.1,-81.5 c -3.4,-17.5 -9.9,-29.9 -19.7,-37.5 -9.8,-7.4 -24.5,-11.2 -44.3,-11.2 h -29.9 l 18.4,94.5 h 33.6 c 18.7,0 31.1,-3.4 37.3,-10.4 6.5,-6.8 7.9,-18.7 4.6,-35.4 z"
   id="path2252"
   style="fill:#565f89;fill-opacity:1" />
			<path
   d="m 1646.1,-509.7 c 4.2,21.4 1.1,36.9 -9.3,46.3 -10.4,9.6 -29.3,14.3 -56.6,14.3 h -43.5 l 11.6,60 h -48.8 l -43.8,-225.7 h 48.8 l 25.1,129.4 h 39 c 12.6,0 20.6,-2 24.5,-6.2 3.9,-4.2 4.6,-11.9 2.5,-23.2 l -19.4,-99.9 h 49.6 z"
   id="path2254"
   style="fill:#565f89;fill-opacity:1" />
			<path
   d="M 1768.7,-448.9 H 1674 l -43.8,-225.7 h 49.3 l 11.6,60.1 h 42.1 c 18.6,0 33.9,2 45.9,5.9 12.1,3.9 22.9,10.4 32.7,19.7 8.2,7.6 14.9,16 20,25.1 5.1,9.1 8.7,19.2 10.8,30.2 5.3,26.8 1.2,47.6 -11.8,62.6 -13,14.6 -33.8,22.1 -62.1,22.1 z m 23.1,-81.5 c -3.4,-17.5 -9.9,-29.9 -19.7,-37.5 -9.8,-7.4 -24.5,-11.2 -44.3,-11.2 h -29.9 l 18.4,94.5 h 33.8 c 18.7,0 31.1,-3.4 37.3,-10.4 6.2,-6.8 7.6,-18.7 4.4,-35.4 z"
   id="path2256"
   style="fill:#565f89;fill-opacity:1" />
		</g>
	</g>
</g>
</svg>
