<?xml version="1.0" encoding="UTF-8" standalone="no"?>
<!-- Generator: Adobe Illustrator 25.2.1, SVG Export Plug-In . SVG Version: 6.00 Build 0)  -->

<svg
   version="1.1"
   id="Layer_1"
   x="0px"
   y="0px"
   viewBox="0 0 3840 2160"
   style="enable-background:new 0 0 3840 2160;"
   xml:space="preserve"
   sodipodi:docname="phpstorm.svg"
   inkscape:version="1.1.1 (3bf5ae0d25, 2021-09-20)"
   xmlns:inkscape="http://www.inkscape.org/namespaces/inkscape"
   xmlns:sodipodi="http://sodipodi.sourceforge.net/DTD/sodipodi-0.dtd"
   xmlns="http://www.w3.org/2000/svg"
   xmlns:svg="http://www.w3.org/2000/svg"><defs
   id="defs2916" /><sodipodi:namedview
   id="namedview2914"
   pagecolor="#505050"
   bordercolor="#eeeeee"
   borderopacity="1"
   inkscape:pageshadow="0"
   inkscape:pageopacity="0"
   inkscape:pagecheckerboard="0"
   showgrid="false"
   inkscape:zoom="0.50381358"
   inkscape:cx="1881.6484"
   inkscape:cy="1189.9243"
   inkscape:window-width="1920"
   inkscape:window-height="1060"
   inkscape:window-x="0"
   inkscape:window-y="20"
   inkscape:window-maximized="1"
   inkscape:current-layer="g984" />
<style
   type="text/css"
   id="style2876">
	.st0{fill:#0065A9;}
	.st1{fill:#007ACC;}
	.st2{fill:#1F9CF0;}
	.st3{opacity:0.25;}
	.st4{fill-rule:evenodd;clip-rule:evenodd;fill:url(#SVGID_1_);}
</style>
<rect
   style="fill:#24283b;fill-opacity:1;stroke:#1a1b26;stroke-width:6.79166"
   id="rect3113"
   width="3833.2085"
   height="2153.2083"
   x="3.3958299"
   y="3.3958299" />
<g
   id="g996"
   transform="matrix(8.8383886,0,0,10.289332,1610.6564,719.87338)">
	<g
   id="g984">
		<linearGradient
   id="SVGID_1_-6"
   gradientUnits="userSpaceOnUse"
   x1="0.55800003"
   y1="46.845699"
   x2="29.9473"
   y2="8.0256004">
			<stop
   offset="1.612903e-002"
   style="stop-color:#765AF8"
   id="stop942" />
			<stop
   offset="0.3821"
   style="stop-color:#B345F1"
   id="stop944" />
			<stop
   offset="0.7581"
   style="stop-color:#FA3293"
   id="stop946" />
			<stop
   offset="0.9409"
   style="stop-color:#FF318C"
   id="stop948" />
		</linearGradient>
		<polygon
   style="fill:#f7768e;fill-opacity:1"
   points="0,13.5 37.2,32.5 39.6,15.2 36.3,5.2 11.9,0 "
   id="polygon951" />
		<linearGradient
   id="SVGID_2_"
   gradientUnits="userSpaceOnUse"
   x1="2.7297001"
   y1="48.378799"
   x2="32.071899"
   y2="9.6209002">
			<stop
   offset="1.612903e-002"
   style="stop-color:#765AF8"
   id="stop953" />
			<stop
   offset="0.3821"
   style="stop-color:#B345F1"
   id="stop955" />
			<stop
   offset="0.7581"
   style="stop-color:#FA3293"
   id="stop957" />
			<stop
   offset="0.9409"
   style="stop-color:#FF318C"
   id="stop959" />
		</linearGradient>
		<polygon
   style="display:inline;fill:#f7768e;fill-opacity:1"
   points="27.3,20.6 0,13.5 6.7,53.6 28,53.4 28,41.4 "
   id="polygon962" />
		<linearGradient
   id="SVGID_3_"
   gradientUnits="userSpaceOnUse"
   x1="50.8568"
   y1="46.404999"
   x2="34.273899"
   y2="7.0481">
			<stop
   offset="0.1828"
   style="stop-color:#765AF8"
   id="stop964" />
			<stop
   offset="0.2382"
   style="stop-color:#8655F6"
   id="stop966" />
			<stop
   offset="0.3449"
   style="stop-color:#9F4CF3"
   id="stop968" />
			<stop
   offset="0.4425"
   style="stop-color:#AE47F2"
   id="stop970" />
			<stop
   offset="0.5219"
   style="stop-color:#B345F1"
   id="stop972" />
		</linearGradient>
		<polygon
   style="fill:#bb9af7;fill-opacity:1"
   points="70,30.1 60.5,39.5 45,37 35.4,47.1 22.1,41 23.4,24.5 43.2,4.2 60.9,7.4 "
   id="polygon975" />
		<linearGradient
   id="SVGID_4_"
   gradientUnits="userSpaceOnUse"
   x1="63.265598"
   y1="57.338799"
   x2="24.697701"
   y2="27.5158">
			<stop
   offset="1.612903e-002"
   style="stop-color:#765AF8"
   id="stop977" />
			<stop
   offset="0.3821"
   style="stop-color:#B345F1"
   id="stop979" />
		</linearGradient>
		<polygon
   style="fill:#bb9af7;fill-opacity:1"
   points="43.9,70 70,54.4 43.2,4.2 14.8,29.4 20.3,61.8 "
   id="polygon982" />
	</g>
	<g
   id="g994">
		<rect
   x="13.4"
   y="13.4"
   style="fill:#414868;fill-opacity:1"
   width="43.200001"
   height="43.200001"
   id="rect986" />
		
		
		<g
   id="g1196"><rect
     x="17.5"
     y="48.5"
     style="fill:#ffffff"
     width="16.200001"
     height="2.7"
     id="rect988" /><path
     style="fill:#ffffff"
     d="m 17.3,19 h 7.3 c 4.3,0 6.9,2.5 6.9,6.2 v 0.1 c 0,4.2 -3.2,6.3 -7.3,6.3 h -3 V 37 h -3.9 z m 7.1,9 c 2,0 3.1,-1.2 3.1,-2.7 v -0.1 c 0,-1.8 -1.2,-2.7 -3.2,-2.7 h -3 V 28 Z"
     id="path990" /><path
     style="fill:#ffffff"
     d="m 32.5,34.4 2.3,-2.8 c 1.6,1.3 3.3,2.2 5.4,2.2 1.6,0 2.6,-0.6 2.6,-1.7 V 32 c 0,-1 -0.6,-1.5 -3.6,-2.3 -3.6,-0.9 -6,-1.9 -6,-5.5 v -0.1 c 0,-3.3 2.6,-5.4 6.3,-5.4 2.6,0 4.9,0.8 6.7,2.3 l -2.1,3 c -1.6,-1.1 -3.2,-1.8 -4.7,-1.8 -1.5,0 -2.3,0.7 -2.3,1.6 v 0.1 c 0,1.2 0.8,1.6 3.9,2.4 3.6,1 5.7,2.3 5.7,5.4 v 0.1 c 0,3.6 -2.7,5.6 -6.6,5.6 -2.7,-0.1 -5.4,-1.1 -7.6,-3"
     id="path992" /></g>
	</g>
</g></svg>
