<?xml version="1.0" encoding="UTF-8" standalone="no"?>
<!-- Generator: Adobe Illustrator 25.2.1, SVG Export Plug-In . SVG Version: 6.00 Build 0)  -->

<svg
   version="1.1"
   id="Layer_1"
   x="0px"
   y="0px"
   viewBox="0 0 3840 2160"
   style="enable-background:new 0 0 3840 2160;"
   xml:space="preserve"
   sodipodi:docname="pycharm.svg"
   inkscape:version="1.1.1 (3bf5ae0d25, 2021-09-20)"
   xmlns:inkscape="http://www.inkscape.org/namespaces/inkscape"
   xmlns:sodipodi="http://sodipodi.sourceforge.net/DTD/sodipodi-0.dtd"
   xmlns="http://www.w3.org/2000/svg"
   xmlns:svg="http://www.w3.org/2000/svg"><defs
   id="defs2916" /><sodipodi:namedview
   id="namedview2914"
   pagecolor="#505050"
   bordercolor="#eeeeee"
   borderopacity="1"
   inkscape:pageshadow="0"
   inkscape:pageopacity="0"
   inkscape:pagecheckerboard="0"
   showgrid="false"
   inkscape:zoom="0.7125"
   inkscape:cx="1908.7719"
   inkscape:cy="1119.2983"
   inkscape:window-width="1920"
   inkscape:window-height="1060"
   inkscape:window-x="0"
   inkscape:window-y="20"
   inkscape:window-maximized="1"
   inkscape:current-layer="Layer_1" />
<style
   type="text/css"
   id="style2876">
	.st0{fill:#0065A9;}
	.st1{fill:#007ACC;}
	.st2{fill:#1F9CF0;}
	.st3{opacity:0.25;}
	.st4{fill-rule:evenodd;clip-rule:evenodd;fill:url(#SVGID_1_);}
</style>
<rect
   style="fill:#24283b;fill-opacity:1;stroke:#1a1b26;stroke-width:6.79166"
   id="rect3113"
   width="3833.2085"
   height="2153.2083"
   x="3.3958299"
   y="3.3958299" />
<g
   id="g1170"
   transform="matrix(10.166162,0,0,10.166162,1564.1843,724.18433)">
	<g
   id="g1158">
		<linearGradient
   id="SVGID_1_-6"
   gradientUnits="userSpaceOnUse"
   x1="24.998501"
   y1="27.046101"
   x2="66.656502"
   y2="27.046101">
			<stop
   offset="0"
   style="stop-color:#21D789"
   id="stop1069" />
			<stop
   offset="1"
   style="stop-color:#07C3F2"
   id="stop1071" />
		</linearGradient>
		<polygon
   style="fill:#2ac3de;fill-opacity:1"
   points="62.2,43 49.8,39.6 39.2,39.6 49.1,11 69.5,28.1 "
   id="polygon1074" />
		<linearGradient
   id="SVGID_2_"
   gradientUnits="userSpaceOnUse"
   x1="-24.559401"
   y1="59.080601"
   x2="61.219601"
   y2="-4.2413001">
			<stop
   offset="1.075269e-002"
   style="stop-color:#FCF84A"
   id="stop1076" />
			<stop
   offset="0.1116"
   style="stop-color:#A7EB62"
   id="stop1078" />
			<stop
   offset="0.2056"
   style="stop-color:#5FE077"
   id="stop1080" />
			<stop
   offset="0.2727"
   style="stop-color:#32DA84"
   id="stop1082" />
			<stop
   offset="0.3065"
   style="stop-color:#21D789"
   id="stop1084" />
			<stop
   offset="0.5768"
   style="stop-color:#21D789"
   id="stop1086" />
			<stop
   offset="0.5968"
   style="stop-color:#21D789"
   id="stop1088" />
			<stop
   offset="0.686"
   style="stop-color:#20D68C"
   id="stop1090" />
			<stop
   offset="0.7627"
   style="stop-color:#1ED497"
   id="stop1092" />
			<stop
   offset="0.8348"
   style="stop-color:#19D1A9"
   id="stop1094" />
			<stop
   offset="0.904"
   style="stop-color:#13CCC2"
   id="stop1096" />
			<stop
   offset="0.9707"
   style="stop-color:#0BC6E1"
   id="stop1098" />
			<stop
   offset="1"
   style="stop-color:#07C3F2"
   id="stop1100" />
		</linearGradient>
		<polygon
   style="fill:#73daca;fill-opacity:1"
   points="24.5,43 24.1,50.2 14.2,54.5 0,56 4.3,10.7 29.9,0 45.7,10.4 28.5,22.1 "
   id="polygon1103" />
		<linearGradient
   id="SVGID_3_"
   gradientUnits="userSpaceOnUse"
   x1="9.3301001"
   y1="77.653603"
   x2="23.6369"
   y2="32.7598">
			<stop
   offset="0"
   style="stop-color:#21D789"
   id="stop1105" />
			<stop
   offset="0.1638"
   style="stop-color:#24D788"
   id="stop1107" />
			<stop
   offset="0.3047"
   style="stop-color:#2FD886"
   id="stop1109" />
			<stop
   offset="0.4371"
   style="stop-color:#41DA82"
   id="stop1111" />
			<stop
   offset="0.5644"
   style="stop-color:#5ADC7D"
   id="stop1113" />
			<stop
   offset="0.6881"
   style="stop-color:#7AE077"
   id="stop1115" />
			<stop
   offset="0.809"
   style="stop-color:#A1E36E"
   id="stop1117" />
			<stop
   offset="0.9254"
   style="stop-color:#CFE865"
   id="stop1119" />
			<stop
   offset="1"
   style="stop-color:#F1EB5E"
   id="stop1121" />
		</linearGradient>
		<polygon
   style="fill:#9ece6a;fill-opacity:1"
   points="24,70 0,56 19.7,26.6 28.5,22.1 30.4,62.5 "
   id="polygon1124" />
		<linearGradient
   id="SVGID_4_"
   gradientUnits="userSpaceOnUse"
   x1="28.275299"
   y1="38.6231"
   x2="59.408798"
   y2="-3.2358">
			<stop
   offset="0"
   style="stop-color:#21D789"
   id="stop1126" />
			<stop
   offset="6.081050e-002"
   style="stop-color:#24D788"
   id="stop1128" />
			<stop
   offset="0.1131"
   style="stop-color:#2FD886"
   id="stop1130" />
			<stop
   offset="0.1622"
   style="stop-color:#41DA82"
   id="stop1132" />
			<stop
   offset="0.2094"
   style="stop-color:#5ADD7D"
   id="stop1134" />
			<stop
   offset="0.2548"
   style="stop-color:#79E077"
   id="stop1136" />
			<stop
   offset="0.2581"
   style="stop-color:#7CE076"
   id="stop1138" />
			<stop
   offset="0.4986"
   style="stop-color:#8CE173"
   id="stop1140" />
			<stop
   offset="0.9247"
   style="stop-color:#B2E56B"
   id="stop1142" />
		</linearGradient>
		<polygon
   style="fill:#9ece6a;fill-opacity:1"
   points="52.1,0 54.9,19.1 30.6,19.1 "
   id="polygon1145" />
		<linearGradient
   id="SVGID_5_"
   gradientUnits="userSpaceOnUse"
   x1="75.889297"
   y1="43.9496"
   x2="13.1579"
   y2="43.368698">
			<stop
   offset="0.3871"
   style="stop-color:#FCF84A"
   id="stop1147" />
			<stop
   offset="0.5358"
   style="stop-color:#ECF451"
   id="stop1149" />
			<stop
   offset="0.8259"
   style="stop-color:#C2E964"
   id="stop1151" />
			<stop
   offset="0.9247"
   style="stop-color:#B2E56B"
   id="stop1153" />
		</linearGradient>
		<polygon
   style="fill:#e0af68;fill-opacity:1"
   points="48.6,69.9 20.2,61.9 28.5,22.1 31.8,19.1 49.1,17.5 47.5,34.9 61.3,29.6 70,62.6 "
   id="polygon1156" />
	</g>
	<g
   id="g1168">
		<rect
   x="13.4"
   y="13.4"
   style="fill:#414868;fill-opacity:1"
   width="43.200001"
   height="43.200001"
   id="rect1160" />
		
		
		<g
   id="g1474"><rect
     x="17.5"
     y="48.5"
     style="fill:#ffffff"
     width="16.200001"
     height="2.7"
     id="rect1162" /><path
     style="fill:#ffffff"
     d="m 17.3,19.1 h 7.3 c 4.3,0 6.9,2.5 6.9,6.2 v 0.1 c 0,4.1 -3.2,6.3 -7.2,6.3 h -3 V 37 H 17.4 V 19.1 Z m 7.1,9 c 2,0 3.1,-1.2 3.1,-2.7 v -0.1 c 0,-1.8 -1.2,-2.7 -3.2,-2.7 h -3 v 5.5 z"
     id="path1164" /><path
     style="fill:#ffffff"
     d="m 33.1,28.1 v 0 c 0,-5.1 3.8,-9.3 9.3,-9.3 3.4,0 5.4,1.1 7.1,2.8 L 47,24.5 c -1.4,-1.3 -2.8,-2 -4.6,-2 -3,0 -5.2,2.5 -5.2,5.6 V 28 c 0,3.1 2.1,5.6 5.2,5.6 2,0 3.3,-0.8 4.7,-2.1 l 2.5,2.5 c -1.8,2 -3.9,3.2 -7.3,3.2 -5.3,0.1 -9.2,-4 -9.2,-9.1"
     id="path1166" /></g>
	</g>
</g></svg>
