<?xml version="1.0" encoding="UTF-8" standalone="no"?>
<!-- Generator: Adobe Illustrator 25.2.1, SVG Export Plug-In . SVG Version: 6.00 Build 0)  -->

<svg
   version="1.1"
   id="Layer_1"
   x="0px"
   y="0px"
   viewBox="0 0 3840 2160"
   style="enable-background:new 0 0 3840 2160;"
   xml:space="preserve"
   sodipodi:docname="python-no-text.svg"
   inkscape:version="1.1.1 (3bf5ae0d25, 2021-09-20)"
   xmlns:inkscape="http://www.inkscape.org/namespaces/inkscape"
   xmlns:sodipodi="http://sodipodi.sourceforge.net/DTD/sodipodi-0.dtd"
   xmlns="http://www.w3.org/2000/svg"
   xmlns:svg="http://www.w3.org/2000/svg"><defs
   id="defs2344" /><sodipodi:namedview
   id="namedview2342"
   pagecolor="#505050"
   bordercolor="#eeeeee"
   borderopacity="1"
   inkscape:pageshadow="0"
   inkscape:pageopacity="0"
   inkscape:pagecheckerboard="0"
   showgrid="false"
   inkscape:zoom="0.35625"
   inkscape:cx="696.14035"
   inkscape:cy="1079.2982"
   inkscape:window-width="1920"
   inkscape:window-height="1060"
   inkscape:window-x="0"
   inkscape:window-y="20"
   inkscape:window-maximized="1"
   inkscape:current-layer="Layer_1" />
<style
   type="text/css"
   id="style2325">
	.st0{fill:url(#path8620_1_);}
	.st1{fill:url(#path8615_1_);}
</style>
<rect
   style="fill:#24283b;fill-opacity:1;stroke:#1a1b26;stroke-width:6.79166"
   id="rect3113"
   width="3833.2085"
   height="2153.2083"
   x="3.3958299"
   y="3.3958299" /><g
   id="g2339">
	
		<linearGradient
   id="path8620_1_"
   gradientUnits="userSpaceOnUse"
   x1="1894.6194"
   y1="3131.5486"
   x2="2261.7917"
   y2="3483.3186"
   gradientTransform="translate(-44.9375,-2115.4688)">
		<stop
   offset="0"
   style="stop-color:#FFE052"
   id="stop2327" />
		<stop
   offset="1"
   style="stop-color:#FFC331"
   id="stop2329" />
	</linearGradient>
	<path
   id="path8620"
   class="st0"
   d="m 1922.5,1423.8 c 175.3,0 164.7,-76.4 164.7,-76.4 v -78.9 h -167.8 v -23.8 h 234.2 c 0,0 112.1,12.5 112.1,-164.7 0,-177.2 -98.3,-170.9 -98.3,-170.9 h -58.2 v 82 c 0,0 3.1,98.3 -96.4,98.3 -99.6,0 -165.9,0 -165.9,0 0,0 -93.3,-0.6 -93.3,91.4 0,91.4 0,151.5 0,151.5 0,0 -14.6,91.5 168.9,91.5 z m 92.7,-52.6 c -16.9,0 -30.1,-13.8 -30.1,-30.1 0,-16.3 13.8,-30.1 30.1,-30.1 16.3,0 30.1,13.8 30.1,30.1 0,16.3 -13.8,30.1 -30.1,30.1 z"
   style="fill:#e0af68;fill-opacity:1" />
	
		<linearGradient
   id="path8615_1_"
   gradientUnits="userSpaceOnUse"
   x1="1684.1083"
   y1="2913.4749"
   x2="2025.981"
   y2="3256.4915"
   gradientTransform="translate(-44.9375,-2115.4688)">
		<stop
   offset="0"
   style="stop-color:#387EB8"
   id="stop2333" />
		<stop
   offset="1"
   style="stop-color:#366994"
   id="stop2335" />
	</linearGradient>
	<path
   id="path8615"
   class="st1"
   d="m 1917.5,736.2 c -175.3,0 -164.7,76.4 -164.7,76.4 v 78.9 h 167.8 v 23.8 h -234.2 c 0,0 -112.1,-12.5 -112.1,164 0,177.2 98.3,170.9 98.3,170.9 h 58.2 v -82.7 c 0,0 -3.1,-98.3 96.4,-98.3 99.6,0 165.9,0 165.9,0 0,0 93.3,1.3 93.3,-90.2 0,-91.5 0,-151.5 0,-151.5 0,0 14.6,-91.3 -168.9,-91.3 z m -92,53.3 c 16.9,0 30.1,13.8 30.1,30.1 0,16.3 -13.8,30.1 -30.1,30.1 -16.3,0 -30.1,-13.8 -30.1,-30.1 0,-16.3 13.1,-30.1 30.1,-30.1 z"
   style="fill:#7aa2f7;fill-opacity:1" />
</g>
</svg>
