<?xml version="1.0" encoding="UTF-8" standalone="no"?>
<!-- Generator: Adobe Illustrator 25.2.1, SVG Export Plug-In . SVG Version: 6.00 Build 0)  -->

<svg
   version="1.1"
   id="Layer_1"
   x="0px"
   y="0px"
   viewBox="0 0 3840 2160"
   style="enable-background:new 0 0 3840 2160;"
   xml:space="preserve"
   sodipodi:docname="ruby.svg"
   inkscape:version="1.1.1 (3bf5ae0d25, 2021-09-20)"
   xmlns:inkscape="http://www.inkscape.org/namespaces/inkscape"
   xmlns:sodipodi="http://sodipodi.sourceforge.net/DTD/sodipodi-0.dtd"
   xmlns="http://www.w3.org/2000/svg"
   xmlns:svg="http://www.w3.org/2000/svg"><defs
   id="defs2410" /><sodipodi:namedview
   id="namedview2408"
   pagecolor="#505050"
   bordercolor="#eeeeee"
   borderopacity="1"
   inkscape:pageshadow="0"
   inkscape:pageopacity="0"
   inkscape:pagecheckerboard="0"
   showgrid="false"
   inkscape:zoom="0.35625"
   inkscape:cx="696.14035"
   inkscape:cy="1079.2982"
   inkscape:window-width="1920"
   inkscape:window-height="1060"
   inkscape:window-x="0"
   inkscape:window-y="20"
   inkscape:window-maximized="1"
   inkscape:current-layer="Layer_1" />
<style
   type="text/css"
   id="style2403">
	.st0{fill:#D91404;}
</style>
<rect
   style="fill:#24283b;fill-opacity:1;stroke:#1a1b26;stroke-width:6.79166"
   id="rect3113"
   width="3833.2085"
   height="2153.2083"
   x="3.3958299"
   y="3.3958299" /><path
   class="st0"
   d="M2047.6,1014.3c-88.3,56.8-175.8,113.6-266.1,171c134.8,18.5,266.8,36.3,401.6,54.7  C2137.9,1163.5,2092.8,1088.9,2047.6,1014.3z M2221.4,761.9c-11.6,17.8-23.9,35.6-35.6,53.4c-40.4,61.6-81.4,122.5-121.8,184  c-2.1,3.4-5.5,6.2-2.1,11.6c39,65,78,130,117.7,195c6.2,10.3,12.3,20.5,20.5,30.1l23.9-473.4  C2223.4,762.5,2221.4,761.9,2221.4,761.9z M1685,964.4c2.1,2.1,6.2,2.7,8.9,1.4c37.6-18.5,75.9-36.9,112.2-56.8  c12.3-6.8,21.2-18.5,31.5-28.1c34.2-31.5,68.4-62.9,102.6-94.4c2.1-2.1,4.8-4.1,6.2-6.2c12.3-23.9,24.6-47.9,36.9-73.2  c-15.1-5.5-28.7-10.9-43.1-15.7c-2.1-0.7-4.8,0.7-6.8,2.1c-32.8,18.5-67,36.3-99.2,56.1c-15.7,10.3-29.4,25.3-43.1,37.6  c-22.6,21.2-45.8,41.7-68.4,62.9c-6.2,5.5-11.6,12.3-16.4,19.2c-15.7,22.6-30.1,45.2-45.8,68.4  C1668.6,947.3,1676.8,956.2,1685,964.4z M1823.2,933.6c-18.5,79.4-37.6,158-56.8,239.5c90.3-58.2,178.6-114.9,266.1-171.7  C1962.8,978.7,1893,956.2,1823.2,933.6z M1972.3,800.2L2049,987c49.9-75.3,99.2-149.1,149.1-224.4  C2122.2,775.5,2047.6,787.9,1972.3,800.2z M1825.9,917.2c68.4,22.6,136.2,44.5,205.3,66.4c-26-62.9-50.6-123.2-75.9-184.7  L1825.9,917.2z M1687.7,1010.2l-71.8,171.7c45.8-1.4,91-2.7,136.8-4.1C1731.5,1122.4,1710.3,1067.7,1687.7,1010.2z M1754.8,1138.2  l1.4-0.7c16.4-68.4,32.8-136.2,49.9-207.3c-37.6,19.2-73.2,38.3-109.5,56.8C1715.1,1036.2,1734.9,1087.5,1754.8,1138.2z   M2170.7,751.6c-21.9-5.5-43.8-11.6-65.7-17.1c-31.5-8.2-62.9-16.4-94.4-24.6c-4.1-1.4-6.8-2.1-8.9,2.7  c-10.9,22.6-22.6,45.2-33.5,67.7c-0.7,0.7,0,1.4-0.7,3.4c67.7-10.3,135.5-20.5,203.2-30.8V751.6z M2044.2,699.6  c58.8,16.4,117.7,32.2,177.9,49.3l-29.4-84.2c-49.9,11.6-99.2,22.6-148.5,33.5V699.6z M2098.2,1242.8l-146.4-19.8  c-60.9-8.2-121.1-17.1-182-24.6c-21.9-2.7-44.5,0-67,0c-18.5,0-36.9,0.7-55.4,1.4c-2.1,0-4.1,0.7-5.5,2.7  c151.9,14.4,303.8,28.1,455.7,42.4C2097.5,1244.9,2098.2,1242.8,2098.2,1242.8z M1619.3,1129.9c19.8-45.2,39-91,58.8-136.2  c2.1-4.8,2.1-7.5-2.1-11.6c-8.2-7.5-15.7-16.4-24.6-25.3l-35.6,177.2l1.4,0.7C1617.3,1132.7,1618.6,1131.3,1619.3,1129.9z   M2005.2,688c32.8-8.2,66.4-15.1,99.9-22.6c2.1-0.7,4.1-1.4,6.2-2.1V662l-143,19.2C1981.2,687.3,1991.5,691.4,2005.2,688z   M1695.2,1388.6v58.2h-32.2v-151.9h44.5c20.5,0,36.3,4.1,45.8,11.6c9.6,7.5,15.1,19.2,15.1,34.2c0,8.9-2.7,17.1-7.5,23.9  s-11.6,12.3-21.2,16.4l44.5,66.4h-35.6l-36.3-58.2L1695.2,1388.6L1695.2,1388.6z M1695.2,1362.6h10.3c10.3,0,17.8-1.4,22.6-4.8  s7.5-8.9,7.5-15.7c0-7.5-2.7-12.3-7.5-15.7c-4.8-2.7-13-4.8-23.3-4.8h-9.6V1362.6L1695.2,1362.6z M1884.1,1447.4l-4.1-15.1h-1.4  c-3.4,5.5-8.2,9.6-14.4,12.3c-6.2,2.7-13.7,4.1-21.2,4.1c-13.7,0-23.9-3.4-30.8-10.9c-6.8-7.5-10.3-17.8-10.3-31.5v-75.9h30.1v67.7  c0,8.2,1.4,15.1,4.8,19.2c2.7,4.1,7.5,6.2,14.4,6.2c8.9,0,15.1-2.7,19.2-8.9c4.1-6.2,6.2-15.7,6.2-29.4v-54.7h31.5v116.3  L1884.1,1447.4L1884.1,1447.4z M2006.5,1328.4c13.7,0,24.6,5.5,32.2,16.4c7.5,10.9,11.6,25.3,11.6,44.5c0,19.2-4.1,34.2-12.3,44.5  s-19.2,15.7-32.8,15.7c-13.7,0-24.6-4.8-32.2-15.1h-2.1l-5.5,13h-23.9v-162.1h31.5v37.6c0,4.8-0.7,12.3-1.4,23.3h1.4  C1980.5,1334.5,1991.5,1328.4,2006.5,1328.4L2006.5,1328.4z M1996.3,1353.7c-7.5,0-13.7,2.7-17.1,7.5c-3.4,4.8-5.5,13-5.5,23.9v3.4  c0,12.3,2.1,21.2,5.5,26.7c3.4,5.5,9.6,8.2,17.8,8.2c6.8,0,11.6-2.7,15.7-8.9c4.1-6.2,5.5-15.1,5.5-26c0-10.9-2.1-19.8-6.2-26  C2007.9,1357.1,2003.1,1353.7,1996.3,1353.7z M2057.9,1330.4h34.9l21.9,65.7c2.1,5.5,3.4,12.3,4.1,20.5h0.7  c0.7-6.8,2.1-13.7,4.8-20.5l21.9-65.7h34.2l-49.3,131.4c-4.8,12.3-10.9,21.2-19.2,27.4c-8.2,6.2-18.5,8.9-29.4,8.9  c-5.5,0-10.9-0.7-16.4-2.1v-25.3c4.1,0.7,8.2,1.4,12.3,1.4c5.5,0,10.3-2.1,15.1-5.5c4.1-3.4,7.5-8.9,9.6-15.7l2.1-5.5  C2104.4,1446,2057.9,1330.4,2057.9,1330.4z"
   id="path2405"
   style="fill:#f7768e;fill-opacity:1" />
</svg>
