<?xml version="1.0" encoding="UTF-8" standalone="no"?>
<!-- Generator: Adobe Illustrator 25.2.1, SVG Export Plug-In . SVG Version: 6.00 Build 0)  -->

<svg
   version="1.1"
   id="Layer_1"
   x="0px"
   y="0px"
   viewBox="0 0 3840 2160"
   style="enable-background:new 0 0 3840 2160;"
   xml:space="preserve"
   sodipodi:docname="rust.svg"
   inkscape:version="1.1.1 (3bf5ae0d25, 2021-09-20)"
   xmlns:inkscape="http://www.inkscape.org/namespaces/inkscape"
   xmlns:sodipodi="http://sodipodi.sourceforge.net/DTD/sodipodi-0.dtd"
   xmlns="http://www.w3.org/2000/svg"
   xmlns:svg="http://www.w3.org/2000/svg"><defs
   id="defs2474" /><sodipodi:namedview
   id="namedview2472"
   pagecolor="#505050"
   bordercolor="#eeeeee"
   borderopacity="1"
   inkscape:pageshadow="0"
   inkscape:pageopacity="0"
   inkscape:pagecheckerboard="0"
   showgrid="false"
   inkscape:zoom="0.35625"
   inkscape:cx="1308.0702"
   inkscape:cy="1079.2982"
   inkscape:window-width="1920"
   inkscape:window-height="1060"
   inkscape:window-x="0"
   inkscape:window-y="20"
   inkscape:window-maximized="1"
   inkscape:current-layer="Layer_1" />
<rect
   style="fill:#24283b;fill-opacity:1;stroke:#1a1b26;stroke-width:6.79166"
   id="rect3113"
   width="3833.2085"
   height="2153.2083"
   x="3.3958299"
   y="3.3958299" /><path
   d="M2265.6,1071.6l-29.6-18.2c-0.5-3-0.5-5.9-1-8.4l25.1-23.7c2.5-2.5,3.9-5.9,3-9.4c-0.5-3.4-3-6.4-6.4-7.4l-32.5-11.8  c-1-3-1.5-5.4-2.5-8.4l20.2-28.1c2-3,2.5-6.4,1-9.9s-4.4-5.4-7.9-5.9l-34-5.4c-1.5-2.5-2.5-4.9-3.9-7.4l14.3-31.5c1.5-3,1-6.9-1-9.9  s-5.4-4.4-8.9-4.4l-34.5,1c-2-2.5-3.4-4.4-5.4-6.4l7.9-33.5c1-3.4,0-6.9-2.5-9.4c-2.5-2.5-5.9-3.4-9.4-2.5l-33.5,7.9  c-2-2-4.4-3.4-6.4-5.4l1-34.5c0-3.4-1.5-6.9-4.4-8.9c-3-2-6.4-2.5-9.9-1l-31.5,14.3c-2.5-1.5-4.9-3-7.4-3.9l-4.9-35  c-0.5-3.4-3-6.4-5.9-7.9c-3.4-1.5-6.9-1-9.9,1l-28.1,20.2c-3-1-5.4-1.5-8.4-2.5l-11.8-32c-1-3.4-3.9-5.9-7.4-6.4  c-3.4-0.5-6.9,0.5-9.4,3l-24.1,25.1c-3-0.5-5.9-0.5-8.4-1l-18.2-29.6c-2-3-4.9-4.9-8.9-4.9c-3.4,0-6.9,2-8.4,4.9l-18.2,29.6  c-3,0-5.9,0.5-8.4,1l-23.7-25.1c-2.5-2.5-5.9-3.9-9.4-3c-3.4,0.5-6.4,3-7.4,6.4l-11.8,32.5c-3,1-5.4,1.5-8.4,2.5l-28.1-20.2  c-3-2-6.4-2.5-9.9-1c-3.4,1.5-5.4,4.4-5.9,7.9l-5.9,33.5c-2.5,1.5-4.9,2.5-7.4,3.9l-31.5-14.3c-3-1.5-6.9-1-9.9,1  c-3,2-4.4,5.4-4.4,8.9l1,34.5c-2.5,2-4.4,3.4-6.4,5.4l-33.5-7.9c-3.4-1-6.9,0-9.4,2.5s-3.4,5.9-2.5,9.4l7.9,33.5  c-2,2-3.4,4.4-5.4,6.4l-34.5-1c-3.4,0-6.9,1.5-8.9,4.4c-2,3-2.5,6.4-1,9.9l14.3,31.5c-1.5,2.5-3,4.9-3.9,7.4l-34,5.4  c-3.4,0.5-6.4,3-7.9,5.9c-1.5,3.4-1,6.9,1,9.9l20.2,28.1c-1,3-2,5.4-2.5,8.4l-32.5,11.8c-3.4,1-5.9,3.9-6.4,7.4  c-1,4.4,0.5,7.9,3,10.3l25.1,23.7c-0.5,3-0.5,5.9-1,8.4l-29.6,18.2c-3,2-4.9,4.9-4.9,8.9c0,3.9,2,6.9,4.9,8.4l29.6,18.2  c0,3,0.5,5.9,1,8.4l-25.1,23.7c-2.5,2.5-3.9,5.9-3,9.4c0.5,3.4,3,6.4,6.4,7.4l32.5,11.8c1,3,1.5,5.4,2.5,8.4l-20.2,28.1  c-2,3-2.5,6.4-1,9.9s4.4,5.4,7.9,5.9l34,5.4c1.5,2.5,2.5,4.9,3.9,7.4l-14.3,31.5c-1.5,3-1,6.9,1,9.9c2,3,5.4,4.4,8.9,4.4l34.5-1  c2,2.5,3.4,4.4,5.4,6.4l-7.9,33.5c-1,3.4,0,6.9,2.5,9.4s5.9,3.4,9.4,2.5l33.5-7.9c2,2,4.4,3.4,6.4,5.4l-1,34.5  c0,3.4,1.5,6.9,4.4,8.9c3,2,6.4,2.5,9.9,1l31.5-14.3c2.5,1.5,4.9,3,7.4,3.9l5.4,34c0.5,3.4,3,6.4,5.9,7.9c3.4,1.5,6.9,1,9.9-1  l28.1-20.2c3,1,5.4,2,8.4,2.5l11.8,32.5c1,3.4,3.9,5.9,7.4,6.4s6.9-0.5,9.4-3l23.7-25.1c3,0.5,5.9,0.5,8.4,1l18.2,29.6  c2,3,4.9,4.9,8.4,4.9s6.9-2,8.9-4.9l18.2-29.6c3-0.5,5.9-0.5,8.4-1l23.7,25.1c2.5,2.5,5.9,3.9,9.4,3c3.4-0.5,6.4-3,7.4-6.4  l11.8-32.5c3-1,5.4-1.5,8.4-2.5l28.1,20.2c3,2,6.4,2.5,9.9,1c3.4-1.5,5.4-4.4,5.9-7.9l5.4-34c2.5-1.5,4.9-3,7.4-3.9l31.5,14.3  c3,1.5,6.9,1,9.9-1c3-2,4.4-5.4,4.4-8.9l-1-34.5c2.5-2,4.4-3.4,6.4-5.4l33.5,7.9c3.4,1,6.9,0,9.4-2.5c2.5-2.5,3.4-5.9,2.5-9.4  l-7.9-33.5c2-2,3.4-4.4,5.4-6.4l34.5,1c3.4,0,6.9-1.5,8.9-4.4c2-3,2.5-6.4,1-9.9l-14.3-31.5c1.5-2.5,3-4.9,3.9-7.4l34-5.4  c3.4-0.5,6.4-3,7.9-5.9c1.5-3.4,1-6.9-1-9.9l-20.2-28.1c1-3,1.5-5.4,2.5-8.4l32.5-11.8c3.4-1,5.9-3.9,6.4-7.4s-0.5-6.9-3-9.4  l-25.1-23.7c0.5-3,0.5-5.9,1-8.4l29.6-18.2c3-2,4.9-4.9,4.9-8.4C2271,1077,2269.1,1073.6,2265.6,1071.6L2265.6,1071.6z M2069,1316.1  c-11.3-2.5-18.2-13.3-15.8-24.6c2.5-11.3,13.3-18.2,24.6-15.8c11.3,2.5,18.2,13.3,15.8,24.6  C2091.1,1311.6,2080.3,1318.5,2069,1316.1L2069,1316.1z M2059.1,1248.6c-10.3-2-20.2,4.4-22.7,14.8l-10.3,48.8  c-32,14.8-68.5,22.7-106,22.7c-38.4,0-74.9-8.4-107.9-23.7l-10.3-48.8c-2-10.3-12.3-16.8-22.7-14.8l-42.9,9.4  c-7.9-8.4-15.3-17.2-22.2-26.1h209.5c2.5,0,3.9-0.5,3.9-2.5v-74.9c0-2-1.5-2.5-3.9-2.5h-61.1v-46.8h66c5.9,0,32.5,2,40.9,35.5  c2.5,10.3,8.4,43.9,12.3,54.7c3.9,11.8,19.7,36,37,36h104.5c1,0,2.5,0,3.9-0.5c-7.4,9.9-15.3,19.2-23.7,28.1L2059.1,1248.6  L2059.1,1248.6z M1769.3,1315.1c-11.3,2.5-22.2-4.9-24.6-15.8c-2.5-11.3,4.9-22.2,15.8-24.6c11.3-2.5,22.2,4.9,24.6,15.8  C1787.5,1301.8,1780.2,1312.6,1769.3,1315.1z M1689.5,993.3c4.4,10.3,0,22.7-10.3,27.6c-10.3,4.4-22.7,0-27.6-10.3  c-4.9-10.3,0-22.7,10.3-27.6C1672.7,978,1684.5,982.4,1689.5,993.3z M1664.8,1050.9l44.8-19.7c9.4-4.4,13.8-15.3,9.9-25.1l-9.4-20.7  h36.5v163.1h-72.9c-6.4-22.2-9.9-45.8-9.9-70.5C1663.8,1068.7,1664.3,1059.8,1664.8,1050.9L1664.8,1050.9z M1862,1035.2v-48.3h86.2  c4.4,0,31.5,4.9,31.5,25.1c0,16.8-20.7,22.7-37.9,22.7H1862V1035.2z M2175.9,1078.5c0,6.4,0,12.8-0.5,19.2h-26.1  c-2.5,0-3.4,2-3.4,4.4v11.8c0,28.6-15.8,34.5-30.1,36c-13.3,1.5-28.1-5.4-30.1-13.8c-7.9-44.4-21.2-53.7-41.9-70.5  c25.6-16.3,52.7-40.4,52.7-72.9c0-35-23.7-56.7-40.4-67.5c-22.7-15.3-48.3-18.2-55.2-18.2h-272.1c37-40.9,87.2-70.5,143.4-80.8  l32,33.5c7.4,7.4,19.2,7.9,26.6,0.5l36-34.5c74.9,13.8,138.5,60.6,175.5,125.2l-24.6,55.2c-4.4,9.4,0,20.7,9.9,25.1l47.3,21.2  C2175.4,1061.3,2175.9,1069.7,2175.9,1078.5L2175.9,1078.5z M1903.9,798.1c8.4-7.9,21.7-7.4,29.6,0.5c7.9,8.4,7.4,21.7-0.5,29.6  c-8.4,7.9-21.7,7.4-29.6-0.5C1895.5,819.3,1895.5,806,1903.9,798.1L1903.9,798.1z M2147.8,994.2c4.4-10.3,16.8-15.3,27.6-10.3  c10.3,4.4,15.3,17.2,10.3,27.6c-4.4,10.3-16.8,15.3-27.6,10.3C2147.8,1016.9,2142.9,1004.6,2147.8,994.2z"
   id="path2469"
   style="fill:#a9b1d6;fill-opacity:1" />
</svg>
