<?xml version="1.0" encoding="UTF-8" standalone="no"?>
<!-- Generator: Adobe Illustrator 25.2.1, SVG Export Plug-In . SVG Version: 6.00 Build 0)  -->

<svg
   version="1.1"
   id="Layer_1"
   x="0px"
   y="0px"
   viewBox="0 0 3840 2160"
   style="enable-background:new 0 0 3840 2160;"
   xml:space="preserve"
   sodipodi:docname="scala.svg"
   inkscape:version="1.1.1 (3bf5ae0d25, 2021-09-20)"
   xmlns:inkscape="http://www.inkscape.org/namespaces/inkscape"
   xmlns:sodipodi="http://sodipodi.sourceforge.net/DTD/sodipodi-0.dtd"
   xmlns="http://www.w3.org/2000/svg"
   xmlns:svg="http://www.w3.org/2000/svg"><defs
   id="defs2564" /><sodipodi:namedview
   id="namedview2562"
   pagecolor="#505050"
   bordercolor="#eeeeee"
   borderopacity="1"
   inkscape:pageshadow="0"
   inkscape:pageopacity="0"
   inkscape:pagecheckerboard="0"
   showgrid="false"
   inkscape:zoom="0.35625"
   inkscape:cx="1799.2982"
   inkscape:cy="1079.2982"
   inkscape:window-width="1920"
   inkscape:window-height="1060"
   inkscape:window-x="0"
   inkscape:window-y="20"
   inkscape:window-maximized="1"
   inkscape:current-layer="Layer_1" />
<style
   type="text/css"
   id="style2533">
	.st0{fill:#380D09;}
	.st1{fill-rule:evenodd;clip-rule:evenodd;fill:#380D09;}
	.st2{fill-rule:evenodd;clip-rule:evenodd;fill:#DE3423;}
</style>
<rect
   style="fill:#24283b;fill-opacity:1;stroke:#1a1b26;stroke-width:6.79166"
   id="rect3113"
   width="3833.2085"
   height="2153.2083"
   x="3.3958299"
   y="3.3958299" /><g
   id="g2559">
	<g
   id="g2545"
   style="fill:#8c4351;fill-opacity:1">
		<path
   class="st0"
   d="m 1678.3,1130.2 c 14.7,29 38.3,43.2 71.5,43.2 35.4,0 48.1,-18.7 48.1,-37.1 0,-12.5 -4.4,-21.1 -16.2,-29 -11.8,-8.1 -20.4,-11.8 -41.5,-19.6 -26,-9.8 -41.3,-17.2 -57.5,-30.2 -16.2,-13.5 -24.1,-31.9 -24.1,-55.7 -0.5,-21.4 8.8,-41.7 25.3,-55.5 17.2,-14.2 37.8,-21.1 62.9,-21.1 38.8,0 68,15.5 87.7,46.2 l -36.6,24.8 c -11,-16.7 -27.7,-25.3 -50.6,-25.3 -22.3,0 -38.8,12.8 -38.8,30.2 0,11.8 4.9,17.4 11.8,24.6 4.4,3.2 16,8.1 21.1,11 l 14.7,5.6 16.7,6.6 c 27,11 46.2,22.8 57.9,35.4 11.8,12.5 17.9,29.7 17.9,51.1 0,50.1 -34.6,84 -99.4,84 -52.5,0 -91.3,-24.6 -109.3,-64.8 z"
   id="path2535"
   style="fill:#8c4351;fill-opacity:1" />
		<path
   class="st0"
   d="m 2055.4,1037.6 -30,31.4 c -13.3,-14.5 -32.4,-22.8 -52.1,-22.3 -16.9,-0.5 -33.4,6.1 -45.2,18.4 -23.8,26 -23.8,66.1 0,92.1 11.8,12 28.2,18.7 45.2,18.4 19.9,0.2 38.8,-7.9 52.1,-22.3 l 30.2,31.4 c -22.1,23.6 -49.4,35.4 -82.3,35.4 -31.4,0 -57.9,-10.1 -79.6,-30.9 -21.7,-20.8 -32.2,-46.9 -32.2,-77.8 0,-30.9 10.6,-56.7 32.2,-77.3 21.6,-20.9 48.1,-31.4 79.6,-31.4 32.8,-0.4 60,11.4 82.1,34.9 z"
   id="path2537"
   style="fill:#8c4351;fill-opacity:1" />
		<path
   class="st0"
   d="m 2152.6,1089 c 34.6,-3.2 46.9,-7.9 46.9,-23.6 0,-12.5 -11.3,-22.3 -34.1,-22.3 -22.1,0 -40.3,8.8 -55,26.8 l -30.2,-25.8 c 19.9,-28 48.1,-42 84.5,-42 51.1,0 82.7,24.6 82.7,66.5 v 90.8 c 0,14.2 5.2,16 17.2,16 h 1.2 v 37.8 c -4.9,2.9 -12.5,4.4 -22.8,4.4 -11,0 -19.6,-3.2 -26,-9.8 -3.4,-3.9 -5.9,-8.6 -7.4,-13.5 -14.2,16.7 -37.6,25.3 -69.7,25.3 -45.2,0 -75.9,-24.8 -75.9,-62.4 -0.2,-41.7 28,-62.8 88.6,-68.2 z m -5.6,89.3 c 32.7,0 52.5,-14.7 52.5,-40.8 v -22.8 c -2.7,2.9 -6.4,4.9 -10.1,6.1 -9.3,3.2 -15.5,4.2 -35.1,6.1 -28.5,3.2 -42.7,12.3 -42.7,26.5 0,15.9 13.1,24.9 35.4,24.9 z"
   id="path2539"
   style="fill:#8c4351;fill-opacity:1" />
		<path
   class="st0"
   d="m 2277.9,930.1 h 48.9 v 216.8 c 0,19.9 6.6,28.5 24.6,28.5 4.9,0.2 9.8,-0.5 14.7,-1.7 v 43.7 c -7.6,2 -15.5,2.7 -23.3,2.5 -43.2,0 -64.8,-22.1 -64.8,-66.5 V 930.1 Z"
   id="path2541"
   style="fill:#8c4351;fill-opacity:1" />
		<path
   class="st0"
   d="m 2466.7,1089 c 34.6,-3.2 46.9,-7.9 46.9,-23.6 0,-12.5 -11.3,-22.3 -34.1,-22.3 -22.1,0 -40.3,8.8 -55,26.8 l -30.2,-25.8 c 19.9,-28 48.1,-42 84.5,-42 51.1,0 82.7,24.6 82.7,66.5 v 90.8 c 0,14.2 5.4,16 17.2,16 h 1.2 v 37.8 c -4.9,2.9 -12.8,4.4 -22.8,4.4 -11,0 -19.6,-3.2 -26,-9.8 -3.4,-3.9 -5.9,-8.3 -7.4,-13.5 -14.2,16.7 -37.6,25.3 -69.7,25.3 -45.2,0 -75.9,-24.8 -75.9,-62.4 -0.3,-41.7 27.7,-62.8 88.6,-68.2 z m -5.9,89.3 c 32.7,0 52.5,-14.7 52.5,-40.8 v -22.8 c -2.9,2.9 -6.4,4.9 -10.3,6.1 -9.3,3.2 -15.5,4.2 -35.1,6.1 -28.5,3.2 -42.7,12.3 -42.7,26.5 0.2,15.9 13.3,24.9 35.6,24.9 z"
   id="path2543"
   style="fill:#8c4351;fill-opacity:1" />
	</g>
	<g
   id="g2557">
		<path
   class="st1"
   d="m 1260.6,1013.3 c 4.7,6.4 43,18.2 99.9,30.4 57.2,11 116.6,54.3 162.8,40.8 31.2,-9.1 65.1,-89.6 65.1,-101.4 v -1.2 c 0,-8.3 -6.4,-15 -16.9,-20.6 -43.7,-22.3 -51.8,-30.4 -68,-26 -83.8,23 -231.8,11.2 -242.9,78 z"
   id="path2547"
   style="fill:#8c4351;fill-opacity:1" />
		<path
   class="st1"
   d="m 1260.6,1176.9 c 4.7,6.4 43,18.2 99.9,30.4 63.8,11.5 119.3,49.6 165.5,36.3 31.2,-9.1 62.4,-85 62.4,-97 v -1.2 c 0,-8.3 -6.4,-15 -16.9,-20.6 -33.1,-17.7 -77.1,-37.1 -93.3,-32.7 -84,23.1 -196.2,28.3 -217.6,84.8 z"
   id="path2549"
   style="fill:#8c4351;fill-opacity:1" />
		<path
   class="st2"
   d="m 1526,851.3 c -77.3,22.3 -199.9,34.9 -265.9,34.9 v 0 126.2 c 0,0.5 0.2,0.7 0.5,1.2 45.2,0 184.2,-14.7 268.1,-37.8 14.7,-3.7 29,-8.6 43,-14.2 10.3,-4.7 16.9,-9.6 16.9,-14.5 V 819.6 c -0.2,12 -31.4,22.6 -62.6,31.7 z"
   id="path2551"
   style="fill:#f7768e;fill-opacity:1" />
		<path
   class="st2"
   d="m 1526,1014.8 c -46.2,13.3 -108.5,23.3 -165.5,29 -38.1,3.9 -73.7,5.9 -100.4,5.9 v 0 126 c 0,0.5 0.2,0.7 0.5,1.2 45.2,0 184.2,-14.7 268.1,-37.8 14.7,-3.7 29,-8.6 43,-14.2 10.3,-4.7 16.9,-9.6 16.9,-14.5 V 983.1 c -0.2,12.1 -31.4,22.6 -62.6,31.7 z"
   id="path2553"
   style="fill:#f7768e;fill-opacity:1" />
		<path
   class="st2"
   d="m 1526,1178.3 c -46.2,13.3 -108.5,23.3 -165.5,29 -38.3,3.9 -73.9,5.9 -100.4,5.9 v 127.2 c 44.7,0 184.4,-14.5 268.6,-37.8 30.9,-8.6 59.9,-18.2 59.9,-28.7 v -127.2 c -0.2,12 -31.4,22.6 -62.6,31.6 z"
   id="path2555"
   style="fill:#f7768e;fill-opacity:1" />
	</g>
</g>
</svg>
