<?xml version="1.0" encoding="UTF-8" standalone="no"?>
<!-- Generator: Adobe Illustrator 25.2.1, SVG Export Plug-In . SVG Version: 6.00 Build 0)  -->

<svg
   version="1.1"
   id="Layer_1"
   x="0px"
   y="0px"
   viewBox="0 0 3840 2160"
   style="enable-background:new 0 0 3840 2160;"
   xml:space="preserve"
   sodipodi:docname="sublime.svg"
   inkscape:version="1.1.1 (3bf5ae0d25, 2021-09-20)"
   xmlns:inkscape="http://www.inkscape.org/namespaces/inkscape"
   xmlns:sodipodi="http://sodipodi.sourceforge.net/DTD/sodipodi-0.dtd"
   xmlns="http://www.w3.org/2000/svg"
   xmlns:svg="http://www.w3.org/2000/svg"><defs
   id="defs2647" /><sodipodi:namedview
   id="namedview2645"
   pagecolor="#505050"
   bordercolor="#eeeeee"
   borderopacity="1"
   inkscape:pageshadow="0"
   inkscape:pageopacity="0"
   inkscape:pagecheckerboard="0"
   showgrid="false"
   inkscape:zoom="0.25190679"
   inkscape:cx="905.09668"
   inkscape:cy="970.5971"
   inkscape:window-width="1920"
   inkscape:window-height="1060"
   inkscape:window-x="0"
   inkscape:window-y="20"
   inkscape:window-maximized="1"
   inkscape:current-layer="Layer_1"
   showguides="false" />
<style
   type="text/css"
   id="style2623">
	.st0{fill:#464646;}
	.st1{fill-rule:evenodd;clip-rule:evenodd;fill:url(#SVGID_1_);}
	.st2{fill-rule:evenodd;clip-rule:evenodd;fill:#FF9800;}
</style>
<rect
   style="fill:#24283b;fill-opacity:1;stroke:#1a1b26;stroke-width:6.79166"
   id="rect3113"
   width="3833.2085"
   height="2153.2083"
   x="3.3958299"
   y="3.3958299" /><g
   id="g2642">
	<path
   class="st0"
   d="m 2200.9,1400.2 h -561.8 c -21.5,0 -39.3,-17.8 -39.3,-39.3 V 799.1 c 0,-21.5 17.8,-39.3 39.3,-39.3 h 561.8 c 21.5,0 39.3,17.8 39.3,39.3 v 561.8 c 0,21.5 -17.8,39.3 -39.3,39.3 z"
   id="path2625"
   style="fill:#414868;fill-opacity:1" />
	<g
   id="g2640">
		
			<linearGradient
   id="SVGID_1_"
   gradientUnits="userSpaceOnUse"
   x1="-868.11981"
   y1="1586.5582"
   x2="-865.46478"
   y2="1586.5582"
   gradientTransform="matrix(11.7888,-39.4189,33.3659,13.638,-40793.695,-54626.184)">
			<stop
   offset="0"
   style="stop-color:#ff9e64;stop-opacity:1"
   id="stop2627" />
			<stop
   offset="0.53"
   style="stop-color:#ff9e64;stop-opacity:1"
   id="stop2629" />
			<stop
   offset="1"
   style="stop-color:#c77b4e;stop-opacity:1"
   id="stop2631" />
		</linearGradient>
		<path
   class="st1"
   d="m 2102.6,1082 c 0,-5.5 -4,-8.8 -9.3,-7.3 l -347.2,110.1 c -5,1.5 -9.3,7.5 -9.3,13 v 112.6 c 0,5.5 4,8.8 9.3,7.3 l 347.2,-110.1 c 5,-1.5 9.3,-7.5 9.3,-13 z"
   id="path2634" />
		<path
   class="st2"
   d="m 1737.1,1078.2 c 0,5.5 4,11.5 9.3,13 l 347.2,110.1 c 5,1.5 9.3,-1.5 9.3,-7.3 v -112.6 c 0,-5.5 -4,-11.3 -9.3,-13 L 1746.4,958.3 c -5,-1.5 -9.3,1.5 -9.3,7.3 0,0.1 0,112.6 0,112.6 z"
   id="path2636"
   style="fill:#ff9e64;fill-opacity:1" />
		<path
   class="st2"
   d="m 2102.6,850.6 c 0,-5.5 -4,-8.8 -9.3,-7.3 l -347.2,110.1 c -5,1.5 -9.3,7.5 -9.3,13 V 1079 c 0,5.5 4,8.8 9.3,7.3 l 347.2,-110.1 c 5,-1.5 9.3,-7.5 9.3,-13 0,0 0,-112.6 0,-112.6 z"
   id="path2638"
   style="fill:#ff9e64;fill-opacity:1" />
	</g>
</g>
</svg>
