<?xml version="1.0" encoding="UTF-8" standalone="no"?>
<!-- Generator: Adobe Illustrator 25.2.1, SVG Export Plug-In . SVG Version: 6.00 Build 0)  -->

<svg
   version="1.1"
   id="Layer_1"
   x="0px"
   y="0px"
   viewBox="0 0 3840 2160"
   style="enable-background:new 0 0 3840 2160;"
   xml:space="preserve"
   sodipodi:docname="typescript.svg"
   inkscape:version="1.1.1 (3bf5ae0d25, 2021-09-20)"
   xmlns:inkscape="http://www.inkscape.org/namespaces/inkscape"
   xmlns:sodipodi="http://sodipodi.sourceforge.net/DTD/sodipodi-0.dtd"
   xmlns="http://www.w3.org/2000/svg"
   xmlns:svg="http://www.w3.org/2000/svg"><defs
   id="defs2721" /><sodipodi:namedview
   id="namedview2719"
   pagecolor="#505050"
   bordercolor="#eeeeee"
   borderopacity="1"
   inkscape:pageshadow="0"
   inkscape:pageopacity="0"
   inkscape:pagecheckerboard="0"
   showgrid="false"
   inkscape:zoom="0.25190679"
   inkscape:cx="778.06557"
   inkscape:cy="930.89987"
   inkscape:window-width="1920"
   inkscape:window-height="1060"
   inkscape:window-x="0"
   inkscape:window-y="20"
   inkscape:window-maximized="1"
   inkscape:current-layer="Layer_1" />
<style
   type="text/css"
   id="style2706">
	.st0{fill:#3178C6;}
	.st1{fill-rule:evenodd;clip-rule:evenodd;fill:#FFFFFF;}
</style>
<rect
   style="fill:#24283b;fill-opacity:1;stroke:#1a1b26;stroke-width:6.79166"
   id="rect3113"
   width="3833.2085"
   height="2153.2083"
   x="3.3958299"
   y="3.3958299" /><g
   id="g2716">
	<path
   class="st0"
   d="m 1569.7,644.7 h 700.6 c 46.9,0 85,38.1 85,85 v 700.6 c 0,46.9 -38.1,85 -85,85 h -700.6 c -46.9,0 -85,-38.1 -85,-85 V 729.7 c 0,-46.9 38.1,-85 85,-85 z"
   id="path2708"
   style="fill:#7aa2f7;fill-opacity:1" />
	<g
   id="g2714"
   style="fill:#d5d6db;fill-opacity:1">
		<path
   class="st1"
   d="m 2023.7,1336.8 v 85 c 13.8,7.1 30.6,12.4 49.3,16 18.7,3.6 39.1,5.3 59.5,5.3 20.4,0 39.1,-1.9 57.8,-5.8 18.7,-3.9 34,-10.4 47.6,-18.7 13.8,-9 25.5,-20.4 32.3,-35.7 6.8,-15.3 12.1,-32.3 12.1,-54.4 0,-15.5 -2.4,-28.9 -7,-40.8 -4.6,-11.9 -11.2,-22.1 -20.4,-30.6 -8.7,-9 -18.7,-17 -30.6,-23.8 -11.9,-6.8 -25.5,-13.9 -40.8,-20.4 -11.2,-4.6 -20.4,-9 -30.6,-13.4 -8.8,-4.4 -16.5,-8.8 -22.1,-13.3 -6.3,-4.6 -11.1,-9.4 -14.5,-14.3 -3.4,-5.1 -5.1,-10.7 -5.1,-17 0,-5.8 1.5,-11.1 4.6,-15.8 3.1,-4.8 7.3,-8.7 12.8,-12.1 5.5,-3.4 12.2,-6 20.4,-7.8 8,-1.9 16.8,-2.7 27.2,-2.7 7.1,0 14.6,0.5 22.1,1.5 7.8,1 15.8,2.7 23.8,4.9 8,2.2 15.8,4.9 23.8,8.3 7.5,3.4 14.5,7.3 20.4,11.7 V 1063 c -12.9,-4.9 -27.2,-8.7 -42.5,-11.1 -15.3,-2.4 -32.3,-3.6 -52.7,-3.6 -20.4,0 -39.1,2.2 -57.8,6.5 -18.7,4.3 -34,11.1 -47.6,20.4 -13.8,9.2 -23.8,20.4 -32.3,35.7 -8,14.3 -11.9,30.6 -11.9,51 0,25.5 7.3,47.6 22.1,64.6 14.6,18.7 37.4,32.3 66.3,45.9 11.7,4.8 22.1,9.5 32.3,14.1 10.2,4.6 18.7,9.4 25.5,14.3 7.3,4.9 13.1,10.4 17,16.2 4.3,5.8 6.5,12.6 6.5,20.4 0,5.4 -1.4,10.5 -3.9,15.3 -2.6,4.8 -6.6,8.8 -12.1,12.2 -5.4,3.4 -12.1,6.1 -20.4,8.2 -8,1.9 -17,2.9 -28.9,2.9 -18.7,0 -37.4,-3.2 -54.4,-9.7 -18.7,-6.5 -35.7,-16.2 -51,-28.9 z"
   id="path2710"
   style="fill:#d5d6db;fill-opacity:1" />
		<polygon
   class="st1"
   points="1794.2,1127.6 1794.2,1438.8 1880.9,1438.8 1880.9,1127.6 1989.7,1127.6 1989.7,1057.9 1685.3,1057.9 1685.3,1127.6 "
   id="polygon2712"
   style="fill:#d5d6db;fill-opacity:1" />
	</g>
</g>
</svg>
