<?xml version="1.0" encoding="UTF-8" standalone="no"?>
<!-- Generator: Adobe Illustrator 25.2.1, SVG Export Plug-In . SVG Version: 6.00 Build 0)  -->

<svg
   version="1.1"
   id="Layer_1"
   x="0px"
   y="0px"
   viewBox="0 0 3840 2160"
   style="enable-background:new 0 0 3840 2160;"
   xml:space="preserve"
   sodipodi:docname="vim.svg"
   inkscape:version="1.1.1 (3bf5ae0d25, 2021-09-20)"
   xmlns:inkscape="http://www.inkscape.org/namespaces/inkscape"
   xmlns:sodipodi="http://sodipodi.sourceforge.net/DTD/sodipodi-0.dtd"
   xmlns="http://www.w3.org/2000/svg"
   xmlns:svg="http://www.w3.org/2000/svg"><defs
   id="defs2817" /><sodipodi:namedview
   id="namedview2815"
   pagecolor="#505050"
   bordercolor="#eeeeee"
   borderopacity="1"
   inkscape:pageshadow="0"
   inkscape:pageopacity="0"
   inkscape:pagecheckerboard="0"
   showgrid="false"
   inkscape:zoom="0.35625"
   inkscape:cx="1308.0702"
   inkscape:cy="1079.2982"
   inkscape:window-width="1920"
   inkscape:window-height="1060"
   inkscape:window-x="0"
   inkscape:window-y="20"
   inkscape:window-maximized="1"
   inkscape:current-layer="Layer_1" />
<style
   type="text/css"
   id="style2780">
	.st0{fill:#19953F;}
	.st1{fill:#D0D0CF;}
</style>
<rect
   style="fill:#24283b;fill-opacity:1;stroke:#1a1b26;stroke-width:6.79166"
   id="rect3113"
   width="3833.2085"
   height="2153.2083"
   x="3.3958299"
   y="3.3958299" /><g
   id="g2812">
	<g
   id="g2786">
		<polygon
   points="1599.8,1085 1920.9,760 2240.2,1081.1 1919.1,1404.3 "
   id="polygon2782"
   style="fill:#414868;fill-opacity:1" />
		<polygon
   class="st0"
   points="1919.1,1385.8 2222,1081.1 1920.9,778.4 1618.3,1085 "
   id="polygon2784"
   style="fill:#9ece6a;fill-opacity:1" />
	</g>
	<g
   id="g2792">
		<polygon
   points="1889.4,819.3 1889.4,865.3 1870.5,884.5 1855.6,884.5 1854.3,1017.9 1993.2,884 1989.3,884 1972.9,862.9 1972.9,817.7 1989,794.8 2203.3,796.6 2219.9,813.5 2219.9,867.1 1755.5,1339 1692.6,1339 1670.3,1316.7 1669.7,883 1654.9,882.7 1636.7,865.3 1636.7,809.6 1653.6,792.7 1869.2,796.6 "
   id="polygon2788"
   style="fill:#414868;fill-opacity:1" />
		<polygon
   class="st1"
   points="2025.2,871 1841.1,1048.8 1842.9,871.5 1865,871.5 1876.4,859.8 1876.4,824.2 1863.2,809.6 1659.1,806 1649.7,815.1 1649.7,859.8 1660.1,869.7 1682.7,870.5 1683.3,1311.2 1698.1,1326 1750.1,1326 2206.9,861.6 2206.9,818.7 2197.8,809.6 1995.8,807.8 1985.9,821.9 1985.9,858.5 1995.8,871 "
   id="polygon2790"
   style="fill:#d5d6db;fill-opacity:1" />
	</g>
	<g
   id="g2798">
		<polygon
   points="1991.4,1139.1 1979.2,1150.2 1940.7,1149.7 1927.7,1133.9 1938.3,1098 1952.9,1086 1989.6,1087.1 2004.4,1101.9 "
   id="polygon2794"
   style="fill:#414868;fill-opacity:1" />
		<polygon
   class="st1"
   points="1942,1131 1946.7,1136.7 1974.2,1137 1980.2,1131.5 1989.6,1105.5 1984.1,1099.8 1957.6,1099 1949.8,1105.5 "
   id="polygon2796"
   style="fill:#d5d6db;fill-opacity:1" />
	</g>
	<g
   id="g2804">
		<polygon
   points="1963.6,1272.7 1950.6,1309.1 1867.3,1307.8 1905,1196 1886.6,1197 1900.4,1154.7 1988.3,1155.7 1949.3,1272.7 "
   id="polygon2800"
   style="fill:#414868;fill-opacity:1" />
		<polygon
   class="st1"
   points="1923.5,1182.2 1885.3,1295.1 1941.5,1295.9 1945.1,1285.7 1931.3,1285.7 1970.3,1168.7 1909.7,1167.9 1904.8,1183 "
   id="polygon2802"
   style="fill:#d5d6db;fill-opacity:1" />
	</g>
	<g
   id="g2810">
		<polygon
   points="2075.1,1170.5 2089.1,1156.7 2126.8,1156.7 2142.7,1172.3 2152.1,1172.3 2167.1,1157.5 2211.3,1157.5 2226.9,1182.7 2198.3,1274 2213.7,1274.5 2201.2,1308.6 2124.8,1307.8 2153.4,1217.1 2133.6,1217.1 2114.1,1273.5 2128.7,1273.8 2116.4,1308.1 2042.9,1307 2071.7,1216.3 2046.2,1216.8 2028.3,1272.7 2044.9,1273.8 2031.2,1308.9 1956.3,1308.9 1996.1,1193.9 1977.9,1193.9 1992.4,1155.7 2048.8,1155.7 2064.7,1170.5 "
   id="polygon2806"
   style="fill:#414868;fill-opacity:1" />
		<polygon
   class="st1"
   points="2107.3,1294.8 2110.5,1286.2 2096.2,1286 2124.2,1204.1 2171,1204.1 2142.4,1295.1 2192.1,1295.6 2195.5,1286.8 2180.7,1286.2 2212.9,1184.6 2204.1,1170.5 2172.3,1170.5 2157.5,1185.3 2137.2,1185.3 2121.6,1169.7 2094.3,1169.7 2080.6,1183.5 2059.5,1183.5 2043.6,1168.7 2001.5,1168.7 1996.8,1180.9 2014.3,1180.9 1974.5,1295.9 2022.3,1295.9 2026.2,1285.7 2010.9,1284.7 2036.9,1204.1 2089.4,1202.8 2060.5,1294.3 "
   id="polygon2808"
   style="fill:#d5d6db;fill-opacity:1" />
	</g>
</g>
</svg>
