<?xml version="1.0" encoding="UTF-8" standalone="no"?>
<!-- Generator: Adobe Illustrator 25.2.1, SVG Export Plug-In . SVG Version: 6.00 Build 0)  -->

<svg
   version="1.1"
   id="Layer_1"
   x="0px"
   y="0px"
   viewBox="0 0 3840 2160"
   style="enable-background:new 0 0 3840 2160;"
   xml:space="preserve"
   sodipodi:docname="vscode.svg"
   inkscape:version="1.1.1 (3bf5ae0d25, 2021-09-20)"
   xmlns:inkscape="http://www.inkscape.org/namespaces/inkscape"
   xmlns:sodipodi="http://sodipodi.sourceforge.net/DTD/sodipodi-0.dtd"
   xmlns="http://www.w3.org/2000/svg"
   xmlns:svg="http://www.w3.org/2000/svg"><defs
   id="defs2916" /><sodipodi:namedview
   id="namedview2914"
   pagecolor="#505050"
   bordercolor="#eeeeee"
   borderopacity="1"
   inkscape:pageshadow="0"
   inkscape:pageopacity="0"
   inkscape:pagecheckerboard="0"
   showgrid="false"
   inkscape:zoom="0.25190679"
   inkscape:cx="2278.6206"
   inkscape:cy="974.56682"
   inkscape:window-width="1920"
   inkscape:window-height="1060"
   inkscape:window-x="0"
   inkscape:window-y="20"
   inkscape:window-maximized="1"
   inkscape:current-layer="Layer_1" />
<style
   type="text/css"
   id="style2876">
	.st0{fill:#0065A9;}
	.st1{fill:#007ACC;}
	.st2{fill:#1F9CF0;}
	.st3{opacity:0.25;}
	.st4{fill-rule:evenodd;clip-rule:evenodd;fill:url(#SVGID_1_);}
</style>
<rect
   style="fill:#24283b;fill-opacity:1;stroke:#1a1b26;stroke-width:6.79166"
   id="rect3113"
   width="3833.2085"
   height="2153.2083"
   x="3.3958299"
   y="3.3958299" /><g
   id="g2911">
	<g
   id="g2888">
		<path
   class="st0"
   d="m 2217.7,828.9 -132,-63.4 c -15.4,-7 -33.3,-4.5 -45.5,7.7 l -431.8,394 c -11.5,10.9 -11.5,28.8 0,39.7 l 35.2,32 c 9.6,9 23.7,9 34,1.3 l 520.2,-394.7 c 17.3,-13.5 42.3,-0.6 42.3,21.1 v -1.3 c 0.7,-15.9 -8.3,-30 -22.4,-36.4 z"
   id="path2878" />
		<g
   id="g2882">
			<path
   class="st1"
   d="m 2217.7,1331.2 -132,63.4 c -15.4,7 -33.3,4.5 -45.5,-7.7 l -431.8,-394 c -11.5,-10.9 -11.5,-28.8 0,-39.7 l 35.2,-32 c 9.6,-9 23.7,-9 34,-1.3 l 520.2,394.7 c 17.3,13.5 42.3,0.6 42.3,-21.1 v 1.3 c 0.7,15.9 -8.3,30 -22.4,36.4 z"
   id="path2880" />
		</g>
		<g
   id="g2886">
			<path
   class="st2"
   d="m 2085.8,1394.6 c -15.4,7 -33.3,4.5 -45.5,-7.7 14.7,14.7 39.7,4.5 39.7,-16.7 V 789.8 c 0,-21.1 -25,-31.4 -39.7,-16.7 12.2,-12.2 30.1,-15.4 45.5,-7.7 l 132,63.4 c 14.1,6.4 22.4,20.5 22.4,35.9 v 430.5 c 0,15.4 -9,29.5 -22.4,35.9 z"
   id="path2884" />
		</g>
	</g>
	<g
   id="g2900">
		<path
   class="st0"
   d="m 2217.7,828.9 -132,-63.4 c -15.4,-7 -33.3,-4.5 -45.5,7.7 l -431.8,394 c -11.5,10.9 -11.5,28.8 0,39.7 l 35.2,32 c 9.6,9 23.7,9 34,1.3 l 520.2,-394.7 c 17.3,-13.5 42.3,-0.6 42.3,21.1 v -1.3 c 0.7,-15.9 -8.3,-30 -22.4,-36.4 z"
   id="path2890"
   style="fill:#7aa2f7;fill-opacity:1" />
		<g
   id="g2894"
   style="fill:#2ac3de;fill-opacity:1">
			<path
   class="st1"
   d="m 2217.7,1331.2 -132,63.4 c -15.4,7 -33.3,4.5 -45.5,-7.7 l -431.8,-394 c -11.5,-10.9 -11.5,-28.8 0,-39.7 l 35.2,-32 c 9.6,-9 23.7,-9 34,-1.3 l 520.2,394.7 c 17.3,13.5 42.3,0.6 42.3,-21.1 v 1.3 c 0.7,15.9 -8.3,30 -22.4,36.4 z"
   id="path2892"
   style="fill:#2ac3de;fill-opacity:1" />
		</g>
		<g
   id="g2898"
   style="fill:#b4f9f8;fill-opacity:1">
			<path
   class="st2"
   d="m 2085.8,1394.6 c -15.4,7 -33.3,4.5 -45.5,-7.7 14.7,14.7 39.7,4.5 39.7,-16.7 V 789.8 c 0,-21.1 -25,-31.4 -39.7,-16.7 12.2,-12.2 30.1,-15.4 45.5,-7.7 l 132,63.4 c 14.1,6.4 22.4,20.5 22.4,35.9 v 430.5 c 0,15.4 -9,29.5 -22.4,35.9 z"
   id="path2896"
   style="fill:#7dcfff;fill-opacity:1" />
		</g>
	</g>
	<g
   class="st3"
   id="g2909">
		
			<linearGradient
   id="SVGID_1_"
   gradientUnits="userSpaceOnUse"
   x1="1919.9839"
   y1="2819.4924"
   x2="1919.9839"
   y2="3456.6621"
   gradientTransform="translate(0,-2058)">
			<stop
   offset="0"
   style="stop-color:#FFFFFF"
   id="stop2902" />
			<stop
   offset="1"
   style="stop-color:#FFFFFF;stop-opacity:0"
   id="stop2904" />
		</linearGradient>
		
	</g>
</g>
</svg>
