<?xml version="1.0" encoding="UTF-8" standalone="no"?>
<!-- Generator: Adobe Illustrator 25.2.1, SVG Export Plug-In . SVG Version: 6.00 Build 0)  -->

<svg
   version="1.1"
   id="Layer_1"
   x="0px"
   y="0px"
   viewBox="0 0 3840 2160"
   style="enable-background:new 0 0 3840 2160;"
   xml:space="preserve"
   sodipodi:docname="zig.svg"
   inkscape:version="1.1.1 (3bf5ae0d25, 2021-09-20)"
   xmlns:inkscape="http://www.inkscape.org/namespaces/inkscape"
   xmlns:sodipodi="http://sodipodi.sourceforge.net/DTD/sodipodi-0.dtd"
   xmlns="http://www.w3.org/2000/svg"
   xmlns:svg="http://www.w3.org/2000/svg"><defs
   id="defs3032" /><sodipodi:namedview
   id="namedview3030"
   pagecolor="#505050"
   bordercolor="#eeeeee"
   borderopacity="1"
   inkscape:pageshadow="0"
   inkscape:pageopacity="0"
   inkscape:pagecheckerboard="0"
   showgrid="false"
   inkscape:zoom="0.35625"
   inkscape:cx="1920"
   inkscape:cy="1079.2982"
   inkscape:window-width="1920"
   inkscape:window-height="1060"
   inkscape:window-x="0"
   inkscape:window-y="20"
   inkscape:window-maximized="1"
   inkscape:current-layer="Layer_1" />
<style
   type="text/css"
   id="style2975">
	.st0{fill:#F7A41D;}
	.st1{fill:#121212;}
</style>
<rect
   style="fill:#24283b;stroke:#1a1b26;stroke-width:6.79166;fill-opacity:1"
   id="rect3113"
   width="3833.2085"
   height="2153.2083"
   x="3.3958297"
   y="3.3958297" /><g
   id="g3027">
	<g
   id="g3005"
   style="fill:#e0af68;fill-opacity:1">
		<g
   id="g2983"
   style="fill:#e0af68;fill-opacity:1">
			<polygon
   class="st0"
   points="1394.7,999.7 1366.9,956.4 1450.3,931.7 "
   id="polygon2977"
   style="fill:#e0af68;fill-opacity:1" />
			<polygon
   shape-rendering="crispEdges"
   class="st0"
   points="1410.2,965.7 1394.7,999.7 1376.2,999.7 1376.2,1157.2 1404,1157.2 1370,1172.7 1345.3,1225.2 1308.3,1225.2 1308.3,931.7 1450.3,931.7 "
   id="polygon2979"
   style="fill:#e0af68;fill-opacity:1" />
			<polygon
   class="st0"
   points="1345.3,1225.2 1320.6,1191.2 1404,1157.2 "
   id="polygon2981"
   style="fill:#e0af68;fill-opacity:1" />
		</g>
		<g
   id="g2995"
   style="fill:#e0af68;fill-opacity:1">
			<polygon
   class="st0"
   points="1499.8,975 1422.5,999.7 1481.2,931.7 "
   id="polygon2985"
   style="fill:#e0af68;fill-opacity:1" />
			<polygon
   shape-rendering="crispEdges"
   class="st0"
   points="1651.1,931.7 1651.1,999.7 1422.5,999.7 1481.2,962.6 1481.2,931.7 "
   id="polygon2987"
   style="fill:#e0af68;fill-opacity:1" />
			<polygon
   class="st0"
   points="1607.9,1225.2 1586.3,1185 1666.6,1157.2 "
   id="polygon2989"
   style="fill:#e0af68;fill-opacity:1" />
			<polygon
   shape-rendering="crispEdges"
   class="st0"
   points="1617.1,1185 1607.9,1225.2 1438,1225.2 1438,1157.2 1666.6,1157.2 "
   id="polygon2991"
   style="fill:#e0af68;fill-opacity:1" />
			<polygon
   class="st0"
   points="1468.9,1225.2 1317.5,1296.2 1620.2,931.7 1771.6,863.8 "
   id="polygon2993"
   style="fill:#e0af68;fill-opacity:1" />
		</g>
		<g
   id="g3003"
   style="fill:#e0af68;fill-opacity:1">
			<polygon
   class="st0"
   points="1740.7,987.3 1685.1,1002.8 1743.8,931.7 "
   id="polygon2997"
   style="fill:#e0af68;fill-opacity:1" />
			<polygon
   shape-rendering="crispEdges"
   class="st0"
   points="1780.8,1225.2 1635.7,1225.2 1678.9,1188.1 1694.4,1157.2 1712.9,1157.2 1712.9,1002.8 1685.1,1002.8 1716,975 1743.8,931.7 1780.8,931.7 "
   id="polygon2999"
   style="fill:#e0af68;fill-opacity:1" />
			<polygon
   class="st0"
   points="1709.8,1203.6 1635.7,1225.2 1694.4,1157.2 "
   id="polygon3001"
   style="fill:#e0af68;fill-opacity:1" />
		</g>
	</g>
	<g
   id="g3025"
   style="fill:#c0caf5;fill-opacity:1">
		<g
   id="g3013"
   style="fill:#c0caf5;fill-opacity:1">
			<polygon
   shape-rendering="crispEdges"
   class="st1"
   points="1855,931.7 2111.4,931.7 2111.4,978.1 2015.6,987.3 1855,987.3 "
   id="polygon3007"
   style="fill:#c0caf5;fill-opacity:1" />
			<polygon
   class="st1"
   points="2015.6,987.3 2015.6,978.1 2111.4,978.1 1947.6,1169.6 1947.6,1181.9 1851.9,1181.9 "
   id="polygon3009"
   style="fill:#c0caf5;fill-opacity:1" />
			<polygon
   shape-rendering="crispEdges"
   class="st1"
   points="1944.6,1169.6 2114.4,1169.6 2114.4,1225.2 1851.9,1225.2 1851.9,1181.9 "
   id="polygon3011"
   style="fill:#c0caf5;fill-opacity:1" />
		</g>
		<rect
   x="2148.3999"
   y="931.70001"
   shape-rendering="crispEdges"
   class="st1"
   width="68"
   height="293.39999"
   id="rect3015"
   style="fill:#c0caf5;fill-opacity:1" />
		<g
   id="g3023"
   style="fill:#c0caf5;fill-opacity:1">
			<polygon
   shape-rendering="crispEdges"
   class="st1"
   points="2420.2,1080 2377,1070.7 2525.3,1070.7 2525.3,1191.2 2469.7,1191.2 2469.7,1114 "
   id="polygon3017"
   style="fill:#c0caf5;fill-opacity:1" />
			<polygon
   class="st1"
   points="2469.7,1114 2377,1070.7 2420.2,1073.8 "
   id="polygon3019"
   style="fill:#c0caf5;fill-opacity:1" />
			<path
   class="st1"
   d="m 2525.3,1191.2 c -31.5,22.5 -74.1,37.1 -116.4,37.1 -89.6,0 -157.8,-64.2 -157.8,-149.2 0,-84.3 69.5,-148.6 160.6,-148.6 44.2,0 90.2,17 120.2,43.2 l -40.2,46.3 c -21.9,-19.5 -51.9,-30.9 -80,-30.9 -52.5,0 -93.3,39.8 -93.3,91.1 0,51.9 41.1,91.4 93.6,91.4 17.6,0 39.5,-7.1 58.7,-17 z"
   id="path3021"
   style="fill:#c0caf5;fill-opacity:1" />
		</g>
	</g>
</g>
</svg>
